<?xml version="1.0" encoding="UTF-8"?>
<svg width="14px" height="15px" viewBox="0 0 14 15" version="1.1" xmlns="http://www.w3.org/2000/svg" xmlns:xlink="http://www.w3.org/1999/xlink">
    <!-- Generator: Sketch 52.4 (67378) - http://www.bohemiancoding.com/sketch -->
    <title>关闭默认</title>
    <desc>Created with Sketch.</desc>
    <g id="切图-+-杂项" stroke="none" stroke-width="1" fill="none" fill-rule="evenodd">
        <g id="iPhone-SE" transform="translate(-328.000000, -96.000000)" fill="#90A2AE" fill-rule="nonzero">
            <g id="关闭默认" transform="translate(328.000000, 96.000000)">
                <path d="M0.769922446,6.6032421 L13.2699224,6.6032421 C13.684136,6.6032421 14.0199224,6.93902854 14.0199224,7.3532421 L14.0199224,7.3532421 C14.0199224,7.76745566 13.684136,8.1032421 13.2699224,8.1032421 L0.769922446,8.1032421 C0.355708883,8.1032421 0.0199224458,7.76745566 0.0199224458,7.3532421 L0.0199224458,7.3532421 C0.0199224458,6.93902854 0.355708883,6.6032421 0.769922446,6.6032421 Z" id="矩形-copy-2" transform="translate(7.019922, 7.353242) rotate(-315.000000) translate(-7.019922, -7.353242) "></path>
                <path d="M0.669417382,6.54258193 L13.1694174,6.54258193 C13.5836309,6.54258193 13.9194174,6.87836837 13.9194174,7.29258193 L13.9194174,7.29258193 C13.9194174,7.70679549 13.5836309,8.04258193 13.1694174,8.04258193 L0.669417382,8.04258193 C0.25520382,8.04258193 -0.0805826176,7.70679549 -0.0805826176,7.29258193 L-0.0805826176,7.29258193 C-0.0805826176,6.87836837 0.25520382,6.54258193 0.669417382,6.54258193 Z" id="矩形-copy-2" transform="translate(6.919417, 7.292582) rotate(-45.000000) translate(-6.919417, -7.292582) "></path>
            </g>
        </g>
    </g>
</svg>