<?xml version="1.0" encoding="UTF-8"?>
<svg width="162px" height="163px" viewBox="0 0 162 163" version="1.1" xmlns="http://www.w3.org/2000/svg" xmlns:xlink="http://www.w3.org/1999/xlink">
    <!-- Generator: Sketch 52.4 (67378) - http://www.bohemiancoding.com/sketch -->
    <title>地球</title>
    <desc>Created with Sketch.</desc>
    <defs>
        <linearGradient x1="54.8202542%" y1="19.8555406%" x2="54.8202542%" y2="148.36469%" id="linearGradient-1">
            <stop stop-color="#0581D1" offset="0%"></stop>
            <stop stop-color="#042676" stop-opacity="0.838768116" offset="100%"></stop>
        </linearGradient>
        <path d="M138.217515,81.9610345 C138.217515,113.763684 112.69845,139.545204 81.2170798,139.545204 C49.7365175,139.545204 24.2161054,113.763684 24.2161054,81.9610345 C24.2161054,50.1581125 49.7365175,24.3763209 81.2170798,24.3763209 C112.69845,24.3763209 138.217515,50.1581125 138.217515,81.9610345" id="path-2"></path>
        <filter x="-6.1%" y="-5.2%" width="112.3%" height="112.2%" filterUnits="objectBoundingBox" id="filter-3">
            <feGaussianBlur stdDeviation="0" in="SourceGraphic"></feGaussianBlur>
        </filter>
        <filter x="-9.6%" y="-8.7%" width="119.3%" height="119.1%" filterUnits="objectBoundingBox" id="filter-4">
            <feMorphology radius="1" operator="dilate" in="SourceAlpha" result="shadowSpreadOuter1"></feMorphology>
            <feOffset dx="0" dy="1" in="shadowSpreadOuter1" result="shadowOffsetOuter1"></feOffset>
            <feGaussianBlur stdDeviation="2.5" in="shadowOffsetOuter1" result="shadowBlurOuter1"></feGaussianBlur>
            <feColorMatrix values="0 0 0 0 0.0061479929   0 0 0 0 0.227340075   0 0 0 0 0.645195578  0 0 0 0.324190444 0" type="matrix" in="shadowBlurOuter1"></feColorMatrix>
        </filter>
        <linearGradient x1="67.1452721%" y1="5.41685136%" x2="31.9281263%" y2="95.2996947%" id="linearGradient-5">
            <stop stop-color="#0182CD" offset="0%"></stop>
            <stop stop-color="#006AD0" offset="100%"></stop>
        </linearGradient>
        <linearGradient x1="65.6736526%" y1="4.12751576%" x2="23.7656657%" y2="112.610338%" id="linearGradient-6">
            <stop stop-color="#00AAF1" stop-opacity="0.39733356" offset="0%"></stop>
            <stop stop-color="#0071DE" offset="100%"></stop>
        </linearGradient>
        <path d="M93.2031092,13.8748857 C75.6795091,-0.891039979 53.9099151,0.012898037 53.2426854,0.0567615478 C23.5140843,2.01111236 1.8189894e-12,26.9838952 1.8189894e-12,57.5029675 C1.8189894e-12,89.2971321 25.5204121,115.071773 57.0009744,115.071773 C88.4823448,115.071773 114.001679,89.2971321 114.001679,57.5029675 C113.417114,57.5026955 115.96514,33.0548748 93.2031092,13.8748857 Z" id="path-7"></path>
        <linearGradient x1="55.9666514%" y1="1.97279767%" x2="55.9666514%" y2="81.20815%" id="linearGradient-9">
            <stop stop-color="#B4DE10" offset="0%"></stop>
            <stop stop-color="#B4DE10" stop-opacity="0.369367074" offset="100%"></stop>
        </linearGradient>
        <path d="M7.26438052,20.2522124 C12.1073009,14.2683289 14.528761,9.93905158 14.528761,7.26438052 C14.528761,3.25237394 11.2763871,0 7.26438052,0 C3.25237394,0 0,3.25237394 0,7.26438052 C0,9.93905158 2.42146017,14.2683289 7.26438052,20.2522124 Z" id="path-10"></path>
        <filter x="-13.8%" y="-4.9%" width="127.5%" height="119.8%" filterUnits="objectBoundingBox" id="filter-11">
            <feOffset dx="0" dy="1" in="SourceAlpha" result="shadowOffsetOuter1"></feOffset>
            <feGaussianBlur stdDeviation="0.5" in="shadowOffsetOuter1" result="shadowBlurOuter1"></feGaussianBlur>
            <feColorMatrix values="0 0 0 0 0   0 0 0 0 0.090358663   0 0 0 0 0.210538903  0 0 0 0.5 0" type="matrix" in="shadowBlurOuter1"></feColorMatrix>
        </filter>
    </defs>
    <g id="世界语言地图" stroke="none" stroke-width="1" fill="none" fill-rule="evenodd">
        <g id="电台详情-copy-2" transform="translate(-878.000000, -497.000000)">
            <g id="地球" transform="translate(852.000000, 470.000000)">
                <g>
                    <g transform="translate(107.645811, 108.180520) rotate(-23.000000) translate(-107.645811, -108.180520) translate(26.145811, 26.180520)">
                        <g id="Group-19" transform="translate(0.038747, 0.000000)">
                            <g id="Fill-4" filter="url(#filter-3)">
                                <use fill="black" fill-opacity="1" filter="url(#filter-4)" xlink:href="#path-2"></use>
                                <use fill="url(#linearGradient-1)" fill-rule="evenodd" xlink:href="#path-2"></use>
                            </g>
                            <ellipse id="Oval-3" fill="url(#linearGradient-5)" opacity="0.0299999993" cx="80.8734428" cy="82.013346" rx="80.6528854" ry="81.3540914"></ellipse>
                            <ellipse id="Oval-3" fill="url(#linearGradient-6)" opacity="0.100000001" cx="80.8734428" cy="82.013346" rx="68.5352854" ry="69.2364914"></ellipse>
                        </g>
                        <g id="Group-31" transform="translate(24.554520, 24.776221)">
                            <mask id="mask-8" fill="white">
                                <use xlink:href="#path-7"></use>
                            </mask>
                            <g id="Clip-29"></g>
                            <path d="M7.15522425,27.1990201 C7.15522425,27.1990201 10.7330384,20.6293977 12.0346495,19.3148203 C13.335183,18.0013311 16.9129972,19.1507702 18.7021736,18.4937536 C20.4913501,17.837009 18.7021736,16.6870258 16.9129972,16.0302812 C15.1238207,15.3729925 17.5635333,13.7305869 20.9789155,12.2525035 C24.3942976,10.774148 21.1413475,14.2235534 22.4424198,16.1943313 C23.7437615,18.1653813 24.7197004,15.3729925 27.1583355,13.7305869 C29.5980481,12.0884534 28.7850799,14.7162479 29.4356161,15.5373147 C30.0861522,16.3586535 31.0618218,15.7019089 31.2242538,13.8951811 C31.3872245,12.0884534 31.5496565,11.4308926 33.338833,10.774148 C35.1274707,10.1171314 36.266111,11.9241312 38.3801515,13.0735703 C40.495,14.2235534 42.445531,14.3876035 43.0960672,16.851348 C43.7466033,19.3148203 42.9336351,18.986448 43.0960672,20.4650755 C43.2584992,21.943431 40.6577014,21.7785647 38.3801515,21.4504645 C36.1028709,21.1218201 36.4290817,20.3007534 36.4290817,17.3440424 C36.4290817,14.3876035 34.1520705,15.8662311 33.5015344,16.6870258 C32.8509982,17.5080926 32.5258648,18.1653813 32.8509982,19.8077868 C33.176401,21.4504645 30.8991204,21.4504645 29.4356161,20.4650755 C27.9718424,19.4794145 26.9959035,22.9285479 26.0202339,24.2425812 C25.0448338,25.5563424 27.9718424,27.0346979 29.2729147,28.5130534 C30.5737176,29.9914088 31.2242538,31.7978646 32.6882968,29.4984423 C34.1520705,27.1990201 34.1520705,25.5563424 34.4769345,22.6001756 C34.8026067,19.6437367 36.7542151,23.092598 38.3801515,24.7352757 C40.0063571,26.3776813 41.6325628,23.092598 42.6085018,26.2133591 C43.5841713,29.3343922 44.7228116,28.5130534 45.8614519,31.3051701 C46.9995534,34.0972868 47.3244175,35.2469979 46.9995534,35.9040146 C46.6744201,36.5610312 44.2347075,36.3969811 43.2584992,34.5902533 C42.283099,32.7835256 38.8677169,35.2469979 39.0304182,37.0539977 C39.193389,38.8609976 42.9336351,36.8899476 42.6085018,38.368031 C42.283099,39.8461144 39.193389,39.35342 36.266111,39.6820643 C33.338833,40.0104366 33.9893691,42.3095868 33.5015344,45.1025197 C33.0134302,47.8940923 29.2729147,47.7300421 28.2975145,49.7010921 C27.3213062,51.6724141 28.9480507,54.4639867 27.1583355,53.3140035 C25.3696978,52.1648365 24.2315962,50.3575646 22.7675532,50.686481 C21.3043182,51.0153974 17.7265041,52.0005143 17.5635333,54.628853 C17.4011013,57.2563754 20.0032459,57.5850198 22.9305239,56.5990867 C25.8578019,55.6139699 23.2556573,58.4055424 23.0932253,59.3914755 C22.9305239,60.3768644 24.8824017,59.3914755 25.5321298,61.0338811 C26.1826659,62.6760146 27.4837382,63.9900479 29.1104827,65.3040812 C30.7366884,66.6189307 31.3872245,64.1549142 34.4769345,64.5069554 C37.5671833,64.8592687 40.0063571,66.4535203 42.7712031,67.2754032 C45.5357798,68.09647 46.5114493,70.0672479 46.6744201,71.8745197 C46.8371214,73.6812475 48.4630578,72.6961306 52.3657359,74.6666364 C56.2692222,76.6379584 54.4805845,79.9230417 53.8300484,81.4011251 C53.1795122,82.8786644 53.667347,86.1637476 52.5281679,88.9566805 C51.3903358,91.7485252 47.6500896,92.733642 46.1863159,95.0336084 C44.7228116,97.3330306 42.9336351,100.61757 40.9717905,101.439453 C39.0088684,102.260519 37.5671833,108.009619 38.3801515,110.472547 C39.193389,112.93602 43.2584992,115.893003 39.193389,113.921953 C35.1274707,111.950631 33.338833,103.081586 33.6639664,99.1400305 C33.9893691,95.1976585 33.0134302,87.3131867 31.7123579,85.8356474 C30.4110162,84.357564 28.9480507,81.4011251 27.4837382,79.429259 C26.0202339,77.4587532 26.1826659,74.174214 27.3213062,71.3820973 C28.4599465,68.5897086 28.6223785,66.947303 28.6223785,66.947303 C26.3459061,67.2754032 23.9067322,64.1549142 21.4670196,62.018998 C19.027307,59.8838979 15.937597,60.2128143 13.6605858,58.023575 C11.3841133,55.8351519 11.3841133,52.657531 10.0825022,50.5224309 C8.78196869,48.3870588 11.0584412,55.1210033 9.75763823,54.9569532 C8.45710467,54.7929031 6.99279224,48.7154311 6.01685332,45.9238585 C5.04145315,43.1314697 6.17928533,39.0250477 7.15522425,36.7258975 C8.13143253,34.425387 6.50468809,31.9621867 7.15522425,27.1990201 Z M26.3458253,9.4604684 C26.3549839,7.58953528 25.8577211,8.63885752 27.1582547,6.66780758 C28.4601351,4.69675764 29.5979673,7.32509628 30.5736368,6.66780758 C31.5495757,6.01106299 32.363352,6.01106299 36.1030594,3.54731858 C39.8433056,1.08357416 40.1687083,2.56192963 45.5359683,1.90491299 C50.9021508,1.24789634 45.6984003,3.54731858 43.2586877,4.86107981 C40.8200526,6.17511311 41.632482,6.99645193 39.3557402,6.66780758 C37.0792677,6.33943528 36.9165663,8.80290764 36.1030594,8.85813512 C35.2900913,8.91363467 33.3387522,9.13155199 32.20092,8.31048522 C31.061741,7.48969051 30.0860714,9.4604684 28.4601351,11.1023299 C26.8333906,12.7450075 26.3366666,11.2965783 26.3458253,9.4604684 Z M45.861425,4.36857578 C49.4392391,1.24808678 57.7332383,2.72589814 61.961858,2.23320366 C66.1902083,1.74078125 69.7677531,2.39725378 71.7188228,3.38318684 C73.67097,4.36857578 69.2799183,4.36857578 68.7910061,6.17530355 C68.30371,7.98203131 68.6285741,9.46038678 67.0029071,10.6340389 C65.376432,11.8085071 66.352371,13.4022146 65.376432,15.0443481 C64.4002238,16.6870258 62.4496928,17.5080926 60.4975456,17.837009 C58.5464759,18.1653813 54.6429896,22.2718033 53.0167839,24.4069034 C51.3903088,26.5420034 51.2276074,24.4069034 49.6016711,21.1218201 C47.9749267,17.837009 48.6254628,15.2086703 48.6254628,14.0595033 C48.6254628,12.9092481 49.113567,10.4457757 47.8774136,8.85805351 C46.6412602,7.2708754 45.5360222,8.47499784 43.2584722,8.47499784 C40.9825385,8.47499784 43.9389088,6.04580461 45.861425,4.36857578 Z M27.9719232,55.1210577 C28.7067731,53.9104059 30.248665,56.9275134 31.7121694,58.0233574 C33.1764818,59.1192013 35.2899835,58.7350574 34.4770153,59.7204463 C33.6637778,60.7055632 30.7367692,59.8836803 29.4356969,59.7204463 C28.134894,59.5547639 29.7610996,57.5850742 28.6224593,57.2564299 C27.4838191,56.9275134 26.9375303,56.8246761 27.9719232,55.1210577 Z M106.305113,79.8847201 C108.255913,78.8993312 104.678907,86.7829868 103.540267,88.5897146 C102.402435,90.3961703 101.750552,89.0826811 102.239733,86.7829868 C102.727299,84.4838367 102.076224,84.1549203 103.702968,83.1698034 C105.329443,82.1838703 104.553379,80.7694481 106.305113,79.8847201 Z M108.147905,46.7442995 C108.635201,46.2518771 108.147905,44.2808272 108.147905,42.3097772 C108.147905,40.3392714 108.96626,36.6803824 107.255741,38.2634797 C105.883285,39.5339839 105.870624,41.8173548 106.358459,43.1313881 C106.846563,44.4448773 107.66007,47.2372661 108.147905,46.7442995 Z M102.454434,41.6527606 C103.594421,42.3097772 102.294157,39.6822548 100.016337,39.5179326 C97.7393261,39.3533383 98.2988141,37.2644879 97.2520301,38.8609159 C96.0805263,40.6464233 93.9985412,43.2954382 96.6020327,42.4738274 C99.2030998,41.6527606 101.315524,40.9962881 102.454434,41.6527606 Z M98.7155344,47.2372661 C98.8779664,45.9237769 98.0641901,46.087827 96.6020327,45.9237769 C95.1371815,45.7589106 95.6258244,42.6384216 95.1371815,42.9667939 C94.6498855,43.2954382 95.1371815,45.1024381 94.8123175,45.9237769 C94.4871841,46.7442995 93.5117839,45.9237769 92.5361144,44.6089274 C91.5593674,43.2954382 91.071802,42.1457271 89.4450575,39.8463049 C87.8191212,37.5468826 88.9577615,40.9962881 90.0964018,42.3097772 C91.2345033,43.6238105 89.6077589,44.2808272 88.4701961,45.2667602 C87.331017,46.2518771 86.681289,45.2667602 87.6561504,43.6238105 C88.6323587,41.9814049 85.8667046,41.6527606 84.5664404,40.1744051 C83.2659069,38.6968658 81.9648346,40.1744051 80.1753887,41.8173548 C78.3870204,43.4597604 78.7121538,43.9524549 77.0856787,45.4308103 C76.8839182,45.6144485 76.6964345,45.7545577 76.521342,45.8595715 C78.7762646,45.1968417 81.4791548,45.8067925 82.2902373,45.9237769 C83.4283389,46.087827 83.1032055,46.7442995 85.2169766,49.0442659 C87.331017,51.3434161 89.1207322,50.0293828 90.5845059,48.5512994 C92.0469328,47.0729439 92.0469328,49.0442659 95.6258244,49.8653326 C99.2030998,50.6863994 98.5525637,48.5512994 98.7155344,47.2372661 Z M111.888151,26.2135495 C111.888151,26.2135495 115.466504,51.5082823 115.954069,54.2998549 C116.441365,57.0922437 114.001383,55.7782104 111.888151,54.4639051 C109.77438,53.1498718 108.472769,54.1358048 110.587078,55.2852439 C112.70085,56.4352271 113.026522,59.2267997 112.213823,60.1966814 C111.400585,61.166019 107.822771,63.8267324 105.870624,62.8407993 C103.919554,61.8556824 101.967946,55.9428046 100.992815,53.8074325 C100.016337,51.6723325 101.317948,58.2416828 102.454434,60.8697494 C103.591997,63.4978159 105.057925,65.6326439 107.255741,65.4683218 C109.454364,65.3042717 109.936542,66.9472214 107.255741,69.9031161 C104.57467,72.8600991 102.619021,74.6665548 101.804706,77.2948935 C100.992815,79.9229601 101.479572,82.3864324 99.6906652,85.8355658 C97.9025662,89.2849712 97.9025662,90.5984604 96.7639259,93.226527 C95.6258244,95.8548656 92.8612478,97.4978153 91.5593674,98.3180659 C90.2588338,99.1399488 87.8191212,98.1542878 87.8191212,96.0194598 C87.8191212,93.8838157 85.5413019,89.6130714 85.2169766,87.1504152 C84.8918432,84.6858547 85.8667046,80.5799767 85.2169766,78.6094709 C84.5664404,76.6378768 83.4283389,76.1454544 82.9402347,72.3674047 C82.4526693,68.5896269 80.8253861,70.0674383 79.849986,69.5932437 C78.8751246,69.1190491 75.9473078,69.2466436 73.1816537,69.5750159 C70.4178852,69.9031161 69.2797836,65.7972382 68.6284394,65.3042717 C67.9787113,64.8113051 67.4903378,59.3913939 67.9787113,57.2562938 C68.4660074,55.1211938 68.4660074,53.9717547 71.0684214,52.9858216 C73.6711047,52.0004327 72.8931551,49.0722877 74.1584007,47.4018603 C74.6168738,46.7957182 75.2116497,46.3830084 75.8646103,46.097621 C75.0225498,46.2029069 74.426427,45.4498543 73.5073258,45.1024381 C72.2062535,44.6089274 72.6943577,42.4738274 72.6943577,40.5027774 C72.6943577,38.5319995 75.7846064,40.3392714 76.9232467,40.1744051 C78.0621564,40.010355 76.9232467,37.8749829 75.6216357,36.0687992 C74.3211021,34.2615273 77.0856787,35.2469163 77.0856787,35.2469163 C77.0856787,35.2469163 80.5005221,33.2761384 81.151597,32.2902054 C81.8015944,31.3050885 81.6397012,30.6480718 83.4283389,29.6624108 C85.2169766,28.677566 85.3802167,30.6480718 88.6323587,30.3196995 C91.8850395,29.9913272 90.9096393,28.5129718 92.5361144,26.7065161 C94.161512,24.8997883 91.7217994,24.8997883 91.8985081,22.2717217 C92.0746782,19.6436551 90.4212658,22.9284663 90.2588338,23.9141273 C90.0964018,24.8997883 89.7707296,27.5275828 89.4450575,28.3486496 C89.1207322,29.1697163 87.168585,29.4983607 85.7056195,28.1837833 C84.2407683,26.8705662 84.078875,27.5275828 82.2902373,26.8705662 C80.5005221,26.2135495 81.8015944,23.585755 83.4283389,22.7644162 C85.0545446,21.9433494 85.7056195,19.3147387 88.4701961,16.1945218 C91.2345033,13.0734886 91.8850395,15.2085887 95.4633924,17.6726052 C99.0403984,20.1363496 96.926358,19.8077052 96.6020327,21.1043269 C96.2758218,22.4012206 99.0403984,22.600094 100.667143,21.2857886 C102.294157,19.9720274 111.888151,26.2135495 111.888151,26.2135495 Z M76.7609494,26.7064344 C78.3868857,26.2134679 78.7120191,30.1550237 78.7120191,31.7979734 C78.7120191,33.4401069 76.9233814,33.6044291 75.296637,32.9476845 C73.67097,32.2901237 73.9961034,33.7687513 72.2155469,33.6044291 C70.4360679,33.4401069 72.369359,31.1409567 73.67097,30.31989 C74.9715036,29.4982791 75.9471731,30.9769066 75.459069,29.9912456 C74.9715036,29.0058567 75.7629219,27.0084172 76.7609494,26.7064344 Z M66.1901545,19.150743 C68.4660882,18.8223707 70.0928326,18.9864208 71.4976136,20.3007262 C72.9029333,21.6144874 69.1166243,22.4358262 67.0031226,22.1074539 C64.888274,21.7785375 65.2101749,19.2922124 66.1901545,19.150743 Z" id="合并形状" fill="url(#linearGradient-9)" mask="url(#mask-8)"></path>
                        </g>
                    </g>
                    <g id="语言" transform="translate(94.473949, 92.299825) rotate(-29.000000) translate(-94.473949, -92.299825) translate(29.973949, 52.299825)">
                        <g id="Group-10" transform="translate(0.000000, 44.000000)">
                            <path d="M8.4469541,23.5490841 C14.0782568,16.5910801 16.8939082,11.5570367 16.8939082,8.4469541 C16.8939082,3.78183017 13.112078,0 8.4469541,0 C3.78183017,0 0,3.78183017 0,8.4469541 C0,11.5570367 2.81565137,16.5910801 8.4469541,23.5490841 Z" id="Oval-8" fill="#B4DE10"></path>
                            <text id="En" font-family="Arial-Black, Arial Black" font-size="8.19098579" font-weight="700" fill="#FFFFFF">
                                <tspan x="2.55968306" y="11.0477464">En</tspan>
                            </text>
                        </g>
                        <g id="Group-10-Copy" transform="translate(81.000000, 28.000000)">
                            <path d="M5.88974989,16.5785552 C9.81624981,11.6801204 11.7794998,8.13615385 11.7794998,5.94665568 C11.7794998,2.66240844 9.14256893,0 5.88974989,0 C2.63693084,0 0,2.66240844 0,5.94665568 C0,8.13615385 1.96324996,11.6801204 5.88974989,16.5785552 Z" id="Oval-8" fill="#F5A623"></path>
                            <text id="ES" font-family="ChalkboardSE-Regular, Chalkboard SE" font-size="6.37344915" font-weight="normal" fill="#D0021B">
                                <tspan x="2.41935854" y="7.72080675">ES</tspan>
                            </text>
                        </g>
                        <g id="Group-10-Copy-2" transform="translate(90.000000, 57.000000)">
                            <path d="M8.27357823,22.1809945 C13.7892971,15.6272173 16.5471565,10.8856279 16.5471565,7.95622629 C16.5471565,3.56212384 12.8429493,0 8.27357823,0 C3.70420715,0 0,3.56212384 0,7.95622629 C0,10.8856279 2.75785941,15.6272173 8.27357823,22.1809945 Z" id="Oval-8" fill="#0699AF"></path>
                            <text id="it" font-family="ChalkboardSE-Regular, Chalkboard SE" font-size="7.56847087" font-weight="normal" fill="#FFFFFF">
                                <tspan x="4.27023393" y="11.0395388">it</tspan>
                            </text>
                        </g>
                        <g id="Group-10-Copy-3" transform="translate(27.000000, 30.000000)">
                            <path d="M6.80306875,18.8392673 C11.3384479,13.2728641 13.6061375,9.24562937 13.6061375,6.75756328 C13.6061375,3.02546413 10.5602999,0 6.80306875,0 C3.04583763,0 0,3.02546413 0,6.75756328 C0,9.24562937 2.26768958,13.2728641 6.80306875,18.8392673 Z" id="Oval-8" fill="#1C8500"></path>
                            <text id="pro" font-family="LucidaGrande-Bold, Lucida Grande" font-size="6.27975577" font-weight="bold" fill="#FFFFFF">
                                <tspan x="1.56993894" y="8.09325192">pro</tspan>
                            </text>
                        </g>
                        <g id="Group-10-Copy-4" transform="translate(38.000000, -0.000000)">
                            <path d="M8.33375922,23.0781025 C13.8895987,16.2592585 16.6675184,11.325896 16.6675184,8.27801502 C16.6675184,3.70619356 12.9363674,0 8.33375922,0 C3.7311511,0 0,3.70619356 0,8.27801502 C0,11.325896 2.77791974,16.2592585 8.33375922,23.0781025 Z" id="Oval-8" fill="#FFFFFF"></path>
                            <text id="ru" font-family="LucidaGrande-Bold, Lucida Grande" font-size="7.69270082" font-weight="bold" fill="#D0021B">
                                <tspan x="3.76785346" y="10.2968718">ru</tspan>
                            </text>
                        </g>
                        <g id="Group-10-Copy-5" transform="translate(112.000000, 38.000000)">
                            <path d="M8.33375922,23.0781025 C13.8895987,16.2592585 16.6675184,11.325896 16.6675184,8.27801502 C16.6675184,3.70619356 12.9363674,0 8.33375922,0 C3.7311511,0 0,3.70619356 0,8.27801502 C0,11.325896 2.77791974,16.2592585 8.33375922,23.0781025 Z" id="Oval-8" fill="#F5A623"></path>
                            <text id="cn" font-family="Impact" font-size="9.41963366" font-style="condensed" font-weight="700" fill="#F8E71C">
                                <tspan x="3.68506371" y="11.8839267">cn</tspan>
                            </text>
                        </g>
                        <g id="Group-5" transform="translate(102.000000, 16.000000)">
                            <g id="Oval-8-Copy">
                                <use fill="black" fill-opacity="1" filter="url(#filter-11)" xlink:href="#path-10"></use>
                                <use fill="#2873B8" fill-rule="evenodd" xlink:href="#path-10"></use>
                            </g>
                            <text id="DE" font-family="AmericanTypewriter-Bold, American Typewriter" font-size="7.04424778" font-weight="bold" fill="#FFFFFF">
                                <tspan x="2.20132743" y="10.0818584">DE</tspan>
                            </text>
                        </g>
                    </g>
                </g>
            </g>
        </g>
    </g>
</svg>