<?xml version="1.0" encoding="UTF-8"?>
<svg width="36px" height="36px" viewBox="0 0 36 36" version="1.1" xmlns="http://www.w3.org/2000/svg" xmlns:xlink="http://www.w3.org/1999/xlink">
    <!-- Generator: Sketch 52.4 (67378) - http://www.bohemiancoding.com/sketch -->
    <title>切换邮箱登录</title>
    <desc>Created with Sketch.</desc>
    <g id="页面-1" stroke="none" stroke-width="1" fill="none" fill-rule="evenodd">
        <g id="手机快速登录+密码登录" transform="translate(-919.000000, -298.000000)">
            <g id="分组-5" transform="translate(583.000000, 280.000000)">
                <g id="切换邮箱登录" transform="translate(336.000000, 18.000000)">
                    <path d="M18,0 L18,0 C27.9411255,-1.82615513e-15 36,8.0588745 36,18 L36,18 C36,27.9411255 27.9411255,36 18,36 L18,36 C8.0588745,36 1.21743675e-15,27.9411255 0,18 L0,18 C-1.21743675e-15,8.0588745 8.0588745,1.82615513e-15 18,0 Z" id="Mask" fill="#DFF1FB"></path>
                    <path d="M18,3 L18,3 C26.2842712,3 33,9.71572875 33,18 L33,18 C33,26.2842712 26.2842712,33 18,33 L18,33 C9.71572875,33 3,26.2842712 3,18 L3,18 C3,9.71572875 9.71572875,3 18,3 Z" id="Mask" fill="#2A9FE4"></path>
                    <path d="M10,22.5036037 L10,13.5195278 C10,12.6919571 10.6702368,12.0207395 11.4978066,12.0195294 L24.4978066,12.0005199 C25.3262328,11.9993086 25.998787,12.6698987 25.9999984,13.4983249 C25.9999995,13.4990561 26,13.4997872 26,13.5005183 L26,22.4845942 C26,23.3121649 25.3297632,23.9833825 24.5021934,23.9845926 L11.5021934,24.0036021 C10.6737672,24.0048134 10.001213,23.3342233 10.0000016,22.5057971 C10.0000005,22.5050659 10,22.5043348 10,22.5036037 Z" id="路径" stroke="#DCF2FF" stroke-width="1.8" fill="#4FBBFB" fill-rule="nonzero"></path>
                    <path d="M11,12.8011891 L16.8432668,17.7584426 C17.6034342,18.4033461 18.7224558,18.3899876 19.4670116,17.7271213 L25,12.8011891" id="直线-3" stroke="#DCF2FF" stroke-width="1.6" fill="#9AD9FF" fill-rule="nonzero" stroke-linecap="round"></path>
                </g>
            </g>
        </g>
    </g>
</svg>