<?xml version="1.0" encoding="UTF-8"?>
<svg width="36px" height="36px" viewBox="0 0 36 36" version="1.1" xmlns="http://www.w3.org/2000/svg" xmlns:xlink="http://www.w3.org/1999/xlink">
    <!-- Generator: Sketch 52.4 (67378) - http://www.bohemiancoding.com/sketch -->
    <title>切换邮箱登录 copy</title>
    <desc>Created with Sketch.</desc>
    <g id="页面-1" stroke="none" stroke-width="1" fill="none" fill-rule="evenodd">
        <g id="手机快速登录+密码登录" transform="translate(-674.000000, -206.000000)">
            <g id="分组-5-copy" transform="translate(178.000000, 206.000000)">
                <g id="切换邮箱登录-copy" transform="translate(496.000000, 0.000000)">
                    <path d="M18,0 L18,0 C27.9411255,-1.82615513e-15 36,8.0588745 36,18 L36,18 C36,27.9411255 27.9411255,36 18,36 L18,36 C8.0588745,36 1.21743675e-15,27.9411255 0,18 L0,18 C-1.21743675e-15,8.0588745 8.0588745,1.82615513e-15 18,0 Z" id="Mask" fill="#EEF2F3"></path>
                    <path d="M18,3 L18,3 C26.2842712,3 33,9.71572875 33,18 L33,18 C33,26.2842712 26.2842712,33 18,33 L18,33 C9.71572875,33 3,26.2842712 3,18 L3,18 C3,9.71572875 9.71572875,3 18,3 Z" id="Mask" fill="#C8D4DB"></path>
                    <path d="M10,22.4994818 L10,13.5195211 C10,12.6919501 10.6702373,12.0207324 11.4978074,12.0195227 L24.4978074,12.0005198 C25.3262336,11.9993088 25.9987874,12.6698993 25.9999984,13.4983255 C25.9999995,13.4990564 26,13.4997873 26,13.5005182 L26,22.4804789 C26,23.3080499 25.3297627,23.9792676 24.5021926,23.9804773 L11.5021926,23.9994802 C10.6737664,24.0006912 10.0012126,23.3301007 10.0000016,22.5016745 C10.0000005,22.5009436 10,22.5002127 10,22.4994818 Z" id="路径" stroke="#FFFFFF" stroke-width="1.8" fill="#C8D4DB" fill-rule="nonzero"></path>
                    <path d="M11,12.8011891 L16.8432668,17.7584426 C17.6034342,18.4033461 18.7224558,18.3899876 19.4670116,17.7271213 L25,12.8011891" id="直线-3" stroke="#FFFFFF" stroke-width="1.6" stroke-linecap="round" fill-rule="nonzero"></path>
                </g>
            </g>
        </g>
    </g>
</svg>