<?xml version="1.0" encoding="UTF-8"?>
<svg width="42px" height="42px" viewBox="0 0 42 42" version="1.1" xmlns="http://www.w3.org/2000/svg" xmlns:xlink="http://www.w3.org/1999/xlink">
    <!-- Generator: Sketch 52.4 (67378) - http://www.bohemiancoding.com/sketch -->
    <title>切换邮箱登录悬停</title>
    <desc>Created with Sketch.</desc>
    <defs>
        <path d="M21,0 L21,0 C32.5979797,-2.13051432e-15 42,9.40202025 42,21 L42,21 C42,32.5979797 32.5979797,42 21,42 L21,42 C9.40202025,42 1.42034288e-15,32.5979797 0,21 L0,21 C-1.42034288e-15,9.40202025 9.40202025,2.13051432e-15 21,0 Z" id="path-1"></path>
        <path d="M21,4 L21,4 C30.3888407,4 38,11.6111593 38,21 L38,21 C38,30.3888407 30.3888407,38 21,38 L21,38 C11.6111593,38 4,30.3888407 4,21 L4,21 C4,11.6111593 11.6111593,4 21,4 Z" id="path-3"></path>
    </defs>
    <g id="页面-1" stroke="none" stroke-width="1" fill="none" fill-rule="evenodd">
        <g id="手机快速登录+密码登录" transform="translate(-911.000000, -290.000000)">
            <g id="分组-5" transform="translate(583.000000, 280.000000)">
                <g id="切换邮箱登录悬停" transform="translate(328.000000, 10.000000)">
                    <mask id="mask-2" fill="white">
                        <use xlink:href="#path-1"></use>
                    </mask>
                    <use id="Mask" fill-opacity="0.15050385" fill="#2A9FE4" xlink:href="#path-1"></use>
                    <mask id="mask-4" fill="white">
                        <use xlink:href="#path-3"></use>
                    </mask>
                    <use id="Mask" fill="#2A9FE4" xlink:href="#path-3"></use>
                    <g id="分组-7" mask="url(#mask-4)" fill="#FFFFFF" fill-rule="nonzero">
                        <g transform="translate(12.000000, 14.000000)">
                            <path d="M0,12.7826087 L0,1.2173913 C-8.23387175e-17,0.545044652 0.545044652,3.45552681e-16 1.2173913,2.22044605e-16 L16.7826087,0 C17.4549553,-1.91499944e-15 18,0.545044652 18,1.2173913 L18,12.7826087 C18,13.4549553 17.4549553,14 16.7826087,14 L1.2173913,14 C0.545044652,14 -5.83795097e-16,13.4549553 -6.66133815e-16,12.7826087 Z M15.9411765,11.3143813 L15.9411765,3.76254181 C15.9411765,3.42636848 15.6686541,3.15384615 15.3324808,3.15384615 L2.66751918,3.15384615 C2.33134586,3.15384615 2.05882353,3.42636848 2.05882353,3.76254181 L2.05882353,11.3143813 C2.05882353,11.6505546 2.33134586,11.9230769 2.66751918,11.9230769 L15.3324808,11.9230769 C15.6686541,11.9230769 15.9411765,11.6505546 15.9411765,11.3143813 Z" id="形状" stroke="none"></path>
                            <path d="M1.9125,0.801189149 L8.77309128,6.55132571 C9.0013443,6.74263372 9.3345061,6.74068872 9.56050993,6.54672878 L16.425,0.655518395" id="直线-3" stroke="#FFFFFF" stroke-width="1.2173913" stroke-linecap="round"></path>
                        </g>
                    </g>
                </g>
            </g>
        </g>
    </g>
</svg>