<?xml version="1.0" encoding="UTF-8"?>
<svg width="20px" height="20px" viewBox="0 0 20 20" version="1.1" xmlns="http://www.w3.org/2000/svg" xmlns:xlink="http://www.w3.org/1999/xlink">
    <!-- Generator: Sketch 52.4 (67378) - http://www.bohemiancoding.com/sketch -->
    <title>进入</title>
    <desc>Created with Sketch.</desc>
    <g id="页面-1" stroke="none" stroke-width="1" fill="none" fill-rule="evenodd">
        <g id="手机快速登录+密码登录" transform="translate(-2775.000000, -551.000000)" fill="#FFFFFF" fill-rule="nonzero">
            <g id="分组-copy-5" transform="translate(2572.000000, 263.000000)">
                <path d="M213,308 C207.477153,308 203,303.522847 203,298 C203,292.477153 207.477153,288 213,288 C218.522847,288 223,292.477153 223,298 C223,303.522847 218.522847,308 213,308 Z M217.995044,298.071501 C218.019326,297.892219 217.962567,297.704064 217.824765,297.566263 L214.430652,294.17215 C214.196338,293.937836 213.816439,293.937836 213.582124,294.17215 C213.34781,294.406465 213.34781,294.786364 213.582124,295.020678 L215.955473,297.394027 L208.6,297.394027 C208.268629,297.394027 208,297.662656 208,297.994027 C208,298.325398 208.268629,298.594027 208.6,298.594027 L215.96267,298.594027 L213.574068,300.982629 C213.339753,301.216944 213.339753,301.596843 213.574068,301.831157 C213.808382,302.065472 214.188281,302.065472 214.422596,301.831157 L217.816708,298.437045 C217.878186,298.375567 217.923534,298.304067 217.952751,298.227805 C217.973544,298.178703 217.987985,298.126259 217.995044,298.071501 Z" id="进入"></path>
            </g>
        </g>
    </g>
</svg>