<?xml version="1.0" encoding="UTF-8"?>
<svg width="42px" height="42px" viewBox="0 0 42 42" version="1.1" xmlns="http://www.w3.org/2000/svg" xmlns:xlink="http://www.w3.org/1999/xlink">
    <!-- Generator: Sketch 52.4 (67378) - http://www.bohemiancoding.com/sketch -->
    <title>切换手机登录悬停</title>
    <desc>Created with Sketch.</desc>
    <defs>
        <path d="M21,0 L21,0 C32.5979797,-2.13051432e-15 42,9.40202025 42,21 L42,21 C42,32.5979797 32.5979797,42 21,42 L21,42 C9.40202025,42 1.42034288e-15,32.5979797 0,21 L0,21 C-1.42034288e-15,9.40202025 9.40202025,2.13051432e-15 21,0 Z" id="path-1"></path>
        <path d="M21,4 L21,4 C30.3888407,4 38,11.6111593 38,21 L38,21 C38,30.3888407 30.3888407,38 21,38 L21,38 C11.6111593,38 4,30.3888407 4,21 L4,21 C4,11.6111593 11.6111593,4 21,4 Z" id="path-3"></path>
    </defs>
    <g id="页面-1" stroke="none" stroke-width="1" fill="none" fill-rule="evenodd">
        <g id="邮箱登录注册+忘记密码" transform="translate(-960.000000, -290.000000)">
            <g id="分组-3" transform="translate(632.000000, 280.000000)">
                <g id="切换手机登录悬停" transform="translate(328.000000, 10.000000)">
                    <mask id="mask-2" fill="white">
                        <use xlink:href="#path-1"></use>
                    </mask>
                    <use id="Mask" fill-opacity="0.2" fill="#2A9FE4" xlink:href="#path-1"></use>
                    <mask id="mask-4" fill="white">
                        <use xlink:href="#path-3"></use>
                    </mask>
                    <use id="Mask" fill="#2A9FE4" xlink:href="#path-3"></use>
                    <path d="M14,29.6469104 L14,12.3530896 C14,11.6057988 14.6057988,11 15.3530896,11 L26.6469104,11 C27.3942012,11 28,11.6057988 28,12.3530896 L28,29.6469104 C28,30.3942012 27.3942012,31 26.6469104,31 L15.3530896,31 C14.6057988,31 14,30.3942012 14,29.6469104 Z M26.0909091,26.5734552 L26.0909091,14.1765448 C26.0909091,13.8028994 25.7880097,13.5 25.4143643,13.5 L16.5856357,13.5 C16.2119903,13.5 15.9090909,13.8028994 15.9090909,14.1765448 L15.9090909,26.5734552 C15.9090909,26.9471006 16.2119903,27.25 16.5856357,27.25 L25.4143643,27.25 C25.7880097,27.25 26.0909091,26.9471006 26.0909091,26.5734552 Z M22.4336777,12.1429012 L19.5481449,12.1429012 C19.3723118,12.1429012 19.2297709,12.2854421 19.2297709,12.4612752 L19.2297709,12.4612752 C19.2297709,12.6371083 19.3723118,12.7796492 19.5481449,12.7796492 L22.4336777,12.7796492 C22.6095108,12.7796492 22.7520517,12.6371083 22.7520517,12.4612752 L22.7520517,12.4612752 C22.7520517,12.2854421 22.6095108,12.1429012 22.4336777,12.1429012 Z M20.9855202,27.9761511 C20.3880554,27.9761511 19.9037021,28.4518552 19.9037021,29.0386511 C19.9037021,29.6254469 20.3880554,30.1011511 20.9855202,30.1011511 C21.5829851,30.1011511 22.0673384,29.6254469 22.0673384,29.0386511 C22.0673384,28.4518552 21.5829851,27.9761511 20.9855202,27.9761511 Z" id="形状" fill="#FFFFFF" fill-rule="nonzero" mask="url(#mask-4)"></path>
                </g>
            </g>
        </g>
    </g>
</svg>