<?xml version="1.0" encoding="UTF-8"?>
<svg width="32px" height="32px" viewBox="0 0 32 32" version="1.1" xmlns="http://www.w3.org/2000/svg" xmlns:xlink="http://www.w3.org/1999/xlink">
    <!-- Generator: Sketch 52.4 (67378) - http://www.bohemiancoding.com/sketch -->
    <title>QQ</title>
    <desc>Created with Sketch.</desc>
    <g id="页面-1" stroke="none" stroke-width="1" fill="none" fill-rule="evenodd">
        <g id="手机快速登录+密码登录" transform="translate(-404.000000, -684.000000)">
            <g id="分组-5-copy" transform="translate(178.000000, 280.000000)">
                <g id="Group-Copy" transform="translate(94.000000, 370.000000)">
                    <g id="Group-3" transform="translate(28.000000, 34.000000)">
                        <g id="QQ" transform="translate(104.000000, 0.000000)">
                            <ellipse id="Oval-Copy-2" fill="#2A9FE4" cx="15.8962413" cy="15.9413919" rx="15.8962413" ry="15.9413919"></ellipse>
                            <path d="M8.02847622,17.2350831 C7.39968653,18.721502 7.29564658,20.1387923 7.80207455,20.402121 C8.15242228,20.584851 8.69793127,20.1667831 9.21138732,19.4062722 C9.41512038,20.2391888 9.91726245,20.986514 10.6353453,21.590647 C9.88344234,21.8687999 9.39082679,22.3231479 9.39082679,22.8367351 C9.39082679,23.6828375 10.7211854,24.3659498 12.3619779,24.3659498 C13.842323,24.3659498 15.0686213,23.8112247 15.2949214,23.0803431 C15.3548023,23.0803431 15.5898773,23.0803431 15.6470567,23.0803431 C15.8777442,23.8112247 17.1013816,24.3659498 18.5834736,24.3659498 C20.2260739,24.3659498 21.5546247,23.6828182 21.5546247,22.8367351 C21.5546247,22.3231479 21.0629029,21.8721156 20.3092328,21.590647 C21.024736,20.986514 21.5303311,20.2392081 21.7323783,19.4062722 C22.2457328,20.1667831 22.7886824,20.5848703 23.1407973,20.402121 C23.6498049,20.1387923 23.5483446,18.721502 22.9135222,17.2350831 C22.4175348,16.07129 21.7453985,15.2120405 21.2328362,15.0194597 C21.239783,14.9486925 21.2458564,14.870465 21.2458564,14.7955725 C21.2458564,14.3445403 21.1192494,13.9280916 20.9033696,13.5889837 C20.9076961,13.5618412 20.9076961,13.5363179 20.9076961,13.5091754 C20.9076961,13.3009414 20.8582355,13.1075125 20.7732688,12.9404164 C20.6440619,9.91082602 18.6693543,7.5018315 15.4719031,7.5018315 C12.2752441,7.5018315 10.2979569,9.91084529 10.1687499,12.9404549 C10.0855301,13.1099993 10.0343429,13.3042572 10.0343429,13.5116622 C10.0343429,13.5388433 10.0343429,13.564328 10.0378164,13.591509 C9.82624273,13.9281302 9.69959509,14.3445596 9.69959509,14.7972497 C9.69959509,14.8729904 9.70390132,14.9487118 9.70914191,15.0227754 C9.1983671,15.2136983 8.52365115,16.07129 8.02847622,17.2350831 Z" id="Shape" fill="#FFFFFF" fill-rule="nonzero"></path>
                        </g>
                    </g>
                </g>
            </g>
        </g>
    </g>
</svg>