<?xml version="1.0" encoding="UTF-8"?>
<svg width="40px" height="40px" viewBox="0 0 40 40" version="1.1" xmlns="http://www.w3.org/2000/svg" xmlns:xlink="http://www.w3.org/1999/xlink">
    <!-- Generator: Sketch 52.4 (67378) - http://www.bohemiancoding.com/sketch -->
    <title>QQ</title>
    <desc>Created with Sketch.</desc>
    <g id="页面-1" stroke="none" stroke-width="1" fill="none" fill-rule="evenodd">
        <g id="手机快速登录+密码登录" transform="translate(-411.000000, -684.000000)">
            <g id="分组-5-copy" transform="translate(178.000000, 280.000000)">
                <g id="Group-Copy" transform="translate(94.000000, 370.000000)">
                    <g id="Group-3" transform="translate(13.000000, 34.000000)">
                        <g id="QQ" transform="translate(126.234857, 0.000000)">
                            <ellipse id="Oval-Copy-2" fill="#2A9FE4" cx="19.8703016" cy="19.9267399" rx="19.8703016" ry="19.9267399"></ellipse>
                            <path d="M10.0355953,21.5438539 C9.24960816,23.4018775 9.11955822,25.1734904 9.75259319,25.5026513 C10.1905279,25.7310638 10.8724141,25.2084788 11.5142342,24.2578402 C11.7689005,25.298986 12.3965781,26.2331425 13.2941816,26.9883087 C12.3543029,27.3359999 11.7385335,27.9039348 11.7385335,28.5459189 C11.7385335,29.6035468 13.4014817,30.4574372 15.4524724,30.4574372 C17.3029038,30.4574372 18.8357767,29.7640308 19.1186518,28.8504288 C19.1935029,28.8504288 19.4873467,28.8504288 19.5588208,28.8504288 C19.8471803,29.7640308 21.376727,30.4574372 23.229342,30.4574372 C25.2825924,30.4574372 26.9432809,29.6035227 26.9432809,28.5459189 C26.9432809,27.9039348 26.3286286,27.3401445 25.386541,26.9883087 C26.28092,26.2331425 26.9129139,25.2990101 27.1654728,24.2578402 C27.8071659,25.2084788 28.4858529,25.7310879 28.9259966,25.5026513 C29.5622561,25.1734904 29.4354308,23.4018775 28.6419027,21.5438539 C28.0219184,20.0891125 27.1817481,19.0150506 26.5410452,18.7743246 C26.5497288,18.6858657 26.5573205,18.5880813 26.5573205,18.4944657 C26.5573205,17.9306754 26.3990617,17.4101145 26.1292119,16.9862296 C26.1346201,16.9523015 26.1346201,16.9203974 26.1346201,16.8864693 C26.1346201,16.6261768 26.0727943,16.3843906 25.966586,16.1755205 C25.8050773,12.3885325 23.3366929,9.37728938 19.3398789,9.37728938 C15.3440551,9.37728938 12.8724461,12.3885566 12.7109374,16.1755687 C12.6069127,16.3874991 12.5429287,16.6303215 12.5429287,16.8895778 C12.5429287,16.9235541 12.5429287,16.9554099 12.5472704,16.9893863 C12.2828034,17.4101627 12.1244939,17.9306994 12.1244939,18.4965621 C12.1244939,18.591238 12.1298766,18.6858898 12.1364274,18.7784693 C11.4979589,19.0171229 10.6545639,20.0891125 10.0355953,21.5438539 Z" id="Shape" fill="#FFFFFF" fill-rule="nonzero"></path>
                        </g>
                    </g>
                </g>
            </g>
        </g>
    </g>
</svg>