<?xml version="1.0" encoding="UTF-8"?>
<svg width="30px" height="30px" viewBox="0 0 30 30" version="1.1" xmlns="http://www.w3.org/2000/svg" xmlns:xlink="http://www.w3.org/1999/xlink">
    <!-- Generator: Sketch 52.4 (67378) - http://www.bohemiancoding.com/sketch -->
    <title>QQ</title>
    <desc>Created with Sketch.</desc>
    <g id="页面-1" stroke="none" stroke-width="1" fill="none" fill-rule="evenodd">
        <g id="手机快速登录+密码登录" transform="translate(-808.000000, -660.000000)">
            <g id="分组" transform="translate(545.000000, 261.000000)">
                <g id="Group-Copy" transform="translate(74.000000, 367.000000)">
                    <g id="Group-3" transform="translate(14.000000, 32.000000)">
                        <g id="QQ" transform="translate(175.000000, 0.000000)">
                            <circle id="Oval-Copy-2" fill="#2A9FE4" cx="15" cy="15" r="15"></circle>
                            <path d="M7.45892085,16.2172944 C6.86473026,17.6159354 6.76641511,18.94953 7.24497692,19.1973083 C7.57604679,19.3692475 8.09153918,18.9758678 8.57674235,18.2602676 C8.76926501,19.0439977 9.24377676,19.7471909 9.92234714,20.3156478 C9.21181759,20.5773749 8.74630818,21.0048921 8.74630818,21.4881504 C8.74630818,22.2842875 10.0034639,22.9270598 11.5539719,22.9270598 C12.9528611,22.9270598 14.1116825,22.405093 14.3255305,21.7173724 C14.3821164,21.7173724 14.6042564,21.7173724 14.6582895,21.7173724 C14.8762834,22.405093 16.0325903,22.9270598 17.4331303,22.9270598 C18.9853466,22.9270598 20.240794,22.2842694 20.240794,21.4881504 C20.240794,21.0048921 19.7761292,20.5804948 19.0639297,20.3156478 C19.7400623,19.7471909 20.2178372,19.0440159 20.4087667,18.2602676 C20.8938739,18.9758678 21.4069477,19.3692656 21.7396875,19.1973083 C22.2206871,18.94953 22.1248096,17.6159354 21.5249182,16.2172944 C21.0562225,15.1222271 20.4210705,14.3137192 19.9367119,14.1325109 C19.9432764,14.0659228 19.9490156,13.9923149 19.9490156,13.921845 C19.9490156,13.4974477 19.8293752,13.1055917 19.6253741,12.7865092 C19.6294626,12.7609696 19.6294626,12.7369536 19.6294626,12.7114139 C19.6294626,12.5154768 19.5827235,12.3334705 19.5024322,12.176242 C19.3803348,9.32555895 17.5142854,7.05882353 14.4927737,7.05882353 C11.4720106,7.05882353 9.60352347,9.32557708 9.48142611,12.1762783 C9.40278551,12.3358104 9.3544149,12.5185968 9.3544149,12.7137539 C9.3544149,12.7393298 9.3544149,12.7633095 9.35769719,12.7888854 C9.15776539,13.105628 9.03808653,13.4974658 9.03808653,13.9234231 C9.03808653,13.9946911 9.0421558,14.0659409 9.04710803,14.1356308 C8.56443857,14.3152791 7.92684881,15.1222271 7.45892085,16.2172944 Z" id="Shape" fill="#FFFFFF" fill-rule="nonzero"></path>
                        </g>
                    </g>
                </g>
            </g>
        </g>
    </g>
</svg>