<?xml version="1.0" encoding="UTF-8"?>
<svg width="100px" height="100px" viewBox="0 0 100 100" version="1.1" xmlns="http://www.w3.org/2000/svg" xmlns:xlink="http://www.w3.org/1999/xlink">
    <!-- Generator: Sketch 52.4 (67378) - http://www.bohemiancoding.com/sketch -->
    <title>发送图标</title>
    <desc>Created with Sketch.</desc>
    <defs>
        <circle id="path-1" cx="50" cy="50" r="50"></circle>
    </defs>
    <g id="页面-1" stroke="none" stroke-width="1" fill="none" fill-rule="evenodd">
        <g id="邮箱登录注册+忘记密码" transform="translate(-1596.000000, -896.000000)">
            <g id="分组-copy-7" transform="translate(1456.000000, 846.000000)">
                <g id="发送图标" transform="translate(140.000000, 50.000000)">
                    <mask id="mask-2" fill="white">
                        <use xlink:href="#path-1"></use>
                    </mask>
                    <use id="Mask" fill="#F4F9EA" fill-rule="nonzero" xlink:href="#path-1"></use>
                    <g id="分组" mask="url(#mask-2)">
                        <g transform="translate(50.204402, 47.130597) rotate(-8.000000) translate(-50.204402, -47.130597) translate(13.537736, 27.130597)">
                            <g transform="translate(36.666667, 20.000000) scale(-1, 1) translate(-36.666667, -20.000000) translate(-0.000000, 0.000000)">
                                <path d="M21.7137487,20.3856514 L27.5568245,18.186943 C27.5568245,18.186943 28.1979072,18.9067955 27.5666654,19.5395097 C26.9354668,20.1718435 21.6969155,21.0523585 21.6969155,21.0523585 L21.7137487,20.3856514 Z" id="Fill-27" fill="#FFFFFF"></path>
                                <polygon id="Fill-39" fill="#6C623D" points="18.0751174 34.3589744 16.9952338 33.6717082 18.5915493 26.6666667 24.7887324 28.2051282"></polygon>
                                <path d="M20.9458565,36.5942217 C20.4374533,38.9198111 18.1010172,40.4015421 15.7266849,39.9036998 C13.3525684,39.4058997 11.8399189,37.1172203 12.3481495,34.7914194 C12.8563369,32.4657877 15.193032,30.9839299 17.5671053,31.4819413 C19.9414376,31.9795722 21.4539144,34.2686744 20.9458565,36.5942217" id="Fill-43" fill="#682310"></path>
                                <path d="M18.895566,36.1643861 C18.6297755,37.3808125 17.4075188,38.1556708 16.1657098,37.895313 C14.9239008,37.6349975 14.1324423,36.4378928 14.3982328,35.221255 C14.6639802,34.0047863 15.8864959,33.2297589 17.1283049,33.4901167 C18.3701571,33.7504745 19.1615724,34.9479597 18.895566,36.1643861" id="Fill-45" fill="#FFFFFF"></path>
                                <path d="M17.3581157,35.8418392 C17.2738207,36.2265836 16.8873497,36.4716785 16.4947497,36.3893178 C16.101977,36.3069148 15.8517679,35.9283433 15.9356745,35.5435989 C16.0197969,35.1588545 16.4064406,34.9139288 16.7990406,34.9961626 C17.1917701,35.0785233 17.4420223,35.4570949 17.3581157,35.8418392" id="Fill-47" fill="#682310"></path>
                                <path d="M20.9458565,36.5942217 C20.4374533,38.9198111 18.1010172,40.4015421 15.7266849,39.9036998 C13.3525684,39.4058997 11.8399189,37.1172203 12.3481495,34.7914194 C12.8563369,32.4657877 15.193032,30.9839299 17.5671053,31.4819413 C19.9414376,31.9795722 21.4539144,34.2686744 20.9458565,36.5942217" id="Fill-53" stroke="#6E780D" stroke-width="2.05128205" fill="#CFD9A3"></path>
                                <path d="M55.4619188,37.7153118 C55.51531,37.854158 55.4436613,38.0090282 55.3019179,38.0613281 C55.1602176,38.1132474 55.0022884,38.0432324 54.9491131,37.9043862 C54.8957219,37.7657514 54.9673705,37.6110926 55.1088982,37.558539 C55.2505985,37.5064928 55.4087866,37.576677 55.4619188,37.7153118" id="Fill-63" fill="#682310"></path>
                                <path d="M56.7864043,37.2568233 C57.108521,38.0957352 56.6757805,39.0316787 55.8196224,39.3473805 C54.9632054,39.6631246 54.007732,39.2390602 53.6853994,38.4003597 C53.3630669,37.5612365 53.7960232,36.6253352 54.6522244,36.3098025 C55.5088141,35.9938471 56.4642875,36.4181652 56.7864043,37.2568233" id="Fill-65" fill="#682310"></path>
                                <path d="M56.0470896,37.5295352 C56.2155071,37.9682284 55.9890801,38.4580376 55.5411898,38.6230126 C55.0933426,38.7882412 54.5935287,38.5663579 54.4248954,38.1276648 C54.2562621,37.6887602 54.4827322,37.1991624 54.9307952,37.033976 C55.3786855,36.869001 55.8784995,37.0908421 56.0470896,37.5295352" id="Fill-67" fill="#FFFFFF"></path>
                                <path d="M56.641465,35.5071784 C57.1433982,36.8322893 56.4690873,38.3106675 55.134993,38.8093372 C53.800495,39.3080736 52.3116441,38.6382388 51.8093746,37.3134618 C51.3071052,35.988017 51.9817523,34.5097056 53.315914,34.011303 C54.6506809,33.5122327 56.1395319,34.1824682 56.641465,35.5071784" id="Fill-69" stroke="#6E780D" stroke-width="2.05128205" fill="#CFD9A3"></path>
                                <path d="M10.4559049,8.90009349 C11.8533167,4.74395609 12.392838,1.29282085 11.6605234,1.19216146 C10.9282087,1.09145978 9.20159769,4.37934612 7.80385278,8.53586348 C6.59636937,12.1270701 6.02973695,15.1913175 6.3702834,16.0233925 C5.52527622,16.6925175 4.07179947,19.6350113 2.86424889,23.2260063 C1.46650406,27.382566 0.927382668,30.8333214 1.65936346,30.9339802 C2.39167808,31.0346396 4.11828915,27.7467955 5.51596762,23.5904472 C6.72358496,19.9994522 7.29041694,16.9348247 6.94993758,16.1029189 C7.79494517,15.4340053 9.24842159,12.4913424 10.4559049,8.90009349" id="Fill-77" fill="#6E780D" transform="translate(6.660014, 16.063070) rotate(-5.000000) translate(-6.660014, -16.063070) "></path>
                                <path d="M4.45923371,16.1375016 C4.17514255,17.4371766 5.40227654,18.795747 7.20000992,19.1726274 L8.22825419,14.4677111 C6.43047765,14.0906193 4.74332488,14.8382918 4.45923371,16.1375016" id="Fill-81" fill="#6C623D"></path>
                                <polygon id="Fill-83" fill="#6C623D" points="9.7874945 18.7478716 6.98292511 18.1596355 7.7217668 15.158128 10.5260341 15.7459413"></polygon>
                                <path d="M10.2293166,13.7887679 L8.71246893,20.7483444 C8.24746095,22.8814866 9.63144921,24.980969 11.8032827,25.4375991 C11.8032827,25.4375991 49.4599199,33.3965117 49.8378925,33.4756864 C57.9509821,35.1814973 65.9413859,30.390247 68.1938747,22.6727535 C68.2610804,22.4610989 68.3199231,22.2449564 68.3682473,22.0238603 C69.2052789,18.1837216 66.7141863,14.4046787 62.8043602,13.5824905 C58.8945341,12.7605562 55.0466113,15.2070098 54.2097952,19.0471061 L15.0035049,10.7534583 C14.7198962,10.6938022 14.4365892,10.6651384 14.1577224,10.6651384 C12.3017426,10.6650537 10.6333265,11.9344304 10.2293166,13.7887679" id="Fill-85" stroke="#6E780D" stroke-width="2.05128205" fill="#FFFFFF"></path>
                                <path d="M19.2614593,11.6541805 L15.0035049,10.7534583 C14.7198962,10.6938022 14.4365892,10.6651384 14.1577224,10.6651384 C12.3017426,10.6650537 10.6333265,11.9344304 10.2293166,13.7887679 L8.71246893,20.7483444 C8.24746095,22.8814866 9.63144921,24.980969 11.8032827,25.4375991 C11.8032827,25.4375991 13.1798657,25.7285445 15.9330317,26.3104353" id="路径" stroke="#6E780D" stroke-width="1.53846154" fill="#CFD9A3"></path>
                                <path d="M22.921681,22.9694506 C22.921681,22.9694506 49.2629015,27.8707513 49.749676,25.648138 C50.2366231,23.4256936 24.1202869,17.4984156 24.1202869,17.4984156 C22.5741638,17.1751134 21.0522218,18.1376368 20.7213292,19.648462 C20.3902207,21.1593715 21.3755147,22.6461483 22.921681,22.9694506" id="Fill-95" fill="#88931D"></path>
                                <path d="M57.0606363,24.7666342 C57.0606363,24.7666342 72.0202034,27.6259624 72.2966498,26.3293309 C72.5731943,25.0327979 57.7413422,21.5749335 57.7413422,21.5749335 C56.8632762,21.3863249 55.9989429,21.9478433 55.8110241,22.8292308 C55.6229827,23.7106675 56.1825457,24.5780256 57.0606363,24.7666342" id="Fill-95-Copy" fill="#88931D"></path>
                            </g>
                        </g>
                    </g>
                    <path d="M6.66666667,65.8679857 L17.1626277,62.2222222" id="直线-3" stroke="#CFD9A3" stroke-width="1.66666667" opacity="0.5" stroke-linecap="round" fill-rule="nonzero" mask="url(#mask-2)"></path>
                    <path d="M11.1111111,68.0902079 L21.6070722,64.4444444" id="直线-3-copy" stroke="#CFD9A3" stroke-width="1.66666667" opacity="0.300000012" stroke-linecap="round" fill-rule="nonzero" mask="url(#mask-2)"></path>
                    <path d="M5.55555556,73.6457634 L16.0515166,70" id="直线-3-copy-2" stroke="#CFD9A3" stroke-width="1.66666667" opacity="0.300000012" stroke-linecap="round" fill-rule="nonzero" mask="url(#mask-2)"></path>
                </g>
            </g>
        </g>
    </g>
</svg>