<?xml version="1.0" encoding="UTF-8"?>
<svg width="33px" height="32px" viewBox="0 0 33 32" version="1.1" xmlns="http://www.w3.org/2000/svg" xmlns:xlink="http://www.w3.org/1999/xlink">
    <!-- Generator: Sketch 52.4 (67378) - http://www.bohemiancoding.com/sketch -->
    <title>微博</title>
    <desc>Created with Sketch.</desc>
    <g id="页面-1" stroke="none" stroke-width="1" fill="none" fill-rule="evenodd">
        <g id="手机快速登录+密码登录" transform="translate(-351.000000, -684.000000)">
            <g id="分组-5-copy" transform="translate(178.000000, 280.000000)">
                <g id="Group-Copy" transform="translate(94.000000, 370.000000)">
                    <g id="Group-3" transform="translate(28.000000, 34.000000)">
                        <g id="微博" transform="translate(51.645122, 0.000000)">
                            <ellipse id="Oval-Copy" fill="#D73352" cx="15.8962413" cy="15.9413919" rx="15.8962413" ry="15.9413919"></ellipse>
                            <path d="M19.4968107,15.7887279 C19.2832657,15.7459104 19.1446193,15.6819214 19.0808476,15.5967136 C19.0170997,15.5115295 19.0064236,15.433181 19.0487483,15.3616681 L19.112947,15.2550752 C19.1270394,15.240953 19.1413928,15.219568 19.1559597,15.1908489 C19.1705266,15.1621536 19.1989723,15.1015824 19.2413444,15.0091117 C19.2836928,14.9166173 19.3157921,14.8241703 19.3376425,14.7316759 C19.3594928,14.6392052 19.3772625,14.5253495 19.3909041,14.3900613 C19.4045695,14.2547731 19.4009159,14.126534 19.3799908,14.0053443 C19.359042,13.8841545 19.3162429,13.7525214 19.2515697,13.6103976 C19.1868728,13.4682738 19.0978819,13.3400348 18.9845022,13.2257043 C18.7850734,13.0261898 18.525313,12.8979745 18.2051973,12.8410111 C17.8850815,12.7840713 17.5649895,12.7804399 17.2448738,12.8300931 C16.9247819,12.8797937 16.6224359,12.9437827 16.3378596,13.0221074 C16.0532832,13.1004559 15.818576,13.1751492 15.6336904,13.2462587 L15.3563975,13.3747113 C15.213884,13.4175288 15.0964236,13.4460105 15.0039689,13.4601327 C14.9115143,13.4742786 14.8402694,13.4706472 14.7902105,13.4492147 C14.7401279,13.427806 14.7009824,13.4063972 14.6727027,13.3850122 C14.6444467,13.3636034 14.6337469,13.3137366 14.6406033,13.2353644 C14.6474834,13.1570159 14.6545059,13.0893718 14.6617656,13.032432 C14.6690254,12.9755398 14.6867713,12.8864632 14.7150273,12.7652497 C14.7432595,12.6440361 14.7646828,12.547934 14.7792023,12.4768959 C14.7792023,12.3060767 14.7685025,12.1459619 14.7471029,11.9965514 C14.7257034,11.847141 14.6794879,11.6799533 14.6084328,11.4950119 C14.5374014,11.3100705 14.4342706,11.1606601 14.2990169,11.0467569 C14.163763,10.9328537 13.9930173,10.8404067 13.7867558,10.7693448 C13.5804943,10.6982829 13.3136403,10.6768741 12.9862649,10.7051185 C12.6588657,10.7333866 12.2889047,10.8187843 11.876358,10.9613354 C11.3782368,11.1321546 10.8730456,11.3847401 10.3608083,11.7191393 C9.84857097,12.0534911 9.40392494,12.4022025 9.02691769,12.7652259 C8.64991044,13.128273 8.30474157,13.4806158 7.99148226,13.8222779 C7.67822294,14.1639637 7.43620853,14.4415894 7.26546276,14.6552499 L7.03051829,14.9968645 C6.56105636,15.6091268 6.21251861,16.2213654 5.98485756,16.8335565 C5.75719652,17.445795 5.65043593,17.9083858 5.66452833,18.2213763 L5.66452833,18.6696313 C5.75015032,19.3529081 5.96004166,19.9651466 6.29424976,20.5063233 C6.62845786,21.0474762 7.02686468,21.4852404 7.48951767,21.8195922 C7.95217064,22.153944 8.49650734,22.4386426 9.12255148,22.6737356 C9.74861933,22.9087811 10.3498713,23.0796003 10.9263785,23.1862169 C11.5028383,23.2928098 12.1111839,23.3675031 12.7513678,23.4103681 C13.8045493,23.4960032 14.8966864,23.4142369 16.0277082,23.1650692 C17.1587774,22.9158541 18.2117216,22.4851628 19.1866356,21.872948 C20.1615259,21.2607094 20.8481626,20.5275422 21.2465457,19.6734225 C21.4883466,19.1750634 21.6128769,18.7052097 21.620184,18.2637666 C21.6274912,17.8223472 21.5527825,17.4629315 21.3961291,17.1855432 C21.2394757,16.9081311 21.0366069,16.6625949 20.78757,16.4489344 C20.5385331,16.2352739 20.3038022,16.0785532 20.0834008,15.9788197 C19.8629995,15.8790861 19.6674378,15.8150735 19.4967158,15.7868053 L19.4968107,15.7887279 Z M12.9870952,22.4296947 C11.4503357,22.5007803 10.1448909,22.2016984 9.07071325,21.5325201 C7.99658304,20.8633418 7.45950607,20.0162951 7.45952978,18.9913326 C7.45952978,17.9805396 7.99319042,17.1086426 9.06048796,16.3756652 C10.1278092,15.6427116 11.4368839,15.2404783 12.9877595,15.1689655 C14.5386351,15.0974763 15.8477335,15.3536932 16.9150073,15.9376637 C17.9823286,16.5216341 18.5159655,17.3187903 18.5159655,18.3291798 C18.5159655,19.3541424 17.9716288,20.2759062 16.882908,21.0944949 C15.7942109,21.9130599 14.4958122,22.357897 12.9877358,22.4289352 L12.9870952,22.4296947 Z M12.3683108,16.5143713 C11.9557879,16.5571888 11.5858268,16.6533146 11.2584039,16.8027251 C10.9310048,16.9521592 10.674898,17.1229784 10.4900598,17.3152064 C10.3052216,17.507458 10.1485919,17.7138082 10.0201471,17.9342568 C9.89172595,18.1547291 9.80271134,18.3718074 9.75307951,18.5854441 C9.70344769,18.7990808 9.67137206,18.9947503 9.65678145,19.1724051 C9.6421671,19.3500599 9.63514464,19.4887422 9.63559541,19.5885232 L9.65678145,19.7593662 L9.65678145,19.8447876 C9.65678145,19.8876052 9.6711111,19.9730029 9.6997941,20.1010045 C9.72847711,20.2290299 9.76762266,20.3465645 9.8172782,20.4536084 C9.86693374,20.5606522 9.94866491,20.6781868 10.0624717,20.8061885 C10.1763022,20.9341901 10.3115561,21.0410204 10.4681857,21.1266554 C11.4075603,21.5821733 12.2826888,21.7208793 13.0936423,21.5427735 C13.904572,21.3646678 14.5591094,20.9553853 15.0572543,20.3149261 C15.2566831,20.073045 15.3882833,19.7739868 15.452055,19.4177515 C15.5158266,19.0615163 15.5014733,18.7021243 15.4090423,18.3395281 C15.3165876,17.9769082 15.1565416,17.6459742 14.9289043,17.3466786 C14.701267,17.0474068 14.3633816,16.8159928 13.9152955,16.6524602 C13.4672331,16.4889275 12.9513422,16.4426685 12.367599,16.5137304 L12.3683108,16.5143713 Z M11.5998955,20.5506362 C11.5142972,20.5647346 11.432566,20.5683898 11.354702,20.5615542 C11.2768379,20.5547423 11.205593,20.540359 11.1409435,20.518523 C11.0762703,20.496687 11.0123089,20.4718605 10.9490117,20.444067 C10.8857383,20.4162973 10.8324529,20.377135 10.789203,20.3265324 C10.7459768,20.2759536 10.7068075,20.2260631 10.6717189,20.1768846 C10.6366302,20.1277062 10.6081607,20.0707427 10.5863341,20.0060654 C10.5644838,19.9413407 10.553784,19.8737203 10.5542348,19.8031331 C10.5542348,19.6464124 10.5970339,19.4933705 10.6826322,19.3439601 C10.7682305,19.1945497 10.8857145,19.0663107 11.0350608,18.9592431 C11.184407,18.8521993 11.3515229,18.7916044 11.5364085,18.7774822 C11.6643552,18.7633837 11.7888855,18.7670152 11.9100232,18.7884239 C12.0311609,18.809809 12.1342916,18.8453399 12.2194391,18.8950168 C12.3045866,18.9446937 12.3792716,19.0016334 12.443494,19.0658597 C12.5077164,19.1300623 12.5539319,19.2047794 12.5821642,19.2899872 C12.6103727,19.3752188 12.624726,19.4676895 12.6251768,19.567423 C12.6251768,19.72412 12.5789613,19.8735304 12.4865067,20.0156543 C12.3940757,20.1578019 12.2695454,20.2787543 12.112892,20.3784878 C11.9562386,20.4782213 11.7854929,20.5351848 11.600631,20.5493307 L11.5998955,20.5506362 Z M13.4139715,19.013216 C13.3142571,19.0842779 13.2111027,19.1163911 13.1045319,19.1095555 C12.9979848,19.1027199 12.9233235,19.0564845 12.8805007,18.9708257 L12.8374643,18.8854042 C12.8233719,18.8567089 12.816302,18.8282272 12.816302,18.7999828 L12.816302,18.7145613 C12.816302,18.6717438 12.8233719,18.6362128 12.8374643,18.6079447 L12.8805007,18.5225232 C12.8945931,18.4938279 12.9159927,18.4724191 12.9446757,18.4583207 L13.0088506,18.3728992 C13.1227049,18.2872404 13.2329056,18.2517095 13.3394289,18.2662826 C13.445976,18.2808795 13.5206372,18.3378192 13.5634838,18.4371255 C13.6062592,18.4940653 13.6240052,18.558078 13.6167218,18.6291399 C13.6094383,18.7002018 13.5880388,18.7678459 13.5525468,18.8320722 C13.5170311,18.8962985 13.4708156,18.9568697 13.4138766,19.0138094 L13.4139715,19.013216 Z M20.9912218,14.549915 C21.07682,14.549915 21.1551586,14.5285062 21.2261662,14.4856887 C21.2971976,14.4428949 21.3541129,14.3895866 21.396912,14.325835 C21.4397349,14.2620359 21.4682044,14.1943918 21.4822968,14.1229026 C21.4964129,14.1087805 21.5034828,14.0873717 21.5034828,14.0586763 C21.6742049,12.4356211 21.1050285,11.5102259 19.7959539,11.2824432 C19.4116394,11.2113813 19.0557945,11.2043321 18.7284191,11.2612718 C18.6287047,11.2612718 18.5433199,11.2860984 18.4723123,11.3357278 C18.4012809,11.385381 18.3407121,11.4493462 18.2906295,11.5277422 C18.2405469,11.6060907 18.215731,11.6878807 18.2162055,11.7730411 C18.2162055,11.9156159 18.2660745,12.0365446 18.3657889,12.1358509 C18.4655033,12.2351572 18.5864038,12.2850477 18.7284665,12.2854987 C19.8385632,12.0290444 20.4361853,12.3850186 20.5213328,13.3534924 C20.5500158,13.5953735 20.5356624,13.8231324 20.4783201,14.0367692 C20.4783201,14.1793677 20.5281892,14.3002964 20.6279036,14.3996027 C20.7275943,14.498909 20.8485184,14.5487995 20.9905575,14.5492505 L20.9912218,14.549915 Z M20.6285442,8.528687 C20.0024526,8.3861122 19.1628161,8.41459393 18.1096109,8.61413219 C18.0955185,8.61413219 18.0811652,8.62118142 18.0665983,8.63530361 L18.045436,8.67833475 L18.0242737,8.69950617 C17.867644,8.7423237 17.7394601,8.83137658 17.6397457,8.96668855 C17.5400313,9.10200052 17.490186,9.24799312 17.490186,9.40466638 C17.490186,9.6183031 17.5614309,9.79619525 17.7039444,9.93831911 C17.846458,10.0804667 18.0172037,10.1517422 18.2162055,10.1521694 L18.2803805,10.1521694 C18.2944966,10.1521694 18.3265959,10.1451202 18.3767022,10.130998 C18.4267848,10.1168996 18.4800465,10.1061715 18.5364872,10.0988849 C18.5929517,10.0915983 18.6534969,10.0772625 18.7181701,10.0558537 C18.7828195,10.034445 18.8397585,10.0130362 18.8889396,9.99162742 C18.9380969,9.97024239 19.0341814,9.95951428 19.1771694,9.95951428 C19.3201575,9.95951428 19.4945331,9.97024239 19.7003438,9.99162742 C19.9061545,10.0130362 20.1338393,10.0663445 20.3833506,10.1515049 C20.6328858,10.236689 20.8819463,10.3435192 21.1305562,10.4719718 C21.379166,10.6004007 21.6282266,10.7782929 21.8777617,11.0056246 C22.1272969,11.2329325 22.3442818,11.4962461 22.5286692,11.7954942 C22.8988675,12.6354917 22.9701362,13.4470312 22.7424277,14.2300889 C22.7424277,14.2442111 22.7387978,14.2585706 22.7315144,14.2731438 C22.7242309,14.2877169 22.7135549,14.3232479 22.6994387,14.3797367 C22.6853226,14.4362254 22.6709693,14.48951 22.6564261,14.5396141 C22.6418355,14.5897182 22.6275058,14.6537072 22.6133897,14.7316285 C22.5992736,14.809526 22.5922274,14.8771701 22.5922274,14.9345608 C22.5922274,15.0625624 22.6277431,15.1693689 22.6987982,15.255004 C22.7698296,15.3406391 22.8588679,15.401234 22.9658658,15.4367649 C23.0728636,15.4722959 23.1974176,15.4900495 23.3394804,15.4900258 C23.7379109,15.4900258 23.9726419,15.2479073 24.0436495,14.7636704 C24.2143953,14.2083953 24.3104799,13.6781367 24.3318794,13.1729657 C24.3533027,12.6677472 24.317787,12.2229575 24.2253324,11.8385016 C24.1328777,11.4540457 23.9942312,11.0946062 23.8093693,10.7602544 C23.6245312,10.4259026 23.4109625,10.1411802 23.1687109,9.90615848 C22.9264829,9.671113 22.655999,9.45747627 22.3573066,9.26522457 C22.0586142,9.07299661 21.7703843,8.91993103 21.492617,8.80605157 C21.2148733,8.69217212 20.9266435,8.59970142 20.627951,8.5286395 L20.6285442,8.52863952 L20.6285442,8.528687 Z" id="Shape" fill="#FFFFFF" fill-rule="nonzero"></path>
                        </g>
                    </g>
                </g>
            </g>
        </g>
    </g>
</svg>