<?xml version="1.0" encoding="UTF-8"?>
<svg width="40px" height="40px" viewBox="0 0 40 40" version="1.1" xmlns="http://www.w3.org/2000/svg" xmlns:xlink="http://www.w3.org/1999/xlink">
    <!-- Generator: Sketch 52.4 (67378) - http://www.bohemiancoding.com/sketch -->
    <title>微博</title>
    <desc>Created with Sketch.</desc>
    <g id="页面-1" stroke="none" stroke-width="1" fill="none" fill-rule="evenodd">
        <g id="手机快速登录+密码登录" transform="translate(-348.000000, -684.000000)">
            <g id="分组-5-copy" transform="translate(178.000000, 280.000000)">
                <g id="Group-Copy" transform="translate(94.000000, 370.000000)">
                    <g id="Group-3" transform="translate(13.000000, 34.000000)">
                        <g id="微博" transform="translate(63.117428, 0.000000)">
                            <ellipse id="Oval-Copy" fill="#D73352" cx="19.8703016" cy="19.9267399" rx="19.8703016" ry="19.9267399"></ellipse>
                            <path d="M24.3710133,19.7359099 C24.1040822,19.682388 23.9307741,19.6024018 23.8510596,19.495892 C23.7713746,19.3894118 23.7580295,19.2914762 23.8109354,19.2020851 L23.8911838,19.068844 C23.9087993,19.0511913 23.926741,19.02446 23.9449496,18.9885611 C23.9631582,18.952692 23.9987154,18.876978 24.0516805,18.7613896 C24.104616,18.6457716 24.1447402,18.5302129 24.1720531,18.4145949 C24.199366,18.2990065 24.2215781,18.1566869 24.2386302,17.9875766 C24.2557119,17.8184663 24.2511449,17.6581676 24.2249885,17.5066804 C24.1988026,17.3551932 24.1453036,17.1906518 24.0644621,17.012997 C23.983591,16.8353422 23.8723524,16.6750435 23.7306277,16.5321304 C23.4813417,16.2827373 23.1566412,16.1224682 22.7564966,16.0512638 C22.3563519,15.9800892 21.9562369,15.9755499 21.5560923,16.0376163 C21.1559773,16.0997421 20.7780448,16.1797283 20.4223244,16.2776343 C20.0666041,16.3755699 19.77322,16.4689366 19.542113,16.5578233 L19.1954969,16.7183891 C19.017355,16.771911 18.8705295,16.8075132 18.7549612,16.8251659 C18.6393928,16.8428483 18.5503367,16.838309 18.4877631,16.8115184 C18.4251599,16.7847574 18.3762279,16.7579965 18.3408783,16.7312652 C18.3055584,16.7045042 18.2921836,16.6421708 18.3007541,16.5442055 C18.3093543,16.4462698 18.3181324,16.3617147 18.327207,16.2905401 C18.3362817,16.2194247 18.3584642,16.108079 18.3937841,15.9565621 C18.4290744,15.8050452 18.4558536,15.6849175 18.4740028,15.5961198 C18.4740028,15.3825958 18.4606281,15.1824523 18.4338787,14.9956893 C18.4071292,14.8089263 18.3493598,14.5999416 18.260541,14.3687649 C18.1717517,14.1375881 18.0428383,13.9508251 17.8737711,13.8084461 C17.7047038,13.6660671 17.4912716,13.5505084 17.2334447,13.461681 C16.9756179,13.3728536 16.6420504,13.3460927 16.2328311,13.3813981 C15.8235821,13.4167333 15.3611308,13.5234804 14.8454475,13.7016693 C14.222796,13.9151933 13.591307,14.2309251 12.9510104,14.6489242 C12.3107137,15.0668639 11.7549062,15.5027531 11.2836471,15.9565324 C10.812388,16.4103413 10.380927,16.8507697 9.98935282,17.2778474 C9.59777868,17.7049547 9.29526066,18.0519868 9.08182845,18.3190624 L8.78814786,18.7460807 C8.20132045,19.5114085 7.76564827,20.2767067 7.48107195,21.0419456 C7.19649566,21.8072438 7.06304491,22.3854823 7.08066041,22.7767204 L7.08066041,23.3370392 C7.1876879,24.1911351 7.45005207,24.9564333 7.8678122,25.6329041 C8.28557233,26.3093452 8.78358085,26.8565505 9.36189709,27.2744903 C9.9402133,27.69243 10.6206342,28.0483033 11.4031893,28.3421695 C12.1857742,28.6359764 12.9373391,28.8495004 13.6579731,28.9827711 C14.3785478,29.1160122 15.1389798,29.2093789 15.9392098,29.2629602 C17.2556866,29.370004 18.620858,29.2677961 20.0346352,28.9563365 C21.4484717,28.6448176 22.7646519,28.1064535 23.9832945,27.341185 C25.2019073,26.5758868 26.0602032,25.6594277 26.5581821,24.5917781 C26.8604332,23.9688292 27.0160961,23.3815122 27.02523,22.8297083 C27.034364,22.2779341 26.9409781,21.8286644 26.7451614,21.481929 C26.5493447,21.1351639 26.2957586,20.8282436 25.9844625,20.561168 C25.6731664,20.2940924 25.3797527,20.0981915 25.1042511,19.9735246 C24.8287494,19.8488577 24.5842973,19.7688418 24.3708947,19.7335067 L24.3710133,19.7359099 Z M16.233869,28.0371184 C14.3129197,28.1259754 12.6811136,27.752123 11.3383916,26.9156502 C9.9957288,26.0791773 9.32438258,25.0203689 9.32441223,23.7391657 C9.32441223,22.4756745 9.99148803,21.3858033 11.32561,20.4695816 C12.6597615,19.5533895 14.2961049,19.0505979 16.2346994,18.9612068 C18.1732939,18.8718454 19.8096669,19.1921165 21.1437592,19.9220796 C22.4779107,20.6520427 23.1449569,21.6484879 23.1449569,22.9114747 C23.1449569,24.192678 22.464536,25.3448827 21.103635,26.3681186 C19.7427636,27.3913248 18.1197653,27.9473713 16.2346697,28.036169 L16.233869,28.0371184 Z M15.4603885,20.6429641 C14.9447348,20.696486 14.4822835,20.8166433 14.0730049,21.0034063 C13.6637559,21.190199 13.3436224,21.403723 13.1125747,21.6440079 C12.881527,21.8843225 12.6857399,22.1422602 12.5251838,22.417821 C12.3646574,22.6934114 12.2533892,22.9647593 12.1913494,23.2318052 C12.1293096,23.4988511 12.0892151,23.7434379 12.0709768,23.9655064 C12.0527089,24.1875749 12.0439308,24.3609278 12.0444943,24.4856541 L12.0709768,24.6992077 L12.0709768,24.8059845 C12.0709768,24.8595064 12.0888889,24.9662536 12.1247426,25.1262557 C12.1605964,25.2862874 12.2095283,25.4332057 12.2715978,25.5670105 C12.3336672,25.7008153 12.4358311,25.8477335 12.5780896,26.0077356 C12.7203778,26.1677377 12.8894451,26.3012755 13.0852321,26.4083193 C14.2594504,26.9777166 15.353361,27.1510991 16.3670528,26.9284669 C17.380715,26.7058347 18.1988867,26.1942316 18.8215679,25.3936576 C19.0708539,25.0913062 19.2353541,24.7174835 19.3150687,24.2721894 C19.3947833,23.8268954 19.3768416,23.3776554 19.2613029,22.9244101 C19.1457346,22.4711352 18.9456771,22.0574677 18.6611304,21.6833483 C18.3765838,21.3092586 17.954227,21.019991 17.3941194,20.8155752 C16.8340414,20.6111594 16.1891778,20.5533356 15.4594988,20.642163 L15.4603885,20.6429641 Z M14.4998694,25.6882952 C14.3928715,25.7059183 14.2907076,25.7104872 14.1933775,25.7019427 C14.0960474,25.6934279 14.0069913,25.6754488 13.9261794,25.6481538 C13.8453379,25.6208588 13.7653861,25.5898256 13.6862647,25.5550838 C13.6071728,25.5203717 13.5405661,25.4714187 13.4865037,25.4081655 C13.432471,25.344942 13.3835094,25.2825789 13.3396486,25.2211058 C13.2957878,25.1596327 13.2602009,25.0884284 13.2329176,25.0075818 C13.2056047,24.9266759 13.19223,24.8421504 13.1927935,24.7539164 C13.1927935,24.5580155 13.2462924,24.3667132 13.3532902,24.1799501 C13.4602881,23.9931871 13.6071432,23.8328884 13.793826,23.6990539 C13.9805087,23.5652491 14.1894036,23.4895055 14.4205107,23.4718527 C14.580444,23.4542297 14.7361069,23.4587689 14.887529,23.4855299 C15.0389511,23.5122612 15.1678645,23.5566749 15.2742989,23.618771 C15.3807332,23.6808671 15.4740895,23.7520418 15.5543675,23.8323247 C15.6346455,23.9125779 15.6924149,24.0059742 15.7277052,24.112484 C15.7629658,24.2190235 15.7809076,24.3346119 15.781471,24.4592788 C15.781471,24.65515 15.7237017,24.841913 15.6081333,25.0195678 C15.4925946,25.1972523 15.3369318,25.3484428 15.141115,25.4731098 C14.9452983,25.5977767 14.7318661,25.668981 14.5007887,25.6866634 L14.4998694,25.6882952 Z M16.7674644,23.76652 C16.6428214,23.8553474 16.5138784,23.8954889 16.3806648,23.8869443 C16.247481,23.8783998 16.1541544,23.8206056 16.1006259,23.7135321 L16.0468304,23.6067553 C16.0292149,23.5708861 16.0203775,23.5352839 16.0203775,23.4999785 L16.0203775,23.3932016 C16.0203775,23.3396797 16.0292149,23.295266 16.0468304,23.2599309 L16.1006259,23.1531541 C16.1182414,23.1172849 16.1449908,23.0905239 16.1808446,23.0729009 L16.2610633,22.966124 C16.4033811,22.8590505 16.5411319,22.8146368 16.6742861,22.8328533 C16.80747,22.8510994 16.9007965,22.922274 16.9543548,23.0464069 C17.007824,23.1175816 17.0300065,23.1975974 17.0209022,23.2864248 C17.0117979,23.3752523 16.9850485,23.4598074 16.9406835,23.5400903 C16.8962889,23.6203732 16.8385195,23.6960871 16.7673458,23.7672618 L16.7674644,23.76652 Z M26.2390272,18.1873938 C26.3460251,18.1873938 26.4439482,18.1606328 26.5327078,18.1071109 C26.621497,18.0536186 26.6926411,17.9869832 26.74614,17.9072937 C26.7996686,17.8275449 26.8352555,17.7429897 26.852871,17.6536283 C26.8705161,17.6359756 26.8793535,17.6092146 26.8793535,17.5733454 C27.0927561,15.5445264 26.3812857,14.3877824 24.7449423,14.103054 C24.2645493,14.0142266 23.8197431,14.0054151 23.4105238,14.0765898 C23.2858808,14.0765898 23.1791499,14.107623 23.0903903,14.1696598 C23.0016011,14.2317262 22.9258901,14.3116828 22.8632868,14.4096777 C22.8006836,14.5076133 22.7696637,14.6098509 22.7702568,14.7163014 C22.7702568,14.8945199 22.8325932,15.0456807 22.9572362,15.1698136 C23.0818791,15.2939465 23.2330047,15.3563096 23.4105832,15.3568733 C24.798204,15.0363055 25.5452316,15.4812732 25.651666,16.6918655 C25.6875197,16.9942169 25.669578,17.2789156 25.5979002,17.5459615 C25.5979002,17.7242096 25.6602365,17.8753705 25.7848795,17.9995034 C25.9094928,18.1236363 26.060648,18.1859994 26.2381969,18.1865631 L26.2390272,18.1873938 Z M25.7856802,10.6608587 C25.0030657,10.4826403 23.9535201,10.5182424 22.6370137,10.7676652 C22.6193982,10.7676652 22.6014565,10.7764768 22.5832479,10.7941295 L22.556795,10.8479184 L22.5303421,10.8743827 C22.334555,10.9279046 22.1743251,11.0392207 22.0496821,11.2083607 C21.9250391,11.3775007 21.8627325,11.5599914 21.8627325,11.755833 C21.8627325,12.0228789 21.9517886,12.2452441 22.1299305,12.4228989 C22.3080724,12.6005834 22.5215047,12.6896778 22.7702568,12.6902118 L22.8504756,12.6902118 C22.8681207,12.6902118 22.9082449,12.6814003 22.9708778,12.6637475 C23.033481,12.6461245 23.1000581,12.6327143 23.1706091,12.6236061 C23.2411897,12.6144979 23.3168711,12.5965781 23.3977126,12.5698172 C23.4785244,12.5430562 23.5496981,12.5162953 23.6111745,12.4895343 C23.6726211,12.462803 23.7927268,12.4493928 23.9714618,12.4493928 C24.1501968,12.4493928 24.3681664,12.462803 24.6254298,12.4895343 C24.8826931,12.5162952 25.1672991,12.5829306 25.4791883,12.6893811 C25.7911072,12.7958613 26.1024329,12.929399 26.4131952,13.0899648 C26.7239576,13.2505009 27.0352833,13.4728661 27.3472022,13.7570307 C27.6591211,14.0411656 27.9303523,14.3703076 28.1608366,14.7443677 C28.6235844,15.7943646 28.7126702,16.8087889 28.4280346,17.7876111 C28.4280346,17.8052639 28.4234973,17.8232133 28.414393,17.8414297 C28.4052887,17.8596462 28.3919436,17.9040598 28.3742984,17.9746708 C28.3566533,18.0452818 28.3387116,18.1118875 28.3205326,18.1745176 C28.3022944,18.2371478 28.2843823,18.317134 28.2667371,18.4145356 C28.249092,18.5119075 28.2402842,18.5964626 28.2402842,18.668201 C28.2402842,18.828203 28.2846789,18.9617112 28.3734977,19.068755 C28.462287,19.1757989 28.5735849,19.2515425 28.7073322,19.2959562 C28.8410795,19.3403699 28.996772,19.3625619 29.1743505,19.3625322 C29.6723887,19.3625322 29.9658024,19.0598841 30.0545619,18.454588 C30.2679942,17.7604941 30.3880998,17.0976708 30.4148493,16.4662071 C30.4416284,15.834684 30.3972338,15.2786969 30.2816654,14.798127 C30.1660971,14.3175571 29.9927891,13.8682578 29.7617117,13.450318 C29.5306639,13.0323783 29.2637032,12.6764753 28.9608886,12.3826981 C28.6581037,12.0888912 28.3199988,11.8218453 27.9466333,11.5815307 C27.5732677,11.3412458 27.2129804,11.1499138 26.8657712,11.0075645 C26.5185917,10.8652151 26.1583043,10.7496268 25.7849388,10.6607994 L25.7856802,10.6607994 L25.7856802,10.6608587 Z" id="Shape" fill="#FFFFFF" fill-rule="nonzero"></path>
                        </g>
                    </g>
                </g>
            </g>
        </g>
    </g>
</svg>