<?xml version="1.0" encoding="UTF-8"?>
<svg width="31px" height="30px" viewBox="0 0 31 30" version="1.1" xmlns="http://www.w3.org/2000/svg" xmlns:xlink="http://www.w3.org/1999/xlink">
    <!-- Generator: Sketch 52.4 (67378) - http://www.bohemiancoding.com/sketch -->
    <title>微博</title>
    <desc>Created with Sketch.</desc>
    <g id="页面-1" stroke="none" stroke-width="1" fill="none" fill-rule="evenodd">
        <g id="手机快速登录+密码登录" transform="translate(-720.000000, -660.000000)">
            <g id="分组" transform="translate(545.000000, 261.000000)">
                <g id="Group-Copy" transform="translate(74.000000, 367.000000)">
                    <g id="Group-3" transform="translate(14.000000, 32.000000)">
                        <g id="微博" transform="translate(87.000000, 0.000000)">
                            <circle id="Oval-Copy" fill="#D73352" cx="15.0588235" cy="15" r="15"></circle>
                            <path d="M19.3076208,14.8563513 C19.1058261,14.8160623 18.9748087,14.7558521 18.9145461,14.675676 C18.8543059,14.5955223 18.8442172,14.5218006 18.884213,14.4545108 L18.9448792,14.3542126 C18.9581961,14.3409243 18.9717597,14.3208021 18.9855251,14.293779 C18.9992904,14.2667782 19.0261709,14.209784 19.0662115,14.122774 C19.1062297,14.0357417 19.1365628,13.948754 19.1572108,13.8617217 C19.1778588,13.7747117 19.1946507,13.6675795 19.2075417,13.5402805 C19.2204551,13.4129815 19.2170026,13.2923155 19.1972289,13.1782824 C19.1774328,13.0642493 19.1369887,12.9403895 19.0758742,12.8066586 C19.0147372,12.6729276 18.930643,12.5522616 18.823502,12.4446827 C18.6350467,12.2569502 18.3895797,12.1363065 18.0870783,12.0827069 C17.7845769,12.0291296 17.482098,12.0257127 17.1795966,12.0724336 C16.8771176,12.1191993 16.5914082,12.1794095 16.3224907,12.2531089 C16.0535732,12.3268307 15.8317807,12.3971131 15.6570684,12.4640233 L15.3950336,12.5848903 C15.2603618,12.6251793 15.1493647,12.6519791 15.0619973,12.6652673 C14.97463,12.6785779 14.9073053,12.6751609 14.8600009,12.6549941 C14.8126741,12.6348496 14.7756826,12.6147051 14.7489589,12.5945829 C14.7222578,12.5744384 14.7121467,12.5275164 14.7186259,12.4537723 C14.7251274,12.3800506 14.7317635,12.3164011 14.7386237,12.2628238 C14.745484,12.2092912 14.7622535,12.1254749 14.7889547,12.0114194 C14.8156334,11.897364 14.8358779,11.806937 14.8495984,11.7400939 C14.8495984,11.5793621 14.8394874,11.4287026 14.8192653,11.2881154 C14.7990433,11.1475281 14.7553708,10.9902134 14.6882255,10.8161934 C14.6211026,10.6421734 14.5236466,10.5015862 14.3958352,10.3944093 C14.2680237,10.2872325 14.1066732,10.2002449 13.9117612,10.1333794 C13.7168493,10.0665139 13.4646789,10.0463694 13.1553173,10.0729458 C12.8459332,10.0995446 12.4963293,10.1798993 12.1064829,10.3140323 C11.6357708,10.474764 11.1583778,10.7124335 10.6743263,11.0270854 C10.1902748,11.3416926 9.77009534,11.6698114 9.41383289,12.0113971 C9.05757043,12.3530051 8.73139445,12.6845408 8.43537221,13.0060267 C8.13934997,13.3275348 7.91065238,13.5887658 7.74930189,13.7898089 L7.52728521,14.11125 C7.0836554,14.6873562 6.75429591,15.2634401 6.53916189,15.8394793 C6.32402789,16.4155631 6.22314179,16.8508364 6.23645876,17.1453438 L6.23645876,17.5671278 C6.31736941,18.2100548 6.51571148,18.7861387 6.83152981,19.295357 C7.14734814,19.8045531 7.52383265,20.2164659 7.96102819,20.5310731 C8.39822371,20.8456803 8.91260833,21.1135665 9.50420443,21.3347765 C10.0958229,21.5559418 10.663991,21.7166735 11.208776,21.8169941 C11.7535161,21.9172923 12.3283875,21.9875747 12.9333454,22.0279084 C13.9285756,22.1084865 14.960618,22.0315487 16.0294054,21.7970952 C17.0982376,21.562597 18.0932436,21.1573395 19.014513,20.581278 C19.9357601,20.0051942 20.5846146,19.3153229 20.9610767,18.5116418 C21.1895725,18.0427124 21.3072506,17.6006052 21.3141557,17.1852308 C21.3210607,16.7698787 21.2504629,16.4316876 21.1024293,16.17068 C20.9543958,15.90965 20.7626898,15.6786135 20.5273562,15.4775704 C20.2920225,15.2765273 20.0702076,15.1290614 19.8619339,15.0352175 C19.6536601,14.9413736 19.4688592,14.881141 19.3075311,14.8545422 L19.3076208,14.8563513 Z M13.1561019,21.105147 C11.7039025,21.1720348 10.4702897,20.8906147 9.4552186,20.2609536 C8.44019233,19.6312925 7.93266797,18.8342667 7.93269039,17.8698315 C7.93269039,16.9187293 8.43698639,16.0983207 9.44555595,15.408628 C10.4541479,14.7189577 11.6911909,14.3404777 13.1567297,14.2731879 C14.6222684,14.2059204 15.8593338,14.4470068 16.867881,14.9964919 C17.8764729,15.545977 18.3807465,16.2960585 18.3807465,17.2467811 C18.3807465,18.2112162 17.8663619,19.0785468 16.8375479,19.8487952 C15.8087563,20.6190212 14.5818019,21.0375892 13.1567073,21.1044324 L13.1561019,21.105147 Z M12.5713661,15.539143 C12.1815422,15.579432 11.8319382,15.6698813 11.5225318,15.8104686 C11.2131477,15.9510781 10.9711332,16.1118099 10.7964657,16.2926861 C10.6217982,16.4735847 10.4737871,16.6677492 10.3524099,16.8751796 C10.2310551,17.0826323 10.1469385,17.2868914 10.1000377,17.4879122 C10.0531369,17.6889329 10.0228262,17.8730475 10.0090384,18.0402112 C9.99522824,18.2073749 9.98859219,18.3378675 9.98901816,18.4317561 L10.0090384,18.5925102 L10.0090384,18.6728873 C10.0090384,18.7131763 10.0225796,18.793531 10.0496843,18.9139737 C10.0767891,19.0344388 10.1137806,19.1450326 10.1607039,19.2457551 C10.2076271,19.3464777 10.284861,19.4570715 10.3924056,19.5775142 C10.4999726,19.6979569 10.6277841,19.7984785 10.7757952,19.8790565 C11.6634808,20.3076745 12.4904554,20.4381895 13.2567862,20.2706015 C14.0230946,20.1030134 14.6416161,19.7179004 15.1123507,19.1152625 C15.3008059,18.8876653 15.4251648,18.6062674 15.4854275,18.271069 C15.5456901,17.9358707 15.5321265,17.597702 15.4447816,17.2565183 C15.3574142,16.9153123 15.2061747,16.603921 14.9910631,16.3222999 C14.7759515,16.0407011 14.4566582,15.8229528 14.0332281,15.6690773 C13.6098203,15.5152018 13.1223163,15.4716745 12.5706935,15.53854 L12.5713661,15.539143 Z M11.8452328,19.3370531 C11.7643445,19.350319 11.6871106,19.3537583 11.613531,19.3473264 C11.5399514,19.3409167 11.4726268,19.3273829 11.4115346,19.3068363 C11.3504201,19.2862898 11.2899781,19.2629294 11.2301638,19.2367772 C11.170372,19.2106474 11.1200186,19.1737977 11.0791485,19.1261834 C11.0383009,19.0785914 11.0012869,19.0316472 10.968129,18.9853728 C10.9349711,18.9390985 10.9080681,18.885499 10.8874425,18.8246411 C10.8667945,18.7637386 10.8566835,18.7001114 10.8571095,18.6336926 C10.8571095,18.4862267 10.8975536,18.3422225 10.9784418,18.2016353 C11.05933,18.061048 11.1703496,17.940382 11.311478,17.8396371 C11.4526065,17.7389145 11.6105269,17.681898 11.7852392,17.6686097 C11.9061456,17.6553438 12.0238236,17.6587608 12.1382957,17.6789053 C12.2527678,17.6990275 12.3502238,17.7324602 12.430686,17.7792035 C12.5111483,17.8259468 12.5817237,17.8795241 12.6424123,17.9399576 C12.7031009,18.0003688 12.7467734,18.0706736 12.7734522,18.1508496 C12.8001085,18.231048 12.8136721,18.318058 12.8140981,18.4119019 C12.8140981,18.5593455 12.7704256,18.6999327 12.6830582,18.8336637 C12.5957133,18.967417 12.4780352,19.0812267 12.3300017,19.1750707 C12.1819682,19.2689146 12.0206176,19.3225142 11.8459278,19.3358248 L11.8452328,19.3370531 Z M13.5594894,17.8904227 C13.4652618,17.9572882 13.3677834,17.9875049 13.2670766,17.981073 C13.1663923,17.974641 13.0958393,17.931136 13.0553728,17.8505357 L13.0147045,17.7701586 C13.0013875,17.7431578 12.9947066,17.716358 12.9947066,17.6897816 L12.9947066,17.6094045 C12.9947066,17.5691155 13.0013875,17.5356828 13.0147045,17.509084 L13.0553728,17.428707 C13.0686897,17.4017062 13.0889118,17.3815617 13.1160165,17.3682958 L13.1766603,17.2879187 C13.2842497,17.2073184 13.3883866,17.1738856 13.4890485,17.1875982 C13.5897328,17.2013331 13.6602858,17.2549103 13.7007748,17.3483523 C13.7411965,17.4019295 13.757966,17.462162 13.7510833,17.5290275 C13.7442007,17.595893 13.7239786,17.6595425 13.6904396,17.719976 C13.6568781,17.7804096 13.6132057,17.8374038 13.5593997,17.8909811 L13.5594894,17.8904227 Z M20.719802,13.6906944 C20.8006902,13.6906944 20.8747182,13.6705499 20.9418187,13.6302608 C21.0089416,13.5899942 21.062725,13.5398339 21.1031692,13.479847 C21.1436357,13.4198155 21.1705387,13.356166 21.1838556,13.2888985 C21.197195,13.2756103 21.2038759,13.2554658 21.2038759,13.228465 C21.365204,11.7012565 20.8273466,10.830509 19.5903036,10.6161776 C19.2271361,10.5493121 18.8908715,10.5426792 18.5815099,10.5962565 C18.4872822,10.5962565 18.4065958,10.6196169 18.3394953,10.6663156 C18.2723724,10.7130366 18.2151364,10.7732244 18.1678096,10.8469908 C18.1204828,10.9207126 18.0970324,10.9976727 18.0974808,11.0778041 C18.0974808,11.2119593 18.1446058,11.3257468 18.2388334,11.4191887 C18.333061,11.5126307 18.4473089,11.559575 18.5815547,11.5599993 C19.6305684,11.3186895 20.1953063,11.6536423 20.2757686,12.5649245 C20.3028733,12.7925217 20.2893098,13.0068307 20.2351227,13.2078515 C20.2351227,13.3420291 20.2822478,13.4558166 20.3764754,13.5492585 C20.4706806,13.6427005 20.5849509,13.6896448 20.7191743,13.6900691 L20.719802,13.6906944 Z M20.3770807,8.02503981 C19.7854397,7.89088453 18.9920042,7.91768431 17.9967516,8.10543918 C17.9834346,8.10543918 17.9698711,8.11207213 17.9561057,8.12536036 L17.9361079,8.16585037 L17.91611,8.18577155 C17.7680989,8.22606056 17.6469683,8.30985457 17.5527407,8.43717593 C17.458513,8.56449728 17.4114105,8.70186853 17.4114105,8.84928971 C17.4114105,9.05031048 17.4787351,9.21769751 17.6134069,9.35142848 C17.7480786,9.48518178 17.9094291,9.55224824 18.0974808,9.55265025 L18.1581245,9.55265025 C18.1714639,9.55265025 18.201797,9.5460173 18.2491462,9.53272908 C18.296473,9.51946318 18.346804,9.5093686 18.4001391,9.50251232 C18.4534966,9.49565604 18.5107102,9.48216681 18.5718248,9.4620223 C18.6329169,9.4418778 18.6867228,9.42173329 18.7331977,9.40158876 C18.7796502,9.38146658 18.8704477,9.371372 19.0055678,9.371372 C19.1406879,9.371372 19.3054685,9.38146658 19.4999545,9.40158876 C19.6944405,9.42173327 19.9095969,9.47189355 20.1453789,9.55202493 C20.3811834,9.63217865 20.6165394,9.73270019 20.8514696,9.85356725 C21.0863997,9.97441198 21.3217557,10.141799 21.5575602,10.355706 C21.7933646,10.5695907 21.99841,10.8173547 22.1726515,11.0989312 C22.5224797,11.8893241 22.5898268,12.6529395 22.3746479,13.3897551 C22.3746479,13.4030433 22.3712178,13.4165548 22.3643351,13.4302674 C22.3574525,13.44398 22.3473638,13.4774127 22.3340245,13.5305656 C22.3206851,13.5837185 22.3071215,13.6338565 22.2933786,13.6810018 C22.2795908,13.7281471 22.2660497,13.7883573 22.2527103,13.8616771 C22.2393709,13.9349745 22.2327124,13.998624 22.2327124,14.0526256 C22.2327124,14.1730683 22.2662738,14.2735675 22.3334191,14.3541456 C22.400542,14.4347236 22.484681,14.4917401 22.5857913,14.5251729 C22.6869016,14.5586056 22.8046021,14.5753108 22.9388479,14.5752885 C23.3153548,14.5752885 23.5371697,14.3474679 23.6042702,13.8918268 C23.7656207,13.3693425 23.8564182,12.8703974 23.8766402,12.3950585 C23.8968847,11.9196748 23.8633232,11.5011514 23.7759559,11.1393989 C23.6885885,10.7776464 23.5575711,10.439433 23.3828812,10.1248258 C23.2082137,9.81021859 23.0063967,9.54230999 22.7774749,9.32116705 C22.5485756,9.10000177 22.292975,8.89898101 22.0107181,8.7180824 C21.7284612,8.53720614 21.4560912,8.39317958 21.193608,8.28602509 C20.9311472,8.17887059 20.6587771,8.0918606 20.3765202,8.02499512 L20.3770807,8.02499514 L20.3770807,8.02503981 Z" id="Shape" fill="#FFFFFF" fill-rule="nonzero"></path>
                        </g>
                    </g>
                </g>
            </g>
        </g>
    </g>
</svg>