<?xml version="1.0" encoding="UTF-8"?>
<svg width="30px" height="30px" viewBox="0 0 30 30" version="1.1" xmlns="http://www.w3.org/2000/svg" xmlns:xlink="http://www.w3.org/1999/xlink">
    <!-- Generator: Sketch 52.4 (67378) - http://www.bohemiancoding.com/sketch -->
    <title>微信</title>
    <desc>Created with Sketch.</desc>
    <g id="页面-1" stroke="none" stroke-width="1" fill="none" fill-rule="evenodd">
        <g id="新用户" transform="translate(-189.000000, -661.000000)">
            <g id="Group-Copy" transform="translate(175.000000, 629.000000)">
                <g id="Group-3" transform="translate(14.000000, 32.000000)">
                    <g id="微信">
                        <circle id="Oval" fill="#7ED321" cx="15" cy="15" r="15"></circle>
                        <path d="M16.7862724,14.9894452 C16.4776161,14.9894452 16.168774,15.2708084 16.168774,15.6179472 C16.168774,15.8992556 16.4776161,16.1822075 16.7862724,16.1822075 C17.2499628,16.1822075 17.5808359,15.8992556 17.5808359,15.6179472 C17.5808731,15.2708084 17.2499628,14.9894452 16.7862724,14.9894452 M14.757065,12.0613907 C15.2424706,12.0613907 15.5512012,11.7579501 15.5512012,11.3023054 C15.5512012,10.825131 15.2425077,10.5437678 14.757065,10.5437678 C14.2940062,10.5437678 13.8526068,10.825131 13.8526068,11.3023054 C13.8525882,11.7579319 14.2940062,12.0613907 14.757065,12.0613907 M12.4408978,18.3719576 C11.6246192,18.3719576 11.0290031,18.2419038 10.256935,18.024837 L8.02909598,19.1304768 L8.66918266,17.2662813 C7.10271827,16.1822075 6.17647059,14.8151454 6.17647059,13.145647 C6.17647059,10.1966473 8.99977709,7.94117647 12.4408978,7.94117647 C15.4851827,7.94117647 18.1983715,9.71950951 18.7276161,12.2349784 C18.5072322,12.1914445 18.308805,12.170061 18.1322415,12.170061 C15.1320743,12.170061 12.8161858,14.382345 12.8161858,17.0490867 C12.8161858,17.5048775 12.8823529,17.9161302 12.9924892,18.3504463 C12.8161858,18.3719576 12.6174613,18.3719576 12.4408978,18.3719576 M21.6397152,20.4975207 L22.0805387,22.0588235 L20.4041053,21.1260044 C19.7643901,21.2558939 19.1468359,21.4517415 18.5072322,21.4517415 C15.5512012,21.4517415 13.2128173,19.4560496 13.2128173,16.9835302 C13.2128173,14.5124353 15.5511641,12.5171816 18.5072322,12.5171816 C21.3086192,12.5171816 23.8235294,14.5124353 23.8235294,16.9835302 C23.8235294,18.3719576 22.8750836,19.6074868 21.6397152,20.4975207 M10.3896966,10.5437678 C9.92647059,10.5437678 9.44110217,10.825131 9.44110217,11.3023054 C9.44110217,11.7579319 9.92648916,12.0613907 10.3896966,12.0613907 C10.8306687,12.0613907 11.1838142,11.7579501 11.1838142,11.3023054 C11.1838142,10.825131 10.8305387,10.5437678 10.3896966,10.5437678 M20.2497771,14.9894452 C19.9187368,14.9894452 19.6322229,15.2708084 19.6322229,15.6179472 C19.6322229,15.8992556 19.9187368,16.1822075 20.2497771,16.1822075 C20.6911022,16.1822075 21.0221424,15.8992556 21.0221424,15.6179472 C21.0221424,15.2708084 20.6911022,14.9894452 20.2497771,14.9894452" id="Shape" fill="#FFFFFF" fill-rule="nonzero"></path>
                    </g>
                </g>
            </g>
        </g>
    </g>
</svg>