<?xml version="1.0" encoding="UTF-8"?>
<svg width="32px" height="32px" viewBox="0 0 32 32" version="1.1" xmlns="http://www.w3.org/2000/svg" xmlns:xlink="http://www.w3.org/1999/xlink">
    <!-- Generator: Sketch 52.4 (67378) - http://www.bohemiancoding.com/sketch -->
    <title>微信</title>
    <desc>Created with Sketch.</desc>
    <g id="页面-1" stroke="none" stroke-width="1" fill="none" fill-rule="evenodd">
        <g id="手机快速登录+密码登录" transform="translate(-300.000000, -684.000000)">
            <g id="分组-5-copy" transform="translate(178.000000, 280.000000)">
                <g id="Group-Copy" transform="translate(94.000000, 370.000000)">
                    <g id="Group-3" transform="translate(28.000000, 34.000000)">
                        <g id="微信">
                            <circle id="Oval" fill="#7ED321" cx="16" cy="16" r="16"></circle>
                            <path d="M17.7637198,15.9301748 C17.4370908,15.9301748 17.1102651,16.2291962 17.1102651,16.5981212 C17.1102651,16.8970844 17.4370908,17.1977942 17.7637198,17.1977942 C18.2544105,17.1977942 18.6045499,16.8970844 18.6045499,16.5981212 C18.6045892,16.2291962 18.2544105,15.9301748 17.7637198,15.9301748 M15.6163538,12.8183571 C16.130024,12.8183571 16.4567317,12.4958728 16.4567317,12.011632 C16.4567317,11.5045104 16.1300633,11.205489 15.6163538,11.205489 C15.1263315,11.205489 14.6592299,11.5045104 14.6592299,12.011632 C14.6592102,12.4958534 15.1263315,12.8183571 15.6163538,12.8183571 M13.1653185,19.5249718 C12.3015088,19.5249718 11.6712106,19.3867559 10.8541858,19.1560661 L8.49662199,20.3310953 L9.17398026,18.3499038 C7.51630226,17.1977942 6.53612013,15.744936 6.53612013,13.9706608 C6.53612013,10.8365834 9.52382487,8.43956044 13.1653185,8.43956044 C16.3868689,8.43956044 19.258044,10.3295007 19.8181059,13.002839 C19.5848893,12.956573 19.3749079,12.9338475 19.1880633,12.9338475 C16.0131994,12.9338475 13.5624591,15.2849732 13.5624591,18.1190782 C13.5624591,18.6034743 13.6324791,19.0405369 13.7490285,19.5021104 C13.5624591,19.5249718 13.3521631,19.5249718 13.1653185,19.5249718 M22.8997736,21.7839341 L23.3662658,23.4432234 L21.5922154,22.4518611 C20.9152502,22.5899024 20.2617365,22.7980413 19.5848893,22.7980413 C16.4567317,22.7980413 13.9821861,20.6771008 13.9821861,18.0494075 C13.9821861,15.4232279 16.4566924,13.3027531 19.5848893,13.3027531 C22.5493982,13.3027531 25.2107491,15.4232279 25.2107491,18.0494075 C25.2107491,19.5249718 24.2070762,20.8380421 22.8997736,21.7839341 M10.994678,11.205489 C10.5044788,11.205489 9.99084785,11.5045104 9.99084785,12.011632 C9.99084785,12.4958534 10.5044984,12.8183571 10.994678,12.8183571 C11.4613274,12.8183571 11.8350363,12.4958728 11.8350363,12.011632 C11.8350363,11.5045104 11.4611898,11.205489 10.994678,11.205489 M21.4289008,15.9301748 C21.0785844,15.9301748 20.7753871,16.2291962 20.7753871,16.5981212 C20.7753871,16.8970844 21.0785844,17.1977942 21.4289008,17.1977942 C21.8959238,17.1977942 22.2462402,16.8970844 22.2462402,16.5981212 C22.2462402,16.2291962 21.8959238,15.9301748 21.4289008,15.9301748" id="Shape" fill="#FFFFFF" fill-rule="nonzero"></path>
                        </g>
                    </g>
                </g>
            </g>
        </g>
    </g>
</svg>