<?xml version="1.0" encoding="UTF-8"?>
<svg width="40px" height="40px" viewBox="0 0 40 40" version="1.1" xmlns="http://www.w3.org/2000/svg" xmlns:xlink="http://www.w3.org/1999/xlink">
    <!-- Generator: Sketch 52.4 (67378) - http://www.bohemiancoding.com/sketch -->
    <title>微信</title>
    <desc>Created with Sketch.</desc>
    <g id="页面-1" stroke="none" stroke-width="1" fill="none" fill-rule="evenodd">
        <g id="手机快速登录+密码登录" transform="translate(-285.000000, -684.000000)">
            <g id="分组-5-copy" transform="translate(178.000000, 280.000000)">
                <g id="Group-Copy" transform="translate(94.000000, 370.000000)">
                    <g id="Group-3" transform="translate(13.000000, 34.000000)">
                        <g id="微信">
                            <circle id="Oval" fill="#7ED321" cx="20" cy="20" r="20"></circle>
                            <path d="M22.2046498,19.9127184 C21.7963634,19.9127184 21.3878314,20.2864952 21.3878314,20.7476515 C21.3878314,21.1213555 21.7963634,21.4972427 22.2046498,21.4972427 C22.8180131,21.4972427 23.2556874,21.1213555 23.2556874,20.7476515 C23.2557366,20.2864952 22.8180131,19.9127184 22.2046498,19.9127184 M19.5204422,16.0229464 C20.16253,16.0229464 20.5709146,15.619841 20.5709146,15.01454 C20.5709146,14.3806381 20.1625791,14.0068613 19.5204422,14.0068613 C18.9079144,14.0068613 18.3240373,14.3806381 18.3240373,15.01454 C18.3240128,15.6198167 18.9079144,16.0229464 19.5204422,16.0229464 M16.4566482,24.4062147 C15.376886,24.4062147 14.5890133,24.2334448 13.5677322,23.9450827 L10.6207775,25.4138691 L11.4674753,22.9373797 C9.39537782,21.4972427 8.17015016,19.68117 8.17015016,17.463326 C8.17015016,13.5457293 11.9047811,10.5494505 16.4566482,10.5494505 C20.4835862,10.5494505 24.072555,12.9118759 24.7726324,16.2535488 C24.4811116,16.1957162 24.2186348,16.1673094 23.9850791,16.1673094 C20.0164993,16.1673094 16.9530739,19.1062165 16.9530739,22.6488478 C16.9530739,23.2543428 17.0405989,23.8006711 17.1862856,24.377638 C16.9530739,24.4062147 16.6902039,24.4062147 16.4566482,24.4062147 M28.6247169,27.2299176 L29.2078322,29.3040293 L26.9902692,28.0648264 C26.1440628,28.237378 25.3271706,28.4975516 24.4811116,28.4975516 C20.5709146,28.4975516 17.4777326,25.846376 17.4777326,22.5617593 C17.4777326,19.2790349 20.5708655,16.6284414 24.4811116,16.6284414 C28.1867478,16.6284414 31.5134363,19.2790349 31.5134363,22.5617593 C31.5134363,24.4062147 30.2588453,26.0475527 28.6247169,27.2299176 M13.7433474,14.0068613 C13.1305985,14.0068613 12.4885598,14.3806381 12.4885598,15.01454 C12.4885598,15.6198167 13.130623,16.0229464 13.7433474,16.0229464 C14.3266593,16.0229464 14.7937953,15.619841 14.7937953,15.01454 C14.7937953,14.3806381 14.3264873,14.0068613 13.7433474,14.0068613 M26.786126,19.9127184 C26.3482305,19.9127184 25.9692339,20.2864952 25.9692339,20.7476515 C25.9692339,21.1213555 26.3482305,21.4972427 26.786126,21.4972427 C27.3699047,21.4972427 27.8078002,21.1213555 27.8078002,20.7476515 C27.8078002,20.2864952 27.3699047,19.9127184 26.786126,19.9127184" id="Shape" fill="#FFFFFF" fill-rule="nonzero"></path>
                        </g>
                    </g>
                </g>
            </g>
        </g>
    </g>
</svg>