<?xml version="1.0" encoding="UTF-8"?>
<svg width="170px" height="48px" viewBox="0 0 170 48" version="1.1" xmlns="http://www.w3.org/2000/svg" xmlns:xlink="http://www.w3.org/1999/xlink">
    <!-- Generator: Sketch 52.4 (67378) - http://www.bohemiancoding.com/sketch -->
    <title>分组 7 copy 2</title>
    <desc>Created with Sketch.</desc>
    <g id="页面-1" stroke="none" stroke-width="1" fill="none" fill-rule="evenodd">
        <g id="分组-7-copy-2">
            <rect id="矩形" fill="#000000" fill-rule="nonzero" x="0" y="0" width="170" height="48" rx="5.48571429"></rect>
            <path d="M49.5134833,20.3138401 C48.4763746,20.3138401 47.6278317,21.162383 47.6278317,22.1994917 L47.6278317,29.7420925 C47.6278317,30.7792012 48.4763746,31.6277441 49.5134833,31.6277441 C50.5505921,31.6277441 51.399135,30.7792012 51.399135,29.7420925 L51.399135,22.1994917 C51.399135,21.162383 50.5505921,20.3138401 49.5134833,20.3138401 Z M26.8856517,20.3138401 C25.848543,20.3138401 25,21.162383 25,22.1994917 L25,29.7420925 C25,30.7792012 25.848543,31.6277441 26.8856517,31.6277441 C27.9227604,31.6277441 28.7713033,30.7792012 28.7713033,29.7420925 L28.7713033,22.1994917 C28.7713033,21.162383 27.9227604,20.3138401 26.8856517,20.3138401 Z M29.7141321,30.6849272 L29.7141321,30.6849276 C29.7141323,32.2470522 30.980485,33.513408 32.5426125,33.5134051 C32.5426125,33.5134051 32.5426125,33.5134051 32.5426125,33.5134051 L32.5426125,37.2847202 C32.5426125,38.3218289 33.3911555,39.1703718 34.4282642,39.1703718 C35.4653729,39.1703718 36.3139158,38.3218289 36.3139158,37.2847202 L36.3139158,33.5134051 L40.0852309,33.5134051 L40.0852309,37.2847202 C40.0852309,38.3218289 40.9337739,39.1703718 41.9708826,39.1703718 C43.0079913,39.1703718 43.8565343,38.3218289 43.8565343,37.2847202 L43.8565343,33.5134051 L43.8565341,33.5134051 C45.4186587,33.5134051 46.6850146,32.2470522 46.6850146,30.6849246 L46.6850146,20.3138376 L29.7141261,20.3138376 L29.7141261,30.6849246 L29.7141321,30.6849272 Z M46.6322205,18.4281825 L46.6322208,18.4281849 C46.3496777,15.9008004 44.947725,13.6336624 42.8128199,12.2517268 L43.7565886,10.3651323 C43.9896057,9.89935735 43.8009192,9.33287633 43.3351457,9.09986071 C42.8693708,8.8668436 42.3028898,9.05553016 42.0698742,9.52130361 L41.1232769,11.415441 L40.8771992,11.317387 C40.0352533,11.037366 39.1348531,10.8855697 38.1995702,10.8855697 C37.2642872,10.8855697 36.363887,11.0373649 35.5219441,11.317384 L35.2758663,11.415438 L34.3292691,9.52130066 C34.096252,9.05552569 33.5297695,8.86683913 33.0639945,9.09985771 C32.5982196,9.33287481 32.4095331,9.8993573 32.6425516,10.3651322 L33.5863203,12.2517267 C31.4516244,13.633848 30.0497474,15.9008828 29.7669194,18.4281849 L29.7669194,19.3710107 L46.6850078,19.3710107 L46.6850078,18.4281849 L46.6322095,18.4281849 L46.6322205,18.4281825 Z M35.3711047,16.5425309 C34.8503966,16.5430516 34.4278576,16.1213561 34.4273361,15.6006479 C34.4268153,15.0799397 34.8485108,14.6574007 35.369219,14.6568792 L35.3739332,14.6568792 C35.8946414,14.6573999 36.3163377,15.0799397 36.3158161,15.6006479 C36.3152954,16.1213561 35.8927557,16.5430524 35.3720475,16.5425309 L35.3711047,16.5425309 Z M41.0280774,16.5425309 C40.5073692,16.5430516 40.0848302,16.1213561 40.0843087,15.6006479 C40.083788,15.0799397 40.5054835,14.6574007 41.0261917,14.6568792 L41.0309058,14.6568792 C41.551614,14.6573999 41.9733103,15.0799397 41.9727888,15.6006479 C41.9722681,16.1213561 41.5497283,16.5430524 41.0290201,16.5425309 L41.0280774,16.5425309 Z" id="形状" fill="#5BA806" fill-rule="nonzero"></path>
            <text id="Download-on-the" font-family="PingFangSC-Semibold, PingFang SC" font-size="10.2857143" font-weight="500" line-spacing="10.9714286" fill="#FFFFFF">
                <tspan x="63" y="19">Download on the</tspan>
            </text>
            <text id="Android-market" font-family="DINCondensed-Bold, DIN Condensed" font-size="19.2" font-style="condensed" font-weight="bold" line-spacing="10.9714286" letter-spacing="-0.738461494" fill="#FFFFFF">
                <tspan x="63" y="40">Android market</tspan>
            </text>
        </g>
    </g>
</svg>