<?xml version="1.0" encoding="UTF-8"?>
<svg width="58px" height="20px" viewBox="0 0 58 20" version="1.1" xmlns="http://www.w3.org/2000/svg" xmlns:xlink="http://www.w3.org/1999/xlink">
    <!-- Generator: Sketch 52.4 (67378) - http://www.bohemiancoding.com/sketch -->
    <title>VIP</title>
    <desc>Created with Sketch.</desc>
    <defs>
        <path d="M34.064,6.108 C33.6566646,6.108 33.3663342,6.14049967 33.193,6.2055 C33.0196658,6.27050032 32.8983337,6.36366606 32.829,6.485 L28.019,15 L26.108,15 C25.8133319,13.5526594 25.5273347,12.1356736 25.25,10.749 C24.9726653,9.3623264 24.6910014,7.94534057 24.405,6.498 C24.3529997,6.2379987 24.0150031,6.108 23.391,6.108 L23.534,5.341 L28.305,5.341 L28.162,6.108 L26.992,6.108 C26.7146653,6.108 26.576,6.18599922 26.576,6.342 C26.576,6.41133368 26.5824999,6.48716625 26.5955,6.5695 C26.6085001,6.65183374 26.6236666,6.74066619 26.641,6.836 L27.915,13.44 L31.685,6.602 C31.7283335,6.5153329 31.75,6.43733368 31.75,6.368 C31.75,6.1946658 31.5680018,6.108 31.204,6.108 L30.385,6.108 L30.528,5.341 L34.194,5.341 L34.064,6.108 Z M39.576,6.095 C38.7786627,6.095 38.349667,6.29433134 38.289,6.693 L37.054,13.752 C37.054,14.081335 37.4179964,14.246 38.146,14.246 L38.016,15 L33.622,15 L33.752,14.246 C34.142002,14.246 34.4474989,14.1961672 34.6685,14.0965 C34.8895011,13.9968328 35.0173332,13.8473343 35.052,13.648 L36.274,6.602 C36.274,6.26399831 35.9100036,6.095 35.182,6.095 L35.325,5.341 L39.719,5.341 L39.576,6.095 Z M46.128,5.341 C46.6220025,5.341 47.070498,5.37783296 47.4735,5.4515 C47.876502,5.52516703 48.2253319,5.65733238 48.52,5.848 C48.8146681,6.03866762 49.0421659,6.30083166 49.2025,6.6345 C49.3628341,6.96816833 49.443,7.39066411 49.443,7.902 C49.443,8.47400286 49.3303345,8.96583127 49.105,9.3775 C48.8796655,9.78916872 48.5763352,10.1249987 48.195,10.385 C47.8136648,10.6450013 47.3695025,10.8356661 46.8625,10.957 C46.3554975,11.0783339 45.8203362,11.139 45.257,11.139 L43.021,11.139 L42.566,13.739 C42.566,14.0770017 43.0253287,14.246 43.944,14.246 L43.814,15 L39.147,15 L39.264,14.246 C39.6020017,14.246 39.8901655,14.1961672 40.1285,14.0965 C40.3668345,13.9968328 40.5076665,13.8473343 40.551,13.648 L41.786,6.602 C41.786,6.27266502 41.4263369,6.108 40.707,6.108 L40.85,5.341 L46.128,5.341 Z M43.853,6.433 L43.216,10.06 L44.893,10.06 C45.7076707,10.06 46.3294979,9.87366853 46.7585,9.501 C47.1875021,9.12833147 47.402,8.61700325 47.402,7.967 C47.402,7.43833069 47.2698347,7.05050124 47.0055,6.8035 C46.7411653,6.55649877 46.2970031,6.433 45.673,6.433 L43.853,6.433 Z" id="path-1"></path>
        <filter x="-1.9%" y="-5.2%" width="107.7%" height="120.7%" filterUnits="objectBoundingBox" id="filter-2">
            <feOffset dx="1" dy="1" in="SourceAlpha" result="shadowOffsetOuter1"></feOffset>
            <feColorMatrix values="0 0 0 0 0.73139881   0 0 0 0 0.319986979   0 0 0 0 0  0 0 0 0.5 0" type="matrix" in="shadowOffsetOuter1"></feColorMatrix>
        </filter>
        <path d="M14.9235742,9.2872016 C14.8517132,9.2872016 14.7831056,9.27963489 14.7161426,9.26755704 L14.5691434,9.89492719 C14.5462741,10.5298529 14.1542802,12.7158095 14.1542802,12.7158095 L5.84563579,12.7158095 C5.84563579,12.7158095 5.5990084,10.5253196 5.53857605,9.85866033 L5.40954805,9.23280129 C5.30338927,9.26605703 5.19232051,9.28722382 5.07635377,9.28722382 C4.48183818,9.28722382 4,8.83975467 4,8.28647381 C4,7.73469297 4.48182618,7.28722382 5.07635377,7.28722382 C5.67251402,7.28722382 6.15270754,7.73469297 6.15270754,8.28648492 C6.15270754,8.45428586 6.10370379,8.60999783 6.0253122,8.74906527 L7.99835534,9.42933572 L9.65617544,6.94406636 C9.2315163,6.81103228 8.9228239,6.44066356 8.9228239,6.00075 C8.9228239,5.44896916 9.40465007,5 9.99917767,5 C10.5936933,5 11.0771641,5.44746915 11.0771641,6.00075 C11.0771641,6.44066356 10.7684717,6.81103228 10.3421799,6.94406636 L12,9.42933572 L13.9534392,8.71580953 C13.8864762,8.58428658 13.8456478,8.44067467 13.8456478,8.28648492 C13.8456478,7.73470408 14.3291066,7.28573492 14.9236462,7.28573492 C15.5181618,7.28573492 16,7.73320407 16,8.28648492 C16,8.83977689 15.5181738,9.28724604 14.9236462,9.28724604 L14.9235742,9.2872016 Z M14.1542802,13.857127 C13.7247231,14.7067095 13.1987911,15 12.3070117,15 L7.69127158,15 C7.01180976,15 6.22127918,14.7067317 5.84562379,13.857127 L5.84562379,13.5729254 L14.1559128,13.5729254 L14.1559128,13.857127 L14.1542802,13.857127 Z" id="path-3"></path>
        <filter x="-4.2%" y="-5.0%" width="108.3%" height="110.0%" filterUnits="objectBoundingBox" id="filter-4">
            <feOffset dx="1" dy="1" in="SourceAlpha" result="shadowOffsetInner1"></feOffset>
            <feComposite in="shadowOffsetInner1" in2="SourceAlpha" operator="arithmetic" k2="-1" k3="1" result="shadowInnerInner1"></feComposite>
            <feColorMatrix values="0 0 0 0 0.862745098   0 0 0 0 0.529411765   0 0 0 0 0.0784313725  0 0 0 1 0" type="matrix" in="shadowInnerInner1"></feColorMatrix>
        </filter>
    </defs>
    <g id="页面-1" stroke="none" stroke-width="1" fill="none" fill-rule="evenodd">
        <g id="电台主播个人信息" transform="translate(-498.000000, -197.000000)">
            <g id="VIP" transform="translate(498.000000, 197.000000)">
                <rect id="Rectangle" fill="#FFBE29" x="0" y="0" width="58" height="20" rx="10"></rect>
                <g>
                    <use fill="black" fill-opacity="1" filter="url(#filter-2)" xlink:href="#path-1"></use>
                    <use fill="#FFFFFF" fill-rule="evenodd" xlink:href="#path-1"></use>
                </g>
                <rect id="Rectangle" fill="#FFFFFF" x="2" y="2" width="16" height="16" rx="8"></rect>
                <g id="Shape" fill-rule="nonzero">
                    <use fill="#FFBE29" xlink:href="#path-3"></use>
                    <use fill="black" fill-opacity="1" filter="url(#filter-4)" xlink:href="#path-3"></use>
                </g>
            </g>
        </g>
    </g>
</svg>