<?xml version="1.0" encoding="UTF-8"?>
<svg width="50px" height="36px" viewBox="0 0 50 36" version="1.1" xmlns="http://www.w3.org/2000/svg" xmlns:xlink="http://www.w3.org/1999/xlink">
    <!-- Generator: Sketch 52.4 (67378) - http://www.bohemiancoding.com/sketch -->
    <title>分组 copy</title>
    <desc>Created with Sketch.</desc>
    <g id="页面-1" stroke="none" stroke-width="1" fill="none" fill-rule="evenodd">
        <g id="分组-copy" fill="#000000">
            <path d="M4.6328102,5.94050893 C4.59364421,4.67573222 3.45043131,3.75293251 3.43622501,3.75753134 C3.40090656,3.73424363 2.03690401,5.91213315 2.29074305,7.24364185 C2.50087797,8.55460257 3.17824247,8.84286129 3.7535978,8.46996449 C4.34375137,8.08963128 4.68470267,7.20440501 4.6328102,5.94050893 M2.93338102,9.62945729 C2.57398125,8.43229321 1.24243616,7.78278154 1.23276799,7.78914163 C1.19636433,7.77270325 0.447968315,10.1133132 1.00517115,11.3453109 C1.52192548,12.5631209 2.2403304,12.7039234 2.70716535,12.2270147 C3.18712141,11.7384622 3.30225167,10.8222182 2.93338102,9.62945729 M7.35854623,2.59617943 C7.69535403,1.31105045 6.82620443,0.149307153 6.81012368,0.151851187 C6.77263482,0.124649584 4.7476445,2.04882055 4.63912411,3.42895945 C4.48798482,4.78287523 5.08593212,5.20802259 5.75747598,4.95547821 C6.4496387,4.69471463 7.0344649,3.87964501 7.35854623,2.59617943 M8.45904155,24.8112788 C8.48982188,23.716561 7.71765003,22.2372047 7.73136306,22.2214513 C7.74014335,22.2263437 6.41501083,22.9185168 6.27334241,24.084174 C6.14005965,25.253158 6.68601582,26.1185213 7.32115602,26.2881888 C7.96922001,26.4649014 8.41277241,25.9208693 8.45904155,24.8112788 M5.34707162,23.1461101 C5.95172746,23.4529598 6.49768363,23.0173428 6.76316395,21.950218 C7.00832136,20.8949328 6.53438325,19.299138 6.55075997,19.2871028 C6.55884967,19.2924844 5.11345684,19.689256 4.7447835,20.7909209 C4.38232543,21.8990438 4.75228128,22.8508064 5.34707162,23.1461101 M2.46259988,24.9204766 C2.43181955,24.9270323 3.66885325,27.0271331 4.91940266,27.4667619 C6.13759328,27.919013 6.7088051,27.4832003 6.66973777,26.8049214 C6.6320516,26.1114763 6.042194,25.3976788 4.9261112,24.8789892 C3.81140957,24.3514934 2.4640797,24.9103004 2.46259988,24.9204766 M4.87254159,28.639562 C4.84215588,28.6518907 6.46088536,30.4713649 7.76717479,30.6414238 C9.04465699,30.8307587 9.51366235,30.2811494 9.33894454,29.623125 C9.1588007,28.9477816 8.44325677,28.3670567 7.2551559,28.0852559 C6.06804158,27.7957252 4.8716537,28.6285052 4.87254159,28.639562 M10.6775928,27.2833957 C10.4863996,26.1981691 9.44351872,24.8972867 9.45269363,24.8789892 C9.46226315,24.8818268 8.31244038,25.8403408 8.40675446,27.0223386 C8.5074811,28.2034557 9.21315955,28.9433784 9.86763611,28.9771358 C10.5348391,29.0144157 10.8561581,28.3858434 10.6775928,27.2833957 M10.5639423,2.45488765 C11.6205362,1.61486692 12.0182141,0.00400362417 12.0182141,0.00400362417 C12.0182141,0.00400362417 10.2691615,-0.0981491595 9.14104282,0.729542792 C7.71528232,1.7755325 7.74971287,2.55831245 8.14018894,2.93942844 C8.56045878,3.33375384 9.34506114,3.42259937 10.5639423,2.45488765 M11.6405632,34.2581607 C11.6145183,34.2851667 13.8528991,35.2763618 15.1522827,34.8621733 C16.4299622,34.48321 16.635855,33.7816435 16.1846075,33.2626603 C15.7249744,32.7307614 14.8073852,32.5121701 13.5977776,32.7531684 C12.3868874,32.9868283 11.6360251,34.2484738 11.6405632,34.2581607 M7.95856528,31.8061026 C7.93113922,31.8259656 9.88184241,33.273815 11.2045086,33.1580614 C12.501919,33.0696072 12.8469152,32.4302717 12.5340805,31.8229323 C12.2124656,31.2011115 11.3884013,30.7845747 10.1702107,30.7596236 C8.9521187,30.7244964 7.95619756,31.7959264 7.95856528,31.8061026 M15.8350732,35.8317441 C15.8117907,35.8666757 18.2908895,36.3112947 19.5344344,35.5947575 C20.7553874,34.9184356 20.8047148,34.1882976 20.2183101,33.8003323 C19.6196722,33.4005275 18.6318408,33.4084531 17.4652467,33.9231309 C16.2954956,34.428024 15.8294499,35.8232314 15.8350732,35.8317441 M2.18518232,13.5111652 C1.56286726,12.4292655 0.122900445,12.0763296 0.115106708,12.0844509 C0.0806761506,12.0725135 -0.101934055,14.4877811 0.703780452,15.5755517 C1.47240072,16.6529504 2.1979088,16.6437527 2.54842963,16.081521 C2.90753344,15.5081347 2.81677094,14.589836 2.18518232,13.5111652 M13.3542973,29.244553 C12.9351127,28.2233187 11.6513166,27.1630433 11.6576305,27.1424953 C11.6684825,27.1424953 10.7423104,28.3291897 11.0762572,29.4704829 C11.418787,30.6101126 12.2658379,31.184771 12.9164669,31.075671 C13.5824861,30.9691151 13.7632218,30.2861396 13.3542973,29.244553 M8.24200079,6.09168331 C9.35107909,5.77309187 10.8017993,4.51604511 10.8363285,4.52318798 C10.837315,4.53385335 9.795914,3.44001622 8.5013645,3.68052536 C7.21115582,3.9286666 6.45644589,4.75038986 6.4496387,5.43522447 C6.44194362,6.13463836 7.09888655,6.40274049 8.24200079,6.09168331 M0.812004869,20.8130345 C0.779448754,20.8130345 1.59039197,23.1077539 2.74011609,23.7936648 C3.85540965,24.4842724 4.50455884,24.1801624 4.60104333,23.5147995 C4.69999418,22.8334874 4.25792161,22.0184177 3.25489732,21.2824089 C2.25798963,20.5392572 0.81585241,20.8035433 0.812004869,20.8130345 M0.00224551105,16.4807388 C-0.0312971524,16.4740852 0.306595854,18.8741864 1.30922553,19.7755575 C2.27505692,20.6781028 2.97757841,20.5178286 3.20359677,19.8923874 C3.43484384,19.2514863 3.15890611,18.3690976 2.31856373,17.4453194 C1.48197024,16.5147897 0.00658632632,16.4705627 0.00224551105,16.4807388 M20.2496824,32.9637363 C20.8539436,32.5585498 20.7133604,31.8743023 19.8404619,31.141131 C18.9608549,30.4339871 17.2851029,30.0431843 17.286484,30.0181353 C17.2972374,30.0124601 16.9372457,31.4892724 17.7563773,32.3659859 C18.582316,33.2386877 19.6632777,33.3619756 20.2496824,32.9637363 M3.88540074,17.2790765 C3.30738172,18.2774145 3.48318474,19.279275 4.01236958,19.689256 C4.5501374,20.1116636 5.17580673,19.8033462 5.64816635,18.8222293 C6.09872325,17.850408 5.95241804,16.2001122 5.97333288,16.1896425 C5.980732,16.1987423 4.47200273,16.2834783 3.88540074,17.2790765 M3.38748949,16.0547108 C3.83025265,16.5774121 4.5098862,16.4057876 5.17708924,15.5502092 C5.81874066,14.698251 6.03025675,13.0553916 6.05344065,13.0493251 C6.05955726,13.0585227 4.55388629,12.8275048 3.76444984,13.6770167 C2.98073537,14.5320081 2.94926446,15.5441426 3.38748949,16.0547108 M6.41145926,9.06243107 C7.38577498,8.54295872 8.39718493,7.09657707 8.42688006,7.10019742 C8.43053029,7.1090037 7.15225885,6.27808278 6.00539572,6.74432609 C4.86435323,7.2183972 4.36496217,8.14012059 4.53642437,8.79002364 C4.70956371,9.45431028 5.40823766,9.57769597 6.41145926,9.06243107 M6.85224932,9.98063195 C6.85609686,9.99100378 5.4271794,9.4496136 4.45000268,10.1213366 C3.47716679,10.7984413 3.2192829,11.7846462 3.53902341,12.3749601 C3.86211818,12.9808318 4.56572487,12.9554893 5.41178923,12.2567604 C6.22914502,11.5566615 6.82531653,9.98219751 6.85224932,9.98063195 M16.4273972,30.5694081 C15.7799252,29.674397 14.2854022,28.9161768 14.289447,28.8933784 C14.2992139,28.8912257 13.6372395,30.2533607 14.214568,31.2956322 C14.7989009,32.334479 15.7732166,32.7048318 16.401155,32.4514068 C17.0439903,32.1944593 17.0709231,31.4915229 16.4273972,30.5694081" id="Fill-1"></path>
            <path d="M45.3979253,8.46988365 C45.9641848,8.84287905 46.6301612,8.5545219 46.8382363,7.2436564 C47.0871886,5.91204718 45.7446525,3.73425113 45.7108633,3.75753888 C45.6973671,3.75284219 44.5725185,4.67574161 44.5328066,5.94042301 C44.4824141,7.20432162 44.8178782,8.08954968 45.3979253,8.46988365 M46.428106,12.2269414 C46.8882404,12.7038511 47.5952881,12.5630482 48.1029992,11.3453337 C48.6506164,10.1133335 47.9135663,7.77262101 47.8788062,7.78905942 C47.869388,7.78279717 46.5598642,8.43221229 46.2065346,9.62947663 C45.8433983,10.8221421 45.956223,11.7383879 46.428106,12.2269414 M43.4262119,4.95539031 C44.0870422,5.2079352 44.6752453,4.78278698 44.5269809,3.42886849 C44.4202732,2.04872682 42.4265192,0.124649834 42.3917591,0.151753645 C42.3751558,0.149307452 41.518193,1.31105308 41.8499675,2.59618465 C42.1687313,3.87955495 42.7451858,4.69462621 43.4262119,4.95539031 M41.8884173,26.2882416 C42.5125456,26.1184759 43.0504533,25.2531109 42.9169473,24.0841245 C42.7803343,22.918465 41.474306,22.2263883 41.4833358,22.2213981 C41.4965408,22.2371515 40.7364791,23.7165108 40.7670641,24.8113286 C40.8129902,25.9209214 41.2495305,26.4648567 41.8884173,26.2882416 M44.4229918,20.7909627 C44.0595643,19.6891977 42.6370217,19.2924253 42.6464399,19.2871415 C42.6620723,19.2991768 42.1958208,20.8948769 42.4356461,21.9502621 C42.6972207,23.017389 43.2352256,23.4529091 43.8306137,23.1460587 C44.4167777,22.8508522 44.779914,21.8989899 44.4229918,20.7909627 M44.2442395,24.8789413 C43.1461892,25.3976319 42.5664334,26.1115287 42.5281779,26.8049753 C42.4894369,27.4831576 43.0524923,27.9190691 44.2514245,27.4667192 C45.4821069,27.0270895 46.7000698,24.9269845 46.6705528,24.9204287 C46.6683196,24.9103504 45.3400565,24.3515423 44.2442395,24.8789413 M41.9531798,28.0853123 C40.783279,28.3671136 40.0796297,28.9477418 39.9008773,29.6231844 C39.7283391,30.2811123 40.1905125,30.8307228 41.4482845,30.6414854 C42.7336315,30.4713282 44.3272559,28.6519483 44.297739,28.6396195 C44.2989041,28.6285627 43.1203619,27.795781 41.9531798,28.0853123 M39.3820974,28.9770961 C40.024868,28.9433387 40.7189049,28.2035123 40.8197869,27.022295 C40.9097942,25.8402949 39.7805763,24.8817789 39.7887323,24.8789413 C39.7981506,24.8973367 38.7716595,26.1982217 38.5839744,27.2833526 C38.4088145,28.3858026 38.7236945,29.014474 39.3820974,28.9770961 M41.080876,2.93943434 C41.4648877,2.55821974 41.4999391,1.77543822 40.0947766,0.729544256 C38.9875023,-0.0981493565 37.2639644,0.00400363221 37.2639644,0.00400363221 C37.2639644,0.00400363221 37.6553553,1.61477231 38.696702,2.45479473 C39.8949545,3.42250839 40.6666676,3.33376054 41.080876,2.93943434 M35.710149,32.7532342 C34.5194698,32.5121375 33.6162898,32.7307292 33.1638259,33.2627271 C32.7202947,33.7817113 32.9224471,34.4831814 34.1800248,34.8622433 C35.4586723,35.2763348 37.6622491,34.2851377 37.6370043,34.2582295 C37.639723,34.2484448 36.9009252,32.9867966 35.710149,32.7532342 M39.0837237,30.7596854 C37.8849856,30.7846365 37.0724925,31.2010763 36.7573213,31.8228984 C36.44817,32.430239 36.789654,33.0695758 38.0663596,33.1580301 C39.3662709,33.2737839 41.2864267,31.8259316 41.2606964,31.8060686 C41.2627354,31.7959903 40.2835298,30.7244602 39.0837237,30.7596854 M31.9037236,33.923199 C30.7556693,33.4084223 29.782969,33.4004967 29.1935037,33.8003023 C28.6158841,34.1883663 28.6648201,34.9185058 29.8679274,35.594829 C31.0919102,36.3112698 33.5313314,35.8666499 33.5076402,35.8318161 C33.5138543,35.8233033 33.0552734,34.4279953 31.9037236,33.923199 M46.5853032,16.0814555 C46.9293117,16.6436883 47.6443212,16.6529838 48.3987513,15.5754851 C49.192505,14.4877123 49.0122962,12.0724399 48.9806432,12.0843773 C48.9709337,12.076256 47.5552848,12.4292904 46.9424196,13.5110945 C46.3213012,14.5897674 46.2319736,15.5081659 46.5853032,16.0814555 M36.3802033,31.0756356 C37.0217117,31.1848336 37.8549832,30.6100762 38.1910299,29.4704442 C38.5200857,28.3292466 37.6097206,27.1424519 37.6191388,27.1424519 C37.62545,27.163 36.3629204,28.2233754 35.9504597,29.2445139 C35.5469319,30.2862004 35.7256842,30.9690794 36.3802033,31.0756356 M42.7451858,5.43513753 C42.7385833,4.75030155 41.9963872,3.92867449 40.7250219,3.68053275 C39.4522002,3.44002313 38.4260975,4.53376461 38.4260975,4.52309921 C38.4615373,4.51605418 39.8914591,5.77300561 40.9805766,6.09159769 C42.1082409,6.4026555 42.7530505,6.13465067 42.7451858,5.43513753 M45.8896157,21.2823538 C44.9007976,22.0184619 44.4678498,22.8335332 44.5627119,23.5148467 C44.6580594,24.180211 45.2990823,24.4842237 46.3964529,23.7936147 C47.5278069,23.1078003 48.326027,20.8129784 48.2930146,20.8129784 C48.2891308,20.803585 46.8707633,20.5392984 45.8896157,21.2823538 M46.811438,17.4453544 C45.9833126,18.3690366 45.7108633,19.251525 45.9404936,19.8923295 C46.1617737,20.5178698 46.8551309,20.6781443 47.8054022,19.7754993 C48.7911132,18.8741264 49.1235674,16.4741183 49.0884189,16.4806741 C49.0857002,16.4705958 47.6331552,16.5148229 46.811438,17.4453544 M31.6174868,32.3660509 C32.4235716,31.4893356 32.0689798,30.0124226 32.0796602,30.0181956 C32.0796602,30.0432446 30.4320508,30.4340483 29.5657669,31.1410957 C28.7064739,31.8742684 28.5682103,32.5586152 29.1618507,32.9637046 C29.7406355,33.3619447 30.8036344,33.2387545 31.6174868,32.3660509 M43.2126995,16.189675 C43.2334778,16.2000469 43.089874,17.850346 43.5347644,18.8222671 C43.9990739,19.8032881 44.6146579,20.111704 45.1432444,19.6891977 C45.664646,19.2793137 45.8370871,18.2773534 45.2684973,17.2790134 C44.6925283,16.2834131 43.2063883,16.198677 43.2126995,16.189675 M45.3885071,13.6770442 C44.6093176,12.8274327 43.1304598,13.0585489 43.134732,13.0493513 C43.1594913,13.05532 43.3657216,14.6981827 43.9970349,15.5501425 C44.6539814,16.4057227 45.3227736,16.5773476 45.7592168,16.0547431 C46.190611,15.5441738 46.1585695,14.5319395 45.3885071,13.6770442 M44.6266977,8.78994345 C44.7954492,8.14013693 44.3057008,7.21831384 43.1809493,6.74424178 C42.0539647,6.27809539 40.7956101,7.10901797 40.7987172,7.10011383 C40.8293022,7.09659132 41.8246257,8.54287803 42.7826646,9.06244926 C43.7701233,9.57761735 44.457849,9.45432926 44.6266977,8.78994345 M43.7673076,12.2566871 C44.5982488,12.9555153 45.2927711,12.9808579 45.6114378,12.3748871 C45.9230165,11.784572 45.6720252,10.798463 44.7123357,10.1212591 C43.7506072,9.44963258 42.3455417,9.99102385 42.3497168,9.98055414 C42.3751558,9.98211971 42.9633588,11.5566847 43.7673076,12.2566871 M32.9523524,32.4514719 C33.5692957,32.7048975 34.5274317,32.3345439 35.1034978,31.2955972 C35.6711167,30.2533236 35.0181511,28.8911859 35.0280548,28.8934364 C35.0329096,28.916137 33.5619164,29.6743588 32.9233209,30.5693716 C32.291425,31.4914882 32.3182233,32.1945239 32.9523524,32.4514719" id="Fill-3"></path>
            <text id="精品-推荐" font-family="PingFangSC-Semibold, PingFang SC" font-size="10.08" font-weight="500" line-spacing="11.52">
                <tspan x="13.98" y="14.5345455">精品</tspan>
                <tspan x="13.98" y="26.0545455">推荐</tspan>
            </text>
        </g>
    </g>
</svg>