<?xml version="1.0" encoding="UTF-8"?>
<svg width="14px" height="14px" viewBox="0 0 14 14" version="1.1" xmlns="http://www.w3.org/2000/svg" xmlns:xlink="http://www.w3.org/1999/xlink">
    <!-- Generator: Sketch 52.4 (67378) - http://www.bohemiancoding.com/sketch -->
    <title>课程</title>
    <desc>Created with Sketch.</desc>
    <g id="页面-1" stroke="none" stroke-width="1" fill="none" fill-rule="evenodd">
        <g id="语种信息-信息" transform="translate(-543.000000, -309.000000)" stroke="#333333">
            <g id="分组-5" transform="translate(512.000000, 257.000000)">
                <g id="列表">
                    <g id="课程" transform="translate(31.000000, 52.000000)">
                        <path d="M4.55639648,6.5 L9.5,6.5" id="路径" stroke-linecap="round"></path>
                        <path d="M4.54064941,8.5 L7.5,8.5" id="路径-copy-2" stroke-linecap="round"></path>
                        <path d="M2,3.5 C1.72385763,3.5 1.5,3.72385763 1.5,4 L1.5,13 C1.5,13.2761424 1.72385763,13.5 2,13.5 L12,13.5 C12.2761424,13.5 12.5,13.2761424 12.5,13 L12.5,4 C12.5,3.72385763 12.2761424,3.5 12,3.5 L2,3.5 Z" id="矩形"></path>
                        <path d="M1.5,3.5 L10.5,3.5 L10.5,0.945454545 C10.5,0.699436793 10.3005632,0.5 10.0545455,0.5 L1.94545455,0.5 C1.69943679,0.5 1.5,0.699436793 1.5,0.945454545 L1.5,3.5 Z" id="形状"></path>
                    </g>
                </g>
            </g>
        </g>
    </g>
</svg>