<?xml version="1.0" encoding="UTF-8"?>
<svg width="374px" height="43px" viewBox="0 0 374 43" version="1.1" xmlns="http://www.w3.org/2000/svg" xmlns:xlink="http://www.w3.org/1999/xlink">
    <!-- Generator: Sketch 52.4 (67378) - http://www.bohemiancoding.com/sketch -->
    <title>分组 8</title>
    <desc>Created with Sketch.</desc>
    <g id="页面-1" stroke="none" stroke-width="1" fill="none" fill-rule="evenodd">
        <g id="分组-8" transform="translate(0.000000, -10.000000)">
            <text id="4.9" font-family="Impact" font-size="52" font-style="condensed" font-weight="700" fill="#2A9FE4">
                <tspan x="0" y="52">4.9</tspan>
            </text>
            <polygon id="星形" fill="#F5A623" fill-rule="nonzero" points="81 19 77.4732885 20.854102 78.1468305 16.927051 75.2936609 14.145898 79.2366442 13.572949 81 10 82.7633558 13.572949 86.7063391 14.145898 83.8531695 16.927051 84.5267115 20.854102"></polygon>
            <polygon id="星形-copy-5" fill="#F5A623" fill-rule="nonzero" points="95 34 91.4732885 35.854102 92.1468305 31.927051 89.2936609 29.145898 93.2366442 28.572949 95 25 96.7633558 28.572949 100.706339 29.145898 97.8531695 31.927051 98.5267115 35.854102"></polygon>
            <polygon id="星形-copy-9" fill="#F5A623" fill-rule="nonzero" points="109 49 105.473288 50.854102 106.14683 46.927051 103.293661 44.145898 107.236644 43.572949 109 40 110.763356 43.572949 114.706339 44.145898 111.85317 46.927051 112.526712 50.854102"></polygon>
            <polygon id="星形-copy" fill="#F5A623" fill-rule="nonzero" points="95 19 91.4732885 20.854102 92.1468305 16.927051 89.2936609 14.145898 93.2366442 13.572949 95 10 96.7633558 13.572949 100.706339 14.145898 97.8531695 16.927051 98.5267115 20.854102"></polygon>
            <polygon id="星形-copy-6" fill="#F5A623" fill-rule="nonzero" points="109 34 105.473288 35.854102 106.14683 31.927051 103.293661 29.145898 107.236644 28.572949 109 25 110.763356 28.572949 114.706339 29.145898 111.85317 31.927051 112.526712 35.854102"></polygon>
            <polygon id="星形-copy-10" fill="#F5A623" fill-rule="nonzero" points="123 49 119.473288 50.854102 120.14683 46.927051 117.293661 44.145898 121.236644 43.572949 123 40 124.763356 43.572949 128.706339 44.145898 125.85317 46.927051 126.526712 50.854102"></polygon>
            <polygon id="星形-copy-2" fill="#F5A623" fill-rule="nonzero" points="109 19 105.473288 20.854102 106.14683 16.927051 103.293661 14.145898 107.236644 13.572949 109 10 110.763356 13.572949 114.706339 14.145898 111.85317 16.927051 112.526712 20.854102"></polygon>
            <polygon id="星形-copy-7" fill="#F5A623" fill-rule="nonzero" points="123 34 119.473288 35.854102 120.14683 31.927051 117.293661 29.145898 121.236644 28.572949 123 25 124.763356 28.572949 128.706339 29.145898 125.85317 31.927051 126.526712 35.854102"></polygon>
            <polygon id="星形-copy-11" fill="#F5A623" fill-rule="nonzero" points="137 49 133.473288 50.854102 134.14683 46.927051 131.293661 44.145898 135.236644 43.572949 137 40 138.763356 43.572949 142.706339 44.145898 139.85317 46.927051 140.526712 50.854102"></polygon>
            <polygon id="星形-copy-3" fill="#F5A623" fill-rule="nonzero" points="123 19 119.473288 20.854102 120.14683 16.927051 117.293661 14.145898 121.236644 13.572949 123 10 124.763356 13.572949 128.706339 14.145898 125.85317 16.927051 126.526712 20.854102"></polygon>
            <polygon id="星形-copy-8" fill="#F5A623" fill-rule="nonzero" points="137 34 133.473288 35.854102 134.14683 31.927051 131.293661 29.145898 135.236644 28.572949 137 25 138.763356 28.572949 142.706339 29.145898 139.85317 31.927051 140.526712 35.854102"></polygon>
            <polygon id="星形-copy-4" fill="#F5A623" fill-rule="nonzero" points="137 19 133.473288 20.854102 134.14683 16.927051 131.293661 14.145898 135.236644 13.572949 137 10 138.763356 13.572949 142.706339 14.145898 139.85317 16.927051 140.526712 20.854102"></polygon>
            <rect id="矩形" fill="#EEF2F3" fill-rule="nonzero" x="156" y="14" width="218" height="4" rx="2"></rect>
            <rect id="矩形-copy-5" fill="#EEF2F3" fill-rule="nonzero" x="156" y="28" width="218" height="4" rx="2"></rect>
            <rect id="矩形-copy-7" fill="#EEF2F3" fill-rule="nonzero" x="156" y="42" width="218" height="4" rx="2"></rect>
            <rect id="矩形" fill="#2A9FE4" fill-rule="nonzero" x="156" y="14" width="213" height="4" rx="2"></rect>
            <rect id="矩形-copy-2" fill="#2A9FE4" fill-rule="nonzero" x="156" y="28" width="12" height="4" rx="2"></rect>
            <rect id="矩形-copy-8" fill="#2A9FE4" fill-rule="nonzero" x="156" y="42" width="4" height="4" rx="2"></rect>
        </g>
    </g>
</svg>