<?xml version="1.0" encoding="UTF-8"?>
<svg width="170px" height="48px" viewBox="0 0 170 48" version="1.1" xmlns="http://www.w3.org/2000/svg" xmlns:xlink="http://www.w3.org/1999/xlink">
    <!-- Generator: Sketch 52.4 (67378) - http://www.bohemiancoding.com/sketch -->
    <title>分组 7</title>
    <desc>Created with Sketch.</desc>
    <defs>
        <linearGradient x1="49.9993026%" y1="-1.69687252%" x2="49.9993026%" y2="101.27789%" id="linearGradient-1">
            <stop stop-color="#62FFD4" offset="0%"></stop>
            <stop stop-color="#1F7CAF" offset="100%"></stop>
        </linearGradient>
        <linearGradient x1="-2.6672669%" y1="48.0185583%" x2="100.00199%" y2="48.0185583%" id="linearGradient-2">
            <stop stop-color="#4BC3AE" offset="0%"></stop>
            <stop stop-color="#DDE899" offset="100%"></stop>
        </linearGradient>
        <linearGradient x1="49.0024038%" y1="0.00143709687%" x2="49.0024038%" y2="103.087031%" id="linearGradient-3">
            <stop stop-color="#9934C1" offset="0%"></stop>
            <stop stop-color="#EB3F3D" offset="100%"></stop>
        </linearGradient>
        <linearGradient x1="52.9327939%" y1="0.00194622112%" x2="52.9327939%" y2="99.997375%" id="linearGradient-4">
            <stop stop-color="#FFC674" offset="0%"></stop>
            <stop stop-color="#FF8777" offset="100%"></stop>
        </linearGradient>
    </defs>
    <g id="页面-1" stroke="none" stroke-width="1" fill="none" fill-rule="evenodd">
        <g id="分组-7">
            <rect id="矩形" fill="#000000" fill-rule="nonzero" x="0" y="0" width="170" height="48" rx="5.48571429"></rect>
            <text id="GET-IT-ON" font-family="PingFangSC-Semibold, PingFang SC" font-size="10.2857143" font-weight="500" line-spacing="10.9714286" fill="#FFFFFF">
                <tspan x="57" y="18">GET IT ON</tspan>
            </text>
            <g id="分组-6" transform="translate(19.000000, 7.000000)">
                <path d="M0,0.920204082 L0,16.8869388 L0,33.177551 C0,33.5638776 0.170400686,33.8265306 0.436079176,33.9159184 L17.5683719,16.8869388 L0.578995881,0 C0.236972998,0.096122449 0,0.405918367 0,0.920204082" id="Fill-1" fill="url(#linearGradient-1)"></path>
                <path d="M0.578995881,0.0903061224 L17.5683719,16.9772449 L22.2864554,12.2868367 L15.1955881,8.18295918 C15.1955881,8.18295918 15.1455062,8.15418367 15.0520606,8.10030612 L15.0471746,8.0972449 C15.001368,8.07091837 14.9451785,8.03846939 14.8798277,8.0005102 L14.8694449,7.99438776 C14.854176,7.98581633 14.8389071,7.97663265 14.8230275,7.96744898 L14.8211952,7.96622449 C14.8053156,7.95704082 14.7888252,7.94785714 14.7723348,7.93806122 L14.7552336,7.92826531 C14.7485153,7.92459184 14.7424078,7.92091837 14.7363002,7.9172449 L4.32475721,1.89091837 C4.31987117,1.88785714 4.31559588,1.88540816 4.31070984,1.88295918 L4.18367277,1.8094898 C2.7575595,0.983571429 1.71561121,0.381122449 1.51589428,0.265408163 C1.27647826,0.126428571 1.03706224,0.0584693878 0.82207643,0.0584693878 C0.737181465,0.0584693878 0.655340275,0.068877551 0.578995881,0.0903061224" id="Fill-3" fill="url(#linearGradient-2)"></path>
                <path d="M0.436079176,34.0062245 C0.644346682,34.0760204 0.910635927,34.0392857 1.20074462,33.8715306 C1.75347803,33.5519388 11.204914,28.0815306 14.2544144,26.3164286 L14.2556359,26.3158163 C14.267851,26.3084694 14.2800661,26.3011224 14.2922812,26.2943878 L14.2989995,26.290102 C14.3655719,26.2521429 14.4284796,26.2154082 14.4883336,26.1805102 L14.5078778,26.1694898 C14.5121531,26.1670408 14.5158176,26.1645918 14.5200929,26.1621429 L14.5433016,26.1486735 C14.5640673,26.1370408 14.5842222,26.1254082 14.6037664,26.1137755 C14.61476,26.1076531 14.6251428,26.1015306 14.6361364,26.0954082 L14.6678957,26.0770408 C14.6758355,26.0721429 14.6837753,26.0678571 14.6911043,26.0635714 L14.7454616,26.0323469 C14.7698918,26.0176531 14.7937112,26.0041837 14.8163092,25.9913265 L14.8596728,25.9662245 C14.8712771,25.9594898 14.8828815,25.9527551 14.8938751,25.9460204 L14.9280773,25.9264286 C14.9341849,25.9227551 14.9402924,25.9190816 14.9457892,25.9160204 L14.9586151,25.9086735 C14.9659442,25.9043878 14.9726625,25.9007143 14.9793808,25.8970408 L14.9909851,25.8903061 C14.9964819,25.8866327 15.0019787,25.8835714 15.0074755,25.8805102 L15.0441208,25.8590816 C15.0453423,25.8584694 15.0465638,25.8578571 15.0477854,25.8566327 L15.061222,25.8492857 C15.0624435,25.8486735 15.063665,25.8480612 15.0648865,25.8468367 L15.1925343,25.7733673 C15.1931451,25.7727551 15.1931451,25.7727551 15.1931451,25.7727551 L15.1955881,25.7715306 L22.2864554,21.6676531 L17.5683719,16.9772449 L0.436079176,34.0062245 Z" id="Fill-5" fill="url(#linearGradient-3)"></path>
                <path d="M17.5683719,16.9772449 L22.2864554,21.6676531 C22.2864554,21.6676531 22.2870661,21.6676531 22.2870661,21.6676531 L22.2992812,21.6603061 C22.299892,21.6596939 22.3005027,21.6596939 22.3011135,21.6596939 L22.3035565,21.6578571 C22.3035565,21.6578571 22.3041673,21.6578571 22.3041673,21.6572449 L22.3127178,21.6523469 C22.3169931,21.649898 22.3218792,21.647449 22.3267652,21.6443878 L22.3304297,21.642551 C22.8733911,21.3284694 28.3433142,18.1619388 29.1030936,17.7223469 C29.8714236,17.2778571 29.8311137,16.6741837 29.2282984,16.3043878 L29.1586723,16.2639796 C29.1562293,16.2627551 29.1537863,16.2615306 29.1513432,16.2596939 C28.4764588,15.8947959 22.2864554,12.2868367 22.2864554,12.2868367 L17.5683719,16.9772449 Z" id="Fill-7" fill="url(#linearGradient-4)"></path>
            </g>
            <g id="分组" transform="translate(57.000000, 20.000000)" fill="#FFFFFF">
                <path d="M68.052846,6.3235436 C67.1129661,6.3235436 66.4337019,6.58458256 66.0133899,7.10721707 C65.5941868,7.62929499 65.3790403,8.46083488 65.3668413,9.60128015 L65.3668413,9.91241187 C65.3668413,11.2098145 65.5825423,12.1382004 66.0133899,12.697013 C66.444792,13.2558256 67.1357007,13.5352319 68.0866706,13.5352319 C68.8812711,13.5352319 69.5039761,13.2124119 69.9547857,12.5667718 C70.4050409,11.9211317 70.6301684,11.0305937 70.6301684,9.89571429 C70.6301684,8.74469388 70.4050409,7.86083488 69.9547857,7.24636364 C69.5039761,6.63077922 68.8707355,6.3235436 68.052846,6.3235436 M68.25413,14.7062894 C67.6552685,14.7062894 67.1085301,14.5949722 66.6133604,14.3734508 C66.1187452,14.1513729 65.7028691,13.8101855 65.3668413,13.3498887 L65.2664765,13.3498887 C65.3335712,13.8892208 65.3668413,14.4007236 65.3668413,14.8832839 L65.3668413,18.6825417 L63.9744883,18.6825417 L63.9744883,5.30387755 L65.1073346,5.30387755 L65.2997466,6.56788497 L65.3668413,6.56788497 C65.7256037,6.06250464 66.1425887,5.69738404 66.6177964,5.47252319 C67.0935586,5.24821892 67.639188,5.1357885 68.25413,5.1357885 C69.4745875,5.1357885 70.4161309,5.55434137 71.07876,6.39089054 C71.7413892,7.22799629 72.07409,8.40183673 72.07409,9.91241187 C72.07409,11.4291095 71.7363987,12.606846 71.0626795,13.4472913 C70.3878513,14.2866234 69.451853,14.7062894 68.25413,14.7062894" id="Fill-9"></path>
                <polygon id="Fill-11" points="73.9061626 14.5374768 75.2990701 14.5374768 75.2990701 1.42875696 73.9061626 1.42875696"></polygon>
                <path d="M80.1619918,13.5520965 C81.0292319,13.5520965 81.7107141,13.313321 82.2058839,12.8363265 C82.7004991,12.3587755 82.9483612,11.6903154 82.9483612,10.8303896 L82.9483612,9.99662338 L81.5548993,10.0556215 C80.4470055,10.0951391 79.6485235,10.2676809 79.1588988,10.5738033 C78.6698286,10.8799258 78.4247389,11.3563636 78.4247389,12.0020037 C78.4247389,12.507384 78.5766723,12.8919852 78.8816481,13.1558071 C79.1871783,13.4201855 79.6130354,13.5520965 80.1619918,13.5520965 Z M83.3093416,14.5378108 L83.0320909,13.223154 L82.9649963,13.223154 C82.5069781,13.8020037 82.0484055,14.1938404 81.5926054,14.3986642 C81.1368052,14.6040445 80.5667778,14.7058998 79.8847411,14.7058998 C78.9725863,14.7058998 78.257834,14.4699072 77.7404842,13.9984787 C77.2225799,13.5264935 76.9636278,12.8558071 76.9636278,11.9853061 C76.9636278,10.1207421 78.4496915,9.14337662 81.4207099,9.05320965 L82.9821858,9.0025603 L82.9821858,8.42983302 C82.9821858,7.7051577 82.8274799,7.17027829 82.5164047,6.82519481 C82.2058839,6.47899814 81.7084961,6.3064564 81.0264594,6.3064564 C80.259584,6.3064564 79.3917894,6.54244898 78.4247389,7.01443414 L77.9961094,5.94467532 C78.4496915,5.69755102 78.9459702,5.503859 79.4860546,5.36304267 C80.0266934,5.22278293 80.5667778,5.15265306 81.1107436,5.15265306 C82.2069929,5.15265306 83.0198919,5.39699443 83.5483317,5.88567718 C84.0773261,6.37435993 84.3412687,7.15747681 84.3412687,8.236141 L84.3412687,14.5378108 L83.3093416,14.5378108 Z" id="Fill-13"></path>
                <path d="M85.1503417,5.30410019 L86.6436139,5.30410019 L88.6581175,10.5694063 C89.1000551,11.7721892 89.3750877,12.6393506 89.481552,13.1731169 L89.5486467,13.1731169 C89.6212864,12.886475 89.7737742,12.396679 90.0055558,11.702616 C90.2384464,11.0091095 90.9975588,8.87627087 92.284002,5.30410019 L93.7789377,5.30410019 L89.8258974,15.8180148 C89.4338649,16.8571614 88.9764012,17.5946382 88.4523974,18.0304453 C87.9295026,18.4651391 87.28739,18.6827644 86.5266141,18.6827644 C86.1013116,18.6827644 85.6821085,18.634898 85.2673415,18.5397217 L85.2673415,17.4193135 C85.5750898,17.4866605 85.9194351,17.5206122 86.3003776,17.5206122 C87.2568925,17.5206122 87.9389292,16.9812801 88.3487057,15.902616 L88.8594015,14.5885158 L85.1503417,5.30410019 Z" id="Fill-14"></path>
                <path d="M41.6371763,11.067551 C42.0791139,10.6228386 42.11682,10.0055844 42.11682,9.657718 C42.11682,8.26736549 41.2906129,6.10447124 39.6942034,6.10447124 C39.1929342,6.10447124 38.6545134,6.35493506 38.3467651,6.74176252 C38.0201638,7.14751391 37.9236805,7.66847866 37.9236805,8.17107607 C37.9236805,9.46458256 38.6739209,11.6085529 40.3291075,11.6085529 C40.8098602,11.6085529 41.328319,11.377013 41.6371763,11.067551 Z M41.0793479,14.7376809 C40.925751,14.7176438 40.8281588,14.7176438 40.6374103,14.7176438 C40.4644059,14.7176438 39.4236068,14.7566048 38.6168073,15.0276623 C38.1931682,15.1812801 36.9616206,15.6449165 36.9616206,17.0163451 C36.9616206,18.3866605 38.2896514,19.3734879 40.3485151,19.3734879 C42.1950047,19.3734879 43.1770266,18.4829499 43.1770266,17.286846 C43.1770266,16.3000186 42.5415681,15.7807236 41.0793479,14.7376809 Z M42.4450848,6.16235622 C42.8881314,6.52914657 43.8108217,7.30113173 43.8108217,8.76996289 C43.8108217,10.1981633 43.0029132,10.8749722 42.1950047,11.5117069 C41.9449246,11.7621707 41.6554748,12.0337848 41.6554748,12.4590167 C41.6554748,12.8831354 41.9449246,13.1152319 42.1567441,13.2888868 L42.8504253,13.8287755 C43.6960399,14.5434323 44.4651334,15.2007607 44.4651334,16.5337848 C44.4651334,18.3488126 42.7134635,20.183321 39.4053082,20.183321 C36.6150573,20.183321 35.2692824,18.8508534 35.2692824,17.4209833 C35.2692824,16.7258071 35.6136278,15.7412059 36.7503556,15.0649536 C37.9419791,14.3308163 39.5600141,14.2350835 40.4250363,14.1760853 C40.1544396,13.8287755 39.8478003,13.4619852 39.8478003,12.8642115 C39.8478003,12.5363822 39.9442836,12.3426902 40.0396578,12.1100371 C39.8272838,12.1295176 39.6160188,12.1484416 39.4236068,12.1484416 C37.3852597,12.1484416 36.2307878,10.6228386 36.2307878,9.11727273 C36.2307878,8.22840445 36.6350193,7.24324675 37.4612264,6.52914657 C38.5580301,5.62135436 39.8666534,5.46662338 40.9063435,5.46662338 L44.8688104,5.46662338 L43.6372628,6.16235622 L42.4450848,6.16235622 Z" id="Fill-15"></path>
                <path d="M32.7337139,12.8666605 C33.1950591,12.2494063 33.3109499,11.4785343 33.3109499,10.7254731 C33.3109499,9.02844156 32.5041503,5.78966605 30.1220124,5.78966605 C29.4876628,5.78966605 28.8538677,6.04068646 28.3930771,6.44643785 C27.6439457,7.12046382 27.5086474,7.96925788 27.5086474,8.79912801 C27.5086474,10.7065492 28.4501907,13.8490353 30.775215,13.8490353 C31.5237919,13.8490353 32.2928853,13.4828015 32.7337139,12.8666605 M30.3327229,14.4284416 C27.2790838,14.4284416 25.6460772,12.0373469 25.6460772,9.87723562 C25.6460772,7.35089054 27.7010593,5.19244898 30.6216181,5.19244898 C33.4440302,5.19244898 35.2117806,7.4093321 35.2117806,9.74309833 C35.2117806,12.0173098 33.4645467,14.4284416 30.3327229,14.4284416" id="Fill-16"></path>
                <path d="M22.3222296,12.8666605 C22.7835747,12.2494063 22.898911,11.4785343 22.898911,10.7254731 C22.898911,9.02844156 22.091557,5.78966605 19.709419,5.78966605 C19.0761784,5.78966605 18.4418289,6.04068646 17.9810382,6.44643785 C17.2319068,7.12046382 17.0977175,7.96925788 17.0977175,8.79912801 C17.0977175,10.7065492 18.0381519,13.8490353 20.3637307,13.8490353 C21.112862,13.8490353 21.8808465,13.4828015 22.3222296,12.8666605 M19.9206841,14.4284416 C16.8664904,14.4284416 15.2334839,12.0373469 15.2334839,9.87723562 C15.2334839,7.35089054 17.289575,5.19244898 20.2095793,5.19244898 C23.0331003,5.19244898 24.8002962,7.4093321 24.8002962,9.74309833 C24.8002962,12.0173098 23.0525079,14.4284416 19.9206841,14.4284416" id="Fill-17"></path>
                <path d="M13.7661623,14.1260482 L11.0041909,14.7655659 C9.88354359,14.9408905 8.87934158,15.0945083 7.81802593,15.0945083 C2.48704961,15.0945083 0.459792548,11.1594434 0.459792548,8.07706865 C0.459792548,4.31621521 3.33710024,0.828089054 8.26273604,0.828089054 C9.30575314,0.828089054 10.3094007,0.982820037 11.2165649,1.23495362 C12.665477,1.64181818 13.3408597,2.14552876 13.7661623,2.43662338 L12.1625443,3.96834879 L11.4871616,4.12252319 L11.9701323,3.34664193 C11.3136027,2.70768089 10.1153252,1.52549165 7.83743348,1.52549165 C4.78545785,1.52549165 2.48704961,3.85257885 2.48704961,7.24497217 C2.48704961,10.8883859 5.11372267,14.3197403 9.32349719,14.3197403 C10.5605898,14.3197403 11.1966029,14.0681633 11.7766113,13.8349536 L11.7766113,10.7141744 L8.86048853,10.8689054 L10.4047749,10.0345826 L14.4997676,10.0345826 L13.9979439,10.5193692 C13.8615365,10.6356957 13.843238,10.6752134 13.8044229,10.8288312 C13.7844608,11.0041558 13.7661623,11.566308 13.7661623,11.76 L13.7661623,14.1260482 Z" id="Fill-18"></path>
                <path d="M48.5500342,13.5678479 C47.9123576,13.5099629 47.7787227,13.3941929 47.7787227,12.636679 L47.7787227,12.4235065 L47.7787227,1.66525046 C47.7820498,1.62350649 47.7853768,1.58064935 47.7887038,1.54001855 C47.8668885,0.862096475 48.0593004,0.745769944 48.6592709,0.396233766 L45.896745,0.396233766 L44.4478329,1.09419295 L45.9239156,1.09419295 L45.9239156,1.10309833 L45.9228066,1.09586271 L45.9228066,12.4235065 L45.9228066,13.0641373 C45.9228066,13.4509647 45.8468399,13.5099629 45.4015753,14.0904824 L48.8206308,14.0904824 L49.5353831,13.6652505 C49.2076728,13.6257328 48.878299,13.6062523 48.5500342,13.5678479" id="Fill-19"></path>
                <path d="M54.6061874,8.00849722 C54.9699403,7.87380334 55.1617978,7.75858998 55.1617978,7.48920223 C55.1617978,6.71944341 54.2984391,5.83335807 53.262076,5.83335807 C52.4940916,5.83335807 51.0573785,6.43057514 51.0573785,8.50942486 C51.0573785,8.83669759 51.0950846,9.18289425 51.1156012,9.53020408 L54.6061874,8.00849722 Z M56.4083169,13.7463451 C56.1981609,13.862115 55.9868958,13.9973655 55.7767398,14.0930983 C55.1423902,14.38141 54.4902966,14.4587755 53.9141697,14.4587755 C53.3020001,14.4587755 52.3427127,14.4192579 51.3634633,13.707384 C50.0021624,12.7444898 49.4077369,11.0886456 49.4077369,9.64486085 C49.4077369,6.66155844 51.8248084,5.19884972 53.8004969,5.19884972 C54.4902966,5.19884972 55.2006129,5.37139147 55.7767398,5.73762523 C56.7343637,6.37213358 56.9844438,7.19977737 57.1175242,7.64282004 L52.6110914,9.47231911 L51.1338997,9.58808905 C51.6129889,12.032616 53.262076,13.4563636 55.0847221,13.4563636 C56.0628625,13.4563636 56.7731788,13.110167 57.4252724,12.7834508 L56.4083169,13.7463451 Z" id="Fill-20"></path>
                <polygon id="Fill-21" points="58.2591871 5.33020408 58.2591871 6.60033395 58.1055902 6.60033395 58.1055902 5.33020408 57.6874961 5.33020408 57.6874961 5.19884972 58.6783901 5.19884972 58.6783901 5.33020408"></polygon>
                <polygon id="Fill-22" points="59.9844627 6.60044527 59.9844627 5.3180705 59.9778087 5.3180705 59.5879942 6.60044527 59.4676674 6.60044527 59.0745259 5.3180705 59.0695354 5.3180705 59.0695354 6.60044527 58.929801 6.60044527 58.929801 5.19840445 59.1687911 5.19840445 59.5253355 6.3316141 59.5297715 6.3316141 59.8807709 5.19840445 60.123088 5.19840445 60.123088 6.60044527"></polygon>
            </g>
        </g>
    </g>
</svg>