<?xml version="1.0" standalone="no"?><!DOCTYPE svg PUBLIC "-//W3C//DTD SVG 1.1//EN" "http://www.w3.org/Graphics/SVG/1.1/DTD/svg11.dtd"><svg t="1548125269841" class="icon" style="" viewBox="0 0 1024 1024" version="1.1" xmlns="http://www.w3.org/2000/svg" p-id="4507" xmlns:xlink="http://www.w3.org/1999/xlink" width="200" height="200"><defs><style type="text/css"></style></defs><path d="M201.24266667 738.00426667q11.47626667 0 19.86346666-8.3872t8.3872-19.86346667-8.3872-19.86346667-19.86346666-8.3872-19.86346667 8.3872-8.3872 19.86346667 8.3872 19.86346667 19.86346667 8.3872zM538.48533333 794.50453333q83.4272 0 83.4272-73.71733333 0-11.47626667-2.20693333-24.71786667 13.24266667-7.06346667 20.96746667-23.1744t7.7248-32.44266666-7.94453334-30.4576q23.39413333-22.07146667 23.39413334-52.52906667 0-11.03466667-4.41386667-24.4992t-11.03466667-20.96853333h146.10773334q22.9536 0 39.728-16.7744t16.7744-39.728q0-22.51093333-17.21493334-39.5072t-39.28533333-16.99413334h-254.25706667q0-8.82773333 6.6208-21.40906666t14.5664-24.2784 14.5664-30.016 6.6208-37.30026667q0-29.57546667-19.64266666-43.03786667t-50.98346667-13.46453333q-10.59413333 0-39.728 61.35786667-10.59413333 19.42293333-16.3328 28.69333333-17.65653333 28.2496-49.43786667 64.00533333-31.33973333 35.7536-44.58346666 46.7904-30.4576 25.16053333-61.7984 25.16053334h-14.12586667v282.50453333h14.12586667q31.7824 0 73.71733333 14.1248t85.4144 28.2496 79.23413333 14.1248zM540.69333333 851.00693333q-58.7072 0-142.13546666-30.4576-72.39146667-26.04373333-98.43626667-26.04373333h-127.1264q-23.39413333 0-39.94773333-16.55253333t-16.55253334-39.94773334v-282.50453333q0-23.39413333 16.55253334-39.94773333t39.94773333-16.55253334h127.1264q4.41386667 0 9.49013333-1.9872t10.3744-6.18026666 9.93066667-7.94453334 10.59413333-9.93173333 9.04853334-9.4912 8.3872-9.49013333 6.1792-7.504q28.69333333-32.66346667 44.14186666-56.94293334 5.73866667-9.2704 14.5664-27.36746666t16.3328-31.7824 17.8784-27.80906667 24.2784-21.8496 30.6784-7.7248q55.17653333 0 91.152 29.57546667t35.97653334 83.4272q0 30.016-9.71093334 56.50133333h165.09013334q45.90826667 0 79.4528 33.54666667t33.54666666 79.01226666q0 46.34666667-33.32693333 79.89653334t-79.67466667 33.54666666h-74.59946666q-1.76533333 27.36746667-16.3328 52.52906667 1.3248 9.2704 1.3248 18.98026667 0 44.58346667-26.48533334 78.57173333 0.4416 61.3568-37.52 96.89173333t-100.2016 35.53386667z" p-id="4508"></path></svg>