<?xml version="1.0" encoding="UTF-8"?>
<svg width="142px" height="99px" viewBox="0 0 142 99" version="1.1" xmlns="http://www.w3.org/2000/svg" xmlns:xlink="http://www.w3.org/1999/xlink">
    <!-- Generator: Sketch 52.4 (67378) - http://www.bohemiancoding.com/sketch -->
    <title>分组</title>
    <desc>Created with Sketch.</desc>
    <defs>
        <linearGradient x1="43.9065328%" y1="0.372692418%" x2="56.0934672%" y2="99.6273076%" id="linearGradient-1">
            <stop stop-color="#FAD961" offset="0%"></stop>
            <stop stop-color="#F76B1C" offset="100%"></stop>
        </linearGradient>
    </defs>
    <g id="页面-1" stroke="none" stroke-width="1" fill="none" fill-rule="evenodd">
        <g id="分组">
            <path d="M129.766065,21.2885198 C128.210879,20.476916 127.108764,18.2608194 126.84873,14.9260969 C126.561955,11.5927624 129.071933,8.80697832 129.106853,8.81495895 C129.183601,8.74292191 133.17844,14.0281078 132.966404,17.6046225 C132.84948,21.1134947 131.284804,22.0853003 129.766065,21.2885198 Z M133.466995,30.8208938 C132.147232,29.69028 131.588117,27.3209688 132.125817,24.0724522 C132.637783,20.8150225 135.68933,18.6877596 135.714608,18.7011654 C135.795852,18.6467989 138.337896,24.5549337 137.354415,27.9662005 C136.465603,31.3270937 134.754058,31.924723 133.466995,30.8208938 Z M123.802751,12.6965528 C122.033429,12.2314441 120.354704,10.2772413 119.172726,7.01040331 C117.957927,3.74313545 119.730412,0.41660114 119.772356,0.417671237 C119.85035,0.335301782 125.383798,4.74438528 126.069071,8.33366794 C126.849472,11.8407022 125.519456,13.1465921 123.802751,12.6965528 Z M126.486472,69.2035856 C124.954971,69.8732693 123.706032,68.585852 123.254009,65.6873242 C122.844555,62.8226439 124.279824,58.6934263 124.242258,58.6563212 C124.221372,58.6723346 127.672963,60.0684032 128.367095,63.0849032 C129.054532,66.1111398 127.98344,68.5566432 126.486472,69.2035856 Z M131.100803,53.9528962 C132.324044,56.747054 131.712978,59.3633206 130.348432,60.3273798 C128.964546,61.3249845 127.496868,60.3549312 126.52268,57.6374226 C125.606038,54.9437313 126.276811,50.6037694 126.234355,50.5772094 C126.212595,50.5941186 129.863329,51.1772778 131.100803,53.9528962 Z M131.902752,64.7438699 C134.46119,63.0058661 137.92735,64.0448583 137.935962,64.0705999 C138.011202,64.078297 135.628837,69.9849561 132.709007,71.5359918 C129.871837,73.1101899 128.341881,72.1471848 128.231387,70.3540681 C128.115038,68.5210302 129.336119,66.459729 131.902752,64.7438699 Z M127.194691,73.9010743 C130.002684,72.7646063 133.180804,74.5712074 133.181282,74.6006136 C133.258281,74.6234683 129.858233,79.9141655 126.720659,80.7753003 C123.657323,81.6776424 122.34305,80.3835881 122.570728,78.6005174 C122.808488,76.769457 124.377598,75.0181231 127.194691,73.9010743 Z M121.086599,77.071401 C119.464249,77.3817968 118.491378,75.8326762 118.590126,72.8816287 C118.725231,69.972016 120.875985,66.2255061 120.847011,66.1802437 C120.827637,66.1903234 123.921673,68.3429522 124.058456,71.475414 C124.168017,74.6093264 122.671263,76.7755504 121.086599,77.071401 Z M117.368908,8.15957656 C116.461246,9.32844781 114.573383,9.81024925 111.305244,7.65572664 C108.46535,5.78588499 107.003408,1.68284754 107.003408,1.68284754 C107.003408,1.68284754 111.249012,0.858998885 114.24874,2.67521628 C118.054118,4.96830417 118.205635,7.03486578 117.368908,8.15957656 Z M113.125642,88.1697521 C116.151553,88.3991064 118.369171,91.4734996 118.365406,91.5000668 C118.436246,91.562578 113.270358,94.8754458 109.971404,94.2004249 C106.735404,93.6105844 106.020071,91.8339832 106.962513,90.3283585 C107.923156,88.7856852 110.097677,87.9205847 113.125642,88.1697521 Z M120.889333,81.8479359 C123.855758,81.3686536 126.611991,83.866372 126.610002,83.8934908 C126.6799,83.9373481 122.356414,88.3578345 119.095592,88.4729803 C115.90067,88.6523221 114.858534,87.0837753 115.440611,85.3894845 C116.033213,83.6552306 117.922427,82.2998985 120.889333,81.8479359 Z M104.036967,92.4687193 C107.048181,93.4228677 108.611201,96.9385336 108.598375,96.9628879 C108.667775,97.0467094 102.750143,99.0005227 99.4947141,97.514034 C96.3033076,96.1261477 95.9594254,94.2248784 97.2744782,93.0197684 C98.6153468,91.7800107 101.031386,91.4872395 104.036967,92.4687193 Z M135.031427,40.8905817 C133.980021,39.4992664 133.921864,37.0591331 135.134442,34.0267453 C136.325588,30.9887971 139.73077,29.6054949 139.757337,29.6236881 C139.832243,29.582141 141.015276,35.8655549 139.377098,38.9774895 C137.833367,42.0497717 136.056335,42.2558714 135.031427,40.8905817 Z M114.277172,83.5490562 C112.620606,83.4802887 111.969002,81.7449563 112.652928,78.8798268 C113.365279,76.0657682 116.175009,72.8746429 116.153088,72.8227269 C116.129718,72.8257632 118.750251,75.6483118 118.281436,78.750708 C117.794797,81.8512474 115.902259,83.6289547 114.277172,83.5490562 Z M122.259043,14.1757217 C122.491681,16.0098195 120.973327,16.9213645 118.080409,16.4681931 C115.280844,15.9828131 111.349725,13.1435573 111.263933,13.1734797 C111.267182,13.2014827 113.480084,9.99897161 116.711697,10.2201164 C119.942021,10.4617695 122.034008,12.3797531 122.259043,14.1757217 Z M134.889747,54.7702741 C137.097943,52.503013 140.697952,52.739665 140.710452,52.7630761 C140.792367,52.7524335 139.510863,59.0350216 136.91251,61.2004155 C134.399942,63.3674422 132.716706,62.775884 132.277395,61.0596499 C131.834429,59.3013833 132.6604,57.0217676 134.889747,54.7702741 Z M136.008094,44.3987165 C137.763566,41.6906177 141.354386,41.1062215 141.364203,41.1318066 C141.449421,41.1032625 141.3557,47.511872 139.184415,50.1962809 C137.101456,52.8726046 135.332152,52.6753154 134.59249,51.1042411 C133.827458,49.4957811 134.234633,47.0908978 136.008094,44.3987165 Z M102.852288,88.4725675 C101.098712,91.0262985 98.4985561,91.6924366 96.9410463,90.8334119 C95.3445876,89.9611927 95.479168,88.1198065 97.3880098,85.9177768 C99.3221581,83.7820876 103.291412,82.2248392 103.28378,82.1590708 C103.255519,82.1473564 104.585367,85.9108075 102.852288,88.4725675 Z M126.695703,42.2619872 C126.682818,42.2876573 130.396292,42.0310351 132.128814,44.4593892 C133.843861,46.8973157 133.721242,49.5836425 132.552335,50.8279192 C131.369445,52.1076533 129.74799,51.4963331 128.296978,49.0702613 C126.896923,46.6618215 126.750455,42.2825208 126.695703,42.2619872 Z M131.329178,34.9634136 C133.500448,36.9597623 133.888356,39.607143 132.973466,41.086761 C132.049714,42.5996064 130.337907,42.3645965 128.447111,40.329983 C126.621022,38.2966114 125.608753,34.0496159 125.545497,34.0419264 C125.537699,34.067453 129.13687,32.9838804 131.329178,34.9634136 Z M127.949881,22.3774945 C127.733327,24.1763316 126.064391,24.7217454 123.457187,23.6874649 C120.921643,22.6321392 118.011236,19.1556603 117.936417,19.174769 C117.93142,19.1991493 120.800697,16.6118186 123.739181,17.4724078 C126.674537,18.3545264 128.170637,20.616968 127.949881,22.3774945 Z M126.873645,31.7567863 C124.665482,30.1780469 122.726207,26.2335139 122.662607,26.2376044 C122.655437,26.2664395 125.97697,24.3920018 128.567997,25.8453727 C131.155663,27.3140447 132.078905,29.8222456 131.485618,31.4726171 C130.879513,33.1663788 129.148428,33.323741 126.873645,31.7567863 Z M106.190602,88.2665118 C104.538811,87.7963037 104.258119,85.9590611 105.545139,83.3342512 C106.857041,80.7784449 110.276103,78.3134458 110.25714,78.2554083 C110.231879,78.2526922 112.267133,81.6186003 111.176216,84.5381712 C110.063325,87.4517304 107.798676,88.7330116 106.190602,88.2665118 Z" id="Fill-3" fill="url(#linearGradient-1)"></path>
            <path d="M12.5513351,21.2885198 C11.0325966,22.0853003 9.4679206,21.1134947 9.35099596,17.6046225 C9.13896035,14.0281078 13.1337994,8.74292191 13.2105475,8.81495895 C13.2454675,8.80697832 15.7554449,11.5927624 15.4686701,14.9260969 C15.2086359,18.2608194 14.1065215,20.476916 12.5513351,21.2885198 Z M8.85040506,30.8208938 C7.56334178,31.924723 5.85179706,31.3270937 4.96298549,27.9662005 C3.97950468,24.5549337 6.52154798,18.6467989 6.60279215,18.7011654 C6.62807019,18.6877596 9.67961754,20.8150225 10.1915829,24.0724522 C10.7292833,27.3209688 10.1701683,29.69028 8.85040506,30.8208938 Z M18.5146489,12.6965528 C16.7979438,13.1465921 15.4679284,11.8407022 16.2483296,8.33366794 C16.9336027,4.74438528 22.4670499,0.335301782 22.5450446,0.417671237 C22.5869887,0.41660114 24.3594734,3.74313545 23.1446743,7.01040331 C21.9626963,10.2772413 20.2839715,12.2314441 18.5146489,12.6965528 Z M15.8309279,69.2035856 C14.3339607,68.5566432 13.2628687,66.1111398 13.9503048,63.0849032 C14.6444371,60.0684032 18.0960278,58.6723346 18.0751418,58.6563212 C18.0375758,58.6934263 19.4728452,62.8226439 19.0633908,65.6873242 C18.6113681,68.585852 17.3624296,69.8732693 15.8309279,69.2035856 Z M11.2165968,53.9528962 C12.4540717,51.1772778 16.1048057,50.5941186 16.0830454,50.5772094 C16.040589,50.6037694 16.7113619,54.9437313 15.79472,57.6374226 C14.8205326,60.3549312 13.3528547,61.3249845 11.9689684,60.3273798 C10.6044227,59.3633206 9.99335608,56.747054 11.2165968,53.9528962 Z M10.4146485,64.7438699 C12.9812812,66.459729 14.2023618,68.5210302 14.086013,70.3540681 C13.9755195,72.1471848 12.4455628,73.1101899 9.60839281,71.5359918 C6.68856361,69.9849561 4.30619868,64.078297 4.38143841,64.0705999 C4.39005037,64.0448583 7.85621042,63.0058661 10.4146485,64.7438699 Z M15.1227089,73.9010743 C17.9398027,75.0181231 19.5089118,76.769457 19.7466724,78.6005174 C19.9743498,80.3835881 18.660077,81.6776424 15.5967408,80.7753003 C12.4591676,79.9141655 9.05911969,74.6234683 9.1361183,74.6006136 C9.13659587,74.5712074 12.3147161,72.7646063 15.1227089,73.9010743 Z M21.2308009,77.071401 C19.6461372,76.7755504 18.1493835,74.6093264 18.2589439,71.475414 C18.3957268,68.3429522 21.4897632,66.1903234 21.4703897,66.1802437 C21.441415,66.2255061 23.5921693,69.972016 23.7272743,72.8816287 C23.8260227,75.8326762 22.8531511,77.3817968 21.2308009,77.071401 Z M24.9484924,8.15957656 C24.1117649,7.03486578 24.2632822,4.96830417 28.06866,2.67521628 C31.0683883,0.858998885 35.3139923,1.68284754 35.3139923,1.68284754 C35.3139923,1.68284754 33.8520499,5.78588499 31.012156,7.65572664 C27.744017,9.81024925 25.856154,9.32844781 24.9484924,8.15957656 Z M29.1917579,88.1697521 C32.2197236,87.9205847 34.3942443,88.7856852 35.354887,90.3283585 C36.2973292,91.8339832 35.5819961,93.6105844 32.3459961,94.2004249 C29.047042,94.8754458 23.8811541,91.562578 23.9519937,91.5000668 C23.9482289,91.4734996 26.1658468,88.3991064 29.1917579,88.1697521 Z M21.4280677,81.8479359 C24.3949728,82.2998985 26.284187,83.6552306 26.8767893,85.3894845 C27.4588661,87.0837753 26.4167306,88.6523221 23.221808,88.4729803 C19.960986,88.3578345 15.6374999,83.9373481 15.7073978,83.8934908 C15.7054089,83.866372 18.4616426,81.3686536 21.4280677,81.8479359 Z M38.2804329,92.4687193 C41.2860139,91.4872395 43.7020534,91.7800107 45.0429221,93.0197684 C46.3579748,94.2248784 46.0140926,96.1261477 42.8226861,97.514034 C39.5672571,99.0005227 33.6496256,97.0467094 33.7190251,96.9628879 C33.7061993,96.9385336 35.2692193,93.4228677 38.2804329,92.4687193 Z M7.28597357,40.8905817 C6.26106544,42.2558714 4.4840336,42.0497717 2.94030193,38.9774895 C1.3021243,35.8655549 2.48515732,29.582141 2.5600631,29.6236881 C2.58663034,29.6054949 5.99181217,30.9887971 7.18295793,34.0267453 C8.39553661,37.0591331 8.33737958,39.4992664 7.28597357,40.8905817 Z M28.0402278,83.5490562 C26.4151415,83.6289547 24.5226037,81.8512474 24.0359646,78.750708 C23.5671494,75.6483118 26.1876826,72.8257632 26.1643125,72.8227269 C26.1423917,72.8746429 28.9521209,76.0657682 29.6644727,78.8798268 C30.3483987,81.7449563 29.6967938,83.4802887 28.0402278,83.5490562 Z M20.0583574,14.1757217 C20.2833918,12.3797531 22.3753795,10.4617695 25.6057035,10.2201164 C28.8373161,9.99897161 31.0502179,13.2014827 31.0534673,13.1734797 C30.9676748,13.1435573 27.0365566,15.9828131 24.2369916,16.4681931 C21.3440734,16.9213645 19.8257191,16.0098195 20.0583574,14.1757217 Z M7.42765334,54.7702741 C9.65699977,57.0217676 10.4829708,59.3013833 10.0400053,61.0596499 C9.60069446,62.775884 7.91745787,63.3674422 5.40489064,61.2004155 C2.80653756,59.0350216 1.52503292,52.7524335 1.60694872,52.7630761 C1.61944778,52.739665 5.2194569,52.503013 7.42765334,54.7702741 Z M6.3093067,44.3987165 C8.08276715,47.0908978 8.48994271,49.4957811 7.72491001,51.1042411 C6.9852478,52.6753154 5.2159438,52.8726046 3.13298542,50.1962809 C0.961700476,47.511872 0.86797878,41.1032625 0.953197632,41.1318066 C0.963014232,41.1062215 4.55383437,41.6906177 6.3093067,44.3987165 Z M39.4651126,88.4725675 C37.7320334,85.9108075 39.0618815,82.1473564 39.0336204,82.1590708 C39.0259886,82.2248392 42.9952421,83.7820876 44.9293904,85.9177768 C46.8382322,88.1198065 46.9728126,89.9611927 45.3763539,90.8334119 C43.8188441,91.6924366 41.2186883,91.0262985 39.4651126,88.4725675 Z M15.6216977,42.2619872 C15.5669453,42.2825208 15.4204768,46.6618215 14.0204226,49.0702613 C12.5694101,51.4963331 10.9479553,52.1076533 9.7650653,50.8279192 C8.59615833,49.5836425 8.47353939,46.8973157 10.1885861,44.4593892 C11.9211087,42.0310351 15.6345818,42.2876573 15.6216977,42.2619872 Z M10.9882221,34.9634136 C13.1805298,32.9838804 16.7797015,34.067453 16.7719029,34.0419264 C16.7086476,34.0496159 15.6963783,38.2966114 13.8702897,40.329983 C11.9794929,42.3645965 10.2676858,42.5996064 9.34393444,41.086761 C8.42904459,39.607143 8.81695194,36.9597623 10.9882221,34.9634136 Z M14.367519,22.3774945 C14.1467634,20.616968 15.6428633,18.3545264 18.5782197,17.4724078 C21.5167028,16.6118186 24.3859802,19.1991493 24.3809833,19.174769 C24.3061639,19.1556603 21.3957577,22.6321392 18.8602136,23.6874649 C16.2530096,24.7217454 14.5840735,24.1763316 14.367519,22.3774945 Z M15.4437554,31.7567863 C13.1689723,33.323741 11.4378874,33.1663788 10.8317822,31.4726171 C10.2384949,29.8222456 11.161737,27.3140447 13.7494033,25.8453727 C16.3404299,24.3920018 19.6619632,26.2664395 19.6547931,26.2376044 C19.5911927,26.2335139 17.651918,30.1780469 15.4437554,31.7567863 Z M36.1267978,88.2665118 C34.5187241,88.7330116 32.2540755,87.4517304 31.1411843,84.5381712 C30.0502675,81.6186003 32.0855208,78.2526922 32.0602604,78.2554083 C32.0412977,78.3134458 35.4603591,80.7784449 36.7722613,83.3342512 C38.0592816,85.9590611 37.7785891,87.7963037 36.1267978,88.2665118 Z" id="Fill-3-Copy" fill="url(#linearGradient-1)"></path>
            <text id="App-Store" font-family="PingFangSC-Medium, PingFang SC" font-size="16.3636364" font-weight="400" fill="#F89738">
                <tspan x="32.7390909" y="39.1818182">App Store</tspan>
            </text>
            <text id="精品推荐" font-family="PingFangSC-Semibold, PingFang SC" font-size="19.6363636" font-weight="500" fill="#F89738">
                <tspan x="32.2272727" y="63">精品推荐</tspan>
            </text>
        </g>
    </g>
</svg>