<?xml version="1.0" encoding="UTF-8"?>
<svg width="14px" height="12px" viewBox="0 0 14 12" version="1.1" xmlns="http://www.w3.org/2000/svg" xmlns:xlink="http://www.w3.org/1999/xlink">
    <!-- Generator: Sketch 52.4 (67378) - http://www.bohemiancoding.com/sketch -->
    <title>路径@2x</title>
    <desc>Created with Sketch.</desc>
    <g id="页面-1" stroke="none" stroke-width="1" fill="none" fill-rule="evenodd">
        <g id="我的订阅-电台课程" transform="translate(-1089.000000, -249.000000)" fill-rule="nonzero" stroke="#B8B8B8">
            <g id="电台课程" transform="translate(826.000000, 191.000000)">
                <g id="分组-5" transform="translate(263.000000, 58.000000)">
                    <path d="M10.5134287,4.08863483 C10.1495737,2.75093112 9.35283841,1.92213248 8.22651017,1.62454582 C9.43349022,1.9097927 10.1801418,2.74738116 10.5134287,4.08863483 Z M8.22651017,1.62454582 C7.91285771,1.54167584 7.57364615,1.5 7.21110599,1.5 C6.83972362,1.5 6.49297727,1.54323566 6.17318504,1.62930169 C6.48737942,1.55330357 6.83306869,1.51488691 7.21110599,1.51488691 C7.58010875,1.51488691 7.91831619,1.55171 8.22651017,1.62454582 Z M6.17318504,1.62930169 C5.06225516,1.92828745 4.2766091,2.74415268 3.91342858,4.05990609 C4.24678235,2.7420616 4.98464063,1.91678979 6.17318504,1.62930169 Z M3.91342858,4.05990609 C3.76435862,4.5999662 3.6864635,5.22424493 3.6864635,5.93156729 L3.6864635,6.43156729 L2.57646141,6.43156729 C1.98289855,6.43156729 1.5,6.91245388 1.49983428,7.48859417 L1.52391312,8.43001623 C1.52391312,9.0191045 2.00680266,9.5 2.60037453,9.5 L3.70252851,9.50000011 C3.70754415,9.49999677 3.71116333,9.4969066 3.72768007,9.42405443 C3.72786244,9.42345977 3.72795235,9.42286066 3.72796463,9.42589092 L3.70403938,5.9892419 C3.70403938,5.26058431 3.77267702,4.61633797 3.91342858,4.05990609 Z M10.5134287,4.08863483 C10.65102,4.64234622 10.7181616,5.28189708 10.718158,6.0038626 L10.6924127,9.37553882 C10.6924127,9.37638924 10.6924766,9.37662687 10.7259481,9.44789721 C10.727047,9.45081427 10.7305184,9.45321177 10.7344858,9.45321505 L11.8368879,9.45321505 C12.4304354,9.45321505 12.9132644,8.972344 12.9134831,8.36844519 L12.9390244,7.51252528 C12.9390244,6.92331244 12.4561799,6.44237238 11.8626479,6.44237238 L10.7356635,6.44237238 L10.7356635,5.94237238 C10.7356635,5.24355403 10.6593639,4.62516177 10.5134287,4.08863483 Z" id="路径"></path>
                </g>
            </g>
        </g>
    </g>
</svg>