<?xml version="1.0" encoding="UTF-8"?>
<svg width="28px" height="34px" viewBox="0 0 28 34" version="1.1" xmlns="http://www.w3.org/2000/svg" xmlns:xlink="http://www.w3.org/1999/xlink">
    <!-- Generator: Sketch 52.4 (67378) - http://www.bohemiancoding.com/sketch -->
    <title>最新发布悬停点击</title>
    <desc>Created with Sketch.</desc>
    <g id="杂项" stroke="none" stroke-width="1" fill="none" fill-rule="evenodd">
        <g id="iPhone-SE" transform="translate(-140.000000, -145.000000)" fill="#2A9FE4">
            <g id="奖杯-copy" transform="translate(140.000000, 145.000000)">
                <polygon id="路径" points="6.71231739 25.4431901 6.71231739 29.4431901 21.306086 29.4431901 21.306086 25.4431901"></polygon>
                <polygon id="路径" points="5.14756081 29.9901796 5.14756081 30.51252 4.62595214 30.51252 4.62595214 31.9884283 23.4031006 31.9884283 23.4031006 30.4890167 22.889609 30.4890167 22.889609 29.9901796"></polygon>
                <path d="M9.13228044,19.4903833 L14.0145263,16.900251 L14.0145263,19.4903833 L6.71231739,22.9993452 C6.71231739,22.9993452 7.62510651,14.9370072 7.49471302,14.9370072 C7.36428485,14.9370072 2.01804763,9.54817993 2.01804763,9.54817993 C2.01804763,9.54817993 10.1897547,7.50122434 10.0593612,7.50122434 C9.92896769,7.50122434 14.0145263,1.02641049 14.0145263,1.02641049 L14.0145263,5.45450214 L11.1458001,9.46476816 L6.27784583,10.3001528 L9.62436929,13.9763383 L9.13228044,19.4903833 Z" id="路径"></path>
                <path d="M18.8675647,19.523988 L13.9853188,16.9338557 L13.9853188,19.523988 L21.2875624,23.0329499 C21.2875624,23.0329499 20.3747733,14.9706453 20.5051668,14.9706453 C20.6355603,14.9706453 25.9818322,9.58181805 25.9818322,9.58181805 C25.9818322,9.58181805 17.8101252,7.53486245 17.9405534,7.53486245 C18.0709122,7.53486245 13.9853188,1.06004857 13.9853188,1.06004857 L13.9853535,5.48814025 L16.8540797,9.49837292 L21.722034,10.3337575 L18.3754758,14.009943 L18.8675647,19.523988 Z" id="路径"></path>
            </g>
        </g>
    </g>
</svg>