<?xml version="1.0" encoding="UTF-8"?>
<svg width="28px" height="34px" viewBox="0 0 28 34" version="1.1" xmlns="http://www.w3.org/2000/svg" xmlns:xlink="http://www.w3.org/1999/xlink">
    <!-- Generator: Sketch 52.4 (67378) - http://www.bohemiancoding.com/sketch -->
    <title>学习推荐默认</title>
    <desc>Created with Sketch.</desc>
    <g id="杂项" stroke="none" stroke-width="1" fill="none" fill-rule="evenodd">
        <g id="iPhone-SE" transform="translate(-90.000000, -106.000000)" fill="#FFFFFF" fill-rule="nonzero">
            <g id="分组-2" transform="translate(90.000000, 106.000000)">
                <path d="M11.7383675,27.5783636 L2.40890746,18.219256 C2.41011235,18.2216731 12.4167203,8.1761021 12.4167203,8.1761021 C12.63842,7.95372661 13.2288159,7.73135113 13.5360627,7.75310523 L13.6734201,7.75310523 L20.5412907,7.41833345 C21.2425365,7.49689 21.8763084,8.14830518 21.9220942,8.85652275 L22.0233049,10.3938142 C22.0517156,10.8247284 22.3071596,11.2077064 22.6934135,11.3984841 C23.0796674,11.5892618 23.5380501,11.5588555 23.8958933,11.318719 C24.2537365,11.0785825 24.4566753,10.6651982 24.4282645,10.2342839 L24.3270538,8.69699251 C24.1993355,6.76087547 22.5715297,5.1281076 20.6412966,5.00120854 L20.5039392,5 L13.6155854,5.33598035 C12.6287809,5.29972348 11.4070228,5.77106283 10.7118016,6.4671948 L0.701578911,16.5079316 C-0.234798569,17.4549552 -0.23372234,18.9824681 0.70398868,19.9281633 L10.040678,29.2933137 C10.4915613,29.7467778 11.1041376,30.0011305 11.7426329,29.9999962 C12.3811281,29.9988619 12.9928023,29.7423341 13.4420813,29.2872709 L23.4535089,19.2465341 C24.1487302,18.5491935 24.6511691,17.3998507 24.630686,16.4209151 L24.7439456,15.2921178 C24.7869922,14.8624989 24.5982664,14.4424796 24.2488595,14.1902771 C23.8994526,13.9380746 23.4424478,13.8920045 23.0499944,14.0694209 C22.657541,14.2468372 22.3892619,14.6207864 22.3462153,15.0504053 L22.2245215,16.2625934 L22.2209068,16.4632148 C22.2377753,16.7315156 22.0040267,17.2814115 21.749795,17.5376268 L11.7383675,27.5783636 Z M19.0533396,10.2144601 C18.9114685,9.99409433 18.7460307,9.78933387 18.5598591,9.6036849 C18.2548841,9.30354141 17.8104883,9.18643526 17.3940713,9.29647922 C16.9776543,9.40652318 16.6524798,9.72699895 16.5410378,10.1371864 C16.4295959,10.5473739 16.5488172,10.9849558 16.8537922,11.2850992 C16.905674,11.3361952 16.9527296,11.3967974 17.0492539,11.5382026 C17.230237,11.8031887 17.286945,11.8828034 17.4232856,12.0289617 C17.7068257,12.3319727 18.0506935,12.5470512 18.4778135,12.6623142 C20.0752906,13.0900946 23.1761335,12.6195362 24.7699909,11.0510083 C26.1551146,9.68686442 26.9610924,7.92583541 26.9997021,6.21471409 C27.014362,5.55844592 26.4860538,5.01473125 25.8196926,5.00029335 C25.1533315,4.98585545 24.6012548,5.50616167 24.5865948,6.16242983 C24.5624637,7.24376344 24.0195146,8.42728901 23.063924,9.37078227 C22.1831398,10.2358491 20.0475398,10.5756969 19.1703753,10.3831957 C19.1304497,10.3275705 19.0914328,10.2713181 19.0533396,10.2144601 Z M12.2785783,11.505434 C12.647687,11.1648553 13.2446071,11.1648553 13.6137158,11.505434 L18.5134185,16.0440953 C18.84385,16.3910538 18.8261251,16.9161961 18.4729404,17.2433559 C18.1197556,17.5705158 17.5528393,17.5869346 17.178281,17.2808513 L12.2773187,12.7421901 C12.0997938,12.5784197 12,12.3558949 12,12.1238121 C12,11.8917292 12.0997938,11.6692044 12.2773187,11.505434 L12.2785783,11.505434 Z M6.2773705,17.755434 C6.6465481,17.4148553 7.2435796,17.4148553 7.61275719,17.755434 L12.5133743,22.2940953 C12.8438676,22.6410538 12.8261393,23.1661961 12.4728887,23.4933559 C12.119638,23.8205158 11.5526159,23.8369346 11.1779877,23.5308513 L6.2773705,18.9921901 C6.09981244,18.8284197 6,18.6058949 6,18.3738121 C6,18.1417292 6.09981244,17.9192044 6.2773705,17.755434 Z M10.0193561,14.6554194 C10.1875515,14.4771397 10.4171417,14.3761951 10.6571227,14.3750105 C10.8971037,14.373826 11.1276023,14.4724997 11.2974126,14.649111 L14.7378678,18.2322647 C15.0891819,18.5981501 15.0879704,19.1911369 14.7305992,19.5633306 C14.5624039,19.7416103 14.3328137,19.8425549 14.0928327,19.8437395 C13.8528517,19.844924 13.6223531,19.7462503 13.4525428,19.569639 L10.0120876,15.9864853 C9.84296976,15.8092993 9.74865034,15.5692092 9.7500146,15.3193785 C9.75137885,15.0695478 9.84831421,14.8305905 10.0193561,14.6554194 Z" id="形状"></path>
            </g>
        </g>
    </g>
</svg>