<?xml version="1.0" encoding="UTF-8"?>
<svg width="14px" height="9px" viewBox="0 0 14 9" version="1.1" xmlns="http://www.w3.org/2000/svg" xmlns:xlink="http://www.w3.org/1999/xlink">
    <!-- Generator: Sketch 52.4 (67378) - http://www.bohemiancoding.com/sketch -->
    <title>路径</title>
    <desc>Created with Sketch.</desc>
    <g id="页面-1" stroke="none" stroke-width="1" fill="none" fill-rule="evenodd">
        <g id="热播电台、学习推荐、最新发布" transform="translate(-692.000000, -271.000000)" fill-rule="nonzero" stroke="#B8B8B8">
            <g id="电台课程" transform="translate(414.000000, 212.000000)">
                <path d="M286.067974,59.6245458 C285.754321,59.5416758 285.41511,59.5 285.052569,59.5 C284.681187,59.5 284.334441,59.5432357 284.014648,59.6293017 C284.328843,59.5533036 284.674532,59.5148869 285.052569,59.5148869 C285.421572,59.5148869 285.75978,59.55171 286.067974,59.6245458 Z M281.754892,62.0599061 C281.605822,62.5999662 281.527927,63.2242449 281.527927,63.9315673 L281.527927,64.4315673 L280.417925,64.4315673 C279.824362,64.4315673 279.341463,64.9124539 279.341298,65.4885942 L279.365377,66.4300162 C279.365377,67.0191045 279.848266,67.5 280.441838,67.5 L281.543992,67.5000001 C281.549008,67.4999968 281.552627,67.4969066 281.569143,67.4240544 C281.569326,67.4234598 281.569416,67.4228607 281.569428,67.4258909 L281.545503,63.9892419 C281.545503,63.2605843 281.61414,62.616338 281.754892,62.0599061 Z M288.354892,62.0886348 C288.492483,62.6423462 288.559625,63.2818971 288.559621,64.0038626 L288.533876,67.3755388 C288.533876,67.3763892 288.53394,67.3766269 288.567411,67.4478972 C288.56851,67.4508143 288.571982,67.4532118 288.575949,67.453215 L289.678351,67.453215 C290.271899,67.453215 290.754728,66.972344 290.754947,66.3684452 L290.780488,65.5125253 C290.780488,64.9233124 290.297643,64.4423724 289.704111,64.4423724 L288.577127,64.4423724 L288.577127,63.9423724 C288.577127,63.243554 288.500827,62.6251618 288.354892,62.0886348 Z" id="路径"></path>
            </g>
        </g>
    </g>
</svg>