<?xml version="1.0" encoding="UTF-8"?>
<svg width="14px" height="12px" viewBox="0 0 14 12" version="1.1" xmlns="http://www.w3.org/2000/svg" xmlns:xlink="http://www.w3.org/1999/xlink">
    <!-- Generator: Sketch 52.4 (67378) - http://www.bohemiancoding.com/sketch -->
    <title>400电话</title>
    <desc>Created with Sketch.</desc>
    <g id="页面-1" stroke="none" stroke-width="1" fill="none" fill-rule="evenodd">
        <g id="电台付费" transform="translate(-1298.000000, -643.000000)" fill="#90A2AE" fill-rule="nonzero">
            <g id="耳机" transform="translate(1298.000000, 643.000000)">
                <path d="M0,6.71910112 C0,3.0082397 3.13400223,0 7,0 C10.8659978,0 14,3.0082397 14,6.71910112 L14,10.3220974 C14,11.248779 13.2173735,12 12.2519509,12 L11.3779264,12 C10.4125039,12 9.62987737,11.248779 9.62987737,10.3220974 L9.62987737,7.80524345 C9.62987737,6.8785618 10.4125039,6.12734082 11.3779264,6.12734082 L12.7187425,6.12734082 C12.4111327,3.35665918 9.96814047,1.19850187 7,1.19850187 C4.03185953,1.19850187 1.58885173,3.35665918 1.28125753,6.12734082 L2.62207358,6.12734082 C3.5874961,6.12734082 4.37012263,6.8785618 4.37012263,7.80524345 L4.37012263,10.3220974 C4.37012263,11.248779 3.5874961,12 2.62207358,12 L1.74804905,12 C0.782626533,12 0,11.248779 0,10.3220974 L0,6.71910112 Z M12.7513935,7.3258427 L11.3779264,7.3258427 C11.1020936,7.3258427 10.8784838,7.5404794 10.8784838,7.80524345 L10.8784838,10.3220974 C10.8784838,10.5868614 11.1020936,10.8014981 11.3779264,10.8014981 L12.2519509,10.8014981 C12.5277837,10.8014981 12.7513935,10.5868614 12.7513935,10.3220974 L12.7513935,7.3258427 Z M1.24860647,7.3258427 L1.24860647,10.3220974 C1.24860647,10.5868614 1.47221628,10.8014981 1.74804905,10.8014981 L2.62207358,10.8014981 C2.89790635,10.8014981 3.12151616,10.5868614 3.12151616,10.3220974 L3.12151616,7.80524345 C3.12151616,7.5404794 2.89790635,7.3258427 2.62207358,7.3258427 L1.24860647,7.3258427 Z" id="400电话"></path>
            </g>
        </g>
    </g>
</svg>