<?xml version="1.0" encoding="UTF-8"?>
<svg width="14px" height="14px" viewBox="0 0 14 14" version="1.1" xmlns="http://www.w3.org/2000/svg" xmlns:xlink="http://www.w3.org/1999/xlink">
    <!-- Generator: Sketch 52.4 (67378) - http://www.bohemiancoding.com/sketch -->
    <title>价格</title>
    <desc>Created with Sketch.</desc>
    <g id="页面-1" stroke="none" stroke-width="1" fill="none" fill-rule="evenodd">
        <g id="语种信息-信息" transform="translate(-543.000000, -391.000000)">
            <g id="分组-5" transform="translate(512.000000, 257.000000)">
                <g id="列表">
                    <g id="价格" transform="translate(31.000000, 134.000000)">
                        <g id="Group-4" transform="translate(3.000000, 3.000000)" fill="#333333">
                            <path d="M2.68479179,0.552205478 L2.68479179,0.552205478 C2.94363112,0.552205478 3.15346187,0.76203622 3.15346187,1.02087556 C3.15346187,1.03097845 3.15313519,1.04107871 3.15248235,1.05116049 L2.97588908,3.77829279 C2.95771695,4.05892511 2.72479971,4.2772478 2.44357964,4.2772478 L2.44357964,4.2772478 C2.1847403,4.2772478 1.97490956,4.06741706 1.97490956,3.80857772 C1.97490956,3.79847483 1.97523624,3.78837457 1.97588908,3.77829279 L2.15248235,1.05116049 C2.17065448,0.770528167 2.40357172,0.552205478 2.68479179,0.552205478 Z" id="Rectangle" transform="translate(2.564186, 2.414727) scale(-1, 1) rotate(45.000000) translate(-2.564186, -2.414727) "></path>
                            <path d="M5.55556587,0.552205478 L5.55556587,0.552205478 C5.8144052,0.552205478 6.02423594,0.76203622 6.02423594,1.02087556 C6.02423594,1.03097845 6.02390927,1.04107871 6.02325643,1.05116049 L5.84666315,3.77829279 C5.82849103,4.05892511 5.59557378,4.2772478 5.31435372,4.2772478 L5.31435372,4.2772478 C5.05551438,4.2772478 4.84568364,4.06741706 4.84568364,3.80857772 C4.84568364,3.79847483 4.84601032,3.78837457 4.84666315,3.77829279 L5.02325643,1.05116049 C5.04142855,0.770528167 5.2743458,0.552205478 5.55556587,0.552205478 Z" id="Rectangle" transform="translate(5.434960, 2.414727) rotate(45.000000) translate(-5.434960, -2.414727) "></path>
                            <rect id="Rectangle" x="3.49371338" y="3" width="1" height="5"></rect>
                            <rect id="Rectangle" x="1" y="3" width="6" height="1"></rect>
                            <rect id="Rectangle-Copy-6" x="1" y="5" width="6" height="1"></rect>
                        </g>
                        <circle id="Oval" stroke="#333333" cx="7" cy="7" r="6"></circle>
                    </g>
                </g>
            </g>
        </g>
    </g>
</svg>