<?xml version="1.0" encoding="UTF-8"?>
<svg width="12px" height="12px" viewBox="0 0 12 12" version="1.1" xmlns="http://www.w3.org/2000/svg" xmlns:xlink="http://www.w3.org/1999/xlink">
    <!-- Generator: Sketch 52.4 (67378) - http://www.bohemiancoding.com/sketch -->
    <title>问题-悬停</title>
    <desc>Created with Sketch.</desc>
    <g id="页面-1" stroke="none" stroke-width="1" fill="none" fill-rule="evenodd">
        <g id="电台付费" transform="translate(-1465.000000, -623.000000)" fill="#F5A623" fill-rule="nonzero">
            <g id="分组-7-copy" transform="translate(1457.000000, 601.000000)">
                <path d="M13.9995015,22.0000073 C10.689568,22.0000073 8,24.4696632 8,27.506687 C8,30.5437226 10.5464806,32.8202415 13.9264511,32.8202415 C14.1926066,32.8202415 14.6498728,32.8002281 15.0300949,32.7602014 C15.1229903,32.7505886 15.2162749,32.774355 15.2932486,32.8272462 L16.9192004,33.9109711 C17.0839602,34.0207845 17.2961686,34.0296595 17.4695209,33.9339866 C17.6486328,33.8342216 17.7568154,33.6425654 17.7496839,33.4376549 L17.6996547,31.7905492 L17.6996547,31.790549 C17.6935173,31.6459108 17.7553344,31.5067185 17.8667525,31.4142977 C19.2625662,30.2905463 20,28.9406429 20,27.5066798 C19.9999999,24.4696443 17.3094354,22 13.9995019,22 L13.9995015,22.0000073 Z M17.4495088,30.8939608 C17.1762886,31.1182695 17.0234479,31.4572865 17.0362675,31.8105736 L17.0792925,33.2135082 L15.666465,32.2708776 C15.4587814,32.1315973 15.2086688,32.0699494 14.9600535,32.0967611 C14.6068472,32.1367878 14.1795985,32.1537993 13.9294531,32.1537993 C10.9297082,32.1537992 8.67038719,30.1534651 8.67038719,27.5066906 C8.67038719,24.8599161 11.0597801,22.6664566 13.99949,22.6664566 C16.9402083,22.6664566 19.332603,24.8369085 19.332603,27.5066906 C19.332603,28.7475167 18.6992338,29.8872831 17.4495091,30.8939526 L17.4495088,30.8939608 Z M14.2286311,24.9980167 C13.1620097,24.963994 12.5216321,25.484342 12.3065145,26.4659987 L12.3075151,26.4659987 C12.2854961,26.6487108 12.4157504,26.8146785 12.5984468,26.8366998 C12.7626976,26.8564975 12.9165959,26.7527694 12.9598962,26.5930833 C13.1299957,25.9086255 13.5102166,25.5754026 14.1025627,25.5914129 C14.651883,25.6254356 14.9510578,25.8916137 15.0010861,26.3889468 C15.0341054,26.7391815 14.7929652,27.0814104 14.2776644,27.4136319 C13.8444122,27.7138327 13.6372915,28.1040937 13.6533004,28.5864203 L13.6533004,28.8435927 C13.6533004,29.0024811 13.7820943,29.1312848 13.9409677,29.1312848 C14.0998424,29.1312848 14.228635,29.0024799 14.228635,28.8435928 L14.228635,28.6354539 C14.209624,28.2702092 14.3937313,27.9630041 14.7769551,27.7128371 C15.4253331,27.31357 15.7335131,26.8562645 15.6984923,26.3409194 C15.6164445,25.5253734 15.1261583,25.0480506 14.2276349,24.998025 L14.2286311,24.9980167 Z M13.999498,29.4830169 C13.7762451,29.4829789 13.5952314,29.6639465 13.5951939,29.8872186 C13.5951559,30.1104906 13.776108,30.2915199 13.9993608,30.2915574 C13.9994067,30.2915574 13.9994526,30.2915574 13.9994985,30.2915574 C14.2227513,30.2915194 14.4037028,30.1104906 14.4036653,29.8872186 C14.4036273,29.6640005 14.2226985,29.4830544 13.9994985,29.4830169 L13.999498,29.4830169 Z" id="问题-悬停"></path>
            </g>
        </g>
    </g>
</svg>