<?xml version="1.0" encoding="UTF-8"?>
<svg width="50px" height="50px" viewBox="0 0 50 50" version="1.1" xmlns="http://www.w3.org/2000/svg" xmlns:xlink="http://www.w3.org/1999/xlink">
    <!-- Generator: Sketch 52.4 (67378) - http://www.bohemiancoding.com/sketch -->
    <title>分组 8</title>
    <desc>Created with Sketch.</desc>
    <defs>
        <linearGradient x1="25.0011428%" y1="17.8617324%" x2="85.3007812%" y2="82.9960938%" id="linearGradient-1">
            <stop stop-color="#FCDDFF" offset="0%"></stop>
            <stop stop-color="#FDCDFF" offset="100%"></stop>
        </linearGradient>
        <linearGradient x1="22.6573905%" y1="15.3300621%" x2="85.3007812%" y2="82.9960938%" id="linearGradient-2">
            <stop stop-color="#FCDDFF" offset="0%"></stop>
            <stop stop-color="#FBCAFF" offset="100%"></stop>
        </linearGradient>
        <linearGradient x1="12.0659722%" y1="12.8499349%" x2="361.518012%" y2="313.834635%" id="linearGradient-3">
            <stop stop-color="#BF80E0" offset="0%"></stop>
            <stop stop-color="#9B77FF" offset="100%"></stop>
        </linearGradient>
        <linearGradient x1="12.0659722%" y1="12.8499349%" x2="361.518012%" y2="313.834635%" id="linearGradient-4">
            <stop stop-color="#A464C5" offset="0%"></stop>
            <stop stop-color="#9B77FF" offset="100%"></stop>
        </linearGradient>
        <linearGradient x1="17.9443359%" y1="-19.4401042%" x2="92.9117839%" y2="69.6875%" id="linearGradient-5">
            <stop stop-color="#E6A0ED" offset="0%"></stop>
            <stop stop-color="#CC84D3" offset="100%"></stop>
        </linearGradient>
        <linearGradient x1="50%" y1="0%" x2="50%" y2="96.832099%" id="linearGradient-6">
            <stop stop-color="#ECBEFF" offset="0%"></stop>
            <stop stop-color="#DA9BFE" offset="100%"></stop>
        </linearGradient>
        <linearGradient x1="50%" y1="0%" x2="50%" y2="100%" id="linearGradient-7">
            <stop stop-color="#EDBFFF" offset="0%"></stop>
            <stop stop-color="#D896FE" offset="100%"></stop>
        </linearGradient>
    </defs>
    <g id="页面-1" stroke="none" stroke-width="1" fill="none" fill-rule="evenodd">
        <g id="移动APP产品介绍及下载页-Copy-4" transform="translate(-424.000000, -1088.000000)">
            <rect fill="#FFFFFF" x="0" y="0" width="1920" height="2218"></rect>
            <g id="分组-8" transform="translate(424.000000, 1088.000000)">
                <g id="分组-5-copy">
                    <g id="分组-2">
                        <circle id="椭圆形-copy-2" fill-opacity="0.79" fill="url(#linearGradient-1)" cx="25" cy="25" r="25"></circle>
                        <circle id="椭圆形" fill="#FFFFFF" cx="25" cy="25" r="23"></circle>
                        <circle id="椭圆形-copy-2" fill-opacity="0.79" fill="url(#linearGradient-2)" cx="25" cy="25" r="20"></circle>
                    </g>
                </g>
                <g id="Group" transform="translate(11.000000, 11.000000)">
                    <path d="M9,22.3267504 C9,23.2459605 8.40200286,24 7.66666667,24 L6.33333333,24 C5.60085837,24 5,23.2459605 5,22.3267504 L5,13.6768402 C5,12.7540395 5.60085837,12 6.33333333,12 L7.66666667,12 C8.40200286,12 9,12.7540395 9,13.6768402 L9,22.3267504 Z M23,22.3267504 C23,23.2459605 22.4020029,24 21.6666667,24 L20.3333333,24 C19.6008584,24 19,23.2459605 19,22.3267504 L19,13.6768402 C19,12.7540395 19.6008584,12 20.3333333,12 L21.6666667,12 C22.4020029,12 23,12.7540395 23,13.6768402 L23,22.3267504 Z" id="合并形状" fill="url(#linearGradient-3)"></path>
                    <path d="M21.6666667,24 L20.3333333,24 C19.6008584,24 19,23.2459605 19,22.3267504 L19,13.6768402 C19,12.7540395 19.6008584,12 20.3333333,12 L21.6666667,12 C22.4020029,12 23,12.7540395 23,13.6768402 L23,22.3267504 C23,23.2459605 22.4020029,24 21.6666667,24 Z" id="Shape-Copy-2" fill="url(#linearGradient-3)"></path>
                    <path d="M19,20.9417174 C21.0205031,20.8697463 22.6801982,19.2940356 22.8427793,17.2635442 L23,15.3 L23,22.2710368 C23,23.1902468 22.4020029,23.9442863 21.6666667,23.9442863 L20.3333333,23.9442863 C19.6008584,23.9442863 19,23.1902468 19,22.2710368 L19,20.9417174 Z" id="合并形状" fill="url(#linearGradient-4)"></path>
                    <path d="M5,20.9442868 L5.80183502,20.9442866 C7.10225022,20.9442864 8.2672063,20.3211286 9,19.3472191 L9,22.2710368 C9,23.1902468 8.40200286,23.9442863 7.66666667,23.9442863 L6.33333333,23.9442863 C5.60085837,23.9442863 5,23.1902468 5,22.2710368 L5,20.9442868 Z" id="合并形状-copy" fill="url(#linearGradient-4)"></path>
                    <path d="M13.9981859,0 C7.36961451,0 2,5.21723814 2,11.6533584 L2,14.9013621 C2.50430839,14.598403 3.0739229,14.4011273 3.69070295,14.3201033 L3.69070295,11.6533584 C3.69795918,6.12611555 8.30566893,1.65218412 13.9981859,1.64513856 C19.6907029,1.65218412 24.2984127,6.12611555 24.3056689,11.6533584 L24.3056689,14.3377172 C24.9260771,14.4434007 25.4993197,14.6688586 25.9963719,15 C26,13.5450916 26,11.6991545 26,11.6533584 C25.9963719,5.21723814 20.6267574,0 13.9981859,0" id="Shape" fill="url(#linearGradient-5)"></path>
                    <path d="M22.613798,6.164021 C23.6811894,7.73967812 24.3030069,9.6256379 24.3056689,11.6533584 L24.3056689,14.3377172 C24.9260771,14.4434007 25.4993197,14.6688586 25.9963719,15 C26,13.5450916 26,11.6991545 26,11.6533584 C25.9963719,5.21723814 20.6267574,-1.11022302e-15 13.9981859,-1.11022302e-15 C13.8224495,-1.11022302e-15 13.6475981,0.00366711219 13.4737081,0.0109268279 C17.4073031,0.192741983 20.8063409,2.62814549 22.613798,6.164021 Z M2.28870159,14.7430304 C2.19027695,14.79209 2.09400393,14.8448901 2,14.9013621 L2,11.6533584 C2,9.95874194 2.37225252,8.34862541 3.04172441,6.89599204 C2.37352189,8.44481725 2,10.1748228 2,12 C2,12.9437527 2.09986708,13.8620597 2.28870159,14.7430304 Z" id="合并形状" fill="#C671CF"></path>
                    <path d="M24.2597809,14 C24.1690141,14 24.0876369,14.0225941 24,14.0301255 L24,22.9661088 C24.0876369,22.9736402 24.1690141,23 24.2597809,23 C26.3255086,23 28,20.98159 28,18.4962343 C28,16.0108787 26.3255086,14 24.2597809,14" id="Shape" fill="url(#linearGradient-6)"></path>
                    <path d="M27.9521491,18.4810702 C27.9836365,18.7160014 28,18.9570535 28,19.2027423 C28,21.6880979 26.3255086,23.7065079 24.2597809,23.7065079 C24.1690141,23.7065079 24.0876369,23.6801481 24,23.6726167 L24,20.6716927 C24.1637971,20.6946711 24.3306698,20.7065079 24.5,20.7065079 C25.9715344,20.7065079 27.2574765,19.8125664 27.9521491,18.4810702 Z" id="合并形状" fill="#D692F8"></path>
                    <path d="M4,14.0301255 C3.91236307,14.0225941 3.83098592,14 3.74021909,14 C1.67449139,14 2.84661878e-13,16.0108787 2.84661878e-13,18.4962343 C2.84661878e-13,20.98159 1.67449139,23 3.74021909,23 C3.83098592,23 3.91236307,22.9736402 4,22.9661088 L4,14.0301255 L4,14.0301255 Z" id="Shape" fill="url(#linearGradient-7)"></path>
                    <path d="M4,19.1380085 L4,22.9661088 C3.91236307,22.9736402 3.83098592,23 3.74021909,23 C2.43544258,23 1.28675255,22.1947411 0.617520793,20.9751822 C0.743405122,20.9916021 0.870989313,21 1,21 C2.19469253,21 3.26705555,20.279837 4,19.1380085 Z" id="合并形状" fill="#CF8AF2"></path>
                </g>
            </g>
        </g>
    </g>
</svg>