<?xml version="1.0" encoding="UTF-8"?>
<svg width="28px" height="34px" viewBox="0 0 28 34" version="1.1" xmlns="http://www.w3.org/2000/svg" xmlns:xlink="http://www.w3.org/1999/xlink">
    <!-- Generator: Sketch 52.4 (67378) - http://www.bohemiancoding.com/sketch -->
    <title>明星主播悬停点击</title>
    <desc>Created with Sketch.</desc>
    <g id="杂项" stroke="none" stroke-width="1" fill="none" fill-rule="evenodd">
        <g id="iPhone-SE" transform="translate(-193.000000, -145.000000)" fill="#2A9FE4">
            <g id="奖章-copy" transform="translate(193.000000, 145.000000)">
                <path d="M7.46480791,24.5837046 C9.56439253,23.3722797 11.5912746,24.8421172 12.2758028,27.419683 C13,28.5 14,28.5 14.6384748,27.419683 C15.4224461,24.6956751 17.6672431,23.2088402 19.8203842,24.8130175 L19.8203842,31.0807666 L13.5313217,29.5 L7.46480791,31.0807666 L7.46480791,24.5837046 Z M7.46480791,32.0144447 L13.5313217,30.4378934 L19.8203842,32.0144447 L19.8203842,32.9291817 L13.5313217,31.348415 L7.46480791,32.9291817 L7.46480791,32.0144447 Z" id="合并形状"></path>
                <path d="M13.6384748,1.13910746 C14.4792144,4.06036421 17.9287199,5.20694694 20.286088,3.34796538 C20.4344538,3.2299348 20.6446388,3.38590378 20.5828197,3.56716502 C19.5854716,6.43783723 21.7161697,9.43497077 24.6917288,9.35066322 C24.8813073,9.34644784 24.9596115,9.59515513 24.8030032,9.70475495 C22.3467245,11.424629 22.3467245,15.1341614 24.8030032,16.8540355 C24.9596115,16.9636353 24.8813073,17.2123426 24.6917288,17.2081272 C21.7161697,17.1238197 19.5854716,20.1251686 20.5828197,22.9916254 C20.6446388,23.1728867 20.4385751,23.3288557 20.286088,23.2108251 C17.9245986,21.3518435 14.4792144,22.4984263 13.6384748,25.419683 C13.5848982,25.6051596 13.3293793,25.6051596 13.2758028,25.419683 C12.4350631,22.506857 8.98555763,21.3602743 6.62406823,23.2150405 C6.47570241,23.333071 6.26551749,23.1771021 6.32733658,22.9958408 C7.32468463,20.1251686 5.19398653,17.1280351 2.21842747,17.2123426 C2.02884891,17.216558 1.95054472,16.9678507 2.1071531,16.8582509 C4.56343177,15.1383768 4.56343177,11.4288444 2.1071531,9.70897032 C1.95054472,9.5993705 2.02884891,9.35066322 2.21842747,9.3548786 C5.19398653,9.43918615 7.32468463,6.43783723 6.32733658,3.5713804 C6.26551749,3.39011915 6.47158114,3.23415018 6.62406823,3.35218076 C8.98555763,5.21116232 12.4309418,4.06457959 13.2716815,1.14332284 C13.3293793,0.953630845 13.5848982,0.953630845 13.6384748,1.13910746 Z M7.27935063,13.2836106 C7.27935063,16.7734157 10.0452406,19.6024618 13.4571388,19.6024618 C16.8690369,19.6024618 19.6349269,16.7734157 19.6349269,13.2836106 C19.6349269,9.79380547 16.8690369,6.96475944 13.4571388,6.96475944 C10.0452406,6.96475944 7.27935063,9.79380547 7.27935063,13.2836106 Z" id="合并形状" stroke="#2A9FE4"></path>
            </g>
        </g>
    </g>
</svg>