<?xml version="1.0" encoding="UTF-8"?>
<svg width="16px" height="16px" viewBox="0 0 16 16" version="1.1" xmlns="http://www.w3.org/2000/svg" xmlns:xlink="http://www.w3.org/1999/xlink">
    <!-- Generator: Sketch 52.4 (67378) - http://www.bohemiancoding.com/sketch -->
    <title>未订阅</title>
    <desc>Created with Sketch.</desc>
    <g id="杂项" stroke="none" stroke-width="1" fill="none" fill-rule="evenodd" stroke-linecap="round">
        <g id="iPhone-SE" transform="translate(-268.000000, -53.000000)" fill-rule="nonzero" stroke="#2A9FE4" stroke-width="1.8">
            <g id="Group-6-Copy-4" transform="translate(268.000000, 53.000000)">
                <g id="分组-5" transform="translate(1.000000, 2.000000)">
                    <path d="M11.9998509,9 L11.9998317,12.037082 C11.9998301,12.5893668 11.5521137,13.0370808 10.9998289,13.0370793 C10.7603819,13.0370786 10.5288837,12.9511596 10.347416,12.7949407 L5.99992543,10 L1.65241561,12.7949356 C1.23386032,13.1552547 0.602457809,13.1080451 0.242138618,12.6894898 C0.0859190337,12.5080214 -2.20978791e-12,12.2765221 -2.20978791e-12,12.0370742 L-2.20962138e-12,2.00014914 C-2.20962138e-12,0.895579642 0.8954305,0.000149141242 2,0.000149141242 L10,0.000149141243 C11.1044871,0.000149141243 11.9998509,0.895512869 11.9998509,2" id="路径"></path>
                    <path d="M7,6 L11,6" id="直线"></path>
                    <path d="M9,4 L9,8" id="直线-2"></path>
                </g>
            </g>
        </g>
    </g>
</svg>