<?xml version="1.0" encoding="UTF-8"?>
<svg width="119px" height="18px" viewBox="0 0 119 18" version="1.1" xmlns="http://www.w3.org/2000/svg" xmlns:xlink="http://www.w3.org/1999/xlink">
    <!-- Generator: Sketch 52.4 (67378) - http://www.bohemiancoding.com/sketch -->
    <title>talkmate-logo</title>
    <desc>Created with Sketch.</desc>
    <g id="页面-1" stroke="none" stroke-width="1" fill="none" fill-rule="evenodd">
        <g id="电台主播个人信息" transform="translate(-901.000000, -886.000000)" fill="#E6EBEE">
            <g id="talkmate-logo" transform="translate(901.000000, 886.000000)">
                <path d="M11.2511536,14.435947 L11.2511536,7.4064952 L10,7.4064952 L10,4.41491391 L11.2511536,4.41491391 L11.2511536,1 L14.5429152,1 L14.5429152,4.41491391 L17,4.41491391 L17,7.4064952 L14.5429152,7.4064952 L14.5429152,13.7124837 C14.5429152,14.4855057 14.8672245,14.8592796 15.5636498,14.8592796 C16.0731557,14.8592796 16.5602658,14.7096774 16.9771734,14.4855057 L16.9771734,17.3015475 C16.328124,17.7003324 15.5391005,18 14.5429152,18 C12.6422814,18 11.2511536,17.2024303 11.2511536,14.435947" id="Fill-1"></path>
                <path d="M27.5771749,13.2822809 L27.5771749,12.1413761 C27.0481759,11.8873704 26.3189897,11.7097078 25.5893358,11.7097078 C24.2792329,11.7097078 23.4490178,12.3694628 23.4490178,13.6116871 L23.4490178,13.6621112 C23.4490178,14.7785108 24.1543499,15.3369463 25.1852198,15.3619227 C26.5706268,15.3873704 27.5771749,14.5254477 27.5771749,13.2822809 M20,13.8656927 L20,13.7139491 C20,10.7205467 21.9387278,9.37606032 24.7076707,9.37606032 C25.839102,9.37606032 26.6959775,9.60461828 27.525725,9.93496701 L27.525725,9.52921772 C27.525725,7.95664467 26.5954163,7.14514609 24.984565,7.14514609 C23.7259121,7.14514609 22.7198316,7.55089538 21.8872778,7.90574929 L20.9055192,5.09048068 C22.2156221,4.43166824 23.5743686,4 25.5130964,4 C27.349392,4 28.7352666,4.5070688 29.616464,5.39491046 C30.5467727,6.3336475 31,7.75306315 31,9.50329877 L31,17.7459943 L27.5014032,17.7459943 L27.5014032,16.2747408 C26.6959775,17.3397738 25.5893358,18 24.0028064,18 C21.7871843,18 20,16.5028275 20,13.8656927" id="Fill-4"></path>
                <polygon id="Fill-7" points="34 18 38 18 38 0 34 0"></polygon>
                <polygon id="Fill-9" points="41 0 44.4103615 0 44.4103615 9.57374855 47.91667 4.6363145 51.9040529 4.6363145 47.8211692 9.94713679 52 18 48.1085642 18 45.4662258 12.6396088 44.4103615 14.0608931 44.4103615 18 41 18"></polygon>
                <path d="M55,4.25585353 L58.5303357,4.25585353 L58.5303357,6.10257283 C59.3258392,4.94908794 60.3199877,4 61.9858331,4 C63.5283338,4 64.6458269,4.76946638 65.2676317,6.00013613 C66.236834,4.79471821 67.4314752,4 69.0469664,4 C71.4094549,4 73,5.58991288 73,8.61489246 L73,18 L69.4941484,18 L69.4941484,9.71739722 C69.4941484,8.12748435 68.8219895,7.28226246 67.6541423,7.28226246 C66.4858331,7.28226246 65.7651678,8.12748435 65.7651678,9.71739722 L65.7651678,18 L62.2348322,18 L62.2348322,9.71739722 C62.2348322,8.12748435 61.5890052,7.28226246 60.4188482,7.28226246 C59.2510009,7.28226246 58.5303357,8.12748435 58.5303357,9.71739722 L58.5303357,18 L55,18 L55,4.25585353 Z" id="Fill-10"></path>
                <path d="M83.5771749,13.2822809 L83.5771749,12.1413761 C83.0486436,11.8873704 82.3189897,11.7097078 81.5893358,11.7097078 C80.2792329,11.7097078 79.4494855,12.3694628 79.4494855,13.6116871 L79.4494855,13.6621112 C79.4494855,14.7785108 80.1543499,15.3369463 81.1852198,15.3619227 C82.5710945,15.3873704 83.5771749,14.5254477 83.5771749,13.2822809 M76,13.8656927 L76,13.7139491 C76,10.7205467 77.9387278,9.37606032 80.7076707,9.37606032 C81.839102,9.37606032 82.6959775,9.60461828 83.525725,9.93496701 L83.525725,9.52921772 C83.525725,7.95664467 82.5954163,7.14514609 80.984565,7.14514609 C79.7259121,7.14514609 78.7198316,7.55089538 77.8872778,7.90574929 L76.9055192,5.09048068 C78.2156221,4.43166824 79.5743686,4 81.5130964,4 C83.3498597,4 84.7352666,4.5070688 85.616464,5.39491046 C86.5472404,6.3336475 87,7.75306315 87,9.50329877 L87,17.7459943 L83.5014032,17.7459943 L83.5014032,16.2747408 C82.6959775,17.3397738 81.5893358,18 80.0028064,18 C77.7871843,18 76,16.5028275 76,13.8656927" id="Fill-11"></path>
                <path d="M90.2511536,14.435947 L90.2511536,7.4064952 L89,7.4064952 L89,4.41491391 L90.2511536,4.41491391 L90.2511536,1 L93.5424845,1 L93.5424845,4.41491391 L96,4.41491391 L96,7.4064952 L93.5424845,7.4064952 L93.5424845,13.7124837 C93.5424845,14.4855057 93.8672245,14.8592796 94.5636498,14.8592796 C95.0731557,14.8592796 95.5602658,14.7096774 95.9771734,14.4855057 L95.9771734,17.3015475 C95.328124,17.7003324 94.5391005,18 93.5424845,18 C91.6418507,18 90.2511536,17.2024303 90.2511536,14.435947" id="Fill-12"></path>
                <path d="M105.497896,6.00664993 C106.261089,6.00664993 106.879646,6.569808 106.879646,7.26440004 C106.879646,7.95899208 106.261089,8.52215015 105.497896,8.52215015 C104.734704,8.52215015 104.116147,7.95899208 104.116147,7.26440004 C104.116147,6.569808 104.734704,6.00664993 105.497896,6.00664993 Z M109,10.6479121 L109,5.45718291 C109,4.65397529 108.209327,4 107.237859,4 L99.7534625,4 C98.7863342,4 98,4.65078072 98,5.45079375 L98,9.56175636 C98,14.3180233 100.291024,16.7509209 105.908178,17.9589269 L106.100061,18 L107.113955,15.6223229 L106.914358,15.561626 C103.542908,14.5370799 102.15007,13.0616423 102.292295,10.6479121 L109,10.6479121 Z" id="Fill-13"></path>
                <circle id="Oval-2" cx="116.5" cy="9.5" r="2.5"></circle>
                <circle id="Oval-2-Copy" cx="2.5" cy="9.5" r="2.5"></circle>
            </g>
        </g>
    </g>
</svg>