<?xml version="1.0" encoding="UTF-8"?>
<svg width="167px" height="38px" viewBox="0 0 167 38" version="1.1" xmlns="http://www.w3.org/2000/svg" xmlns:xlink="http://www.w3.org/1999/xlink">
    <!-- Generator: Sketch 52.4 (67378) - http://www.bohemiancoding.com/sketch -->
    <title>分组 7 copy 2</title>
    <desc>Created with Sketch.</desc>
    <defs>
        <polygon id="path-1" points="0 0.0954145455 29.337932 0.0954145455 29.337932 34.6693691 0 34.6693691"></polygon>
    </defs>
    <g id="页面-1" stroke="none" stroke-width="1" fill="none" fill-rule="evenodd">
        <g id="国家-使用语言" transform="translate(-510.000000, -123.000000)">
            <g id="分组-7-copy-2" transform="translate(510.000000, 123.000000)">
                <g id="分组">
                    <path d="M89.2145744,30.7939736 C87.220063,30.7939736 86.2225486,29.4427282 86.2225486,26.7397191 L86.2225486,1.80601909 C86.2225486,1.47006455 85.950656,1.19784636 85.6152758,1.19784636 L80.6432304,1.19784636 L80.6432304,27.5055918 C80.6432304,29.2026373 80.7607169,30.5129464 81.1105888,31.5532827 C81.7452924,33.4399827 83.0171147,34.2942918 83.7625764,34.8237009 C84.6508853,35.3054373 86.4400971,35.7718009 89.2145744,35.7718009 L104.534927,35.7718009 L104.534927,30.7939736 L89.2145744,30.7939736 Z" id="Fill-1" fill="#FFFFFF"></path>
                    <path d="M78.617027,35.6868536 L70.7290373,7.23573545 C69.3547377,3.17077182 67.1675208,1.19788091 64.0329929,1.19788091 C64.0169485,1.19788091 63.9995239,1.19857182 63.9829619,1.19874455 C63.9663999,1.19857182 63.9488028,1.19788091 63.9329309,1.19788091 C60.798403,1.19788091 58.6110135,3.17077182 57.2367139,7.23573545 L49.3364753,35.6561082 L49.3033513,35.7718355 L54.9382212,35.7718355 L61.6033844,10.8379627 C62.0831644,9.00584455 62.4313111,7.89261727 62.7465063,7.41865364 C62.9086757,7.13572636 63.2193854,6.66452636 63.9829619,6.65779 C64.7463658,6.66452636 65.0570755,7.13572636 65.2194175,7.41865364 C65.5346127,7.89261727 65.8827594,9.00584455 66.3625394,10.8379627 L73.0064825,35.7718355 L78.6413524,35.7718355 L78.617027,35.6868536 Z" id="Fill-3" fill="#FFFFFF"></path>
                    <g transform="translate(0.000000, 1.102518)">
                        <mask id="mask-2" fill="white">
                            <use xlink:href="#path-1"></use>
                        </mask>
                        <g id="Clip-6"></g>
                        <path d="M0.024256405,0.180223636 L7.91224607,28.6315145 C9.28654566,32.6964782 11.4737626,34.6693691 14.6082905,34.6693691 C14.6243349,34.6693691 14.6417595,34.6686782 14.6583215,34.6685055 C14.6748835,34.6686782 14.6924806,34.6693691 14.7083525,34.6693691 C17.8430529,34.6693691 20.0302698,32.6964782 21.4045694,28.6315145 L29.3048081,0.210969091 L29.337932,0.0954145455 L23.7030622,0.0954145455 L17.0380715,25.0291145 C16.558119,26.8614055 16.2101448,27.97446 15.8949496,28.4485964 C15.7326076,28.7315236 15.4218979,29.2025509 14.6583215,29.2092873 C13.8949176,29.2025509 13.5843804,28.7315236 13.4218659,28.4485964 C13.1066707,27.97446 12.7586965,26.8614055 12.278744,25.0291145 L5.63480083,0.0954145455 L-6.90082645e-05,0.0954145455 L0.024256405,0.180223636 Z" id="Fill-5" fill="#FFFFFF" mask="url(#mask-2)"></path>
                    </g>
                    <path d="M23.7273186,2.32010321 L31.6153083,30.7713941 C32.9896079,34.8363578 35.1768248,36.8092487 38.3113527,36.8092487 C38.3273971,36.8092487 38.3448217,36.8085578 38.3613837,36.808385 C38.3779457,36.8085578 38.3955428,36.8092487 38.4114147,36.8092487 C41.5461151,36.8092487 43.7335045,34.8363578 45.1076316,30.7713941 L53.0078702,2.35084866 L53.0409942,2.23529412 L47.4061244,2.23529412 L40.7411337,27.1689941 C40.2611812,29.001285 39.913207,30.1143396 39.5980118,30.5884759 C39.4356698,30.8714032 39.1249601,31.3424305 38.3613837,31.3491668 C37.5979798,31.3424305 37.2874426,30.8714032 37.1249281,30.5884759 C36.8097329,30.1143396 36.4617587,29.001285 35.9818062,27.1689941 L29.337863,2.23529412 L23.7029932,2.23529412 L23.7273186,2.32010321 Z" id="Fill-7" fill="#FFFFFF"></path>
                    <polygon id="Fill-9" fill="#FFFFFF" points="118.25634 1.39575727 115.950602 9.64054818 115.675949 9.64054818 113.392293 3.62739364 111.064299 9.64054818 110.80086 9.64054818 108.539114 1.39575727 109.516271 1.39575727 111.064299 7.09023 113.260487 1.39575727 113.523926 1.39575727 115.698031 7.10111182 117.279183 1.39575727"></polygon>
                    <path d="M122.263892,8.77209273 C122.871337,8.77209273 123.389416,8.55065636 123.817613,8.10692 C124.245809,7.66370182 124.459907,7.12859273 124.459907,6.50193818 C124.459907,5.87545636 124.242186,5.33326545 123.806571,4.87502 C123.371129,4.41712 122.85512,4.18808364 122.258543,4.18808364 C121.661795,4.18808364 121.14751,4.41712 120.715691,4.87502 C120.283699,5.33326545 120.067876,5.87735636 120.067876,6.50763818 C120.067876,7.13792 120.276454,7.67285636 120.693781,8.11262 C121.110936,8.55238364 121.634364,8.77209273 122.263892,8.77209273 M122.263892,3.29767455 C123.127703,3.29767455 123.861605,3.60910182 124.4656,4.23195636 C125.069423,4.85498364 125.371334,5.60237455 125.371334,6.47447455 C125.371334,7.34674727 125.072873,8.09241091 124.476469,8.71163818 C123.87972,9.33103818 123.142367,9.64056545 122.263892,9.64056545 C121.385589,9.64056545 120.646165,9.33103818 120.046139,8.71163818 C119.445767,8.09241091 119.145753,7.34674727 119.145753,6.47447455 C119.145753,5.60237455 119.447664,4.85498364 120.051487,4.23195636 C120.655482,3.60910182 121.392662,3.29767455 122.263892,3.29767455" id="Fill-11" fill="#FFFFFF"></path>
                    <path d="M129.137425,3.53933727 L128.665409,4.30883727 C128.540849,4.24285545 128.420084,4.21003727 128.302943,4.21003727 C128.076078,4.21003727 127.870951,4.32179182 127.688252,4.54530091 C127.505035,4.76898273 127.367881,5.06192818 127.276445,5.42465545 C127.184836,5.78755545 127.139118,6.44167364 127.139118,7.38701 L127.139118,9.44281 L126.216823,9.44281 L126.216823,3.45141909 L127.139118,3.45141909 L127.139118,4.10001 C127.322163,3.82900091 127.506933,3.62742818 127.6936,3.49546455 C127.880267,3.36350091 128.092468,3.29769182 128.330374,3.29769182 C128.56828,3.29769182 128.837239,3.37818273 129.137425,3.53933727" id="Fill-13" fill="#FFFFFF"></path>
                    <polygon id="Fill-15" fill="#FFFFFF" points="129.807133 9.44282727 130.707519 9.44282727 130.707519 1.19803636 129.807133 1.19803636"></polygon>
                    <path d="M135.011564,8.79418455 C135.589853,8.79418455 136.105863,8.57810273 136.559937,8.14559364 C137.013494,7.71308455 137.240531,7.16536636 137.240531,6.50192091 C137.240531,5.83899364 137.030056,5.28574818 136.609278,4.84201182 C136.188155,4.39879364 135.657481,4.17701182 135.017085,4.17701182 C134.376515,4.17701182 133.842392,4.40622091 133.414023,4.86412091 C132.985826,5.32219364 132.771728,5.86093 132.771728,6.48015727 C132.771728,7.09938455 132.991347,7.63984818 133.430585,8.10154818 C133.86965,8.56324818 134.396873,8.79418455 135.011564,8.79418455 Z M138.086055,9.44277545 L137.196711,9.44277545 L137.196711,8.56324818 C136.5451,9.28162091 135.79291,9.64054818 134.940313,9.64054818 C134.087543,9.64054818 133.360886,9.32929364 132.760687,8.70609364 C132.160488,8.08341182 131.860302,7.33584818 131.860302,6.46357545 C131.860302,5.59147545 132.163938,4.84598455 132.771728,4.22658455 C133.379174,3.60735727 134.120322,3.29765727 134.995175,3.29765727 C135.869854,3.29765727 136.603757,3.65313 137.196711,4.36390273 L137.196711,1.19781182 L138.086055,1.19781182 L138.086055,9.44277545 Z" id="Fill-17" fill="#FFFFFF"></path>
                    <path d="M113.69969,19.1772182 L112.481004,16.4619455 L111.251277,19.1772182 L113.69969,19.1772182 Z M116.367895,22.8271182 L115.368655,22.8271182 L114.127886,20.1336091 L110.812039,20.1336091 L109.582312,22.8271182 L108.539079,22.8271182 L112.338157,14.4612455 L112.623679,14.4612455 L116.367895,22.8271182 Z" id="Fill-18" fill="#FFFFFF"></path>
                    <path d="M120.035114,17.6272327 L118.84938,17.6272327 L118.84938,21.8265782 C118.84938,21.9804782 118.87129,22.0739236 118.915283,22.1070873 C118.959103,22.1399055 119.068826,22.1564873 119.244625,22.1564873 L119.771675,22.1564873 L119.771675,22.9368691 C119.420251,22.9957691 119.153016,23.02496 118.969972,23.02496 C118.61872,23.02496 118.358731,22.9389418 118.190524,22.76656 C118.021971,22.5945236 117.937953,22.3214418 117.937953,21.94766 L117.937953,17.6272327 L116.905762,17.6272327 L116.905762,16.8357964 L117.937953,16.8357964 L117.937953,14.5822236 L118.84938,14.5822236 L118.84938,16.8357964 L120.035114,16.8357964 L120.035114,17.6272327 Z" id="Fill-19" fill="#FFFFFF"></path>
                    <polygon id="Fill-20" fill="#FFFFFF" points="120.891265 22.8271182 121.791651 22.8271182 121.791651 14.5823273 120.891265 14.5823273"></polygon>
                    <path d="M126.084965,22.1785273 C126.692411,22.1785273 127.216011,21.9586455 127.655249,21.5188818 C128.094314,21.0791182 128.313932,20.5314 128.313932,19.8753818 C128.313932,19.2195364 128.097937,18.6700909 127.666117,18.2263545 C127.234126,17.7831364 126.70535,17.5613545 126.079617,17.5613545 C125.453712,17.5613545 124.924592,17.7905636 124.492772,18.2484636 C124.060953,18.7065364 123.84513,19.247 123.84513,19.8698545 C123.84513,20.4928818 124.064576,21.0333455 124.503814,21.4912455 C124.943051,21.9494909 125.470274,22.1785273 126.084965,22.1785273 Z M129.159284,22.8271182 L128.26994,22.8271182 L128.26994,21.9475909 C127.618502,22.6657909 126.868209,23.0248909 126.019063,23.0248909 C125.169743,23.0248909 124.443431,22.7115636 123.839437,22.0850818 C123.235614,21.4584273 122.933703,20.7108636 122.933703,19.8423909 C122.933703,18.9739182 123.237339,18.2303273 123.84513,17.6109273 C124.452575,16.9917 125.193724,16.682 126.068404,16.682 C126.943256,16.682 127.677159,17.0374727 128.26994,17.7482455 L128.26994,16.8357273 L129.159284,16.8357273 L129.159284,22.8271182 Z" id="Fill-21" fill="#FFFFFF"></path>
                    <path d="M133.814857,17.5393491 L133.232945,18.1440673 C132.800953,17.7410945 132.405536,17.5393491 132.047038,17.5393491 C131.820001,17.5393491 131.629883,17.6108582 131.475995,17.7537036 C131.322451,17.8965491 131.245335,18.0725582 131.245335,18.2813855 C131.245335,18.4902127 131.331422,18.6734764 131.503598,18.8311764 C131.675429,18.9887036 131.981135,19.1828491 132.420373,19.4137855 C132.85961,19.6445491 133.198096,19.8991491 133.436002,20.1775855 C133.673908,20.4563673 133.792775,20.7969855 133.792775,21.1999582 C133.792775,21.7131309 133.615423,22.1454673 133.260376,22.49714 C132.905328,22.8489855 132.467816,23.0249945 131.948356,23.0249945 C131.223424,23.0249945 130.619602,22.7171945 130.136544,22.1014218 L130.707415,21.4638855 C131.10266,21.9257582 131.505151,22.1563491 131.915232,22.1563491 C132.193508,22.1563491 132.431242,22.0648036 132.62895,21.8817127 C132.826486,21.6984491 132.925513,21.4840945 132.925513,21.2384764 C132.925513,20.9930309 132.83563,20.7878309 132.656381,20.6230491 C132.47696,20.4579218 132.169528,20.2656764 131.734086,20.0457945 C131.298471,19.8259127 130.969129,19.5823673 130.745887,19.31464 C130.522473,19.0472582 130.411025,18.6954127 130.411025,18.2594491 C130.411025,17.8234855 130.570089,17.4514309 130.888562,17.1436309 C131.207035,16.8358309 131.627813,16.6819309 132.15124,16.6819309 C132.674668,16.6819309 133.228977,16.9676218 133.814857,17.5393491" id="Fill-22" fill="#FFFFFF"></path>
                    <path d="M140.545354,22.1564355 C141.152799,22.1564355 141.670879,21.9349991 142.099075,21.4912627 C142.527271,21.0480445 142.74137,20.5129355 142.74137,19.8862809 C142.74137,19.2596264 142.523648,18.7176082 142.088034,18.2593627 C141.652592,17.8014627 141.136582,17.5724264 140.540006,17.5724264 C139.943257,17.5724264 139.428973,17.8014627 138.997154,18.2593627 C138.565162,18.7176082 138.349339,19.2615264 138.349339,19.8919809 C138.349339,20.5222627 138.557916,21.0571991 138.975243,21.4969627 C139.392398,21.9367264 139.915826,22.1564355 140.545354,22.1564355 M140.545354,16.6820173 C141.409165,16.6820173 142.143068,16.9934445 142.747063,17.6162991 C143.350885,18.2393264 143.652796,18.9867173 143.652796,19.8588173 C143.652796,20.73109 143.354335,21.4767536 142.757932,22.0959809 C142.161183,22.7153809 141.423829,23.0249082 140.545354,23.0249082 C139.667051,23.0249082 138.927628,22.7153809 138.327601,22.0959809 C137.727229,21.4767536 137.427216,20.73109 137.427216,19.8588173 C137.427216,18.9867173 137.729127,18.2393264 138.332949,17.6162991 C138.936944,16.9934445 139.674125,16.6820173 140.545354,16.6820173" id="Fill-23" fill="#FFFFFF"></path>
                    <path d="M147.451908,15.6595927 C147.100656,15.5129473 146.826003,15.4397109 146.628467,15.4397109 C146.430758,15.4397109 146.302576,15.5039655 146.244091,15.6321291 C146.185434,15.7602927 146.156278,15.9746473 146.156278,16.27502 L146.156278,16.8358655 L147.375136,16.8358655 L147.375136,17.6273018 L146.156278,17.6273018 L146.156278,22.8270836 L145.244851,22.8270836 L145.244851,17.6273018 L144.487313,17.6273018 L144.487313,16.8358655 L145.244851,16.8358655 L145.244851,16.1541109 C145.244851,15.6120927 145.345431,15.2143018 145.546935,14.9614291 C145.748094,14.7085564 146.06467,14.5822927 146.496661,14.5822927 C146.730772,14.5822927 147.049245,14.63722 147.451908,14.7470745 L147.451908,15.6595927 Z" id="Fill-24" fill="#FFFFFF"></path>
                    <polygon id="Fill-25" fill="#FFFFFF" points="112.524738 35.7718527 108.538993 35.7718527 108.538993 27.7248345 109.494413 27.7248345 109.494413 34.8593345 112.524738 34.8593345"></polygon>
                    <path d="M116.37866,35.1232964 C116.986105,35.1232964 117.509705,34.9034145 117.948943,34.4636509 C118.388008,34.0238873 118.607627,33.4761691 118.607627,32.8201509 C118.607627,32.1643055 118.391631,31.6146873 117.959812,31.1711236 C117.52782,30.7279055 116.999044,30.5061236 116.373312,30.5061236 C115.747407,30.5061236 115.218286,30.7353327 114.786467,31.19306 C114.354647,31.6511327 114.138824,32.1917691 114.138824,32.8146236 C114.138824,33.4376509 114.35827,33.9781145 114.797508,34.4360145 C115.236746,34.89426 115.763969,35.1232964 116.37866,35.1232964 Z M119.452978,35.7718873 L118.563634,35.7718873 L118.563634,34.89236 C117.912196,35.61056 117.161904,35.96966 116.312757,35.96966 C115.463438,35.96966 114.737126,35.6563327 114.133131,35.0298509 C113.529309,34.4031964 113.227397,33.6556327 113.227397,32.78716 C113.227397,31.9186873 113.531034,31.1749236 114.138824,30.5555236 C114.746269,29.9362964 115.487418,29.6265964 116.362098,29.6265964 C117.23695,29.6265964 117.970853,29.9820691 118.563634,30.6930145 L118.563634,29.7804964 L119.452978,29.7804964 L119.452978,35.7718873 Z" id="Fill-26" fill="#FFFFFF"></path>
                    <path d="M126.238612,35.7718527 L125.338227,35.7718527 L125.338227,32.9135618 C125.338227,32.2540891 125.307173,31.8051709 125.244893,31.5668073 C125.182613,31.3287891 125.09135,31.1270436 124.970413,30.9622618 C124.849649,30.7973073 124.696105,30.6746709 124.509438,30.5940073 C124.32277,30.5135164 124.095561,30.4730982 123.828499,30.4730982 C123.561092,30.4730982 123.29955,30.53908 123.043357,30.6710436 C122.787164,30.8028345 122.567545,30.9860982 122.384673,31.2204891 C122.201629,31.4552255 122.075344,31.7042982 122.005818,31.9682255 C121.936292,32.23198 121.901443,32.7596618 121.901443,33.5512709 L121.901443,35.7718527 L120.990189,35.7718527 L120.990189,29.7804618 L121.901443,29.7804618 L121.901443,30.6819255 C122.494396,29.9784073 123.197246,29.6265618 124.009645,29.6265618 C124.441465,29.6265618 124.833259,29.7383164 125.184684,29.9618255 C125.535936,30.1855073 125.799375,30.4933073 125.975173,30.8853982 C126.150799,31.2773164 126.238612,31.8803073 126.238612,32.69368 L126.238612,35.7718527 Z" id="Fill-27" fill="#FFFFFF"></path>
                    <path d="M132.793725,32.6826773 C132.793725,32.0525682 132.583249,31.5323136 132.162472,31.1217409 C131.741349,30.7113409 131.227237,30.5059682 130.619619,30.5059682 C129.975427,30.5059682 129.435437,30.7279227 129.000168,31.1711409 C128.564381,31.6145318 128.346832,32.1294318 128.346832,32.7156682 C128.346832,33.3020773 128.55541,33.7984955 128.972737,34.2052682 C129.390065,34.6120409 129.924189,34.8155136 130.575799,34.8155136 C131.227237,34.8155136 131.759808,34.6156682 132.17334,34.2163227 C132.586872,33.8168045 132.793725,33.3057045 132.793725,32.6826773 Z M133.6722,34.3646955 C133.6722,35.1561318 133.604399,35.7427136 133.468971,36.1235773 C133.333542,36.5046136 133.128587,36.8270955 132.854107,37.09085 C132.579627,37.3547773 132.250285,37.55445 131.865909,37.6900409 C131.481705,37.8256318 131.058857,37.8935136 130.597709,37.8935136 C129.038467,37.8935136 127.99903,37.2340409 127.479398,35.91475 L128.445686,35.91475 C128.870087,36.6768227 129.576732,37.0580318 130.564758,37.0580318 C131.018487,37.0580318 131.424773,36.9699409 131.783616,36.7942773 C132.142114,36.6182682 132.394684,36.3838773 132.541154,36.0905864 C132.687624,35.7974682 132.760773,35.3468227 132.760773,34.7383045 L132.760773,34.68355 C132.475252,35.0060318 132.131073,35.2514773 131.728582,35.4200591 C131.325919,35.5886409 130.908764,35.6729318 130.476945,35.6729318 C129.612961,35.6729318 128.890272,35.3760136 128.30836,34.78235 C127.726448,34.1888591 127.439028,33.4889682 127.446447,32.6826773 C127.439028,31.8399409 127.74301,31.1200136 128.357701,30.52255 C128.972737,29.9252591 129.702845,29.6266136 130.548196,29.6266136 C131.393892,29.6266136 132.131073,29.9712045 132.760773,30.6600409 L132.760773,29.7805136 L133.6722,29.7805136 L133.6722,34.3646955 Z" id="Fill-28" fill="#FFFFFF"></path>
                    <path d="M140.23806,35.7718527 L139.326806,35.7718527 L139.326806,34.8703891 C138.73368,35.5739073 138.031003,35.9257527 137.218431,35.9257527 C136.786439,35.9257527 136.395162,35.8139982 136.043738,35.5903164 C135.692313,35.3668073 135.428702,35.05918 135.253076,34.6670891 C135.07745,34.2749982 134.989637,33.67218 134.989637,32.8586345 L134.989637,29.7804618 L135.890022,29.7804618 L135.890022,32.6387527 C135.890022,33.2983982 135.921076,33.7473164 135.983356,33.9853345 C136.045291,34.2236982 136.137072,34.4250982 136.257836,34.5900527 C136.378601,34.7548345 136.532316,34.8776436 136.718984,34.9583073 C136.905651,35.0391436 137.132343,35.0792164 137.39975,35.0792164 C137.666812,35.0792164 137.928354,35.0132345 138.184892,34.8814436 C138.440912,34.74948 138.660359,34.5663891 138.843576,34.3316527 C139.026448,34.0972618 139.152733,33.8480164 139.222259,33.5840891 C139.291957,33.3203345 139.326806,32.7926527 139.326806,32.0012164 L139.326806,29.7804618 L140.23806,29.7804618 L140.23806,35.7718527 Z" id="Fill-29" fill="#FFFFFF"></path>
                    <path d="M144.640874,35.1232964 C145.248319,35.1232964 145.771919,34.9034145 146.211157,34.4636509 C146.650222,34.0238873 146.869841,33.4761691 146.869841,32.8201509 C146.869841,32.1643055 146.653845,31.6146873 146.222026,31.1711236 C145.790034,30.7279055 145.261258,30.5061236 144.635526,30.5061236 C144.009621,30.5061236 143.4805,30.7353327 143.048681,31.19306 C142.616861,31.6511327 142.401038,32.1917691 142.401038,32.8146236 C142.401038,33.4376509 142.620484,33.9781145 143.059722,34.4360145 C143.49896,34.89426 144.026183,35.1232964 144.640874,35.1232964 Z M147.715192,35.7718873 L146.825848,35.7718873 L146.825848,34.89236 C146.17441,35.61056 145.424118,35.96966 144.574971,35.96966 C143.725652,35.96966 142.99934,35.6563327 142.395345,35.0298509 C141.791523,34.4031964 141.489611,33.6556327 141.489611,32.78716 C141.489611,31.9186873 141.793248,31.1749236 142.401038,30.5555236 C143.008483,29.9362964 143.749632,29.6265964 144.624312,29.6265964 C145.499164,29.6265964 146.233067,29.9820691 146.825848,30.6930145 L146.825848,29.7804964 L147.715192,29.7804964 L147.715192,35.7718873 Z" id="Fill-30" fill="#FFFFFF"></path>
                    <path d="M154.358135,32.6826773 C154.358135,32.0525682 154.147659,31.5323136 153.726881,31.1217409 C153.305758,30.7113409 152.791647,30.5059682 152.184029,30.5059682 C151.539837,30.5059682 150.999847,30.7279227 150.564578,31.1711409 C150.12879,31.6145318 149.911242,32.1294318 149.911242,32.7156682 C149.911242,33.3020773 150.119819,33.7984955 150.537147,34.2052682 C150.954474,34.6120409 151.488598,34.8155136 152.140209,34.8155136 C152.791647,34.8155136 153.324218,34.6156682 153.73775,34.2163227 C154.151282,33.8168045 154.358135,33.3057045 154.358135,32.6826773 Z M155.23661,34.3646955 C155.23661,35.1561318 155.168809,35.7427136 155.03338,36.1235773 C154.897952,36.5046136 154.692997,36.8270955 154.418517,37.09085 C154.144036,37.3547773 153.814694,37.55445 153.430318,37.6900409 C153.046115,37.8256318 152.623267,37.8935136 152.162119,37.8935136 C150.602877,37.8935136 149.56344,37.2340409 149.043808,35.91475 L150.010096,35.91475 C150.434497,36.6768227 151.141142,37.0580318 152.129168,37.0580318 C152.582897,37.0580318 152.989183,36.9699409 153.348026,36.7942773 C153.706524,36.6182682 153.959094,36.3838773 154.105564,36.0905864 C154.252034,35.7974682 154.325183,35.3468227 154.325183,34.7383045 L154.325183,34.68355 C154.039661,35.0060318 153.695483,35.2514773 153.292992,35.4200591 C152.890329,35.5886409 152.473174,35.6729318 152.041355,35.6729318 C151.177371,35.6729318 150.454682,35.3760136 149.87277,34.78235 C149.290858,34.1888591 149.003438,33.4889682 149.010857,32.6826773 C149.003438,31.8399409 149.30742,31.1200136 149.922111,30.52255 C150.537147,29.9252591 151.267254,29.6266136 152.112606,29.6266136 C152.958302,29.6266136 153.695483,29.9712045 154.325183,30.6600409 L154.325183,29.7805136 L155.23661,29.7805136 L155.23661,34.3646955 Z" id="Fill-31" fill="#FFFFFF"></path>
                    <path d="M161.528024,32.1331109 C161.418129,31.6201109 161.169181,31.2205927 160.781355,30.9349018 C160.393183,30.6488655 159.946872,30.50602 159.441732,30.50602 C158.416787,30.50602 157.736193,31.0485564 157.399432,32.1331109 L161.528024,32.1331109 Z M162.53796,32.9356018 L157.289709,32.9356018 C157.326283,33.5952473 157.5478,34.1246564 157.953914,34.5241745 C158.3602,34.92352 158.844983,35.1233655 159.40878,35.1233655 C160.36765,35.1233655 161.099828,34.6504382 161.604796,33.7051018 L162.373375,34.10082 C162.029197,34.7383564 161.623083,35.2095564 161.154689,35.5133836 C160.686123,35.8177291 160.126121,35.9697291 159.474683,35.9697291 C158.574298,35.9697291 157.831251,35.6602018 157.245716,35.0408018 C156.660009,34.4215745 156.367414,33.6759109 156.367414,32.8036382 C156.367414,31.9315382 156.661906,31.1839745 157.251237,30.5609473 C157.840395,29.9382655 158.570502,29.6264927 159.441732,29.6264927 C160.312789,29.6264927 161.041171,29.9216836 161.626706,30.5115473 C162.212414,31.1015836 162.516223,31.9096018 162.53796,32.9356018 Z" id="Fill-32" fill="#FFFFFF"></path>
                    <path d="M166.897212,30.4841182 L166.3153,31.0886636 C165.883308,30.6856909 165.487891,30.4841182 165.129393,30.4841182 C164.902356,30.4841182 164.712238,30.5554545 164.55835,30.6984727 C164.404806,30.8413182 164.327689,31.0173273 164.327689,31.2261545 C164.327689,31.4349818 164.413777,31.6182455 164.585953,31.7759455 C164.757783,31.9334727 165.06349,32.1276182 165.502728,32.3585545 C165.941965,32.5893182 166.280451,32.8439182 166.518357,33.1223545 C166.756263,33.4011364 166.87513,33.7417545 166.87513,34.1447273 C166.87513,34.6579 166.697778,35.0902364 166.342731,35.4419091 C165.987683,35.7937545 165.550171,35.9697636 165.030711,35.9697636 C164.305779,35.9697636 163.701957,35.6619636 163.218899,35.0461909 L163.78977,34.4086545 C164.185015,34.8705273 164.587506,35.1011182 164.997587,35.1011182 C165.275863,35.1011182 165.513596,35.0095727 165.711305,34.8264818 C165.908841,34.6432182 166.007868,34.4288636 166.007868,34.1832455 C166.007868,33.9378 165.917985,33.7326 165.738736,33.5678182 C165.559314,33.4026909 165.251883,33.2104455 164.81644,32.9905636 C164.380826,32.7706818 164.051484,32.5271364 163.828242,32.2594091 C163.604828,31.9920273 163.49338,31.6401818 163.49338,31.2042182 C163.49338,30.7682545 163.652444,30.3960273 163.970917,30.0884 C164.28939,29.7806 164.710168,29.6265273 165.233595,29.6265273 C165.757023,29.6265273 166.311332,29.9123909 166.897212,30.4841182" id="Fill-33" fill="#FFFFFF"></path>
                    <path d="M145.808752,2.87406091 L146.441558,2.87406091 C146.592514,2.87406091 146.677739,2.99462455 146.698096,3.23627 C146.708448,3.49777909 146.742607,3.74978818 146.803161,3.99160636 L147.451839,3.99160636 C147.381106,3.88054273 147.330902,3.65910636 147.300884,3.32695182 C147.300884,3.30639727 147.296571,3.27720636 147.286392,3.23627 C147.266034,2.83398818 147.100415,2.62792455 146.78867,2.61704273 L146.78867,2.60236091 C147.161142,2.51098818 147.35195,2.28471545 147.361438,1.92233364 C147.35195,1.44906091 147.030544,1.20810636 146.396358,1.19791545 L145.205965,1.19791545 L145.205965,3.99160636 L145.808752,3.99160636 L145.808752,2.87406091 Z M145.808752,1.66600636 L146.306647,1.66600636 C146.587338,1.65581545 146.727942,1.77119727 146.727942,2.01301545 C146.727942,2.27435182 146.587338,2.40510636 146.306647,2.40510636 L145.808752,2.40510636 L145.808752,1.66600636 Z" id="Fill-34" fill="#FFFFFF"></path>
                    <path d="M146.216298,0.585839091 C147.320603,0.585839091 148.221678,1.48851182 148.221678,2.59500273 C148.221678,3.70166636 147.320603,4.60433909 146.216298,4.60433909 C145.111993,4.60433909 144.210918,3.70166636 144.210918,2.59500273 C144.210918,1.48851182 145.111993,0.585839091 146.216298,0.585839091 M146.216298,0.000120909091 C147.643561,0.000120909091 148.806351,1.16499364 148.806351,2.59500273 C148.806351,4.02518455 147.643561,5.19005727 146.216298,5.19005727 C144.789035,5.19005727 143.626245,4.02518455 143.626245,2.59500273 C143.626245,1.16499364 144.789035,0.000120909091 146.216298,0.000120909091" id="Fill-35" fill="#FFFFFF"></path>
                </g>
            </g>
        </g>
    </g>
</svg>