<?xml version="1.0" encoding="UTF-8"?>
<svg width="28px" height="22px" viewBox="0 0 28 22" version="1.1" xmlns="http://www.w3.org/2000/svg" xmlns:xlink="http://www.w3.org/1999/xlink">
    <!-- Generator: Sketch 52.4 (67378) - http://www.bohemiancoding.com/sketch -->
    <title>小皇冠</title>
    <desc>Created with Sketch.</desc>
    <defs>
        <linearGradient x1="50%" y1="0%" x2="50%" y2="100%" id="linearGradient-1">
            <stop stop-color="#FFE000" offset="0%"></stop>
            <stop stop-color="#FFBE00" offset="100%"></stop>
        </linearGradient>
        <linearGradient x1="43.2776477%" y1="54.32424%" x2="67.8513973%" y2="80.3054613%" id="linearGradient-2">
            <stop stop-color="#FFE000" offset="0%"></stop>
            <stop stop-color="#FFBE00" offset="100%"></stop>
        </linearGradient>
    </defs>
    <g id="页面-1" stroke="none" stroke-width="1" fill="none" fill-rule="evenodd">
        <g id="电台付费" transform="translate(-709.000000, -758.000000)">
            <g id="分组-6" transform="translate(680.000000, 745.000000)">
                <g id="小皇冠" transform="translate(29.000000, 13.000000)">
                    <polygon id="Fill-1" fill="url(#linearGradient-1)" points="19.3950051 11.5976115 14.2053335 3.8224956 8.90453333 11.5976115 1.78728327 6.98904343 5.1247744 18.0709523 14.2053335 18.0709523 23.2858926 18.0709523 26.4433084 6.98904343"></polygon>
                    <polygon id="Fill-1" fill="url(#linearGradient-2)" points="19.3307988 11.5828083 14.1411272 3.80769231 5.06056805 18.056149 14.1411272 18.056149"></polygon>
                    <path d="M7.60426587,21.9807372 L20.6412956,21.9807372 C22.0442694,21.9807372 23.1816043,20.8434023 23.1816043,19.4404286 L5.06395722,19.4404286 L5.06395722,19.4404286 C5.06395722,20.8434023 6.20129214,21.9807372 7.60426587,21.9807372 Z" id="Fill-3" fill="#FFBE00"></path>
                    <polygon id="Fill-4" fill="#FFC000" points="5.12487378 19.0394994 23.2425208 19.0394994 23.2425208 18.0710843 5.12487378 18.0710843"></polygon>
                    <ellipse id="椭圆形" fill="#FFDE00" fill-rule="nonzero" cx="14.2153846" cy="2.11538462" rx="2.15384615" ry="2.11538462"></ellipse>
                    <ellipse id="椭圆形-copy-3" fill="#FFDE00" fill-rule="nonzero" cx="1.31764706" cy="6.37869822" rx="1.31764706" ry="1.30177515"></ellipse>
                    <ellipse id="椭圆形-copy-4" fill="#FFDE00" fill-rule="nonzero" cx="26.6823529" cy="6.37869822" rx="1.31764706" ry="1.30177515"></ellipse>
                </g>
            </g>
        </g>
    </g>
</svg>