<?xml version="1.0" standalone="no"?><!DOCTYPE svg PUBLIC "-//W3C//DTD SVG 1.1//EN" "http://www.w3.org/Graphics/SVG/1.1/DTD/svg11.dtd"><svg t="1548126166402" class="icon" style="" viewBox="0 0 1024 1024" version="1.1" xmlns="http://www.w3.org/2000/svg" p-id="7375" xmlns:xlink="http://www.w3.org/1999/xlink" width="200" height="200"><defs><style type="text/css"></style></defs><path d="M621.196 665.826c-70.739 86.784-152.378 139.298-247.128 139.298-160.259 0-214.676-140.204-138.803-232.261 16.555-20.044 44.7-39.95 88.383-50.699 68.313-16.733 177.079 6.236 278.99 39.773C620.958 528.254 636.385 512 647.882 446H314v-33h165v-34H280v-32h199v-91.076S495.728 247 509.623 247H578v100h199v32H578v34h169.089c-15.142 66-38.508 130.78-67.373 180.79 45.072 16.25 222.328 83.435 244.044 91.502 22.734-53.598 35.327-111.868 35.327-173.755 0-246.918-200.166-446.75-447.086-446.75S64.914 265.123 64.914 512.041c0 246.92 200.166 447.17 447.086 447.17 146.821 0 276.704-71.048 358.214-180.338-66.849-29.527-178.655-79.313-249.018-113.047z" fill="#ffffff" p-id="7376"></path><path d="M339.714 565.043c-20.07 1.987-57.741 10.852-78.343 29.014-61.756 53.666-24.806 151.83 100.149 151.83 72.622 0 145.213-46.319 202.222-120.439-81.078-39.464-149.805-67.71-224.028-60.405z" fill="#ffffff" p-id="7377"></path></svg>