<?xml version="1.0" encoding="UTF-8"?>
<svg width="16px" height="15px" viewBox="0 0 16 15" version="1.1" xmlns="http://www.w3.org/2000/svg" xmlns:xlink="http://www.w3.org/1999/xlink">
    <!-- Generator: Sketch 52.4 (67378) - http://www.bohemiancoding.com/sketch -->
    <title>分组 2</title>
    <desc>Created with Sketch.</desc>
    <g id="页面-1" stroke="none" stroke-width="1" fill="none" fill-rule="evenodd" stroke-linecap="round">
        <g id="电台详情-copy" transform="translate(-1446.000000, -436.000000)" stroke="#90A2AE">
            <g id="分组-5" transform="translate(1297.000000, 434.000000)">
                <g id="分组-2" transform="translate(150.000000, 3.000000)">
                    <path d="M5,6.27586207 C3.24273034,6.27586207 1.81818182,4.87096249 1.81818182,3.13793103 C1.81818182,1.40489958 3.24273034,0 5,0 C6.75726966,0 8.18181818,1.40489958 8.18181818,3.13793103 C8.18181818,4.87096249 6.75726966,6.27586207 5,6.27586207 Z M0,13 L0,11.2068966 C0,8.48356141 2.23857625,6.27586207 5,6.27586207 C7.76142375,6.27586207 10,8.48356141 10,11.2068966 L10,13" id="形状"></path>
                    <path d="M10,1 C11.4058157,1 12.5454545,2.12391966 12.5454545,3.51034483 C12.5454545,4.89676999 11.4058157,6.02068966 10,6.02068966 M10,6.02068966 C12.209139,6.02068966 14,7.78684912 14,9.96551724 L14,11.4" id="形状"></path>
                </g>
            </g>
        </g>
    </g>
</svg>