<?xml version="1.0" encoding="UTF-8"?>
<svg width="14px" height="10px" viewBox="0 0 14 10" version="1.1" xmlns="http://www.w3.org/2000/svg" xmlns:xlink="http://www.w3.org/1999/xlink">
    <!-- Generator: Sketch 52.4 (67378) - http://www.bohemiancoding.com/sketch -->
    <title>路径</title>
    <desc>Created with Sketch.</desc>
    <g id="页面-1" stroke="none" stroke-width="1" fill="none" fill-rule="evenodd">
        <g id="世语图-登录选择语种" transform="translate(-604.000000, -1148.000000)" fill-rule="nonzero" stroke="#FFFFFF">
            <g id="推荐电台" transform="translate(370.000000, 981.000000)">
                <g id="分组-8-copy-4" transform="translate(225.000000, 95.000000)">
                    <path d="M21.2330927,77.1944064 L20.0568647,77.1944064 L20.0568647,76.6944064 C20.0568647,73.9979114 18.512062,72.9324324 16.2162162,72.9324324 C13.9106192,72.9324324 12.3754761,73.9851072 12.3754761,76.6827254 L12.3754761,77.1827254 L11.2175642,77.1827254 C10.5559922,77.1827254 10.0172866,77.7204451 10.0171217,78.3670555 L10.0430779,79.3837259 C10.0430779,80.04326 10.5817734,80.5809897 11.2433554,80.5809897 L12.4320985,80.5809898 C12.456549,80.5809734 12.4770684,80.5634122 12.4966484,80.4705504 C12.4980507,80.4659673 12.4987629,80.4612101 12.4987763,80.4600465 L12.472973,76.7450757 C12.472973,74.0993903 13.8461922,73.053079 16.2112573,73.0296217 C18.5465272,73.00646 19.9594595,74.099158 19.959445,76.7605634 L19.9316763,80.4059028 C19.9316763,80.4140786 19.9336292,80.4213543 19.9705029,80.4987791 C19.9776049,80.5176754 19.9959795,80.5303956 20.0163242,80.5304118 L21.2053096,80.5304118 C21.8668658,80.5304118 22.4054955,79.9927078 22.4057132,79.3183965 L22.4332787,78.3918531 C22.4332787,77.7321861 21.8946333,77.1944064 21.2330927,77.1944064 Z" id="路径"></path>
                </g>
            </g>
        </g>
    </g>
</svg>