<?xml version="1.0" encoding="UTF-8" standalone="no"?>
<svg width="16px" height="16px" viewBox="0 0 16 16" version="1.1" xmlns="http://www.w3.org/2000/svg" xmlns:xlink="http://www.w3.org/1999/xlink">
    <!-- Generator: Sketch 49.3 (51167) - http://www.bohemiancoding.com/sketch -->
    <title>icon-分享</title>
    <desc>Created with Sketch.</desc>
    <defs></defs>
    <g id="发现" stroke="none" stroke-width="1" fill="none" fill-rule="evenodd">
        <g id="底部操作栏" transform="translate(-1303.000000, -2162.000000)" fill="#FFFFFF" fill-rule="nonzero">
            <g id="Group" transform="translate(0.000000, 2145.000000)">
                <g id="底部播放">
                    <g id="icon-分享" transform="translate(1303.000000, 17.000000)">
                        <path d="M15.3536814,9.73370771 C14.9968407,9.73370771 14.7073628,10.0228373 14.7073628,10.381067 L14.7073628,13.3996524 C14.7073628,14.0524669 14.1775636,14.6961893 13.6313788,14.6961893 L2.41231593,14.6961893 C1.85338688,14.6961893 1.31084337,14.0524669 1.31084337,13.3996524 L1.31084337,2.19302046 C1.31084337,1.57475598 1.86066934,1.29653697 2.41231593,1.29653697 L5.18875502,1.29653697 C5.54559572,1.29653697 5.83689424,1.00740741 5.83689424,0.650996122 C5.83689424,0.294584838 5.54741633,0.00545527477 5.18875502,0.00545527477 L2.41231593,0.00545527477 C1.01954485,0.00545527477 0,0.925578286 0,2.19302046 L0,13.3996524 C0,14.7780185 1.13242303,15.987271 2.41231593,15.987271 L13.6313788,15.987271 C14.8967068,15.987271 16,14.7780185 16,13.3996524 L16,10.381067 C16,10.0246557 15.7105221,9.73370771 15.3536814,9.73370771 Z" id="Shape"></path>
                        <path d="M15.3609639,0.00545527477 L9.96465863,0.00545527477 C9.60781794,0.00545527477 9.31651941,0.294584838 9.31651941,0.650996122 C9.31651941,1.00740741 9.60599732,1.29653697 9.96465863,1.29653697 L13.7242303,1.29653697 L9.09365462,6.37165396 C8.84787149,6.63168873 8.86243641,7.04083434 9.12278447,7.2863217 C9.24840696,7.4027009 9.40680054,7.46089049 9.56519411,7.46089049 C9.73815261,7.46089049 9.9092905,7.39179035 10.0367336,7.2572269 L14.7073628,2.14028613 L14.7073628,6.04262602 C14.7073628,6.3990373 14.9968407,6.68998529 15.3536814,6.68998529 C15.7105221,6.68998529 16,6.40085573 16,6.04262602 L16,0.652814547 C16,0.294584838 15.7178046,0.00545527477 15.3609639,0.00545527477 Z" id="Shape"></path>
                    </g>
                </g>
            </g>
        </g>
    </g>
</svg>