<?xml version="1.0" encoding="UTF-8"?>
<svg width="145px" height="80px" viewBox="0 0 145 80" version="1.1" xmlns="http://www.w3.org/2000/svg" xmlns:xlink="http://www.w3.org/1999/xlink">
    <!-- Generator: Sketch 52.4 (67378) - http://www.bohemiancoding.com/sketch -->
    <title>电台</title>
    <desc>Created with Sketch.</desc>
    <defs>
        <linearGradient x1="40.6339198%" y1="61.585165%" x2="40.6339198%" y2="184.485744%" id="linearGradient-1">
            <stop stop-color="#F6F6F6" offset="0%"></stop>
            <stop stop-color="#DFDFDF" offset="100%"></stop>
        </linearGradient>
        <linearGradient x1="90.3255296%" y1="-24.4297611%" x2="15.4938517%" y2="130.520907%" id="linearGradient-2">
            <stop stop-color="#F7F7F7" offset="0%"></stop>
            <stop stop-color="#DFDFDF" offset="100%"></stop>
        </linearGradient>
        <linearGradient x1="50%" y1="0%" x2="50%" y2="100%" id="linearGradient-3">
            <stop stop-color="#F6F6F6" offset="0%"></stop>
            <stop stop-color="#DFDFDF" offset="100%"></stop>
        </linearGradient>
        <linearGradient x1="77.450124%" y1="-47.8451355%" x2="82.0632645%" y2="107.229962%" id="linearGradient-4">
            <stop stop-color="#FFFFFF" offset="0%"></stop>
            <stop stop-color="#E6E6E6" offset="100%"></stop>
        </linearGradient>
        <linearGradient x1="50%" y1="0%" x2="50%" y2="100%" id="linearGradient-5">
            <stop stop-color="#EFEFEF" offset="0%"></stop>
            <stop stop-color="#DFDFDF" offset="100%"></stop>
        </linearGradient>
        <linearGradient x1="50%" y1="0%" x2="50%" y2="147.408113%" id="linearGradient-6">
            <stop stop-color="#F4F4F4" offset="0%"></stop>
            <stop stop-color="#D9D9D9" offset="100%"></stop>
        </linearGradient>
        <linearGradient x1="48.1577784%" y1="131.848319%" x2="47.5035672%" y2="25.7971347%" id="linearGradient-7">
            <stop stop-color="#FFFFFF" stop-opacity="0" offset="0%"></stop>
            <stop stop-color="#E0E0E0" offset="100%"></stop>
        </linearGradient>
    </defs>
    <g id="页面-1" stroke="none" stroke-width="1" fill="none" fill-rule="evenodd">
        <g id="语种信息-资源-copy" transform="translate(-876.000000, -695.000000)">
            <g id="电台" transform="translate(876.000000, 694.000000)">
                <g id="Group-7" transform="translate(1.000000, 0.151052)">
                    <path d="M83.2219607,-8.06508542 C81.7694687,-8.06508542 80.5917287,-6.88702142 80.5917287,-5.43420542 C80.5917287,-4.32450542 81.2802287,-3.37712942 82.2519047,-2.99059742 L81.7648938,18.3722996 C81.7648938,18.9081956 82.1997018,19.3426796 82.7349498,19.3426796 C83.2711698,19.3426796 83.7063018,18.9081956 83.7063018,18.3722996 L84.1933127,-2.99059742 C85.1649887,-3.37712942 85.8525167,-4.32450542 85.8525167,-5.43420542 C85.8525167,-6.88702142 84.6751007,-8.06508542 83.2219607,-8.06508542 Z" id="Fill-1" fill="url(#linearGradient-1)" transform="translate(83.222123, 5.638797) rotate(80.000000) translate(-83.222123, -5.638797) "></path>
                    <path d="M53.768462,-8.91082279 C53.768462,-9.61584679 54.34259,-10.1893268 55.046966,-10.1893268 C55.752314,-10.1893268 56.326118,-9.61584679 56.326118,-8.91082279 L52.0087758,30.0556683 C51.7469838,30.0242403 51.8179186,29.5382895 51.5276146,29.5382895 L50.6294866,29.5382895 C50.3378866,29.5382895 49.4565705,29.8380899 49.1947785,29.8695179 L53.768462,-8.91082279 Z" id="Fill-15" fill="url(#linearGradient-2)" transform="translate(52.760448, 9.933171) rotate(75.000000) translate(-52.760448, -9.933171) "></path>
                    <path d="M39.3178138,66.6429667 C38.8722058,66.6429667 38.5112698,67.0043347 38.5112698,67.4495107 L38.5112698,70.7735347 C38.5112698,71.2189267 38.8722058,71.5798627 39.3178138,71.5798627 L45.7116298,71.5798627 C46.1572378,71.5798627 46.5183898,71.2189267 46.5183898,70.7735347 L46.5183898,67.4495107 C46.5183898,67.0043347 46.1572378,66.6429667 45.7116298,66.6429667 L39.3178138,66.6429667 Z" id="Fill-92" fill="#E0E0E0"></path>
                    <path d="M103.497409,66.6405437 L97.103593,66.6405437 C96.657985,66.6405437 96.297049,67.0016957 96.297049,67.4473037 L96.297049,70.7706797 C96.297049,71.2162877 96.657985,71.5772237 97.103593,71.5772237 L103.497409,71.5772237 C103.943017,71.5772237 104.304169,71.2162877 104.304169,70.7706797 L104.304169,67.4473037 C104.304169,67.0016957 103.943017,66.6405437 103.497409,66.6405437" id="Fill-94" fill="#DFDFDF"></path>
                    <rect id="Rectangle-3" fill="url(#linearGradient-3)" x="26.45" y="10.6088837" width="90" height="58.5" rx="7.2"></rect>
                    <g id="彩灯" transform="translate(16.672226, 37.937600) rotate(-2.000000) translate(-16.672226, -37.937600) translate(1.574187, 2.437600)" fill="#E0E0E0">
                        <ellipse id="Oval-7-Copy-3" opacity="0.268342391" cx="3.65477635" cy="26.3129701" rx="3.310688" ry="3.23464896"></ellipse>
                        <ellipse id="Oval-7-Copy-4" opacity="0.102921196" cx="23.2166646" cy="5.02255799" rx="4.96603199" ry="4.85197344"></ellipse>
                        <ellipse id="Oval-7-Copy-5" opacity="0.147927989" cx="26.4157563" cy="46.3798172" rx="3.72452399" ry="3.63898008"></ellipse>
                        <path d="M25.1633987,66.2310858 C24.7478816,63.1553125 19.9174718,59.9468236 15.3001748,61.3314973 C10.6828779,62.7161711 9.60985339,65.2967699 9.60985339,70" id="Oval-7-Copy-6" opacity="0.300000012"></path>
                    </g>
                    <path d="M35.5219717,17 L107.378028,17 C109.034883,17 110.378028,18.3431458 110.378028,20 L110.378028,61.2692237 C110.378028,62.926078 109.034883,64.2692237 107.378028,64.2692237 L35.5219717,64.2692237 C33.8651175,64.2692237 32.5219717,62.926078 32.5219717,61.2692237 L32.5219717,20 C32.5219717,18.3431458 33.8651175,17 35.5219717,17 Z" id="Rectangle-6" fill="url(#linearGradient-4)"></path>
                    <circle id="Oval-2" fill="url(#linearGradient-5)" cx="89.9" cy="39.8588837" r="15.5725557"></circle>
                    <circle id="Oval-2" fill="#F0F0F0" cx="89.9" cy="39.8588837" r="8.1327393"></circle>
                    <path d="M43.55,25.2774443 L43.55,25.2774443 C44.2955844,25.2774443 44.9,25.8818598 44.9,26.6274443 L44.9,55.0725557 C44.9,55.8181402 44.2955844,56.4225557 43.55,56.4225557 L43.55,56.4225557 C42.8044156,56.4225557 42.2,55.8181402 42.2,55.0725557 L42.2,26.6274443 C42.2,25.8818598 42.8044156,25.2774443 43.55,25.2774443 Z" id="Rectangle-7" fill="url(#linearGradient-6)"></path>
                    <path d="M50.75,25.2774443 L50.75,25.2774443 C51.4955844,25.2774443 52.1,25.8818598 52.1,26.6274443 L52.1,55.0725557 C52.1,55.8181402 51.4955844,56.4225557 50.75,56.4225557 L50.75,56.4225557 C50.0044156,56.4225557 49.4,55.8181402 49.4,55.0725557 L49.4,26.6274443 C49.4,25.8818598 50.0044156,25.2774443 50.75,25.2774443 Z" id="Rectangle-7-Copy" fill="url(#linearGradient-6)"></path>
                    <path d="M57.95,25.2774443 L57.95,25.2774443 C58.6955844,25.2774443 59.3,25.8818598 59.3,26.6274443 L59.3,55.0725557 C59.3,55.8181402 58.6955844,56.4225557 57.95,56.4225557 L57.95,56.4225557 C57.2044156,56.4225557 56.6,55.8181402 56.6,55.0725557 L56.6,26.6274443 C56.6,25.8818598 57.2044156,25.2774443 57.95,25.2774443 Z" id="Rectangle-7-Copy-2" fill="url(#linearGradient-6)"></path>
                </g>
                <path d="M69.2271347,80.1703739 C109.251535,80.1703739 144.970588,80.0278465 144.970588,80.1703739 C144.970588,77.0444726 116.238759,64 72.5,64 C28.7612407,64 0.0294117647,76.2152226 0.0294117647,80.1703739 C0.0294117647,80.466766 29.202734,80.1703739 69.2271347,80.1703739 Z" id="Oval" fill="url(#linearGradient-7)"></path>
            </g>
        </g>
    </g>
</svg>