<?xml version="1.0" encoding="UTF-8"?>
<svg width="24px" height="24px" viewBox="0 0 24 24" version="1.1" xmlns="http://www.w3.org/2000/svg" xmlns:xlink="http://www.w3.org/1999/xlink">
    <!-- Generator: Sketch 52.4 (67378) - http://www.bohemiancoding.com/sketch -->
    <title>播放中</title>
    <desc>Created with Sketch.</desc>
    <g id="切图-+-杂项" stroke="none" stroke-width="1" fill="none" fill-rule="evenodd">
        <g id="iPhone-SE" transform="translate(-679.000000, -92.000000)" fill="#FFFFFF" fill-rule="nonzero">
            <g id="播放中" transform="translate(679.000000, 92.000000)">
                <path d="M6.36258339,2.00032561 L6.63741658,2.00000002 C7.94223535,1.99983893 9.00013055,3.05747295 9.00029164,4.36229173 C9.00029165,4.36238896 9.00029166,4.36248618 9.00029166,4.36258341 L9,19.6374166 C9,20.9422354 7.94223538,22 6.63741659,22 L6.36308962,21.9999402 C5.05829419,21.9999402 4.00053925,20.942212 4.00050622,19.6374166 L4.00029169,4.36320068 C4.00025866,3.05847245 5.05785519,2.00071857 6.36258342,2.00055749 Z" id="矩形-copy-6" transform="translate(6.500000, 12.000000) rotate(-360.000000) translate(-6.500000, -12.000000) "></path>
                <path d="M17.3625834,2.00032561 L17.6374166,2.00000002 C18.9422354,1.99983893 20.0001306,3.05747295 20.0002916,4.36229173 C20.0002917,4.36238896 20.0002917,4.36248618 20.0002917,4.36258341 L20,19.6374166 C20,20.9422354 18.9422354,22 17.6374166,22 L17.3630896,21.9999402 C16.0582942,21.9999402 15.0005392,20.942212 15.0005062,19.6374166 L15.0002917,4.36320068 C15.0002587,3.05847245 16.0578552,2.00071857 17.3625834,2.00055749 Z" id="矩形-copy-9" transform="translate(17.500000, 12.000000) rotate(-360.000000) translate(-17.500000, -12.000000) "></path>
            </g>
        </g>
    </g>
</svg>