<?xml version="1.0" encoding="UTF-8" standalone="no"?>
<svg width="9px" height="12px" viewBox="0 0 9 12" version="1.1" xmlns="http://www.w3.org/2000/svg" xmlns:xlink="http://www.w3.org/1999/xlink">
    <!-- Generator: Sketch 49.3 (51167) - http://www.bohemiancoding.com/sketch -->
    <title>锁定</title>
    <desc>Created with Sketch.</desc>
    <defs></defs>
    <g id="发现" stroke="none" stroke-width="1" fill="none" fill-rule="evenodd">
        <g id="底部操作栏" transform="translate(-1444.000000, -2135.000000)">
            <g id="Group" transform="translate(0.000000, 2130.000000)">
                <g id="底部播放">
                    <g id="锁定" transform="translate(1444.000000, 6.000000)">
                        <path d="M0.920127796,4 L8.0798722,4 C8.58804475,4 9,4.41195525 9,4.9201278 L9,10.0798722 C9,10.5880448 8.58804475,11 8.0798722,11 L0.920127796,11 C0.411955246,11 -4.87891139e-17,10.5880448 -1.11022302e-16,10.0798722 L1.11022302e-16,4.9201278 C4.87891139e-17,4.41195525 0.411955246,4 0.920127796,4 Z" id="Rectangle-6" fill="#FFFFFF"></path>
                        <path d="M1.59790039,6 L1.59790039,3 C1.59790039,1.34314575 2.94104614,0 4.59790039,0 C6.25475464,0 7.59790039,1.34314575 7.59790039,3 L7.59790039,6" id="Rectangle-7" stroke="#FFFFFF" stroke-width="0.920127796"></path>
                    </g>
                </g>
            </g>
        </g>
    </g>
</svg>