<?xml version="1.0" encoding="UTF-8" standalone="no"?>
<svg width="34px" height="34px" viewBox="0 0 34 34" version="1.1" xmlns="http://www.w3.org/2000/svg" xmlns:xlink="http://www.w3.org/1999/xlink">
    <!-- Generator: Sketch 49.3 (51167) - http://www.bohemiancoding.com/sketch -->
    <title>播放</title>
    <desc>Created with Sketch.</desc>
    <defs></defs>
    <g id="发现" stroke="none" stroke-width="1" fill="none" fill-rule="evenodd">
        <g id="底部操作栏" transform="translate(-462.000000, -2153.000000)">
            <g id="Group" transform="translate(0.000000, 2145.000000)">
                <g id="底部播放">
                    <g id="播放" transform="translate(464.000000, 10.000000)">
                        <circle id="Oval-18" stroke="#FFFFFF" stroke-width="1.36363636" cx="15" cy="15" r="15.6818182"></circle>
                        <path d="M8.67272323,10.4870796 L18.1759454,8.88983165 C18.9186438,8.76500309 19.6219133,9.26588555 19.7467419,10.0085839 C19.7718912,10.158216 19.7718912,10.3109961 19.7467419,10.4606281 L18.1494939,19.9638503 C18.0246653,20.7065487 17.3213958,21.2074312 16.5786974,21.0826026 C16.2990443,21.0356001 16.0410012,20.9025829 15.840483,20.7020647 L7.9345088,12.7960905 C7.40197568,12.2635574 7.40197568,11.4001506 7.9345088,10.8676175 C8.135027,10.6670993 8.39307013,10.5340822 8.67272323,10.4870796 Z" id="Rectangle-33" fill="#FFFFFF" transform="translate(13.636364, 15.000210) rotate(-315.000000) translate(-13.636364, -15.000210) "></path>
                    </g>
                </g>
            </g>
        </g>
    </g>
</svg>