<?xml version="1.0" encoding="UTF-8" standalone="no"?>
<svg width="14px" height="14px" viewBox="0 0 14 14" version="1.1" xmlns="http://www.w3.org/2000/svg" xmlns:xlink="http://www.w3.org/1999/xlink">
    <!-- Generator: Sketch 49.3 (51167) - http://www.bohemiancoding.com/sketch -->
    <title>右箭头 copy</title>
    <desc>Created with Sketch.</desc>
    <defs></defs>
    <g id="发现" stroke="none" stroke-width="1" fill="none" fill-rule="evenodd">
        <g id="底部操作栏" transform="translate(-427.000000, -2163.000000)" fill="#FFFFFF">
            <g id="Group" transform="translate(0.000000, 2130.000000)">
                <g id="底部播放">
                    <g id="左箭头" transform="translate(427.000000, 33.000000)">
                        <path d="M6.33319667,3.41145465 L14.3801704,2.10706879 C14.8680347,2.02798773 15.3276347,2.35937199 15.4067158,2.84723626 C15.4226261,2.94538963 15.4220666,3.04550838 15.4050603,3.14347781 L14.01417,11.1560769 C13.9296413,11.6430269 13.4663664,11.9692538 12.9794164,11.8847252 C12.7965004,11.8529732 12.6279877,11.7651179 12.4972254,11.6333314 L5.84114196,4.92511821 C5.49303293,4.57428282 5.49524308,4.00767643 5.84607846,3.6595674 C5.97859699,3.52807868 6.1489192,3.44132538 6.33319667,3.41145465 Z" id="Rectangle-2-Copy-2" transform="translate(10.499793, 6.996471) scale(-1, 1) rotate(-315.000000) translate(-10.499793, -6.996471) "></path>
                        <rect id="Rectangle-Copy-2" x="2" y="2.22727273" width="1.59163987" height="9.54545455" rx="0.795819936"></rect>
                    </g>
                </g>
            </g>
        </g>
    </g>
</svg>