<?xml version="1.0" encoding="UTF-8"?>
<svg width="34px" height="34px" viewBox="0 0 34 34" version="1.1" xmlns="http://www.w3.org/2000/svg" xmlns:xlink="http://www.w3.org/1999/xlink">
    <!-- Generator: Sketch 52.4 (67378) - http://www.bohemiancoding.com/sketch -->
    <title>分组 8</title>
    <desc>Created with Sketch.</desc>
    <defs>
        <rect id="path-1" x="0" y="0" width="34" height="34"></rect>
        <polygon id="path-3" points="0.0001375 0.00119525692 30 0.00119525692 30 7.30421502 0.0001375 7.30421502"></polygon>
    </defs>
    <g id="世界语言地图" stroke="none" stroke-width="1" fill="none" fill-rule="evenodd">
        <g id="电台详情" transform="translate(-368.000000, -2232.000000)">
            <g id="Group" transform="translate(0.000000, 2204.000000)">
                <g id="底部播放">
                    <g id="合并形状" transform="translate(322.000000, 28.000000)">
                        <g id="分组-8" transform="translate(46.000000, 0.000000)">
                            <mask id="mask-2" fill="white">
                                <use xlink:href="#path-1"></use>
                            </mask>
                            <use id="Mask" fill="#DAF1FF" xlink:href="#path-1"></use>
                            <g id="分组" mask="url(#mask-2)">
                                <g transform="translate(2.000000, 6.000000)">
                                    <path d="M4.91666667,9.58692228 L4.91666667,13.0107497 C4.91666667,13.3895008 5.22466667,13.6956522 5.60416667,13.6956522 C5.98366667,13.6956522 7.29132292,13.3895008 7.29166667,13.0110922 L7.29166667,9.58692228 C7.29166667,5.04841608 9.98526042,2.36912003 14.5416667,2.36912003 C19.0980729,2.36912003 21.7916667,5.04841608 21.7916667,9.58692228 L21.7916667,13.0107497 C21.7916667,13.3895008 23.0996667,13.6956522 23.4791667,13.6956522 C23.8586667,13.6956522 24.1663229,13.3895008 24.1666667,13.0110922 L24.1666667,9.58692228 C24.1666667,4.29228376 19.8574167,0 14.5416667,0 C9.22591667,0 4.91666667,4.29228376 4.91666667,9.58692228 Z" id="Fill-1" fill="#A5CFEA"></path>
                                    <g id="分组" stroke-width="1" fill="none" transform="translate(0.000000, 11.869565)">
                                        <mask id="mask-4" fill="white">
                                            <use xlink:href="#path-3"></use>
                                        </mask>
                                        <g id="Clip-4"></g>
                                        <path d="M24.4332142,0.130434783 C22.1288859,0.130434783 23.295096,1.69776521 23.295096,3.63043478 C23.295096,5.5634226 22.1288859,7.13043478 24.4332142,7.13043478 C26.7367399,7.13043478 27,5.5634226 27,3.63043478 C27,1.69776521 26.7367399,0.130434783 24.4332142,0.130434783 M5.59783361,0.130434783 C3.34291404,0.130434783 3,1.69776521 3,3.63043478 C3,5.5634226 3.34291404,7.13043478 5.59783361,7.13043478 C7.85238207,7.13043478 6.71119088,5.5634226 6.71119088,3.63043478 C6.71119088,1.69776521 7.85238207,0.130434783 5.59783361,0.130434783" id="Fill-3" fill="#97C2DE" mask="url(#mask-4)"></path>
                                    </g>
                                    <path d="M22.0512821,10.9565217 C20.8832372,10.9565217 19.9358974,11.8565374 19.9358974,12.9651504 L19.9358974,18.9913713 C19.9358974,20.1009888 20.8832372,21 22.0512821,21 C23.2193269,21 24.1666667,20.1009888 24.1666667,18.9913713 L24.1666667,12.9651504 C24.1666667,11.8565374 23.2193269,10.9565217 22.0512821,10.9565217 M7.94871795,10.9565217 C6.78067308,10.9565217 5.83333333,11.8565374 5.83333333,12.9651504 L5.83333333,18.9913713 C5.83333333,20.1009888 6.78067308,21 7.94871795,21 C9.11676282,21 10.0641026,20.1009888 10.0641026,18.9913713 L10.0641026,12.9651504 C10.0641026,11.8565374 9.11676282,10.9565217 7.94871795,10.9565217" id="Fill-5" fill="#719AB6"></path>
                                </g>
                            </g>
                        </g>
                    </g>
                </g>
            </g>
        </g>
    </g>
</svg>
