<?xml version="1.0" encoding="UTF-8"?>
<svg width="60px" height="60px" viewBox="0 0 60 60" version="1.1" xmlns="http://www.w3.org/2000/svg" xmlns:xlink="http://www.w3.org/1999/xlink">
    <!-- Generator: Sketch 52.4 (67378) - http://www.bohemiancoding.com/sketch -->
    <title>分组</title>
    <desc>Created with Sketch.</desc>
    <g id="世界语言地图" stroke="none" stroke-width="1" fill="none" fill-rule="evenodd">
        <g id="付费提示" transform="translate(-1058.000000, -417.000000)">
            <g id="提示框-copy" transform="translate(898.000000, 372.000000)">
                <g id="分组" transform="translate(160.000000, 45.000000)">
                    <g id="分组-3" fill="#F6FFE0" fill-rule="nonzero" stroke="#D8EDB6" stroke-opacity="0.495640851" stroke-width="5.52631579">
                        <circle id="椭圆形" cx="30" cy="30" r="27.2368421"></circle>
                    </g>
                    <path d="M27.3052995,34.6755206 L41.5542385,21.4207834 C42.6842007,20.369663 44.4324989,20.3642958 45.5688934,21.4084587 C46.5967361,22.3528801 46.6643624,23.9517159 45.7199411,24.9795586 C45.6752442,25.0282036 45.6286573,25.0750774 45.5802877,25.1200721 L29.2101031,40.3480475 C28.080141,41.399168 26.3318427,41.4045351 25.1954483,40.3603722 C25.192958,40.358084 25.1904733,40.355792 25.1879943,40.3534962 C24.8601165,40.2151271 24.5508266,40.0185756 24.2757522,39.7638525 L15.7771749,31.8940424 C14.6886751,30.8860752 14.6233905,29.1865529 15.6313577,28.0980531 C15.6789232,28.0466873 15.7284786,27.9972006 15.7799104,27.9497063 C16.9845638,26.8372788 18.842204,26.8385671 20.0453134,27.9526645 L27.3052995,34.6755206 Z" id="合并形状" fill="#C2E383"></path>
                </g>
            </g>
        </g>
    </g>
</svg>