<?xml version="1.0" encoding="UTF-8"?>
<svg width="30px" height="30px" viewBox="0 0 30 30" version="1.1" xmlns="http://www.w3.org/2000/svg" xmlns:xlink="http://www.w3.org/1999/xlink">
    <!-- Generator: Sketch 52.4 (67378) - http://www.bohemiancoding.com/sketch -->
    <title>qq动态-hover</title>
    <desc>Created with Sketch.</desc>
    <g id="杂项" stroke="none" stroke-width="1" fill="none" fill-rule="evenodd">
        <g id="画板" transform="translate(-230.000000, -1640.000000)">
            <g id="qq动态-hover" transform="translate(231.000000, 1641.000000)">
                <rect id="矩形-copy-3" stroke-opacity="0.442453578" stroke="#EFB121" stroke-width="1.16666667" fill="#FFFBF1" fill-rule="nonzero" x="0.0487804878" y="0" width="28" height="28" rx="14"></rect>
                <path d="M20.9294085,12.57924 L17.3481202,15.8489342 L17.470767,16.3679333 C14.9442417,16.3938832 13.2762444,16.1343837 13.2762444,16.1343837 L17.4462377,12.9944393 C14.0611843,12.2418906 9.47419172,13.1241891 9.84213229,13.150139 C15.0178298,13.3317887 15.165006,13.6172382 15.165006,13.6172382 L11.0195422,16.7571826 C16.7348859,17.1464319 18.329295,16.3419833 18.329295,16.3419833 C18.329295,16.3419833 17.9368251,16.6793327 17.5688845,16.8609824 L18.4274125,20.7015755 C18.4519419,20.7794254 18.4028832,20.8832252 18.3538244,20.9351251 C18.3047657,20.9610751 18.2802363,20.987025 18.2311776,20.987025 C18.1821188,20.987025 18.1575895,20.987025 18.1085307,20.9610751 L14.0366549,18.3920297 L9.96477916,20.9610751 C9.89119105,21.012975 9.79307355,21.012975 9.71948544,20.9610751 C9.64589733,20.9091752 9.62136796,20.8053753 9.64589733,20.7275255 L10.7251897,15.8489342 L7.11937199,12.57924 C7.04578388,12.5273401 7.02125451,12.4235403 7.04578388,12.3456905 C7.07031325,12.2678406 7.14390136,12.1899907 7.24201886,12.1899907 L11.9761877,11.7747915 L13.8404199,7.12974976 C13.8649493,7.0518999 13.9630668,7 14.0366549,7 C14.1347724,7 14.2083605,7.0518999 14.2328899,7.12974976 L16.0725928,11.7228916 L20.8067616,12.1380908 C20.9048791,12.1380908 20.9784672,12.2159407 21.0029966,12.2937905 C21.027526,12.3716404 21.0029966,12.5273401 20.9294085,12.57924 Z" id="路径" fill="#FFBE29"></path>
            </g>
        </g>
    </g>
</svg>