<?xml version="1.0" encoding="UTF-8"?>
<svg width="31px" height="30px" viewBox="0 0 31 30" version="1.1" xmlns="http://www.w3.org/2000/svg" xmlns:xlink="http://www.w3.org/1999/xlink">
    <!-- Generator: Sketch 52.4 (67378) - http://www.bohemiancoding.com/sketch -->
    <title>qq-默认</title>
    <desc>Created with Sketch.</desc>
    <g id="杂项" stroke="none" stroke-width="1" fill="none" fill-rule="evenodd">
        <g id="画板" transform="translate(-148.000000, -1605.000000)">
            <g id="qq-默认" transform="translate(149.000000, 1606.000000)">
                <rect id="矩形-copy" stroke="#E6EBEE" stroke-width="1.16666667" fill="#F1F5F8" fill-rule="nonzero" x="0.524390244" y="0" width="28" height="28" rx="14"></rect>
                <path d="M8.53369127,15.0725193 C8.02846263,16.3051193 7.94550252,17.4809818 8.35242913,17.6997087 C8.63199331,17.8521597 9.07163315,17.5064725 9.48237495,16.8734802 C9.64634697,17.5630455 10.047429,18.1861704 10.6220617,18.6882555 C10.018531,18.918741 9.62516049,19.2956748 9.62516049,19.7216166 C9.62516049,20.422776 10.6914657,20.989328 12.0066512,20.989328 C13.1926072,20.989328 14.1760335,20.5282747 14.3572956,19.9228289 C14.4517721,19.9208216 14.5462797,19.9208216 14.6407562,19.9228289 C14.8220995,20.5282747 15.8074739,20.989328 16.99343,20.989328 C18.3084532,20.989328 19.3749207,20.4208848 19.3749207,19.7216166 C19.3749207,19.2956748 18.9815502,18.918741 18.3779383,18.6881732 C18.9526521,18.1882261 19.3556012,17.5630455 19.5176251,16.8734802 C19.9283669,17.5063903 20.3660585,17.8501862 20.6457039,17.6997909 C21.0525493,17.481064 20.9715374,16.3031458 20.4643605,15.0725193 C20.067256,14.1036251 19.5272036,13.3906248 19.1164618,13.2323356 C19.1223064,13.1718157 19.1261216,13.1073488 19.1261216,13.0468289 C19.1261216,12.6736776 19.0259525,12.326017 18.8541878,12.0447145 C18.8580841,12.0232529 18.8580841,11.9998179 18.8580841,11.9782741 C18.8580841,11.8064173 18.8175782,11.6442634 18.7501223,11.5055445 C18.6459758,8.98771863 17.062834,6.98932795 14.5,6.98932795 C11.937166,6.98932795 10.3521572,8.98771863 10.2498777,11.5056267 C10.1791284,11.652929 10.1422186,11.8145451 10.1419159,11.9783564 C10.1419159,11.9997357 10.1438641,12.0232529 10.1438641,12.0447145 C9.97420984,12.326017 9.87387844,12.6717863 9.87387844,13.0468289 C9.87387844,13.1093223 9.87582663,13.1698422 9.88159,13.2324179 C9.47279638,13.3906248 8.93087697,14.1036251 8.53369127,15.0725193 Z" id="路径" fill="#7E929F"></path>
            </g>
        </g>
    </g>
</svg>