<?xml version="1.0" encoding="UTF-8"?>
<svg width="30px" height="30px" viewBox="0 0 30 30" version="1.1" xmlns="http://www.w3.org/2000/svg" xmlns:xlink="http://www.w3.org/1999/xlink">
    <!-- Generator: Sketch 52.4 (67378) - http://www.bohemiancoding.com/sketch -->
    <title>微博-hover</title>
    <desc>Created with Sketch.</desc>
    <g id="杂项" stroke="none" stroke-width="1" fill="none" fill-rule="evenodd">
        <g id="画板" transform="translate(-108.000000, -1640.000000)">
            <g id="微博-hover" transform="translate(108.000000, 1641.000000)">
                <rect id="矩形" stroke-opacity="0.3" stroke="#D0021B" stroke-width="1.16666667" fill="#FFF8F9" fill-rule="nonzero" x="0.762195122" y="0" width="28" height="28" rx="14"></rect>
                <g id="微博" transform="translate(7.750000, 8.166667)" fill="#D0021B">
                    <path d="M13.6522605,1.25269695 C12.6942297,0.211166258 11.2571834,-0.174585858 9.97980902,0.0954406201 C9.66046542,0.17259104 9.5007936,0.442617517 9.54071156,0.751219213 C9.62054746,1.05982089 9.89997312,1.21412175 10.2193167,1.17554653 C11.1374296,0.982670473 12.1752963,1.25269695 12.8539015,1.98562596 C13.5325066,2.71855498 13.7320964,3.72151045 13.4127528,4.60874029 C13.3728348,4.76304113 13.3728348,4.87876676 13.4526707,5.0330676 C13.5325066,5.14879324 13.6522605,5.26451886 13.7720144,5.30309408 C14.05144,5.3802445 14.3707836,5.22594366 14.4905375,4.95591718 C14.849799,3.68293523 14.6102913,2.29422764 13.6522605,1.25269695 Z" id="路径"></path>
                    <path d="M11.9357886,4.6473155 C12.1752963,4.72446592 12.454722,4.60874029 12.5345579,4.33871381 C12.7341476,3.72151043 12.6143938,3.06573186 12.1353784,2.56425412 C11.6563629,2.06277638 10.9777578,1.86990033 10.3390706,1.98562596 C10.0596449,2.02420118 9.89997312,2.29422764 9.97980902,2.5256789 C10.019727,2.79570538 10.2991526,2.95000622 10.5386603,2.8728558 C10.8580039,2.79570538 11.1773475,2.91143102 11.4168552,3.14288228 C11.6563629,3.37433354 11.6962809,3.72151043 11.616445,4.03011213 C11.5366091,4.30013861 11.6962809,4.57016508 11.9357886,4.6473155 Z M10.9777578,5.53454536 C10.778168,5.45739494 10.6184962,5.41881972 10.7382501,5.18736846 C10.9777578,4.6087403 10.9777578,4.10726255 10.7382501,3.76008565 C10.2592347,3.10430708 8.9419423,3.14288228 7.46497811,3.76008565 C7.46497811,3.76008565 6.9859627,3.95296171 7.10571655,3.60578481 C7.34522425,2.8728558 7.30530631,2.29422764 6.94604475,1.94705075 C6.14768574,1.17554653 3.99211639,1.98562596 2.15589064,3.76008565 C0.798680312,5.11021804 0.000321296137,6.49892563 0.000321296137,7.73333236 C0.000321296137,10.0864202 3.11392146,11.513703 6.14768574,11.513703 C10.1394808,11.513703 12.7740656,9.27634081 12.7740656,7.5018811 C12.7740656,6.42177519 11.8160348,5.80457183 10.9777578,5.53454536 Z M6.14768574,10.6650484 C3.71269073,10.8964997 1.63695729,9.81639376 1.47728549,8.31196054 C1.31761369,6.76895211 3.15383942,5.3416693 5.58883442,5.11021804 C8.02382943,4.87876678 10.0995629,5.95887267 10.2592347,7.46330589 C10.4189065,9.00631431 8.58268074,10.4335971 6.14768574,10.6650484 Z" id="形状" fill-rule="nonzero"></path>
                    <path d="M6.38719344,6.26747435 C5.22957286,5.95887267 3.91228049,6.53750083 3.43326508,7.5018811 C2.91433172,8.50483658 3.43326508,9.62351771 4.59088565,9.9706946 C5.78842418,10.3564467 7.22547041,9.77781855 7.70448581,8.69771264 C8.18350123,7.65618194 7.58473195,6.57607603 6.38719344,6.26747435 Z M5.50899852,8.85201347 C5.26949082,9.19919037 4.79047541,9.39206643 4.39129589,9.19919037 C4.03203433,9.04488953 3.91228047,8.62056222 4.15178819,8.27338532 C4.39129589,7.92620842 4.87031131,7.77190758 5.22957286,7.92620842 C5.62875238,8.04193406 5.74850622,8.46626138 5.50899852,8.85201347 Z" id="形状" fill-rule="nonzero"></path>
                </g>
            </g>
        </g>
    </g>
</svg>