<?xml version="1.0" encoding="UTF-8"?>
<svg width="30px" height="30px" viewBox="0 0 30 30" version="1.1" xmlns="http://www.w3.org/2000/svg" xmlns:xlink="http://www.w3.org/1999/xlink">
    <!-- Generator: Sketch 52.4 (67378) - http://www.bohemiancoding.com/sketch -->
    <title>微信朋友-默认</title>
    <desc>Created with Sketch.</desc>
    <g id="杂项" stroke="none" stroke-width="1" fill="none" fill-rule="evenodd">
        <g id="画板" transform="translate(-67.000000, -1605.000000)" fill-rule="nonzero">
            <g id="微信朋友-默认" transform="translate(68.000000, 1606.000000)">
                <rect id="矩形-copy-6" stroke="#E6EBEE" stroke-width="1.16666667" fill="#F1F5F8" x="0" y="0" width="28" height="28" rx="14"></rect>
                <path d="M16.0904542,14.5737388 C15.8256434,14.5737388 15.5606732,14.8295057 15.5606732,15.1450645 C15.5606732,15.4007817 15.8256434,15.6579928 16.0904542,15.6579928 C16.4882761,15.6579928 16.7721477,15.4007817 16.7721477,15.1450645 C16.7721795,14.8295057 16.4882761,14.5737388 16.0904542,14.5737388 M14.3495015,11.9120559 C14.7659538,11.9120559 15.0308284,11.6362199 15.0308284,11.2220262 C15.0308284,10.7882615 14.7659857,10.5324945 14.3495015,10.5324945 C13.9522215,10.5324945 13.5735241,10.7882615 13.5735241,11.2220262 C13.5735082,11.6362033 13.9522215,11.9120559 14.3495015,11.9120559 M12.3623524,17.6485364 C11.6620285,17.6485364 11.1510213,17.5303139 10.4886277,17.3329942 L8.57725956,18.3380515 L9.12642011,16.643446 C7.78247644,15.6579928 6.98780488,14.4152954 6.98780488,12.897675 C6.98780488,10.2169523 9.41005266,8.16666667 12.3623524,8.16666667 C14.9741879,8.16666667 17.3019606,9.7832208 17.7560245,12.0698519 C17.5669467,12.0302784 17.3967066,12.0108402 17.2452245,12.0108402 C14.6712396,12.0108402 12.6843296,14.0218677 12.6843296,16.4460101 C12.6843296,16.8603366 12.7410976,17.2341767 12.8355886,17.6289821 C12.6843296,17.6485364 12.5138345,17.6485364 12.3623524,17.6485364 M20.2544516,19.5807324 L20.6326549,21 L19.1943636,20.1520415 C18.6455218,20.2701146 18.1156929,20.4481456 17.5669467,20.4481456 C15.0308284,20.4481456 13.0246185,18.6340062 13.0246185,16.3864174 C13.0246185,14.1401234 15.0307965,12.3263824 17.5669467,12.3263824 C19.9703887,12.3263824 22.1280488,14.1401234 22.1280488,16.3864174 C22.1280488,17.6485364 21.3143324,18.7716668 20.2544516,19.5807324 M10.6025301,10.5324945 C10.2051067,10.5324945 9.78868625,10.7882615 9.78868625,11.2220262 C9.78868625,11.6362033 10.2051226,11.9120559 10.6025301,11.9120559 C10.9808609,11.9120559 11.2838411,11.6362199 11.2838411,11.2220262 C11.2838411,10.7882615 10.9807494,10.5324945 10.6025301,10.5324945 M19.0619581,14.5737388 C18.7779431,14.5737388 18.5321293,14.8295057 18.5321293,15.1450645 C18.5321293,15.4007817 18.7779431,15.6579928 19.0619581,15.6579928 C19.4405917,15.6579928 19.7246068,15.4007817 19.7246068,15.1450645 C19.7246068,14.8295057 19.4405917,14.5737388 19.0619581,14.5737388" id="形状" fill="#7E929F"></path>
            </g>
        </g>
    </g>
</svg>