<?xml version="1.0" encoding="UTF-8"?>
<svg width="30px" height="30px" viewBox="0 0 30 30" version="1.1" xmlns="http://www.w3.org/2000/svg" xmlns:xlink="http://www.w3.org/1999/xlink">
    <!-- Generator: Sketch 54.1 (76490) - https://sketchapp.com -->
    <title>Group</title>
    <desc>Created with Sketch.</desc>
    <g id="页面2" stroke="none" stroke-width="1" fill="none" fill-rule="evenodd">
        <g id="跟读复制-2" transform="translate(-340.000000, -16.000000)">
            <g id="Group" transform="translate(340.000000, 16.000000)">
                <path d="M14.5,0 L15.5,0 C23.5081289,-1.47106941e-15 30,6.49187113 30,14.5 L30,15.5 C30,23.5081289 23.5081289,30 15.5,30 L14.5,30 C6.49187113,30 9.80712939e-16,23.5081289 0,15.5 L0,14.5 C-9.80712939e-16,6.49187113 6.49187113,1.47106941e-15 14.5,0 Z" id="Rectangle-2" fill="#EEF2F3"></path>
                <g id="返回" transform="translate(10.000000, 8.000000)" fill="#B2C0C9" fill-rule="nonzero">
                    <path d="M6.55037142,0.153581066 C6.17153204,0.153581066 5.83172155,0.31905722 5.59827536,0.581378438 L0.654747975,5.52493227 C0.39224166,5.758471 0.226950602,6.09824183 0.226950602,6.47696222 C0.226950602,6.7957775 0.344248815,7.08680187 0.537899281,7.31042473 L0.534210575,7.31410022 L5.63275617,12.4097768 C5.86461582,12.650336 6.18994913,12.8002508 6.55015988,12.8002508 C7.25389628,12.8002508 7.82415175,12.2299821 7.82415175,11.5264044 C7.82415175,11.1186239 7.63249768,10.756073 7.33454541,10.5227722 L3.29148542,6.47976511 L7.36044568,2.41075196 C7.643815,2.17725289 7.8242443,1.82344118 7.8242443,1.42778447 C7.8242443,0.724048076 7.25388306,0.153819047 6.55025243,0.153819047 L6.55037142,0.153567844 L6.55037142,0.153581066 Z" id="Shape"></path>
                </g>
            </g>
        </g>
    </g>
</svg>