<?xml version="1.0" encoding="UTF-8"?>
<svg width="30px" height="30px" viewBox="0 0 30 30" version="1.1" xmlns="http://www.w3.org/2000/svg" xmlns:xlink="http://www.w3.org/1999/xlink">
    <!-- Generator: Sketch 54.1 (76490) - https://sketchapp.com -->
    <title>悬停</title>
    <desc>Created with Sketch.</desc>
    <g id="页面2" stroke="none" stroke-width="1" fill="none" fill-rule="evenodd">
        <g id="跟读复制-2" transform="translate(-1550.000000, -17.000000)">
            <g id="悬停" transform="translate(1550.000000, 17.000000)">
                <circle id="椭圆形-copy" fill="#EEF2F3" fill-rule="nonzero" cx="15" cy="15" r="15"></circle>
                <g id="Group-5" transform="translate(6.290189, 6.317859)">
                    <path d="M2.54805745,4.82695548 L2.11137235,4.40525359 C1.52280879,3.83688437 1.50643805,2.89900504 2.07480727,2.31044149 C2.64317649,1.72187793 3.58105582,1.70550718 4.16961938,2.2738764 L4.60481774,2.69414258 C5.39705753,2.15215821 6.28965258,1.77063078 7.23646724,1.57517425 L7.23646724,0.968660969 C7.23646724,0.150461339 7.89974909,-0.512820513 8.71794872,-0.512820513 C9.53614835,-0.512820513 10.1994302,0.150461339 10.1994302,0.968660969 L10.1994302,1.57517539 C11.1876336,1.77918032 12.11652,2.18583286 12.9335991,2.76556161 L13.3753688,2.35360469 C13.9737622,1.79559389 14.9112129,1.82833039 15.4692237,2.42672372 C16.0272346,3.02511705 15.9944981,3.96256782 15.3961047,4.52057862 L14.9536751,4.93315094 C15.3843937,5.64131834 15.6919721,6.41895635 15.8607263,7.23646724 L16.4672365,7.23646724 C17.2854361,7.23646724 17.9487179,7.89974909 17.9487179,8.71794872 C17.9487179,9.53614835 17.2854361,10.1994302 16.4672365,10.1994302 L15.8607253,10.1994302 C15.6826677,11.0619949 15.3501049,11.8799561 14.8817905,12.6184998 L15.3183616,13.0400916 C15.9069251,13.6084608 15.9232959,14.5463402 15.3549267,15.1349037 C14.7865574,15.7234673 13.8486781,15.739838 13.2601146,15.1714688 L12.8217384,14.7481338 C12.0317956,15.2867532 11.1424974,15.6660408 10.1994302,15.8607233 L10.1994302,16.4672365 C10.1994302,17.2854361 9.53614835,17.9487179 8.71794872,17.9487179 C7.89974909,17.9487179 7.23646724,17.2854361 7.23646724,16.4672365 L7.23646724,15.8607221 C6.25046277,15.6571714 5.32349735,15.2518713 4.50770986,14.6741711 L4.06116416,15.0905817 C3.46277084,15.6485925 2.52532006,15.615856 1.96730926,15.0174627 C1.40929845,14.4190693 1.44203495,13.4816186 2.04042828,12.9236078 L2.48567129,12.5084119 C2.05315338,11.7987411 1.74437825,11.0191342 1.57517119,10.1994302 L0.968660969,10.1994302 C0.150461339,10.1994302 -0.512820513,9.53614835 -0.512820513,8.71794872 C-0.512820513,7.89974909 0.150461339,7.23646724 0.968660969,7.23646724 L1.57517205,7.23646724 C1.75245677,6.37764504 2.08291254,5.56302145 2.54805745,4.82695548 Z" id="Combined-Shape" stroke="#B2C0C9" stroke-width="1.02564103" fill="#B2C0C9"></path>
                    <path d="M8.71794872,12.0329218 C10.5487578,12.0329218 12.0329218,10.5487578 12.0329218,8.71794872 C12.0329218,6.88713963 10.5487578,5.40297563 8.71794872,5.40297563 C6.88713963,5.40297563 5.40297563,6.88713963 5.40297563,8.71794872 C5.40297563,10.5487578 6.88713963,12.0329218 8.71794872,12.0329218 Z" id="Oval-6" stroke="#F2F5F8" stroke-width="1.11934156" fill="#F2F5F8"></path>
                </g>
            </g>
        </g>
    </g>
</svg>