<?xml version="1.0" encoding="UTF-8"?>
<svg width="22px" height="13px" viewBox="0 0 22 13" version="1.1" xmlns="http://www.w3.org/2000/svg" xmlns:xlink="http://www.w3.org/1999/xlink">
    <!-- Generator: Sketch 54.1 (76490) - https://sketchapp.com -->
    <title>快进@2x</title>
    <desc>Created with Sketch.</desc>
    <g id="页面2" stroke="none" stroke-width="1" fill="none" fill-rule="evenodd">
        <g id="跟读" transform="translate(-1176.000000, -309.000000)" fill="#2A9FE4" fill-rule="nonzero">
            <g id="Group-8" transform="translate(683.000000, 263.000000)">
                <g id="快进" transform="translate(493.000000, 46.000000)">
                    <path d="M10.5195772,5.68528476 L1.14266849,0.18747778 C0.458587004,0.169894962 4.29268e-06,0.428033128 4.29268e-06,1.10464106 L4.29268e-06,11.874782 C0.01253205,12.6690866 0.451003985,12.7568891 1.14266849,12.7919453 L10.517066,7.2914983 C10.9230097,7.05105242 11.3338986,6.2315841 10.5195935,5.68530837 L10.5195935,5.68530837 L10.5195772,5.68528476 Z M21.5101473,5.68528476 L12.1332386,0.18747778 C11.4466287,0.169894962 10.9905744,0.428033128 10.9905744,1.10453159 L10.9905744,11.8746725 C11.0031021,12.6689772 11.4415741,12.7567796 12.1332386,12.7918358 L21.5076361,7.29149616 C21.9135798,7.05105027 22.3245781,6.23158195 21.5101636,5.68530623 L21.5101636,5.68530623 L21.5101473,5.68528476 Z" id="Shape"></path>
                </g>
            </g>
        </g>
    </g>
</svg>