<?xml version="1.0" encoding="UTF-8"?>
<svg width="22px" height="13px" viewBox="0 0 22 13" version="1.1" xmlns="http://www.w3.org/2000/svg" xmlns:xlink="http://www.w3.org/1999/xlink">
    <!-- Generator: Sketch 54.1 (76490) - https://sketchapp.com -->
    <title>Shape@2x</title>
    <desc>Created with Sketch.</desc>
    <g id="页面2" stroke="none" stroke-width="1" fill="none" fill-rule="evenodd">
        <g id="跟读" transform="translate(-1316.000000, -312.000000)" fill="#0581D1" fill-rule="nonzero">
            <g id="Group-8" transform="translate(683.000000, 263.000000)">
                <g id="快进复制" transform="translate(633.000000, 49.000000)">
                    <path d="M10.5195729,5.49864336 L1.1426642,0.00083637892 C0.458582712,-0.0167464384 2.48689958e-14,0.241391727 2.48689958e-14,0.917999656 L2.48689958e-14,11.6881406 C0.0125277573,12.4824452 0.450999693,12.5702477 1.1426642,12.6053039 L10.5170617,7.1048569 C10.9230054,6.86441102 11.3338943,6.0449427 10.5195892,5.49866697 L10.5195892,5.49866697 L10.5195729,5.49864336 Z M21.510143,5.49864336 L12.1332343,0.00083637892 C11.4466244,-0.0167464384 10.9905701,0.241391727 10.9905701,0.917890193 L10.9905701,11.6880311 C11.0030978,12.4823358 11.4415698,12.5701382 12.1332343,12.6051944 L21.5076318,7.10485475 C21.9135755,6.86440887 22.3245739,6.04494055 21.5101593,5.49866483 L21.5101593,5.49866483 L21.510143,5.49864336 Z" id="Shape"></path>
                </g>
            </g>
        </g>
    </g>
</svg>