<?xml version="1.0" encoding="UTF-8"?>
<svg width="25px" height="30px" viewBox="0 0 25 30" version="1.1" xmlns="http://www.w3.org/2000/svg" xmlns:xlink="http://www.w3.org/1999/xlink">
    <!-- Generator: Sketch 54.1 (76490) - https://sketchapp.com -->
    <title>编组 4</title>
    <desc>Created with Sketch.</desc>
    <defs>
        <polygon id="path-1" points="25.5894737 15.0001705 25.5894737 30.0001705 0 30.0001705 0 15.0001705 0 0.000170454545 25.5894737 0.000170454545 25.5894737 15.0001705"></polygon>
        <linearGradient x1="50%" y1="9.60274819%" x2="52.5036082%" y2="82.9037535%" id="linearGradient-3">
            <stop stop-color="#FFE43C" offset="0%"></stop>
            <stop stop-color="#FFC500" offset="100%"></stop>
        </linearGradient>
        <linearGradient x1="-3.77462324%" y1="13.1229264%" x2="50%" y2="100%" id="linearGradient-4">
            <stop stop-color="#FAD55B" offset="0%"></stop>
            <stop stop-color="#F4AB2E" offset="100%"></stop>
        </linearGradient>
        <linearGradient x1="-24.5023193%" y1="-50.01794%" x2="63.9454582%" y2="77.6262556%" id="linearGradient-5">
            <stop stop-color="#FFFCD6" offset="0%"></stop>
            <stop stop-color="#F29808" offset="100%"></stop>
        </linearGradient>
    </defs>
    <g id="页面2" stroke="none" stroke-width="1" fill="none" fill-rule="evenodd">
        <g id="跟读复制-2" transform="translate(-1446.000000, -15.000000)">
            <g id="编组-4" transform="translate(1446.000000, 15.000000)">
                <g id="金币">
                    <mask id="mask-2" fill="white">
                        <use xlink:href="#path-1"></use>
                    </mask>
                    <g id="Clip-2"></g>
                    <path d="M22.6713758,20.1138068 C22.6713758,15.5683523 21.5490305,13.8638068 19.3043398,12.1592614 C17.4210443,10.7285795 16.4984765,10.4547159 15.9373038,9.31835227 L9.20323176,9.31835227 C8.6420591,10.4547159 7.71893006,10.7285795 5.83619575,12.1592614 C3.59150508,13.8638068 2.46915974,15.5683523 2.46915974,20.1138068 C2.46915974,24.6592614 1.3468144,25.2274432 1.3468144,26.3638068 C1.3468144,27.5001705 4.71385042,28.6365341 12.5702678,28.6365341 C20.4266851,28.6365341 23.7937211,27.5001705 23.7937211,26.3638068 C23.7937211,25.2274432 22.6713758,24.6592614 22.6713758,20.1138068 M9.20323176,8.18198864 L15.9373038,8.18198864 C16.4984765,7.045625 17.5377682,5.958125 18.6410337,5.183125 C19.9665235,4.25244318 19.8655125,3.63653409 19.8655125,3.63653409 C19.8655125,3.63653409 17.9519137,4.089375 17.6208218,3.06835227 C17.2897299,2.04903409 16.171874,1.69448864 15.3761311,2.50017045 C14.8149584,3.06835227 14.2537858,3.49448864 14.2537858,3.49448864 C14.2537858,3.49448864 12.0090951,1.36380682 10.8867498,1.36380682 C8.79133102,1.36380682 9.17012258,4.31494318 8.08088643,3.63653409 C6.94114474,2.92630682 5.83619575,3.06835227 5.83619575,3.63653409 C5.83619575,4.20471591 6.56291436,4.80130682 7.32330332,5.61153409 C7.89233241,6.21892045 8.6768518,6.92119318 9.20323176,8.18198864" id="Fill-1" stroke="url(#linearGradient-4)" stroke-width="0.901577761" fill="url(#linearGradient-3)" mask="url(#mask-2)"></path>
                </g>
                <path d="M15.1346514,16.7198329 C15.7591695,16.7198329 16.2652274,17.2025068 16.2652274,17.797739 C16.2652274,18.3934628 15.7591695,18.8761366 15.1346514,18.8761366 C14.5101333,18.8761366 14.004571,18.3934628 14.004571,17.797739 C14.004571,17.2025068 14.5101333,16.7198329 15.1346514,16.7198329 L15.1346514,16.7198329 Z M18,20.6982059 L18,16.2489555 C18,15.5603342 17.3536733,15 16.5586518,15 L10.4349047,15 C9.64384844,15 9,15.5578766 9,16.2430573 L9,19.7667732 C9,23.843942 10.8745457,25.9289752 15.4707016,26.9646105 L15.6273268,27 L16.4570437,24.9621529 L16.2939751,24.9100516 C13.5351911,24.0321946 12.396189,22.7675104 12.5121709,20.6982059 L18,20.6982059 Z" id="Fill-1-Copy" stroke="url(#linearGradient-5)" stroke-width="0.991735537" fill="#FFEB75"></path>
            </g>
        </g>
    </g>
</svg>