<?xml version="1.0" encoding="UTF-8"?>
<svg width="26px" height="25px" viewBox="0 0 26 25" version="1.1" xmlns="http://www.w3.org/2000/svg" xmlns:xlink="http://www.w3.org/1999/xlink">
    <!-- Generator: Sketch 54.1 (76490) - https://sketchapp.com -->
    <title>AK-MN声音_fill@2x</title>
    <desc>Created with Sketch.</desc>
    <g id="页面2" stroke="none" stroke-width="1" fill="none" fill-rule="evenodd">
        <g id="跟读复制-2" transform="translate(-1186.000000, -618.000000)" fill="#0A2B40" fill-rule="nonzero">
            <g id="Group-7" transform="translate(683.000000, 263.000000)">
                <g id="AK-MN声音_fill" transform="translate(503.000000, 355.000000)">
                    <g id="Group" transform="translate(0.085530, 0.203128)">
                        <path d="M12.6545739,24.2272387 C12.0383561,24.2272387 11.356283,23.857508 10.6271703,23.1293361 L5.25525612,17.757422 L2.82237171,17.757422 C1.26630411,17.757422 2.4424935e-15,16.4911179 2.4424935e-15,14.9350503 L2.4424935e-15,9.29030686 C2.4424935e-15,7.73423926 1.26630411,6.46793516 2.82237171,6.46793516 L5.25525612,6.46793516 L10.6243479,1.09884338 C11.346875,0.376316227 12.0280074,0.0103486963 12.6489292,0.0103486963 C13.323476,0.0103486963 14.1118585,0.470395284 14.1118585,1.76398232 L14.1118585,22.4613748 C14.1118585,23.7653105 13.3262984,24.2272387 12.6545739,24.2272387 L12.6545739,24.2272387 Z M17.3923952,18.5326334 L17.3923953,18.5326334 C17.195536,18.5327065 17.0036459,18.4708276 16.8439144,18.3557648 C16.4224402,18.0528302 16.3255388,17.4648361 16.6284733,17.0424211 L17.0010264,16.5325127 C17.9747446,15.2125835 18.8158114,14.0714045 18.8158114,12.1126786 C18.8158114,10.0833933 18.0707053,9.09838559 17.1270923,7.85183808 C16.9605724,7.63263388 16.7940525,7.41060731 16.6294141,7.1819952 C16.3264795,6.76052102 16.4224402,6.17252692 16.8448551,5.86865157 C17.2672701,5.56383542 17.8543234,5.66167764 18.1581988,6.08409261 C18.3124884,6.29953365 18.471482,6.50932994 18.6276533,6.71630387 C19.6455887,8.06163438 20.6973925,9.45212284 20.6973925,12.1126786 C20.6973925,14.6895039 19.5392793,16.261565 18.5175808,17.6492311 L18.1581988,18.1412645 C17.9738038,18.3971596 17.6859219,18.5326334 17.3923953,18.5326334 L17.3923952,18.5326334 Z" id="Shape"></path>
                        <path d="M20.5929648,21.7266174 L20.5929648,21.7266174 C20.3648069,21.7268331 20.1443929,21.6438849 19.9729838,21.4933013 C19.5825557,21.1508536 19.5430425,20.5562739 19.8854902,20.1658458 C21.7736569,18.0123762 23.5197642,15.5484457 23.5197642,12.1126786 C23.5197642,8.67691141 21.7736569,6.21204012 19.8854902,4.06045209 C19.5430425,3.66908322 19.5825557,3.07544437 19.9729838,2.73205581 C20.3615303,2.38960804 20.9561099,2.42818046 21.3004393,2.81860854 C23.3278429,5.13201255 25.4013454,8.04375936 25.4013454,12.1126786 C25.4013454,16.1815978 23.3278429,19.0942854 21.3004393,21.4058078 C21.1132219,21.6184265 20.8535637,21.7266174 20.5929648,21.7266174 L20.5929648,21.7266174 Z" id="Shape"></path>
                    </g>
                </g>
            </g>
        </g>
    </g>
</svg>