<?xml version="1.0" encoding="UTF-8"?>
<svg width="86px" height="86px" viewBox="0 0 86 86" version="1.1" xmlns="http://www.w3.org/2000/svg" xmlns:xlink="http://www.w3.org/1999/xlink">
    <!-- Generator: Sketch 46.2 (44496) - http://www.bohemiancoding.com/sketch -->
    <title>邮件已发送@2x</title>
    <desc>Created with Sketch.</desc>
    <defs></defs>
    <g id="Page-1" stroke="none" stroke-width="1" fill="none" fill-rule="evenodd">
        <g id="注册-邮箱-copy-5" transform="translate(-1563.000000, -414.000000)">
            <g id="Group-2-Copy-3" transform="translate(1396.000000, 267.000000)">
                <g id="邮件已发送" transform="translate(167.000000, 147.000000)">
                    <rect id="Rectangle-5" fill="#D8E2E9" x="0" y="37" width="86" height="48.6" rx="5"></rect>
                    <path d="M20.2631579,7.10542736e-15 L76,7.10542736e-15 L76,6.66133815e-15 C77.6568542,6.35697896e-15 79,1.34314575 79,3 L79,81 L7,81 L7,14.2783203 L20.2631579,7.10542736e-15 Z" id="Rectangle-5" fill="#2A9FE4"></path>
                    <rect id="Rectangle-6" fill="#FFFFFF" transform="translate(37.071068, 35.071068) rotate(-315.000000) translate(-37.071068, -35.071068) " x="29.0710678" y="33.0710678" width="16" height="4" rx="2"></rect>
                    <rect id="Rectangle-6-Copy" fill="#FFFFFF" transform="translate(49.253048, 32.253048) rotate(-45.000000) translate(-49.253048, -32.253048) " x="36.7530483" y="30.2530483" width="25" height="4" rx="2"></rect>
                    <polygon id="Rectangle-5" fill="#1F93D7" points="7 14 21 12.5 7 26.5"></polygon>
                    <path d="M10,4.46626862e-15 L21,0 L7,14 L7,3 L7,3 C7,1.34314575 8.34314575,7.62436141e-14 10,7.59392549e-14 Z" id="Rectangle-5-Copy" fill="#54BCF9" transform="translate(14.000000, 7.000000) scale(-1, -1) translate(-14.000000, -7.000000) "></path>
                    <path d="M86,43 L86,80.2231579 L86,80.2231579 C86,82.9845817 83.7614237,85.2231579 81,85.2231579 C80.8789876,85.2231579 80.7580151,85.2187647 80.6373215,85.209987 L9,80 L86,43 Z" id="Rectangle-5" fill="#D8E2E9"></path>
                    <path d="M0,42 L81,85.5 L5.00617283,85.5938195 L5.00617283,85.5938195 C2.24475119,85.5972287 0.00341297291,83.3614178 3.8103904e-06,80.5999962 C1.27013038e-06,80.5979386 8.88430405e-16,80.595881 8.8817842e-16,80.5938234 L0,42 Z" id="Rectangle-5" fill="#F0F4F6"></path>
                </g>
            </g>
        </g>
    </g>
</svg>