<?xml version="1.0" encoding="UTF-8"?>
<svg width="170px" height="48px" viewBox="0 0 170 48" version="1.1" xmlns="http://www.w3.org/2000/svg" xmlns:xlink="http://www.w3.org/1999/xlink">
    <!-- Generator: Sketch 52.4 (67378) - http://www.bohemiancoding.com/sketch -->
    <title>分组 7 copy 2</title>
    <desc>Created with Sketch.</desc>
    <g id="页面-1" stroke="none" stroke-width="1" fill="none" fill-rule="evenodd">
        <g id="移动APP产品介绍及下载页-Copy-4" transform="translate(-1347.000000, -750.000000)">
            <rect fill="#FFFFFF" x="0" y="0" width="1920" height="2218"></rect>
            <rect id="矩形" fill="#F1F5F8" fill-rule="nonzero" x="0" y="714" width="1920" height="120"></rect>
            <g id="分组-7-copy-2" transform="translate(1347.000000, 750.000000)">
                <rect id="矩形" fill="#000000" fill-rule="nonzero" x="0" y="0" width="170" height="48" rx="5.48571429"></rect>
                <path d="M49.5134833,20.3138401 C48.4763746,20.3138401 47.6278317,21.162383 47.6278317,22.1994917 L47.6278317,29.7420925 C47.6278317,30.7792012 48.4763746,31.6277441 49.5134833,31.6277441 C50.5505921,31.6277441 51.399135,30.7792012 51.399135,29.7420925 L51.399135,22.1994917 C51.399135,21.162383 50.5505921,20.3138401 49.5134833,20.3138401 Z M26.8856517,20.3138401 C25.848543,20.3138401 25,21.162383 25,22.1994917 L25,29.7420925 C25,30.7792012 25.848543,31.6277441 26.8856517,31.6277441 C27.9227604,31.6277441 28.7713033,30.7792012 28.7713033,29.7420925 L28.7713033,22.1994917 C28.7713033,21.162383 27.9227604,20.3138401 26.8856517,20.3138401 Z M29.7141321,30.6849272 L29.7141321,30.6849276 C29.7141323,32.2470522 30.980485,33.513408 32.5426125,33.5134051 C32.5426125,33.5134051 32.5426125,33.5134051 32.5426125,33.5134051 L32.5426125,37.2847202 C32.5426125,38.3218289 33.3911555,39.1703718 34.4282642,39.1703718 C35.4653729,39.1703718 36.3139158,38.3218289 36.3139158,37.2847202 L36.3139158,33.5134051 L40.0852309,33.5134051 L40.0852309,37.2847202 C40.0852309,38.3218289 40.9337739,39.1703718 41.9708826,39.1703718 C43.0079913,39.1703718 43.8565343,38.3218289 43.8565343,37.2847202 L43.8565343,33.5134051 L43.8565341,33.5134051 C45.4186587,33.5134051 46.6850146,32.2470522 46.6850146,30.6849246 L46.6850146,20.3138376 L29.7141261,20.3138376 L29.7141261,30.6849246 L29.7141321,30.6849272 Z M46.6322205,18.4281825 L46.6322208,18.4281849 C46.3496777,15.9008004 44.947725,13.6336624 42.8128199,12.2517268 L43.7565886,10.3651323 C43.9896057,9.89935735 43.8009192,9.33287633 43.3351457,9.09986071 C42.8693708,8.8668436 42.3028898,9.05553016 42.0698742,9.52130361 L41.1232769,11.415441 L40.8771992,11.317387 C40.0352533,11.037366 39.1348531,10.8855697 38.1995702,10.8855697 C37.2642872,10.8855697 36.363887,11.0373649 35.5219441,11.317384 L35.2758663,11.415438 L34.3292691,9.52130066 C34.096252,9.05552569 33.5297695,8.86683913 33.0639945,9.09985771 C32.5982196,9.33287481 32.4095331,9.8993573 32.6425516,10.3651322 L33.5863203,12.2517267 C31.4516244,13.633848 30.0497474,15.9008828 29.7669194,18.4281849 L29.7669194,19.3710107 L46.6850078,19.3710107 L46.6850078,18.4281849 L46.6322095,18.4281849 L46.6322205,18.4281825 Z M35.3711047,16.5425309 C34.8503966,16.5430516 34.4278576,16.1213561 34.4273361,15.6006479 C34.4268153,15.0799397 34.8485108,14.6574007 35.369219,14.6568792 L35.3739332,14.6568792 C35.8946414,14.6573999 36.3163377,15.0799397 36.3158161,15.6006479 C36.3152954,16.1213561 35.8927557,16.5430524 35.3720475,16.5425309 L35.3711047,16.5425309 Z M41.0280774,16.5425309 C40.5073692,16.5430516 40.0848302,16.1213561 40.0843087,15.6006479 C40.083788,15.0799397 40.5054835,14.6574007 41.0261917,14.6568792 L41.0309058,14.6568792 C41.551614,14.6573999 41.9733103,15.0799397 41.9727888,15.6006479 C41.9722681,16.1213561 41.5497283,16.5430524 41.0290201,16.5425309 L41.0280774,16.5425309 Z" id="形状" fill="#5BA806" fill-rule="nonzero"></path>
                <path d="M63.72,9.62742857 L66.4045714,9.62742857 C67.5977143,9.62742857 68.4925714,9.95657143 69.1097143,10.6148571 C69.696,11.232 69.9942857,12.1268571 69.9942857,13.2994286 C69.9942857,14.4617143 69.696,15.3565714 69.1097143,15.984 C68.4925714,16.6422857 67.5977143,16.9714286 66.4045714,16.9714286 L63.72,16.9714286 L63.72,9.62742857 Z M64.9234286,10.656 L64.9234286,15.9428571 L66.1782857,15.9428571 C67.0937143,15.9428571 67.7622857,15.7268571 68.184,15.3051429 C68.5954286,14.8731429 68.8011429,14.2045714 68.8011429,13.2994286 C68.8011429,12.3737143 68.5954286,11.6948571 68.184,11.2834286 C67.7622857,10.8617143 67.0937143,10.656 66.1782857,10.656 L64.9234286,10.656 Z M73.4914286,11.5097143 C74.2937143,11.5097143 74.9417143,11.7668571 75.4354286,12.3017143 C75.9188571,12.8262857 76.1657143,13.4948571 76.1657143,14.3177143 C76.1657143,15.1302857 75.9188571,15.7988571 75.4457143,16.3131429 C74.952,16.848 74.2937143,17.1154286 73.4914286,17.1154286 C72.6788571,17.1154286 72.0308571,16.848 71.5371429,16.3131429 C71.0537143,15.7988571 70.8171429,15.1302857 70.8171429,14.3177143 C70.8171429,13.4948571 71.0537143,12.8262857 71.5474286,12.3017143 C72.0308571,11.7668571 72.6788571,11.5097143 73.4914286,11.5097143 Z M73.4914286,12.4662857 C72.9977143,12.4662857 72.6274286,12.6514286 72.36,13.0422857 C72.1337143,13.3714286 72.0205714,13.8034286 72.0205714,14.3177143 C72.0205714,14.832 72.1337143,15.2537143 72.36,15.5828571 C72.6274286,15.9634286 72.9977143,16.1588571 73.4914286,16.1588571 C73.9748571,16.1588571 74.3554286,15.9634286 74.6228571,15.5828571 C74.8491429,15.2434286 74.9725714,14.8217143 74.9725714,14.3177143 C74.9725714,13.8034286 74.8491429,13.3714286 74.6228571,13.0422857 C74.3554286,12.6514286 73.9748571,12.4662857 73.4914286,12.4662857 Z M76.6285714,11.6537143 L77.9245714,11.6537143 L78.984,15.5828571 L80.0331429,11.6537143 L81.1131429,11.6537143 L82.1622857,15.5828571 L83.2217143,11.6537143 L84.5177143,11.6537143 L82.728,16.9714286 L81.6377143,16.9714286 L80.5782857,13.0834286 L79.5085714,16.9714286 L78.4182857,16.9714286 L76.6285714,11.6537143 Z M87.9325714,11.5097143 C89.2594286,11.5097143 89.928,12.2297143 89.928,13.6902857 L89.928,16.9714286 L88.7554286,16.9714286 L88.7554286,13.7931429 C88.7554286,12.9188571 88.3542857,12.4868571 87.552,12.4868571 C87.264,12.4868571 87.0068571,12.5897143 86.7908571,12.7954286 C86.544,13.0217143 86.4,13.3508571 86.3588571,13.7725714 L86.3588571,16.9714286 L85.1862857,16.9714286 L85.1862857,11.6537143 L86.3588571,11.6537143 L86.3588571,12.2708571 C86.5645714,12.024 86.8011429,11.8285714 87.0582857,11.7051429 C87.3257143,11.5714286 87.6137143,11.5097143 87.9325714,11.5097143 Z M91.2651429,9.48342857 L92.4377143,9.48342857 L92.4377143,16.9714286 L91.2651429,16.9714286 L91.2651429,9.48342857 Z M96.2434286,11.5097143 C97.0457143,11.5097143 97.6937143,11.7668571 98.1874286,12.3017143 C98.6708571,12.8262857 98.9177143,13.4948571 98.9177143,14.3177143 C98.9177143,15.1302857 98.6708571,15.7988571 98.1977143,16.3131429 C97.704,16.848 97.0457143,17.1154286 96.2434286,17.1154286 C95.4308571,17.1154286 94.7828571,16.848 94.2891429,16.3131429 C93.8057143,15.7988571 93.5691429,15.1302857 93.5691429,14.3177143 C93.5691429,13.4948571 93.8057143,12.8262857 94.2994286,12.3017143 C94.7828571,11.7668571 95.4308571,11.5097143 96.2434286,11.5097143 Z M96.2434286,12.4662857 C95.7497143,12.4662857 95.3794286,12.6514286 95.112,13.0422857 C94.8857143,13.3714286 94.7725714,13.8034286 94.7725714,14.3177143 C94.7725714,14.832 94.8857143,15.2537143 95.112,15.5828571 C95.3794286,15.9634286 95.7497143,16.1588571 96.2434286,16.1588571 C96.7268571,16.1588571 97.1074286,15.9634286 97.3748571,15.5828571 C97.6011429,15.2434286 97.7245714,14.8217143 97.7245714,14.3177143 C97.7245714,13.8034286 97.6011429,13.3714286 97.3748571,13.0422857 C97.1074286,12.6514286 96.7268571,12.4662857 96.2434286,12.4662857 Z M102.363429,11.5097143 C103.145143,11.5097143 103.731429,11.7051429 104.101714,12.096 C104.430857,12.4354286 104.595429,12.9291429 104.595429,13.5771429 L104.595429,16.9714286 L103.505143,16.9714286 L103.505143,16.272 C103.299429,16.5394286 103.042286,16.7348571 102.744,16.8788571 C102.404571,17.0331429 102.003429,17.1154286 101.540571,17.1154286 C100.985143,17.1154286 100.553143,16.9714286 100.234286,16.6937143 C99.9051429,16.4057143 99.7405714,16.0457143 99.7405714,15.6034286 C99.7405714,15.0068571 99.9668571,14.544 100.44,14.2251429 C100.872,13.9165714 101.478857,13.752 102.260571,13.7314286 L103.422857,13.7005714 L103.422857,13.4948571 C103.422857,12.7954286 103.042286,12.456 102.281143,12.456 C101.952,12.456 101.694857,12.5074286 101.499429,12.6308571 C101.273143,12.7645714 101.118857,12.9702857 101.057143,13.248 L99.8948571,13.1554286 C100.008,12.5691429 100.296,12.1371429 100.758857,11.8697143 C101.149714,11.6228571 101.684571,11.5097143 102.363429,11.5097143 Z M103.422857,14.544 L102.342857,14.5748571 C101.406857,14.5954286 100.944,14.9245714 100.944,15.5622857 C100.944,15.7474286 101.016,15.9017143 101.180571,16.0251429 C101.345143,16.1485714 101.550857,16.2205714 101.808,16.2205714 C102.260571,16.2205714 102.641143,16.0868571 102.949714,15.8297143 C103.258286,15.5622857 103.422857,15.2228571 103.422857,14.8114286 L103.422857,14.544 Z M109.614857,9.48342857 L110.787429,9.48342857 L110.787429,16.9714286 L109.697143,16.9714286 L109.697143,16.4057143 C109.326857,16.8788571 108.792,17.1154286 108.092571,17.1154286 C107.300571,17.1154286 106.683429,16.8377143 106.241143,16.2822857 C105.829714,15.768 105.624,15.0994286 105.624,14.2868571 C105.624,13.5051429 105.819429,12.8571429 106.230857,12.3428571 C106.662857,11.7874286 107.269714,11.5097143 108.030857,11.5097143 C108.648,11.5097143 109.172571,11.7977143 109.614857,12.384 L109.614857,9.48342857 Z M108.308571,12.456 C107.773714,12.456 107.393143,12.6308571 107.146286,12.9805714 C106.930286,13.2788571 106.827429,13.7108571 106.827429,14.2868571 C106.827429,14.8628571 106.92,15.3051429 107.125714,15.6137143 C107.362286,15.984 107.742857,16.1691429 108.267429,16.1691429 C108.72,16.1691429 109.08,15.984 109.326857,15.624 C109.542857,15.2948571 109.656,14.8628571 109.656,14.3485714 L109.656,14.2662857 C109.656,13.7005714 109.512,13.248 109.244571,12.9188571 C108.997714,12.6102857 108.678857,12.456 108.308571,12.456 Z M117.915429,11.5097143 C118.717714,11.5097143 119.365714,11.7668571 119.859429,12.3017143 C120.342857,12.8262857 120.589714,13.4948571 120.589714,14.3177143 C120.589714,15.1302857 120.342857,15.7988571 119.869714,16.3131429 C119.376,16.848 118.717714,17.1154286 117.915429,17.1154286 C117.102857,17.1154286 116.454857,16.848 115.961143,16.3131429 C115.477714,15.7988571 115.241143,15.1302857 115.241143,14.3177143 C115.241143,13.4948571 115.477714,12.8262857 115.971429,12.3017143 C116.454857,11.7668571 117.102857,11.5097143 117.915429,11.5097143 Z M117.915429,12.4662857 C117.421714,12.4662857 117.051429,12.6514286 116.784,13.0422857 C116.557714,13.3714286 116.444571,13.8034286 116.444571,14.3177143 C116.444571,14.832 116.557714,15.2537143 116.784,15.5828571 C117.051429,15.9634286 117.421714,16.1588571 117.915429,16.1588571 C118.398857,16.1588571 118.779429,15.9634286 119.046857,15.5828571 C119.273143,15.2434286 119.396571,14.8217143 119.396571,14.3177143 C119.396571,13.8034286 119.273143,13.3714286 119.046857,13.0422857 C118.779429,12.6514286 118.398857,12.4662857 117.915429,12.4662857 Z M124.364571,11.5097143 C125.691429,11.5097143 126.36,12.2297143 126.36,13.6902857 L126.36,16.9714286 L125.187429,16.9714286 L125.187429,13.7931429 C125.187429,12.9188571 124.786286,12.4868571 123.984,12.4868571 C123.696,12.4868571 123.438857,12.5897143 123.222857,12.7954286 C122.976,13.0217143 122.832,13.3508571 122.790857,13.7725714 L122.790857,16.9714286 L121.618286,16.9714286 L121.618286,11.6537143 L122.790857,11.6537143 L122.790857,12.2708571 C122.996571,12.024 123.233143,11.8285714 123.490286,11.7051429 C123.757714,11.5714286 124.045714,11.5097143 124.364571,11.5097143 Z M132.685714,9.936 L132.685714,11.6537143 L133.868571,11.6537143 L133.868571,12.6205714 L132.685714,12.6205714 L132.685714,15.624 C132.685714,15.7474286 132.706286,15.84 132.768,15.912 C132.829714,15.9737143 132.912,16.0045714 133.035429,16.0045714 L133.734857,16.0045714 L133.734857,16.9714286 L132.84,16.9714286 C132.377143,16.9714286 132.037714,16.848 131.821714,16.6011429 C131.616,16.3748571 131.513143,16.056 131.513143,15.624 L131.513143,12.6205714 L130.556571,12.6205714 L130.556571,11.6537143 L131.513143,11.6537143 L131.513143,10.4194286 L132.685714,9.936 Z M134.742857,9.48342857 L135.915429,9.48342857 L135.915429,12.3634286 C136.110857,12.0651429 136.357714,11.8491429 136.645714,11.7051429 C136.902857,11.5714286 137.201143,11.5097143 137.540571,11.5097143 C138.188571,11.5097143 138.672,11.6948571 138.990857,12.0754286 C139.289143,12.4354286 139.443429,12.9702857 139.443429,13.68 L139.443429,16.9714286 L138.270857,16.9714286 L138.270857,13.8857143 C138.270857,13.4331429 138.178286,13.0834286 138.003429,12.8468571 C137.797714,12.5897143 137.499429,12.4662857 137.098286,12.4662857 C136.728,12.4662857 136.44,12.6102857 136.234286,12.8982857 C136.018286,13.1862857 135.915429,13.5462857 135.915429,13.9988571 L135.915429,16.9714286 L134.742857,16.9714286 L134.742857,9.48342857 Z M142.940571,11.5097143 C143.814857,11.5097143 144.483429,11.7977143 144.946286,12.3942857 C145.368,12.9291429 145.584,13.68 145.584,14.6365714 L141.603429,14.6365714 C141.644571,15.1302857 141.778286,15.5108571 142.004571,15.768 C142.230857,16.0251429 142.56,16.1588571 142.981714,16.1588571 C143.341714,16.1588571 143.629714,16.0765714 143.856,15.912 C144.030857,15.7782857 144.185143,15.5622857 144.329143,15.264 L145.501714,15.264 C145.378286,15.7577143 145.131429,16.1794286 144.761143,16.5085714 C144.288,16.9097143 143.701714,17.1154286 142.992,17.1154286 C142.2,17.1154286 141.572571,16.8685714 141.109714,16.3851429 C140.616,15.8811429 140.369143,15.192 140.369143,14.3074286 C140.369143,13.5154286 140.595429,12.8571429 141.068571,12.3222857 C141.521143,11.7771429 142.148571,11.5097143 142.940571,11.5097143 Z M142.971429,12.4662857 C142.580571,12.4662857 142.282286,12.5691429 142.056,12.7954286 C141.84,13.0114286 141.696,13.3302857 141.624,13.752 L144.36,13.752 C144.257143,12.888 143.794286,12.4662857 142.971429,12.4662857 Z" id="Download-on-the" fill="#FFFFFF"></path>
                <path d="M67.8768,32.1906286 L66.9168,27.2370286 L66.8784,27.2370286 L65.9184,32.1906286 L67.8768,32.1906286 Z M63.0384,36.9714286 L66.0912,23.3010286 L67.7232,23.3010286 L70.776,36.9714286 L68.8176,36.9714286 L68.2416,34.0338286 L65.5728,34.0338286 L64.9968,36.9714286 L63.0384,36.9714286 Z M70.8823385,36.9714286 L70.8823385,27.2370286 L72.8407385,27.2370286 L72.8407385,28.1778286 L72.8791385,28.1778286 C73.0839395,27.870627 73.3303371,27.6178296 73.6183385,27.4194286 C73.9063399,27.2210276 74.2743363,27.1218286 74.7223385,27.1218286 C74.9655397,27.1218286 75.2087373,27.1634282 75.4519385,27.2466286 C75.6951397,27.329829 75.9127375,27.4674276 76.1047385,27.6594286 C76.2967395,27.8514295 76.4503379,28.0978271 76.5655385,28.3986286 C76.6807391,28.6994301 76.7383385,29.0674264 76.7383385,29.5026286 L76.7383385,36.9714286 L74.7799385,36.9714286 L74.7799385,30.2322286 C74.7799385,29.8738268 74.6967393,29.5922296 74.5303385,29.3874286 C74.3639377,29.1826275 74.12714,29.0802286 73.8199385,29.0802286 C73.4487366,29.0802286 73.1927392,29.1954274 73.0519385,29.4258286 C72.9111378,29.6562297 72.8407385,29.9890264 72.8407385,30.4242286 L72.8407385,36.9714286 L70.8823385,36.9714286 Z M79.571077,33.8034286 C79.571077,34.2002306 79.6478762,34.5202274 79.801477,34.7634286 C79.9550778,35.0066298 80.1982753,35.1282286 80.531077,35.1282286 C80.8254785,35.1282286 81.0622761,35.0162297 81.241477,34.7922286 C81.4206779,34.5682275 81.510277,34.2770304 81.510277,33.9186286 L81.510277,30.1362286 C81.510277,29.829027 81.4174779,29.5762296 81.231877,29.3778286 C81.0462761,29.1794276 80.8126784,29.0802286 80.531077,29.0802286 C80.1598752,29.0802286 79.9070777,29.1954274 79.772677,29.4258286 C79.6382763,29.6562297 79.571077,29.925027 79.571077,30.2322286 L79.571077,33.8034286 Z M81.510277,36.9714286 L81.510277,36.0882286 C81.3822764,36.2290293 81.2606776,36.360228 81.145477,36.4818286 C81.0302764,36.6034292 80.9022777,36.7090281 80.761477,36.7986286 C80.6206763,36.888229 80.4606779,36.9586283 80.281477,37.0098286 C80.1022761,37.0610288 79.8910782,37.0866286 79.647877,37.0866286 C78.8286729,37.0866286 78.2590786,36.7794316 77.939077,36.1650286 C77.8238764,35.9474275 77.7406773,35.6786302 77.689477,35.3586286 C77.6382768,35.038627 77.612677,34.6098313 77.612677,34.0722286 L77.612677,30.3666286 C77.612677,29.6626251 77.6318768,29.1442302 77.670277,28.8114286 C77.7470774,28.1714254 78.0478744,27.6914302 78.572677,27.3714286 C78.8158782,27.2050277 79.1806746,27.1218286 79.667077,27.1218286 C80.0510789,27.1218286 80.3934755,27.2082277 80.694277,27.3810286 C80.9950785,27.5538294 81.2542759,27.800227 81.471877,28.1202286 L81.510277,28.1202286 L81.510277,23.3010286 L83.468677,23.3010286 L83.468677,36.9714286 L81.510277,36.9714286 Z M84.3430155,36.9714286 L84.3430155,27.2370286 L86.3014155,27.2370286 L86.3014155,28.2738286 C86.6982175,27.9154268 87.0886136,27.6338296 87.4726155,27.4290286 C87.8566174,27.2242275 88.3302127,27.1218286 88.8934155,27.1218286 L88.8934155,29.1954286 C88.7014146,29.1186282 88.5030165,29.0802286 88.2982155,29.0802286 C88.0934145,29.0802286 87.8726167,29.1154282 87.6358155,29.1858286 C87.3990143,29.2562289 87.1846165,29.3746277 86.9926155,29.5410286 C86.7878145,29.7074294 86.6214162,29.9250272 86.4934155,30.1938286 C86.3654149,30.4626299 86.3014155,30.7954266 86.3014155,31.1922286 L86.3014155,36.9714286 L84.3430155,36.9714286 Z M88.654154,30.5010286 C88.654154,30.1042266 88.6797538,29.7394302 88.730954,29.4066286 C88.7821543,29.0738269 88.8781533,28.7794299 89.018954,28.5234286 C89.2493552,28.1010265 89.5789519,27.7618299 90.007754,27.5058286 C90.4365562,27.2498273 90.958151,27.1218286 91.572554,27.1218286 C92.1869571,27.1218286 92.7085519,27.2498273 93.137354,27.5058286 C93.5661562,27.7618299 93.8957529,28.1010265 94.126154,28.5234286 C94.2669547,28.7794299 94.3629538,29.0738269 94.414154,29.4066286 C94.4653543,29.7394302 94.490954,30.1042266 94.490954,30.5010286 L94.490954,33.7074286 C94.490954,34.1042306 94.4653543,34.4690269 94.414154,34.8018286 C94.3629538,35.1346302 94.2669547,35.4290273 94.126154,35.6850286 C93.8957529,36.1074307 93.5661562,36.4466273 93.137354,36.7026286 C92.7085519,36.9586299 92.1869571,37.0866286 91.572554,37.0866286 C90.958151,37.0866286 90.4365562,36.9586299 90.007754,36.7026286 C89.5789519,36.4466273 89.2493552,36.1074307 89.018954,35.6850286 C88.8781533,35.4290273 88.7821543,35.1346302 88.730954,34.8018286 C88.6797538,34.4690269 88.654154,34.1042306 88.654154,33.7074286 L88.654154,30.5010286 Z M90.612554,34.0146286 C90.612554,34.3858304 90.6989532,34.6642276 90.871754,34.8498286 C91.0445549,35.0354295 91.2781526,35.1282286 91.572554,35.1282286 C91.8669555,35.1282286 92.1005532,35.0354295 92.273354,34.8498286 C92.4461549,34.6642276 92.532554,34.3858304 92.532554,34.0146286 L92.532554,30.1938286 C92.532554,29.8226267 92.4461549,29.5442295 92.273354,29.3586286 C92.1005532,29.1730276 91.8669555,29.0802286 91.572554,29.0802286 C91.2781526,29.0802286 91.0445549,29.1730276 90.871754,29.3586286 C90.6989532,29.5442295 90.612554,29.8226267 90.612554,30.1938286 L90.612554,34.0146286 Z M95.1924925,36.9714286 L95.1924925,27.2370286 L97.1508925,27.2370286 L97.1508925,36.9714286 L95.1924925,36.9714286 Z M95.1924925,25.2594286 L95.1924925,23.3010286 L97.1508925,23.3010286 L97.1508925,25.2594286 L95.1924925,25.2594286 Z M99.983631,33.8034286 C99.983631,34.2002306 100.06043,34.5202274 100.214031,34.7634286 C100.367632,35.0066298 100.610829,35.1282286 100.943631,35.1282286 C101.238033,35.1282286 101.47483,35.0162297 101.654031,34.7922286 C101.833232,34.5682275 101.922831,34.2770304 101.922831,33.9186286 L101.922831,30.1362286 C101.922831,29.829027 101.830032,29.5762296 101.644431,29.3778286 C101.45883,29.1794276 101.225232,29.0802286 100.943631,29.0802286 C100.572429,29.0802286 100.319632,29.1954274 100.185231,29.4258286 C100.05083,29.6562297 99.983631,29.925027 99.983631,30.2322286 L99.983631,33.8034286 Z M101.922831,36.9714286 L101.922831,36.0882286 C101.79483,36.2290293 101.673232,36.360228 101.558031,36.4818286 C101.44283,36.6034292 101.314832,36.7090281 101.174031,36.7986286 C101.03323,36.888229 100.873232,36.9586283 100.694031,37.0098286 C100.51483,37.0610288 100.303632,37.0866286 100.060431,37.0866286 C99.2412269,37.0866286 98.6716326,36.7794316 98.351631,36.1650286 C98.2364305,35.9474275 98.1532313,35.6786302 98.102031,35.3586286 C98.0508308,35.038627 98.025231,34.6098313 98.025231,34.0722286 L98.025231,30.3666286 C98.025231,29.6626251 98.0444308,29.1442302 98.082831,28.8114286 C98.1596314,28.1714254 98.4604284,27.6914302 98.985231,27.3714286 C99.2284322,27.2050277 99.5932286,27.1218286 100.079631,27.1218286 C100.463633,27.1218286 100.80603,27.2082277 101.106831,27.3810286 C101.407633,27.5538294 101.66683,27.800227 101.884431,28.1202286 L101.922831,28.1202286 L101.922831,23.3010286 L103.881231,23.3010286 L103.881231,36.9714286 L101.922831,36.9714286 Z M107.588308,36.9714286 L107.588308,27.2370286 L109.546708,27.2370286 L109.546708,28.1778286 L109.585108,28.1778286 C109.789909,27.870627 110.036307,27.6178296 110.324308,27.4194286 C110.612309,27.2210276 110.980306,27.1218286 111.428308,27.1218286 C111.85071,27.1218286 112.202707,27.2242275 112.484308,27.4290286 C112.765909,27.6338296 112.996307,27.8578274 113.175508,28.1010286 C113.418709,27.8322272 113.687507,27.6018295 113.981908,27.4098286 C114.27631,27.2178276 114.685905,27.1218286 115.210708,27.1218286 C115.453909,27.1218286 115.703507,27.1634282 115.959508,27.2466286 C116.215509,27.329829 116.445907,27.4674276 116.650708,27.6594286 C116.855509,27.8514295 117.021907,28.0978271 117.149908,28.3986286 C117.277909,28.6994301 117.341908,29.0674264 117.341908,29.5026286 L117.341908,36.9714286 L115.383508,36.9714286 L115.383508,30.2322286 C115.383508,29.8738268 115.300309,29.5922296 115.133908,29.3874286 C114.967507,29.1826275 114.73071,29.0802286 114.423508,29.0802286 C114.052306,29.0802286 113.796309,29.1954274 113.655508,29.4258286 C113.514707,29.6562297 113.444308,29.9890264 113.444308,30.4242286 L113.444308,36.9714286 L111.485908,36.9714286 L111.485908,30.2322286 C111.485908,29.8738268 111.402709,29.5922296 111.236308,29.3874286 C111.069907,29.1826275 110.83311,29.0802286 110.525908,29.0802286 C110.154706,29.0802286 109.898709,29.1954274 109.757908,29.4258286 C109.617107,29.6562297 109.546708,29.9890264 109.546708,30.4242286 L109.546708,36.9714286 L107.588308,36.9714286 Z M121.921847,36.9714286 L121.921847,35.9730286 L121.883447,35.9730286 C121.627445,36.3314304 121.368248,36.6066276 121.105847,36.7986286 C120.843445,36.9906295 120.475449,37.0866286 120.001847,37.0866286 C119.771445,37.0866286 119.537848,37.0514289 119.301047,36.9810286 C119.064245,36.9106282 118.837048,36.7794295 118.619447,36.5874286 C118.401845,36.4082277 118.225847,36.1490303 118.091447,35.8098286 C117.957046,35.4706269 117.889847,35.0322313 117.889847,34.4946286 C117.889847,33.9442258 117.934646,33.4610307 118.024247,33.0450286 C118.113847,32.6290265 118.280245,32.28023 118.523447,31.9986286 C118.753848,31.7298272 119.067445,31.5282292 119.464247,31.3938286 C119.861049,31.2594279 120.366643,31.1922286 120.981047,31.1922286 L121.192247,31.1922286 C121.269047,31.1922286 121.339446,31.1986285 121.403447,31.2114286 C121.467447,31.2242286 121.544246,31.2306286 121.633847,31.2306286 C121.723447,31.2306286 121.819446,31.2370285 121.921847,31.2498286 L121.921847,30.2322286 C121.921847,29.8994269 121.851447,29.6242297 121.710647,29.4066286 C121.569846,29.1890275 121.313848,29.0802286 120.942647,29.0802286 C120.686645,29.0802286 120.453048,29.1634277 120.241847,29.3298286 C120.030645,29.4962294 119.893047,29.739427 119.829047,30.0594286 L117.928247,30.0594286 C117.979447,29.1890242 118.273844,28.4850313 118.811447,27.9474286 C119.067448,27.6914273 119.374645,27.4898293 119.733047,27.3426286 C120.091448,27.1954278 120.494644,27.1218286 120.942647,27.1218286 C121.352249,27.1218286 121.736245,27.1858279 122.094647,27.3138286 C122.453048,27.4418292 122.766645,27.6338273 123.035447,27.8898286 C123.291448,28.1458299 123.496246,28.4658267 123.649847,28.8498286 C123.803447,29.2338305 123.880247,29.681826 123.880247,30.1938286 L123.880247,36.9714286 L121.921847,36.9714286 Z M121.921847,32.7858286 C121.704245,32.7474284 121.525047,32.7282286 121.384247,32.7282286 C120.961844,32.7282286 120.600248,32.8274276 120.299447,33.0258286 C119.998645,33.2242296 119.848247,33.5858259 119.848247,34.1106286 C119.848247,34.4818304 119.937846,34.7826274 120.117047,35.0130286 C120.296247,35.2434297 120.545845,35.3586286 120.865847,35.3586286 C121.198648,35.3586286 121.457846,35.2498297 121.643447,35.0322286 C121.829047,34.8146275 121.921847,34.5074306 121.921847,34.1106286 L121.921847,32.7858286 Z M124.581785,36.9714286 L124.581785,27.2370286 L126.540185,27.2370286 L126.540185,28.2738286 C126.936987,27.9154268 127.327383,27.6338296 127.711385,27.4290286 C128.095387,27.2242275 128.568982,27.1218286 129.132185,27.1218286 L129.132185,29.1954286 C128.940184,29.1186282 128.741786,29.0802286 128.536985,29.0802286 C128.332184,29.0802286 128.111386,29.1154282 127.874585,29.1858286 C127.637784,29.2562289 127.423386,29.3746277 127.231385,29.5410286 C127.026584,29.7074294 126.860186,29.9250272 126.732185,30.1938286 C126.604184,30.4626299 126.540185,30.7954266 126.540185,31.1922286 L126.540185,36.9714286 L124.581785,36.9714286 Z M129.180924,36.9714286 L129.180924,23.3010286 L131.139324,23.3010286 L131.139324,31.4802286 L131.177724,31.4802286 L133.539324,27.2370286 L135.497724,27.2370286 L133.174524,31.1922286 L135.977724,36.9714286 L133.846524,36.9714286 L132.080124,32.7666286 L131.139324,34.2450286 L131.139324,36.9714286 L129.180924,36.9714286 Z M141.344862,32.8434286 L137.466462,32.8434286 L137.466462,34.1682286 C137.466462,34.4754301 137.552861,34.7122277 137.725662,34.8786286 C137.898463,35.0450294 138.132061,35.1282286 138.426462,35.1282286 C138.797664,35.1282286 139.044061,35.0194297 139.165662,34.8018286 C139.287263,34.5842275 139.360862,34.3666297 139.386462,34.1490286 L141.344862,34.1490286 C141.344862,35.0066329 141.082465,35.6978259 140.557662,36.2226286 C140.301661,36.4914299 139.994464,36.7026278 139.636062,36.8562286 C139.27766,37.0098293 138.874464,37.0866286 138.426462,37.0866286 C137.812059,37.0866286 137.290464,36.9586299 136.861662,36.7026286 C136.43286,36.4466273 136.103263,36.1074307 135.872862,35.6850286 C135.732061,35.4290273 135.636062,35.1346302 135.584862,34.8018286 C135.533662,34.4690269 135.508062,34.1042306 135.508062,33.7074286 L135.508062,30.5010286 C135.508062,30.1042266 135.533662,29.7394302 135.584862,29.4066286 C135.636062,29.0738269 135.732061,28.7794299 135.872862,28.5234286 C136.103263,28.1010265 136.43286,27.7618299 136.861662,27.5058286 C137.290464,27.2498273 137.812059,27.1218286 138.426462,27.1218286 C138.874464,27.1218286 139.28086,27.1986278 139.645662,27.3522286 C140.010464,27.5058293 140.320861,27.7170272 140.576862,27.9858286 C141.088865,28.5618315 141.344862,29.2850242 141.344862,30.1554286 L141.344862,32.8434286 Z M137.466462,31.3074286 L139.386462,31.3074286 L139.386462,30.1938286 C139.386462,29.8226267 139.300063,29.5442295 139.127262,29.3586286 C138.954461,29.1730276 138.720864,29.0802286 138.426462,29.0802286 C138.132061,29.0802286 137.898463,29.1730276 137.725662,29.3586286 C137.552861,29.5442295 137.466462,29.8226267 137.466462,30.1938286 L137.466462,31.3074286 Z M142.046401,27.2370286 L142.046401,24.2802286 L144.004801,24.2802286 L144.004801,27.2370286 L145.214401,27.2370286 L145.214401,28.7730286 L144.004801,28.7730286 L144.004801,34.1682286 C144.004801,34.3986297 144.0272,34.5778279 144.072001,34.7058286 C144.116801,34.8338292 144.1904,34.9298283 144.292801,34.9938286 C144.395201,35.0578289 144.52,35.0962285 144.667201,35.1090286 C144.814401,35.1218286 144.996799,35.1282286 145.214401,35.1282286 L145.214401,36.9714286 L144.408001,36.9714286 C143.959998,36.9714286 143.585602,36.9010293 143.284801,36.7602286 C142.983999,36.6194279 142.744001,36.4402297 142.564801,36.2226286 C142.3856,36.0050275 142.254401,35.7586299 142.171201,35.4834286 C142.088,35.2082272 142.046401,34.9426299 142.046401,34.6866286 L142.046401,28.7730286 L141.067201,28.7730286 L141.067201,27.2370286 L142.046401,27.2370286 Z" id="Android-market" fill="#FFFFFF"></path>
            </g>
        </g>
    </g>
</svg>