<?xml version="1.0" encoding="UTF-8"?>
<svg width="70px" height="70px" viewBox="0 0 70 70" version="1.1" xmlns="http://www.w3.org/2000/svg" xmlns:xlink="http://www.w3.org/1999/xlink">
    <!-- Generator: Sketch 52.4 (67378) - http://www.bohemiancoding.com/sketch -->
    <title>APP store</title>
    <desc>Created with Sketch.</desc>
    <defs>
        <linearGradient x1="50%" y1="0%" x2="50%" y2="100%" id="linearGradient-1">
            <stop stop-color="#12C8FC" offset="0%"></stop>
            <stop stop-color="#1860ED" offset="100%"></stop>
        </linearGradient>
    </defs>
    <g id="世界语言地图" stroke="none" stroke-width="1" fill="none" fill-rule="evenodd">
        <g id="移动APP产品介绍及下载页-Copy-4" transform="translate(-1419.000000, -1405.000000)">
            <g id="APP-store" transform="translate(1419.000000, 1405.000000)">
                <circle id="circle" fill="url(#linearGradient-1)" cx="35" cy="35" r="35"></circle>
                <path d="M47.7529562,37.6592637 L55.3019663,37.6592637 C56.9037472,37.6592637 58.2022472,38.9556498 58.2022472,40.554823 C58.2022472,42.1539963 56.9037472,43.4503823 55.3019663,43.4503823 L51.1019122,43.4503823 L53.9369436,48.3528068 C54.737834,49.7377314 54.2625501,51.5086277 52.8753671,52.3082143 C51.4881841,53.107801 49.7144002,52.6332907 48.9135097,51.2483661 C44.1460035,43.0042462 40.5703738,36.8211563 38.1866207,32.6990964 C35.7606737,28.5040734 37.4958549,24.3021409 39.2102134,22.8868874 C41.1086007,26.1696377 43.9561816,31.0937631 47.7529562,37.6592637 Z M23.7253329,46.4257433 L20.937632,51.2463224 C20.1357577,52.6329482 18.3623486,53.1081312 16.9745927,52.3082143 C15.5893657,51.5097552 15.1136964,49.7395277 15.9121556,48.3543007 C15.9128356,48.353121 15.9135164,48.3519418 15.9141981,48.3507631 L17.9842948,44.7710876 C20.3169232,44.0558708 22.2306026,44.6074227 23.7253329,46.4257433 Z M34.9249799,15.4767286 L36.2149825,13.2460159 C37.015873,11.8610913 38.789657,11.3865811 40.1768399,12.1861677 C41.5640229,12.9857543 42.0393069,14.7566506 41.2384164,16.1415753 L28.7949154,37.6592637 C32.8566528,37.6592637 35.8575854,37.6592637 37.7977132,37.6592637 C40.7079048,37.6592637 42.3508821,41.084288 41.0769547,43.4503823 C35.2149722,43.4503823 26.4219986,43.4503823 14.6980337,43.4503823 C13.0962528,43.4503823 11.7977528,42.1539963 11.7977528,40.554823 C11.7977528,38.9556498 13.0962528,37.6592637 14.6980337,37.6592637 L22.0970036,37.6592637 L31.576024,21.2678472 L28.6115434,16.1415753 C27.810653,14.7566506 28.285937,12.9857543 29.6731199,12.1861677 C31.0603029,11.3865811 32.8340868,11.8610913 33.6349773,13.2460159 L34.9249799,15.4767286 Z" id="shape" fill="#F2F2F2"></path>
            </g>
        </g>
    </g>
</svg>