<?xml version="1.0" encoding="UTF-8"?>
<svg width="116px" height="96px" viewBox="0 0 116 96" version="1.1" xmlns="http://www.w3.org/2000/svg" xmlns:xlink="http://www.w3.org/1999/xlink">
    <!-- Generator: Sketch 52.4 (67378) - http://www.bohemiancoding.com/sketch -->
    <title>unesaco+logo</title>
    <desc>Created with Sketch.</desc>
    <g id="页面-1" stroke="none" stroke-width="1" fill="none" fill-rule="evenodd">
        <g id="移动APP产品介绍" transform="translate(-1051.000000, -1369.000000)" fill="#0581D1">
            <g id="分组-5" transform="translate(0.000000, 1232.000000)">
                <g id="unesaco" transform="translate(1032.000000, 137.000000)">
                    <g id="unesaco+logo" transform="translate(19.000000, 0.000000)">
                        <polygon id="Fill-41" points="10.5998063 28.7748924 105.167457 28.7748924 105.167457 24.6105485 10.5998063 24.6105485"></polygon>
                        <polygon id="Fill-43" points="10.5998063 78.9863382 105.167457 78.9863382 105.167457 74.8219943 10.5998063 74.8219943"></polygon>
                        <polygon id="Fill-44" points="5.03128302 86.1372219 110.324407 86.1372219 110.324407 81.3142569 5.03128302 81.3142569"></polygon>
                        <polygon id="Fill-45" points="0.080611378 92.4880689 115.378218 92.4880689 115.378218 88.3939383 0.080611378 88.3939383"></polygon>
                        <polygon id="Fill-46" points="57.884123 7.42212252 10.5993152 22.0423221 10.5993152 17.7395293 57.8949281 3.06395019"></polygon>
                        <polygon id="Fill-47" points="105.167654 22.0425199 57.6058442 7.33133962 57.8946334 3.06414797 105.167654 17.9978354"></polygon>
                        <polygon id="Fill-48" points="57.884123 13.1991979 29.5061659 21.6257888 19.7393945 21.6801795 57.8929635 9.79632268"></polygon>
                        <polygon id="Fill-49" points="87.3274568 21.9005109 57.6676294 13.1287867 57.8925706 9.7961249 96.0589092 21.9005109"></polygon>
                        <path d="M18.7858991,72.4928889 C16.5512209,72.5403571 15.7575418,70.6258072 15.7575418,68.3760132 L15.7575418,31.5189488 L17.3802619,31.5189488 L17.3802619,69.4766816 C17.3802619,70.5298819 17.8488076,71.4396887 18.7858991,71.4396887 C19.6876285,71.4396887 20.1561743,70.4824137 20.1561743,69.4292134 L20.1561743,31.5189488 L21.7788944,31.5189488 L21.7788944,68.5194066 C21.7788944,70.7217324 21.0942479,72.4928889 18.7858991,72.4928889" id="Fill-50"></path>
                        <polygon id="Fill-51" points="36.0908539 72.2051131 36.0908539 64.450988 33.2432354 42.5760681 33.2432354 72.2051131 31.6205153 72.2051131 31.6205153 31.5189488 33.0624966 31.5189488 36.0908539 56.0738431 36.0908539 31.5189488 37.7125918 31.5189488 37.7125918 72.2051131"></polygon>
                        <polygon id="Fill-52" points="47.6988037 72.2051131 47.6988037 31.5189488 52.4589138 31.5189488 52.4589138 33.0507866 49.3215239 33.0507866 49.3215239 49.6606941 52.1701246 49.6606941 52.1701246 51.3359253 49.3215239 51.3359253 49.3215239 70.5298819 52.4942757 70.5298819 52.4942757 72.2051131"></polygon>
                        <path d="M64.9682002,72.4928889 C62.0832552,72.4928889 61.8671545,70.0037762 61.8671545,67.5631206 L61.8671545,59.1375185 L63.4898746,59.0900504 L63.4898746,68.8546507 C63.4898746,70.1471697 63.7059754,71.534625 64.9682002,71.534625 C66.3011489,71.4871569 66.3384754,70.0512444 66.3384754,68.8546507 L66.3384754,59.9998572 C66.3384754,58.65987 66.1577366,57.8934566 65.9416358,56.6019266 C65.6528466,54.6379306 65.2560071,53.5382511 64.6077048,51.7186375 L63.0213289,46.9322626 C62.4800948,45.3529567 62.299356,44.2997564 62.0832552,42.6245252 C61.8671545,40.9018258 61.8671545,39.8476367 61.8671545,38.1733944 L61.8671545,36.1629191 C61.8671545,33.7212746 62.0832552,31.3280872 64.896494,31.2796301 C67.8158187,31.2796301 67.9602132,33.7697317 67.9602132,36.2103873 L67.9602132,43.7251937 L66.3384754,43.7251937 L66.3384754,34.9178683 C66.3384754,33.6253493 66.1940808,32.237894 64.931856,32.237894 C63.597925,32.2853621 63.4898746,33.7212746 63.4898746,34.9178683 L63.4898746,37.3110558 C63.4898746,39.1781375 63.4898746,40.278806 63.7059754,42.0984196 C63.9230584,43.7251937 64.1381769,44.6824686 64.6440491,46.1668382 L66.1577366,50.8088307 C66.5182319,51.8630199 67.059466,53.3948576 67.4189791,55.1660141 C67.7441125,56.9361817 67.9602132,57.7985203 67.9602132,59.9049208 L67.9602132,67.6105888 C67.9602132,70.0037762 67.7794744,72.4444318 64.9682002,72.4928889" id="Fill-53"></path>
                        <path d="M80.7949277,72.4928889 C78.522923,72.4928889 77.693882,70.7217324 77.693882,68.5194066 L77.693882,36.2103873 C77.693882,33.7697317 77.9099827,31.2796301 80.7949277,31.2796301 C83.606202,31.3280872 83.823285,33.7212746 83.823285,36.1629191 L83.823285,43.8211189 L82.1652029,43.8211189 L82.1652029,34.9178683 C82.1652029,33.7212746 82.0925145,32.2853621 80.7585835,32.237894 C79.5327029,32.237894 79.3166021,33.6253493 79.3166021,34.9178683 L79.3166021,69.4292134 C79.3166021,70.4824137 79.8931982,71.4396887 80.7585835,71.4396887 C81.7320191,71.3922205 82.1652029,70.5298819 82.1652029,69.4766816 L82.1652029,59.1375185 L83.823285,59.1375185 L83.823285,68.3760132 C83.823285,70.6258072 83.0296059,72.5403571 80.7949277,72.4928889" id="Fill-54"></path>
                        <path d="M98.2792462,34.9177694 C98.2792462,33.7211757 98.20754,32.2852633 96.8726268,32.2377951 C95.6113842,32.2377951 95.4316277,33.6252504 95.4316277,34.9177694 L95.4316277,69.4291145 C95.4316277,70.4823148 96.0082238,71.4395898 96.8726268,71.4395898 C97.8107005,71.3921216 98.2792462,70.529783 98.2792462,69.4765827 L98.2792462,34.9177694 Z M96.908971,72.49279 C94.6025867,72.49279 93.8089076,70.7216336 93.8089076,68.5202967 L93.8089076,36.2102884 C93.8089076,34.152345 93.9896464,31.2795312 96.908971,31.2795312 C99.6858656,31.3279883 99.9019663,34.2472814 99.9019663,36.1628203 L99.9019663,68.3759143 C99.9019663,70.6257083 99.1446314,72.5402582 96.908971,72.49279 Z" id="Fill-55"></path>
                    </g>
                </g>
            </g>
        </g>
    </g>
</svg>