<?xml version="1.0" encoding="UTF-8"?>
<svg width="110px" height="80px" viewBox="0 0 110 80" version="1.1" xmlns="http://www.w3.org/2000/svg" xmlns:xlink="http://www.w3.org/1999/xlink">
    <!-- Generator: Sketch 52.4 (67378) - http://www.bohemiancoding.com/sketch -->
    <title>分组</title>
    <desc>Created with Sketch.</desc>
    <defs>
        <linearGradient x1="43.9065328%" y1="0.372692418%" x2="56.0934672%" y2="99.6273076%" id="linearGradient-1">
            <stop stop-color="#FAD961" offset="0%"></stop>
            <stop stop-color="#F76B1C" offset="100%"></stop>
        </linearGradient>
    </defs>
    <g id="页面-1" stroke="none" stroke-width="1" fill="none" fill-rule="evenodd">
        <g id="移动APP产品介绍" transform="translate(-951.000000, -582.000000)">
            <g id="分组" transform="translate(951.000000, 582.000000)">
                <path d="M100.4142,17.2028442 C99.1574841,16.5470028 98.2668865,14.7562177 98.0567579,12.0614925 C97.8250206,9.36788879 99.8532852,7.11675016 99.8815034,7.12319915 C99.9435221,7.0649874 103.171675,11.3358447 103.000333,14.2259576 C102.905848,17.0614098 101.641464,17.8467073 100.4142,17.2028442 Z M103.404851,24.9057727 C102.338375,23.9921454 101.886565,22.0775505 102.321071,19.4524866 C102.73478,16.8202202 105.200677,15.1012199 105.221104,15.1120529 C105.286756,15.0681203 107.340932,19.8423707 106.5462,22.5989499 C105.827968,25.3148232 104.444902,25.797756 103.404851,24.9057727 Z M95.5953608,10.2598407 C94.1656053,9.88399525 92.8090599,8.30484142 91.8539262,5.66497237 C90.8722704,3.02475592 92.3045812,0.336647386 92.3384755,0.337512111 C92.4015015,0.270950935 96.8729739,3.83384669 97.42673,6.73427712 C98.0573573,9.56824419 96.9825973,10.6235087 95.5953608,10.2598407 Z M97.7640243,55.9220893 C96.5264472,56.463248 95.5172039,55.4229107 95.1519331,53.0806661 C94.8210608,50.7657729 95.9808745,47.4290314 95.9505181,47.3990474 C95.9336405,47.4119875 98.7228048,48.5401238 99.2837197,50.9776996 C99.8392236,53.4231433 98.9736948,55.3993076 97.7640243,55.9220893 Z M101.492777,43.5983 C102.481254,45.8562052 101.987463,47.9703601 100.8848,48.7493978 C99.7665077,49.5555431 98.5805053,48.7716616 97.7932832,46.575695 C97.0525625,44.3989748 97.5946012,40.8919349 97.560293,40.8704722 C97.5427089,40.8841363 100.492797,41.355376 101.492777,43.5983 Z M102.140816,52.3182787 C104.20824,50.9138312 107.009178,51.7534209 107.016137,51.7742221 C107.076937,51.780442 105.151793,56.5534998 102.792335,57.8068621 C100.499673,59.0789414 99.2633442,58.3007554 99.1740565,56.8517722 C99.0800373,55.3705295 100.066769,53.7048315 102.140816,52.3182787 Z M98.3363225,59.7180398 C100.605408,58.7996819 103.173586,60.2595616 103.173971,60.2833241 C103.236193,60.3017925 100.488679,64.5771035 97.9532664,65.27297 C95.4778432,66.0021353 94.4158046,64.9564348 94.5997863,63.5155697 C94.7919161,62.0359249 96.059883,60.6207055 98.3363225,59.7180398 Z M93.4004905,62.27992 C92.0895005,62.5307448 91.3033416,61.2789303 91.3831384,58.8942454 C91.492314,56.5430432 93.2302974,53.5155605 93.2068835,53.4789848 C93.1912281,53.48713 95.6914595,55.226628 95.8019912,57.7579103 C95.8905248,60.2903648 94.6810269,62.0408488 93.4004905,62.27992 Z M90.3962954,6.59359722 C89.6628315,7.53813964 88.1372856,7.92747414 85.4963652,6.18644577 C83.2015014,4.67546262 82.0201339,1.3598768 82.0201339,1.3598768 C82.0201339,1.3598768 85.450925,0.694140513 87.8749479,2.16179094 C90.9500006,4.01479125 91.0724389,5.68474002 90.3962954,6.59359722 Z M86.967394,71.2482846 C89.4125747,71.4336214 91.2045891,73.9179795 91.2015468,73.9394479 C91.258791,73.989962 87.0843361,76.6670269 84.4185146,76.1215555 C81.8035651,75.6449167 81.2255182,74.2092794 81.9870876,72.9926129 C82.7633645,71.7460082 84.520553,71.0469371 86.967394,71.2482846 Z M93.241083,66.1397461 C95.6381942,65.7524474 97.8654538,67.7708057 97.8638466,67.7927199 C97.9203297,67.8281601 94.4266036,71.4002703 91.7915959,71.4933174 C89.2098403,71.6382401 88.3677106,70.3707276 88.8380757,69.0016036 C89.3169463,67.6001863 90.843584,66.5049685 93.241083,66.1397461 Z M79.6230102,74.7221974 C82.0563141,75.4932264 83.3193605,78.3341686 83.3089962,78.3538488 C83.3650767,78.4215833 78.5831522,80.0004224 75.9525025,78.7992194 C73.3735882,77.6776951 73.0957036,76.1413159 74.1583725,75.1674896 C75.2419027,74.1656652 77.1942579,73.9290824 79.6230102,74.7221974 Z M104.669038,33.0428943 C103.819417,31.9185991 103.772421,29.9467742 104.752283,27.4963598 C105.714825,25.0414522 108.466487,23.9236322 108.487955,23.9383338 C108.548485,23.9047604 109.504472,28.9822666 108.180692,31.4969612 C106.933232,33.9796135 105.497246,34.1461587 104.669038,33.0428943 Z M87.8979233,67.5143889 C86.5592842,67.4588191 86.0327347,66.0565303 86.5854022,63.7412742 C87.1610401,61.4672874 89.4315283,58.8886003 89.4138145,58.846648 C89.3949296,58.8491016 91.5125322,61.1299489 91.1336916,63.6369357 C90.7404479,66.1424221 89.2111244,67.5789533 87.8979233,67.5143889 Z M94.3479197,11.4551286 C94.5359102,12.9372278 93.3089572,13.6738299 90.9712455,13.3076308 C88.7089708,12.9154045 85.5323097,10.6210564 85.4629823,10.6452362 C85.4656082,10.6678648 87.2538116,8.07997706 89.8652157,8.25867991 C92.4755786,8.45395515 94.1660737,10.0038409 94.3479197,11.4551286 Z M104.554549,44.2588074 C106.33895,42.4266772 109.248049,42.6179111 109.258149,42.6368292 C109.324343,42.6282291 108.288784,47.7050679 106.189105,49.4548812 C104.158748,51.2060139 102.798556,50.7279871 102.443558,49.3411312 C102.085606,47.9203097 102.753057,46.0781961 104.554549,44.2588074 Z M105.458264,35.8777507 C106.876827,33.689388 109.7785,33.2171487 109.786433,33.2378235 C109.855296,33.2147576 109.779562,38.3934319 108.024988,40.5626513 C106.341789,42.7253371 104.912049,42.5659115 104.314342,41.2963564 C103.696134,39.9965908 104.025164,38.0532507 105.458264,35.8777507 Z M78.6656933,71.4929839 C77.2486623,73.5566049 75.1475263,74.0948983 73.8889326,73.4007369 C72.598865,72.6959133 72.7076168,71.2079245 74.2501152,69.4285065 C75.8130633,67.7026971 79.0205409,66.4443145 79.0143738,66.3911683 C78.9915366,66.3817022 80.0661613,69.4228747 78.6656933,71.4929839 Z M97.9330992,34.1511008 C97.9226878,34.1718443 100.923474,33.9644728 102.323492,35.9267792 C103.709389,37.8968207 103.610303,40.0675899 102.665731,41.073066 C101.709861,42.1071946 100.399594,41.6131985 99.2270589,39.6527364 C98.0957019,37.7065225 97.9773436,34.1676936 97.9330992,34.1511008 Z M101.677322,28.2532636 C103.431884,29.8664746 103.745344,32.0057721 103.006039,33.201423 C102.259574,34.4239243 100.876295,34.2340174 99.3483784,32.5898853 C97.8727513,30.9467567 97.0547559,27.5148411 97.0036404,27.5086274 C96.9973385,27.529255 99.9057601,26.6536407 101.677322,28.2532636 Z M98.946577,18.0828238 C98.7715834,19.5364296 97.4229481,19.977168 95.3161166,19.1413858 C93.2671922,18.2885973 90.9153487,15.4793215 90.8548886,15.4947629 C90.8508508,15.5144641 93.1694587,13.4236918 95.5439905,14.1191174 C97.9159957,14.8319405 99.1249653,16.6601762 98.946577,18.0828238 Z M98.076891,25.6620495 C96.2925171,24.3863005 94.7254264,21.1987991 94.6740322,21.2021046 C94.6682382,21.2254057 97.3523055,19.7107085 99.4460644,20.8851497 C101.537108,22.0719553 102.283162,24.0987843 101.803738,25.4324178 C101.313956,26.8011142 99.9150995,26.9282755 98.076891,25.6620495 Z M81.3633214,71.3264742 C80.0285405,70.9465081 79.8017182,69.4618676 80.8417347,67.3408091 C81.9018577,65.275511 84.6647356,63.2835926 84.6494122,63.2366936 C84.6289997,63.2344988 86.2736489,65.9544245 85.3920999,68.3136737 C84.4927939,70.668065 82.6627748,71.7034437 81.3633214,71.3264742 Z" id="Fill-3" fill="url(#linearGradient-1)"></path>
                <path d="M10.142493,17.2028442 C8.91522954,17.8467073 7.65084493,17.0614098 7.55636037,14.2259576 C7.38501846,11.3358447 10.6131712,7.0649874 10.6751899,7.12319915 C10.7034081,7.11675016 12.7316727,9.36788879 12.4999354,12.0614925 C12.2898068,14.7562177 11.3992093,16.5470028 10.142493,17.2028442 Z M7.15184247,24.9057727 C6.11179133,25.797756 4.7287249,25.3148232 4.01049333,22.5989499 C3.21576135,19.8423707 5.26993776,15.0681203 5.33558962,15.1120529 C5.35601631,15.1012199 7.82191316,16.8202202 8.23562256,19.4524866 C8.67012789,22.0775505 8.21831783,23.9921454 7.15184247,24.9057727 Z M14.9613325,10.2598407 C13.574096,10.6235087 12.4993361,9.56824419 13.1299633,6.73427712 C13.6837194,3.83384669 18.1551918,0.270950935 18.2182178,0.337512111 C18.2521121,0.336647386 19.6844229,3.02475592 18.7027671,5.66497237 C17.7476334,8.30484142 16.391088,9.88399525 14.9613325,10.2598407 Z M12.792669,55.9220893 C11.5829985,55.3993076 10.7174697,53.4231433 11.2729736,50.9776996 C11.8338885,48.5401238 14.6230528,47.4119875 14.6061752,47.3990474 C14.5758188,47.4290314 15.7356325,50.7657729 15.4047602,53.0806661 C15.0394894,55.4229107 14.0302461,56.463248 12.792669,55.9220893 Z M9.06391658,43.5983 C10.0638964,41.355376 13.0139844,40.8841363 12.9964003,40.8704722 C12.9620922,40.8919349 13.5041308,44.3989748 12.7634101,46.575695 C11.976188,48.7716616 10.7901856,49.5555431 9.67189365,48.7493978 C8.56923049,47.9703601 8.07543926,45.8562052 9.06391658,43.5983 Z M8.41587759,52.3182787 C10.4899242,53.7048315 11.476656,55.3705295 11.3826368,56.8517722 C11.2933491,58.3007554 10.0570204,59.0789414 7.76435782,57.8068621 C5.40489989,56.5534998 3.47975651,51.780442 3.54055629,51.7742221 C3.54751545,51.7534209 6.34845287,50.9138312 8.41587759,52.3182787 Z M12.2203708,59.7180398 C14.4968103,60.6207055 15.7647772,62.0359249 15.956907,63.5155697 C16.1408887,64.9564348 15.0788501,66.0021353 12.6034269,65.27297 C10.0680142,64.5771035 7.32050076,60.3017925 7.38272186,60.2833241 C7.38310777,60.2595616 9.95128577,58.7996819 12.2203708,59.7180398 Z M17.1562028,62.27992 C15.8756664,62.0408488 14.6661685,60.2903648 14.7547021,57.7579103 C14.8652338,55.226628 17.3654652,53.48713 17.3498098,53.4789848 C17.326396,53.5155605 19.0643793,56.5430432 19.173555,58.8942454 C19.2533517,61.2789303 18.4671928,62.5307448 17.1562028,62.27992 Z M20.1603979,6.59359722 C19.4842544,5.68474002 19.6066927,4.01479125 22.6817454,2.16179094 C25.1057683,0.694140513 28.5365594,1.3598768 28.5365594,1.3598768 C28.5365594,1.3598768 27.3551919,4.67546262 25.0603281,6.18644577 C22.4194077,7.92747414 20.8938618,7.53813964 20.1603979,6.59359722 Z M23.5892993,71.2482846 C26.0361403,71.0469371 27.7933288,71.7460082 28.5696057,72.9926129 C29.3311751,74.2092794 28.7531282,75.6449167 26.1381787,76.1215555 C23.4723572,76.6670269 19.2979023,73.989962 19.3551465,73.9394479 C19.3521042,73.9179795 21.1441186,71.4336214 23.5892993,71.2482846 Z M17.3156103,66.1397461 C19.7131093,66.5049685 21.2397471,67.6001863 21.7186176,69.0016036 C22.1889827,70.3707276 21.346853,71.6382401 18.7650974,71.4933174 C16.1300897,71.4002703 12.6363636,67.8281601 12.6928467,67.7927199 C12.6912395,67.7708057 14.9184991,65.7524474 17.3156103,66.1397461 Z M30.9336831,74.7221974 C33.3624354,73.9290824 35.3147906,74.1656652 36.3983209,75.1674896 C37.4609897,76.1413159 37.1831052,77.6776951 34.6041908,78.7992194 C31.9735411,80.0004224 27.1916166,78.4215833 27.2476971,78.3538488 C27.2373328,78.3341686 28.5003792,75.4932264 30.9336831,74.7221974 Z M5.88765541,33.0428943 C5.05944682,34.1461587 3.62346149,33.9796135 2.37600156,31.4969612 C1.05222166,28.9822666 2.00820794,23.9047604 2.06873786,23.9383338 C2.09020634,23.9236322 4.84186842,25.0414522 5.80441045,27.4963598 C6.78427201,29.9467742 6.73727643,31.9185991 5.88765541,33.0428943 Z M22.65877,67.5143889 C21.3455689,67.5789533 19.8162454,66.1424221 19.4230017,63.6369357 C19.0441611,61.1299489 21.1617637,58.8491016 21.1428788,58.846648 C21.125165,58.8886003 23.3956532,61.4672874 23.9712911,63.7412742 C24.5239586,66.0565303 23.9974091,67.4588191 22.65877,67.5143889 Z M16.2087736,11.4551286 C16.3906197,10.0038409 18.0811148,8.45395515 20.6914776,8.25867991 C23.3028817,8.07997706 25.0910852,10.6678648 25.093711,10.6452362 C25.0243836,10.6210564 21.8477225,12.9154045 19.5854478,13.3076308 C17.2477361,13.6738299 16.0207831,12.9372278 16.2087736,11.4551286 Z M6.00214411,44.2588074 C7.80363618,46.0781961 8.47108754,47.9203097 8.11313561,49.3411312 C7.75813693,50.7279871 6.39794575,51.2060139 4.3675884,49.4548812 C2.26790914,47.7050679 1.23234984,42.6282291 1.29854442,42.6368292 C1.30864467,42.6179111 4.21774295,42.4266772 6.00214411,44.2588074 Z M5.09842966,35.8777507 C6.53152901,38.0532507 6.86055976,39.9965908 6.24235152,41.2963564 C5.64464468,42.5659115 4.21490408,42.7253371 2.53170539,40.5626513 C0.777131698,38.3934319 0.701396994,33.2147576 0.770260713,33.2378235 C0.778193319,33.2171487 3.67986616,33.689388 5.09842966,35.8777507 Z M31.8910001,71.4929839 C30.490532,69.4228747 31.5651567,66.3817022 31.5423195,66.3911683 C31.5361524,66.4443145 34.74363,67.7026971 36.3065781,69.4285065 C37.8490765,71.2079245 37.9578284,72.6959133 36.6677607,73.4007369 C35.409167,74.0948983 33.308031,73.5566049 31.8910001,71.4929839 Z M12.6235941,34.1511008 C12.5793498,34.1676936 12.4609914,37.7065225 11.3296344,39.6527364 C10.157099,41.6131985 8.84683258,42.1071946 7.89096186,41.073066 C6.94639057,40.0675899 6.84730456,37.8968207 8.23320088,35.9267792 C9.63321911,33.9644728 12.6340055,34.1718443 12.6235941,34.1511008 Z M8.87937142,28.2532636 C10.6509332,26.6536407 13.5593548,27.529255 13.5530529,27.5086274 C13.5019374,27.5148411 12.6839421,30.9467567 11.2083149,32.5898853 C9.68039831,34.2340174 8.2971198,34.4239243 7.55065409,33.201423 C6.81134916,32.0057721 7.12480965,29.8664746 8.87937142,28.2532636 Z M11.6101163,18.0828238 C11.431728,16.6601762 12.6406976,14.8319405 15.0127028,14.1191174 C17.3872346,13.4236918 19.7058425,15.5144641 19.7018047,15.4947629 C19.6413446,15.4793215 17.2895012,18.2885973 15.2405767,19.1413858 C13.1337452,19.977168 11.7851099,19.5364296 11.6101163,18.0828238 Z M12.4798023,25.6620495 C10.6415938,26.9282755 9.24273726,26.8011142 8.75295527,25.4324178 C8.27353123,24.0987843 9.01958546,22.0719553 11.110629,20.8851497 C13.2043878,19.7107085 15.8884551,21.2254057 15.8826611,21.2021046 C15.8312669,21.1987991 14.2641762,24.3863005 12.4798023,25.6620495 Z M29.193372,71.3264742 C27.8939185,71.7034437 26.0638994,70.668065 25.1645934,68.3136737 C24.2830444,65.9544245 25.9276936,63.2344988 25.9072811,63.2366936 C25.8919577,63.2835926 28.6548357,65.275511 29.7149587,67.3408091 C30.7549751,69.4618676 30.5281528,70.9465081 29.193372,71.3264742 Z" id="Fill-3-Copy" fill="url(#linearGradient-1)"></path>
                <path d="M27.9588498,35.405183 C27.9480997,35.3830101 27.9222331,35.3104492 27.8812501,35.1875 L27.0687501,33.375 L23.5687501,33.375 L23.0687501,34.625 C22.9437494,34.8333344 22.8604169,35.1666644 22.8187501,35.625 C22.8604169,36.1250025 23.1729138,36.375 23.7562501,36.375 L24.5687501,36.375 L24.5687501,37 L20.1937501,37 L20.1937501,36.375 C21.0687544,36.2499994 21.7354144,35.5625062 22.1937501,34.3125 L25.7562501,25.8125 L26.5687501,25.8125 L30.6937501,35.3125 C30.9437513,36.0208369 31.4437463,36.375 32.1937501,36.375 L32.1937501,37 L26.4437501,37 L26.4437501,36.375 L27.0687501,36.375 C27.7354201,36.4166669 28.0479169,36.2291687 28.0062501,35.8125 C28.0062501,35.7399276 27.9904501,35.6041564 27.9588498,35.405183 Z M26.6937501,32.5 L25.2562501,29.125 L23.8812501,32.5 L26.6937501,32.5 Z M31.45625,30.125 L31.45625,29.5625 L34.89375,29.5 L34.89375,30.375 C35.3520857,29.6666631 35.9979125,29.3125 36.83125,29.3125 C38.9562607,29.5208344 40.0812494,30.8333213 40.20625,33.25 C39.9145819,35.583345 38.7270938,36.8541656 36.64375,37.0625 C36.0187469,37.0625 35.4562525,36.8333356 34.95625,36.375 L34.95625,37.9375 C34.8312494,38.6875037 35.3312444,39.0416669 36.45625,39 L36.45625,39.6875 L31.26875,39.6875 L31.26875,39 C32.268755,39.0416669 32.7270838,38.6875037 32.64375,37.9375 L32.64375,31.1875 C32.7270838,30.4374963 32.3312544,30.0833331 31.45625,30.125 Z M34.95625,33.25 C34.95625,35.3333437 35.3937457,36.3958331 36.26875,36.4375 C37.1854213,36.3958331 37.64375,35.3125106 37.64375,33.1875 C37.64375,31.1041562 37.2270875,30.0416669 36.39375,30 C35.4770788,30.1666675 34.9979169,31.24999 34.95625,33.25 Z M40.09375,30.125 L40.09375,29.5625 L43.53125,29.5 L43.53125,30.375 C43.9895857,29.6666631 44.6354125,29.3125 45.46875,29.3125 C47.5937607,29.5208344 48.7187494,30.8333213 48.84375,33.25 C48.5520819,35.583345 47.3645938,36.8541656 45.28125,37.0625 C44.6562469,37.0625 44.0937525,36.8333356 43.59375,36.375 L43.59375,37.9375 C43.4687494,38.6875037 43.9687444,39.0416669 45.09375,39 L45.09375,39.6875 L39.90625,39.6875 L39.90625,39 C40.906255,39.0416669 41.3645838,38.6875037 41.28125,37.9375 L41.28125,31.1875 C41.3645838,30.4374963 40.9687544,30.0833331 40.09375,30.125 Z M43.59375,33.25 C43.59375,35.3333437 44.0312457,36.3958331 44.90625,36.4375 C45.8229213,36.3958331 46.28125,35.3125106 46.28125,33.1875 C46.28125,31.1041562 45.8645875,30.0416669 45.03125,30 C44.1145788,30.1666675 43.6354169,31.24999 43.59375,33.25 Z M53.05625,37 L53.05625,32.75 L53.74375,32.75 C54.41042,35.1666788 55.577075,36.3958331 57.24375,36.4375 C58.57709,36.3958331 59.2645831,35.7916725 59.30625,34.625 C59.30625,33.9166631 58.4312588,33.2708363 56.68125,32.6875 C54.3062381,31.8541625 53.11875,30.77084 53.11875,29.4375 C53.2437506,27.1458219 54.4937381,25.9375006 56.86875,25.8125 C57.6604206,25.8125 58.4104131,26.0208313 59.11875,26.4375 C59.3687513,26.5625006 59.5354163,26.625 59.61875,26.625 C59.7854175,26.625 59.9520825,26.4791681 60.11875,26.1875 C60.1604169,26.1041662 60.2020831,26.0416669 60.24375,26 L60.86875,26 L60.86875,29.8125 L60.24375,29.8125 C59.6604138,27.6874894 58.6187575,26.6041669 57.11875,26.5625 C55.9104106,26.6041669 55.2854169,27.124995 55.24375,28.125 C55.24375,28.8750038 56.0979081,29.5208306 57.80625,30.0625 C60.2645956,30.8541706 61.49375,32.0208256 61.49375,33.5625 C61.3687494,35.6875106 60.0770956,36.8541656 57.61875,37.0625 C56.7437456,37.0625 55.8687544,36.895835 54.99375,36.5625 C54.7020819,36.4374994 54.4937506,36.375 54.36875,36.375 C54.1604156,36.375 53.9520844,36.5624981 53.74375,36.9375 L53.68125,37 L53.05625,37 Z M65.38125,27 L65.38125,29.5 L67.94375,29.5 L67.94375,30.1875 L65.38125,30.1875 L65.38125,35.0625 C65.38125,35.9791713 65.6937469,36.4166669 66.31875,36.375 C67.0270869,36.4166669 67.38125,35.77084 67.38125,34.4375 L68.13125,34.4375 C68.2145837,36.3125094 67.3395925,37.1875006 65.50625,37.0625 C63.8812419,37.0625 63.06875,36.39584 63.06875,35.0625 L63.06875,30.1875 L61.75625,30.1875 L61.75625,29.625 C63.2562575,29.2499981 64.2354144,28.3750069 64.69375,27 L65.38125,27 Z M73.76875,33.25 C73.76875,31.0416556 73.268755,29.9166669 72.26875,29.875 C71.268745,29.9166669 70.76875,31.0416556 70.76875,33.25 C70.8104169,35.4583444 71.3104119,36.5833331 72.26875,36.625 C73.2270881,36.5833331 73.7270831,35.4583444 73.76875,33.25 Z M76.45625,33.25 C76.1645819,35.6666788 74.7687625,36.9374994 72.26875,37.0625 C69.7270706,36.9374994 68.3312512,35.6666788 68.08125,33.25 C68.3729181,30.7916544 69.7687375,29.4791675 72.26875,29.3125 C74.7687625,29.4791675 76.1645819,30.7916544 76.45625,33.25 Z M81.40625,37 L76.40625,37 L76.40625,36.375 C77.3229212,36.4166669 77.7395837,36.0625038 77.65625,35.3125 L77.65625,31.1875 C77.7395837,30.4374963 77.3229212,30.0833331 76.40625,30.125 L76.40625,29.5625 L79.78125,29.5 L79.78125,31.1875 L79.84375,31.1875 C80.3437525,29.9374938 81.0520787,29.3125 81.96875,29.3125 C82.9270881,29.3541669 83.4270831,29.8124956 83.46875,30.6875 C83.4270831,31.4791706 83.0520868,31.8958331 82.34375,31.9375 C81.6354131,31.8958331 81.2604168,31.5000037 81.21875,30.75 C81.21875,30.6666662 81.2395831,30.5625006 81.28125,30.4375 L81.28125,30.1875 C80.3645787,30.8958369 79.90625,32.4583212 79.90625,34.875 C79.7395825,36.0000056 80.2395775,36.5000006 81.40625,36.375 L81.40625,37 Z M90.91875,33.25 L85.85625,33.25 C85.85625,35.3750106 86.5437431,36.4375 87.91875,36.4375 C88.7520875,36.4375 89.5645793,35.9166719 90.35625,34.875 L90.85625,35.1875 C90.18958,36.4791731 89.0645912,37.1041669 87.48125,37.0625 C84.9395706,36.9374994 83.5437512,35.6666788 83.29375,33.25 C83.5854181,30.7916544 84.9812375,29.4791675 87.48125,29.3125 C89.6479275,29.4375006 90.7937493,30.7499875 90.91875,33.25 Z M85.85625,32.5625 L88.35625,32.5625 C88.35625,30.7291575 87.9812537,29.8333331 87.23125,29.875 C86.4395793,29.875 85.9812506,30.7708244 85.85625,32.5625 Z" id="App-Store" fill="#F89738"></path>
                <text id="推荐" font-family="PingFangSC-Semibold, PingFang SC" font-size="17" font-weight="500" line-spacing="23" letter-spacing="2.1427083" fill="#F77824">
                    <tspan x="36" y="62">推荐</tspan>
                </text>
            </g>
        </g>
    </g>
</svg>