<?xml version="1.0" encoding="UTF-8"?>
<svg width="170px" height="48px" viewBox="0 0 170 48" version="1.1" xmlns="http://www.w3.org/2000/svg" xmlns:xlink="http://www.w3.org/1999/xlink">
    <!-- Generator: Sketch 52.4 (67378) - http://www.bohemiancoding.com/sketch -->
    <title>分组 7 copy</title>
    <desc>Created with Sketch.</desc>
    <g id="页面-1" stroke="none" stroke-width="1" fill="none" fill-rule="evenodd">
        <g id="分组-7-copy">
            <rect id="矩形" fill="#000000" fill-rule="nonzero" x="0" y="0" width="170" height="48" rx="5.48571429"></rect>
            <path d="M42.4811182,25.4886546 C42.4375547,21.3203086 46.0471163,19.3212177 46.208355,19.2218963 C44.1802273,16.3926848 41.0208662,16.0051066 39.8950278,15.9602995 C37.2063003,15.7007783 34.6486677,17.4693409 33.284107,17.4693409 C31.9229855,17.4693409 29.8173068,15.998678 27.5874115,16.0373137 C24.6567923,16.0788422 21.9545777,17.6617478 20.4455697,20.1638097 C17.4007145,25.2005906 19.6658111,32.6622263 22.63352,36.7471295 C24.0836566,38.7466704 25.8128419,40.9924254 28.0831986,40.9121969 C30.2695303,40.8290112 31.0962916,39.5635482 33.7395675,39.5635482 C36.3827759,39.5635482 37.1258495,40.9121969 39.4394998,40.8707969 C41.7921954,40.8291398 43.282726,38.833006 44.7228821,36.827358 C46.3881384,34.5076745 47.0738243,32.2618552 47.1142857,32.146591 C47.0620231,32.1238339 42.5265698,30.4675141 42.4811182,25.4886546 Z M38.1336756,13.2560592 C39.3386835,11.8624106 40.1520251,9.928891 39.9301618,8 C38.1944351,8.06737136 36.0905097,9.10217751 34.8451752,10.4926762 C33.7277662,11.7261893 32.7496119,13.6949374 33.0117343,15.585257 C34.9494308,15.7293854 36.9273864,14.6465579 38.1336756,13.2560592 Z" id="Shape" fill="#FFFFFF" fill-rule="nonzero"></path>
            <text id="Download-on-the" font-family="PingFangSC-Semibold, PingFang SC" font-size="10.2857143" font-weight="500" line-spacing="10.9714286" fill="#FFFFFF">
                <tspan x="61" y="19">Download on the</tspan>
            </text>
            <text id="App-Store" font-family="LucidaGrande-Bold, Lucida Grande" font-size="17.8285714" font-weight="bold" line-spacing="10.9714286" letter-spacing="-0.685714302" fill="#FFFFFF">
                <tspan x="61" y="43">App Store</tspan>
            </text>
        </g>
    </g>
</svg>