<?xml version="1.0" encoding="UTF-8"?>
<svg width="170px" height="48px" viewBox="0 0 170 48" version="1.1" xmlns="http://www.w3.org/2000/svg" xmlns:xlink="http://www.w3.org/1999/xlink">
    <!-- Generator: Sketch 52.4 (67378) - http://www.bohemiancoding.com/sketch -->
    <title>分组 7 copy</title>
    <desc>Created with Sketch.</desc>
    <g id="页面-1" stroke="none" stroke-width="1" fill="none" fill-rule="evenodd">
        <g id="移动APP产品介绍及下载页-Copy-4" transform="translate(-732.000000, -750.000000)">
            <g id="分组-7-copy" transform="translate(732.000000, 750.000000)">
                <rect id="矩形" fill="#000000" fill-rule="nonzero" x="0" y="0" width="170" height="48" rx="5.48571429"></rect>
                <path d="M42.4811182,25.4886546 C42.4375547,21.3203086 46.0471163,19.3212177 46.208355,19.2218963 C44.1802273,16.3926848 41.0208662,16.0051066 39.8950278,15.9602995 C37.2063003,15.7007783 34.6486677,17.4693409 33.284107,17.4693409 C31.9229855,17.4693409 29.8173068,15.998678 27.5874115,16.0373137 C24.6567923,16.0788422 21.9545777,17.6617478 20.4455697,20.1638097 C17.4007145,25.2005906 19.6658111,32.6622263 22.63352,36.7471295 C24.0836566,38.7466704 25.8128419,40.9924254 28.0831986,40.9121969 C30.2695303,40.8290112 31.0962916,39.5635482 33.7395675,39.5635482 C36.3827759,39.5635482 37.1258495,40.9121969 39.4394998,40.8707969 C41.7921954,40.8291398 43.282726,38.833006 44.7228821,36.827358 C46.3881384,34.5076745 47.0738243,32.2618552 47.1142857,32.146591 C47.0620231,32.1238339 42.5265698,30.4675141 42.4811182,25.4886546 Z M38.1336756,13.2560592 C39.3386835,11.8624106 40.1520251,9.928891 39.9301618,8 C38.1944351,8.06737136 36.0905097,9.10217751 34.8451752,10.4926762 C33.7277662,11.7261893 32.7496119,13.6949374 33.0117343,15.585257 C34.9494308,15.7293854 36.9273864,14.6465579 38.1336756,13.2560592 Z" id="Shape" fill="#FFFFFF" fill-rule="nonzero"></path>
                <path d="M61.72,9.62742857 L64.4045714,9.62742857 C65.5977143,9.62742857 66.4925714,9.95657143 67.1097143,10.6148571 C67.696,11.232 67.9942857,12.1268571 67.9942857,13.2994286 C67.9942857,14.4617143 67.696,15.3565714 67.1097143,15.984 C66.4925714,16.6422857 65.5977143,16.9714286 64.4045714,16.9714286 L61.72,16.9714286 L61.72,9.62742857 Z M62.9234286,10.656 L62.9234286,15.9428571 L64.1782857,15.9428571 C65.0937143,15.9428571 65.7622857,15.7268571 66.184,15.3051429 C66.5954286,14.8731429 66.8011429,14.2045714 66.8011429,13.2994286 C66.8011429,12.3737143 66.5954286,11.6948571 66.184,11.2834286 C65.7622857,10.8617143 65.0937143,10.656 64.1782857,10.656 L62.9234286,10.656 Z M71.4914286,11.5097143 C72.2937143,11.5097143 72.9417143,11.7668571 73.4354286,12.3017143 C73.9188571,12.8262857 74.1657143,13.4948571 74.1657143,14.3177143 C74.1657143,15.1302857 73.9188571,15.7988571 73.4457143,16.3131429 C72.952,16.848 72.2937143,17.1154286 71.4914286,17.1154286 C70.6788571,17.1154286 70.0308571,16.848 69.5371429,16.3131429 C69.0537143,15.7988571 68.8171429,15.1302857 68.8171429,14.3177143 C68.8171429,13.4948571 69.0537143,12.8262857 69.5474286,12.3017143 C70.0308571,11.7668571 70.6788571,11.5097143 71.4914286,11.5097143 Z M71.4914286,12.4662857 C70.9977143,12.4662857 70.6274286,12.6514286 70.36,13.0422857 C70.1337143,13.3714286 70.0205714,13.8034286 70.0205714,14.3177143 C70.0205714,14.832 70.1337143,15.2537143 70.36,15.5828571 C70.6274286,15.9634286 70.9977143,16.1588571 71.4914286,16.1588571 C71.9748571,16.1588571 72.3554286,15.9634286 72.6228571,15.5828571 C72.8491429,15.2434286 72.9725714,14.8217143 72.9725714,14.3177143 C72.9725714,13.8034286 72.8491429,13.3714286 72.6228571,13.0422857 C72.3554286,12.6514286 71.9748571,12.4662857 71.4914286,12.4662857 Z M74.6285714,11.6537143 L75.9245714,11.6537143 L76.984,15.5828571 L78.0331429,11.6537143 L79.1131429,11.6537143 L80.1622857,15.5828571 L81.2217143,11.6537143 L82.5177143,11.6537143 L80.728,16.9714286 L79.6377143,16.9714286 L78.5782857,13.0834286 L77.5085714,16.9714286 L76.4182857,16.9714286 L74.6285714,11.6537143 Z M85.9325714,11.5097143 C87.2594286,11.5097143 87.928,12.2297143 87.928,13.6902857 L87.928,16.9714286 L86.7554286,16.9714286 L86.7554286,13.7931429 C86.7554286,12.9188571 86.3542857,12.4868571 85.552,12.4868571 C85.264,12.4868571 85.0068571,12.5897143 84.7908571,12.7954286 C84.544,13.0217143 84.4,13.3508571 84.3588571,13.7725714 L84.3588571,16.9714286 L83.1862857,16.9714286 L83.1862857,11.6537143 L84.3588571,11.6537143 L84.3588571,12.2708571 C84.5645714,12.024 84.8011429,11.8285714 85.0582857,11.7051429 C85.3257143,11.5714286 85.6137143,11.5097143 85.9325714,11.5097143 Z M89.2651429,9.48342857 L90.4377143,9.48342857 L90.4377143,16.9714286 L89.2651429,16.9714286 L89.2651429,9.48342857 Z M94.2434286,11.5097143 C95.0457143,11.5097143 95.6937143,11.7668571 96.1874286,12.3017143 C96.6708571,12.8262857 96.9177143,13.4948571 96.9177143,14.3177143 C96.9177143,15.1302857 96.6708571,15.7988571 96.1977143,16.3131429 C95.704,16.848 95.0457143,17.1154286 94.2434286,17.1154286 C93.4308571,17.1154286 92.7828571,16.848 92.2891429,16.3131429 C91.8057143,15.7988571 91.5691429,15.1302857 91.5691429,14.3177143 C91.5691429,13.4948571 91.8057143,12.8262857 92.2994286,12.3017143 C92.7828571,11.7668571 93.4308571,11.5097143 94.2434286,11.5097143 Z M94.2434286,12.4662857 C93.7497143,12.4662857 93.3794286,12.6514286 93.112,13.0422857 C92.8857143,13.3714286 92.7725714,13.8034286 92.7725714,14.3177143 C92.7725714,14.832 92.8857143,15.2537143 93.112,15.5828571 C93.3794286,15.9634286 93.7497143,16.1588571 94.2434286,16.1588571 C94.7268571,16.1588571 95.1074286,15.9634286 95.3748571,15.5828571 C95.6011429,15.2434286 95.7245714,14.8217143 95.7245714,14.3177143 C95.7245714,13.8034286 95.6011429,13.3714286 95.3748571,13.0422857 C95.1074286,12.6514286 94.7268571,12.4662857 94.2434286,12.4662857 Z M100.363429,11.5097143 C101.145143,11.5097143 101.731429,11.7051429 102.101714,12.096 C102.430857,12.4354286 102.595429,12.9291429 102.595429,13.5771429 L102.595429,16.9714286 L101.505143,16.9714286 L101.505143,16.272 C101.299429,16.5394286 101.042286,16.7348571 100.744,16.8788571 C100.404571,17.0331429 100.003429,17.1154286 99.5405714,17.1154286 C98.9851429,17.1154286 98.5531429,16.9714286 98.2342857,16.6937143 C97.9051429,16.4057143 97.7405714,16.0457143 97.7405714,15.6034286 C97.7405714,15.0068571 97.9668571,14.544 98.44,14.2251429 C98.872,13.9165714 99.4788571,13.752 100.260571,13.7314286 L101.422857,13.7005714 L101.422857,13.4948571 C101.422857,12.7954286 101.042286,12.456 100.281143,12.456 C99.952,12.456 99.6948571,12.5074286 99.4994286,12.6308571 C99.2731429,12.7645714 99.1188571,12.9702857 99.0571429,13.248 L97.8948571,13.1554286 C98.008,12.5691429 98.296,12.1371429 98.7588571,11.8697143 C99.1497143,11.6228571 99.6845714,11.5097143 100.363429,11.5097143 Z M101.422857,14.544 L100.342857,14.5748571 C99.4068571,14.5954286 98.944,14.9245714 98.944,15.5622857 C98.944,15.7474286 99.016,15.9017143 99.1805714,16.0251429 C99.3451429,16.1485714 99.5508571,16.2205714 99.808,16.2205714 C100.260571,16.2205714 100.641143,16.0868571 100.949714,15.8297143 C101.258286,15.5622857 101.422857,15.2228571 101.422857,14.8114286 L101.422857,14.544 Z M107.614857,9.48342857 L108.787429,9.48342857 L108.787429,16.9714286 L107.697143,16.9714286 L107.697143,16.4057143 C107.326857,16.8788571 106.792,17.1154286 106.092571,17.1154286 C105.300571,17.1154286 104.683429,16.8377143 104.241143,16.2822857 C103.829714,15.768 103.624,15.0994286 103.624,14.2868571 C103.624,13.5051429 103.819429,12.8571429 104.230857,12.3428571 C104.662857,11.7874286 105.269714,11.5097143 106.030857,11.5097143 C106.648,11.5097143 107.172571,11.7977143 107.614857,12.384 L107.614857,9.48342857 Z M106.308571,12.456 C105.773714,12.456 105.393143,12.6308571 105.146286,12.9805714 C104.930286,13.2788571 104.827429,13.7108571 104.827429,14.2868571 C104.827429,14.8628571 104.92,15.3051429 105.125714,15.6137143 C105.362286,15.984 105.742857,16.1691429 106.267429,16.1691429 C106.72,16.1691429 107.08,15.984 107.326857,15.624 C107.542857,15.2948571 107.656,14.8628571 107.656,14.3485714 L107.656,14.2662857 C107.656,13.7005714 107.512,13.248 107.244571,12.9188571 C106.997714,12.6102857 106.678857,12.456 106.308571,12.456 Z M115.915429,11.5097143 C116.717714,11.5097143 117.365714,11.7668571 117.859429,12.3017143 C118.342857,12.8262857 118.589714,13.4948571 118.589714,14.3177143 C118.589714,15.1302857 118.342857,15.7988571 117.869714,16.3131429 C117.376,16.848 116.717714,17.1154286 115.915429,17.1154286 C115.102857,17.1154286 114.454857,16.848 113.961143,16.3131429 C113.477714,15.7988571 113.241143,15.1302857 113.241143,14.3177143 C113.241143,13.4948571 113.477714,12.8262857 113.971429,12.3017143 C114.454857,11.7668571 115.102857,11.5097143 115.915429,11.5097143 Z M115.915429,12.4662857 C115.421714,12.4662857 115.051429,12.6514286 114.784,13.0422857 C114.557714,13.3714286 114.444571,13.8034286 114.444571,14.3177143 C114.444571,14.832 114.557714,15.2537143 114.784,15.5828571 C115.051429,15.9634286 115.421714,16.1588571 115.915429,16.1588571 C116.398857,16.1588571 116.779429,15.9634286 117.046857,15.5828571 C117.273143,15.2434286 117.396571,14.8217143 117.396571,14.3177143 C117.396571,13.8034286 117.273143,13.3714286 117.046857,13.0422857 C116.779429,12.6514286 116.398857,12.4662857 115.915429,12.4662857 Z M122.364571,11.5097143 C123.691429,11.5097143 124.36,12.2297143 124.36,13.6902857 L124.36,16.9714286 L123.187429,16.9714286 L123.187429,13.7931429 C123.187429,12.9188571 122.786286,12.4868571 121.984,12.4868571 C121.696,12.4868571 121.438857,12.5897143 121.222857,12.7954286 C120.976,13.0217143 120.832,13.3508571 120.790857,13.7725714 L120.790857,16.9714286 L119.618286,16.9714286 L119.618286,11.6537143 L120.790857,11.6537143 L120.790857,12.2708571 C120.996571,12.024 121.233143,11.8285714 121.490286,11.7051429 C121.757714,11.5714286 122.045714,11.5097143 122.364571,11.5097143 Z M130.685714,9.936 L130.685714,11.6537143 L131.868571,11.6537143 L131.868571,12.6205714 L130.685714,12.6205714 L130.685714,15.624 C130.685714,15.7474286 130.706286,15.84 130.768,15.912 C130.829714,15.9737143 130.912,16.0045714 131.035429,16.0045714 L131.734857,16.0045714 L131.734857,16.9714286 L130.84,16.9714286 C130.377143,16.9714286 130.037714,16.848 129.821714,16.6011429 C129.616,16.3748571 129.513143,16.056 129.513143,15.624 L129.513143,12.6205714 L128.556571,12.6205714 L128.556571,11.6537143 L129.513143,11.6537143 L129.513143,10.4194286 L130.685714,9.936 Z M132.742857,9.48342857 L133.915429,9.48342857 L133.915429,12.3634286 C134.110857,12.0651429 134.357714,11.8491429 134.645714,11.7051429 C134.902857,11.5714286 135.201143,11.5097143 135.540571,11.5097143 C136.188571,11.5097143 136.672,11.6948571 136.990857,12.0754286 C137.289143,12.4354286 137.443429,12.9702857 137.443429,13.68 L137.443429,16.9714286 L136.270857,16.9714286 L136.270857,13.8857143 C136.270857,13.4331429 136.178286,13.0834286 136.003429,12.8468571 C135.797714,12.5897143 135.499429,12.4662857 135.098286,12.4662857 C134.728,12.4662857 134.44,12.6102857 134.234286,12.8982857 C134.018286,13.1862857 133.915429,13.5462857 133.915429,13.9988571 L133.915429,16.9714286 L132.742857,16.9714286 L132.742857,9.48342857 Z M140.940571,11.5097143 C141.814857,11.5097143 142.483429,11.7977143 142.946286,12.3942857 C143.368,12.9291429 143.584,13.68 143.584,14.6365714 L139.603429,14.6365714 C139.644571,15.1302857 139.778286,15.5108571 140.004571,15.768 C140.230857,16.0251429 140.56,16.1588571 140.981714,16.1588571 C141.341714,16.1588571 141.629714,16.0765714 141.856,15.912 C142.030857,15.7782857 142.185143,15.5622857 142.329143,15.264 L143.501714,15.264 C143.378286,15.7577143 143.131429,16.1794286 142.761143,16.5085714 C142.288,16.9097143 141.701714,17.1154286 140.992,17.1154286 C140.2,17.1154286 139.572571,16.8685714 139.109714,16.3851429 C138.616,15.8811429 138.369143,15.192 138.369143,14.3074286 C138.369143,13.5154286 138.595429,12.8571429 139.068571,12.3222857 C139.521143,11.7771429 140.148571,11.5097143 140.940571,11.5097143 Z M140.971429,12.4662857 C140.580571,12.4662857 140.282286,12.5691429 140.056,12.7954286 C139.84,13.0114286 139.696,13.3302857 139.624,13.752 L142.36,13.752 C142.257143,12.888 141.794286,12.4662857 140.971429,12.4662857 Z" id="Download-on-the" fill="#FFFFFF"></path>
                <path d="M61.2002232,36.9714286 L66.2145089,24.0875 L68.8957589,24.0875 L73.9100446,36.9714286 L71.1591518,36.9714286 L69.8185268,33.5328125 L64.4908482,33.5328125 L63.1502232,36.9714286 L61.2002232,36.9714286 Z M65.1524554,31.8178571 L69.1569196,31.8178571 L67.1546875,26.6816964 L65.1524554,31.8178571 Z M75.0524553,40.4100446 L75.0524553,27.4129464 L77.6292411,27.4129464 L77.6292411,29.2149554 C78.2908515,27.8685201 79.3325822,27.1953125 80.7544643,27.1953125 C81.9035772,27.1953125 82.8074744,27.6160672 83.466183,28.4575893 C84.1248917,29.2991114 84.4542411,30.4569123 84.4542411,31.9310268 C84.4542411,33.5328205 84.0828162,34.8095935 83.3399553,35.7613839 C82.5970945,36.7131744 81.6017919,37.1890625 80.3540178,37.1890625 C79.349995,37.1890625 78.4417451,36.7944236 77.6292411,36.0051339 L77.6292411,40.4100446 L75.0524553,40.4100446 Z M77.6292411,34.4729911 C78.2560299,35.1694231 78.9234339,35.5176339 79.6314732,35.5176339 C80.2640656,35.5176339 80.7689713,35.2114986 81.1462053,34.5992187 C81.5234394,33.9869389 81.7120536,33.1700944 81.7120536,32.1486607 C81.7120536,30.1928474 81.0823724,29.2149554 79.8229911,29.2149554 C79.0627194,29.2149554 78.3314767,29.7053522 77.6292411,30.6861607 L77.6292411,34.4729911 Z M86.1799107,40.4100446 L86.1799107,27.4129464 L88.7566964,27.4129464 L88.7566964,29.2149554 C89.4183068,27.8685201 90.4600375,27.1953125 91.8819196,27.1953125 C93.0310325,27.1953125 93.9349297,27.6160672 94.5936384,28.4575893 C95.252347,29.2991114 95.5816964,30.4569123 95.5816964,31.9310268 C95.5816964,33.5328205 95.2102715,34.8095935 94.4674107,35.7613839 C93.7245498,36.7131744 92.7292473,37.1890625 91.4814732,37.1890625 C90.4774503,37.1890625 89.5692005,36.7944236 88.7566964,36.0051339 L88.7566964,40.4100446 L86.1799107,40.4100446 Z M88.7566964,34.4729911 C89.3834852,35.1694231 90.0508893,35.5176339 90.7589285,35.5176339 C91.391521,35.5176339 91.8964267,35.2114986 92.2736607,34.5992187 C92.6508947,33.9869389 92.8395089,33.1700944 92.8395089,32.1486607 C92.8395089,30.1928474 92.2098277,29.2149554 90.9504464,29.2149554 C90.1901747,29.2149554 89.458932,29.7053522 88.7566964,30.6861607 L88.7566964,34.4729911 Z M101.775223,36.8582589 L101.775223,34.6470982 C103.162284,35.2274583 104.349102,35.5176339 105.335714,35.5176339 C106.026343,35.5176339 106.570422,35.3638408 106.967969,35.05625 C107.365515,34.7486592 107.564286,34.3308062 107.564286,33.8026786 C107.564286,33.3848193 107.43951,33.0322559 107.189955,32.7449777 C106.9404,32.4576995 106.467414,32.116743 105.770982,31.7220982 L104.909152,31.2433036 C103.754235,30.5933003 102.938842,29.9708735 102.462946,29.3760045 C101.987051,28.7811354 101.749107,28.0861647 101.749107,27.2910714 C101.749107,26.2290125 102.139393,25.3758961 102.919978,24.7316964 C103.700562,24.0874968 104.732136,23.7654018 106.014732,23.7654018 C107.041969,23.7654018 108.19977,23.9133914 109.48817,24.209375 L109.48817,26.2725446 C108.170752,25.7792386 107.129022,25.5325893 106.362946,25.5325893 C105.770979,25.5325893 105.296542,25.6646192 104.93962,25.928683 C104.582699,26.1927469 104.404241,26.5395068 104.404241,26.9689732 C104.404241,27.3229928 104.529017,27.6334808 104.778571,27.9004464 C105.028126,28.167412 105.498211,28.4953106 106.188839,28.8841518 L107.111607,29.3977679 C108.353578,30.0941999 109.209596,30.7354881 109.679687,31.3216518 C110.149779,31.9078154 110.384821,32.6216476 110.384821,33.4631696 C110.384821,34.6587113 109.940853,35.5959787 109.052902,36.275 C108.164951,36.9540213 106.94041,37.2935268 105.379241,37.2935268 C104.3462,37.2935268 103.144873,37.148439 101.775223,36.8582589 Z M116.924553,36.9191964 C116.309372,37.099108 115.824778,37.1890625 115.470759,37.1890625 C113.236373,37.1890625 112.119196,36.1444301 112.119196,34.0551339 L112.119196,29.0234375 L111.048437,29.0234375 L111.048437,27.4129464 L112.119196,27.4129464 L112.119196,25.8024554 L114.695982,25.5064732 L114.695982,27.4129464 L116.741741,27.4129464 L116.741741,29.0234375 L114.695982,29.0234375 L114.695982,33.715625 C114.695982,34.8879523 115.174772,35.4741071 116.132366,35.4741071 C116.352903,35.4741071 116.616963,35.4334825 116.924553,35.3522321 L116.924553,36.9191964 Z M122.550223,37.1890625 C121.058698,37.1890625 119.87333,36.7378393 118.994085,35.8353795 C118.114839,34.9329196 117.675223,33.7185344 117.675223,32.1921875 C117.675223,30.6484298 118.117741,29.429692 119.00279,28.5359375 C119.887839,27.642183 121.090617,27.1953125 122.611161,27.1953125 C124.137508,27.1953125 125.343187,27.642183 126.228237,28.5359375 C127.113286,29.429692 127.555803,30.6426263 127.555803,32.1747768 C127.555803,33.7417489 127.111835,34.969192 126.223884,35.8571429 C125.335933,36.7450937 124.111392,37.1890625 122.550223,37.1890625 Z M122.59375,35.5785714 C124.073668,35.5785714 124.813616,34.4439846 124.813616,32.1747768 C124.813616,31.1359323 124.617747,30.3147352 124.226004,29.7111607 C123.834261,29.1075863 123.295985,28.8058036 122.611161,28.8058036 C121.932139,28.8058036 121.396765,29.1075863 121.005022,29.7111607 C120.613279,30.3147352 120.417411,31.1417358 120.417411,32.1921875 C120.417411,33.231032 120.611828,34.0551309 121.00067,34.6645089 C121.389511,35.273887 121.920532,35.5785714 122.59375,35.5785714 Z M129.237946,36.9714286 L129.237946,27.4129464 L131.814732,27.4129464 L131.814732,29.2149554 C132.482146,27.8685201 133.497761,27.1953125 134.861607,27.1953125 C135.024108,27.1953125 135.183704,27.212723 135.340402,27.2475446 L135.340402,29.5457589 C134.974775,29.4122761 134.635269,29.3455357 134.321875,29.3455357 C133.294638,29.3455357 132.458932,29.8649502 131.814732,30.9037946 L131.814732,36.9714286 L129.237946,36.9714286 Z M144.439509,36.6493304 C143.214949,37.0091536 142.054246,37.1890625 140.957366,37.1890625 C139.361376,37.1890625 138.102013,36.7363885 137.179241,35.8310268 C136.256468,34.9256651 135.795089,33.6895168 135.795089,32.1225446 C135.795089,30.6426265 136.217295,29.4514554 137.061719,28.5489955 C137.906142,27.6465357 139.021868,27.1953125 140.408928,27.1953125 C141.807596,27.1953125 142.829015,27.6363795 143.473214,28.5185268 C144.117414,29.4006741 144.439509,30.796419 144.439509,32.7058036 L138.511161,32.7058036 C138.685269,34.5281341 139.686375,35.4392857 141.514509,35.4392857 C142.379245,35.4392857 143.354236,35.2390645 144.439509,34.8386161 L144.439509,36.6493304 Z M138.476339,31.2520089 L141.90625,31.2520089 C141.90625,29.6211972 141.381032,28.8058036 140.33058,28.8058036 C139.262718,28.8058036 138.644644,29.6211972 138.476339,31.2520089 Z" id="App-Store" fill="#FFFFFF"></path>
            </g>
        </g>
    </g>
</svg>