<?xml version="1.0" encoding="UTF-8"?>
<svg width="65px" height="65px" viewBox="0 0 65 65" version="1.1" xmlns="http://www.w3.org/2000/svg" xmlns:xlink="http://www.w3.org/1999/xlink">
    <!-- Generator: Sketch 52.4 (67378) - http://www.bohemiancoding.com/sketch -->
    <title>语保</title>
    <desc>Created with Sketch.</desc>
    <defs>
        <polygon id="path-1" points="0 0.0329965278 64.9666364 0.0329965278 64.9666364 64.5486111 0 64.5486111"></polygon>
    </defs>
    <g id="世界语言地图" stroke="none" stroke-width="1" fill="none" fill-rule="evenodd">
        <g id="移动APP产品介绍及下载页-Copy-4" transform="translate(-1196.000000, -1407.000000)">
            <g id="语保" transform="translate(1196.000000, 1407.000000)">
                <g id="分组" transform="translate(0.000000, 0.418437)">
                    <mask id="mask-2" fill="white">
                        <use xlink:href="#path-1"></use>
                    </mask>
                    <g id="Clip-2"></g>
                    <path d="M60.8693636,64.5486563 L4.09754545,64.5486563 C1.84390909,64.5486563 -0.000181818182,62.7173715 -0.000181818182,60.4793854 L-0.000181818182,4.10181597 C-0.000181818182,1.86382986 1.84390909,0.0329965278 4.09754545,0.0329965278 L60.8693636,0.0329965278 C63.123,0.0329965278 64.9666364,1.86382986 64.9666364,4.10181597 L64.9666364,60.4793854 C64.9666364,62.7173715 63.123,64.5486563 60.8693636,64.5486563" id="Fill-1" fill="#C20341" mask="url(#mask-2)"></path>
                </g>
                <path d="M27.9463182,7.04934028 L21.4558636,7.04934028 C21.1354091,7.04934028 20.8731364,7.30979167 20.8731364,7.62756944 L20.8731364,10.0926042 C20.8731364,10.4117361 20.6126818,10.6708333 20.2908636,10.6708333 L5.61177273,10.6708333 C5.29177273,10.6708333 5.0295,10.9312847 5.0295,11.2490625 L5.0295,15.9010764 C5.0295,16.2188542 5.29177273,16.4793056 5.61177273,16.4793056 L19.8126818,16.4793056 L22.8599545,16.4793056 L24.8354091,16.4793056 C26.8667727,16.4793056 28.5285909,14.8290278 28.5285909,12.8117708 L28.5285909,12.2028472 L28.5285909,10.1964236 L28.5285909,7.62756944 C28.5285909,7.30979167 28.2667727,7.04934028 27.9463182,7.04934028" id="Fill-3" fill="#FFFFFF"></path>
                <path d="M59.3552273,16.4253646 L32.3147727,16.4253646 C31.9947727,16.4253646 31.7329545,16.1653646 31.7329545,15.8475868 L31.7329545,11.3996007 C31.7329545,11.0818229 31.9947727,10.8213715 32.3147727,10.8213715 L59.3552273,10.8213715 C59.6752273,10.8213715 59.9370455,11.0818229 59.9370455,11.3996007 L59.9370455,15.8475868 C59.9370455,16.1653646 59.6752273,16.4253646 59.3552273,16.4253646" id="Fill-5" fill="#FFFFFF"></path>
                <path d="M27.9423182,26.423809 L7.84504545,26.423809 C7.52277273,26.423809 7.25868182,26.1615521 7.25868182,25.8415174 L7.25868182,21.5989132 C7.25868182,21.2788785 7.52277273,21.0166215 7.84504545,21.0166215 L27.9423182,21.0166215 C28.2645909,21.0166215 28.5286818,21.2788785 28.5286818,21.5989132 L28.5286818,25.8415174 C28.5286818,26.1615521 28.2645909,26.423809 27.9423182,26.423809" id="Fill-7" fill="#FFFFFF"></path>
                <path d="M27.9423182,36.4951979 L5.61595455,36.4951979 C5.29322727,36.4951979 5.02959091,36.2333924 5.02959091,35.9129063 L5.02959091,31.4495729 C5.02959091,31.1290868 5.29322727,30.8672813 5.61595455,30.8672813 L27.9423182,30.8672813 C28.2645909,30.8672813 28.5286818,31.1290868 28.5286818,31.4495729 L28.5286818,35.9129063 C28.5286818,36.2333924 28.2645909,36.4951979 27.9423182,36.4951979" id="Fill-9" fill="#FFFFFF"></path>
                <path d="M27.9423182,46.7360833 C28.2645909,46.7360833 28.5286818,46.4742778 28.5286818,46.1537917 L28.5286818,41.6900069 C28.5286818,41.3699722 28.2645909,41.1077153 27.9423182,41.1077153 L10.9291364,41.1077153 C8.92777273,41.1077153 7.29095455,42.7340694 7.29095455,44.7210833 L7.29095455,46.2485833 L7.29095455,46.7360833 L7.29095455,51.3488264 L7.29095455,51.9144167 L7.29095455,53.2487222 C7.29095455,55.3666389 9.03595455,57.0999722 11.1691364,57.0999722 L27.9423182,57.0999722 C28.2645909,57.0999722 28.5286818,56.8377153 28.5286818,56.5176806 L28.5286818,51.9311181 C28.5286818,51.6110833 28.2645909,51.3488264 27.9423182,51.3488264 L14.8759545,51.3488264 L14.8759545,46.7360833 L27.9423182,46.7360833 Z" id="Fill-11" fill="#FFFFFF"></path>
                <path d="M32.2775909,46.7360833 C31.9553182,46.7360833 31.6912273,46.4742778 31.6912273,46.1537917 L31.6912273,41.6900069 C31.6912273,41.3699722 31.9553182,41.1077153 32.2775909,41.1077153 L52.6462273,41.1077153 C54.6471364,41.1077153 56.2844091,42.7340694 56.2844091,44.7210833 L56.2844091,46.2485833 L56.2844091,46.7360833 L56.2844091,51.3488264 L56.2844091,51.9144167 L56.2844091,53.2487222 C56.2844091,55.3666389 54.5394091,57.0999722 52.4062273,57.0999722 L32.2775909,57.0999722 C31.9553182,57.0999722 31.6912273,56.8377153 31.6912273,56.5176806 L31.6912273,51.9311181 C31.6912273,51.6110833 31.9553182,51.3488264 32.2775909,51.3488264 L48.8589545,51.3488264 L48.8589545,46.7360833 L32.2775909,46.7360833 Z" id="Fill-13" fill="#FFFFFF"></path>
                <path d="M59.3508182,36.4951979 L32.3194545,36.4951979 C31.9967273,36.4951979 31.7330909,36.2333924 31.7330909,35.9129063 L31.7330909,31.4495729 C31.7330909,31.1290868 31.9967273,30.8672813 32.3194545,30.8672813 L59.3508182,30.8672813 C59.6730909,30.8672813 59.9371818,31.1290868 59.9371818,31.4495729 L59.9371818,35.9129063 C59.9371818,36.2333924 59.6730909,36.4951979 59.3508182,36.4951979" id="Fill-15" fill="#FFFFFF"></path>
                <path d="M52.5494091,21.0166215 L49.4225909,21.0166215 L44.5057727,21.0166215 C44.1844091,21.0166215 43.9239545,20.7579757 43.9239545,20.4388438 L43.9239545,19.0828715 C43.9239545,18.7650938 43.6616818,18.5055451 43.3421364,18.5055451 L36.9512273,18.5055451 C36.6312273,18.5055451 36.3689545,18.7650938 36.3689545,19.0828715 L36.3689545,20.4388438 C36.3689545,20.7579757 36.1085,21.0166215 35.7875909,21.0166215 L32.3148636,21.0166215 C31.9948636,21.0166215 31.7330455,21.2766215 31.7330455,21.5943993 L31.7330455,25.8460313 C31.7330455,26.163809 31.9948636,26.423809 32.3148636,26.423809 L35.7875909,26.423809 C36.1085,26.423809 36.3689545,26.6824549 36.3689545,27.0015868 L36.3689545,28.2907535 C36.3689545,28.6085313 36.6312273,28.8685313 36.9512273,28.8685313 L43.3421364,28.8685313 C43.6616818,28.8685313 43.9239545,28.6085313 43.9239545,28.2907535 L43.9239545,27.0015868 C43.9239545,26.6824549 44.1844091,26.423809 44.5057727,26.423809 L48.2589545,26.423809 C48.5803182,26.423809 48.8407727,26.6824549 48.8407727,27.0015868 L48.8407727,28.2907535 C48.8407727,28.6085313 49.1025909,28.8685313 49.4225909,28.8685313 L55.8135,28.8685313 C56.1335,28.8685313 56.3953182,28.6085313 56.3953182,28.2907535 L56.3953182,24.6818993 C56.3953182,22.6659965 54.7344091,21.0166215 52.7044091,21.0166215 L52.5494091,21.0166215 Z" id="Fill-17" fill="#FFFFFF"></path>
            </g>
        </g>
    </g>
</svg>