<?xml version="1.0" encoding="UTF-8"?>
<svg width="410px" height="230px" viewBox="0 0 410 230" version="1.1" xmlns="http://www.w3.org/2000/svg" xmlns:xlink="http://www.w3.org/1999/xlink">
    <!-- Generator: Sketch 52.4 (67378) - http://www.bohemiancoding.com/sketch -->
    <title>加载缺省状态</title>
    <desc>Created with Sketch.</desc>
    <g id="世界语言地图" stroke="none" stroke-width="1" fill="none" fill-rule="evenodd">
        <g id="移动APP产品介绍及下载页-Copy-4" transform="translate(-1058.000000, -391.000000)">
            <g id="分组-8" transform="translate(1058.000000, 391.000000)">
                <g id="加载缺省状态">
                    <rect id="矩形" fill="#F5F7F8" fill-rule="nonzero" x="0" y="0" width="410" height="230"></rect>
                    <g id="分组-9" transform="translate(136.000000, 103.000000)">
                        <path d="M1.87217018,20.1103931 L1.87217018,10.289599 L0,10.289599 L0,6.11053771 L1.87217018,6.11053771 L1.87217018,1.33944272 L6.79717843,1.33944272 L6.79717843,6.11053771 L10.4743697,6.11053771 L10.4743697,10.289599 L6.79717843,10.289599 L6.79717843,19.0991138 C6.79717843,20.1795976 7.28278647,20.7015338 8.3251539,20.7015338 C9.08780755,20.7015338 9.8162196,20.4930272 10.4405728,20.1795976 L10.4405728,24.1139874 C9.46891202,24.6711955 8.28824413,25.0891017 6.79717843,25.0891017 C3.95334748,25.0891017 1.87217018,23.9746853 1.87217018,20.1103931" id="Fill-1" fill="#E0EDF5"></path>
                        <path d="M24.2265936,18.5494958 L24.2265936,16.9827943 C23.4977369,16.6340927 22.4927239,16.3903141 21.4872662,16.3903141 C19.6826899,16.3903141 18.538487,17.2957774 18.538487,19.001781 L18.538487,19.071432 C18.538487,20.6037545 19.5105925,21.3703622 20.9305068,21.4047412 C22.8400315,21.4404597 24.2265936,20.2563923 24.2265936,18.5494958 M13.7855761,19.3504826 L13.7855761,19.141976 C13.7855761,15.0321192 16.4573097,13.1859207 20.2728015,13.1859207 C21.8319056,13.1859207 23.0121288,13.4993503 24.155887,13.9529749 L24.155887,13.3957667 C24.155887,11.236585 22.8738284,10.1226151 20.6539059,10.1226151 C18.9200362,10.1226151 17.5334741,10.6798233 16.3870478,11.1673805 L15.0342825,7.30130229 C16.8388589,6.39673197 18.7110291,5.80425181 21.3827627,5.80425181 C23.9130829,5.80425181 25.8221629,6.50031554 27.0366277,7.71920842 C28.3186863,9.0081988 28.9425948,10.9575344 28.9425948,13.3604947 L28.9425948,24.6783392 L24.1220901,24.6783392 L24.1220901,22.6580131 C23.0121288,24.1211311 21.4872662,25.0270408 19.3011407,25.0270408 C16.2487473,25.0270408 13.7855761,22.9714427 13.7855761,19.3504826" id="Fill-3" fill="#E0EDF5"></path>
                        <polygon id="Fill-5" fill="#E0EDF5" points="33.7968963 25.1417864 38.7223493 25.1417864 38.7223493 0 33.7968963 0"></polygon>
                        <polygon id="Fill-7" fill="#E0EDF5" points="43.5802084 0 48.5056614 0 48.5056614 13.3716567 53.5689701 6.47620557 59.3273387 6.47620557 53.4306696 13.8931464 59.4656391 25.1417864 53.845571 25.1417864 50.030524 17.6547481 48.5056614 19.6393557 48.5056614 25.1417864 43.5802084 25.1417864"></polygon>
                        <path d="M62.7021366,6.15161395 L67.6275896,6.15161395 L67.6275896,8.65905073 C68.7371061,7.09234923 70.1236683,5.80425181 72.4480943,5.80425181 C74.5999782,5.80425181 76.1590824,6.84901713 77.0257949,8.52064165 C78.3785602,6.88294968 80.0452808,5.80425181 82.2985555,5.80425181 C85.5946422,5.80425181 87.81412,7.96343348 87.81412,12.0719508 L87.81412,24.8171948 L82.9229087,24.8171948 L82.9229087,13.5685548 C82.9229087,11.4093731 81.9850448,10.2614707 80.3556786,10.2614707 C78.7263125,10.2614707 77.7208548,11.4093731 77.7208548,13.5685548 L77.7208548,24.8171948 L72.7954018,24.8171948 L72.7954018,13.5685548 C72.7954018,11.4093731 71.8944477,10.2614707 70.2624134,10.2614707 C68.6326025,10.2614707 67.6275896,11.4093731 67.6275896,13.5685548 L67.6275896,24.8171948 L62.7021366,24.8171948 L62.7021366,6.15161395 Z" id="Fill-8" fill="#E0EDF5"></path>
                        <path d="M102.04795,18.5494958 L102.04795,16.9827943 C101.319538,16.6340927 100.31408,16.3903141 99.3086223,16.3903141 C97.5040459,16.3903141 96.3602878,17.2957774 96.3602878,19.001781 L96.3602878,19.071432 C96.3602878,20.6037545 97.3319486,21.3703622 98.7523076,21.4047412 C100.661388,21.4404597 102.04795,20.2563923 102.04795,18.5494958 M91.6073769,19.3504826 L91.6073769,19.141976 C91.6073769,15.0321192 94.2791105,13.1859207 98.0941575,13.1859207 C99.6532617,13.1859207 100.83393,13.4993503 101.977243,13.9529749 L101.977243,13.3957667 C101.977243,11.236585 100.695184,10.1226151 98.4757067,10.1226151 C96.7413923,10.1226151 95.3548302,10.6798233 94.2084039,11.1673805 L92.8556386,7.30130229 C94.660215,6.39673197 96.5323852,5.80425181 99.2041188,5.80425181 C101.734439,5.80425181 103.643519,6.50031554 104.857984,7.71920842 C106.140042,9.0081988 106.764396,10.9575344 106.764396,13.3604947 L106.764396,24.6783392 L101.943446,24.6783392 L101.943446,22.6580131 C100.83393,24.1211311 99.3086223,25.0270408 97.1229415,25.0270408 C94.0701034,25.0270408 91.6073769,22.9714427 91.6073769,19.3504826" id="Fill-9" fill="#E0EDF5"></path>
                        <path d="M111.712083,20.1103931 L111.712083,10.289599 L109.839913,10.289599 L109.839913,6.11053771 L111.712083,6.11053771 L111.712083,1.33944272 L116.637536,1.33944272 L116.637536,6.11053771 L120.314283,6.11053771 L120.314283,10.289599 L116.637536,10.289599 L116.637536,19.0991138 C116.637536,20.1795976 117.123144,20.7015338 118.165067,20.7015338 C118.927721,20.7015338 119.656133,20.4930272 120.280486,20.1795976 L120.280486,24.1139874 C119.308825,24.6711955 118.128602,25.0891017 116.637536,25.0891017 C113.793261,25.0891017 111.712083,23.9746853 111.712083,20.1103931" id="Fill-10" fill="#E0EDF5"></path>
                        <path d="M133.648492,8.20274724 C134.668625,8.20274724 135.49576,9.00150159 135.49576,9.98643847 C135.49576,10.9709289 134.668625,11.7696832 133.648492,11.7696832 C132.62836,11.7696832 131.801225,10.9709289 131.801225,9.98643847 C131.801225,9.00150159 132.62836,8.20274724 133.648492,8.20274724 Z M138.329807,14.7838758 L138.329807,7.42408454 C138.329807,6.28466526 137.27321,5.3577709 135.974697,5.3577709 L125.969482,5.3577709 C124.677195,5.3577709 123.625489,6.28020045 123.625489,7.41426196 L123.625489,13.2430702 C123.625489,19.9876108 126.688555,23.4366758 134.196803,25.1493766 L134.453392,25.2083121 L135.808826,21.8369347 L135.542008,21.7512104 C131.035459,20.2983615 129.173517,18.206152 129.362957,14.7838758 L138.329807,14.7838758 Z" id="Fill-11" fill="#C3DAE8"></path>
                    </g>
                </g>
            </g>
        </g>
    </g>
</svg>