<?xml version="1.0" encoding="UTF-8"?>
<svg width="15px" height="17px" viewBox="0 0 15 17" version="1.1" xmlns="http://www.w3.org/2000/svg" xmlns:xlink="http://www.w3.org/1999/xlink">
    <!-- Generator: Sketch 52.4 (67378) - http://www.bohemiancoding.com/sketch -->
    <title>认证（点亮）</title>
    <desc>Created with Sketch.</desc>
    <defs>
        <polygon id="path-1" points="5.02029545e-05 0.0489988571 14.8402247 0.0489988571 14.8402247 17 5.02029545e-05 17"></polygon>
    </defs>
    <g id="世界语言地图" stroke="none" stroke-width="1" fill="none" fill-rule="evenodd">
        <g id="课程-copy-13" transform="translate(-425.000000, -465.000000)">
            <g id="分组" transform="translate(425.000000, 465.000000)">
                <g>
                    <mask id="mask-2" fill="white">
                        <use xlink:href="#path-1"></use>
                    </mask>
                    <g id="Clip-2"></g>
                    <path d="M1.34915245,4.06498171 L1.34915245,8.13993029 C1.34915245,10.2056731 2.28899113,12.0566331 3.99549535,13.3516446 L7.42006208,15.6963817 L10.8712631,13.3326046 C12.5514345,12.0569246 13.4910722,10.2059646 13.4910722,8.13993029 L13.4910722,4.06498171 L7.63414147,1.381896 C7.49413556,1.34255314 7.3429734,1.34284457 7.20367103,1.381896 L1.34915245,4.06498171 Z M7.4203636,17.0000389 C7.14085431,17.0002331 6.86817948,16.9163989 6.64012965,16.7602903 L3.18882813,14.3965131 C1.12301225,12.8298903 5.02533784e-05,10.6144503 5.02533784e-05,8.13993029 L5.02533784e-05,3.65251314 C-5.02533784e-05,3.40071886 0.150106841,3.17136457 0.385594172,3.06343886 L6.66676394,0.184901714 C6.69038302,0.174021714 6.71450465,0.164598857 6.73922931,0.156536 C7.17733826,0.0131531429 7.66047424,0.0131531429 8.09858319,0.156536 C8.12330785,0.164501714 8.14763049,0.174021714 8.17104856,0.184901714 L14.45453,3.06343886 C14.6901178,3.17126743 14.8402749,3.40062171 14.8402749,3.65251314 L14.8402749,8.13993029 C14.8402749,10.6147417 13.7171119,12.8298903 11.6779303,14.3774731 L8.20009502,16.7602903 C7.96712035,16.9201874 7.69374198,17.0000389 7.4203636,17.0000389 Z" id="Fill-1" fill="#2A9FE4" mask="url(#mask-2)"></path>
                    <polyline id="路径-2" stroke="#2A9FE4" stroke-width="1.3" stroke-linecap="round" stroke-linejoin="round" mask="url(#mask-2)" points="4.06491852 7.96875 6.56080696 10.625 10.8910141 6.19303131"></polyline>
                </g>
            </g>
        </g>
    </g>
</svg>