<?xml version="1.0" encoding="UTF-8"?>
<svg width="18px" height="16px" viewBox="0 0 18 16" version="1.1" xmlns="http://www.w3.org/2000/svg" xmlns:xlink="http://www.w3.org/1999/xlink">
    <!-- Generator: Sketch 52.4 (67378) - http://www.bohemiancoding.com/sketch -->
    <title>档案（点亮）</title>
    <desc>Created with Sketch.</desc>
    <g id="世界语言地图" stroke="none" stroke-width="1" fill="none" fill-rule="evenodd">
        <g id="课程-copy-19" transform="translate(-423.000000, -573.000000)" stroke="#2A9FE4" stroke-width="1.3125">
            <g id="侧边栏" transform="translate(370.000000, 100.000000)">
                <g id="档案" transform="translate(53.000000, 473.000000)">
                    <path d="M2.75,1 L5.59890777,1 C6.2863491,1 6.91011639,1.40248097 7.19340604,2.02883754 L8.2414898,4.34616246 C8.52477944,4.97251903 9.14854673,5.375 9.83598806,5.375 L15.25,5.375 C16.2164983,5.375 17,6.15850169 17,7.125 L17,13.25 C17,14.2164983 16.2164983,15 15.25,15 L2.75,15 C1.78350169,15 1,14.2164983 1,13.25 L1,2.75 C1,1.78350169 1.78350169,1 2.75,1 Z" id="Rectangle-25" stroke-linecap="round" stroke-linejoin="round"></path>
                    <path d="M7.49327257,2.50775146 L13.4594184,2.50775146 C14.4259167,2.50775146 15.2094184,3.29125315 15.2094184,4.25775146 L15.2094184,5.38803101" id="Path-2"></path>
                </g>
            </g>
        </g>
    </g>
</svg>