<?xml version="1.0" encoding="UTF-8"?>
<svg width="12px" height="12px" viewBox="0 0 12 12" version="1.1" xmlns="http://www.w3.org/2000/svg" xmlns:xlink="http://www.w3.org/1999/xlink">
    <!-- Generator: Sketch 52.4 (67378) - http://www.bohemiancoding.com/sketch -->
    <title>Group 5</title>
    <desc>Created with Sketch.</desc>
    <g id="个人学习中心" stroke="none" stroke-width="1" fill="none" fill-rule="evenodd">
        <g id="设置-基本资料" transform="translate(-1103.000000, -377.000000)">
            <g id="Group-5" transform="translate(1103.000000, 377.000000)">
                <circle id="Combined-Shape" stroke="#DD2B2B" stroke-width="0.742857143" cx="6" cy="6" r="5.62857143"></circle>
                <g id="分组-6" transform="translate(5.250000, 2.000000)" fill="#DD2B2B">
                    <path d="M0.817044772,0.307692308 L0.817044772,0.307692308 C1.09318715,0.307692308 1.31704477,0.531549933 1.31704477,0.807692308 L1.31704477,5.34615385 C1.31704477,5.62229622 1.09318715,5.84615385 0.817044772,5.84615385 L0.817044772,5.84615385 C0.540902397,5.84615385 0.317044772,5.62229622 0.317044772,5.34615385 L0.317044772,0.807692308 C0.317044772,0.531549933 0.540902397,0.307692308 0.817044772,0.307692308 Z" id="Rectangle"></path>
                    <path d="M0.813833383,6.30769231 L0.813833383,6.30769231 C1.08997576,6.30769231 1.31383338,6.53154993 1.31383338,6.80769231 L1.31383338,6.80769231 C1.31383338,7.08383468 1.08997576,7.30769231 0.813833383,7.30769231 L0.813833383,7.30769231 C0.537691008,7.30769231 0.313833383,7.08383468 0.313833383,6.80769231 L0.313833383,6.80769231 C0.313833383,6.53154993 0.537691008,6.30769231 0.813833383,6.30769231 Z" id="Rectangle-Copy-2"></path>
                </g>
            </g>
        </g>
    </g>
</svg>