<?xml version="1.0" encoding="UTF-8"?>
<svg width="18px" height="18px" viewBox="0 0 18 18" version="1.1" xmlns="http://www.w3.org/2000/svg" xmlns:xlink="http://www.w3.org/1999/xlink">
    <!-- Generator: Sketch 52.4 (67378) - http://www.bohemiancoding.com/sketch -->
    <title>会员</title>
    <desc>Created with Sketch.</desc>
    <defs>
        <linearGradient x1="50%" y1="5.60864645%" x2="50%" y2="100%" id="linearGradient-1">
            <stop stop-color="#FFDD4E" offset="0%"></stop>
            <stop stop-color="#FFC02B" offset="100%"></stop>
        </linearGradient>
        <linearGradient x1="50%" y1="0%" x2="50%" y2="103.615663%" id="linearGradient-2">
            <stop stop-color="#FFD745" offset="0%"></stop>
            <stop stop-color="#FFA022" offset="100%"></stop>
        </linearGradient>
    </defs>
    <g id="世界语言地图" stroke="none" stroke-width="1" fill="none" fill-rule="evenodd">
        <g id="课程-copy-6" transform="translate(-424.000000, -258.000000)" fill="url(#linearGradient-1)" stroke="url(#linearGradient-2)" stroke-width="0.918218623">
            <g id="侧边栏" transform="translate(370.000000, 100.000000)">
                <g id="分组" transform="translate(54.000000, 158.000000)">
                    <g id="会员-copy">
                        <path d="M15.5300436,8.12996834 L14.0568562,13.6819035 L3.94314381,13.6819035 L2.6439896,8.08067125 C2.49700052,8.12784075 2.34321301,8.15786343 2.18264368,8.15786343 C1.35946825,8.15786343 0.692307692,7.52317923 0.692307692,6.73841314 C0.692307692,5.95577464 1.35945163,5.32109044 2.18264368,5.32109044 C3.00809634,5.32109044 3.67297967,5.95577464 3.67297967,6.7384289 C3.67297967,6.97643547 3.60512833,7.19729524 3.49658612,7.39454662 L6.22849201,8.35943303 L8.52393522,4.83436053 C7.93594565,4.6456668 7.5085254,4.12034081 7.5085254,3.49637336 C7.5085254,2.71373487 8.17566933,2.07692308 8.99886139,2.07692308 C9.82203682,2.07692308 10.491458,2.71160728 10.491458,3.49637336 C10.491458,4.12034081 10.0640377,4.6456668 9.47378755,4.83436053 L11.7692308,8.35943303 L14.4739928,7.34737712 C14.3812748,7.16082674 14.3247431,6.95712955 14.3247431,6.7384289 C14.3247431,5.9557904 14.9941476,5.31897861 15.8173563,5.31897861 C16.6405317,5.31897861 17.3076923,5.95366281 17.3076923,6.7384289 C17.3076923,7.52321074 16.6405484,8.15789495 15.8173563,8.15789495 C15.7177568,8.15783191 15.6227616,8.14709939 15.5300436,8.12996834 Z M12.7914212,16.6153846 L5.20857877,16.6153846 C4.88913365,16.6153846 4.61037586,16.398718 4.53154254,16.089153 L4.30434783,15.1969981 L13.6956522,15.1969981 L13.4684575,16.089153 C13.3896241,16.398718 13.1108664,16.6153846 12.7914212,16.6153846 Z" id="Combined-Shape"></path>
                    </g>
                </g>
            </g>
        </g>
    </g>
</svg>