<?xml version="1.0" encoding="UTF-8"?>
<svg width="37px" height="45px" viewBox="0 0 37 45" version="1.1" xmlns="http://www.w3.org/2000/svg" xmlns:xlink="http://www.w3.org/1999/xlink">
    <!-- Generator: Sketch 52.4 (67378) - http://www.bohemiancoding.com/sketch -->
    <title>Shape</title>
    <desc>Created with Sketch.</desc>
    <g id="个人学习中心" stroke="none" stroke-width="1" fill="none" fill-rule="evenodd">
        <g id="档案" transform="translate(-1060.000000, -280.000000)" fill="#82D02D" fill-rule="nonzero">
            <g id="分组-9" transform="translate(670.000000, 190.000000)">
                <g id="分组-6" transform="translate(390.000000, 84.000000)">
                    <path d="M18.5910681,16.0689307 C8.48909443,16.0689307 0.29869195,23.8883592 0.29869195,33.5344653 C0.29869195,43.1805714 8.48909443,51 18.5910681,51 C28.6959056,51 36.8851625,43.1805714 36.8851625,33.5344653 C36.8851625,23.8883592 28.696192,16.0689307 18.5910681,16.0689307 Z M27.9985759,31.976124 L24.391935,35.3331519 L25.2427632,40.0730396 C25.5291409,41.6642165 24.5766486,42.3602218 23.0508282,41.5942391 L18.5913545,39.3560411 L14.1341718,41.5942391 C12.6378483,42.3454189 11.6501316,41.6962445 11.9416641,40.0730396 L12.793065,35.3331519 L9.18642415,31.976124 C7.97533282,30.8494889 8.3172678,29.752998 10.0243653,29.5158825 L15.008483,28.8241834 L17.2373607,24.5122341 C17.9856656,23.0639724 19.1850155,23.0351741 19.9479257,24.5122341 L22.1773762,28.8241834 L27.1614938,29.5158825 C28.834226,29.7478842 29.2334365,30.8274192 27.9985759,31.976124 Z M35.6926858,6 L24.3819118,6 C23.7710681,6 23.2822214,6.40748339 23.1384598,6.94765456 L19.6520975,13.5117975 C19.6520975,13.5117975 27.1173916,13.9413506 31.5278947,17.9951913 L36.735387,7.96232588 C36.8897446,7.75670018 37,7.51931554 37,7.24748052 C37,6.55847294 36.4143576,6 35.6926858,6 Z M17.3479025,13.5120666 L13.8615402,6.94792371 C13.7177786,6.40748339 13.2277864,6.00026914 12.6180882,6.00026914 L1.30674149,6.00026914 C0.585069659,6.00026914 0,6.55847294 0,7.24774966 C0,7.51958468 0.109682663,7.75723847 0.264613003,7.96259502 L5.47210526,17.9954604 C9.88232198,13.9413506 17.3479025,13.5120666 17.3479025,13.5120666 Z" id="Shape"></path>
                </g>
            </g>
        </g>
    </g>
</svg>