<?xml version="1.0" encoding="UTF-8"?>
<svg width="35px" height="42px" viewBox="0 0 35 42" version="1.1" xmlns="http://www.w3.org/2000/svg" xmlns:xlink="http://www.w3.org/1999/xlink">
    <!-- Generator: Sketch 52.4 (67378) - http://www.bohemiancoding.com/sketch -->
    <title>钱袋</title>
    <desc>Created with Sketch.</desc>
    <defs>
        <polygon id="path-1" points="37.4 22.00025 37.4 44.00025 0 44.00025 0 22.00025 0 0.000249999999 37.4 0.000249999999 37.4 22.00025"></polygon>
        <linearGradient x1="50%" y1="9.60274819%" x2="53.6958174%" y2="82.9037535%" id="linearGradient-3">
            <stop stop-color="#FFE43C" offset="0%"></stop>
            <stop stop-color="#FFC500" offset="100%"></stop>
        </linearGradient>
        <linearGradient x1="-29.3819039%" y1="13.1229264%" x2="50%" y2="100%" id="linearGradient-4">
            <stop stop-color="#FAD55B" offset="0%"></stop>
            <stop stop-color="#F4AB2E" offset="100%"></stop>
        </linearGradient>
        <linearGradient x1="-82.4485677%" y1="-50.01794%" x2="74.7919256%" y2="77.6262556%" id="linearGradient-5">
            <stop stop-color="#FFFCD6" offset="0%"></stop>
            <stop stop-color="#F29808" offset="100%"></stop>
        </linearGradient>
    </defs>
    <g id="个人学习中心" stroke="none" stroke-width="1" fill="none" fill-rule="evenodd">
        <g id="个人中心-钱包" transform="translate(-1382.000000, -219.000000)">
            <g id="分组-9" transform="translate(670.000000, 190.000000)">
                <g id="分组-11" transform="translate(711.000000, 28.000000)">
                    <g id="钱袋">
                        <g id="金币">
                            <mask id="mask-2" fill="white">
                                <use xlink:href="#path-1"></use>
                            </mask>
                            <g id="Clip-2"></g>
                            <path d="M33.1350877,29.50025 C33.1350877,22.8335833 31.4947368,20.3335833 28.2140351,17.8335833 C25.4615263,15.73525 24.1131579,15.3335833 23.2929825,13.6669167 L13.4508772,13.6669167 C12.6307018,15.3335833 11.2815132,15.73525 8.52982456,17.8335833 C5.24912281,20.3335833 3.60877193,22.8335833 3.60877193,29.50025 C3.60877193,36.1669167 1.96842105,37.00025 1.96842105,38.6669167 C1.96842105,40.3335833 6.88947368,42.00025 18.3719298,42.00025 C29.854386,42.00025 34.7754386,40.3335833 34.7754386,38.6669167 C34.7754386,37.00025 33.1350877,36.1669167 33.1350877,29.50025 M13.4508772,12.00025 L23.2929825,12.00025 C24.1131579,10.3335833 25.6321228,8.73858333 27.2445877,7.60191667 C29.1818421,6.23691667 29.0342105,5.33358333 29.0342105,5.33358333 C29.0342105,5.33358333 26.2374123,5.99775 25.7535088,4.50025 C25.2696053,3.00525 23.6358158,2.48525 22.472807,3.66691667 C21.6526316,4.50025 20.8324561,5.12525 20.8324561,5.12525 C20.8324561,5.12525 17.5517544,2.00025 15.9114035,2.00025 C12.8488684,2.00025 13.4024868,6.32858333 11.8105263,5.33358333 C10.14475,4.29191667 8.52982456,4.50025 8.52982456,5.33358333 C8.52982456,6.16691667 9.59195175,7.04191667 10.7032895,8.23025 C11.5349474,9.12108333 12.6815526,10.1510833 13.4508772,12.00025" id="Fill-1" stroke="url(#linearGradient-4)" stroke-width="1.27272727" fill="url(#linearGradient-3)" mask="url(#mask-2)"></path>
                        </g>
                        <path d="M20.7637877,22.6206977 C21.6559564,22.6206977 22.3788964,23.3562008 22.3788964,24.2632213 C22.3788964,25.1709909 21.6559564,25.9064939 20.7637877,25.9064939 C19.871619,25.9064939 19.1493871,25.1709909 19.1493871,24.2632213 C19.1493871,23.3562008 19.871619,22.6206977 20.7637877,22.6206977 Z M24.8571429,28.6829805 L24.8571429,21.9031703 C24.8571429,20.8538426 23.933819,20 22.798074,20 L14.0498639,20 C12.9197835,20 12,20.8500977 12,21.8941825 L12,27.2636543 C12,33.476483 14.6779224,36.6536765 21.2438595,38.2317874 L21.4676097,38.2857143 L22.6529196,35.1804234 L22.4199644,35.101031 C18.4788444,33.7633442 16.8516986,31.8362064 17.0173871,28.6829805 L24.8571429,28.6829805 Z" id="Fill-1-Copy" stroke="url(#linearGradient-5)" stroke-width="1.4" fill="#FFEB75"></path>
                    </g>
                </g>
            </g>
        </g>
    </g>
</svg>