<?xml version="1.0" encoding="UTF-8"?>
<svg width="16px" height="16px" viewBox="0 0 16 16" version="1.1" xmlns="http://www.w3.org/2000/svg" xmlns:xlink="http://www.w3.org/1999/xlink">
    <!-- Generator: Sketch 52.4 (67378) - http://www.bohemiancoding.com/sketch -->
    <title>绑定（点亮）</title>
    <desc>Created with Sketch.</desc>
    <g id="世界语言地图" stroke="none" stroke-width="1" fill="none" fill-rule="evenodd" stroke-linecap="round" stroke-linejoin="round">
        <g id="课程-copy-21" transform="translate(-424.000000, -684.000000)" stroke="#2A9FE4" stroke-width="1.2">
            <g id="侧边栏" transform="translate(370.000000, 100.000000)">
                <g id="分组-5" transform="translate(61.292893, 592.000000) rotate(-315.000000) translate(-61.292893, -592.000000) translate(52.792893, 583.500000)">
                    <path d="M12,10.1818182 L12,13.0909091 C12,14.6975556 10.6568542,16 9,16 C7.34314575,16 6,14.6975556 6,13.0909091 L6,9.45454545 C6,7.84789891 7.34314575,6.54545455 9,6.54545455" id="形状"></path>
                    <path d="M12,3.63636364 L12,6.54545455 C12,8.15210109 10.6568542,9.45454545 9,9.45454545 C7.34314575,9.45454545 6,8.15210109 6,6.54545455 L6,2.90909091 C6,1.30244436 7.34314575,1.09139364e-11 9,1.09139364e-11" id="形状-copy" transform="translate(9.000000, 4.727273) scale(-1, -1) translate(-9.000000, -4.727273) "></path>
                </g>
            </g>
        </g>
    </g>
</svg>