<?xml version="1.0" encoding="UTF-8"?>
<svg width="15px" height="15px" viewBox="0 0 15 15" version="1.1" xmlns="http://www.w3.org/2000/svg" xmlns:xlink="http://www.w3.org/1999/xlink">
    <!-- Generator: Sketch 52.4 (67378) - http://www.bohemiancoding.com/sketch -->
    <title>绑定</title>
    <desc>Created with Sketch.</desc>
    <g id="世界语言地图" stroke="none" stroke-width="1" fill="none" fill-rule="evenodd" stroke-linecap="round" stroke-linejoin="round">
        <g id="课程-copy-21" transform="translate(-421.000000, -729.000000)" stroke="#90A2AE" stroke-width="1.2">
            <g id="侧边栏" transform="translate(370.000000, 100.000000)">
                <g id="分组-5-copy" transform="translate(58.778175, 637.041631) rotate(-315.000000) translate(-58.778175, -637.041631) translate(51.278175, 628.541631)">
                    <g id="分组-7" transform="translate(0.000000, 0.000000)">
                        <path d="M10,10.1818182 L10,13.0909091 C10,14.6975556 8.65685425,16 7,16 C5.34314575,16 4,14.6975556 4,13.0909091 L4,9.45454545 C4,7.84789891 5.34314575,6.54545455 7,6.54545455" id="形状"></path>
                        <path d="M10,3.63636364 L10,6.54545455 C10,8.15210109 8.65685425,9.45454545 7,9.45454545 C5.34314575,9.45454545 4,8.15210109 4,6.54545455 L4,2.90909091 C4,1.30244436 5.34314575,1.09139364e-11 7,1.09139364e-11" id="形状-copy" transform="translate(7.000000, 4.727273) scale(-1, -1) translate(-7.000000, -4.727273) "></path>
                    </g>
                </g>
            </g>
        </g>
    </g>
</svg>