<?xml version="1.0" encoding="UTF-8"?>
<svg width="39px" height="43px" viewBox="0 0 39 43" version="1.1" xmlns="http://www.w3.org/2000/svg" xmlns:xlink="http://www.w3.org/1999/xlink">
    <!-- Generator: Sketch 52.4 (67378) - http://www.bohemiancoding.com/sketch -->
    <title>Group 7</title>
    <desc>Created with Sketch.</desc>
    <g id="个人学习中心" stroke="none" stroke-width="1" fill="none" fill-rule="evenodd">
        <g id="档案" transform="translate(-1333.000000, -282.000000)" fill="#2A9FE4" fill-rule="nonzero">
            <g id="分组-9" transform="translate(670.000000, 190.000000)">
                <g id="分组-7" transform="translate(663.000000, 84.000000)">
                    <g id="Group-7" transform="translate(0.000000, 8.000000)">
                        <path d="M10.8704921,11.9444297 C11.8162686,11.9484286 12.5923696,11.1379179 12.6176471,10.1192547 L12.6176471,1.82518974 C12.5923696,0.806526566 11.8162686,-0.00398415079 10.8704921,1.47335559e-05 C9.93499058,1.47335559e-05 9.17647059,0.817260413 9.17647059,1.82518974 L9.17647059,10.1192968 C9.17834589,11.1264684 9.93569382,11.9424513 10.8704921,11.9444297 Z M26.9293156,11.9444297 C27.8751703,11.9484286 28.6510759,11.1379179 28.6764706,10.1192547 L28.6764706,1.82518974 C28.6510759,0.806526566 27.8751703,-0.00398415079 26.9293156,1.47335559e-05 C25.9938141,1.47335559e-05 25.2352941,0.817260413 25.2352941,1.82518974 L25.2352941,10.1192968 C25.2352941,11.127184 25.9938141,11.9444297 26.9293156,11.9444297 Z M14.9117647,4.77777778 L24.0882353,4.77777778 L24.0882353,7.16666667 L14.9117647,7.16666667 L14.9117647,4.77777778 Z M34.351454,4.77777778 L31.043585,4.77777778 L31.043585,7.55789517 L34.4780555,7.55789517 C35.5006057,7.57260591 36.325747,8.4413926 36.3381231,9.5159165 L36.3381231,15.9971718 L2.62326096,15.9971718 L2.62326096,9.51932768 C2.64273811,8.44339667 3.47538619,7.580409 4.49955955,7.5749511 L7.95675334,7.5749511 L7.95675334,4.77777778 L4.65537674,4.77777778 C2.08500186,4.78907733 0.00553225847,6.97863298 0.000338352315,9.67961083 L0.000338352315,38.1015355 C-0.0301758463,40.7746269 2.00709326,42.9675937 4.551174,42.9995736 C4.55766638,42.9995736 4.56448338,42.9995736 4.57097576,43 L34.3449616,43 C36.9139163,42.9887004 38.992899,40.8010636 39,38.1015355 L39,9.67961083 C38.9946844,6.98140457 36.9191913,4.792787 34.351454,4.77777778 Z M9.76046192,27.4722012 C8.17681621,27.478324 6.888253,26.1460579 6.88237313,24.496996 C6.87649325,22.8479341 8.15591,21.5061438 9.73955571,21.500021 C11.3232014,21.4938983 12.6117646,22.8261643 12.6176445,24.4752262 C12.6176445,24.4777207 12.6176445,24.4799884 12.6176445,24.4824828 C12.6197351,26.1297306 11.3388811,27.4663052 9.75697755,27.4685729 L9.76046192,27.4722012 Z" id="Shape"></path>
                    </g>
                </g>
            </g>
        </g>
    </g>
</svg>