<?xml version="1.0" encoding="UTF-8"?>
<svg width="36px" height="36px" viewBox="0 0 36 36" version="1.1" xmlns="http://www.w3.org/2000/svg" xmlns:xlink="http://www.w3.org/1999/xlink">
    <!-- Generator: Sketch 52.4 (67378) - http://www.bohemiancoding.com/sketch -->
    <title>语伴icon</title>
    <desc>Created with Sketch.</desc>
    <defs>
        <polygon id="path-1" points="0.0492696242 0.160365325 5.82038202 0.160365325 5.82038202 4.41818182 0.0492696242 4.41818182"></polygon>
    </defs>
    <g id="世界语言地图" stroke="none" stroke-width="1" fill="none" fill-rule="evenodd">
        <g id="世界地图语言-默认-copy" transform="translate(-410.000000, -1463.000000)">
            <g id="分组-29" transform="translate(370.000000, 1426.000000)">
                <g id="语伴icon" transform="translate(40.000000, 37.000000)">
                    <circle id="椭圆形" fill="#E3F2FF" fill-rule="nonzero" cx="18" cy="18" r="18"></circle>
                    <g id="分组" transform="translate(18.000000, 10.000000)">
                        <path d="M7.33717303,13.4181818 C7.33717303,14.2316182 6.70339775,14.8909091 5.9214427,14.8909091 C5.13948764,14.8909091 4.50571236,14.2316182 4.50571236,13.4181818 L4.50571236,9.49090909 C4.50571236,8.67747273 5.13948764,8.01818182 5.9214427,8.01818182 C6.70339775,8.01818182 7.33717303,8.67747273 7.33717303,9.49090909 L7.33717303,13.4181818 Z" id="Fill-1" fill="#EAFFFD"></path>
                        <path d="M5.9214427,8.43462 C5.40092584,8.43462 4.97762247,8.87496545 4.97762247,9.41643818 L4.97762247,13.4181655 C4.97762247,13.9596382 5.40092584,14.3999836 5.9214427,14.3999836 C6.44195955,14.3999836 6.86526292,13.9596382 6.86526292,13.4181655 L6.86526292,9.41643818 C6.86526292,8.87496545 6.44195955,8.43462 5.9214427,8.43462 M5.9214427,15.3818018 C4.88056629,15.3818018 4.03380225,14.5009473 4.03380225,13.4181655 L4.03380225,9.41643818 C4.03380225,8.33365636 4.88056629,7.45280182 5.9214427,7.45280182 C6.9623191,7.45280182 7.80908315,8.33365636 7.80908315,9.41643818 L7.80908315,13.4181655 C7.80908315,14.5009473 6.9623191,15.3818018 5.9214427,15.3818018" id="Fill-3" fill="#39ADBF"></path>
                        <path d="M12,13 L11.5443038,13 C7.67392405,13 6.80096203,9.84115476 6.70177215,9.41880952 C6.34207595,8.41332143 6.34572152,7.55609524 6.71255696,6.87019048 C6.99250633,6.34709524 7.47007595,5.94486905 8.13721519,5.66877381 C7.95797468,5.49977381 7.78481013,5.3287619 7.61817722,5.16130952 C6.96091139,5.86361905 6.16875949,6.41611905 5.25296203,6.81060714 C5.57756962,7.37765476 5.72901266,8.21445238 5.29837975,9.41865476 C5.19918987,9.84115476 4.32607595,13 0.455696203,13 L0,13 L0,6.11309524 C0.00212658228,5.95910714 0.00410126582,5.81657143 0.021721519,5.69369048 L0.0156455696,5.69338095 C0.228607595,2.50079762 2.85721519,5.68434189e-14 6,5.68434189e-14 C9.14293671,5.68434189e-14 11.7715443,2.50079762 11.9845063,5.69338095 L11.9787342,5.69369048 C11.9960506,5.81517857 12,5.95554762 12,6.10659524 L12,13 Z" id="Fill-7" stroke="#48BCDD" stroke-width="1.5" fill="#A5E0F5"></path>
                        <path d="M7.49716629,3.92455636 C5.77658202,6.09797455 3.28080674,6.57546545 1.67426742,6.63273818 L1.67426742,8.20544727 C1.67426742,10.6002655 3.54051461,12.5418109 5.84280674,12.5418109 C8.14509888,12.5418109 10.0113461,10.6002655 10.0113461,8.20544727 L10.0113461,6.09699273 C9.09175056,5.58055636 8.2534809,4.71132 7.49716629,3.92455636" id="Fill-9" fill="#EAFFFD"></path>
                        <path d="M1.98885843,6.94462909 L1.98885843,8.20544727 C1.98885843,10.4161745 3.71777978,12.2145382 5.84279101,12.2145382 C7.96780225,12.2145382 9.6967236,10.4161745 9.6967236,8.20544727 L9.6967236,6.28828364 C8.89636404,5.80032 8.16930787,5.08195636 7.51398202,4.40450182 C5.87252135,6.28321091 3.67326292,6.83581091 1.98885843,6.94462909 M5.84279101,12.8690836 C3.37076854,12.8690836 1.35964494,10.7769927 1.35964494,8.20544727 L1.35964494,6.63273818 C1.35964494,6.45633818 1.49398202,6.31168364 1.66355506,6.30562909 C3.32577978,6.24639273 5.64506067,5.74910182 7.25427416,3.71641091 C7.31074607,3.64522909 7.39333034,3.60202909 7.48204944,3.59761091 C7.56840899,3.59466545 7.65681348,3.62772 7.71957753,3.69317455 C8.44899326,4.45195636 9.27593708,5.31202909 10.1607685,5.80915636 C10.2625438,5.86610182 10.3259371,5.97672 10.3259371,6.09699273 L10.3259371,8.20544727 C10.3259371,10.7769927 8.31481348,12.8690836 5.84279101,12.8690836" id="Fill-11" fill="#39ADBF"></path>
                        <g transform="translate(0.000000, 13.418345)" fill="#39ADBF" id="Fill-19">
                            <path d="M0.597632049,1.4823334 C2.26726612,0.090579093 4.36876931,0.160632658 4.3980382,0.162654545 C4.65853258,0.174109091 4.86051011,0.4032 4.84934157,0.674018182 C4.83817303,0.944672727 4.61558876,1.15789091 4.35871236,1.14349091 C4.26846019,1.14056713 2.84055466,1.09959154 1.56080808,1.95729422"></path>
                        </g>
                        <g transform="translate(7.022472, 13.418345)">
                            <mask id="mask-2" fill="white">
                                <use xlink:href="#path-1"></use>
                            </mask>
                            <g id="Clip-22"></g>
                            <path d="M5.34848764,4.41818182 C5.15830787,4.41818182 4.97913933,4.29774545 4.90740899,4.10187273 C3.7833191,1.03238182 0.574173034,1.14054545 0.541611236,1.14218182 C0.285206742,1.15625455 0.0610494382,0.944181818 0.0497235955,0.673036364 C0.0383977528,0.402218182 0.240375281,0.173127273 0.50071236,0.161345455 C0.539566292,0.159218182 4.42558876,0.0279818182 5.78940899,3.75234545 C5.88221798,4.00565455 5.75999326,4.2894 5.51633034,4.38594545 C5.46111685,4.40787273 5.40433034,4.41818182 5.34848764,4.41818182" id="Fill-21" fill="#39ADBF" mask="url(#mask-2)"></path>
                        </g>
                    </g>
                    <g id="分组-copy-3" transform="translate(6.000000, 7.000000)">
                        <path d="M10.1237101,16.4 C10.1237101,17.3942 9.35412584,18.2 8.40460899,18.2 C7.45509213,18.2 6.68550787,17.3942 6.68550787,16.4 L6.68550787,11.6 C6.68550787,10.6058 7.45509213,9.8 8.40460899,9.8 C9.35412584,9.8 10.1237101,10.6058 10.1237101,11.6 L10.1237101,16.4 Z" id="Fill-1" fill="#EAFFFD"></path>
                        <path d="M8.40460899,10.30898 C7.77255281,10.30898 7.25854157,10.84718 7.25854157,11.50898 L7.25854157,16.39998 C7.25854157,17.06178 7.77255281,17.59998 8.40460899,17.59998 C9.03666517,17.59998 9.5506764,17.06178 9.5506764,16.39998 L9.5506764,11.50898 C9.5506764,10.84718 9.03666517,10.30898 8.40460899,10.30898 M8.40460899,18.79998 C7.14068764,18.79998 6.11247416,17.72338 6.11247416,16.39998 L6.11247416,11.50898 C6.11247416,10.18558 7.14068764,9.10898 8.40460899,9.10898 C9.66853034,9.10898 10.6967438,10.18558 10.6967438,11.50898 L10.6967438,16.39998 C10.6967438,17.72338 9.66853034,18.79998 8.40460899,18.79998" id="Fill-3" fill="#39ADBF"></path>
                        <path d="M11.5446622,12.8907536 L10.7242083,13.274208 C7.45682106,14.8010526 3.57032825,13.3900639 2.04348367,10.1226767 C1.6390283,9.25715812 1.42940759,8.31343674 1.42940759,7.35808 C1.42940759,7.35808 1.42940759,7.35808 1.42940759,7.35808 C1.42940759,1.79091052 2.86520674,0.000160000001 8.30906517,8.00000003e-05 C13.7529236,-6.55539804e-15 15.2713389,3.55365809 15.2810708,7.00219783 C15.2810708,7.00219783 15.2810708,7.00219783 15.2810708,7.00219783 L15.2810708,7.00219783 C15.2881904,9.52507096 13.8303094,11.8226915 11.5446687,12.8907676 Z" id="Fill-7" stroke="#48BCDD" stroke-width="1.5" fill="#A5E0F5"></path>
                        <path d="M6.73129733,4.39685879 C5.61389517,3.10747756 4.45257096,4.98481797 3.24732472,10.02888 C3.24732472,12.95588 5.51348202,15.32888 8.30912247,15.32888 C11.1047629,15.32888 13.3709202,12.95588 13.3709202,10.02888 L13.3709202,6.60572615 C10.5780783,7.01814404 8.36487064,6.28185492 6.73129733,4.39685879 Z" id="Fill-9" stroke="#39ADBF" fill="#EAFFFD"></path>
                        <g id="分组" transform="translate(0.000000, 16.400200)" fill="#39ADBF">
                            <path d="M0.573052809,5.4 C0.50524382,5.4 0.436288764,5.3874 0.36924382,5.3606 C0.0733674157,5.2426 -0.0750483146,4.8958 0.0376483146,4.5862 C1.69371573,0.0346 6.5058618,0.1954 6.55476067,0.1988 C6.87107528,0.2128 7.11633371,0.4928 7.10277191,0.8238 C7.08921011,1.1546 6.81892921,1.4152 6.50700787,1.3976 C6.34140112,1.3922 2.4667382,1.2806 1.10864831,5.0134 C1.02154719,5.2528 0.803794382,5.4 0.573052809,5.4" id="Fill-19"></path>
                        </g>
                        <g id="分组" transform="translate(9.741573, 16.400200)" fill="#39ADBF">
                            <path d="M6.49459213,5.4 C6.26365955,5.4 6.04609775,5.2528 5.95899663,5.0134 C4.59403034,1.2618 0.697210112,1.394 0.657670787,1.396 C0.346322472,1.4132 0.0741314607,1.154 0.0603786517,0.8226 C0.0466258427,0.4916 0.29188427,0.2116 0.608007865,0.1972 C0.65518764,0.1946 5.37392921,0.0342 7.02999663,4.5862 C7.14269326,4.8958 6.99427753,5.2426 6.69840112,5.3606 C6.63135618,5.3874 6.56240112,5.4 6.49459213,5.4" id="Fill-21"></path>
                        </g>
                    </g>
                </g>
            </g>
        </g>
    </g>
</svg>