<?xml version="1.0" encoding="UTF-8"?>
<svg width="36px" height="36px" viewBox="0 0 36 36" version="1.1" xmlns="http://www.w3.org/2000/svg" xmlns:xlink="http://www.w3.org/1999/xlink">
    <!-- Generator: Sketch 52.4 (67378) - http://www.bohemiancoding.com/sketch -->
    <title>电台icon</title>
    <desc>Created with Sketch.</desc>
    <g id="世界语言地图" stroke="none" stroke-width="1" fill="none" fill-rule="evenodd">
        <g id="世界地图语言-默认-copy" transform="translate(-410.000000, -1013.000000)">
            <g id="电台icon" transform="translate(410.000000, 1013.000000)">
                <circle id="椭圆形" fill="#F3F8ED" fill-rule="nonzero" cx="18" cy="18" r="18"></circle>
                <g id="分组" transform="translate(8.000000, 6.000000)">
                    <path d="M2.06759259,20.9047619 C0.927597222,20.9047619 4.17616559e-13,19.9775336 4.17616559e-13,18.8379917 L-4.4408921e-16,9.21532091 C-5.58313274e-14,7.55846666 1.34314575,6.21532091 3,6.21532091 L16.2222222,6.21532091 C17.8790765,6.21532091 19.2222222,7.55846666 19.2222222,9.21532091 L19.2222222,18.8379917 C19.2222222,19.9775336 18.294625,20.9047619 17.1546296,20.9047619 L2.06759259,20.9047619 Z" id="路径" stroke="#9CC486" stroke-width="1.5" fill="#FFFFFF"></path>
                    <path d="M2.09471166,6.28398129 C1.95143477,5.89088039 2.19345086,5.46897951 2.63462602,5.34143678 L13.0670548,1.12326301 C13.5086502,0.996842362 13.9830185,1.21115903 14.1258752,1.60388591 C14.2691521,1.99698681 14.0275562,2.41888769 13.586381,2.54643042 L3.15353205,6.76460419 C3.06739785,6.78928988 2.98000315,6.8012587 2.89386895,6.8012587 C2.53966832,6.8012587 2.21025753,6.60003292 2.09471166,6.28398129 Z" id="Fill-13" fill="#9CC486"></path>
                    <path d="M4.30952381,11.6190476 L15.8894426,11.6190476 C16.6126726,11.6190476 17.1989664,11.0327538 17.1989664,10.3095238 L17.1989664,10.3095238 C17.1989664,9.58629378 16.6126726,9 15.8894426,9 L4.30952381,9 C3.58629378,9 3,9.58629378 3,10.3095238 L3,10.3095238 C3,11.0327538 3.58629378,11.6190476 4.30952381,11.6190476 Z" id="Fill-19" fill="#F3F8ED"></path>
                    <path d="M4.72093023,12 L4.72093023,10.4285714" id="Fill-24" fill="#B2EDA6"></path>
                    <path d="M14.1627907,12 L14.1627907,10.952381" id="Fill-34" fill="#FFFFFF"></path>
                    <path d="M12.5891473,12 L12.5891473,9.38095238" id="Fill-36" fill="#B2EDA6"></path>
                    <path d="M13.7222222,18.5 C12.2211889,18.5 11,17.26635 11,15.75 C11,14.23365 12.2211889,13 13.7222222,13 C15.2232556,13 16.4444444,14.23365 16.4444444,15.75 C16.4444444,17.26635 15.2232556,18.5 13.7222222,18.5" id="路径" stroke="#9CC486" fill="#9CC486"></path>
                    <path d="M8.78181818,16.52381 L3.21818182,16.52381 C3.09774545,16.52381 3,16.1824766 3,15.761905 C3,15.3413334 3.09774545,15 3.21818182,15 L8.78181818,15 C8.90225455,15 9,15.3413334 9,15.761905 C9,16.1824766 8.90225455,16.52381 8.78181818,16.52381" id="Fill-49" fill="#8EC486"></path>
                </g>
            </g>
        </g>
    </g>
</svg>