<?xml version="1.0" encoding="UTF-8"?>
<svg width="80px" height="80px" viewBox="0 0 80 80" version="1.1" xmlns="http://www.w3.org/2000/svg" xmlns:xlink="http://www.w3.org/1999/xlink">
    <!-- Generator: Sketch 52.4 (67378) - http://www.bohemiancoding.com/sketch -->
    <title>2@2x</title>
    <desc>Created with Sketch.</desc>
    <defs>
        <polygon id="path-1" points="4.89795918e-05 0.0656800805 55.8734694 0.0656800805 55.8734694 23.1428571 4.89795918e-05 23.1428571"></polygon>
        <polygon id="path-3" points="0.0186086976 0.0380330579 32.932921 0.0380330579 32.932921 38.8849916 0.0186086976 38.8849916"></polygon>
    </defs>
    <g id="2" stroke="none" stroke-width="1" fill="none" fill-rule="evenodd">
        <rect fill="#E8F7FF" x="0" y="0" width="80" height="80"></rect>
        <g id="分组" transform="translate(12.000000, 14.000000)">
            <path d="M48,66 L48,62.7729472 C48,51.897745 39.0000452,43 28.0000821,43 C16.9999548,43 8,51.897745 8,62.7729472 L8,66 L48,66 Z" id="Fill-1" fill="#FDD59E"></path>
            <g transform="translate(0.000000, 43.000000)">
                <mask id="mask-2" fill="white">
                    <use xlink:href="#path-1"></use>
                </mask>
                <g id="Clip-4"></g>
                <path d="M55.8735184,23.1428571 L55.8735184,19.9049759 C55.8735184,8.99328169 43.3019265,0.0656800805 27.936702,0.0656800805 C12.5714776,0.0656800805 4.89795918e-05,8.99328169 4.89795918e-05,19.9049759 L4.89795918e-05,23.1428571 L55.8735184,23.1428571 Z" id="Fill-3" fill="#9FDFFF" mask="url(#mask-2)"></path>
            </g>
            <path d="M28.6759881,47 C26.2009414,47 24,46.7952524 24,44.1963318 L24,38.7252211 C24,36.126464 26.0249533,34 28.5,34 C30.974891,34 33,36.126464 33,38.7252211 L33,44.1963318 C33,46.7952524 31.1510348,47 28.6759881,47" id="Fill-5" fill="#C5EAFF"></path>
            <path d="M24,36.36 L24,41 C25.2560566,40.96448 26.8368346,40.80848 28.6130685,40.36 C30.3945975,39.91008 31.8691597,39.53312 33,38.96448 C32.9781962,37.72304 32.9567038,36.24144 32.9349,35 L24,36.36 Z" id="Fill-7" fill="#9ADDF7"></path>
            <path d="M23.367783,43.1085484 C23.367783,43.1085484 19.9677173,43.5228806 19,43.7920207 L26.9253306,47 L28.0748336,47 L36,43.7921736 C36,43.7921736 33.5293896,43.2830845 31.8911836,43.0860819 C30.177603,42.8800621 23.367783,43.1085484 23.367783,43.1085484" id="Fill-9" fill="#C5EAFF"></path>
            <polygon id="Fill-11" fill="#E8F7FF" points="20 44 28 47.4708795 24.81186 51"></polygon>
            <polygon id="Fill-13" fill="#E8F7FF" points="36 44 28 47.4708795 31.1882372 51"></polygon>
            <path d="M15,20.4392501 C15,20.4392501 11.860088,16.5666339 9.69799969,18.5804734 C7.53608187,20.5939836 10.7491261,29.9685265 14.5085311,27.6272776" id="Fill-15" fill="#B9E7FC"></path>
            <g transform="translate(11.000000, 0.000000)">
                <mask id="mask-4" fill="white">
                    <use xlink:href="#path-3"></use>
                </mask>
                <g id="Clip-18"></g>
                <path d="M31.8315059,9.5840405 C30.5510406,6.30304463 28.0714663,4.04861901 25.4723079,2.51214793 C19.8917139,-0.786736364 13.0597337,-0.786736364 7.47930297,2.51214793 C4.87998119,4.04861901 2.4005703,6.30304463 1.11994158,9.5840405 C-2.29310792,18.3290653 2.06452574,37.847276 16.4654317,38.8820653 L16.4654317,38.8839992 C16.4688624,38.883838 16.4722931,38.8833545 16.4757238,38.8830322 C16.4793178,38.8833545 16.4835653,38.8865777 16.4860158,38.8839992 C16.4863426,38.8836769 16.4860158,38.8820653 16.4860158,38.8820653 C30.8870851,37.847276 35.2447188,18.3290653 31.8315059,9.5840405" id="Fill-17" fill="#B9E7FC" mask="url(#mask-4)"></path>
            </g>
            <path d="M41,19.4391911 C41,19.4391911 44.1399016,15.5667313 46.3019828,17.5804104 C48.4638934,19.5939249 45.2510303,28.9686523 41.4914673,26.6272339" id="Fill-19" fill="#B9E7FC"></path>
        </g>
    </g>
</svg>