<?xml version="1.0" encoding="UTF-8"?>
<svg width="170px" height="210px" viewBox="0 0 170 210" version="1.1" xmlns="http://www.w3.org/2000/svg" xmlns:xlink="http://www.w3.org/1999/xlink">
    <!-- Generator: Sketch 52.4 (67378) - http://www.bohemiancoding.com/sketch -->
    <title>数据框@1x</title>
    <desc>Created with Sketch.</desc>
    <defs>
        <linearGradient x1="50%" y1="101.228609%" x2="50%" y2="24.4270833%" id="linearGradient-1">
            <stop stop-color="#0B2D56" offset="0%"></stop>
            <stop stop-color="#EEF5FE" offset="100%"></stop>
        </linearGradient>
        <path d="M0,0 L120,0 C136.568542,-3.04359188e-15 150,13.4314575 150,30 L150,39 L0,39 L0,0 Z" id="path-2"></path>
        <linearGradient x1="50%" y1="0%" x2="50%" y2="100%" id="linearGradient-4">
            <stop stop-color="#FFFFFF" offset="0%"></stop>
            <stop stop-color="#82939C" offset="100%"></stop>
        </linearGradient>
        <path d="M24.234375,-1.21875 L28.9375,-1.21875 L24.890625,21.421875 L21.828125,21.421875 C20.0051992,21.2760409 18.8750022,20.2916758 18.4375,18.46875 L16.578125,4.140625 L14.5,18.359375 C14.1354148,20.1823008 13.0781337,21.2031239 11.328125,21.421875 L8.265625,21.421875 L4.109375,-1.21875 L8.8125,-1.21875 L11.21875,15.625 L13.625,-1.21875 L19.421875,-1.21875 L21.9375,15.625 L24.234375,-1.21875 Z M41.515625,-1.21875 L48.1875,21.421875 L43.703125,21.421875 L42.609375,18.140625 C42.0260387,16.7552014 40.8958417,15.9895841 39.21875,15.84375 L35.171875,15.84375 L33.640625,21.421875 L29.046875,21.421875 L35.71875,-1.21875 L41.515625,-1.21875 Z M36.15625,11.90625 L41.1875,11.90625 L38.671875,3.046875 L36.15625,11.90625 Z M63.828125,17.703125 L63.828125,21.421875 L54.53125,21.421875 C51.3229006,21.421875 49.71875,19.9270983 49.71875,16.9375 L49.71875,-1.21875 L54.09375,-1.21875 L54.09375,16.171875 C54.09375,17.1927134 54.6041616,17.703125 55.625,17.703125 L63.828125,17.703125 Z" id="path-5"></path>
        <linearGradient x1="100%" y1="100%" x2="61.0804116%" y2="17.9061026%" id="linearGradient-6">
            <stop stop-color="#ACBCC5" offset="0%"></stop>
            <stop stop-color="#0B2D56" offset="100%"></stop>
        </linearGradient>
    </defs>
    <g id="切图-+-杂项" stroke="none" stroke-width="1" fill="none" fill-rule="evenodd">
        <g id="iPhone-SE" transform="translate(-1319.000000, -903.000000)">
            <g id="数据框" transform="translate(1319.000000, 903.000000)">
                <path d="M3,0 L121.980519,0 L167,4.4408921e-16 C168.656854,1.39730022e-16 170,1.34314575 170,3 L170,41.5 L170,210 L0,210 L0,3 C-2.02906125e-16,1.34314575 1.34314575,3.04359188e-16 3,0 Z" id="Rectangle-2" fill="url(#linearGradient-1)" opacity="0.300000012"></path>
                <path d="M37.234375,14.78125 L41.9375,14.78125 L37.890625,37.421875 L34.828125,37.421875 C33.0051992,37.2760409 31.8750022,36.2916758 31.4375,34.46875 L29.578125,20.140625 L27.5,34.359375 C27.1354148,36.1823008 26.0781337,37.2031239 24.328125,37.421875 L21.265625,37.421875 L17.109375,14.78125 L21.8125,14.78125 L24.21875,31.625 L26.625,14.78125 L32.421875,14.78125 L34.9375,31.625 L37.234375,14.78125 Z M54.515625,14.78125 L61.1875,37.421875 L56.703125,37.421875 L55.609375,34.140625 C55.0260387,32.7552014 53.8958417,31.9895841 52.21875,31.84375 L48.171875,31.84375 L46.640625,37.421875 L42.046875,37.421875 L48.71875,14.78125 L54.515625,14.78125 Z M49.15625,27.90625 L54.1875,27.90625 L51.671875,19.046875 L49.15625,27.90625 Z M76.828125,33.703125 L76.828125,37.421875 L67.53125,37.421875 C64.3229006,37.421875 62.71875,35.9270983 62.71875,32.9375 L62.71875,14.78125 L67.09375,14.78125 L67.09375,32.171875 C67.09375,33.1927134 67.6041616,33.703125 68.625,33.703125 L76.828125,33.703125 Z" id="WAL" fill="#0B2D56"></path>
                <g id="WAL" transform="translate(13.000000, 16.000000)">
                    <mask id="mask-3" fill="white">
                        <use xlink:href="#path-2"></use>
                    </mask>
                    <use id="Mask" fill="#0B2D56" xlink:href="#path-2"></use>
                    <g mask="url(#mask-3)">
                        <use fill="#2A9FE4" xlink:href="#path-5"></use>
                        <use fill="url(#linearGradient-4)" xlink:href="#path-5"></use>
                    </g>
                </g>
                <polygon id="Rectangle-2-Copy-3" fill="#FFFFFF" points="13 55 163 55 163 210 13 210"></polygon>
                <path d="M83.6387316,43.8987636 C83.5229152,43.9657747 83.4421182,44.0632851 83.3888189,44.2756373 C83.2680673,44.7418279 82.814418,45.1025241 82.3879101,44.8193398 L82.1195424,46.1521525 C81.8276337,46.2870288 81.5177231,46.4854257 81.2119668,46.5643367 C81.1172488,46.5886816 81.1585148,46.2951438 81.0266851,46.3690179 C80.8823925,46.454365 80.7367151,46.5416708 80.5962998,46.6247792 C79.6712761,47.1626054 79.7648863,47.17128 79.0400998,46.3281633 C78.5900508,45.8046083 78.1062136,45.6112483 77.5079947,45.3112745 C77.3664716,45.3761942 77.1723274,45.3753547 77.0191723,45.4027777 C76.902021,44.885099 77.3490235,44.5302793 77.6201607,44.1774183 C77.9383799,43.75572 77.3080344,43.4341996 78.162712,43.3522105 C77.6730588,42.926035 78.4654219,42.1649075 78.790288,41.8548599 C78.9489822,41.7040335 78.2272421,40.7307976 78.062455,40.4271861 C79.0342837,40.2883922 80.0061125,40.1540756 80.9757257,40.0091256 C81.7896911,39.8927178 82.5665449,40.933112 83.4447635,40.6801491 C83.4037744,40.7965568 83.4154064,40.9479428 83.3652779,41.0623918 C84.0163949,40.3275679 84.826206,40.6462901 85.5833961,40.955778 C85.9522978,41.1116412 86.282149,41.4032202 86.6178163,41.6449902 C86.892221,41.8405731 87.0198907,41.9877379 86.997491,42.1496238 C87.2518764,42.0638535 87.4616106,42.0487191 87.7868343,42.2259401 C88.4796344,42.6013644 87.9832409,43.092527 87.5046768,43.458724 C87.7958905,43.4386873 88.0907834,43.4157505 88.3870912,43.391232 C88.6664187,43.3738317 88.7470756,42.8083224 88.9941403,42.7516396 C89.3611999,42.6598927 90.400117,43.3617042 90.7680255,43.5251614 C90.6296353,43.7015371 90.487849,43.8760672 90.3463457,44.0527065 C90.8880203,44.0527065 90.9214151,44.0898798 91.2095158,43.627454 C91.3244165,43.4434328 92.0262728,43.7268466 92.2365466,43.7772019 C91.9266544,43.4779697 91.6164792,43.1718829 91.303474,42.8655324 C91.8451486,42.7869675 93.1076409,42.8212408 93.3634788,43.515934 C93.5400749,44.0202787 93.7231802,44.521196 93.9105305,45.021586 C94.0735423,45.4729389 94.2928724,45.2056072 94.705496,45.0540138 C94.4943731,44.5098594 94.2869293,43.9654414 94.0823155,43.4173324 C93.9886403,43.1750466 93.8929841,42.9290698 93.802422,42.6859931 C93.714407,42.4589985 94.1612743,42.3540695 93.9226998,42 C94.1213704,42.0930652 94.8079444,42.5565455 94.9369954,42.3709425 C95.2197189,41.966254 95.5539497,42.4756078 95.9309144,42.6707019 C96.8252152,43.1312822 97.0773741,44.4900864 97.4752813,45.3954285 C97.6408402,45.7784985 97.28878,46.2158784 97.4118878,46.4911193 C97.5383918,46.7758512 98.5340089,47.1301843 98.796639,47.2759776 C99.5004763,47.6767115 100.296291,48.1270098 100.973809,47.9978259 C101.009184,48.3998779 101.100029,49.5638516 100.482509,48.6811825 C100.443454,48.8000845 100.320063,48.8884041 100.281291,49.0028242 C99.8533855,48.6637823 99.4167064,48.4557698 99.2811462,49.231137 C99.1702077,49.1681269 99.0168181,49.1151351 98.9228599,49.0278701 C98.7997521,48.9867421 98.6517396,48.9933331 98.5232546,48.9793602 C98.8172985,49.2498555 98.7369246,49.5527787 98.7247553,49.9158119 C99.1034181,49.5656971 99.4498182,49.2720014 99.9948888,49.4130491 C99.6640541,49.8509563 100.170636,49.7708096 100.170636,50.111697 C100.170636,50.3160185 99.356992,50.5556679 99.1495482,50.5788683 C98.3398664,50.6550604 97.5771637,50.2345535 96.7674819,50.2345535 C96.8673832,50.1786617 96.9429459,50.0884966 97.0349231,50.0310229 C96.557208,49.9390123 96.0715687,49.8480563 95.5898915,49.7549911 C95.6566811,49.6453166 95.6388517,49.4781684 95.7016791,49.3684938 C95.2927346,49.2432645 95.2797163,49.5896884 94.9916156,49.8061374 C94.6477626,50.0642416 94.4864489,50.0995695 94.058543,50.1675888 C93.371403,50.2762088 93.1220742,50.7286162 92.4360663,50.7721169 C91.4271478,50.8512091 90.4241726,50.9187011 89.4161031,50.9951569 C88.5945351,51.0515761 88.3950154,50.6131416 88.4796344,49.780037 C87.0496022,49.7101722 85.3359974,49.9827767 84.8155483,48.3181493 C85.7027739,48.1436192 86.8534786,47.6767115 87.7540055,47.786386 C88.3171886,47.8544053 88.9103704,47.9978259 89.4789306,47.9978259 C89.7381646,47.9994077 90.9457537,47.8000953 90.2017294,47.6221379 C89.1299835,47.3661428 88.2235134,47.1344026 87.1336551,47.1452118 C86.3896309,47.1528574 85.6501347,47.160503 84.9063934,47.1726305 C84.3341541,47.1802761 84.2082162,46.9453722 83.768707,46.53752 C84.50226,46.233015 85.234398,45.9332556 85.966253,45.6263778 C85.2641137,45.647469 84.5602764,45.6690876 83.855024,45.6930789 C83.9269077,45.5886772 83.9390769,45.4328655 84.0118096,45.3324184 L83.0119474,45.3324184 C82.9041219,44.70759 83.5510749,44.3954394 83.9489822,44.0527065 C83.8401319,44.0307025 83.7414125,43.9532209 83.6387316,43.8987636 Z M142.100725,78.9873278 C141.932008,78.9981443 141.757642,79.0188149 141.573186,79.0777898 C141.129187,79.2245348 140.934887,79.5019321 140.600319,79.8726135 C139.909898,80.6311601 139.340914,80.7421735 138.321383,80.6387974 C137.283295,80.5296932 136.353545,80.5106 135.314093,80.5714256 C134.408631,80.6259776 133.471241,80.3177584 133.22973,81.5296327 C133.163417,81.8465803 132.286609,81.9387733 132.045098,82.1097941 C131.651039,82.3836455 131.307739,82.8969805 130.976991,83.2556604 C130.373077,83.9029207 130.045332,84.6781057 129.331987,85.2031694 C130.550185,84.6112794 131.204039,83.3252143 132.423329,82.733597 C133.259748,82.3310027 135.529679,81.0517566 136.124042,82.5478472 C136.025527,82.4954772 135.916097,82.4780206 135.814034,82.4278327 C136.428591,82.8457015 135.59299,83.154739 135.285439,83.422317 C134.890289,83.7657223 134.568274,83.1664677 134.112541,83.4801422 C134.297836,83.5297846 134.742107,84.0202077 134.766122,84.0136615 C135.056754,83.9378341 135.296901,83.8688257 135.601996,83.9656556 C135.529679,84.3145161 135.322825,84.6112794 135.052661,84.8169408 C135.192382,84.7651163 135.367034,84.829215 135.514943,84.8003024 C135.285439,85.4396527 135.962216,85.954897 136.449604,86.0730023 C136.394207,86.1147346 136.342084,86.1594673 136.286141,86.1951989 C136.991844,86.5369677 137.683357,86.8282757 138.298187,86.3804032 C138.318654,86.4946898 138.339121,86.6043395 138.361771,86.7158985 C138.479115,86.7158985 138.682421,86.6550729 138.78039,86.5909742 C138.360134,86.0468173 139.207196,85.2675409 139.494553,84.8226687 C140.049346,85.0245114 139.731971,85.5111159 139.608077,85.9448049 C140.007867,85.6286756 140.585583,86.2513876 140.240645,86.4024968 C139.782183,86.6043395 139.361927,86.8724629 138.849432,86.7854524 C138.962956,86.8762816 139.018626,87.0451202 139.12642,87.1405864 C138.54843,87.3746148 137.972624,87.6108253 137.395727,87.8418533 C137.17441,87.9315914 136.945452,87.992417 136.757428,88.1558005 C136.510186,88.3753726 136.443873,87.8699476 136.234291,88.0398773 C135.842961,88.3535517 135.490928,88.964535 135.067124,89.3665838 C134.783587,89.6385259 134.50469,89.2517517 134.330584,89.1884712 C133.723122,88.321366 135.186379,87.5699112 135.679771,87.2145044 C136.031531,86.9594735 135.860426,87.2592371 136.022798,87.4038001 C136.350544,87.683925 136.548665,87.2944232 136.849666,87.0262998 C136.464067,87.0096614 135.97395,86.8697353 135.639928,87.1059458 C135.64293,86.8981024 135.821675,86.6905318 135.958395,86.4848704 C135.505664,86.3733114 134.937226,86.9594735 134.56227,87.2016847 C134.321032,87.3612495 134.324853,87.0069338 134.043226,87.33561 C133.900776,87.5028121 133.57303,87.4038001 133.37218,87.4038001 C133.665268,88.340732 132.079755,88.0014181 131.868263,88.4233784 C131.805224,88.3587342 131.740275,88.2927262 131.676964,88.2283547 C131.432997,88.7310521 131.20131,88.7845131 130.731114,88.9604436 C130.41674,89.0823675 130.405006,89.3098496 130.27429,89.6513456 C130.082991,90.1444964 129.182987,91.8001518 130.41674,91.6694996 C130.38181,91.5925812 130.350154,91.5088437 130.317407,91.4360167 C130.413738,91.5063889 130.501065,91.633768 130.57611,91.7368714 C130.210705,91.9954482 129.77544,91.771512 129.389841,91.6787734 C129.197451,91.633768 129.261854,92.2041099 128.977225,92.2215666 C128.071764,92.2933026 127.665152,92.3413084 126.88413,92.8620079 C127.440833,92.792454 127.891927,92.5169661 128.436896,92.436229 C128.376313,92.4812345 128.320643,92.5325134 128.26006,92.5745185 C128.413973,92.5652447 128.568703,92.6121594 128.718522,92.5927935 C128.341929,92.8020007 128.074493,92.9803859 127.656419,93.0090258 C127.311209,93.0346653 126.704293,92.9100138 126.500441,93.2749671 C127.344775,93.3704333 126.129578,94.9764464 125.818752,95.2412967 C126.016327,94.8897086 125.412141,94.6594988 125.275694,94.24954 C125.30462,94.7459638 125.926818,95.4142268 125.7025,95.8650996 C125.475725,96.3317926 125.063109,96.8764951 124.942217,97.3390967 L124.851617,97.31373 C124.85762,96.9651422 125.014261,96.6904725 125.141976,96.3759798 C124.922023,96.2363265 125.028452,95.7917271 124.587455,95.9131055 C124.645855,95.5716095 124.672052,95.2412967 124.805498,94.9306226 C124.834697,94.8774343 125.113322,94.2372657 124.81423,94.4549285 C124.094336,94.9764464 124.309377,95.3182151 124.506406,96.2008677 C124.294095,96.0380297 124.065137,95.9038316 123.815166,95.8421878 C123.996094,96.1084019 124.436272,96.1924121 124.579541,96.453171 C124.686789,96.6577413 124.42754,97.2433578 124.485393,97.4351084 C124.587455,97.7902424 125.081393,97.6074929 124.947948,98.1931094 C124.846159,98.6668942 124.549796,98.622707 124.137453,98.7558141 C124.494944,98.7585417 125.116324,98.6374361 125.025996,99.1717736 C124.994067,99.3918913 124.247975,99.4025289 124.050673,99.4371695 C124.158466,99.4982678 124.244974,99.6065537 124.355496,99.6668337 C124.190122,99.7219313 124.109345,99.8302172 123.905494,99.8269441 C124.0796,100.259815 124.338303,99.8686764 124.631391,100.041334 C124.42754,100.149347 124.22478,100.265543 124.02393,100.374101 C123.865378,100.453747 123.644061,100.200899 123.519076,100.271543 C123.275109,100.415561 123.028686,100.987812 122.857581,101.237661 C122.732596,101.419865 122.29733,101.339673 122.067281,101.628526 C121.861519,101.895831 121.675951,102.225872 121.396235,102.392255 C120.43101,102.960961 120.261815,103.220083 119.73977,104.282485 C119.49553,104.784909 119.652171,105.672472 119.884949,106.175987 C120.290742,107.048275 120.579191,107.844462 120.852085,108.78194 C120.994262,109.267726 121.121158,110.521333 120.767488,110.870193 C120.503054,111.139135 120.276006,111.493451 119.965726,111.055125 C119.867484,110.918199 119.298227,110.405682 119.286766,110.361768 C119.176244,109.935716 119.007868,109.655319 118.85996,109.31846 C118.691584,108.941232 118.500559,108.71975 118.61572,108.271878 C118.546678,108.330521 118.476271,108.391893 118.412687,108.449445 C118.244584,107.873921 118.773453,107.048275 118.198465,106.651954 C117.692793,106.303094 117.416897,105.612192 116.818987,105.80476 C116.497791,105.908682 116.157492,106.146529 115.858128,105.94796 C115.590965,105.771756 115.243025,105.436261 114.938203,105.350069 C114.413155,105.206051 113.529798,105.906227 113.375886,105.014846 C113.277644,105.791941 111.555684,105.231691 111.047283,105.634831 C111.402045,105.67029 112.723124,105.833127 111.73634,106.306367 C111.840312,106.361192 112.37764,106.546669 112.394287,106.64268 C112.458417,106.91735 112.22018,107.033 112.031884,106.993996 C112.172151,106.635861 111.640281,106.501663 111.384579,106.342098 C111.440523,106.594674 111.329728,106.680867 111.323451,106.872344 C111.082759,106.373466 110.870447,106.894711 110.545431,106.648135 C110.133907,106.33828 109.95407,106.046699 109.478143,106.214174 C109.207978,106.306367 108.827018,106.054609 108.57159,105.95396 C108.084201,105.771756 107.313822,106.32546 106.846628,106.523211 C106.080342,106.837158 104.248952,108.196869 104.240219,109.296639 C104.231759,109.634862 104.687219,109.980722 104.708505,110.319217 C104.722695,110.549427 104.536309,110.930473 104.474635,111.145136 C104.307351,111.746572 104.042917,112.364375 104.045919,112.996906 C104.054378,114.586281 104.261232,115.725328 105.137221,117.052034 C105.654355,117.828856 105.848655,118.37274 106.693807,118.618497 C106.867641,118.677141 107.143536,119.111375 107.294447,119.057096 C107.642659,118.920716 107.990872,118.7887 108.338811,118.663503 C108.676381,118.536124 108.916528,118.481844 109.274291,118.449113 C109.523171,118.430838 109.721564,118.756241 109.849279,118.699234 C109.978903,118.634863 110.182755,118.587402 110.290548,118.487572 C110.372143,118.418018 110.168292,118.205811 110.290548,118.097798 C110.59155,117.825856 110.74055,117.729844 110.855711,117.327522 C111.054105,116.655714 110.995433,115.867709 111.706867,115.587038 C112.002684,115.466478 112.975005,115.232995 113.277644,115.274728 C113.678798,115.323279 114.827954,115.085159 114.464459,115.951446 C114.319825,116.291033 113.85154,117.308156 113.605662,117.329977 C113.732558,117.400895 113.660241,117.527456 113.947871,117.519818 C113.838168,117.611739 113.756572,117.739118 113.64605,117.816582 L113.700902,117.889954 C113.753571,117.852313 113.805693,117.816582 113.861364,117.781396 C113.689441,118.183444 113.614122,118.603223 113.523794,119.028456 C113.345049,118.843524 113.266182,118.574583 113.319942,118.302368 C113.213514,118.424565 113.11227,118.632135 113.039408,118.779153 C113.575917,118.804247 112.961633,119.833917 113.141197,120.217418 C113.30275,120.563551 112.723124,121.202629 112.490345,121.420564 C113.250627,121.684597 113.988259,121.481663 114.827954,121.609587 C115.152697,121.653502 115.387932,121.36574 115.710219,121.420564 C116.067983,121.465843 116.555372,121.443476 116.888848,121.589403 C117.599463,121.90035 118.056288,122.398683 117.9283,123.22051 C117.840974,123.750756 117.760198,124.27582 117.67833,124.804975 C117.628117,125.114013 117.379238,125.379136 117.33885,125.672899 C117.160923,127.110073 118.897619,129.444084 120.20096,128.912474 C121.007907,128.583525 121.42025,128.25403 122.265402,128.510152 C123.083538,128.752909 123.400094,129.201327 124.006464,129.868499 C123.963347,128.852466 125.225754,127.474208 125.710959,126.652381 C125.859141,126.399805 126.800624,126.245968 127.052505,126.152411 C127.734467,125.9102 128.419703,125.660624 129.108214,125.414867 C129.735052,125.18684 130.869471,125.73427 131.488667,125.87856 C133.114296,126.259061 134.731737,126.630015 136.356274,127.010516 C137.236084,127.21454 138.124626,127.227906 138.804405,127.87653 C140.069541,129.094678 141.335768,130.306825 142.600904,131.52279 C143.403212,132.286247 145.150005,132.30534 146.166261,132.555188 C147.118115,132.791672 147.866936,134.376137 148.467848,135.161959 C149.074491,135.957874 149.684136,136.753516 150.297328,137.550795 C150.441689,137.747182 150.769707,138.381895 150.996482,138.462905 C152.300096,138.935599 153.602891,139.402838 154.90978,139.875531 C156.21312,140.346043 157.519736,140.815464 158.82335,141.288703 C159.902099,141.683114 161.024511,142.871531 161.984825,143.559978 C162.161933,143.579072 163.371944,143.594073 163.404146,143.72909 C163.534589,144.314706 163.67431,144.893504 163.807756,145.475029 C164.097296,146.734909 164.124039,146.712543 163.432799,147.712755 C162.588739,148.941268 161.738675,150.164871 160.886973,151.388201 C160.492641,151.969999 160.007982,152.414871 159.958315,153.137141 C159.827326,154.941723 159.69661,156.751216 159.568896,158.554707 C159.485117,159.750489 158.242905,160.978729 157.62671,161.929026 C157.356546,162.335439 157.131408,163.024159 156.64593,163.051162 C156.175734,163.083348 155.095893,162.916964 154.701016,163.18836 C153.510653,164.006914 152.32029,164.829287 151.1302,165.642385 C150.895511,165.80986 150.900151,167.589349 150.862764,167.905205 C150.822376,168.279978 150.883231,168.928875 150.645541,169.233003 C149.657938,170.502702 148.668425,171.77513 147.681368,173.042102 C146.778635,174.207879 145.872628,175.372293 144.967166,176.532616 C144.757311,176.795557 141.909937,175.567044 141.471123,175.430391 C141.213784,176.406601 142.842415,176.510795 143.009699,177.355534 C143.094296,177.771766 143.4144,178.561953 143.338536,178.971094 C143.2654,179.345048 142.722069,179.879113 142.520127,180.182968 C141.921398,181.058802 141.120455,181.039981 140.156867,181.30074 C139.233121,181.550589 138.789941,181.528222 137.839998,181.342472 C138.022564,181.938727 138.171837,182.19103 137.95052,182.756462 C137.820077,183.111323 137.982176,183.684666 137.779416,183.830593 C136.835203,184.490127 136.286141,184.205911 135.299902,183.712487 C135.29117,184.205911 135.160181,184.867628 135.267974,185.340867 C135.346021,185.688909 135.921009,186.277526 135.770917,186.613567 C135.468005,187.262464 135.171915,187.904814 134.873096,188.554529 C134.579736,189.193607 134.475763,189.130599 133.814268,189.289619 C133.244193,189.427908 133.139402,189.92215 132.844131,190.464125 C132.661565,190.806439 133.363175,191.455336 133.5673,191.749099 C133.831734,192.121144 134.69899,191.797105 134.519153,192.400996 C134.344228,192.996978 134.237527,193.217641 133.85684,193.671241 C133.522818,194.074654 133.041433,194.480249 132.878788,194.999312 C132.634821,195.779952 132.434517,195.814592 131.761561,196.206822 C131.084784,196.597687 131.836607,198.641481 131.964321,199.383389 C132.016444,199.655058 132.004709,200.303955 132.223297,200.480431 C132.725149,200.918212 133.22973,201.346991 133.729671,201.775497 C134.606479,202.523679 135.203844,202.392754 136.330622,202.416757 C135.311091,202.873903 134.286102,203.345506 133.264387,203.805926 C132.446252,204.180698 132.289611,203.965763 131.452918,203.559623 C130.245636,202.981371 129.04463,202.392754 127.835983,201.816957 C127.214877,201.516921 127.112815,200.821654 126.828459,200.149846 C126.152774,198.555016 125.049738,196.990735 125.249769,195.213428 C125.54886,192.56438 125.849589,189.92215 126.149773,187.275829 C126.43713,184.732611 126.552291,182.075652 127.029582,179.558074 C127.630222,176.389962 128.231407,173.217759 128.832319,170.045011 C129.197451,168.113867 129.563947,166.188179 129.929079,164.266309 C130.082991,163.440936 130.379081,162.526371 130.41674,161.688724 C130.443484,160.982547 130.231173,160.172722 130.141663,159.472819 C130.085993,159.012399 130.143574,157.90281 129.900152,157.509489 C129.63872,157.096257 128.783198,156.732122 128.402511,156.466454 C127.656419,155.9523 126.916058,155.434056 126.172696,154.914174 C125.420054,154.38802 125.208289,153.866229 124.747917,153.003215 C123.83536,151.291644 122.915162,149.581436 122.000968,147.867137 C121.249145,146.452875 120.494321,145.04625 119.73977,143.633078 C119.275031,142.764064 120.061784,141.157778 120.276006,140.252759 C120.383799,139.805432 120.43674,138.800583 120.718367,138.44954 C121.152814,137.892018 121.577982,137.340224 122.0097,136.789248 C122.970287,135.561008 123.795245,134.84583 123.545001,133.112165 C123.48742,132.718299 123.250003,132.507183 123.540089,132.21642 C123.579659,132.179597 123.4383,131.618529 123.48742,131.41805 C123.606675,130.888623 122.439508,130.406109 122.561492,129.896048 C122.721135,129.26488 122.685658,129.338525 122.166341,129.044762 C121.795206,128.823827 121.797389,128.852466 121.41179,129.059491 C121.118156,129.220147 120.903116,129.451175 120.650962,129.681385 C120.517244,129.805218 120.898204,130.25009 120.982528,130.400381 C120.241621,130.717602 120.273277,130.807067 119.933797,129.996423 C119.78316,130.438295 119.039797,129.690386 118.628273,129.609922 C118.412687,129.568735 118.266689,129.815038 118.134062,129.718481 C117.910835,129.546914 117.685152,129.370166 117.458104,129.201327 C116.99282,128.852466 116.075624,128.417414 115.756611,127.908715 C115.484263,127.480209 115.620983,126.825311 115.274408,126.425445 C114.396236,125.411321 113.861364,124.512849 112.635252,124.167807 C111.683671,123.904593 110.101978,123.834221 109.352885,123.099677 C108.696575,122.449689 108.032079,121.801883 107.375496,121.148895 C106.945688,120.725298 106.336044,121.170716 105.820001,121.334645 C104.649833,121.69578 103.453739,120.844495 102.338422,120.394713 C101.438418,120.029487 100.535685,119.668352 99.6367732,119.303671 C99.3608776,119.191021 98.8205478,119.102101 98.5932273,118.875437 C98.0070513,118.280002 97.4233314,117.685384 96.8379742,117.087766 C96.2949155,116.540881 96.6166573,116.211387 96.843705,115.443566 C96.9880658,114.943869 96.0561334,113.963023 95.7977029,113.565611 C95.4958824,113.108738 95.2611937,112.808156 94.8687724,112.443202 C94.2392063,111.855131 93.6063655,111.276333 92.9740706,110.684171 C92.8305284,110.549427 93.0111841,110.144105 93.0439314,109.96081 C93.0843197,109.769605 92.7355614,109.463023 92.6307701,109.328552 C92.1804953,108.747299 91.8066308,108.235328 91.2463798,107.796457 C90.77018,107.429321 90.2686012,107.204294 90.0857623,106.591674 C89.9839729,106.248542 89.7192659,104.600796 89.4316359,104.470689 C88.8454599,104.205566 88.2620129,103.933897 87.678293,103.668501 C87.8734121,104.330763 88.0068572,105.619011 88.4243848,106.123072 C89.061046,106.881618 89.6057421,107.477054 89.9839729,108.413713 C90.1981946,108.95487 90.3373704,109.098887 90.7644493,109.469023 C91.0807332,109.745057 91.1672406,110.181473 91.3192424,110.594705 C91.4862534,111.029485 91.6759146,111.409713 91.6961088,111.884044 C91.7304934,112.601131 92.0383176,112.089978 92.2566327,112.24927 C92.4913214,112.427655 92.9680669,112.863526 92.9178544,113.230389 C92.8515412,113.719175 92.4250082,113.831825 92.2181547,113.461417 C91.7951692,112.683504 91.0490775,112.22363 90.3695719,111.730752 C90.1780005,111.588644 90.2481342,110.701355 90.2298503,110.451506 C90.2009235,110.064459 89.6406725,109.805337 89.3770571,109.584401 C89.1096211,109.370011 88.8656541,109.471751 88.5837547,109.220266 C88.2590111,108.938504 87.9339946,108.646651 87.611707,108.355615 C87.9981246,108.311701 88.9098629,108.231509 88.4011888,107.483328 C87.9580092,106.823793 87.7598883,106.49839 87.0831116,106.168895 C86.6415694,105.952051 86.5280456,105.213143 86.3457525,104.743177 C86.0321975,103.942625 85.7216443,103.146438 85.4138201,102.34725 C85.077342,101.474417 83.9399206,100.713688 83.1095047,100.482387 C82.4278159,100.297183 82.1953104,100.355281 81.8899422,99.6902911 C81.5559201,98.964203 81.222171,98.2378421 80.8884219,97.5155727 C80.4010335,96.4433516 79.428167,95.788454 79.0856853,94.6174937 C78.6414141,93.0984912 78.6733427,92.1143718 78.7492072,90.5050856 C78.8097896,89.1655594 78.8818336,87.8312156 78.9522402,86.4946898 C79.0185534,85.2001691 78.713731,84.3870704 78.304936,83.14792 C79.0654911,83.3252143 79.7586414,83.5415133 80.4932716,83.817274 C80.5221983,82.7275963 80.569409,82.5961258 79.8661616,81.8375792 C79.3348373,81.2672373 78.847449,80.8807358 78.2162455,80.4361364 C77.6685476,80.0477256 77.0818259,80.0477256 76.4869174,79.7880578 C75.5148696,79.3611878 75.369963,79.3276383 74.9311497,78.2996044 C74.4320269,77.1114602 72.6642207,76.4909304 72.7804735,75.1669515 C72.884446,73.957532 72.7976658,74.0519071 71.8286198,73.4395601 C71.6919,73.352004 71.1076344,74.639433 70.6980207,74.0104476 C70.3931983,73.5380266 69.9000792,72.3356989 69.4241524,72.107944 C68.7451926,71.7830864 68.6021962,71.6224305 68.17348,70.9658963 C67.7491301,70.3374564 67.3569817,69.4654415 66.8322069,68.940105 C66.3963954,68.499597 65.7493642,68.1938326 65.2526974,67.849609 C64.0388657,67.0116892 62.9737611,66.5728177 61.6065631,66.0747573 C61.0697809,65.8742784 60.4162002,66.3306065 59.8731415,66.2043185 C59.3066139,66.0720297 58.6366596,65.4474084 58.1339892,65.1378254 C57.437837,64.7095916 57.2424451,64.5549365 56.4619687,64.6296728 C55.7685455,64.6970446 55.4225162,64.8822489 55.6869503,65.7616284 C55.9041737,66.5035366 53.0688069,67.271357 52.4449717,67.480837 C52.3082519,67.1600708 52.4583435,66.9320431 52.7697153,66.8425777 C52.2910595,66.6958326 52.6534625,65.3110282 52.9582849,65.1443716 C53.6639884,64.7638709 54.0149298,64.7379587 54.8101424,64.7526877 C54.6283951,64.5901226 54.4447376,64.4221022 54.2618987,64.2557183 C54.4736643,64.1067912 54.6794263,63.9472264 54.8887358,63.7955716 C53.6326056,64.0369645 53.1094681,64.3069973 52.0522774,65.1089128 C51.138356,65.79736 50.7718596,66.5728177 50.17968,67.6202175 C50.470312,67.6933173 50.7603981,67.7623257 51.0507571,67.8346072 C50.17968,68.993566 49.3096945,69.6536461 48.1654507,70.4951119 C47.5961942,70.9107987 45.7907287,71.3687633 45.7203221,72.2181391 C45.6540089,72.984323 43.3082136,73.4174665 42.6409882,73.6108536 C42.3678215,73.6926817 42.0916529,73.7030466 41.8072976,73.7376872 C41.4593579,73.7769647 41.6337371,73.9627145 41.3720319,74.1356446 C40.8057772,74.5112356 40.4114457,74.6217035 39.798799,74.4719581 C40.3585043,73.929165 40.940041,73.7886934 41.574792,73.3934636 C42.0572683,73.0950637 43.4678565,71.7418995 43.8984829,72.4870809 C44.1992119,71.9464698 45.3262634,70.6991366 45.9386371,71.1298253 C45.7320565,70.5491184 46.7867911,70.1778916 46.9049542,69.5325405 C47.0037417,68.993566 47.0127472,68.8637321 47.3666905,68.5072343 C47.5991961,68.275388 47.8259708,68.1553734 47.5907363,67.7988756 C46.8271794,68.2197448 46.0022214,68.9000092 45.2184704,68.3244848 C44.9483055,68.1286429 44.4322632,67.541117 44.1102485,67.6807703 C43.7120965,67.8567008 43.3109425,68.0285398 42.9168839,68.2055613 C42.7744333,67.3962813 42.6352574,66.5870013 42.4988105,65.7777212 C42.3015083,65.889553 41.2620557,66.646463 41.1160575,66.5343585 C40.7274567,66.2160471 39.9786361,65.8355464 39.7172038,65.3879467 C39.4325755,64.9062518 39.4009198,63.9644103 39.2786634,63.4063425 C39.1749638,62.9382857 39.5491012,62.5768783 39.7816067,62.1884675 C40.2335189,61.4160101 40.1789401,61.2141674 41.0066271,61.2932679 C41.6940466,61.3611853 41.7966547,60.8047541 42.3997501,60.5570877 C43.0102135,60.3061482 43.4915982,60.7856609 43.785232,60.0407523 C44.0169189,59.4488623 43.6719811,59.3403037 43.2648235,58.8897035 C43.4503913,58.7819632 43.6340488,58.6810419 43.8138858,58.5743925 C43.5554554,57.7962072 42.9340762,58.4898368 42.4900779,58.7432312 C41.9235503,59.0702709 41.8362243,58.6810419 41.2710612,58.7522323 C40.1440097,58.9003412 38.8747806,59.1305509 38.2550387,57.8998561 C38.3961248,57.8594876 38.5268409,57.7124698 38.6720204,57.6857393 C38.1153171,57.4961708 37.38287,57.4127061 37,56.8715495 C37.8126778,56.4449523 38.3854819,56.0598147 39.2816652,56.0598147 C39.2210828,55.9777138 39.1547696,55.8931581 39.0903667,55.8116027 C39.7816067,55.4166457 40.1729365,55.3301807 40.9539586,55.2799928 C40.9190282,56.1787382 41.6045375,56.041267 42.2957775,56.2237437 C42.8988729,56.3778533 43.0926275,56.1086388 43.6187668,55.739594 C43.3747997,55.6310354 43.1283766,55.5268409 42.8852282,55.4223737 C42.9774663,55.3899152 43.0735249,55.3492739 43.1717667,55.3119057 C42.9043307,55.096425 42.8180963,54.8484859 43.1081824,54.6420063 C42.4573307,54.5759982 41.9235503,54.4958067 41.3027169,54.2797805 C40.8027754,54.1114873 40.8057772,53.315027 40.315387,53.0861811 C39.9843668,52.9285256 38.5565864,52.53766 38.4174105,52.1991644 C38.3500057,52.0475096 38.6665626,51.3688818 38.7189582,51.1951334 C38.7568904,51.0691181 39.0761762,51.111396 39.1806945,51.105668 C39.711473,51.0691181 40.5276984,51.2385023 40.8729091,50.7442605 C41.2680594,50.1878294 41.6220027,49.5863928 42.1178507,49.1338833 C42.9632758,48.3668811 44.1301698,47.8805494 45.224474,47.6977999 C45.9386371,47.5750578 46.525086,47.5750578 47.105804,47.114911 C47.9070203,46.4733786 47.8578994,46.4586496 48.740438,46.9258881 C49.5211872,47.3404838 51.7422701,46.7725967 52.0844789,47.7288946 C52.3344497,48.4337074 54.6474977,48.3696087 55.4148751,48.4705301 C56.5694889,48.6175479 57.7279232,48.7525643 58.8768062,48.9614987 C60.5758431,49.2585348 62.2737885,49.5623898 63.9747356,49.8594259 C65.0927816,50.0593592 66.1464247,50.7060741 67.1946099,51.1757674 C67.3774487,51.2554135 68.5645368,49.8130566 68.7566541,49.6267613 C69.070482,49.3008126 69.6828557,50.2552012 70.0482606,50.0918177 C70.6519017,49.8275129 73.357371,48.1781309 73.7555231,48.8207544 C72.769012,49.343636 71.784411,49.8594259 70.7978999,50.3812165 C71.5603652,50.908735 74.0718071,48.711923 74.2890305,49.6469456 C74.5862119,49.3019037 74.8754794,48.9614987 75.1715692,48.612911 C75.4100784,48.3344226 74.8176259,48.2545039 75.2534373,47.902643 C76.0052598,48.779022 76.7600841,49.5893931 77.5866795,50.3812165 C77.8513865,49.5402962 77.9531759,49.2536251 78.5712804,48.7053767 C78.9462365,49.0992427 78.289654,49.2732638 78.801057,49.5692088 C78.9893537,49.6796768 78.6820753,50.0841804 78.5944764,50.2658388 C78.9203116,50.1801921 79.5329582,50.1698272 79.7971195,49.9573469 C79.8953612,49.8757915 79.674863,49.4778341 79.8607037,49.4557405 C80.0405407,49.4230093 80.2288375,49.4000974 80.4154969,49.3720031 C81.0739897,49.2806284 81.9453396,49.9060679 82.5517097,50.1698272 C83.8053839,50.710711 85.2369849,50.908735 86.5496042,51.2554135 C86.519313,51.1615839 86.4879302,51.0691181 86.4617324,50.9711972 C87.3011538,51.0036556 87.7366923,51.3980671 88.4625899,51.8871265 C89.002101,52.2599899 87.3532765,52.8297863 87.2321116,52.8835201 C87.7860861,53.0564502 88.3752639,53.3553956 88.9521614,53.3109356 C89.9078356,53.2331989 90.857779,53.1603719 91.8126345,53.0831807 C92.2566327,53.0515405 93.0316512,52.9170697 93.3392025,53.3892179 C93.77747,54.0383876 94.2132814,54.6853752 94.6488199,55.337818 C94.5814152,55.0563293 94.515102,54.7710219 94.4515177,54.4873511 C94.4075818,54.314421 94.5855086,54.1548562 94.5620397,53.9933821 C94.4572485,53.315027 94.1641605,53.4852295 94.5314756,52.8297863 C94.7879958,52.3849142 96.733183,52.3322714 96.2965528,51.6552802 C95.3545234,52.0376902 94.6602815,52.3437274 93.6623088,52.3197244 C93.887992,51.4591655 94.2364774,51.5494492 95.0112229,51.2881447 C95.8187158,51.0241127 95.9265088,50.9444666 96.6668698,51.3653359 C96.8783625,51.4823501 97.0090786,51.9752281 97.1226024,52.1915271 C97.2696922,52.4866538 97.4907362,52.4451942 97.7898278,52.5161119 C98.4082052,52.6516738 98.9559031,52.8371509 99.5491743,53.0640875 C100.042293,53.2495646 102.756495,53.5610569 102.870019,53.1824655 C103.102798,52.4040074 103.137455,52.0341443 103.993796,52.0376902 C104.522118,52.0376902 105.142679,52.327089 105.665816,52.4615598 C105.592954,52.7193184 105.255384,53.4977765 105.339981,53.7328959 C105.424578,53.9740161 106.179403,54.2991465 106.391987,54.4412546 C106.115,53.5583293 105.792985,52.7883268 106.867641,52.6192153 C107.313822,52.5461156 107.573617,52.1443395 107.901363,51.8208457 C108.132777,51.5947274 107.970678,51.2930544 107.915007,50.9711972 C107.633927,51.105668 107.355302,51.2385023 107.080225,51.3718821 C106.977344,50.501231 107.605273,50.3667602 108.214645,50.3130264 C108.185991,49.631671 107.544418,50.1139113 107.129346,49.9573469 C106.801328,49.8275129 105.665816,49.613396 105.523639,49.2607169 C105.219089,48.5237183 105.238192,48.048297 105.247743,47.2313797 C105.262206,46.4450115 105.624609,46.3391805 106.220882,46.5805734 C106.324309,46.2038914 106.068608,46.0672384 105.750686,46.1070614 C106.336044,45.7311976 106.417639,45.7800218 106.397718,45.0457508 C106.373703,44.3851252 106.362241,44.1309125 106.068608,43.5698445 C105.848655,43.1459748 106.008025,42.5292636 106.037225,42.0494781 C106.06124,41.6733416 106.679344,41.8765481 106.968884,41.881185 C105.906236,40.711043 107.776377,41.0419013 108.502275,41.046811 C109.51553,41.0530845 110.217413,41.1231839 111.190552,41.4316759 C110.783667,42.0235659 110.228874,43.3044486 109.648156,43.6563095 C109.132114,43.9645287 107.862885,43.7086795 107.313822,43.6994056 C109.065528,43.9582552 107.051298,45.0964843 107.161002,45.6600072 C108.052273,45.4998968 108.557126,46.2846284 108.72059,47.1263669 C108.824562,47.6697056 109.701097,48.3216029 110.054768,48.7525643 C109.6165,49.0444179 109.183964,49.3376353 108.752246,49.6278523 C109.183964,49.7939634 109.530266,50.0825439 109.927326,49.8043283 C110.339396,49.5190209 110.681878,49.8678815 111.105682,50.0754521 C110.899101,50.2170147 110.691156,50.3599412 110.485667,50.501231 C110.899101,50.8558195 111.122874,50.8672755 110.983971,51.4316167 C110.84807,51.9820471 110.756924,52.1129721 111.254136,52.434011 C111.547224,51.9995038 111.721057,51.7870234 111.77127,51.2554135 C111.788462,51.0549346 111.962568,50.2309255 112.324971,50.4532252 C112.556658,50.5983337 113.35651,50.901916 113.413272,51.1883144 C113.519428,51.6667361 113.822886,52.2212579 113.227431,52.413554 C113.231798,52.2965398 113.164393,52.1713428 113.167122,52.0570562 C111.953836,52.7315926 114.659305,55.1610692 114.77856,53.8447277 C114.810488,53.4735008 114.761095,53.2525649 115.025529,53.0209914 C115.152697,52.9015223 115.562038,52.6576745 115.562038,52.458014 C115.562038,51.4766221 115.576774,51.5273556 116.401459,51.1615839 C116.069621,50.6433392 115.761796,50.3923997 115.885417,49.7814164 C116.009311,49.1529765 116.348791,49.3193603 116.891577,49.4123716 C117.248522,49.4729244 118.227392,49.4344652 118.476271,49.7255005 C118.946467,50.2560195 119.098469,50.3542132 119.762693,50.501231 C119.481066,51.0145661 119.931068,51.3448789 119.631976,51.7035588 C119.440678,51.9294044 118.796648,51.8445759 118.52048,51.8696698 C118.767449,52.4040074 118.935551,52.8835201 119.344346,53.2612933 C119.78316,53.6715249 119.98592,53.998019 119.506991,54.6057291 C119.193709,55.0053231 118.424421,55.2696279 118.003346,55.5268409 C117.592095,55.7826901 117.301463,55.2379877 116.966623,54.925677 C117.136362,55.3080871 117.301463,55.6885878 117.472568,56.0693613 C117.208134,55.9327083 116.949703,55.7944188 116.689089,55.6596752 C116.71747,55.7663245 116.752401,55.8699735 116.786785,55.9777138 C116.516893,55.9185248 116.256553,55.8508802 115.988844,55.7903274 C115.812282,55.7491406 115.954459,55.2870845 115.773531,55.2947218 C115.368011,55.3080871 114.807487,55.1417033 114.600906,55.6078507 C114.847875,55.7586872 115.097846,55.9027047 115.346998,56.0461767 C115.077924,56.4525896 114.856335,56.941649 114.446994,57.172677 C113.85154,57.5046264 113.637318,57.226138 113.030948,56.9023715 C112.078821,56.4062203 111.242402,56.4476799 110.182755,56.4026745 C110.911654,56.7706282 111.646012,57.1404913 112.37764,57.5098088 C112.91142,57.7776595 113.799963,57.6857393 114.383682,57.7642942 C114.150631,58.1603423 113.759574,59.2481107 113.370155,59.4297691 C113.144199,59.5383277 112.836647,59.7699013 112.589406,59.756536 C112.281854,59.723532 111.985492,59.6152461 111.721057,59.8023597 C110.911654,60.3732472 110.84998,60.4136157 109.930055,60.1283084 C109.352885,59.95456 108.766709,59.8140884 108.185991,59.6537053 C108.57159,59.8323634 108.958008,60.0052935 109.343606,60.1853153 C109.261738,60.2578696 109.207978,60.3658827 109.11765,60.4359821 C109.730024,60.2897825 109.831814,60.3001474 110.385515,60.6050935 C110.676147,60.7703863 111.128878,61.1986201 110.641762,61.4266478 C110.124083,61.668859 109.880934,61.6737687 109.308949,61.642674 C109.123381,61.6287632 108.827018,62.2904799 108.728231,62.4377705 C108.263766,63.16795 107.527498,63.9521361 107.340839,64.83888 C107.131256,65.8404561 106.925494,66.8472146 106.711,67.8520639 C107.111881,67.9453479 107.993874,67.9524397 108.295421,68.2284732 C108.62917,68.5309644 108.827018,69.7076527 108.992665,70.1517066 C109.283024,70.9631687 109.466409,70.6694057 110.247158,70.4951119 C110.655953,70.4023733 111.121237,70.6882262 111.506836,70.8259702 C112.699109,71.2506581 113.507693,71.6379778 114.557243,72.379886 C114.883351,72.61446 115.512917,73.291724 115.90834,73.3282739 C116.490969,73.3934636 117.077417,73.4561985 117.655407,73.515933 C117.861168,73.5380266 118.976486,73.5235703 118.967753,73.7616901 C118.935551,74.5720612 118.897619,75.3791591 118.865691,76.1873481 C118.819844,77.3116663 119.945531,78.1667701 120.596383,78.9825964 C121.228951,79.7744197 122.59342,78.302332 122.482625,77.6185218 C122.366373,76.9003437 122.244935,76.1808018 122.126226,75.4568958 C122.061277,75.0744858 121.559698,74.5660604 121.348206,74.2390207 C122.055819,73.7769647 123.426565,73.2658117 123.919957,72.5593624 C124.368322,71.9241035 124.479935,70.1937117 123.914226,69.6460088 C123.530538,69.2720544 123.136479,68.9278308 122.820468,68.480231 C122.373195,67.8520639 122.228015,67.9041611 122.787721,67.3875529 C123.408554,66.8311218 123.455765,66.9080402 123.225988,66.0834856 C123.103732,65.6386134 122.822105,65.1031848 122.965375,64.648766 C123.222986,63.8272118 123.24318,63.6780119 122.994028,62.8632766 C122.837387,62.3502144 123.159675,62.1781026 123.684723,62.1096397 C124.645855,61.9918073 125.530304,62.8256357 126.471787,62.3845822 C127.069698,62.1069121 127.226339,62.4192228 127.778403,62.8133615 C128.039016,63.0037482 128.788656,63.3294241 128.875436,63.680194 C129.008881,64.2058032 129.307973,64.6152165 129.894422,64.5276604 C130.367619,64.4602886 130.686905,64.686407 131.122444,64.8997056 C130.869471,65.3271211 130.72129,65.4474084 130.803158,65.9318308 C130.880933,66.3832493 131.02311,66.8158472 130.841636,67.2596283 C130.968532,67.2331706 131.104979,67.2942689 131.229964,67.2596283 C130.997458,67.5509364 130.334872,68.0209025 130.692363,68.3473967 C131.307739,66.5152653 133.514358,70.5128413 133.970091,68.0419051 C134.068878,68.1526458 134.257721,68.16492 134.35951,68.275388 C134.606479,67.7497787 135.00354,67.2427172 134.897111,66.6505544 C134.819882,66.2384135 135.421613,65.4223145 135.83723,65.5155985 C135.784289,65.7346251 135.735441,65.9544699 135.689322,66.1756786 C136.643904,66.2217751 137.283295,68.177467 137.739027,68.9654717 C137.991727,69.4035249 138.763198,70.2801767 138.794854,70.780692 C138.811773,71.0526341 138.330388,71.4377717 138.385786,71.7001672 C138.411711,71.8237276 138.88791,72.1030343 138.974145,72.1777706 C139.189731,72.3490641 139.610806,72.5650903 139.758987,72.805665 C139.933094,73.0969731 139.649557,73.411193 140.037885,73.4341049 C140.772515,73.4752917 141.080066,73.4878387 141.69244,73.8999796 C142.109695,74.1891056 142.937382,74.5837899 142.028918,74.7226249 C141.514513,74.8006344 141.015391,75.0043864 140.516268,75.1636784 C140.821636,75.276874 141.224973,75.0553925 141.552991,74.954744 C141.329218,75.3606114 140.608779,75.3971613 140.203259,75.5223583 C139.8092,75.6453732 139.938824,76.4284683 140.147315,76.1516165 C140.328244,75.9126784 140.461689,75.8815837 140.737858,75.7762982 C140.978277,75.6884694 140.885766,75.5518164 141.026852,75.4743525 C141.381887,75.2714188 141.805964,75.1734978 142.203025,75.1443124 C141.961786,75.1132177 141.903933,75.0390269 141.771306,74.9083747 C142.057845,74.8969188 142.62983,74.9351052 142.752087,75.276874 C142.917188,75.7231099 142.414517,75.691197 142.690686,76.0356933 C143.01925,75.4263466 143.4144,75.7468401 143.930715,75.915406 C144.345241,76.0526045 144.023226,76.8397909 143.942177,77.0760014 C143.772983,77.5358754 144.297212,77.691076 143.950909,78.2177763 C143.869498,78.3385827 143.617336,78.5139232 143.363571,78.6595222 C143.327087,78.7467128 143.290647,78.8342195 143.254627,78.9223283 C142.849907,79.3399096 142.677832,79.3964009 142.685688,80.047612 C142.688476,80.2466089 142.998161,80.3067906 143.132983,80.3805983 C143.305312,80.465761 143.254627,80.9259237 143.275662,81.1436565 C143.581292,81.0477064 144.623884,80.6218927 144.87224,80.9423885 C145.19257,81.361957 145.260741,81.3761508 145.190035,81.9328312 C145.163426,82.1238796 145.68016,82.2638304 145.748331,82.5945457 C145.850715,83.0981414 146.165976,84.1873729 145.888475,84.6529292 C145.640118,85.0719299 145.572961,85.0622781 145.158104,84.8823009 C144.653788,84.6631488 144.734884,84.6560519 144.840055,84.0170474 C144.068882,84.0769452 143.915053,84.6492388 143.176572,84.8189966 C143.139319,84.4598937 143.335723,84.2537998 143.61069,84.1402495 C142.831154,83.6678802 141.968748,83.6539703 141.127377,83.7643979 C140.871417,83.7978953 140.232025,83.8912904 140.049052,83.5679559 C139.947176,83.3749203 140.01408,82.4685049 140.157012,82.3027214 C140.962397,81.3704732 141.353685,80.808683 141.808837,79.5777975 C141.876693,79.3956564 141.977001,79.1893172 142.100725,78.9873278 Z M104.738035,43.2516378 C104.826873,43.4636171 104.9125,43.6729533 105,43.8820252 C104.832492,43.9129498 104.65883,44.0046666 104.496674,44.0667802 C105.609021,44.4537349 103.913341,45.5786526 103.298433,45.3109031 C103.451224,45.7708084 102.850765,46.0639319 102.486851,45.988074 C102.042929,45.8873706 101.809328,45.4049987 101.513112,45.0381318 C100.864221,44.231976 99.9480132,44.0229042 99.1618513,43.4004462 C98.7385333,43.0639753 99.2410562,42.7621295 99.5803528,42.6505892 C99.8961019,42.543278 100.269649,43.2656464 100.576836,43.3211522 C101.257302,43.4419434 101.240444,42.8348156 101.240444,42.3540297 C101.240444,42.1280417 100.283831,41.8769441 100.073243,41.7870775 C100.248778,41.6187099 100.559978,41.1054134 100.778327,41.0948408 C101.297172,41.0710526 101.555123,40.8976631 102.042929,41.1289373 C102.54893,41.3739557 102.729014,41.2415348 103.266591,41.0618017 C103.763227,40.8934341 103.966858,41.0964267 104.437538,41.3425025 C104.226147,41.4699015 104.018769,41.5967719 103.816208,41.7207349 C103.955619,41.7759764 104.066934,41.9390577 104.214908,41.9932419 C103.79721,42.2691851 103.380581,42.543278 102.959136,42.8189568 C103.784901,42.8348156 103.970872,42.6762276 104.328096,43.4773614 C104.437538,43.3692573 104.633142,43.3629137 104.738035,43.2516378 Z M124.194407,53.5153859 C123.392007,52.7813184 125.287212,51.3374006 126,52.3464505 C125.787396,52.9143828 126.062395,53.1812927 125.716015,53.7546934 C125.377594,54.3080433 124.49842,53.7906286 124.194407,53.5153859 Z M128.793303,46.2001968 C128.579164,46.3323672 127.65508,46.7441502 127.740359,47.0012716 C127.94858,47.5902074 128.627587,47.1181702 128.821551,46.6577951 C129.065283,46.0846865 131.05361,47.4288818 131.452029,47.6393548 C131.286043,48.2124635 130.524986,48.2182945 130.078412,48.3651814 C130.430291,48.4257132 130.828171,48.3357485 130.693392,48.8824786 C131.062488,48.6889434 131.57524,48.5831515 131.66025,48.0544699 C131.998678,48.2885448 132.539139,48.5370585 132.531606,49.0643518 C131.884075,49.0157597 131.704101,49.0760139 131.140235,49.4403155 C131.460368,49.5663772 131.766782,49.7563027 132.107631,49.6966039 C132.728529,49.5827597 132.679029,49.5586025 132.914153,50.2363923 C132.510354,50.1522586 132.109783,50.0672919 131.70975,49.9828806 C131.749296,50.2608272 131.793146,50.5368301 131.83592,50.8125553 C131.548607,50.8467086 131.266136,50.8850269 130.979899,50.9202909 C131.987379,51.3906621 133.005351,51.7930043 134.038388,52.1981233 C134.537151,52.3866605 134.696949,52.5529842 135.074384,52.9861477 C135.515039,53.4851188 135.801545,53.4579072 136.4289,53.5509263 C136.291162,53.7688964 136.153962,53.9871442 136.019183,54.200394 C136.440199,54.1926192 137.18404,53.9921423 137.572774,54.164297 C138.211696,54.4508513 137.966081,54.8695761 137.888603,55.5720785 C137.578154,55.5190437 137.083695,55.2921882 136.872245,55.5720785 C137.118668,55.6895324 137.358634,55.8136504 137.601828,55.9338811 C136.872245,56.328171 136.589236,56.7185735 135.89355,56.2207131 C135.94843,56.7724412 136.096929,57.3730391 135.924488,57.9147712 C135.072501,57.5060426 134.717125,57.1714515 134.086811,56.3978659 C134.453755,56.2223791 135.011702,56.1676783 134.845986,55.5720785 C134.611939,55.6589888 134.100262,55.9877489 133.865139,55.9338811 C133.536127,55.8547454 133.246124,55.2422078 132.945628,55.070053 C132.596978,54.8695761 132.350556,54.8254267 132.136147,55.1541867 C131.820586,55.6470491 132.379072,55.6101191 132.405436,56.1451871 C132.14072,56.1107562 131.878426,56.0757699 131.612365,56.0396729 C131.698451,56.3181749 131.780771,56.5936225 131.870086,56.8679594 C132.26716,56.7113541 132.359703,56.5130985 132.510354,56.9826366 C132.631144,57.3758158 132.757045,57.768162 132.882947,58.169116 C133.002392,57.5499142 133.298314,57.8289715 133.658262,57.9980719 C134.107526,58.209378 134.056412,58.3357173 134.162675,58.8882785 C134.256294,59.3489312 134.646104,59.1945473 134.845986,59.5346918 C135.007129,59.8118053 134.960858,60.501535 135.007129,60.835293 C134.845986,60.6189889 134.688609,60.4018518 134.528273,60.1855477 C134.242305,60.7011789 134.971887,60.8439008 134.752098,61.3770251 C134.646104,61.3223243 134.502985,61.3348194 134.402641,61.2695672 C134.476352,61.4719879 134.55114,61.6752415 134.626197,61.8798835 C134.422279,61.9504114 133.887737,61.2223635 133.572176,61.0171662 C132.994859,60.6434238 132.416735,60.2685707 131.83592,59.8937177 C131.912591,60.050323 131.917972,60.2491339 131.995718,60.4018518 C131.655677,60.2471902 131.320209,60.0878083 130.979899,59.9331467 C131.1744,60.2763455 131.362714,60.6245423 131.552642,60.9682964 C131.692533,61.2156995 132.219543,61.1687734 132.439602,61.3264894 C132.790942,61.5805564 133.140668,61.8407322 133.492546,62.100908 C133.838506,62.3510877 133.701037,62.5304618 133.644273,63 C132.693556,62.7445446 131.746875,62.4971416 130.802883,62.2450182 C130.455848,62.1567195 130.475755,61.7099502 130.269955,61.6519173 C129.789485,61.5216906 129.307939,61.3956289 128.82451,61.2695672 C128.87939,61.1854335 128.930773,61.1024105 128.984846,61.0118905 C128.489849,61.0260516 128.206571,60.8086368 127.780174,60.547628 C128.029286,60.4115702 128.288891,60.2793998 128.541232,60.1480624 C128.106226,59.9009371 127.60289,59.9478631 127.333601,59.5213636 C126.844522,58.7416693 126.859049,58.2682438 126.100682,58.7799876 C126.103641,58.4412315 125.919631,58.2682438 125.621826,58.3121155 C125.642809,58.4587247 125.545155,58.6292134 125.559413,58.7799876 C125.127098,58.6730851 124.660886,58.3865307 124.305242,58.7277858 C123.936684,59.0848681 123.35856,58.9665811 122.88078,58.9937927 C122.56253,59.0096198 122.064842,58.3865307 122.228945,58.0822056 C122.451424,57.6707002 123.079048,57.5440832 122.992693,57.0512209 C123.692952,57.1411856 124.500819,57.4177438 125.18413,57.2183775 C125.355765,57.1664535 126.415166,57.0004074 126.480538,56.8338061 C126.615317,56.4592307 125.868248,56.0757699 125.688274,55.9338811 C126.275276,55.3232871 126.859049,54.7179688 127.445513,54.1093185 C127.60289,53.9499366 127.86357,53.8302613 127.746008,53.6075708 C127.494744,53.1388656 127.248321,52.6676615 127.004858,52.1981233 C126.626616,51.4867355 125.845651,51.6802707 125.490275,51.0407992 C125.215337,50.5446048 125.256228,50.5906979 124.778448,50.7831224 C124.414464,50.9269549 124.054246,51.0641234 123.692952,51.2079559 C123.692952,50.2708233 123.850329,50.4046597 124.64071,50.1650314 C124.214313,49.8040618 123.289422,48.5564953 122.771827,49.1182195 C122.729322,48.8697058 122.677132,48.6223028 122.627901,48.3748998 C122.589163,48.1469336 122.193703,48.3993347 122.042783,48.3257524 C121.60993,48.115557 121.665079,47.2009156 121.063012,47.7840203 C121.547248,47.9236878 121.60993,48.1713685 121.825146,48.6525687 C120.683155,48.9355134 119.978861,48.6586775 118.842251,48.3257524 C119.125529,48.6025883 119.411767,48.8794243 119.698004,49.1562602 C119.317071,49.30398 119.220493,48.7966789 118.874533,48.7572499 C118.754281,48.7444772 118.657434,49.1223846 118.51324,49.0643518 C118.275426,48.9724433 118.049987,48.8794243 117.821589,48.7886265 C117.157109,48.5212313 116.207468,48.685889 115.491875,48.6525687 C115.254061,48.643961 114.615139,48.5315051 114.438931,48.3651814 C114.020066,47.9658935 114.580973,47.7462574 113.805657,47.8209503 C113.465347,47.8573249 113.267348,48.1938597 112.850098,47.9417363 C112.326316,47.6324131 111.736893,47.2009156 111.456305,46.5944866 C112.199876,46.6636262 112.938337,46.7255464 113.676797,46.7938529 C112.941296,45.981949 112.272243,46.0924612 111.253464,45.986947 C111.144511,45.9741742 111.039055,44.842118 111.004082,44.6721846 C110.952968,44.303718 111.396314,43.5517905 111.525443,43.2085917 C111.876783,42.263962 112.343533,41.7647133 113.133914,41.4126291 C114.189549,40.9439239 114.660603,40.9411472 115.80071,41.0794264 C115.731572,41.3645923 115.6662,41.647537 115.594103,41.9271496 C116.341171,41.7969229 117.036857,41.4556677 117.751375,41.1641154 C118.030079,41.0533255 118.516199,41.1913269 118.808355,41.2129851 C119.208387,41.2354763 119.11423,41.7808181 119.335096,42.0898636 C119.574793,42.4297304 119.732169,42.3730859 119.936087,42.8112475 C120.225014,43.4196201 120.150496,43.4393346 119.838432,44.0366005 C119.569412,44.5400142 119.978861,44.5366822 120.264829,44.2415201 C120.779734,43.7108948 120.73131,43.740883 121.34064,44.1199011 C121.513082,44.2259707 122.00781,43.5778914 122.159807,43.4293385 C122.373947,43.2144228 123.005875,43.2721779 123.293188,43.2310829 C123.844679,43.1513919 124.832521,43.6003826 125.249502,44.0238277 C125.607568,44.3784109 126.480538,45.8011865 126.838873,45.6698491 C127.438787,45.4482693 128.532623,45.3149882 128.793303,46.2001968 Z M102,50.8179965 C102.227968,50.2910453 102.629551,50.7501555 102.845119,50.2320394 C102.921108,50.2134226 102.988127,50.1941747 103.063325,50.1711403 C102.643536,49.8041677 103.046966,49.4419282 103.291557,49.1516317 C103.614776,48.7524741 103.898153,49.2358808 104.252507,49.5182888 C104.88628,50.0127394 105.424802,50.5478946 106,51.1660367 C105.577309,51.4951446 105.102375,52.0943543 104.602902,51.9873864 C104.133509,51.8842049 103.255145,51.8154173 103.063325,51.143949 C103.035884,51.2304068 103.013456,51.3171802 102.985224,51.4004827 C102.767018,51.3638801 102.623747,51.2193629 102.592348,50.9514698 C102.516887,51.0682195 102.449868,51.0073203 102.37942,51.2136832 C102.264116,51.1382692 102.084697,50.9514698 102,50.8179965 Z M121,60.8622182 C120.756428,61.0443271 120.515532,61.230045 120.272204,61.41493 C119.783356,61.2428148 118.421932,61.0618162 118.53362,60.1426657 C118.031146,60.3655826 118.087842,60.8252967 117.591208,61.0343333 C117.29313,61.1567572 117.021088,61.709469 116.689431,61.9812444 C116.458999,62.1622429 116.381864,60.9757587 116.2602,60.8888683 C116.180144,60.8289056 115.163517,61.1281639 115,61.1489843 C115.155,60.8797073 115.781815,60.3578097 115.85968,60.1426657 C115.926353,59.9627776 115.743126,59.6349259 115.776462,59.4286653 C115.825371,59.1391232 115.861384,58.8429185 115.929759,58.5580957 C116.094493,57.8599188 116.069673,57.3188664 116.614973,57.0459806 C117.145673,56.7789244 117.344959,57.7569273 116.718631,57.8821272 C116.741747,58.000387 116.827642,58.2030387 116.891881,58.29215 C117.205532,57.8013441 117.301647,57.9456988 117.593154,58.3115823 C117.782707,58.5464363 118.149404,58.4620443 118.380079,58.64221 C118.678401,58.8778968 120.249818,59.7667884 119.643686,60.4533058 C120.321843,60.3430966 120.430854,60.3822389 121,60.8622182 Z M126.043264,52.3771435 C125.767065,53 126.899755,52.99118 127,53 C126.877524,51.9080061 126.339596,51.7261471 126.043264,52.3771435 Z M121.393532,64 C121.1348,63.7881952 120.96755,63.74205 121.005308,63.4373754 C121.034703,63.2278875 121.352479,62.9346045 121.673043,63.0129935 C122.441888,63.2033668 121.647195,63.8144536 121.393532,64 Z M118.047438,62.674761 C117.933986,62.4319536 118.028226,62.4549785 118.285245,62.29742 C118.662984,62.0685037 118.959464,62.0551835 119.431184,62 C119.618886,62.0064698 119.808924,62.0097047 120,62.0150327 C119.882135,62.7109157 119.016839,62.9508688 118.263178,62.9997728 C118.141418,63.0087163 118.085601,62.7510665 118.047438,62.674761 Z M96,41.753715 C96.2335178,40.8741711 96.8950748,41.1494218 97.440565,41 C97.7504607,41.2768235 97.9853631,41.3230657 97.9999002,41.8484013 C98.0054382,42.2098447 97.7795351,42.7936908 97.541633,42.9434271 C97.1973558,43.1485282 97.0452923,42.7549984 96.7755469,42.4180915 C96.458498,42.0362009 96.4169632,41.9292463 96,41.753715 Z M121.600263,42.6249714 C121.384512,42.3345579 121.703644,42.2177435 121.316143,42.0300061 C120.835198,41.8030988 120.920836,41.0936369 121.451934,41 C121.772012,41.1156555 122.090908,41.2299204 122.410276,41.3439534 C122.677836,41.4422258 123.03955,41.2489259 123.288894,41.3775607 C124.058927,41.7801531 124.451632,42.0188809 125,42.7257933 C124.589789,42.7070196 124.074068,42.5827884 123.671427,42.6701674 C123.34709,42.7422493 122.450493,43.1237502 122.169212,42.9591903 C122.016152,42.8697253 121.710977,42.7691352 121.600263,42.6249714 Z M123,118.331526 C123.401158,117.648385 124.271299,118.202224 124.767852,118.392576 C124.862145,118.50779 124.923353,118.665895 125,118.797702 C124.591949,118.643667 124.316239,119.062881 124.099531,118.991812 C123.662255,118.848108 123.383513,118.639597 123,118.331526 Z M133.038025,118.660269 C132.819776,117.632282 133.599317,118.100125 133.895166,118.144162 C133.929302,118.206869 133.966796,118.276975 134,118.354832 C133.847785,118.80189 133.191173,119.378943 133.038025,118.660269 Z M125.859467,115.969687 C125.132267,115.916239 124.412533,116.068851 123.7032,115.959453 C123.7944,115.877347 124.276267,115.568028 124.276267,115.457947 C124.282133,115.122245 123.714667,115.248247 123.564533,115.188657 C122.988533,114.960307 122.9744,114.434237 122.449067,114.372829 C121.888,114.306643 121.394933,113.98618 120.8688,113.970486 C120.548533,113.962981 120.520267,113.762606 120.219733,113.842892 C119.976267,113.911352 119.6928,113.805137 119.524267,113.626369 C119.752,113.67163 119.862667,113.605217 120.016,113.544036 C119.0624,112.722294 117.962133,114.571157 117,114.13811 C117.487467,113.879965 117.649333,113.381416 118.251467,113.253139 C119.0032,113.093476 119.590133,112.951781 120.355733,113.015692 C121.635467,113.122361 122.849333,113.701197 123.958933,114.330752 C123.978667,114.288221 124.004,114.248419 124.027467,114.210891 C124.389867,114.610504 125.030933,114.884569 125.561867,114.845222 C125.686933,114.837262 125.8304,115.185928 126.1,115.226185 C126.474933,115.285319 126.689867,115.471593 127,115.684705 C126.619733,115.784324 126.242133,115.88508 125.859467,115.969687 Z M136.125823,85 C136.205332,85.1527498 136.284593,85.3050997 136.364102,85.4498521 C136.907496,85.4882394 137.455612,85.5234279 138,85.5556173 C137.632271,85.8809103 137.489651,86.1254299 136.963649,85.9306939 C136.434914,85.7339586 135.703928,85.6303927 136.125823,85 Z M135,81.0018562 C135.657377,81.403709 137.165404,82.3635118 138,81.8547588 C137.217813,81.1850808 136.050288,80.9777175 135,81.0018562 Z M39.8709978,66.0945673 C39.732981,66.4047904 39.9412496,66.3810928 39.9773081,66.5956021 C39.9872552,66.6574621 39.9965807,66.7168599 40,66.7799509 C39.7130867,66.8088805 39.4087659,66.7288626 39.3229717,67 C38.8206403,66.8233452 38.3242151,66.7390187 38,66.2407538 C38.7799192,66.325388 39.1401927,65.7901918 39.8709978,66.0945673 Z M51,68.8998561 C51.0588644,68.4705774 51.2611819,68.1951267 51.4757822,68 C51.6482039,68.1201071 51.8261877,68.2386987 52,68.361458 C51.9585168,68.4592108 51.9119351,68.555448 51.8669757,68.6566108 C51.8229432,68.5948522 51.7812283,68.5228637 51.7388181,68.4592108 C51.625956,68.739587 51.2611819,69.2056177 51,68.8998561 Z M71.3346557,75.3822855 C71.2543123,76.154863 71.3848704,76.7144335 71.538862,77.4727726 C71.6934116,77.6145874 71.8476822,77.7549783 72,77.8993561 C71.4760937,78.549483 69.9367353,75.8649685 70.0020144,75.1402321 C70.0137311,75.0169273 71.3876601,74.8093309 71.3346557,75.3822855 Z M50.5869597,69.6159748 C50.5147473,68.7516373 51.9512509,68.8714005 51.7867797,69.515089 C51.8571697,69.5345853 51.9271042,69.5577952 52,69.5803862 C51.9175366,69.8592147 51.7867797,69.9409137 51.5974783,69.8177463 C51.6116019,70.2324303 51.4111383,70.4082067 51.1639759,70.4419385 C50.8965392,70.4871205 50.7272842,70.9766951 50.5147473,70.9977387 C49.7684761,71.0772714 49.8693913,69.028609 50.5869597,69.6159748 Z M79.6204956,82.1208331 C80.1332812,82.8786252 80.2480584,83.2008709 79.1859412,82.871268 C77.5399449,82.1112687 76.233712,81.3726053 75,80.0713608 C75.7626116,79.8621709 76.0050142,80.1586663 76.743357,80.3730063 C77.6818461,80.6393371 77.8368809,80.459576 78.3568045,81.2713211 C78.5301123,81.5442734 78.5752237,81.7318821 78.8910038,81.817471 C79.1002865,81.8792715 79.4957254,81.9317529 79.6204956,82.1208331 Z M127.672397,118.253251 C126.898149,118.11929 126.641483,118.490138 126.017665,117.994513 C125.801227,117.258517 127.636702,118.093638 128.075811,117.729124 C127.621687,116.976343 127.70526,116.715705 126.975772,116.329656 C127.675513,115.965775 127.877503,116.217546 128.606991,116.234331 C128.702461,116.237814 129.160834,116.111454 129.257721,116.039564 C129.495973,115.895469 129.893438,116.184927 130.133673,116.270751 C130.45408,116.392361 130.480993,116.118738 130.667685,116.523155 C130.915286,117.068818 130.942483,117.068818 131.439384,117.183461 C131.644773,117.235715 132.102296,117.540691 131.979346,117.781378 C131.668853,118.360927 131.758942,117.92199 131.31275,117.92199 C130.712729,117.92199 130.342462,118.11929 129.812415,118.138925 C129.709578,118.141775 129.631672,117.811147 129.333361,118.046134 C129.1648,118.178512 129.1648,118.905956 128.976975,118.978162 C128.564496,119.140309 128.627671,118.349209 128.473841,118.260535 C128.269302,118.145259 127.902434,118.294105 127.672397,118.253251 Z" id="合并形状" fill="url(#linearGradient-6)"></path>
                <path d="M25.924,40.456 L24.652,49 L23.5,49 L22.564,43.456 L22.54,43.456 L21.616,49 L20.464,49 L19.192,40.456 L20.488,40.456 L21.1,45.88 L21.124,45.88 L22.084,40.456 L23.02,40.456 L24.016,46.012 L24.04,46.012 L24.628,40.456 L25.924,40.456 Z M26.476,42.472 C26.476,42.1279983 26.5359994,41.8240013 26.656,41.56 C26.7760006,41.2959987 26.935999,41.0760009 27.136,40.9 C27.328001,40.7319992 27.5459988,40.6040004 27.79,40.516 C28.0340012,40.4279996 28.2799988,40.384 28.528,40.384 C28.7760012,40.384 29.0219988,40.4279996 29.266,40.516 C29.5100012,40.6040004 29.731999,40.7319992 29.932,40.9 C30.124001,41.0760009 30.2799994,41.2959987 30.4,41.56 C30.5200006,41.8240013 30.58,42.1279983 30.58,42.472 L30.58,46.984 C30.58,47.3440018 30.5200006,47.6519987 30.4,47.908 C30.2799994,48.1640013 30.124001,48.3759992 29.932,48.544 C29.731999,48.7200009 29.5100012,48.8519996 29.266,48.94 C29.0219988,49.0280004 28.7760012,49.072 28.528,49.072 C28.2799988,49.072 28.0340012,49.0280004 27.79,48.94 C27.5459988,48.8519996 27.328001,48.7200009 27.136,48.544 C26.935999,48.3759992 26.7760006,48.1640013 26.656,47.908 C26.5359994,47.6519987 26.476,47.3440018 26.476,46.984 L26.476,42.472 Z M27.7,46.984 C27.7,47.2800015 27.7819992,47.4979993 27.946,47.638 C28.1100008,47.7780007 28.3039989,47.848 28.528,47.848 C28.7520011,47.848 28.9459992,47.7780007 29.11,47.638 C29.2740008,47.4979993 29.356,47.2800015 29.356,46.984 L29.356,42.472 C29.356,42.1759985 29.2740008,41.9580007 29.11,41.818 C28.9459992,41.6779993 28.7520011,41.608 28.528,41.608 C28.3039989,41.608 28.1100008,41.6779993 27.946,41.818 C27.7819992,41.9580007 27.7,42.1759985 27.7,42.472 L27.7,46.984 Z M32.884,41.608 L32.884,44.272 L33.58,44.272 C33.7960011,44.272 33.9679994,44.2420003 34.096,44.182 C34.2240006,44.1219997 34.3239996,44.0360006 34.396,43.924 C34.4600003,43.8119994 34.5039999,43.6740008 34.528,43.51 C34.5520001,43.3459992 34.564,43.1560011 34.564,42.94 C34.564,42.7239989 34.5520001,42.5340008 34.528,42.37 C34.5039999,42.2059992 34.4560004,42.0640006 34.384,41.944 C34.2319992,41.7199989 33.9440021,41.608 33.52,41.608 L32.884,41.608 Z M31.66,49 L31.66,40.456 L33.628,40.456 C35.0680072,40.456 35.788,41.2919916 35.788,42.964 C35.788,43.4680025 35.7100008,43.8959982 35.554,44.248 C35.3979992,44.6000018 35.124002,44.8839989 34.732,45.1 L36.052,49 L34.756,49 L33.616,45.352 L32.884,45.352 L32.884,49 L31.66,49 Z M36.772,49 L36.772,40.456 L38.584,40.456 C39.2880035,40.456 39.8219982,40.6479981 40.186,41.032 C40.5500018,41.4160019 40.732,41.9599965 40.732,42.664 L40.732,46.66 C40.732,47.460004 40.5380019,48.0499981 40.15,48.43 C39.7619981,48.8100019 39.2040036,49 38.476,49 L36.772,49 Z M37.996,41.608 L37.996,47.848 L38.56,47.848 C38.9040017,47.848 39.1479993,47.7620009 39.292,47.59 C39.4360007,47.4179991 39.508,47.1480018 39.508,46.78 L39.508,42.664 C39.508,42.3279983 39.4400007,42.0680009 39.304,41.884 C39.1679993,41.6999991 38.9200018,41.608 38.56,41.608 L37.996,41.608 Z M46.588,46.012 L45.988,42.916 L45.964,42.916 L45.364,46.012 L46.588,46.012 Z M43.564,49 L45.472,40.456 L46.492,40.456 L48.4,49 L47.176,49 L46.816,47.164 L45.148,47.164 L44.788,49 L43.564,49 Z M49.144,49 L49.144,41.608 L47.728,41.608 L47.728,40.456 L51.784,40.456 L51.784,41.608 L50.368,41.608 L50.368,49 L49.144,49 Z M52.324,49 L52.324,40.456 L53.548,40.456 L53.548,47.776 L55.972,47.776 L55.972,49 L52.324,49 Z M59.236,46.012 L58.636,42.916 L58.612,42.916 L58.012,46.012 L59.236,46.012 Z M56.212,49 L58.12,40.456 L59.14,40.456 L61.048,49 L59.824,49 L59.464,47.164 L57.796,47.164 L57.436,49 L56.212,49 Z M65.608,42.916 L64.384,42.916 L64.384,42.64 C64.384,42.3599986 64.3180007,42.118001 64.186,41.914 C64.0539993,41.709999 63.8320016,41.608 63.52,41.608 C63.3519992,41.608 63.2160005,41.6399997 63.112,41.704 C63.0079995,41.7680003 62.9240003,41.8479995 62.86,41.944 C62.7959997,42.0480005 62.7520001,42.1659993 62.728,42.298 C62.7039999,42.4300007 62.692,42.5679993 62.692,42.712 C62.692,42.8800008 62.6979999,43.0199994 62.71,43.132 C62.7220001,43.2440006 62.7519998,43.3439996 62.8,43.432 C62.8480002,43.5200004 62.9179995,43.5959997 63.01,43.66 C63.1020005,43.7240003 63.2279992,43.7879997 63.388,43.852 L64.324,44.224 C64.5960014,44.3280005 64.8159992,44.4499993 64.984,44.59 C65.1520008,44.7300007 65.2839995,44.8919991 65.38,45.076 C65.4680004,45.268001 65.5279998,45.4859988 65.56,45.73 C65.5920002,45.9740012 65.608,46.2519984 65.608,46.564 C65.608,46.9240018 65.5720004,47.2579985 65.5,47.566 C65.4279996,47.8740015 65.3120008,48.1359989 65.152,48.352 C64.9839992,48.5760011 64.7640014,48.7519994 64.492,48.88 C64.2199986,49.0080006 63.888002,49.072 63.496,49.072 C63.1999985,49.072 62.9240013,49.0200005 62.668,48.916 C62.4119987,48.8119995 62.1920009,48.6680009 62.008,48.484 C61.8239991,48.2999991 61.6780005,48.0860012 61.57,47.842 C61.4619995,47.5979988 61.408,47.3320014 61.408,47.044 L61.408,46.588 L62.632,46.588 L62.632,46.972 C62.632,47.1960011 62.6979993,47.3979991 62.83,47.578 C62.9620007,47.7580009 63.1839984,47.848 63.496,47.848 C63.704001,47.848 63.8659994,47.8180003 63.982,47.758 C64.0980006,47.6979997 64.1879997,47.6120006 64.252,47.5 C64.3160003,47.3879994 64.3539999,47.2540008 64.366,47.098 C64.3780001,46.9419992 64.384,46.768001 64.384,46.576 C64.384,46.3519989 64.3760001,46.1680007 64.36,46.024 C64.3439999,45.8799993 64.3120002,45.7640004 64.264,45.676 C64.2079997,45.5879996 64.1340005,45.5160003 64.042,45.46 C63.9499995,45.4039997 63.8280008,45.3440003 63.676,45.28 L62.8,44.92 C62.2719974,44.7039989 61.9180009,44.4180018 61.738,44.062 C61.5579991,43.7059982 61.468,43.2600027 61.468,42.724 C61.468,42.4039984 61.5119996,42.1000014 61.6,41.812 C61.6880004,41.5239986 61.8199991,41.276001 61.996,41.068 C62.1640008,40.859999 62.3779987,40.6940006 62.638,40.57 C62.8980013,40.4459994 63.2079982,40.384 63.568,40.384 C63.8720015,40.384 64.1499987,40.4399994 64.402,40.552 C64.6540013,40.6640006 64.8719991,40.8119991 65.056,40.996 C65.4240018,41.3800019 65.608,41.8199975 65.608,42.316 L65.608,42.916 Z M68.68,42.472 C68.68,42.1279983 68.7399994,41.8240013 68.86,41.56 C68.9800006,41.2959987 69.139999,41.0760009 69.34,40.9 C69.532001,40.7319992 69.7499988,40.6040004 69.994,40.516 C70.2380012,40.4279996 70.4839988,40.384 70.732,40.384 C70.9800012,40.384 71.2259988,40.4279996 71.47,40.516 C71.7140012,40.6040004 71.935999,40.7319992 72.136,40.9 C72.328001,41.0760009 72.4839994,41.2959987 72.604,41.56 C72.7240006,41.8240013 72.784,42.1279983 72.784,42.472 L72.784,46.984 C72.784,47.3440018 72.7240006,47.6519987 72.604,47.908 C72.4839994,48.1640013 72.328001,48.3759992 72.136,48.544 C71.935999,48.7200009 71.7140012,48.8519996 71.47,48.94 C71.2259988,49.0280004 70.9800012,49.072 70.732,49.072 C70.4839988,49.072 70.2380012,49.0280004 69.994,48.94 C69.7499988,48.8519996 69.532001,48.7200009 69.34,48.544 C69.139999,48.3759992 68.9800006,48.1640013 68.86,47.908 C68.7399994,47.6519987 68.68,47.3440018 68.68,46.984 L68.68,42.472 Z M69.904,46.984 C69.904,47.2800015 69.9859992,47.4979993 70.15,47.638 C70.3140008,47.7780007 70.5079989,47.848 70.732,47.848 C70.9560011,47.848 71.1499992,47.7780007 71.314,47.638 C71.4780008,47.4979993 71.56,47.2800015 71.56,46.984 L71.56,42.472 C71.56,42.1759985 71.4780008,41.9580007 71.314,41.818 C71.1499992,41.6779993 70.9560011,41.608 70.732,41.608 C70.5079989,41.608 70.3140008,41.6779993 70.15,41.818 C69.9859992,41.9580007 69.904,42.1759985 69.904,42.472 L69.904,46.984 Z M73.864,49 L73.864,40.456 L77.512,40.456 L77.512,41.608 L75.088,41.608 L75.088,44.2 L77.2,44.2 L77.2,45.352 L75.088,45.352 L75.088,49 L73.864,49 Z M80.536,49 L80.536,40.456 L81.76,40.456 L81.76,47.776 L84.184,47.776 L84.184,49 L80.536,49 Z M87.448,46.012 L86.848,42.916 L86.824,42.916 L86.224,46.012 L87.448,46.012 Z M84.424,49 L86.332,40.456 L87.352,40.456 L89.26,49 L88.036,49 L87.676,47.164 L86.008,47.164 L85.648,49 L84.424,49 Z M89.812,49 L89.812,40.456 L90.988,40.456 L92.836,45.604 L92.86,45.604 L92.86,40.456 L94.084,40.456 L94.084,49 L92.932,49 L91.06,43.864 L91.036,43.864 L91.036,49 L89.812,49 Z M95.116,42.472 C95.116,42.1279983 95.1759994,41.8240013 95.296,41.56 C95.4160006,41.2959987 95.575999,41.0760009 95.776,40.9 C95.968001,40.7319992 96.1859988,40.6040004 96.43,40.516 C96.6740012,40.4279996 96.9199988,40.384 97.168,40.384 C97.4160012,40.384 97.6619988,40.4279996 97.906,40.516 C98.1500012,40.6040004 98.371999,40.7319992 98.572,40.9 C98.764001,41.0760009 98.9199994,41.2959987 99.04,41.56 C99.1600006,41.8240013 99.22,42.1279983 99.22,42.472 L99.22,42.904 L97.996,42.904 L97.996,42.472 C97.996,42.1759985 97.9140008,41.9580007 97.75,41.818 C97.5859992,41.6779993 97.3920011,41.608 97.168,41.608 C96.9439989,41.608 96.7500008,41.6779993 96.586,41.818 C96.4219992,41.9580007 96.34,42.1759985 96.34,42.472 L96.34,46.984 C96.34,47.2800015 96.4219992,47.4979993 96.586,47.638 C96.7500008,47.7780007 96.9439989,47.848 97.168,47.848 C97.3920011,47.848 97.5859992,47.7780007 97.75,47.638 C97.9140008,47.4979993 97.996,47.2800015 97.996,46.984 L97.996,45.376 L97.024,45.376 L97.024,44.296 L99.22,44.296 L99.22,46.984 C99.22,47.3440018 99.1600006,47.6519987 99.04,47.908 C98.9199994,48.1640013 98.764001,48.3759992 98.572,48.544 C98.371999,48.7200009 98.1500012,48.8519996 97.906,48.94 C97.6619988,49.0280004 97.4160012,49.072 97.168,49.072 C96.9199988,49.072 96.6740012,49.0280004 96.43,48.94 C96.1859988,48.8519996 95.968001,48.7200009 95.776,48.544 C95.575999,48.3759992 95.4160006,48.1640013 95.296,47.908 C95.1759994,47.6519987 95.116,47.3440018 95.116,46.984 L95.116,42.472 Z M104.26,40.456 L104.26,47.08 C104.26,47.3600014 104.210001,47.6179988 104.11,47.854 C104.009999,48.0900012 103.868001,48.2999991 103.684,48.484 C103.499999,48.6680009 103.288001,48.8119995 103.048,48.916 C102.807999,49.0200005 102.552001,49.072 102.28,49.072 C102.007999,49.072 101.754001,49.0200005 101.518,48.916 C101.281999,48.8119995 101.072001,48.6680009 100.888,48.484 C100.703999,48.2999991 100.560001,48.0900012 100.456,47.854 C100.351999,47.6179988 100.3,47.3600014 100.3,47.08 L100.3,40.456 L101.524,40.456 L101.524,46.96 C101.524,47.2640015 101.595999,47.4879993 101.74,47.632 C101.884001,47.7760007 102.063999,47.848 102.28,47.848 C102.496001,47.848 102.675999,47.7760007 102.82,47.632 C102.964001,47.4879993 103.036,47.2640015 103.036,46.96 L103.036,40.456 L104.26,40.456 Z M107.74,46.012 L107.14,42.916 L107.116,42.916 L106.516,46.012 L107.74,46.012 Z M104.716,49 L106.624,40.456 L107.644,40.456 L109.552,49 L108.328,49 L107.968,47.164 L106.3,47.164 L105.94,49 L104.716,49 Z M110.08,42.472 C110.08,42.1279983 110.139999,41.8240013 110.26,41.56 C110.380001,41.2959987 110.539999,41.0760009 110.74,40.9 C110.932001,40.7319992 111.149999,40.6040004 111.394,40.516 C111.638001,40.4279996 111.883999,40.384 112.132,40.384 C112.380001,40.384 112.625999,40.4279996 112.87,40.516 C113.114001,40.6040004 113.335999,40.7319992 113.536,40.9 C113.728001,41.0760009 113.883999,41.2959987 114.004,41.56 C114.124001,41.8240013 114.184,42.1279983 114.184,42.472 L114.184,42.904 L112.96,42.904 L112.96,42.472 C112.96,42.1759985 112.878001,41.9580007 112.714,41.818 C112.549999,41.6779993 112.356001,41.608 112.132,41.608 C111.907999,41.608 111.714001,41.6779993 111.55,41.818 C111.385999,41.9580007 111.304,42.1759985 111.304,42.472 L111.304,46.984 C111.304,47.2800015 111.385999,47.4979993 111.55,47.638 C111.714001,47.7780007 111.907999,47.848 112.132,47.848 C112.356001,47.848 112.549999,47.7780007 112.714,47.638 C112.878001,47.4979993 112.96,47.2800015 112.96,46.984 L112.96,45.376 L111.988,45.376 L111.988,44.296 L114.184,44.296 L114.184,46.984 C114.184,47.3440018 114.124001,47.6519987 114.004,47.908 C113.883999,48.1640013 113.728001,48.3759992 113.536,48.544 C113.335999,48.7200009 113.114001,48.8519996 112.87,48.94 C112.625999,49.0280004 112.380001,49.072 112.132,49.072 C111.883999,49.072 111.638001,49.0280004 111.394,48.94 C111.149999,48.8519996 110.932001,48.7200009 110.74,48.544 C110.539999,48.3759992 110.380001,48.1640013 110.26,47.908 C110.139999,47.6519987 110.08,47.3440018 110.08,46.984 L110.08,42.472 Z M115.264,49 L115.264,40.456 L118.912,40.456 L118.912,41.608 L116.488,41.608 L116.488,44.116 L118.6,44.116 L118.6,45.268 L116.488,45.268 L116.488,47.776 L118.912,47.776 L118.912,49 L115.264,49 Z" id="word-atlas-of-langua" fill="#FFFFFF" opacity="0.400000006"></path>
                <polygon id="Mask" fill="#FFBE29" points="13 53 163 53 163 55 13 55"></polygon>
            </g>
        </g>
    </g>
</svg>