<?xml version="1.0" encoding="UTF-8"?>
<svg width="22px" height="22px" viewBox="0 0 22 22" version="1.1" xmlns="http://www.w3.org/2000/svg" xmlns:xlink="http://www.w3.org/1999/xlink">
    <!-- Generator: Sketch 52.4 (67378) - http://www.bohemiancoding.com/sketch -->
    <title>wal_课程</title>
    <desc>Created with Sketch.</desc>
    <g id="世界语言地图" stroke="none" stroke-width="1" fill="none" fill-rule="evenodd">
        <g id="世界地图语言-默认-copy" transform="translate(-846.000000, -414.000000)" fill="#FFFFFF" fill-rule="nonzero">
            <g id="语言分类" transform="translate(561.000000, 400.000000)">
                <g id="区域主要语种" transform="translate(285.000000, 14.000000)">
                    <g id="课程icon">
                        <path d="M17,5 L18,5 C19.1045695,5 20,5.8954305 20,7 L20,18 C20,19.1045695 19.1045695,20 18,20 L4,20 C2.8954305,20 2,19.1045695 2,18 L2,7 C2,5.8954305 2.8954305,5 4,5 L5,5 L5,6 C5,7.1045695 5.8954305,8 7,8 C8.1045695,8 9,7.1045695 9,6 L9,5 L13,5 L13,6 C13,7.1045695 13.8954305,8 15,8 C16.1045695,8 17,7.1045695 17,6 L17,5 Z M6,9 C5.44771525,9 5,9.44771525 5,10 L5,12 C5,12.5522847 5.44771525,13 6,13 L9,13 C9.55228475,13 10,12.5522847 10,12 L10,10 C10,9.44771525 9.55228475,9 9,9 L6,9 Z M6,14 C5.44771525,14 5,14.4477153 5,15 L5,17 C5,17.5522847 5.44771525,18 6,18 L9,18 C9.55228475,18 10,17.5522847 10,17 L10,15 C10,14.4477153 9.55228475,14 9,14 L6,14 Z M13,9 C12.4477153,9 12,9.44771525 12,10 L12,12 C12,12.5522847 12.4477153,13 13,13 L16,13 C16.5522847,13 17,12.5522847 17,12 L17,10 C17,9.44771525 16.5522847,9 16,9 L13,9 Z M13,14 C12.4477153,14 12,14.4477153 12,15 L12,17 C12,17.5522847 12.4477153,18 13,18 L16,18 C16.5522847,18 17,17.5522847 17,17 L17,15 C17,14.4477153 16.5522847,14 16,14 L13,14 Z" id="合并形状"></path>
                        <rect id="矩形-copy-14" x="14" y="3" width="2" height="4" rx="1"></rect>
                        <rect id="矩形-copy-13" x="6" y="3" width="2" height="4" rx="1"></rect>
                    </g>
                </g>
            </g>
        </g>
    </g>
</svg>