<?xml version="1.0" encoding="UTF-8"?>
<svg width="22px" height="22px" viewBox="0 0 22 22" version="1.1" xmlns="http://www.w3.org/2000/svg" xmlns:xlink="http://www.w3.org/1999/xlink">
    <!-- Generator: Sketch 52.4 (67378) - http://www.bohemiancoding.com/sketch -->
    <title>wal_语伴</title>
    <desc>Created with Sketch.</desc>
    <g id="世界语言地图" stroke="none" stroke-width="1" fill="none" fill-rule="evenodd">
        <g id="世界地图语言-默认-copy" transform="translate(-1016.000000, -414.000000)" fill="#FFFFFF" fill-rule="nonzero">
            <g id="语言分类" transform="translate(561.000000, 400.000000)">
                <g id="分组-13" transform="translate(455.000000, 14.000000)">
                    <g id="语伴" transform="translate(0.000000, 4.000000)">
                        <path d="M16.1807073,14.5690193 C15.6903596,14.5690193 15.215122,14.5104281 14.763064,14.4005541 C14.5498379,14.3487289 14.3417689,14.2854942 14.1397036,14.2116171 C14.0029519,14.1616193 10.2244757,15.1186594 10.6929977,14.7813665 C10.9189289,14.6187168 11.8060759,12.5857968 11.6963284,12.4426308 C11.0841468,11.644038 11.2481748,11.0142884 12.0440299,10.2719025 C13.7539229,8.67688819 14.1397036,7.57581308 14.9638312,4.86573805 C15.329674,4.75014285 15.7344705,4.6875 16.1807073,4.6875 C19.1936133,4.6875 21.6360562,6.89955344 21.6360562,9.62825965 C21.6360562,12.3569659 19.1936133,14.5690193 16.1807073,14.5690193 Z M16.7330084,12.8768382 C18.636316,12.8768382 20.275211,11.5769433 20.1639751,9.23713235 C13.8063398,9.23713235 20.1622598,9.23713235 13.2781798,9.23713235 C13.2781798,11.0569853 14.8297008,12.8768382 16.7330084,12.8768382 Z" id="合并形状"></path>
                        <path d="M7.78251776,13.474799 C7.10357487,13.474799 6.44555353,13.3949019 5.81962714,13.2450738 C5.52439099,13.174403 5.23629534,13.088174 4.95651274,12.9874325 C4.76716413,12.9192536 -0.464572165,14.2243083 0.18415068,13.7643635 C0.496978495,13.5425684 1.72533581,10.7704047 1.57337772,10.5751784 C0.725741782,9.48618812 0.228957648,8.16354038 0.228957648,6.73739952 C0.228957648,3.01643651 3.6108017,-5.86197757e-14 7.78251776,-5.86197757e-14 C11.9542338,-5.86197757e-14 15.3360779,3.01643651 15.3360779,6.73739952 C15.3360779,10.4583625 11.9542338,13.474799 7.78251776,13.474799 Z M8.54724238,11.1672794 C11.1825913,11.1672794 13.4518307,9.39469538 13.2978117,6.20404412 C4.49493207,6.20404412 13.2954366,6.20404412 3.76363354,6.20404412 C3.76363354,8.68566176 5.9118934,11.1672794 8.54724238,11.1672794 Z" id="合并形状"></path>
                    </g>
                </g>
            </g>
        </g>
    </g>
</svg>