<?xml version="1.0" encoding="UTF-8" standalone="no"?>
<svg width="48px" height="27px" viewBox="0 0 48 27" version="1.1" xmlns="http://www.w3.org/2000/svg" xmlns:xlink="http://www.w3.org/1999/xlink">
    <!-- Generator: Sketch 42 (36781) - http://www.bohemiancoding.com/sketch -->
    <title>Group 4</title>
    <desc>Created with Sketch.</desc>
    <defs></defs>
    <g id="Page-1" stroke="none" stroke-width="1" fill="none" fill-rule="evenodd">
        <g id="学习系统" transform="translate(-271.000000, -637.000000)">
            <g id="Group-3-Copy" transform="translate(271.000000, 637.000000)">
                <g id="Group-4">
                    <g id="Group-30-Copy">
                        <g id="Group-27" transform="translate(0.102991, 0.057404)">
                            <g id="Group-9-Copy-4">
                                <path d="M26.8362455,13.4581631 C26.8362455,20.8040855 20.8287434,26.7591391 13.4181227,26.7591391 C6.00750206,26.7591391 0,20.8040855 0,13.4581631 C0,6.11224082 6.00750206,0.157187217 13.4181227,0.157187217 C20.8287434,0.157187217 26.8362455,6.11224082 26.8362455,13.4581631" id="Fill-45" fill="#F0D75A"></path>
                                <path d="M24.6725036,13.4774146 C24.6725036,19.6281584 19.6422593,24.6144862 13.4373435,24.6144862 C7.23242782,24.6144862 2.20238369,19.6281584 2.20238369,13.4774146 C2.20238369,7.32667085 7.23242782,2.34034301 13.4373435,2.34034301 C19.6422593,2.34034301 24.6725036,7.32667085 24.6725036,13.4774146" id="Fill-52" fill="#CFA02C"></path>
                                <path d="M24.2830821,13.5820076 C24.2830821,19.4618416 19.4746779,24.2282661 13.543058,24.2282661 C7.61163825,24.2282661 2.80303379,19.4618416 2.80303379,13.5820076 C2.80303379,7.70237212 7.61163825,2.93574914 13.543058,2.93574914 C19.4746779,2.93574914 24.2830821,7.70237212 24.2830821,13.5820076" id="Fill-53" fill="#E8B432"></path>
                                <g id="Group-28" transform="translate(0.700930, 1.148478)">
                                    <g id="金币" transform="translate(0.000000, 0.095960)">
                                        <g id="Group-23">
                                            <path d="M3.306861,21.6206337 C2.99041953,21.3078525 2.69016995,20.9794422 2.40651205,20.6367876 L4.0087094,19.1678439 C4.28836929,19.5138617 4.58861888,19.8432612 4.90725925,20.1534705 L3.306861,21.6206337 M21.3488225,5.08220668 C21.060367,4.74370665 20.7511219,4.42241848 20.4242857,4.12051839 L22.0266829,2.65137682 C22.3501209,2.95723366 22.6577667,3.27911533 22.9490208,3.61543915 L21.3488225,5.08220668" id="Fill-49" fill="#F4E27D"></path>
                                            <path d="M7.22989567,24.3268534 C6.215204,23.8763773 5.26747879,23.3048247 4.40551061,22.6303965 L6.02769794,21.1434495 C6.92484849,21.8026442 7.92494747,22.3322553 8.99980899,22.7045856 L7.22989567,24.3268534 M23.5491202,9.36756564 C23.2558671,8.27451323 22.7984962,7.24793423 22.2045938,6.31473455 L23.8267811,4.82758976 C24.4392743,5.72775057 24.9426221,6.70645288 25.3190335,7.74509997 L23.5491202,9.36756564" id="Fill-50" fill="#F4E27D"></path>
                                            <path d="M1.58772224,19.6915198 C0.929851817,18.732997 0.395919303,17.684458 0.00771378267,16.5688521 L1.7902208,14.9349119 C2.08507308,16.1102647 2.56923053,17.2118241 3.20871017,18.2057599 L1.58772224,19.6915198 M19.4001987,3.36339413 C18.4448773,2.65454222 17.3714151,2.09288144 16.2143947,1.71283553 L17.9961021,0.0794887962 C19.0873554,0.547176741 20.1030466,1.15414231 21.0207868,1.87802987 L19.4001987,3.36339413" id="Fill-51" fill="#F4E27D"></path>
                                            <path d="M3.57612611,17.8274945 C2.94164397,16.8224798 2.4730787,15.7050934 2.2066122,14.5119352 L15.7928059,2.0578642 C16.9694164,2.41139988 18.0598702,2.95940987 19.0269857,3.66430503 L3.57612611,17.8274945" id="Fill-54" fill="#F0BD3F"></path>
                                            <path d="M5.10296121,19.7961759 C4.78332134,19.4863623 4.48427115,19.1565671 4.20561075,18.8093622 L19.8901532,4.43191468 C20.2183888,4.73302342 20.527434,5.05391591 20.8154897,5.39300945 L5.10296121,19.7961759" id="Fill-55" fill="#F0BD3F"></path>
                                        </g>
                                        <path d="M9.42039829,22.2780478 C8.32794558,21.9294581 7.31245431,21.4123108 6.40450917,20.7572707 L21.8399764,6.60812762 C22.4288814,7.55161485 22.8712598,8.59342734 23.1389257,9.70270243 L9.42039829,22.2780478" id="Fill-56" fill="#F0BD3F"></path>
                                    </g>
                                </g>
                                <g id="Group-22" transform="translate(7.736373, 7.887940)">
                                    <path d="M7.04932868,2.10312601 C7.76608115,2.10312601 8.34796898,2.63179682 8.34796898,3.28368088 C8.34796898,3.93699765 7.76608115,4.46566845 7.04932868,4.46566845 C6.33257622,4.46566845 5.75068838,3.93699765 5.75068838,3.28368088 C5.75068838,2.63179682 6.33257622,2.10312601 7.04932868,2.10312601 L7.04932868,2.10312601 Z M10.3421471,6.46143657 L10.3421471,1.58734962 C10.3421471,0.832310282 9.59811863,0.219109454 8.68588822,0.219109454 L1.6486822,0.219109454 C0.739482459,0.219109454 -2.66453526e-15,0.829444857 -2.66453526e-15,1.58161877 L-2.66453526e-15,5.44134547 C-2.66453526e-15,9.90710944 2.15480339,12.1922854 7.43573857,13.3269935 L7.61606319,13.3656767 L8.56920759,11.1320784 L8.38130631,11.0762026 C5.21122987,10.11342 3.90198224,8.72798729 4.03533153,6.46143657 L10.3421471,6.46143657 Z" id="Fill-11" fill="#CFA02C"></path>
                                    <path d="M7.71244639,1.88401656 C8.42919886,1.88401656 9.01108669,2.41268737 9.01108669,3.06457142 C9.01108669,3.71788819 8.42919886,4.246559 7.71244639,4.246559 C6.99569393,4.246559 6.41380609,3.71788819 6.41380609,3.06457142 C6.41380609,2.41268737 6.99569393,1.88401656 7.71244639,1.88401656 L7.71244639,1.88401656 Z M11.0052648,6.24232711 L11.0052648,1.36824016 C11.0052648,0.613200827 10.2612363,0 9.34900593,0 L2.31179991,0 C1.40260017,0 0.663117708,0.610335403 0.663117708,1.36250931 L0.663117708,5.22223602 C0.663117708,9.68799999 2.8179211,11.973176 8.09885628,13.107884 L8.2791809,13.1465673 L9.2323253,10.9129689 L9.04442402,10.8570932 C5.87434757,9.89431054 4.56509994,8.50887783 4.69844924,6.24232711 L11.0052648,6.24232711 Z" id="Fill-11" fill="#F0D75A"></path>
                                </g>
                            </g>
                        </g>
                    </g>
                    <rect id="Rectangle-12" fill="#E8B432" transform="translate(41.000000, 14.500000) rotate(90.000000) translate(-41.000000, -14.500000) " x="39.8333333" y="8" width="2.33333333" height="13" rx="1.16666667"></rect>
                </g>
            </g>
        </g>
    </g>
</svg>