<?xml version="1.0" encoding="UTF-8" standalone="no"?>
<svg width="16px" height="20px" viewBox="0 0 16 20" version="1.1" xmlns="http://www.w3.org/2000/svg" xmlns:xlink="http://www.w3.org/1999/xlink">
    <!-- Generator: Sketch 49.3 (51167) - http://www.bohemiancoding.com/sketch -->
    <title>Group 16</title>
    <desc>Created with Sketch.</desc>
    <defs></defs>
    <g id="Page-1" stroke="none" stroke-width="1" fill="none" fill-rule="evenodd">
        <g id="课程-2-copy" transform="translate(-390.000000, -364.000000)">
            <g id="Group" transform="translate(370.000000, 344.000000)">
                <g id="Group-7" transform="translate(21.000000, 17.000000)">
                    <g id="测评定级组">
                        <g id="Group-4">
                            <g id="Group-16" transform="translate(0.000000, 4.000000)">
                                <polyline id="Rectangle-14" stroke="#333333" stroke-width="1.22727273" stroke-linejoin="round" points="4.69082981 5.74749756 0 2.45454545 0 0 14 0 14 2.45454545 9.33926731 5.74749756"></polyline>
                                <path d="M6.94262695,18 C10.5324778,18 13.442627,15.0898509 13.442627,11.5 C13.442627,7.91014913 10.5324778,5 6.94262695,5 C3.35277608,5 0.442626953,7.91014913 0.442626953,11.5 C0.442626953,15.0898509 3.35277608,18 6.94262695,18 Z" id="Oval-2" stroke="#333333" stroke-width="1.22727273"></path>
                                <rect id="Rectangle-15" fill="#333333" x="3.88888889" y="0" width="1.16666667" height="4.90909091"></rect>
                                <rect id="Rectangle-15-Copy" fill="#333333" x="8.55555556" y="0" width="1.16666667" height="4.90909091"></rect>
                                <path d="M7.02038574,14 C8.40109762,14 9.52038574,12.8807119 9.52038574,11.5 C9.52038574,10.1192881 8.40109762,9 7.02038574,9 C5.63967387,9 4.52038574,10.1192881 4.52038574,11.5 C4.52038574,12.8807119 5.63967387,14 7.02038574,14 Z" id="Oval-6" stroke="#333333" stroke-width="1.22727273"></path>
                            </g>
                        </g>
                    </g>
                </g>
            </g>
        </g>
    </g>
</svg>