<?xml version="1.0" encoding="UTF-8"?>
<svg width="16px" height="14px" viewBox="0 0 16 14" version="1.1" xmlns="http://www.w3.org/2000/svg" xmlns:xlink="http://www.w3.org/1999/xlink">
    <!-- Generator: Sketch 41.2 (35397) - http://www.bohemiancoding.com/sketch -->
    <title>课程</title>
    <desc>Created with Sketch.</desc>
    <defs></defs>
    <g id="Page-1" stroke="none" stroke-width="1" fill="none" fill-rule="evenodd">
        <g id="我的-是会员-copy" transform="translate(-168.000000, -455.000000)" fill="#4A4A4A">
            <g id="课程" transform="translate(168.000000, 455.000000)">
                <g id="Group">
                    <path d="M15.8724424,3.52688171 C15.8724424,3.27520737 15.6207681,2.77185867 15.2432565,2.64602149 C14.865745,2.39434715 14.4882335,2.26850997 14.110722,2.14267279 L14.110722,1.13597543 C14.110722,0.506789567 13.6073733,0.00344086636 12.8523502,0.00344086636 L10.2097696,0.00344086636 C9.58058372,0.00344086636 8.95139784,0.506789567 8.95139784,1.13597543 L8.95139784,2.01683565 C8.95139784,2.01683565 8.95139784,2.01683565 8.82556066,2.01683565 C8.57388632,2.14267281 8.1963748,2.26850999 7.94470046,2.39434715 C6.8121659,1.89099847 5.67963134,1.63932411 4.54709677,1.63932411 C2.28202765,1.63932411 0.646144387,2.64602151 0.520307226,2.77185867 C0.142795705,2.89769585 0.0169585253,3.27520737 0.0169585253,3.65271889 L0.0169585253,12.0838095 C0.0169585253,12.4613211 0.142795705,12.7129954 0.520307226,12.9646698 C0.771981567,13.2163441 1.14949309,13.2163441 1.52700461,13.2163441 C1.52700461,13.2163441 3.41456221,12.8388326 5.17628264,12.8388326 C6.18298002,12.8388326 6.93800306,12.9646698 7.6930261,13.2163441 C7.81886328,13.2163441 7.94470044,13.3421813 8.07053762,13.3421813 L8.44804914,13.3421813 C8.44804914,13.3421813 10.2097696,12.8388326 11.216467,12.8388326 C12.2231644,12.8388326 13.3556989,13.0905069 13.9848848,13.2163441 L14.2365591,13.2163441 L14.7399078,13.2163441 C14.9915822,13.2163441 15.2432565,13.2163441 15.3690937,13.0905069 C15.7466052,12.8388326 15.9982796,12.4613211 15.9982796,12.0838095 L15.8724424,3.52688171 L15.8724424,3.52688171 L15.8724424,3.52688171 Z M9.95809524,1.13597543 C9.95809524,1.01013825 10.0839324,0.884301088 10.2097696,0.884301088 L12.8523502,0.884301088 C12.9781874,0.884301088 13.1040246,1.01013827 13.1040246,1.13597543 L13.1040246,7.4278341 L12.2231644,7.05032258 C11.7198156,6.79864824 11.3423041,6.79864824 10.8389554,7.05032258 L9.95809524,7.55367128 L9.95809524,1.13597543 L9.95809524,1.13597543 Z M14.865745,12.3354839 C14.865745,12.3354839 14.865745,12.3354839 14.7399078,12.3354839 L14.3623963,12.3354839 L14.110722,12.3354839 C13.4815361,12.2096467 12.3490015,11.9579724 11.216467,11.9579724 C10.0839324,11.9579724 8.19637482,12.4613211 8.19637482,12.4613211 L7.94470048,12.4613211 C7.06384026,12.2096467 6.30881722,12.0838095 5.17628265,12.0838095 C3.28872505,12.0838095 1.27533027,12.4613211 1.27533027,12.4613211 L1.02365593,12.4613211 C0.897818747,12.4613211 0.897818747,12.3354839 0.897818747,12.2096467 L0.897818747,3.65271889 C0.897818747,3.52688171 1.02365591,3.52688171 1.02365591,3.40104455 C1.14949309,3.27520737 2.53370199,2.52018433 4.54709677,2.52018433 C5.55379416,2.52018433 6.68632872,2.77185867 7.69302612,3.27520737 L7.94470046,3.40104455 L8.1963748,3.27520737 C8.32221198,3.14937019 8.6997235,3.14937019 9.07723502,3.02353303 L9.07723502,9.06371736 L11.3423041,8.05701998 C11.5939785,7.9311828 11.7198157,7.9311828 11.97149,8.05701998 L14.2365591,9.06371736 L14.2365591,3.27520737 C14.4882335,3.40104455 14.7399078,3.52688171 14.9915822,3.52688171 C15.1174194,3.52688171 15.1174194,3.65271889 15.1174194,3.77855606 L15.1174194,12.2096467 C14.9915822,12.2096467 14.865745,12.2096467 14.865745,12.3354839 L14.865745,12.3354839 Z" id="Shape"></path>
                    <path d="M6.3088172,5.16276498 L2.78537635,5.16276498 C2.53370201,5.16276498 2.40786483,5.28860216 2.40786483,5.5402765 C2.40786483,5.79195084 2.65953917,5.91778802 2.78537635,5.91778802 L6.30881722,5.91778802 C6.56049156,5.91778802 6.68632874,5.79195084 6.68632874,5.5402765 C6.68632872,5.28860216 6.56049156,5.16276498 6.3088172,5.16276498 L6.3088172,5.16276498 Z" id="Shape"></path>
                    <path d="M6.3088172,6.79864824 L2.78537635,6.79864824 C2.53370201,6.79864824 2.40786483,6.92448542 2.40786483,7.17615976 C2.40786483,7.4278341 2.65953917,7.55367128 2.78537635,7.55367128 L6.30881722,7.55367128 C6.56049156,7.55367128 6.68632874,7.4278341 6.68632874,7.17615976 C6.68632872,6.9244854 6.56049156,6.79864824 6.3088172,6.79864824 L6.3088172,6.79864824 Z" id="Shape"></path>
                    <path d="M6.3088172,8.43453148 L2.78537635,8.43453148 C2.53370199,8.43453148 2.40786483,8.56036866 2.40786483,8.812043 C2.40786483,9.06371735 2.65953917,9.18955453 2.78537635,9.18955453 L6.30881722,9.18955453 C6.56049156,9.18955453 6.68632874,9.06371735 6.68632874,8.812043 C6.68632872,8.56036866 6.56049156,8.43453148 6.3088172,8.43453148 L6.3088172,8.43453148 Z" id="Shape"></path>
                </g>
            </g>
        </g>
    </g>
</svg>