<?xml version="1.0" encoding="UTF-8"?>
<svg width="19px" height="18px" viewBox="0 0 19 18" version="1.1" xmlns="http://www.w3.org/2000/svg" xmlns:xlink="http://www.w3.org/1999/xlink">
    <!-- Generator: Sketch 41.2 (35397) - http://www.bohemiancoding.com/sketch -->
    <title>Shape</title>
    <desc>Created with Sketch.</desc>
    <defs></defs>
    <g id="Page-1" stroke="none" stroke-width="1" fill="none" fill-rule="evenodd">
        <g id="设置" transform="translate(-925.000000, -95.000000)" stroke="#0E8ABE" stroke-width="0.4" fill="#0E8ABE">
            <g id="修改" transform="translate(926.000000, 96.000000)">
                <path d="M14.5253555,16.6640139 C14.0048247,16.6640324 13.4967329,16.4576172 13.1248032,16.0856875 L9.32221919,12.2795945 C9.31405021,12.2714441 9.31429156,12.2724096 9.30833193,12.2650389 C9.2646836,12.2207037 9.19545153,12.1790604 9.10880469,12.2239898 C9.10433031,12.2263105 9.09981882,12.2285199 9.09525161,12.2306178 C8.24987401,12.6218189 7.3463667,12.8201765 6.40984933,12.8201765 C5.54507041,12.8201765 4.70598663,12.650726 3.91587957,12.3165406 C3.15289722,11.9938289 2.46774295,11.5319104 1.87944672,10.9436328 C1.29115049,10.355318 0.829232042,9.6701823 0.50652037,8.90721851 C0.172334987,8.11711145 0.00288444824,7.27802766 0.00288444824,6.41324875 C0.00288444824,5.79214665 0.0955652006,5.17184291 0.278327465,4.56960374 C0.281799275,4.55816716 0.285865196,4.54691627 0.290525228,4.53590671 C0.404129697,4.26744445 0.583661508,4.17355693 0.71427229,4.14206925 C0.996287613,4.07398826 1.22435056,4.24960269 1.26720056,4.28549047 C1.27484969,4.29189569 1.28222034,4.29863509 1.2892568,4.30569011 L4.1286814,7.14518899 C4.89274055,7.90922959 6.13592873,7.90921103 6.89996933,7.14518899 L7.17088227,6.87427605 C7.93494143,6.11021689 7.93494143,4.8669916 7.17088227,4.10293242 L4.37647985,1.30851146 C4.3221376,1.25494898 4.08200683,0.997440583 4.14758144,0.692682073 C4.17023179,0.587395122 4.24941514,0.395776927 4.52511809,0.295298527 C4.53052076,0.293349115 4.535942,0.291511101 4.54143748,0.289821606 C5.15258826,0.101638101 5.78122808,0.00622818677 6.40983079,0.00622818677 C7.2746097,0.00622818677 8.11371205,0.175660165 8.90381911,0.509845549 C9.66680146,0.83255722 10.3519372,1.29449425 10.940252,1.88279046 C11.5285482,2.47110525 11.9904481,3.15625953 12.3131597,3.91924187 C12.6473451,4.70934893 12.8167957,5.54845127 12.8167957,6.41324877 C12.8167957,7.27034143 12.6484776,8.10444955 12.3165202,8.8924401 C12.3090195,8.91022618 12.3000151,8.92734391 12.2895997,8.9436076 C12.2270884,9.04130112 12.2204047,9.12419765 12.2673207,9.22079581 C12.3058262,9.30014628 12.3671121,9.35688351 12.3676877,9.35734766 C12.3755039,9.36388285 12.3830231,9.37075221 12.3902266,9.37795577 L16.1113808,13.0991099 C16.5611014,13.5487192 16.7674423,14.1921931 16.6633622,14.8203874 C16.6327471,15.0052105 16.4580981,15.1301401 16.2732564,15.0995993 C16.0884334,15.0689842 15.9634295,14.8943166 15.9940446,14.7094935 C16.0624412,14.296756 15.9269847,13.8740672 15.6316762,13.5788516 L11.9198421,9.8670175 C11.6880103,9.66509527 11.3653914,9.16162643 11.7014148,8.60485504 C11.9913763,7.90780005 12.1383622,7.17062424 12.1383622,6.41324878 C12.1383622,4.88306964 11.5424725,3.44449444 10.4605103,2.36249503 C9.37852943,1.28051415 7.93997277,0.684643068 6.40983077,0.684643068 C5.90827422,0.684643068 5.40629065,0.752854017 4.91498245,0.887586419 L7.6505868,3.62319077 C8.1488572,4.12146117 8.42326051,4.78394654 8.42326051,5.48859496 C8.42326051,6.19324338 8.14885718,6.8557102 7.6505868,7.35399916 L7.37967386,7.6249121 C6.3510884,8.65347899 4.67752518,8.65346042 3.64893973,7.6249121 L0.896496143,4.8723757 C0.753669019,5.37736694 0.68129933,5.8951686 0.68129933,6.41324877 C0.68129933,7.94339077 1.27717041,9.38192885 2.35916983,10.4639283 C3.44115069,11.5458905 4.87970732,12.1417802 6.40984933,12.1417802 C7.24505285,12.1417802 8.05060669,11.9654788 8.80434323,11.6177218 C9.25553062,11.3889534 9.6521344,11.6351366 9.80862598,11.8065923 L13.6046377,15.6060758 C13.8912945,15.8927326 14.2839251,16.0266295 14.6854489,15.975592 C14.8620844,15.9185205 15.7257494,15.651822 16.624151,15.5876399 C16.8110906,15.574421 16.9733376,15.7149645 16.9866679,15.9018298 C17.0000168,16.0886952 16.8593433,16.2510164 16.672478,16.2643467 C15.7714771,16.3286774 14.8790907,16.6259538 14.8701791,16.6289615 C14.8511305,16.6353667 14.831525,16.6400824 14.811641,16.6429973 C14.7163053,16.6570888 14.6205984,16.6640139 14.5253555,16.6640139 Z" id="Shape"></path>
            </g>
        </g>
    </g>
</svg>