<?xml version="1.0" encoding="UTF-8"?>
<svg width="13px" height="13px" viewBox="0 0 13 13" version="1.1" xmlns="http://www.w3.org/2000/svg" xmlns:xlink="http://www.w3.org/1999/xlink">
    <!-- Generator: Sketch 41.2 (35397) - http://www.bohemiancoding.com/sketch -->
    <title>Shape</title>
    <desc>Created with Sketch.</desc>
    <defs></defs>
    <g id="Page-1" stroke="none" stroke-width="1" fill="none" fill-rule="evenodd">
        <g id="登录-密码错误" transform="translate(-485.000000, -455.000000)" fill="#E46773">
            <g id="Group-12" transform="translate(485.000000, 454.000000)">
                <g id="叹号" transform="translate(0.000000, 1.000000)">
                    <path d="M6.50003703,12.9972616 C2.91169876,12.9972616 0.00274576503,10.0883086 0.00274576503,6.49995556 C0.00274576503,2.91161728 2.91169876,0.00273836748 6.50003703,0.00273836748 C10.0883012,0.00273836748 12.9972542,2.91170617 12.9972542,6.49995556 C12.9972542,10.0883383 10.0882864,12.9972616 6.50003703,12.9972616 L6.50003703,12.9972616 L6.50003703,12.9972616 Z M7.49373116,3.33430542 C7.49373116,2.83696949 6.98313669,2.43382103 6.48534153,2.43382103 C5.98753156,2.43382103 5.49163259,2.83696949 5.49163259,3.33430542 L5.49163259,7.08953833 C5.49163259,7.58696315 5.89479586,7.99052639 6.3916133,7.99052639 C6.88946771,7.99052639 7.49371635,7.58696315 7.49371635,7.08953833 L7.49371635,3.33430542 L7.49373116,3.33430542 L7.49373116,3.33430542 Z M6.51560656,8.47771471 C5.95338527,8.47771471 5.49847666,8.93448988 5.49847666,9.49681487 C5.49847666,10.0589917 5.95338527,10.514404 6.51560656,10.514404 C7.07790191,10.514404 7.53473635,10.0589917 7.53473635,9.49681487 C7.53472154,8.93448989 7.07784266,8.47771471 6.51560656,8.47771471 L6.51560656,8.47771471 L6.51560656,8.47771471 Z" id="Shape"></path>
                </g>
            </g>
        </g>
    </g>
</svg>