<?xml version="1.0" encoding="UTF-8" standalone="no"?>
<svg width="14px" height="17px" viewBox="0 0 14 17" version="1.1" xmlns="http://www.w3.org/2000/svg" xmlns:xlink="http://www.w3.org/1999/xlink">
    <!-- Generator: Sketch 42 (36781) - http://www.bohemiancoding.com/sketch -->
    <title>手机</title>
    <desc>Created with Sketch.</desc>
    <defs></defs>
    <g id="Page-1" stroke="none" stroke-width="1" fill="none" fill-rule="evenodd">
        <g id="匿名－绑定手机-copy" transform="translate(-585.000000, -96.000000)" fill-rule="nonzero" fill="#0E8ABE">
            <g id="手机" transform="translate(585.000000, 96.000000)">
                <path d="M12.4823448,16.9935537 L1.53296017,16.9935537 C0.699262714,16.9935537 0.0210170202,16.41982 0.0210170202,15.714564 L0.0210170202,1.29379397 C0.0210170202,0.588562344 0.699291589,0.0148042139 1.53296017,0.0148042139 L12.4823448,0.0148042139 C13.3160422,0.0148042139 13.9942879,0.588537894 13.9942879,1.29379397 L13.9942879,15.714564 C13.9942879,16.4197956 13.3160133,16.9935537 12.4823448,16.9935537 Z M1.53296017,1.18760852 C1.46375496,1.18760852 1.40743185,1.2352527 1.40743185,1.29381839 L1.40743185,15.7145884 C1.40743185,15.7731297 1.46375496,15.8207983 1.53296017,15.8207983 L12.4823448,15.8207983 C12.55155,15.8207983 12.6078731,15.7731541 12.6078731,15.7145884 L12.6078731,1.29379397 C12.6078731,1.2352527 12.55155,1.18758409 12.4823448,1.18758409 L1.53296017,1.18758409 L1.53296017,1.18760852 Z M6.11225955,14.5511663 C6.11225955,14.969478 6.51314061,15.3085867 7.00765247,15.3085867 C7.50216432,15.3085867 7.90304539,14.969478 7.90304539,14.5511663 C7.90304539,14.1328546 7.50216432,13.793746 7.00765247,13.793746 C6.51314061,13.793746 6.11225955,14.1328546 6.11225955,14.5511663 Z M12.9363379,13.1890803 L1.07890932,13.1890803 C0.696056629,13.1890803 0.385701891,12.9265486 0.385701891,12.6026903 C0.385701891,12.278832 0.696056629,12.0163004 1.07890932,12.0163004 L12.9363379,12.0163004 C13.3191906,12.0163004 13.6295453,12.278832 13.6295453,12.6026903 C13.6295453,12.9265486 13.3191905,13.1890803 12.9363379,13.1890803 Z" id="Shape"></path>
            </g>
        </g>
    </g>
</svg>