<?xml version="1.0" encoding="UTF-8"?>
<svg width="17px" height="17px" viewBox="0 0 17 17" version="1.1" xmlns="http://www.w3.org/2000/svg" xmlns:xlink="http://www.w3.org/1999/xlink">
    <!-- Generator: Sketch 41.2 (35397) - http://www.bohemiancoding.com/sketch -->
    <title>删除的副本</title>
    <desc>Created with Sketch.</desc>
    <defs></defs>
    <g id="Page-1" stroke="none" stroke-width="1" fill="none" fill-rule="evenodd">
        <g id="绑定手机" transform="translate(-870.000000, -188.000000)" fill="#DCDBDB">
            <g id="删除的副本" transform="translate(870.000000, 188.000000)">
                <path d="M16.3311125,5.19108545 C15.9030028,4.17889471 15.2902282,3.26999394 14.5097774,2.4895261 C13.7293945,1.70907524 12.8205107,1.09630071 11.808235,0.66819096 C10.7599947,0.224842564 9.64682445,0 8.50039073,0 C7.35319253,0 6.24002226,0.224842564 5.19169702,0.66819096 C4.17950628,1.0963007 3.27058853,1.70907524 2.49013767,2.4895261 C1.70977178,3.26999394 1.09692928,4.17887773 0.668785562,5.19108545 C0.225437149,6.23932574 0.00062856836,7.35258097 0.00062856836,8.50020387 C0.00062856836,9.64741905 0.225454133,10.7606743 0.668785562,11.8089146 C1.09692928,12.8211053 1.70977178,13.730091 2.49013769,14.5104739 C3.27058855,15.2909248 4.1795063,15.9036993 5.19169704,16.3318091 C6.24002227,16.7752424 7.35319255,17 8.50039075,17 C9.64684145,17 10.7599947,16.7752424 11.80832,16.3318091 C12.8205107,15.9036993 13.7294115,15.2909248 14.5097774,14.5104739 C15.2902283,13.730091 15.9030028,12.8211053 16.3311125,11.8089146 C16.7745459,10.7606743 16.9993715,9.64741905 16.9993715,8.50020387 C16.9993035,7.35256397 16.7745459,6.23941067 16.3311125,5.19108545 Z M12.010313,12.0968353 C12.0101601,12.0970222 12.0100752,12.0971072 12.0098883,12.097277 C11.7739183,12.333264 11.3912527,12.3335189 11.1550109,12.0976338 L8.4264059,9.37419329 L5.7029654,12.1027983 C5.7028125,12.1029682 5.70262563,12.103155 5.70254068,12.103223 C5.46657067,12.339227 5.08399005,12.3394648 4.84766329,12.1036647 C4.61099674,11.8674229 4.61063999,11.4845195 4.84652505,11.2480908 L7.56994858,8.5194688 L4.84136056,5.79597733 C4.60494884,5.56000732 4.60460908,5.17706995 4.84057909,4.94076017 C4.84066404,4.94059029 4.84081692,4.94040342 4.8410038,4.94031847 C5.07665103,4.70460328 5.45923165,4.70443339 5.69554143,4.94023352 L8.42414643,7.66367403 L11.1476549,4.93505204 L11.1480116,4.93461034 C11.3839986,4.69864033 11.7666472,4.69838549 12.0032288,4.93454239 C12.2396405,5.1705124 12.2399803,5.55343278 12.0040103,5.78984449 L9.28050183,8.5184325 L12.0092088,11.241873 C12.2455015,11.47786 12.2459602,11.8607634 12.010313,12.0968353 Z" id="Shape"></path>
            </g>
        </g>
    </g>
</svg>