<?xml version="1.0" encoding="UTF-8"?>
<svg width="20px" height="15px" viewBox="0 0 20 15" version="1.1" xmlns="http://www.w3.org/2000/svg" xmlns:xlink="http://www.w3.org/1999/xlink">
    <!-- Generator: Sketch 41.2 (35397) - http://www.bohemiancoding.com/sketch -->
    <title>Group 19</title>
    <desc>Created with Sketch.</desc>
    <defs></defs>
    <g id="Page-1" stroke="none" stroke-width="1" fill="none" fill-rule="evenodd">
        <g id="我的-会员到期-会员功能-copy" transform="translate(-509.000000, -982.000000)" fill="#E46773">
            <g id="Group-19" transform="translate(509.000000, 982.000000)">
                <g id="Group">
                    <path d="M19.8841624,11.1564294 C19.76041,13.1517173 17.9716747,14.7386704 15.8098707,14.7386704 L12.3817551,14.7708467 L4.85493986,14.6904556 C2.34592844,14.6904556 0.209288988,12.7665757 0.110143755,10.4104721 C0.0108989883,8.22228543 1.55105446,6.32302958 3.71214177,5.86616199 C3.81138654,4.25532019 4.55660829,2.74041104 5.82369628,1.65820248 C7.16544183,0.50424813 8.90462438,-0.0487905859 10.7179668,0.143571561 C13.4755182,0.407798748 15.7609352,2.45201686 16.2324524,5.09681273 C16.3567821,5.77009023 16.381867,6.4189225 16.282682,7.0683311 C17.2508013,7.14073272 18.170025,7.57345318 18.8161015,8.27050021 C19.5865276,9.0642947 19.9588,10.073565 19.8841624,11.1564294 L19.8841624,11.1564294 L19.8841624,11.1564294 L19.8841624,11.1564294 Z M18.269867,8.75181302 C17.6488754,8.12651178 16.8289961,7.76565634 15.9097725,7.76565634 L15.8357321,7.76565634 C15.7107255,7.76565634 15.6115603,7.71744159 15.5368232,7.64543745 C15.4620661,7.54928619 15.4375784,7.45319453 15.4620661,7.33255829 C15.6115603,6.63588889 15.6359485,5.91409852 15.487151,5.21675339 C15.065306,2.8844392 13.0529962,1.10524324 10.6187419,0.840896822 C9.05344175,0.672721536 7.51332611,1.1533785 6.32039796,2.1870742 C5.153152,3.19729849 4.45748296,4.63964702 4.45748296,6.17874305 C4.45748296,6.34719657 4.33375051,6.51537186 4.13478315,6.53943949 C2.19657352,6.80368655 0.78072786,8.46310085 0.855385409,10.3859871 C0.929465603,12.3581812 2.74338535,13.9934682 4.88000488,13.9934682 L10.3868456,13.9921565 L10.4235572,13.9921565 L12.2780508,13.9921565 C12.2799819,13.9921565 12.2812362,13.9934682 12.2826099,13.9934682 L15.8099702,13.9934682 C17.5743174,13.9934682 19.0397356,12.7189174 19.1395378,11.084465 C19.1891901,10.2182292 18.8902016,9.37649815 18.269867,8.75181302 L18.269867,8.75181302 L18.269867,8.75181302 L18.269867,8.75181302 Z M10.010034,12.0154908 C9.88572416,12.1594991 9.63706475,12.1594991 9.48826726,12.0154908 L6.53224623,9.15368874 C6.38275195,9.00960096 6.38275195,8.79289293 6.53224623,8.64888465 C6.68104372,8.50451863 6.90461819,8.50451863 7.05333603,8.64888465 L9.32852,10.881192 L9.32852002,6.60275863 C9.32852002,6.518194 9.32009864,5.12928713 9.32852002,5.04694842 L10.1265993,5.04694842 C10.1124642,5.13604437 10.1336669,6.39215197 10.1336669,6.48482526 L10.1336669,10.8573827 L12.4198006,8.62483691 C12.4944383,8.55239553 12.5936632,8.52836766 12.6928283,8.52836766 C12.7920532,8.52836766 12.8913178,8.57658242 12.9659555,8.64886478 C13.1148525,8.79287308 13.1148525,9.00958111 12.9659555,9.15366888 L10.010034,12.0154908 L10.010034,12.0154908 L10.010034,12.0154908 L10.010034,12.0154908 Z" id="Shape"></path>
                    <path d="M12.3816755,14.8702374 L12.3806602,14.8702374 L4.85386481,14.7898464 C3.61634121,14.7898464 2.42916665,14.334529 1.51211307,13.5077632 C0.592969086,12.6791293 0.0597349805,11.5806437 0.01068,10.4146655 C-0.0888634047,8.21958254 1.42415652,6.28429479 3.61787416,5.78511507 C3.67632605,4.992831 3.88578529,4.23103393 4.24089642,3.51963775 C4.61064045,2.77894703 5.12139765,2.12727277 5.75899307,1.58270045 C6.34950446,1.07483572 7.01519103,0.68116802 7.73729879,0.412846754 C8.46261185,0.143313157 9.2277821,0.00665832368 10.011567,0.00665832368 C10.2489581,0.00665832368 10.4901518,0.0194771583 10.7284985,0.0447571216 C12.0834435,0.174575245 13.3873426,0.745977721 14.3990222,1.65357176 C14.8993074,2.10239031 15.3189028,2.62102682 15.6462015,3.19509244 C15.9825188,3.78497789 16.2127229,4.41896414 16.3304827,5.07940292 C16.4546134,5.75166682 16.4762541,6.37434467 16.3960619,6.97859916 C17.3507031,7.07586339 18.2540197,7.51814333 18.8884297,8.20217274 C19.2808895,8.60677125 19.5742439,9.06715656 19.76041,9.57064896 C19.9465761,10.0740619 20.0216119,10.6098895 19.9834669,11.1632463 C19.9219092,12.1557627 19.4579773,13.0818795 18.6771787,13.7702812 C17.8961811,14.4588419 16.8778918,14.8380611 15.8098707,14.8380611 L12.3816755,14.8702374 Z M10.0115669,0.205400134 C8.49864656,0.205400134 7.0344228,0.748084414 5.88865831,1.73348587 C4.64824794,2.7929385 3.91065123,4.26269352 3.81150599,5.87228325 L3.80684735,5.94772562 L3.73276716,5.96338647 C1.59505265,6.41530539 0.113329163,8.28367677 0.209587626,10.4060004 C0.306702179,12.7138296 2.39058362,14.5911046 4.85493986,14.5911046 L12.3818945,14.6714957 L15.8089549,14.6393194 C17.9174833,14.6393194 19.6634945,13.106762 19.784838,11.1503082 C19.8580621,10.0879142 19.498352,9.11622592 18.7446691,8.33964247 L18.7430963,8.33797303 C18.1190189,7.66469553 17.2195646,7.23803669 16.2752959,7.16742375 L16.1681275,7.15941447 L16.1843132,7.05336586 C16.2782225,6.43855819 16.2619372,5.80447256 16.1346012,5.11483861 C15.6697136,2.50742607 13.4384681,0.504089145 10.7084903,0.242505229 C10.4760763,0.217841356 10.2419701,0.205400134 10.0115669,0.205400134 Z M15.8099504,14.0928391 L12.2608298,14.0928391 L12.2578833,14.0915274 L10.3868655,14.0915274 L4.88002481,14.0928391 C3.82317247,14.0928391 2.81017897,13.7058492 2.02766827,13.0031976 C1.24444086,12.2998902 0.79279251,11.3717463 0.755901732,10.3897235 C0.71883177,9.43500774 1.04149175,8.50682403 1.6644543,7.77630892 C2.28693903,7.04635027 3.15945687,6.57213252 4.12132488,6.44098284 C4.27553753,6.42232097 4.35795946,6.29198612 4.35795946,6.17874307 C4.35795946,4.63779875 5.04948749,3.155523 6.25521693,2.11198958 C7.29958652,1.20701892 8.63175599,0.7086143 10.0062712,0.7086143 C10.2130428,0.7086143 10.4226812,0.719882966 10.6294328,0.742102289 C11.8316783,0.872655751 12.983933,1.38306437 13.87407,2.17934315 C14.7828615,2.99229636 15.3744081,4.03590928 15.5848827,5.19755493 C15.7294197,5.8759401 15.720859,6.60126806 15.5594593,7.3534063 C15.5418003,7.44035583 15.5567119,7.50645733 15.6111622,7.57881921 C15.6737949,7.63689157 15.7493085,7.66630534 15.8357918,7.66630534 L15.9098322,7.66630534 C16.8402246,7.66630534 17.680789,8.01748206 18.3406224,8.6818758 C18.9724841,9.31816745 19.2915406,10.1734527 19.2389817,11.090169 C19.1360738,12.7740682 17.6299024,14.0928391 15.8099504,14.0928391 Z M12.2945352,13.8940973 L15.8099504,13.8940973 C17.5248642,13.8940973 18.943736,12.6573074 19.0401537,11.0784034 C19.0894277,10.2190639 18.7907577,9.41749858 18.1991712,8.82177011 C17.5775625,8.19585278 16.7859137,7.86500734 15.9097725,7.86500734 L15.8357321,7.86500734 C15.6955352,7.86500734 15.568259,7.81381146 15.4677201,7.71692486 L15.4625638,7.71197619 L15.4581839,7.70635179 C15.3642746,7.58555655 15.3345112,7.46050822 15.3645135,7.31280334 C15.5203388,6.58660092 15.5287801,5.88869931 15.3897976,5.23744239 L15.3892003,5.23440164 C14.9790815,2.96689715 13.0129798,1.20083803 10.6079912,0.939671466 C10.4084266,0.918227237 10.2059354,0.907356052 10.0062513,0.907356052 C8.67967621,0.907356052 7.39385414,1.38849001 6.38565864,2.26211909 C5.2235093,3.26791145 4.55702638,4.69545372 4.55702638,6.17874305 C4.55702638,6.41232426 4.38065537,6.60979408 4.14674829,6.63809491 C2.25484625,6.89604185 0.881983424,8.50571108 0.9548293,10.3821514 C1.02757562,12.3186912 2.78839891,13.8940973 4.879985,13.8940973 L10.4235373,13.8927857 L12.2780309,13.8927857 C12.2835854,13.8927857 12.2891001,13.8932229 12.2945352,13.8940973 Z M9.75834842,12.2228579 C9.63200794,12.2228579 9.50831529,12.1732719 9.41898506,12.0868192 L6.46294412,9.22501717 C6.37118502,9.13657707 6.32055724,9.02152547 6.32057714,8.90118733 C6.32057714,8.78090881 6.37120492,8.66589695 6.46312329,8.57737736 C6.5535286,8.48967262 6.67069119,8.44123925 6.79281105,8.44123925 C6.91495082,8.44123925 7.0321134,8.48967262 7.1227377,8.57761585 L9.2289766,10.6441725 L9.22897661,6.60275863 C9.22897661,6.58797224 9.2287178,6.53317913 9.22833953,6.45243035 C9.22384018,5.49894684 9.22417862,5.08882331 9.22949424,5.03687222 L9.23861241,4.94759743 L10.2431447,4.94759743 L10.2249084,5.06250991 C10.2154119,5.13787279 10.226521,5.96457893 10.2306819,6.27580855 C10.232195,6.3889125 10.2332103,6.4636394 10.2332103,6.48484515 L10.2332103,10.6211781 L12.3501999,8.55382647 C12.4355882,8.47095115 12.5507997,8.42903651 12.6928283,8.42903651 C12.8129573,8.42903651 12.9377847,8.48317377 13.0352576,8.57757612 C13.126738,8.66605595 13.1771468,8.78098832 13.1771667,8.90120722 C13.1771866,9.02146587 13.1267778,9.13647773 13.0352377,9.22505694 L10.0823224,12.0839374 C10.0041012,12.172298 9.88632144,12.2228579 9.75834842,12.2228579 Z M6.79281105,8.63998103 C6.72279222,8.63998103 6.65490362,8.66844084 6.60160807,8.72013358 C6.54867089,8.77111084 6.51966395,8.83534419 6.51964403,8.90120722 C6.51964403,8.96709011 6.54865097,9.03138308 6.60136916,9.08218147 L9.55754946,11.9441226 C9.61006856,11.9949607 9.68323296,12.0240963 9.7583285,12.0240963 C9.83003957,12.0240963 9.89428488,11.9973059 9.93459996,11.9506016 L9.94073183,11.9441425 L12.8966533,9.08234045 C12.9491724,9.03148242 12.9780997,8.9671696 12.9780798,8.9012072 C12.9780798,8.83526468 12.9491724,8.7709717 12.8966732,8.72023294 C12.8368675,8.6623196 12.760677,8.62775839 12.6928282,8.62775839 C12.6044337,8.62775839 12.535908,8.65075281 12.4891824,8.69608582 L10.0341235,11.0936072 L10.0341235,6.48482526 C10.0341235,6.46495109 10.0330683,6.38670644 10.031615,6.2784518 C10.023333,5.65980842 10.0205657,5.31214942 10.023114,5.14631929 L9.42537574,5.14631929 C9.42250889,5.41241465 9.42611235,6.17339689 9.42742634,6.45147637 C9.42780461,6.53272201 9.42806342,6.58787284 9.42806342,6.60273872 L9.42806342,11.1181716 L6.98355613,8.71975597 C6.93069858,8.66844084 6.86280998,8.63998103 6.79281105,8.63998103 Z" id="Shape"></path>
                </g>
            </g>
        </g>
    </g>
</svg>