<?xml version="1.0" encoding="UTF-8"?>
<svg width="54px" height="89px" viewBox="0 0 54 89" version="1.1" xmlns="http://www.w3.org/2000/svg" xmlns:xlink="http://www.w3.org/1999/xlink">
    <!-- Generator: Sketch 41.2 (35397) - http://www.bohemiancoding.com/sketch -->
    <title>Group 10</title>
    <desc>Created with Sketch.</desc>
    <defs>
        <filter x="-50%" y="-50%" width="200%" height="200%" filterUnits="objectBoundingBox" id="filter-1">
            <feOffset dx="0" dy="2" in="SourceAlpha" result="shadowOffsetOuter1"></feOffset>
            <feGaussianBlur stdDeviation="1" in="shadowOffsetOuter1" result="shadowBlurOuter1"></feGaussianBlur>
            <feColorMatrix values="0 0 0 0 0.574776786   0 0 0 0 0.573880965   0 0 0 0 0.573880965  0 0 0 0.5 0" type="matrix" in="shadowBlurOuter1" result="shadowMatrixOuter1"></feColorMatrix>
            <feMerge>
                <feMergeNode in="shadowMatrixOuter1"></feMergeNode>
                <feMergeNode in="SourceGraphic"></feMergeNode>
            </feMerge>
        </filter>
    </defs>
    <g id="Page-1" stroke="none" stroke-width="1" fill="none" fill-rule="evenodd">
        <g id="我的-收支明细-copy-2" transform="translate(-1178.000000, -1234.000000)">
            <g id="Group-10" transform="translate(1180.000000, 1234.000000)">
                <g id="rocket" filter="url(#filter-1)">
                    <g id="Layer_1">
                        <path d="M15.3590708,61.2331926 C15.3590708,55.8355805 19.6752212,51.4599868 25,51.4599868 C30.3247788,51.4599868 34.6409292,55.8353562 34.6409292,61.2331926 C34.6409292,66.631029 25,84.8317942 25,84.8317942 C25,84.8317942 15.3590708,66.631029 15.3590708,61.2331926 Z" id="Shape" fill="#128ABC"></path>
                        <path d="M34.6409292,61.2331926 C34.6409292,55.8355805 30.3247788,51.4599868 25,51.4599868 C24.9573009,51.4599868 24.9152655,51.4626781 24.8730088,51.4631266 L24.8730088,84.5898021 C24.9550885,84.7458971 25,84.8313456 25,84.8313456 C25,84.8313456 34.6409292,66.6305805 34.6409292,61.2331926 Z" id="Shape" fill="#128ABC"></path>
                        <path d="M18.1134956,63.208153 C18.1134956,59.3526517 21.1966814,56.2271636 25,56.2271636 C28.8033186,56.2271636 31.8865044,59.3526517 31.8865044,63.208153 C31.8865044,67.0636544 25,80.0643931 25,80.0643931 C25,80.0643931 18.1134956,67.0636544 18.1134956,63.208153 Z" id="Shape" fill="#A8D3E7"></path>
                        <path d="M31.8865044,63.208153 C31.8865044,59.3526517 28.8033186,56.2271636 25,56.2271636 C24.9573009,56.2271636 24.915708,56.2329947 24.8730088,56.2336675 L24.8730088,79.8221768 C24.9526549,79.9744591 25,80.0641689 25,80.0641689 C25,80.0641689 31.8865044,67.0636544 31.8865044,63.208153 Z" id="Shape" fill="#8ACCEA"></path>
                        <path d="M40.9738938,32.1302243 C40.9738938,20.0368997 35.2522124,5.29624011 27.2683628,0.737189974 C25.8590708,-0.0677308707 24.1402655,-0.0677308707 22.7309735,0.737189974 C14.7471239,5.29668865 9.02544248,20.0373483 9.02544248,32.1302243 C9.02544248,45.5896042 13.7280973,55.5065699 15.8714602,59.8897889 L34.1272124,59.8897889 C36.2714602,55.5061214 40.9738938,47.2718865 40.9738938,32.1302243 Z" id="Shape" fill="#FFFFFF"></path>
                        <path d="M40.9738938,32.1302243 C40.9738938,20.0368997 35.2522124,5.29624011 27.2683628,0.737189974 C26.5254425,0.313087071 25.6971239,0.118641161 24.8727876,0.141741425 L24.8727876,59.8902375 L34.1276549,59.8902375 C36.2714602,55.5061214 40.9738938,47.2718865 40.9738938,32.1302243 Z" id="Shape" fill="#FFFFFF"></path>
                        <path d="M27.2685841,0.736741425 C25.859292,-0.0681794195 24.1404867,-0.0681794195 22.7311947,0.736741425 C19.3002212,2.69622691 16.2891593,6.53849604 13.9683628,11.2401847 L36.0316372,11.2401847 C33.7106195,6.53849604 30.6995575,2.69622691 27.2685841,0.736741425 Z" id="Shape" fill="#61BDDE"></path>
                        <path d="M27.2685841,0.736741425 C26.5256637,0.312638522 25.6973451,0.118416887 24.8730088,0.141292876 L24.8730088,11.2401847 L36.0318584,11.2401847 C33.7106195,6.53849604 30.6995575,2.69622691 27.2685841,0.736741425 Z" id="Shape" fill="#0D81B1"></path>
                        <g id="Group-4" transform="translate(13.157895, 15.609375)">
                            <ellipse id="Oval" fill="#128ABC" cx="11.8421053" cy="11.9670509" rx="11.7358407" ry="11.7206104"></ellipse>
                            <path d="M11.8421053,0.247292766 C11.7872064,0.247292766 11.7331609,0.250701737 11.6788309,0.251269899 L11.6788309,23.6842523 C11.7331609,23.6851046 11.7872064,23.6882294 11.8421053,23.6882294 C18.3238689,23.6882294 23.577946,18.4406868 23.577946,11.9676191 C23.577946,5.49455134 18.3238689,0.247292766 11.8421053,0.247292766 Z" id="Shape" fill="#61BCDE"></path>
                            <ellipse id="Oval" fill="#003D5A" cx="11.8421053" cy="11.9670509" rx="8.80202276" ry="8.79059982"></ellipse>
                            <path d="M11.8421053,3.17730332 C11.7872064,3.17730332 11.7337298,3.18468942 11.6788309,3.18554167 L11.6788309,20.7502646 C11.7337298,20.7511169 11.7872064,20.758503 11.8421053,20.758503 C16.7030724,20.758503 20.644128,16.8231301 20.644128,11.9679031 C20.644128,7.11324439 16.7030724,3.17730332 11.8421053,3.17730332 Z" id="Shape" fill="#003D5A"></path>
                        </g>
                        <path d="M11.4212389,40.4377968 C11.4212389,40.4377968 -4.62323009,45.1655013 1.67433628,60.1988391 C4.22654867,66.2917018 6.54778761,70.0841821 6.54778761,70.0841821 L15.2530973,70.0841821 C15.2530973,70.0841821 8.85376106,60.1988391 15.2530973,55.2585224 L11.4212389,40.4377968 Z" id="Shape" fill="#61BDDE"></path>
                        <path d="M38.5787611,40.4377968 C38.5787611,40.4377968 54.6232301,45.1655013 48.3256637,60.1988391 C45.7734513,66.2917018 43.4522124,70.0841821 43.4522124,70.0841821 L34.7469027,70.0841821 C34.7469027,70.0841821 41.1462389,60.1988391 34.7469027,55.2585224 L38.5787611,40.4377968 Z" id="Shape" fill="#0D81B1"></path>
                        <path d="M26.2676991,69.1429024 L23.7323009,69.1429024 C23.1721239,69.1429024 22.7181416,68.682467 22.7181416,68.1148285 L22.7181416,47.0381926 C22.7181416,46.4703298 23.1723451,46.0101187 23.7323009,46.0101187 L26.2679204,46.0101187 C26.8280973,46.0101187 27.2820796,46.4705541 27.2820796,47.0381926 L27.2820796,68.1148285 C27.2818584,68.6829156 26.8280973,69.1429024 26.2676991,69.1429024 Z" id="Shape" fill="#3C9BBE"></path>
                        <path d="M26.2676991,46.0098945 L24.8730088,46.0098945 L24.8730088,69.1429024 L26.2676991,69.1429024 C26.8278761,69.1429024 27.2818584,68.682467 27.2818584,68.1148285 L27.2818584,47.0381926 C27.2818584,46.4703298 26.8280973,46.0098945 26.2676991,46.0098945 Z" id="Shape" fill="#0D81B1"></path>
                    </g>
                </g>
                <path d="M26.6727395,23.698138 C27.3110661,23.698138 27.8292848,24.1615053 27.8292848,24.7328661 C27.8292848,25.3054826 27.3110661,25.7688499 26.6727395,25.7688499 C26.034413,25.7688499 25.5161943,25.3054826 25.5161943,24.7328661 C25.5161943,24.1615053 26.034413,23.698138 26.6727395,23.698138 L26.6727395,23.698138 Z M29.6052632,27.5180929 L29.6052632,23.2460723 C29.6052632,22.5842984 28.9426451,22.0468426 28.1302294,22.0468426 L21.8630229,22.0468426 C21.0533063,22.0468426 20.3947368,22.581787 20.3947368,23.2410494 L20.3947368,26.6240075 C20.3947368,30.5381428 22.3137652,32.5410448 27.0168691,33.5355893 L27.1774629,33.5694942 L28.0263158,31.6117987 L27.8589744,31.5628249 C25.0357625,30.718969 23.8697706,29.5046704 23.988529,27.5180929 L29.6052632,27.5180929 Z" id="Fill-11" fill="#E46773"></path>
            </g>
        </g>
    </g>
</svg>