<?xml version="1.0" encoding="UTF-8"?>
<svg width="16px" height="16px" viewBox="0 0 16 16" version="1.1" xmlns="http://www.w3.org/2000/svg" xmlns:xlink="http://www.w3.org/1999/xlink">
    <!-- Generator: Sketch 41.2 (35397) - http://www.bohemiancoding.com/sketch -->
    <title>Group 18</title>
    <desc>Created with Sketch.</desc>
    <defs></defs>
    <g id="Page-1" stroke="none" stroke-width="1" fill="none" fill-rule="evenodd">
        <g id="我的-会员到期-会员功能-copy" transform="translate(-511.000000, -926.000000)" fill="#E46773">
            <g id="Group-18" transform="translate(511.000000, 926.000000)">
                <path d="M10.6166659,6.27942695 C10.3029348,6.27942695 9.9876046,6.27942695 9.67387352,6.28246541 C8.9823706,6.28246541 8.34577061,5.70204418 8.25286966,4.98800681 C8.2422089,4.9135646 8.23764,4.83912242 8.23764,4.76468022 L8.23764001,1.52841979 C8.23764001,0.800633403 8.73412708,0.173192055 9.41801516,0.0319038032 C9.49873238,0.0167115168 9.58097257,0.00759615175 9.66625869,0.00759615175 C11.1679798,0.00759615175 12.669777,0.00759615175 14.1714981,0.00911538211 C14.8477713,0.00911538211 15.4782794,0.578902017 15.5772722,1.28078555 C15.587933,1.36130466 15.5925019,1.44030453 15.5925019,1.52234287 L15.5940249,2.53270576 C15.5955478,3.28935749 15.5970708,4.04745249 15.589456,4.80410422 C15.5833641,5.37844853 15.316845,5.81902478 14.7989602,6.11527434 C14.6055435,6.22617802 14.3908052,6.28087024 14.1440085,6.28087024 L10.6166659,6.27942695 Z M9.92668596,0.995170603 C9.52005392,0.995170603 9.18644812,1.3415547 9.18340218,1.76701462 C9.18187921,2.37782042 9.18340218,4.52160369 9.18340218,4.52160369 C9.18340218,4.6340266 9.20624667,4.73885335 9.2504127,4.83456475 C9.38291078,5.13233352 9.61287873,5.29033329 9.91602519,5.29185252 C10.196251,5.29489098 10.478076,5.29489098 10.7583018,5.29489098 L13.9125938,5.29337175 C14.3222717,5.29033329 14.6452168,4.96369917 14.6467397,4.54735461 C14.6528316,3.60839547 14.6528316,2.67247478 14.6467397,1.73655409 C14.6436938,1.32788164 14.3132101,0.993575419 13.9080249,0.990536958 L11.9173554,0.989017728 L9.92668596,0.995170603 Z M3.83740919,15.5336551 C3.01950006,15.5336551 2.20319005,15.5306167 1.38528091,15.5275782 C1.02890676,15.526059 0.704438751,15.3741361 0.422689965,15.0718097 C0.143987099,14.7740409 0.000828261498,14.4139078 0.000828261498,14.0006777 C0.000828261498,14.0006777 -0.000694706859,11.4968372 0.000828261498,10.7827239 C0.00387419821,10.057976 0.480562694,9.44268847 1.16292782,9.28772716 C1.23755318,9.26949642 1.3182704,9.26038105 1.40051059,9.26038105 L4.93706713,9.26190028 C5.26602789,9.26190028 5.59658775,9.26038105 5.92707147,9.25734259 C6.6094366,9.25734259 7.2308069,9.81193694 7.34198345,10.5183782 C7.36025906,10.6292818 7.36025906,10.7447432 7.36025906,10.8419738 L7.36178202,12.1698554 C7.36178202,12.7609113 7.36025906,13.3518911 7.36330499,13.9399085 C7.36482796,14.3804848 7.23842174,14.7390986 6.97494854,15.0368674 C6.68863085,15.3604631 6.35350208,15.526059 5.98189827,15.526059 C5.26610401,15.5321359 4.55327957,15.5336551 3.83740919,15.5336551 Z M1.68835123,10.2463603 C1.26192063,10.2493988 0.951159317,10.5775521 0.949636348,11.0288389 C0.945067443,11.6062217 0.946590412,12.1835285 0.946590412,12.7609113 L0.94811338,13.7621588 C0.94811338,14.2027351 1.28164304,14.5461566 1.70662682,14.5461566 L5.65902935,14.5461566 C5.765637,14.5461566 5.8707217,14.5233682 5.97123747,14.4777914 C6.27126186,14.3349839 6.41746663,14.0888689 6.41746663,13.7256973 C6.4189896,12.8399112 6.4189896,11.9510866 6.41746663,11.0653764 C6.41746663,10.8785113 6.37939248,10.7265885 6.29867526,10.6020117 C6.14637861,10.3634928 5.93011738,10.2465123 5.63763167,10.2465123 C4.98420291,10.244993 2.57167175,10.2434738 2.56862583,10.2434738 C2.27476946,10.2433219 1.98083694,10.2448411 1.68835123,10.2463603 Z M0.642073275,5.11714123 L1.58935841,5.11714123 C1.80866558,5.11714123 1.88633686,5.03662213 1.88785983,4.80721863 C1.89090577,4.36664238 1.94725553,3.94422092 2.05843208,3.5537792 C2.30667562,2.65583922 2.76516467,1.88703366 3.4169943,1.26870768 C4.06737712,0.654863415 4.83799815,0.253787115 5.70768815,0.0775566163 C5.86912259,0.0441335827 6.04274077,0.022864392 6.23768047,0.00919133593 L6.37474745,7.59709187e-05 L6.37627042,0.989169652 L6.2544331,0.995246574 C5.90719674,1.01347732 5.56902206,1.0924772 5.1898034,1.24288081 C4.78317136,1.40847672 4.40235359,1.65611096 4.05664021,1.97978258 C3.66676079,2.34591663 3.36513729,2.77745348 3.15801385,3.26208736 C2.99353347,3.64037524 2.88844879,4.05520057 2.84275979,4.49273836 C2.83209903,4.61123817 2.82753013,4.72973801 2.82753013,4.84671859 C2.82753013,5.02446832 2.90977031,5.11106434 3.08034256,5.11106434 L4.19218422,5.11106434 L2.41016117,6.95404038 L0.642073275,5.11714123 Z M9.30219356,14.5551961 L9.42555384,14.5506384 C9.64486101,14.5430422 9.83218588,14.5035423 10.0789826,14.4366962 C10.5800386,14.3045234 11.0400506,14.0614468 11.4466826,13.716506 C12.074221,13.1878145 12.4976056,12.5223165 12.707775,11.7367994 C12.8067678,11.3645884 12.8524568,11.0318014 12.8509339,10.7203596 C12.8494109,10.5198214 12.7610788,10.4271485 12.5767999,10.4256293 L11.4680042,10.4256293 L13.2698258,8.58417248 L14.1090564,9.45932402 L15.0381421,10.42411 L14.1699751,10.42411 C13.8531981,10.42411 13.8014172,10.4514562 13.7907564,10.8175902 C13.763343,11.8659338 13.4328593,12.8231237 12.8083669,13.6648522 C12.3743215,14.2498311 11.8275004,14.714715 11.1817626,15.0459068 C10.6807066,15.3026564 10.1887123,15.4560985 9.67699559,15.51231 L9.58409464,15.5183869 C9.54145158,15.5214253 9.49728555,15.5229446 9.45464249,15.5305407 L9.30539178,15.5563676 L9.30219356,14.5551961 Z" id="Shape"></path>
            </g>
        </g>
    </g>
</svg>