<?xml version="1.0" encoding="UTF-8"?>
<svg width="17px" height="20px" viewBox="0 0 17 20" version="1.1" xmlns="http://www.w3.org/2000/svg" xmlns:xlink="http://www.w3.org/1999/xlink">
    <!-- Generator: Sketch 41.2 (35397) - http://www.bohemiancoding.com/sketch -->
    <title>Group 17</title>
    <desc>Created with Sketch.</desc>
    <defs></defs>
    <g id="Page-1" stroke="none" stroke-width="1" fill="none" fill-rule="evenodd">
        <g id="我的-会员到期-会员功能-copy" transform="translate(-511.000000, -812.000000)" stroke="#E46773" fill="#E46773">
            <g id="Group-17" transform="translate(512.000000, 813.000000)">
                <g id="Group">
                    <path d="M15.423397,16.6363761 L12.5987388,11.3085138 C12.8169747,11.0807821 12.93034,10.7587593 12.9357323,10.3508776 C12.9431235,9.79094635 13.1804514,9.37965855 13.6612075,9.09356607 C13.6612283,9.0935453 13.6612492,9.0935453 13.66127,9.09352452 C14.0202912,8.87977035 14.2447315,8.61311761 14.3283449,8.30100163 C14.4119166,7.98903104 14.350893,7.64611467 14.1469396,7.28164011 C13.8734264,6.79313331 13.8734264,6.31818865 14.1469813,5.82961954 C14.350893,5.4652073 14.4119166,5.12227016 14.3283449,4.81032033 C14.2447315,4.49818357 14.0202912,4.23153085 13.6612075,4.01775589 C13.1804514,3.73166342 12.9431443,3.32037562 12.9357323,2.76046514 C12.930215,2.34292588 12.8115615,2.01533703 12.5830821,1.78683689 C12.3543112,1.55808753 12.0263119,1.4393929 11.6084324,1.43401372 C11.0490805,1.42643304 10.6381965,1.18908533 10.3522954,0.708325352 C10.1384942,0.34922997 9.8717683,0.124717471 9.55944651,0.0410393092 C9.24697898,-0.0426180697 8.90359363,0.0183803709 8.53849298,0.22256005 C8.05067886,0.49585884 7.57639778,0.49585884 7.0884379,0.222476979 C6.72358708,0.0183803709 6.38026421,-0.0426803783 6.06775504,0.0410393092 C5.75537078,0.124758997 5.48866574,0.349292279 5.27503105,0.708346115 C4.98894254,1.18906455 4.57797526,1.42643304 4.01889406,1.43401372 C3.60078551,1.43939288 3.27280702,1.55810829 3.04411943,1.78687841 C2.81572332,2.01535777 2.69713223,2.34288434 2.69159408,2.76044435 C2.68418214,3.32027178 2.44683339,3.73155956 1.96609809,4.01775589 C1.60695196,4.2314893 1.38242838,4.49812126 1.29875253,4.81027878 C1.21513915,5.12224938 1.27616277,5.46518651 1.48011611,5.82968183 C1.75367095,6.31818863 1.75367095,6.79313329 1.48007447,7.28172318 C1.27616275,7.64613543 1.21513915,7.98909332 1.29875251,8.30104316 C1.38242836,8.61317992 1.60693111,8.87983264 1.96603561,9.09354528 C2.44683337,9.37976238 2.68416128,9.79105016 2.69159406,10.3508776 C2.69525839,10.6272502 2.74845365,10.8642241 2.85024295,11.05912 L0.0368275483,16.6078603 C-0.0149311292,16.710002 -0.00641572736,16.8322274 0.0590217294,16.9262069 C0.124500834,17.0202073 0.236408688,17.0709874 0.350336073,17.0580691 L2.37027797,16.831895 L3.48698297,18.5105673 C3.54915168,18.6040484 3.65722865,18.6570924 3.76911567,18.6490755 C3.88131499,18.6412041 3.98058507,18.5737673 4.02903337,18.4725186 C4.95238244,16.5427911 6.30955919,13.7133313 6.62429611,13.0741872 C6.7744296,13.0396899 6.92949746,12.9778192 7.08856275,12.8887411 C7.57641851,12.6155046 8.05067878,12.6155046 8.53861782,12.8887827 C8.59081373,12.9180046 8.64253076,12.9442773 8.69381058,12.9676216 L11.9388051,18.6324396 C11.9946862,18.7299707 12.0984534,18.7894322 12.2098824,18.7894114 C12.2177732,18.7894114 12.2257264,18.7890999 12.2336797,18.7885184 C12.3539156,18.77938 12.4581616,18.7019949 12.5014466,18.5897178 L13.1761624,16.8398288 L15.1069736,17.0909671 C15.2227331,17.1061077 15.3372851,17.0554106 15.4038677,16.9597488 C15.4704504,16.8640662 15.4780081,16.7393278 15.423397,16.6363761 Z M8.84429809,12.3454458 C8.16027567,11.9623 7.46669685,11.9623415 6.7827577,12.3454251 C6.34826376,12.5887958 6.06700551,12.5133422 5.81208462,12.0848992 C5.41134,11.4115486 4.81076442,11.0648938 4.02699306,11.0545301 C3.5286648,11.0479671 3.32271272,10.8417105 3.31611276,10.3426323 C3.30570273,9.55945549 2.95915274,8.95921166 2.28606085,8.5584745 C1.85706342,8.30316163 1.78154903,8.02124372 2.02537282,7.58544855 C2.40800397,6.90212888 2.40800397,6.20915162 2.02541447,5.52591502 C1.78152822,5.09003678 1.85702177,4.80809808 2.2861025,4.55280598 C2.95915274,4.15208958 3.30570273,3.55182498 3.31611276,2.7686689 C3.3226919,2.2695907 3.52862315,2.06341718 4.02709715,2.05702035 C4.81084769,2.04636587 5.41138165,1.69962802 5.81208462,1.02636052 C5.97156631,0.758295505 6.14135396,0.628489476 6.35271925,0.628489476 C6.47899294,0.628489476 6.62015298,0.674866577 6.78269524,0.765813873 C7.46669685,1.14898049 8.16033813,1.14895972 8.84408989,0.765917728 C9.27893776,0.522713152 9.56027931,0.598229119 9.81515854,1.02631899 C10.2155492,1.6995865 10.8160415,2.04636589 11.6001252,2.05702037 C12.0985575,2.0634172 12.3045721,2.26956995 12.3111304,2.76866892 C12.3214988,3.55199117 12.6680696,4.15225575 13.3411198,4.552806 C13.7700132,4.80811887 13.8454651,5.09005756 13.6015997,5.52585273 C13.2190102,6.2091724 13.2190102,6.90214966 13.601558,7.58540703 C13.8454443,8.0212022 13.7699923,8.30316165 13.3411823,8.55849528 C12.6680696,8.9590663 12.3214988,9.55933088 12.3111304,10.3426739 C12.3045721,10.8417313 12.0985159,11.0479879 11.6000002,11.0545509 C10.8161248,11.0649146 10.2155908,11.4116109 9.81522098,12.0848784 C9.56021685,12.5132383 9.27887532,12.5886504 8.84429809,12.3454458 Z" id="Shape" stroke-width="0.2"></path>
                    <path d="M7.13886411,4.94583786 C6.83045648,5.18592709 6.54465945,5.34910882 6.28163957,5.43513388 L6.28163957,6.34919675 C6.78152934,6.18424964 7.21596081,5.92972599 7.58445514,5.58541811 L7.58445514,9.38790385 L8.59131349,9.38790385 L8.59131349,4.10540096 L7.77364708,4.10540096 C7.65878277,4.42567915 7.44727172,4.70574863 7.13886411,4.94583786 Z" id="Shape" stroke-width="0.3"></path>
                </g>
            </g>
        </g>
    </g>
</svg>