<?xml version="1.0" encoding="UTF-8"?>
<svg width="28px" height="28px" viewBox="0 0 28 28" version="1.1" xmlns="http://www.w3.org/2000/svg" xmlns:xlink="http://www.w3.org/1999/xlink">
    <!-- Generator: Sketch 41.2 (35397) - http://www.bohemiancoding.com/sketch -->
    <title>Group 2</title>
    <desc>Created with Sketch.</desc>
    <defs></defs>
    <g id="Page-1" stroke="none" stroke-width="1" fill="none" fill-rule="evenodd">
        <g id="Artboard-2" transform="translate(-103.000000, -275.000000)">
            <g id="Group-2" transform="translate(103.000000, 275.000000)">
                <ellipse id="Oval-3-Copy" fill="#66B8E0" cx="14" cy="14" rx="14" ry="14"></ellipse>
                <g id="出售" transform="translate(6.500000, 6.500000)" fill="#FFFFFF">
                    <path d="M7.53393649,7.559755 C7.49834465,7.57488776 7.4569811,7.60208291 7.42677613,7.65066138 C7.43274017,7.64112111 7.43908897,7.63245816 7.44582262,7.62445317 C7.47304552,7.59188478 7.50546296,7.5718174 7.53393649,7.559755 L7.53393649,7.559755 Z M7.43391139,7.59388267 C7.439175,7.58302657 7.44542545,7.57315732 7.45200499,7.56394603 C7.44542545,7.57304769 7.439175,7.58302657 7.43391139,7.59388267 L7.43391139,7.59388267 Z M7.45016629,7.56227863 C7.4469862,7.57927554 7.44117436,7.59769813 7.43404659,7.61644958 C7.44128399,7.5975885 7.44720545,7.57916603 7.45016629,7.56227863 L7.45016629,7.56227863 Z M7.43445217,7.58896455 C7.4374129,7.58008225 7.44114133,7.57229651 7.4446503,7.56429152 C7.4410316,7.57229662 7.4374129,7.58008225 7.43445217,7.58896455 L7.43445217,7.58896455 Z M7.43481268,7.57722518 C7.43656722,7.57349686 7.43777342,7.56900084 7.43974731,7.56516278 C7.43788315,7.56889121 7.43656722,7.57338712 7.43481268,7.57722518 L7.43481268,7.57722518 Z M7.43511311,7.56701054 L7.43577108,7.56591386 L7.43511311,7.56701054 Z M7.43445217,7.60571665 C7.4369743,7.59036453 7.44048337,7.57610899 7.4446503,7.56305975 C7.44037364,7.57621872 7.4369743,7.59047427 7.43445217,7.60571665 L7.43445217,7.60571665 Z M7.4344822,7.5873302 C7.43832026,7.57943484 7.44106164,7.57186846 7.44424173,7.5644117 C7.44106174,7.57197808 7.43853962,7.57965409 7.4344822,7.5873302 L7.4344822,7.5873302 L7.4344822,7.5873302 Z M7.45974188,7.5650215 L7.43510068,7.59458941 L7.43510068,7.59458941 L7.45974188,7.5650215 L7.45974188,7.5650215 Z M6.63195189,10.815527 C6.3611871,11.0865021 6.02306534,11.2835858 5.81564675,11.3434019 L5.48104004,10.7906512 C5.69913902,10.7206354 5.99429892,10.5720866 6.22307828,10.3435776 C6.47042436,10.0973731 6.49877017,9.86474827 6.34337146,9.70974012 C6.19560373,9.56191231 5.9983097,9.5899727 5.61114233,9.77346185 C5.07969226,10.030572 4.60460332,10.0690424 4.25943642,9.72390551 C3.85449847,9.31908773 3.88240865,8.67144539 4.44217449,8.11193492 C4.71026544,7.84399419 4.96337981,7.70327161 5.16783916,7.62594029 L5.48063446,8.1785258 C5.34030243,8.22787184 5.10411742,8.33004893 4.87177795,8.56219313 C4.6395286,8.79460772 4.63278389,9.01282687 4.75630671,9.13649991 C4.90677833,9.28736209 5.10764751,9.22036565 5.53017577,9.03032706 C6.10454263,8.76639711 6.51954506,8.78786302 6.85400155,9.12215426 C7.25183426,9.52018223 7.28324449,10.1641443 6.63195189,10.815527 L6.63195189,10.815527 Z M5.39082016,14.9962856 C4.86652038,14.9962856 4.37360077,14.7921718 4.00291213,14.4215432 L0.579063158,10.9976191 C-0.185252155,10.2325077 -0.185267172,8.98753043 0.578882893,8.22219364 L8.22105957,0.580272334 C8.59137266,0.209583692 9.08448756,0.00537971233 9.60940323,0.00537971233 C9.63896579,0.00537971233 9.66893392,0.0060556887 9.69848147,0.00739260965 L12.9721142,0.157098132 C13.4625252,0.179330135 13.9238393,0.382737957 14.270974,0.72981261 C14.6180336,1.07682716 14.8214565,1.537946 14.8438237,2.02825184 L14.9937846,5.30229014 C15.0187956,5.85268248 14.8098598,6.39122277 14.4205594,6.7799674 L6.77874321,14.4215132 C6.40803955,14.7921718 5.91513495,14.9962856 5.39082016,14.9962856 Z M9.60941825,0.660863357 C9.25969979,0.660863357 8.931282,0.79682408 8.68467198,1.04365943 L1.04255539,8.68550563 C0.533622731,9.19523443 0.533607713,10.0246384 1.04267556,10.5342621 L4.46637431,13.958036 C4.71325471,14.2048563 5.04156736,14.340802 5.39082014,14.340802 C5.74007293,14.340802 6.06838556,14.2048413 6.315281,13.9580059 L13.9572323,6.31632496 C14.2165657,6.05736715 14.3556509,5.69871084 14.3390069,5.33215315 L14.1890461,2.05817493 C14.1741446,1.73154472 14.0386646,1.42444261 13.8075268,1.19333491 C13.576329,0.962167118 13.2690466,0.826717124 12.9423113,0.811890783 L9.66872361,0.662185261 C9.64916546,0.661314003 9.62915666,0.660863357 9.60941825,0.660863357 Z M9.876683,7.50061485 L7.50367182,5.12770882 L8.04207691,4.58945396 L9.96467969,6.51181639 L10.9080978,5.56796262 L11.3589268,6.01885171 L9.876683,7.50061485 Z M11.5001001,5.87653683 L9.12796014,3.50412652 L10.5921029,2.03956313 L11.0319812,2.47947142 L10.1062134,3.40555461 L10.5991781,3.89835405 L11.4722049,3.02526716 L11.9084479,3.46187068 L11.0358417,4.33446187 L11.5987771,4.8980432 L12.5736055,3.92322986 L13.0142348,4.36313816 L11.5001001,5.87653683 Z M6.62613851,6.00528719 L5.92266078,6.70923058 L7.56961674,9.8077412 L8.12531171,9.25156553 L7.68582403,8.47323506 L8.36507188,7.79410739 L9.1567566,8.2194447 L9.73412778,7.64223875 L6.62613851,6.00528719 Z M7.36155222,7.99457096 L6.99918557,7.35044367 C6.90049348,7.17428507 6.75670649,6.95952089 6.65054866,6.78363268 L6.65772899,6.77633217 C6.83420304,6.88236982 7.05230202,7.01568675 7.23505511,7.1141535 L7.88648291,7.46986558 L7.36155222,7.99457096 Z" id="Shape"></path>
                </g>
            </g>
        </g>
    </g>
</svg>