<?xml version="1.0" encoding="UTF-8"?>
<svg width="16px" height="15px" viewBox="0 0 16 15" version="1.1" xmlns="http://www.w3.org/2000/svg" xmlns:xlink="http://www.w3.org/1999/xlink">
    <!-- Generator: Sketch 41.2 (35397) - http://www.bohemiancoding.com/sketch -->
    <title>记事本</title>
    <desc>Created with Sketch.</desc>
    <defs></defs>
    <g id="Page-1" stroke="none" stroke-width="1" fill="none" fill-rule="evenodd">
        <g id="我的-是会员-copy" transform="translate(-169.000000, -503.000000)" stroke="#4A4A4A" stroke-width="0.2" fill="#4A4A4A">
            <g id="记事本" transform="translate(170.000000, 504.000000)">
                <path d="M4.56992874,4.62148891 L1.88717195,4.62148891 L1.88717195,5.19811158 L4.56992874,5.19811158 L4.56992874,4.62148891 Z M1.88717195,10.3930269 L7.78848724,10.3930269 L7.78848724,9.81641942 L1.88717195,9.81641942 L1.88717195,10.3930269 Z M4.56992874,6.35313242 L1.88717195,6.35313242 L1.88717195,6.92973992 L4.56992874,6.92973992 L4.56992874,6.35313242 Z M1.88717195,8.66136825 L7.78848724,8.66136825 L7.78848724,8.08476074 L1.88717195,8.08476074 L1.88717195,8.66136825 Z M9.58781159,5.57075084 L6.27645747,1.73479422 L5.10576079,1.73479422 L1.08255887,1.73479422 C0.48928913,1.73479422 0.00907374691,2.25205198 0.00907374691,2.88983023 L0.00907374691,12.1246704 C0.00907374691,12.7624335 0.489289145,13.2796761 1.08255887,13.2796761 L8.59311547,13.2796761 C9.18641555,13.2796761 9.66658542,12.7624335 9.66658542,12.1246704 L9.66658544,5.77496189 L9.57152874,5.6727122 L9.58781159,5.57075084 Z M6.44711643,2.79178404 L8.79632497,5.48731826 L6.98385899,5.48731826 C6.68720135,5.48731826 6.44711643,5.22774851 6.44711643,4.90981542 L6.44711643,2.79178404 Z M9.12987322,12.1246856 C9.12987322,12.4435596 8.88974276,12.7021884 8.5931003,12.7021884 L1.0825437,12.7021884 C0.785901236,12.7021884 0.545801137,12.4435595 0.545801137,12.1246856 L0.545801137,2.88983024 C0.545801137,2.57094113 0.785886065,2.31140174 1.0825437,2.31140174 L5.91037387,2.31140174 L5.91037387,4.90981544 C5.91037387,5.5466073 6.39153012,6.06388023 6.98385899,6.06388023 L9.12987322,6.06388023 L9.12987322,12.1246856 Z M13.9018755,3.94105352 L13.9175817,3.83912251 L10.6063793,0.00316589718 L9.43556125,0.00316589718 L5.41144883,0.00316589718 C4.81907442,0.00316589718 4.33888938,0.520423658 4.33888938,1.15818673 L4.87470627,1.15818673 C4.87470627,0.839312788 5.11573205,0.579773401 5.41144883,0.579773401 L10.2401743,0.579773401 L10.2401743,3.17817193 C10.2401743,3.81497896 10.7213002,4.33225191 11.3136443,4.33225191 L13.4596433,4.33225189 L13.4596433,10.3930421 C13.4596433,10.711916 13.2195735,10.9705753 12.9229463,10.9705753 L10.2033432,10.9705753 L10.2033432,11.5480629 L12.9229463,11.5480629 C13.5162312,11.5480629 13.9964011,11.0308052 13.9964011,10.3930573 L13.9964011,4.0439709 L13.9018755,3.94105352 Z M11.3136291,3.75567475 C11.0169866,3.75567475 10.776932,3.49612019 10.776932,3.17815674 L10.776932,1.05992809 L13.1259281,3.75567475 L11.3136291,3.75567475 Z" id="Shape"></path>
            </g>
        </g>
    </g>
</svg>