<?xml version="1.0" encoding="UTF-8"?>
<svg width="28px" height="28px" viewBox="0 0 28 28" version="1.1" xmlns="http://www.w3.org/2000/svg" xmlns:xlink="http://www.w3.org/1999/xlink">
    <!-- Generator: Sketch 41.2 (35397) - http://www.bohemiancoding.com/sketch -->
    <title>tijiao</title>
    <desc>Created with Sketch.</desc>
    <defs></defs>
    <g id="Page-1" stroke="none" stroke-width="1" fill="none" fill-rule="evenodd">
        <g id="我的-收支明细-copy-2" transform="translate(-508.000000, -749.000000)">
            <g id="tijiao" transform="translate(508.000000, 749.000000)">
                <ellipse id="Oval-3-Copy-5" fill="#66B8E0" cx="14" cy="14" rx="14" ry="14"></ellipse>
                <g id="写" transform="translate(6.500000, 6.500000)" fill="#FFFFFF">
                    <path d="M3.87011719,7.72851562 L2.79785156,11.512207 C2.74658203,11.6953125 2.79638672,11.8916016 2.9296875,12.027832 C3.02783203,12.1274414 3.16552734,12.1845703 3.3046875,12.1845703 C3.3515625,12.1845703 3.3984375,12.1787109 3.44238281,12.1669922 L7.26416016,11.1342773 C7.35351562,11.1108398 7.43408203,11.0625 7.5,10.9980469 L14.6879883,3.81005859 C14.7875977,3.71044922 14.8432617,3.57714844 14.8432617,3.43652344 C14.8432617,3.29589844 14.7875977,3.16259766 14.6879883,3.06298828 L11.9399414,0.310546875 C11.840332,0.2109375 11.7070312,0.155273438 11.5664062,0.155273438 C11.4257812,0.155273438 11.2924805,0.2109375 11.1928711,0.310546875 L4.00488281,7.5 C3.94189453,7.56298828 3.89501953,7.64208984 3.87011719,7.72851562 Z M4.66552734,8.36132812 L6.63574219,10.331543 L3.89648438,11.0727539 L4.66552734,8.36132812 Z M11.5664063,1.26416016 L13.7373047,3.43505859 L7.40185547,9.77197266 L5.22949219,7.59960937 L11.5664063,1.26416016 Z M14.53125,8.98681641 C14.2719727,8.98681641 14.0625,9.19628906 14.0625,9.45556641 L14.0625,12.4658203 C14.0625,13.3461914 13.3447266,14.0625 12.4628906,14.0625 L2.54443359,14.0625 C1.66259766,14.0625 0.944824219,13.3461914 0.944824219,12.4658203 L0.944824219,2.38623047 C1.01953125,1.63623047 1.63916016,1.01953125 2.39208984,0.944824219 L7.54394531,0.944824219 C7.80322266,0.944824219 8.01269531,0.735351562 8.01269531,0.476074219 C8.01269531,0.216796875 7.80322266,0.00732421875 7.54394531,0.00732421875 L3.01318359,0.00732421875 L3.01318359,0 L2.54443359,0 C1.87353516,0 1.23779297,0.265136719 0.752929688,0.747070312 C0.268066406,1.23046875 0,1.86621094 0,2.53710938 L0,3.00585938 L0.00732421875,3.00585938 L0.00732421875,12.4658203 C0.00732421875,13.8632812 1.14550781,15 2.54443359,15 L12.4643555,15 C13.1381836,15 13.7739258,14.7363281 14.2543945,14.2573242 C14.7348633,13.7768555 15,13.1411133 15,12.4672852 L15,9.45556641 C15,9.19775391 14.7905273,8.98681641 14.53125,8.98681641 Z" id="Shape"></path>
                </g>
            </g>
        </g>
    </g>
</svg>