<?xml version="1.0" encoding="UTF-8"?>
<svg width="28px" height="29px" viewBox="0 0 28 29" version="1.1" xmlns="http://www.w3.org/2000/svg" xmlns:xlink="http://www.w3.org/1999/xlink">
    <!-- Generator: Sketch 41.2 (35397) - http://www.bohemiancoding.com/sketch -->
    <title>Group 18</title>
    <desc>Created with Sketch.</desc>
    <defs></defs>
    <g id="Page-1" stroke="none" stroke-width="1" fill="none" fill-rule="evenodd">
        <g id="Artboard-2" transform="translate(-101.000000, -1669.000000)">
            <g id="Group-18" transform="translate(101.000000, 1669.000000)">
                <g id="Group-6-Copy-6" fill="#66B8E0">
                    <ellipse id="Oval-3-Copy-4" cx="14" cy="14.5" rx="14" ry="14"></ellipse>
                </g>
                <g id="Group" transform="translate(8.000000, 7.000000)" fill="#FFFFFF">
                    <path d="M10.6580528,4.70240833 L6.28167222,0.325951389 C5.84961667,-0.106180556 5.14638056,-0.106211111 4.71437083,0.325951389 L0.337868056,4.70240833 C0.0148194444,5.02541111 -0.0772291667,5.48814444 0.0975944444,5.91019306 C0.272372222,6.33227222 0.664736111,6.5943625 1.12151111,6.5943625 L2.68595556,6.5943625 L2.68595556,9.94236528 L3.46978194,9.94236528 L3.46978194,5.81042917 L1.12149583,5.81042917 C0.920363889,5.81042917 0.841225,5.65726944 0.821669444,5.61021389 C0.802266667,5.56323472 0.749863889,5.39889167 0.892054167,5.25665556 L5.26860278,0.880183333 C5.32986667,0.818919444 5.41122083,0.785155556 5.49792222,0.785155556 C5.58462361,0.785155556 5.66620694,0.818919444 5.72731806,0.880183333 L10.1036986,5.25664028 C10.2461639,5.39887639 10.1936083,5.56321944 10.1741292,5.61019861 C10.1547264,5.65725417 10.0756639,5.81041389 9.87437917,5.81041389 L7.52610833,5.81041389 L7.52610833,10.7677319 C7.52610833,10.7964542 7.50258056,10.8199819 7.47370556,10.8199819 L2.70690139,10.8199819 L2.70690139,11.6039611 L7.47370556,11.6039611 C7.93486528,11.6039611 8.3100875,11.2287389 8.3100875,10.7677319 L8.3100875,6.5943625 L9.87437917,6.5943625 C10.3312611,6.5943625 10.7235944,6.33227222 10.8982958,5.91019306 C11.0732264,5.48814444 10.9811778,5.02530417 10.6580528,4.70240833 Z" id="Shape"></path>
                    <path d="M8.56231689,13.2786476 C8.56231689,13.5318529 8.35706178,13.737108 8.10385644,13.737108 L3.06063511,13.737108 C2.80742978,13.737108 2.60217467,13.5318529 2.60217467,13.2786476 L2.60217467,13.2786476 C2.60217467,13.0254422 2.807508,12.8201871 3.06063511,12.8201871 L8.10385644,12.8201871 C8.35706178,12.8201871 8.56231689,13.0254422 8.56231689,13.2786476 L8.56231689,13.2786476 Z" id="Shape"></path>
                    <path d="M7.77547956,15.1159311 C7.77547956,15.3223596 7.62099067,15.4898333 7.43036311,15.4898333 L3.63384756,15.4898333 C3.44322,15.4898333 3.28865289,15.3222813 3.28865289,15.1159311 L3.28865289,15.1159311 C3.28865289,14.9093462 3.44322,14.7419507 3.63384756,14.7419507 L7.43036311,14.7419507 C7.62099067,14.7419507 7.77547956,14.9093462 7.77547956,15.1159311 L7.77547956,15.1159311 Z" id="Shape"></path>
                </g>
            </g>
        </g>
    </g>
</svg>