<?xml version="1.0" encoding="UTF-8"?>
<svg width="28px" height="29px" viewBox="0 0 28 29" version="1.1" xmlns="http://www.w3.org/2000/svg" xmlns:xlink="http://www.w3.org/1999/xlink">
    <!-- Generator: Sketch 41.2 (35397) - http://www.bohemiancoding.com/sketch -->
    <title>Group 6 Copy</title>
    <desc>Created with Sketch.</desc>
    <defs></defs>
    <g id="Page-1" stroke="none" stroke-width="1" fill="none" fill-rule="evenodd">
        <g id="Artboard-2" transform="translate(-101.000000, -1169.000000)">
            <g id="Group-6-Copy" transform="translate(101.000000, 1169.000000)">
                <ellipse id="Oval-3-Copy-4" fill="#66B8E0" cx="14" cy="14.5" rx="14" ry="14"></ellipse>
                <ellipse id="Oval-3-Copy-4" stroke="#FFFFFF" stroke-width="0.5" cx="14" cy="14.5" rx="12.5" ry="12.5"></ellipse>
                <path d="M16.1793407,10.1860256 C17.010989,10.1860256 17.6861538,10.7994427 17.6861538,11.5558242 C17.6861538,12.3138681 17.010989,12.9272852 16.1793407,12.9272852 C15.3476923,12.9272852 14.6725275,12.3138681 14.6725275,11.5558242 C14.6725275,10.7994427 15.3476923,10.1860256 16.1793407,10.1860256 L16.1793407,10.1860256 Z M20,15.2429762 L20,9.58756995 C20,8.71149732 19.1367033,8 18.0782418,8 L9.91296703,8 C8.85802198,8 8,8.70817257 8,9.58092044 L8,14.0593638 C8,19.2409927 10.5002198,21.8924839 16.6276923,23.2090864 L16.8369231,23.2539706 L17.9428571,20.662325 L17.7248352,20.5974923 C14.0465934,19.480375 12.5274725,17.8728565 12.6821978,15.2429762 L20,15.2429762 Z" id="Fill-11" fill="#FFFFFF"></path>
            </g>
        </g>
    </g>
</svg>