<?xml version="1.0" encoding="UTF-8"?>
<svg width="18px" height="14px" viewBox="0 0 18 14" version="1.1" xmlns="http://www.w3.org/2000/svg" xmlns:xlink="http://www.w3.org/1999/xlink">
    <!-- Generator: Sketch 41.2 (35397) - http://www.bohemiancoding.com/sketch -->
    <title>iconfont-vip (1)</title>
    <desc>Created with Sketch.</desc>
    <defs></defs>
    <g id="Page-1" stroke="none" stroke-width="1" fill="none" fill-rule="evenodd">
        <g id="我的-是会员-copy" transform="translate(-338.000000, -386.000000)" fill="#FFFFFF">
            <path d="M350.870036,399.541718 L342.289964,399.541718 L339.305546,392.005301 C338.574972,391.938046 338,391.300057 338,390.513843 C338,389.682848 338.640113,389.009307 339.42994,389.009307 C340.219815,389.009307 340.859952,389.682848 340.859952,390.513843 C340.859952,390.833144 340.764084,391.127918 340.602954,391.371372 C341.107904,392.210606 341.990512,392.770906 343.004886,392.770906 C344.336158,392.770906 345.444821,391.809508 345.763825,390.513843 L345.864886,390.513843 L345.864886,388.800484 C345.439149,388.539916 345.14994,388.060209 345.14994,387.504606 C345.14994,386.673517 345.790173,386 346.58,386 C347.369827,386 348.010012,386.673517 348.010012,387.504606 C348.010012,388.060209 347.720635,388.539916 347.294898,388.800484 L347.294898,390.513843 L347.39608,390.513843 C347.715131,391.809461 348.824009,392.770906 350.154898,392.770906 C351.169392,392.770906 352.051976,392.210583 352.556998,391.371372 C352.395701,391.127918 352.3,390.833144 352.3,390.513843 C352.3,389.682848 352.940137,389.009213 353.72994,389.009213 C354.519887,389.009213 355.16,389.682848 355.16,390.513843 C355.16,391.300057 354.584956,391.937833 353.854359,392.005301 L350.870036,399.541718" id="iconfont-vip-(1)"></path>
        </g>
    </g>
</svg>