<?xml version="1.0" encoding="UTF-8"?>
<svg width="20px" height="20px" viewBox="0 0 20 20" version="1.1" xmlns="http://www.w3.org/2000/svg" xmlns:xlink="http://www.w3.org/1999/xlink">
    <!-- Generator: Sketch 41.2 (35397) - http://www.bohemiancoding.com/sketch -->
    <title>Shape</title>
    <desc>Created with Sketch.</desc>
    <defs></defs>
    <g id="Page-1" stroke="none" stroke-width="1" fill="none" fill-rule="evenodd">
        <g id="支付-扫码-copy" transform="translate(-930.000000, -171.000000)" fill="#DCDBDB">
            <g id="Group" transform="translate(0.000000, 60.000000)">
                <g id="删除" transform="translate(930.000000, 111.000000)">
                    <path d="M18.4457962,5.86330656 C17.9622483,4.72004188 17.2701224,3.69344275 16.3886068,2.811908 C15.507168,1.93039243 14.480588,1.23826649 13.3372274,0.754718541 C12.153245,0.253958617 10.8959244,0 9.60103291,0 C8.30527795,0 7.04795736,0.253958617 5.86387895,0.754718541 C4.72061428,1.23826647 3.69399596,1.93039243 2.81248039,2.811908 C1.9310608,3.69344275 1.23885809,4.7200227 0.755271769,5.86330656 C0.254511827,7.04728902 0.00059159375,8.30470555 0.00059159375,9.60094021 C0.00059159375,10.8967144 0.254531009,12.1541309 0.755271769,13.3381134 C1.23885809,14.481378 1.9310608,15.5080731 2.81248041,16.3895119 C3.69399598,17.2710275 4.7206143,17.9631534 5.86387897,18.4467014 C7.04795738,18.9475572 8.30527797,19.2014199 9.60103293,19.2014199 C10.8959436,19.2014199 12.153245,18.9475572 13.3373234,18.4467014 C14.4805881,17.9631534 15.5071872,17.2710275 16.3886068,16.3895119 C17.2701224,15.5080731 17.9622483,14.481378 18.4457963,13.3381134 C18.9466522,12.1541309 19.2005916,10.8967144 19.2005916,9.60094021 C19.2005148,8.30468635 18.9466521,7.04738495 18.4457962,5.86330656 Z M13.5654736,13.6633185 C13.5653009,13.6635296 13.5652049,13.6636255 13.5649939,13.6638174 C13.2984668,13.9303636 12.8662479,13.9306515 12.5994139,13.6642204 L9.51746739,10.5881071 L6.44135417,13.6700536 C6.44118147,13.6702455 6.4409704,13.6704566 6.44087445,13.6705334 C6.17434744,13.9370988 5.74222443,13.9373674 5.47529447,13.6710323 C5.20798072,13.4041982 5.20757777,12.9717107 5.47400884,12.7046655 L8.55010288,9.62269987 L5.46817556,6.54652908 C5.20114965,6.28000206 5.20076588,5.84747611 5.4672929,5.58056533 C5.46738885,5.58037345 5.46756153,5.58016238 5.46777261,5.58006643 C5.73393505,5.31382723 6.16605805,5.31363535 6.43296883,5.57997048 L9.51491533,8.6560837 L12.5911053,5.57411802 L12.5915082,5.57361912 C12.8580544,5.30709211 13.2902542,5.30680427 13.557472,5.57354237 C13.8244979,5.84006939 13.8248817,6.27257616 13.5583547,6.53960207 L10.4821647,9.62152937 L13.5642263,12.6976426 C13.8311179,12.9641888 13.831636,13.3966764 13.5654736,13.6633185 Z" id="Shape"></path>
                </g>
            </g>
        </g>
    </g>
</svg>