<?xml version="1.0" encoding="UTF-8"?>
<svg width="28px" height="28px" viewBox="0 0 28 28" version="1.1" xmlns="http://www.w3.org/2000/svg" xmlns:xlink="http://www.w3.org/1999/xlink">
    <!-- Generator: Sketch 41.2 (35397) - http://www.bohemiancoding.com/sketch -->
    <title>Group 5</title>
    <desc>Created with Sketch.</desc>
    <defs></defs>
    <g id="Page-1" stroke="none" stroke-width="1" fill="none" fill-rule="evenodd">
        <g id="Artboard-2" transform="translate(-101.000000, -1771.000000)">
            <g id="Group-5" transform="translate(101.000000, 1771.000000)">
                <ellipse id="Oval-3-Copy-3" fill="#66B8E0" cx="14" cy="14" rx="14" ry="14"></ellipse>
                <g id="绑定" transform="translate(7.000000, 8.000000)" fill="#FFFFFF">
                    <g id="Group">
                        <path d="M13.2604996,0.739842198 C12.7889201,0.26890098 12.1624642,0.00964483911 11.4960968,0.00964483911 L11.4942705,0.00964483911 C10.9491447,0.0101235594 10.4311289,0.18319149 9.99625158,0.510160624 L9.97616287,0.525249332 L7.17533834,3.33008094 L7.17292698,3.33252775 C6.69345737,3.82206832 6.42952036,4.4430632 6.42976858,5.08146949 C6.4302473,5.4287401 6.50056669,5.76476953 6.63879407,6.08019608 L6.63879407,6.08019608 C6.63884727,6.08033792 6.63891819,6.08047977 6.6389891,6.08062161 C6.6390423,6.08074572 6.63909549,6.08088758 6.63914868,6.08101169 L6.63914868,6.08101169 C6.65225156,6.11104725 6.66608139,6.14106507 6.68024811,6.17026728 L7.31821113,5.86044359 C7.3081579,5.83971658 7.29831744,5.81835126 7.28900891,5.79695049 L6.9632632,5.93884812 L7.2886543,5.79613489 C7.18970009,5.57051361 7.13936305,5.32975043 7.13902617,5.08083119 C7.13884886,4.63004961 7.33044522,4.18584607 7.67851371,3.82992294 L10.4417849,1.06273328 C10.7489667,0.838016245 11.1125849,0.719203807 11.4949088,0.718866941 L11.4962032,0.718866941 C11.9732082,0.718866941 12.4217735,0.904505832 12.7593809,1.24167003 C13.0973075,1.57913565 13.283567,2.02796686 13.2839039,2.50555704 C13.2842585,2.88804052 13.1659248,3.2517651 12.9415092,3.55901785 L10.3732209,6.13085228 L10.3582031,6.15087008 C10.0168722,6.60567649 9.49566488,6.8668298 8.92825173,6.86732626 L8.92699285,6.86732626 C8.67896015,6.86732626 8.4390303,6.81757433 8.21379908,6.71943572 L7.93048257,7.36959737 C8.24560769,7.50692051 8.58083925,7.57654838 8.9270283,7.57654838 L8.92880136,7.57654838 C9.32249056,7.57619377 9.71470812,7.48176084 10.063078,7.30346241 C10.3919975,7.13509307 10.6842325,6.8912625 10.9097474,6.59728995 L13.4794364,4.02400162 L13.4944542,4.00401928 C13.8211574,3.56882286 13.9935693,3.05043469 13.9930905,2.50502515 C13.9926296,1.83805491 13.7324514,1.21117348 13.2604996,0.739842198 Z" id="Shape"></path>
                        <path d="M2.50408233,14.0082355 C1.83769723,14.0082533 1.2112236,13.7489971 0.739644084,13.2780559 C0.26763904,12.8067069 0.00747863366,12.1798432 0.00707083168,11.5128907 C0.00660983663,10.8747504 0.270475928,10.2537377 0.750087391,9.76432129 L0.752427817,9.7619454 L3.55344737,6.95695419 L3.57350062,6.94186549 C4.00820059,6.61489635 4.52616323,6.4418107 5.07139547,6.44133198 L5.07316853,6.44133198 C5.41969445,6.44133198 5.75508559,6.51113717 6.07021071,6.6488149 L5.7862559,7.29871058 C5.56123745,7.20039467 5.32134306,7.15055408 5.07322171,7.15055408 L5.07194511,7.15055408 C4.68960346,7.15089096 4.32607393,7.2697034 4.01906941,7.49436722 L1.25554998,10.2618229 C0.907463765,10.617551 0.71595605,11.0616304 0.716275208,11.512412 C0.716576624,11.9899312 0.902836089,12.4387447 1.24078043,12.7762103 C1.57840562,13.1133745 2.02700634,13.2989957 2.50401139,13.2989957 L2.50530572,13.2989957 C3.0729671,13.2984815 3.59415671,13.0373636 3.9352039,12.5826281 L3.95025714,12.5625394 L6.51868731,9.9907582 C6.74301427,9.68320403 6.86136571,9.31942626 6.86120613,8.93704917 C6.86085152,8.68802354 6.8106386,8.44761499 6.71200352,8.22289796 L7.36142048,7.93782613 C7.49961242,8.25264983 7.56993179,8.58862607 7.57042823,8.93641087 C7.570641,9.48189132 7.39824684,10.0001199 7.07188054,10.4354936 L7.05679183,10.4556001 L4.48683687,13.0289239 C4.26146381,13.3229142 3.96924656,13.5667625 3.64022069,13.7351495 C3.29186851,13.9134657 2.89959777,14.0078809 2.5058731,14.0082355 C2.50530574,14.0082355 2.50464969,14.0082355 2.50408233,14.0082355 Z" id="Shape"></path>
                        <polygon id="Shape" points="8.67584048 4.82881975 9.17767351 5.32994357 5.32426073 9.18880981 4.8224277 8.687686 8.67584048 4.82881975"></polygon>
                    </g>
                </g>
            </g>
        </g>
    </g>
</svg>