<?xml version="1.0" encoding="UTF-8"?>
<svg width="18px" height="17px" viewBox="0 0 18 17" version="1.1" xmlns="http://www.w3.org/2000/svg" xmlns:xlink="http://www.w3.org/1999/xlink">
    <!-- Generator: Sketch 41.2 (35397) - http://www.bohemiancoding.com/sketch -->
    <title>资料</title>
    <desc>Created with Sketch.</desc>
    <defs></defs>
    <g id="Page-1" stroke="none" stroke-width="1" fill="none" fill-rule="evenodd">
        <g id="设置" transform="translate(-595.000000, -95.000000)" fill="#0E8ABE">
            <g id="资料" transform="translate(595.000000, 95.000000)">
                <path d="M16.0654041,16.8124833 L5.24907975,16.8124833 C4.18383569,16.8124833 3.28247533,15.911123 3.28247533,14.8458789 L3.28247533,4.02955454 C3.28247533,2.96431049 4.18383569,2.06295013 5.24907975,2.06295013 L16.0244332,2.06295013 C17.1306482,2.06295013 17.9910376,2.96431049 17.9910376,4.02955456 L17.9910376,14.804908 C18.0320085,15.911123 17.1306482,16.8124833 16.0654041,16.8124833 Z M5.24907975,2.88236864 C4.59354495,2.88236864 4.10189383,3.41499066 4.10189383,4.02955456 L4.10189383,14.804908 C4.10189383,15.4604428 4.63451586,15.9520939 5.24907975,15.9520939 L16.0244332,15.9520939 C16.679968,15.9520939 17.1716191,15.4194719 17.1716191,14.804908 L17.1716191,4.02955454 C17.1716191,3.37401974 16.6389971,2.88236862 16.0244332,2.88236862 L5.24907975,2.88236864 Z M2.34014404,14.1493732 C1.23392904,14.1493732 0.00480126994,13.2889837 0.00480126994,12.1827687 L0.00480128834,1.20256067 C0.00480128834,0.91576419 0.0867431411,0.66993865 0.291597773,0.465084018 C0.783248871,0.0144038466 1.72558016,0.0144038466 2.46305682,0.0144038466 L2.70888237,0.0144038466 L13.6890904,0.0144038466 C15.1640437,0.0144038466 15.4918111,0.874793282 15.4918111,1.61226994 C15.4918111,1.8580955 15.3279274,2.0219792 15.0821019,2.0219792 C14.8362763,2.0219792 14.6723926,1.8580955 14.6723926,1.61226994 C14.6723926,1.12061884 14.5085089,0.833822356 13.6890904,0.833822356 L2.46305682,0.833822356 C1.9714057,0.833822356 1.11101626,0.833822356 0.865190724,1.03867699 C0.865190724,1.07964791 0.824219798,1.12061884 0.824219798,1.20256067 L0.824219798,12.1827687 C0.824219798,12.7973326 1.68460923,13.3299546 2.34014404,13.3299546 C2.5859696,13.3299546 2.7498533,13.4938383 2.7498533,13.7396639 C2.7498533,13.9854895 2.5859696,14.1493732 2.34014404,14.1493732 Z M17.21259,6.16004267 L5.33102161,6.16004267 C5.08519605,6.16004267 4.92131234,5.99615897 4.92131234,5.75033341 C4.92131234,5.50450785 5.08519605,5.34062415 5.33102161,5.34062415 L17.21259,5.34062415 C17.4584156,5.34062415 17.6222993,5.50450785 17.6222993,5.75033341 C17.6222993,5.99615897 17.4584156,6.16004267 17.21259,6.16004267 Z M17.21259,10.6668445 L5.33102161,10.6668445 C5.08519605,10.6668445 4.92131234,10.5029608 4.92131234,10.2571352 C4.92131234,10.0113097 5.08519605,9.84742596 5.33102161,9.84742596 L17.21259,9.84742596 C17.4584156,9.84742596 17.6222993,10.0113097 17.6222993,10.2571352 C17.6222993,10.5029608 17.4584156,10.6668445 17.21259,10.6668445 Z M11.8863697,13.5348093 L5.33102161,13.5348093 C5.08519605,13.5348093 4.92131234,13.3709256 4.92131234,13.1251 C4.92131234,12.8792745 5.08519605,12.7153907 5.33102161,12.7153907 L11.8863697,12.7153907 C12.1321953,12.7153907 12.296079,12.8792745 12.296079,13.1251 C12.296079,13.3709256 12.1321953,13.5348093 11.8863697,13.5348093 Z" id="Shape"></path>
            </g>
        </g>
    </g>
</svg>