<?xml version="1.0" encoding="UTF-8"?>
<svg width="20px" height="20px" viewBox="0 0 20 20" version="1.1" xmlns="http://www.w3.org/2000/svg" xmlns:xlink="http://www.w3.org/1999/xlink">
    <!-- Generator: Sketch 41.2 (35397) - http://www.bohemiancoding.com/sketch -->
    <title>Group 13</title>
    <desc>Created with Sketch.</desc>
    <defs></defs>
    <g id="Page-1" stroke="none" stroke-width="1" fill="none" fill-rule="evenodd">
        <g id="我的-会员到期-会员功能-copy" transform="translate(-512.000000, -589.000000)" fill="#E46773">
            <g id="Group-13" transform="translate(512.000000, 589.000000)">
                <path d="M4.66713695,11.1854657 C4.61770648,11.1854657 4.56668148,11.1758845 4.51565648,11.156722 C4.28604396,11.0752817 4.16804864,10.8213796 4.25096427,10.5914306 L6.75118942,3.68816762 C6.79902536,3.55403066 6.91223708,3.4502342 7.04936678,3.41190936 L19.1981011,0.0393228891 C19.3974175,-0.0149706431 19.5967339,0.0696633924 19.6971894,0.2421252 C19.7976449,0.416183877 19.7689433,0.636551743 19.6286245,0.778673048 L15.7666696,4.64469191 C15.5944602,4.81715372 15.3138227,4.81715372 15.1400188,4.64469191 C14.9662149,4.4722301 14.9678094,4.19118123 15.1400188,4.01712255 L17.8140479,1.34077079 L7.50540274,4.20555305 L5.0817151,10.8932387 C5.01952838,11.0736849 4.847319,11.1854657 4.66713695,11.1854657 Z" id="Shape"></path>
                <path d="M9.05847627,15.5832418 C8.87829423,15.5832418 8.70767938,15.471461 8.64230359,15.2910148 C8.55779343,15.0610657 8.67578875,14.8055668 8.90699579,14.7241265 L15.5848931,12.2952893 L18.4406987,1.97153389 L15.7682642,4.64788565 C15.5960548,4.82034746 15.3154173,4.82034746 15.1416133,4.64788565 C14.9678094,4.47542384 14.969404,4.19437497 15.1416133,4.02031629 L19.0035683,0.154297428 C19.1454815,0.012176123 19.3671214,-0.0165675117 19.5393308,0.0856320783 C19.7131347,0.187831668 19.7976449,0.393827717 19.7418363,0.587048817 L16.3757806,12.7535906 C16.3375119,12.8925182 16.2338673,13.0027021 16.0999267,13.0522051 L9.20995675,15.556095 C9.16052628,15.5736606 9.10790674,15.5832418 9.05847627,15.5832418 Z" id="Shape"></path>
                <path d="M11.1425287,10.9235792 C10.5366068,10.9235792 9.96895367,10.6872427 9.54161927,10.2592819 C9.11269034,9.8313211 8.87829423,9.26283588 8.87829423,8.65762269 C8.87829423,8.05240949 9.11269034,7.4823274 9.54161927,7.05436662 C10.3962881,6.19684818 11.8871749,6.19684818 12.7418437,7.05436662 C13.625214,7.93743495 13.625214,9.37621355 12.7434382,10.2608788 C12.3145093,10.6872427 11.7468561,10.9235792 11.1425287,10.9235792 Z M11.1425287,7.27633135 C10.774192,7.27633135 10.4281787,7.42004953 10.1682701,7.68033911 C9.90517241,7.94222556 9.76166459,8.28714917 9.76166459,8.65762269 C9.76166459,9.02490246 9.90517241,9.37301982 10.1666756,9.6333094 C10.6864928,10.1554854 11.5953756,10.1554854 12.1167874,9.6333094 C12.6541444,9.09516468 12.6525499,8.21848382 12.1151929,7.67874224 C11.8552842,7.42004953 11.5092709,7.27633135 11.1425287,7.27633135 Z" id="Shape"></path>
                <path d="M8.56098249,19.1889711 C7.99014027,19.1889711 7.45118868,18.9638126 7.04777225,18.558208 L1.25324535,12.7583812 C0.848234388,12.3527766 0.625,11.8162288 0.625,11.2413561 C0.625,10.6680802 0.848234388,10.1299355 1.25324535,9.72592778 C2.06326727,8.9163154 3.47123845,8.91791227 4.27647677,9.72592778 L10.0725982,15.5305451 C10.4760146,15.9345529 10.7008436,16.4726976 10.7008436,17.0459734 C10.7008436,17.6160555 10.4776092,18.1542002 10.0741927,18.5614017 C9.66918178,18.9654095 9.13182471,19.1889711 8.56098249,19.1889711 Z" id="Shape"></path>
            </g>
        </g>
    </g>
</svg>