<?xml version="1.0" encoding="UTF-8"?>
<svg width="105px" height="104px" viewBox="0 0 105 104" version="1.1" xmlns="http://www.w3.org/2000/svg" xmlns:xlink="http://www.w3.org/1999/xlink">
    <!-- Generator: Sketch 41.2 (35397) - http://www.bohemiancoding.com/sketch -->
    <title>Group 2</title>
    <desc>Created with Sketch.</desc>
    <defs></defs>
    <g id="Page-1" stroke="none" stroke-width="1" fill="none" fill-rule="evenodd">
        <g id="充值提示" transform="translate(-588.000000, -175.000000)">
            <g id="Group-2" transform="translate(588.000000, 174.000000)">
                <g id="Group-30-Copy" transform="translate(0.274194, 0.274194)">
                    <g id="Group-27" transform="translate(0.400246, 0.223084)">
                        <g id="Group-9-Copy-4">
                            <path d="M104.291383,52.301297 C104.291383,80.8491204 80.9449466,103.991731 52.1456915,103.991731 C23.3464364,103.991731 0,80.8491204 0,52.301297 C0,23.7534736 23.3464364,0.610863106 52.1456915,0.610863106 C80.9449466,0.610863106 104.291383,23.7534736 104.291383,52.301297" id="Fill-45" fill="#F0D75A"></path>
                            <path d="M95.8826198,52.3761123 C95.8826198,76.2792165 76.3340156,95.6571517 52.2203876,95.6571517 C28.1067596,95.6571517 8.55893351,76.2792165 8.55893351,52.3761123 C8.55893351,28.4730081 28.1067596,9.09507291 52.2203876,9.09507291 C76.3340156,9.09507291 95.8826198,28.4730081 95.8826198,52.3761123" id="Fill-52" fill="#CFA02C"></path>
                            <path d="M94.3692447,52.7825831 C94.3692447,75.632874 75.6827586,94.1562178 52.6312164,94.1562178 C29.5804523,94.1562178 10.8931881,75.632874 10.8931881,52.7825831 C10.8931881,29.9330635 29.5804523,11.4089483 52.6312164,11.4089483 C75.6827586,11.4089483 94.3692447,29.9330635 94.3692447,52.7825831" id="Fill-53" fill="#E8B432"></path>
                            <g id="Group-28" transform="translate(2.723965, 4.463232)">
                                <g id="金币" transform="translate(0.000000, 0.372923)">
                                    <g id="Group-23">
                                        <path d="M12.8511683,84.0224013 C11.6214091,82.8068669 10.4545751,81.5305943 9.35221993,80.1989652 L15.5787011,74.490336 C16.6655192,75.8350354 17.8323532,77.1151522 19.0706578,78.3206917 L12.8511683,84.0224013 M82.9660849,19.7505408 C81.8450852,18.4350574 80.6432928,17.186463 79.3731372,16.0132147 L85.6003952,10.3038167 C86.8573443,11.4924417 88.0529219,12.7433427 89.1847975,14.0503689 L82.9660849,19.7505408" id="Fill-49" fill="#F4E27D"></path>
                                        <path d="M28.0969191,94.5393492 C24.1536105,92.7887029 20.4705478,90.5675272 17.1207554,87.9465553 L23.4249219,82.1679617 C26.9114406,84.7297331 30.7980389,86.787915 34.9751804,88.2348699 L28.0969191,94.5393492 M91.5169118,36.4043612 C90.3772677,32.1565261 88.5998268,28.1670208 86.2917949,24.5404075 L92.5959614,18.7610451 C94.9762406,22.2592623 96.9323579,26.0627086 98.3951731,30.099113 L91.5169118,36.4043612" id="Fill-50" fill="#F4E27D"></path>
                                        <path d="M6.17022782,76.5254527 C3.6136028,72.800428 1.53862699,68.7255816 0.0299774073,64.3900988 L6.95718046,58.040258 C8.10303943,62.6079301 9.98457871,66.8888254 12.4697332,70.7514723 L6.17022782,76.5254527 M75.3933165,13.0708681 C71.6807334,10.3161181 67.5090299,8.13338439 63.0126016,6.65644477 L69.9366972,0.308910443 C74.1775407,2.12644571 78.1247336,4.48524359 81.6912682,7.29842529 L75.3933165,13.0708681" id="Fill-51" fill="#F4E27D"></path>
                                        <path d="M13.89759,69.2814522 C11.4318569,65.3757504 9.61091216,61.033348 8.57536639,56.3964803 L61.3742175,7.99729989 C65.9467774,9.37121509 70.1845135,11.500899 73.942931,14.2402721 L13.89759,69.2814522" id="Fill-54" fill="#F0BD3F"></path>
                                        <path d="M19.8311974,76.9321685 C18.5890086,75.7281667 17.4268357,74.4465122 16.3439018,73.0971999 L77.2973846,17.2233672 C78.5729781,18.3935401 79.7739937,19.6405969 80.8934396,20.9583868 L19.8311974,76.9321685" id="Fill-55" fill="#F0BD3F"></path>
                                    </g>
                                    <path d="M36.6096802,86.5772531 C32.3641756,85.2225589 28.4177596,83.2128139 24.8892908,80.6671881 L84.874814,25.6805956 C87.1634246,29.3471886 88.8826015,33.3958944 89.9228083,37.7067744 L36.6096802,86.5772531" id="Fill-56" fill="#F0BD3F"></path>
                                </g>
                            </g>
                            <g id="Group-22" transform="translate(30.065199, 30.654221)">
                                <path d="M27.3951972,8.17319698 C30.1806504,8.17319698 32.4419908,10.2277247 32.4419908,12.7610854 C32.4419908,15.3000139 30.1806504,17.3545416 27.3951972,17.3545416 C24.609744,17.3545416 22.3484036,15.3000139 22.3484036,12.7610854 C22.3484036,10.2277247 24.609744,8.17319698 27.3951972,8.17319698 L27.3951972,8.17319698 Z M40.191793,25.1105228 L40.191793,6.16877972 C40.191793,3.23453556 37.3003394,0.851506148 33.7552172,0.851506148 L6.40713124,0.851506148 C2.87378681,0.851506148 7.10542736e-15,3.22339991 7.10542736e-15,6.14650841 L7.10542736e-15,21.1462309 C7.10542736e-15,38.5011437 8.37402631,47.3818257 28.8968686,51.7915437 L29.5976486,51.941875 L33.3017713,43.2616347 L32.5715468,43.0444895 C20.2519525,39.3029106 15.1639365,33.9188231 15.6821604,25.1105228 L40.191793,25.1105228 Z" id="Fill-11" fill="#CFA02C"></path>
                                <path d="M29.9722143,7.32169083 C32.7576675,7.32169083 35.0190079,9.37621852 35.0190079,11.9095792 C35.0190079,14.4485078 32.7576675,16.5030355 29.9722143,16.5030355 C27.1867611,16.5030355 24.9254206,14.4485078 24.9254206,11.9095792 C24.9254206,9.37621852 27.1867611,7.32169083 29.9722143,7.32169083 L29.9722143,7.32169083 Z M42.76881,24.2590167 L42.76881,5.31727357 C42.76881,2.38302941 39.8773565,0 36.3322342,0 L8.98414832,0 C5.45080388,0 2.57701707,2.37189376 2.57701707,5.29500227 L2.57701707,20.2947248 C2.57701707,37.6496376 10.9510434,46.5303196 31.4738856,50.9400376 L32.1746656,51.0903689 L35.8787884,42.4101286 L35.1485639,42.1929834 C22.8289696,38.4514045 17.7409536,33.067317 18.2591775,24.2590167 L42.76881,24.2590167 Z" id="Fill-11" fill="#F0D75A"></path>
                            </g>
                        </g>
                    </g>
                    <path d="M79.3830658,14.0589493 C79.3830658,14.0589493 79.0078554,16.8373607 77.682087,18.2933301 C76.3563186,19.7492994 73.4189574,20.7847293 73.4189574,20.7847293 C73.4189574,20.7847293 76.8746275,21.6664366 77.682087,23.2295603 C78.4895465,24.792684 79.0078554,28.3088215 79.0078554,28.3088215 C79.0078554,28.3088215 79.6359035,24.7193548 80.6812222,23.2295603 C81.726541,21.7397658 84.3536958,21.1838854 84.3536958,21.1838854 C84.3536958,21.1838854 81.6175624,20.1099231 80.6812222,18.8554749 C79.744882,17.6010267 79.3830658,14.0589493 79.3830658,14.0589493 Z" id="Path-13" fill="#FFFFFF"></path>
                    <path d="M35.502187,78.1052739 C35.502187,78.1052739 35.2341795,80.0898535 34.2872021,81.1298316 C33.3402246,82.1698097 31.2421096,82.9094025 31.2421096,82.9094025 C31.2421096,82.9094025 33.7104453,83.5391934 34.2872021,84.6557103 C34.8639589,85.7722273 35.2341795,88.283754 35.2341795,88.283754 C35.2341795,88.283754 35.6827853,85.7198492 36.4294415,84.6557103 C37.1760978,83.5915714 39.0526369,83.1945139 39.0526369,83.1945139 C39.0526369,83.1945139 37.098256,82.427398 36.4294415,81.5313636 C35.7606271,80.6353292 35.502187,78.1052739 35.502187,78.1052739 Z" id="Path-13-Copy" fill="#FFFFFF"></path>
                </g>
            </g>
        </g>
    </g>
</svg>