<?xml version="1.0" encoding="UTF-8"?>
<svg width="28px" height="29px" viewBox="0 0 28 29" version="1.1" xmlns="http://www.w3.org/2000/svg" xmlns:xlink="http://www.w3.org/1999/xlink">
    <!-- Generator: Sketch 41.2 (35397) - http://www.bohemiancoding.com/sketch -->
    <title>Group 19</title>
    <desc>Created with Sketch.</desc>
    <defs></defs>
    <g id="Page-1" stroke="none" stroke-width="1" fill="none" fill-rule="evenodd">
        <g id="Artboard-2" transform="translate(-101.000000, -1369.000000)">
            <g id="Group-19" transform="translate(101.000000, 1369.000000)">
                <g id="Group-6-Copy-3" fill="#66B8E0">
                    <ellipse id="Oval-3-Copy-4" cx="14" cy="14.5" rx="14" ry="14"></ellipse>
                </g>
                <path d="M17.6811003,15.6881449 C17.2618237,15.3774619 16.8110997,15.1252645 16.3375528,14.9339691 C16.6062764,14.7643501 16.8581386,14.5637246 17.0883598,14.3335387 C17.8994691,13.5224117 18.3461895,12.4439721 18.3461895,11.2969054 C18.3461895,10.1498386 17.8994868,9.07139901 17.0883598,8.26027205 C16.2772328,7.44914508 15.1987932,7.00244233 14.0517088,7.00244233 C12.9046244,7.00244233 11.8262025,7.44914508 11.0150755,8.26027205 C10.2039662,9.07139901 9.75724579,10.1498386 9.75724579,11.2969054 C9.75724579,12.4439721 10.2039485,13.5224117 11.0150755,14.3335387 C11.2470957,14.5655412 11.5010391,14.7675778 11.7721438,14.9380434 C11.7721967,14.9380786 11.7722496,14.9380963 11.7722673,14.9381316 C11.7709092,14.938696 11.7695687,14.939278 11.7681754,14.9398247 L11.7702919,14.9398247 C11.1239865,15.201705 10.5223215,15.5750185 9.99353421,16.0493062 C8.88424678,17.0442679 8.17947341,18.4038655 8.00900782,19.87763 C7.98041758,20.1248007 8.15762066,20.3483549 8.40477372,20.3769276 C8.42235822,20.3789559 8.43981926,20.3799612 8.45708629,20.3799612 C8.68273934,20.3799436 8.87750929,20.2107302 8.9040536,19.9811617 C9.04919186,18.7261539 9.64974576,17.5679756 10.5951287,16.720057 C11.5476725,15.8656654 12.7777056,15.3951169 14.0586227,15.3951169 C15.1795861,15.3951169 16.2466848,15.7467893 17.1445879,16.4121078 C17.3445079,16.560262 17.626636,16.5182673 17.7747902,16.3183473 C17.9229445,16.1184448 17.8809675,15.8362992 17.6810474,15.6881625 L17.6811003,15.6881449 Z M11.652227,13.6963872 C11.0112835,13.0554612 10.6583059,12.2033096 10.6583059,11.2968877 C10.6583059,10.3904658 11.0112835,9.53831424 11.652227,8.8973883 C12.2931706,8.25646237 13.1453046,7.90346719 14.0517265,7.90346719 C14.9581484,7.90346719 15.8103,8.25644473 16.4512259,8.8973883 C17.0921518,9.53833187 17.445147,10.3904658 17.445147,11.2968877 C17.445147,12.2033096 17.0921695,13.0554612 16.4512259,13.6963872 C16.0327783,14.1148348 15.5242388,14.4104731 14.9693834,14.5653296 C14.6216971,14.6621942 14.2590366,14.7026897 13.8985279,14.6867984 C13.640228,14.6754047 13.3831451,14.6348386 13.1340872,14.5653296 C13.1335933,14.5651885 13.1331171,14.5650297 13.1326233,14.5649063 L13.1326233,14.5649063 C12.5783676,14.4099263 12.0703219,14.1144997 11.6522623,13.6963872 L11.652227,13.6963872 Z M20.5454514,18.0485774 L19.3864617,18.0485774 L19.3864617,16.8895878 C19.3864617,16.6407592 19.1847426,16.4390577 18.9359317,16.4390577 C18.6871207,16.4390577 18.4854016,16.6407768 18.4854016,16.8895878 L18.4854016,18.0485774 L17.3264119,18.0485774 C17.0775833,18.0485774 16.8758819,18.2502965 16.8758819,18.4991075 C16.8758819,18.7479185 17.077601,18.9496376 17.3264119,18.9496376 L18.4854016,18.9496376 L18.4854016,20.1086272 C18.4854016,20.3574382 18.6871207,20.5591573 18.9359317,20.5591573 C19.1847426,20.5591573 19.3864617,20.3574382 19.3864617,20.1086272 L19.3864617,18.9496376 L20.5454514,18.9496376 C20.79428,18.9496376 20.9959815,18.7479185 20.9959815,18.4991075 C20.9959815,18.2502965 20.7942624,18.0485774 20.5454514,18.0485774 Z" id="Shape" fill="#FFFFFF"></path>
            </g>
        </g>
    </g>
</svg>