<?xml version="1.0" encoding="UTF-8"?>
<svg width="15px" height="16px" viewBox="0 0 15 16" version="1.1" xmlns="http://www.w3.org/2000/svg" xmlns:xlink="http://www.w3.org/1999/xlink">
    <!-- Generator: Sketch 41.2 (35397) - http://www.bohemiancoding.com/sketch -->
    <title>换</title>
    <desc>Created with Sketch.</desc>
    <defs></defs>
    <g id="Page-1" stroke="none" stroke-width="1" fill="none" fill-rule="evenodd">
        <g id="我的-收支明细-copy-2" transform="translate(-764.000000, -1311.000000)" fill="#3C9BBE">
            <g id="换" transform="translate(764.000000, 1311.000000)">
                <g id="Group">
                    <path d="M0.589619494,7.05282964 C0.87157913,7.05282964 1.11799763,6.84906049 1.16301641,6.56236204 C1.65822282,3.43474253 4.31906881,1.16484898 7.49170706,1.16484898 C10.1312284,1.16484898 12.4698348,2.74998341 13.4460311,5.20232143 C13.5645016,5.50086694 13.903327,5.64540086 14.2018725,5.52693043 C14.4340746,5.43452349 14.5715003,5.21179907 14.5691309,4.97722761 L14.5691309,4.97485819 L14.5691309,1.31412173 C14.5691309,0.991882149 14.3084959,0.731247195 13.9862564,0.731247195 C13.6640168,0.731247195 13.4033818,0.991882149 13.4033818,1.31412173 L13.4033818,2.84475976 C12.9437165,2.27136284 12.4011219,1.76430939 11.7874451,1.34018523 C10.5198114,0.465873409 9.03419217,0.0014692987 7.48933769,0.0014692987 C5.67437061,0.0014692987 3.92100816,0.653056695 2.54912053,1.83539164 C1.19381871,3.00587955 0.293443403,4.61944689 0.0138531818,6.37991756 C-0.0359044091,6.69741834 0.179711786,6.99596382 0.497212558,7.04572142 C0.528014864,7.05046023 0.558817169,7.05282964 0.589619494,7.05282964 L0.589619494,7.05282964 Z" id="Shape"></path>
                    <path d="M14.5027874,8.27781394 C14.1852867,8.22805634 13.8867412,8.44367254 13.8369836,8.76117331 C13.3417772,11.8887928 10.6809312,14.1586864 7.50829292,14.1586864 C4.89957392,14.1586864 2.58466161,12.6114625 1.58714055,10.2065126 C1.5468606,9.92455297 1.30518092,9.70893678 1.01137424,9.70893678 C0.689134656,9.70893678 0.428499701,9.96957173 0.428499701,10.2918113 L0.428499701,10.324983 L0.428499701,10.3344607 L0.428499701,13.9549172 C0.428499701,14.2771568 0.689134656,14.5377917 1.01137424,14.5377917 C1.33361382,14.5377917 1.59424878,14.2771568 1.59424878,13.9549172 L1.59424878,12.4835144 C2.05391408,13.0569113 2.59650867,13.5639648 3.21018551,13.9880889 C4.47781917,14.8624007 5.96343844,15.3268048 7.50829292,15.3268048 C9.32325999,15.3268048 11.0766224,14.6752174 12.4485101,13.4928825 C13.8061813,12.3223946 14.7065566,10.7088273 14.9861468,8.9483566 C15.0359044,8.62611703 14.8202882,8.32994094 14.5027874,8.27781394 L14.5027874,8.27781394 Z" id="Shape"></path>
                </g>
            </g>
        </g>
    </g>
</svg>