<?xml version="1.0" encoding="UTF-8"?>
<svg width="23px" height="22px" viewBox="0 0 23 22" version="1.1" xmlns="http://www.w3.org/2000/svg" xmlns:xlink="http://www.w3.org/1999/xlink">
    <!-- Generator: Sketch 41.2 (35397) - http://www.bohemiancoding.com/sketch -->
    <title>earth</title>
    <desc>Created with Sketch.</desc>
    <defs>
        <rect id="path-1" x="0" y="0" width="659.001513" height="930" rx="4"></rect>
    </defs>
    <g id="Page-1" stroke="none" stroke-width="1" fill="none" fill-rule="evenodd">
        <g id="我的-会员到期-会员功能-copy" transform="translate(-511.000000, -307.000000)">
            <rect id="Rectangle-7" fill="#EDF4F8" x="0" y="60" width="1280" height="1307"></rect>
            <g id="Group-6" transform="translate(480.000000, 247.000000)">
                <mask id="mask-2" fill="white">
                    <use xlink:href="#path-1"></use>
                </mask>
                <use id="Rectangle-32" fill="#FFFFFF" xlink:href="#path-1"></use>
            </g>
            <g id="earth" transform="translate(509.000000, 307.000000)" fill="#E46773">
                <g id="Group-12">
                    <path d="M16.4600356,2.39416492 C16.8339011,2.87966408 16.684365,2.85083802 16.8339011,2.87966408 C17.6486588,3.0373768 18.1487601,2.33695253 18.6900154,2.45523707 C18.9058719,2.50243363 19.0374536,2.95373238 19.2244116,3.43923154 C19.4113696,3.9247307 20.0061352,3.80483386 20.0114811,4.01257688 C20.019954,4.34358793 20.2494781,4.84428184 19.8755621,5.32997643 C19.5016461,5.81547559 18.2557806,5.66416324 17.950051,5.87850205 C17.5441096,6.16324484 14.2878529,4.58689938 16.4602373,6.76385279 C16.6787668,6.98278423 17.6350417,6.75163836 17.9775374,7.01498147 C19.4648799,8.15825211 19.4508089,6.92571841 19.8245231,9.19149516 C20.1982374,11.4572719 19.6107344,11.9155573 19.4506071,12.1046856 C18.5375541,13.1839037 18.1607633,13.1447198 18.0184392,12.8358902 C17.8324899,12.4326674 19.4506071,11.4572719 18.1421533,10.6479926 L16.8336994,9.83871337 C16.8336994,9.83871337 15.9268497,9.21313913 16.1821455,8.83048547 C16.3261339,8.61453435 16.910157,8.17110169 15.4147451,6.87632326 C13.9193333,5.58149597 13.2512371,7.26654987 12.5036572,5.6481379 C11.7560774,4.0297748 12.0301849,3.64355453 12.0301849,2.51064172 C12.0301849,1.37777778 12.0026985,1.34655769 12.0026985,1.34655769 C12.0026985,1.34655769 14.072198,0.30710971 16.6469431,0.937716297 C16.9997778,1.0241456 16.0863213,1.90866576 16.4600356,2.39416492 Z" id="Fill-8" transform="translate(16.035014, 6.879831) rotate(10.000000) translate(-16.035014, -6.879831) "></path>
                    <path d="M0.857833129,9.64731295 C0.857833129,9.64731295 1.37163857,8.27097782 2.09723435,8.24173126 C2.82286849,8.21252186 2.91336178,8.65166626 2.91336178,8.88589891 C2.91336178,9.12016872 3.09469359,9.55946177 3.33648213,9.67652235 C3.57830903,9.79373158 5.48269586,10.0280014 6.05699639,10.145062 C6.63125855,10.2620854 7.32654925,10.4671458 7.47772942,10.8478342 C7.62887123,11.2285227 7.38704433,11.7262717 7.26605416,12.019109 C7.14506399,12.3119834 7.02426562,12.3119834 7.35673925,12.6926718 C7.68921288,13.0733603 8.14267667,13.0733603 8.38450357,13.3662347 C8.62629211,13.6591091 8.7169772,13.9519464 8.7169772,13.9519464 L8.80762393,14.1862162 C8.80762393,14.1862162 5.63368423,14.010551 3.54800394,12.6048578 C1.4622853,11.1991275 0.857833129,9.64731295 0.857833129,9.64731295" id="Fill-12" transform="translate(4.832729, 11.213280) rotate(58.000000) translate(-4.832729, -11.213280) "></path>
                    <path d="M13.4937473,21.2456878 C7.88878036,21.2456878 3.30272099,16.6597785 3.30272099,11.0546615 C3.30272099,5.44969465 7.88878036,0.863785366 13.4937473,0.863785366 C19.0987141,0.863785366 23.6847735,5.44969465 23.6847735,11.0546615 C23.6847735,16.6597785 19.0987141,21.2456878 13.4937473,21.2456878 M13.4937473,0.124053659 C7.4321375,0.124053659 2.56306433,4.99327317 2.56306433,11.0547366 C2.56306433,17.1163463 7.4321375,21.9854195 13.4937473,21.9854195 C19.555357,21.9854195 24.4244302,17.1163463 24.4244302,11.0547366 C24.4244302,4.99327317 19.555357,0.124053659 13.4937473,0.124053659" id="Fill-1"></path>
                    <path d="M15.7458531,14.6351186 C15.3979995,14.8338503 15.3979995,15.3306796 15.696097,15.5791674 C15.994341,15.8275089 16.5905361,16.1753625 16.7892678,15.5791674 C16.9879995,14.9828259 16.0937068,14.4363869 15.7458531,14.6351186" id="Path" transform="translate(16.148065, 15.250940) rotate(120.000000) translate(-16.148065, -15.250940) "></path>
                </g>
            </g>
        </g>
    </g>
</svg>