<?xml version="1.0" encoding="UTF-8"?>
<svg width="10px" height="10px" viewBox="0 0 10 10" version="1.1" xmlns="http://www.w3.org/2000/svg" xmlns:xlink="http://www.w3.org/1999/xlink">
    <!-- Generator: Sketch 41.2 (35397) - http://www.bohemiancoding.com/sketch -->
    <title>Shape</title>
    <desc>Created with Sketch.</desc>
    <defs></defs>
    <g id="Page-1" stroke="none" stroke-width="1" fill="none" fill-rule="evenodd">
        <g id="我的-语伴评价" transform="translate(-1179.000000, -189.000000)" fill="#3C9BBE">
            <g id="Group-17" transform="translate(1157.000000, 163.000000)">
                <g id="Group-16" transform="translate(22.000000, 24.000000)">
                    <g id="设置-2" transform="translate(0.000000, 2.000000)">
                        <path d="M9.98999977,4.81846662 L9.51425153,2.73180773 L8.25284109,2.59129439 L7.93187152,2.18829925 L8.07666446,0.928671976 L6.14799393,0 L5.25248881,0.898358183 L4.73751096,0.898358183 L3.84200584,0 L1.91333531,0.928671976 L2.05812826,2.18901252 L1.73751531,2.59129439 L0.476104873,2.73180773 L0,4.81846662 L1.07489145,5.49143283 L1.18972723,5.99321527 L0.512838058,7.06596692 L1.8480715,8.73964495 L3.04457476,8.31881817 L3.50855411,8.54207035 L3.9251013,9.74000013 L6.06561174,9.74000013 L6.48251556,8.54207035 L6.94613828,8.31881817 L8.14264154,8.73964495 L9.47787498,7.06596692 L8.8009858,5.99321527 L8.91546495,5.49143283 L9.98999977,4.81846662 Z M8.53814738,7.01425516 L7.88265618,7.83629391 L6.89977601,7.49036003 L5.86233101,7.99035931 L5.51996346,8.97359611 L4.46967968,8.97359611 L4.12731213,7.99035931 L3.08986713,7.49036003 L2.10698696,7.83629391 L1.45149575,7.01425516 L2.00748639,6.13337199 L1.75106736,5.01104836 L0.868401023,4.45826743 L1.10199555,3.43366121 L2.13801402,3.31846879 L2.85555934,2.41868408 L2.73680059,1.38409214 L3.68366085,0.927958711 L4.41939444,1.66547547 L5.57096196,1.66547547 L6.30669556,0.927958711 L7.25355581,1.38409214 L7.13479707,2.41868408 L7.85269902,3.31846879 L8.88871749,3.43366121 L9.12231201,4.45791079 L8.23928904,5.01104836 L7.98322665,6.13337199 L8.53814738,7.01425516 Z M4.99428662,2.95399001 C3.93580028,2.95399001 3.07774161,3.81204868 3.07774161,4.87017838 C3.07774161,5.92937799 3.93544365,6.78708002 4.99428662,6.78708002 C6.05312959,6.78708002 6.91083163,5.92937799 6.91083163,4.87017838 C6.91083163,3.81204868 6.05312959,2.95399001 4.99428662,2.95399001 Z M4.99428662,6.07345766 C4.33237603,6.07345766 3.7938604,5.53458541 3.7938604,4.87231818 C3.7938604,4.21076422 4.33237603,3.67189196 4.99428662,3.67189196 C5.65655385,3.67189196 6.19506947,4.21076422 6.19506947,4.87231818 C6.19506947,5.53458541 5.65655385,6.07345766 4.99428662,6.07345766 Z" id="Shape"></path>
                    </g>
                </g>
            </g>
        </g>
    </g>
</svg>