<?xml version="1.0" encoding="UTF-8"?>
<svg width="15px" height="15px" viewBox="0 0 15 15" version="1.1" xmlns="http://www.w3.org/2000/svg" xmlns:xlink="http://www.w3.org/1999/xlink">
    <!-- Generator: Sketch 41.2 (35397) - http://www.bohemiancoding.com/sketch -->
    <title>Shape</title>
    <desc>Created with Sketch.</desc>
    <defs></defs>
    <g id="Page-1" stroke="none" stroke-width="1" fill="none" fill-rule="evenodd">
        <g id="按钮" transform="translate(-943.000000, -23.000000)" fill="#FFFFFF">
            <g id="Group-11" transform="translate(924.000000, 15.000000)">
                <g id="叹号" transform="translate(19.000000, 8.000000)">
                    <path d="M7.49926687,14.9942297 C3.35988829,14.9942297 0.0042242539,11.6385657 0.0042242539,7.49917003 C0.0042242539,3.35979146 3.35988829,0.00421287305 7.49926687,0.00421287305 C11.63856,0.00421287305 14.994224,3.35989399 14.994224,7.49917003 C14.994224,11.6385999 11.6385429,14.9942297 7.49926687,14.9942297 L7.49926687,14.9942297 L7.49926687,14.9942297 Z M8.64555684,3.84738936 C8.64555684,3.27368043 8.05655334,2.8086228 7.48231466,2.8086228 C6.9080589,2.8086228 6.3360076,3.27368043 6.3360076,3.84738936 L6.3360076,8.17929162 C6.3360076,8.75310308 6.80108231,9.21863919 7.37419313,9.21863919 C7.94850015,9.21863919 8.64553976,8.75310308 8.64553976,8.17929162 L8.64553976,3.84738936 L8.64555684,3.84738936 L8.64555684,3.84738936 Z M7.51722731,9.78064219 C6.86866896,9.78064219 6.34390267,10.3075617 6.34390267,10.9562396 C6.34390267,11.6047467 6.86866896,12.130094 7.51722731,12.130094 C8.16587111,12.130094 8.69285895,11.6047467 8.69285895,10.9562396 C8.69284187,10.3075617 8.16580275,9.78064219 7.51722731,9.78064219 L7.51722731,9.78064219 L7.51722731,9.78064219 Z" id="Shape"></path>
                </g>
            </g>
        </g>
    </g>
</svg>