<?xml version="1.0" encoding="UTF-8"?>
<svg width="21px" height="19px" viewBox="0 0 21 19" version="1.1" xmlns="http://www.w3.org/2000/svg" xmlns:xlink="http://www.w3.org/1999/xlink">
    <!-- Generator: Sketch 41.2 (35397) - http://www.bohemiancoding.com/sketch -->
    <title>朋友圈</title>
    <desc>Created with Sketch.</desc>
    <defs>
        <path d="M10.4488207,8.44123993 C10.3037534,8.37474976 10.1570658,8.31411945 10.0091808,8.25826205 C11.1280166,7.48769453 11.863732,6.19321577 11.863732,4.72889649 C11.863732,2.3721347 9.95832032,0.454789198 7.6162039,0.454789198 C5.27413443,0.454789198 3.36872277,2.3721347 3.36872277,4.72889649 C3.36872277,6.19319215 4.10443812,7.48769453 5.22327399,8.25823843 C5.07538892,8.31411945 4.92872486,8.37474979 4.78363405,8.44123995 C3.92060322,8.8368493 3.1463551,9.40229916 2.482422,10.1218295 C1.12489897,11.5930955 0.377302089,13.5461907 0.377302089,15.6213971 C0.377302089,15.842582 0.386107572,16.0666969 0.403460229,16.2875037 C0.429031329,16.6127243 0.711769379,16.8558599 1.03496568,16.8297742 C1.35816198,16.8040666 1.59945556,16.5195577 1.57388446,16.1943135 C1.55895037,16.0043653 1.55138941,15.8116053 1.55138941,15.6213735 C1.55138941,11.9722831 4.27160136,9.00347637 7.6153586,9.00295654 C7.61566386,9.00295654 7.61592214,9.00298016 7.6162274,9.00298016 C7.61653266,9.00298016 7.61679094,9.00295654 7.6170962,9.00295654 C10.9608534,9.00349997 13.6810888,11.9723067 13.6810888,15.6213971 C13.6810888,15.8119124 13.6735279,16.0046488 13.6585938,16.1942899 C13.6329992,16.5195104 13.8742458,16.8040429 14.1974421,16.8297978 C14.2132215,16.8310737 14.2288601,16.8316644 14.2444282,16.8316644 C14.5475949,16.8316644 14.804621,16.5969169 14.8289945,16.2875746 C14.8463472,16.0670513 14.8551527,15.8429128 14.8551527,15.6214207 C14.8551527,13.5462143 14.1075323,11.5931191 12.7500328,10.121853 C12.0860762,9.40229913 11.3118515,8.83684926 10.4488207,8.44123993 Z" id="path-1"></path>
        <mask id="mask-2" maskContentUnits="userSpaceOnUse" maskUnits="objectBoundingBox" x="0" y="0" width="14.4778506" height="16.3769025" fill="white">
            <use xlink:href="#path-1"></use>
        </mask>
        <path d="M19.1337081,8.48033437 C18.4450962,7.62522465 17.5720388,6.97903673 16.6023326,6.59283146 C17.5066435,5.92077052 18.0751721,4.84156957 18.0751721,3.6618537 C18.0751721,1.65507491 16.4526629,0.0224509459 14.4583746,0.0224509459 C13.8877796,0.0224509459 13.3416286,0.152454094 12.835067,0.408845229 C12.6033773,0.526112701 12.5100157,0.810196256 12.6265533,1.04336075 C12.7431144,1.27652525 13.0254063,1.37047153 13.2571195,1.25318044 C13.6315284,1.0636575 14.0356882,0.967584657 14.4583512,0.967584657 C15.9347599,0.967584657 17.1358976,2.17622165 17.1358976,3.6618537 C17.1358976,4.87034892 16.330349,5.93612894 15.1755867,6.25827777 C14.9960489,6.30170667 14.8512868,6.44990362 14.8210899,6.64488471 C14.7811248,6.90276445 14.9564829,7.1444115 15.2127576,7.18462693 C17.7753867,7.58671045 19.7078488,10.022958 19.7078488,12.8515069 C19.7078488,13.0161728 19.7012975,13.1827999 19.6883828,13.3468278 C19.6678836,13.6069995 19.8608762,13.834635 20.1194286,13.8552625 C20.132038,13.8562785 20.144577,13.8567511 20.1570456,13.8567511 C20.3995837,13.8567511 20.6052092,13.6689767 20.6246987,13.4214934 C20.6395623,13.2327738 20.6470998,13.0409826 20.6470998,12.8515069 C20.6470998,11.2445906 20.1096369,9.6921848 19.1337081,8.48033437 Z" id="path-3"></path>
        <mask id="mask-4" maskContentUnits="userSpaceOnUse" maskUnits="objectBoundingBox" x="0" y="0" width="8.07072485" height="13.8343002" fill="white">
            <use xlink:href="#path-3"></use>
        </mask>
        <path d="M5.43905197,7.18460331 C5.69532663,7.14438788 5.87066131,6.9027408 5.83071966,6.64486109 C5.80047578,6.44969099 5.65550237,6.30135223 5.47570625,6.25808875 C4.32120233,5.93577453 3.51588848,4.8701599 3.51588848,3.66183008 C3.51588848,2.17619803 4.71702621,0.967561036 6.19343494,0.967561036 C6.61609792,0.967561036 7.02025764,1.0636575 7.39466659,1.25315681 C7.62640331,1.37040064 7.90871868,1.27650163 8.02523279,1.04333713 C8.14177037,0.810172635 8.0484323,0.52608908 7.81671906,0.408821607 C7.31015747,0.15243045 6.76398299,0.0224273246 6.19341146,0.0224273246 C4.19909969,0.0224273246 2.57661395,1.65505129 2.57661395,3.66183008 C2.57661395,4.8415696 3.14514262,5.92074689 4.04943006,6.59280784 C3.07974726,6.97903673 2.20668992,7.62520103 1.51805454,8.48031074 C0.542149213,9.69218482 0.00468629101,11.2445669 0.00468629101,12.8514833 C0.00468629101,13.0409826 0.0122237741,13.2327266 0.0270874261,13.4214698 C0.0465768822,13.6689767 0.252178937,13.8567275 0.494740521,13.8567275 C0.507185591,13.8567275 0.519748078,13.8562313 0.532357537,13.8552389 C0.790909882,13.8346113 0.983902477,13.6069759 0.96340333,13.3468042 C0.950488638,13.1827999 0.943937348,13.0161492 0.943937348,12.8514832 C0.943984274,10.022958 2.87644637,7.58673407 5.43905197,7.18460331 Z" id="path-5"></path>
        <mask id="mask-6" maskContentUnits="userSpaceOnUse" maskUnits="objectBoundingBox" x="0" y="0" width="8.07072908" height="13.8343001" fill="white">
            <use xlink:href="#path-5"></use>
        </mask>
    </defs>
    <g id="Page-1" stroke="none" stroke-width="1" fill="none" fill-rule="evenodd">
        <g id="我的-会员到期-会员功能-copy" transform="translate(-510.000000, -868.000000)" fill="#E46773">
            <g id="朋友圈" transform="translate(510.000000, 868.000000)">
                <g id="Group" transform="translate(2.709677, 1.354839)">
                    <use id="Shape" stroke="#FFFFFF" mask="url(#mask-2)" stroke-width="0.4" xlink:href="#path-1"></use>
                    <ellipse id="Oval" cx="7.55216734" cy="4.77567414" rx="3.21774194" ry="3.21774194"></ellipse>
                </g>
                <use id="Shape" stroke="#FFFFFF" mask="url(#mask-4)" stroke-width="0.2" xlink:href="#path-3"></use>
                <use id="Shape" stroke="#FFFFFF" mask="url(#mask-6)" stroke-width="0.2" xlink:href="#path-5"></use>
            </g>
        </g>
    </g>
</svg>