<?xml version="1.0" encoding="UTF-8"?>
<svg width="22px" height="16px" viewBox="0 0 22 16" version="1.1" xmlns="http://www.w3.org/2000/svg" xmlns:xlink="http://www.w3.org/1999/xlink">
    <!-- Generator: Sketch 41.2 (35397) - http://www.bohemiancoding.com/sketch -->
    <title>评分</title>
    <desc>Created with Sketch.</desc>
    <defs></defs>
    <g id="Page-1" stroke="none" stroke-width="1" fill="none" fill-rule="evenodd">
        <g id="我的-会员到期-会员功能-copy" transform="translate(-509.000000, -1037.000000)">
            <g id="评分" transform="translate(510.000000, 1038.000000)">
                <g id="Group">
                    <path d="M20.3920946,6.65963712 C20.6146549,6.44309234 20.6953444,6.11898532 20.5987167,5.82394173 C20.5033429,5.52870735 20.2479075,5.31351929 19.9397699,5.26893841 L16.0213017,4.59513753 C15.7767468,4.55977809 15.5652369,4.40644785 15.4552424,4.18532415 L13.7533457,0.454606253 C13.6152151,0.175949261 13.3314735,0 13.0197446,0 C12.7080157,0 12.4243804,0.175949261 12.287461,0.454606253 L10.5146714,4.18566332 C10.4058882,4.40642665 10.1943784,4.55975689 9.94984468,4.59511633 L9.49156978,4.67535344 L7.58175457,5.00976303 L6.09986802,5.26925639 C5.79173049,5.31373127 5.53621009,5.52866495 5.43966741,5.82379334 C5.34429353,6.11902772 5.42372926,6.44304994 5.64752212,6.65959473 L8.60738506,8.98201898 C8.78344847,9.15389809 8.86537055,9.40183815 8.82263506,9.64479652 L8.6588334,10.4383277 L8.44094828,11.4938537 L8.00953448,13.5838341 C7.95698109,13.8899434 8.1586943,14.1085869 8.40930575,14.2914893 C8.66117099,14.4735014 8.99495833,14.4979435 9.27130457,14.3534319 L12.6701041,12.4454 C12.8889243,12.3310118 13.1506074,12.3310118 13.368195,12.4454 L16.9175144,14.3531139 C17.0373056,14.4159681 17.1681259,14.447003 17.2977137,14.447003 C17.466403,14.447003 17.6364099,14.3945998 17.7782595,14.2911501 C18.0300397,14.1085869 18.0814243,13.889689 18.0300397,13.5838341 L17.3661627,9.72499123 C17.323321,9.48203286 17.4052643,9.23419878 17.5813277,9.06221368 L20.3920946,6.65963712 Z" id="Path" stroke="#E46773" stroke-width="0.7"></path>
                    <path d="M8.91024713,9.22979541 C8.91024713,8.84668395 5.39361613,7.08842187 5.45090922,6.06966378 C5.50820231,5.0509057 10.1177126,4.61122401 10.0639276,4.53033309 C10.0639276,4.53033309 8.25538764,4.38139736 8.0713916,4.11622593 C7.40726099,3.15909409 6.07899978,1.24483042 6.07899978,1.24483042 C5.94142168,1.03727389 5.69848179,0.925768695 5.45090922,0.956803601 C5.20329414,0.987817308 4.9956732,1.15579586 4.91477115,1.39071992 L3.8799603,4.53033309 C3.81565518,4.71647893 3.66303147,4.85933701 3.47234746,4.91174021 L0.482117039,5.83028014 C0.241833512,5.89627172 0.0604148802,6.09242334 0.0132592114,6.33642045 C-0.0329614193,6.58037516 0.0625399666,6.82979914 0.26193683,6.9795044 L2.84491568,8.5294266 C3.00191707,8.64839374 3.09178698,8.83716822 3.08216034,9.03437978 L2.83031634,12.2436519 C2.81920214,12.4919947 3.00125829,12.6455794 3.21859089,12.7659032 C3.43681602,12.8853791 3.7043644,12.8715788 3.90937149,12.7292719 L6.41788732,10.8756994 C6.58024392,10.7630707 6.78805613,10.7370599 6.97227987,10.8062524 L8.47420864,11.4977693 C8.47420864,11.4977693 8.91024713,9.61290686 8.91024713,9.22979541 Z" id="Shape" stroke="#E46773"></path>
                    <path d="M8.91024713,9.22979541 C8.91024713,8.84668395 5.39361613,7.08842187 5.45090922,6.06966378 C5.50820231,5.0509057 10.1177126,4.61122401 10.0639276,4.53033309 C10.0639276,4.53033309 8.25538764,4.38139736 8.0713916,4.11622593 C7.40726099,3.15909409 6.07899978,1.24483042 6.07899978,1.24483042 C5.94142168,1.03727389 5.69848179,0.925768695 5.45090922,0.956803601 C5.20329414,0.987817308 4.9956732,1.15579586 4.91477115,1.39071992 L3.8799603,4.53033309 C3.81565518,4.71647893 3.66303147,4.85933701 3.47234746,4.91174021 L0.482117039,5.83028014 C0.241833512,5.89627172 0.0604148802,6.09242334 0.0132592114,6.33642045 C-0.0329614193,6.58037516 0.0625399666,6.82979914 0.26193683,6.9795044 L2.84491568,8.5294266 C3.00191707,8.64839374 3.09178698,8.83716822 3.08216034,9.03437978 L2.83031634,12.2436519 C2.81920214,12.4919947 3.00125829,12.6455794 3.21859089,12.7659032 C3.43681602,12.8853791 3.7043644,12.8715788 3.90937149,12.7292719 L6.41788732,10.8756994 C6.58024392,10.7630707 6.78805613,10.7370599 6.97227987,10.8062524 L8.47420864,11.4977693 C8.47420864,11.4977693 8.91024713,9.61290686 8.91024713,9.22979541 Z" id="Shape" fill="#E46773"></path>
                </g>
            </g>
        </g>
    </g>
</svg>