<?xml version="1.0" encoding="UTF-8"?>
<svg width="27px" height="18px" viewBox="0 0 27 18" version="1.1" xmlns="http://www.w3.org/2000/svg" xmlns:xlink="http://www.w3.org/1999/xlink">
    <!-- Generator: Sketch 41.2 (35397) - http://www.bohemiancoding.com/sketch -->
    <title>Shape</title>
    <desc>Created with Sketch.</desc>
    <defs></defs>
    <g id="Page-1" stroke="none" stroke-width="1" fill="none" fill-rule="evenodd">
        <g id="我的-在学课程" transform="translate(-745.000000, -97.000000)" fill="#0E8ABE">
            <path d="M770.917588,99.7020671 L770.521346,99.7020671 C770.223633,99.7020671 769.980073,99.4587924 769.980073,99.1610497 L769.980073,98.1023992 C769.981421,97.7951165 769.768666,97.540408 769.468276,97.483316 C765.367834,96.6987449 761.640221,96.7128205 758.802624,98.7127438 C758.296401,99.0689023 758.249086,99.0662546 757.749839,98.7127438 C754.908015,96.715492 751.180117,96.6987449 747.079907,97.483316 C746.780864,97.540408 746.568133,97.7948552 746.568133,98.1023992 L746.568133,99.1610497 C746.568133,99.4587687 746.325897,99.7020671 746.026831,99.7020671 L745.630256,99.7020671 C745.282343,99.7020671 745,99.9857342 745,100.333647 L745.004536,113.006376 C745.004536,113.354312 745.288149,113.637931 745.635854,113.637931 L756.344807,113.637931 C756.543742,113.637931 756.705163,113.799169 756.705163,113.996785 C756.705163,114.211149 756.845664,114.384805 757.066635,114.384805 L759.481411,114.384805 C759.681693,114.384805 759.842883,114.222244 759.842883,114.02442 C759.842883,113.810056 759.98203,113.637979 760.204616,113.637979 L770.913569,113.637979 C771.259641,113.637979 771.543825,113.354365 771.543825,113.006423 L771.549144,100.333641 C771.549144,99.9857342 771.265501,99.7020671 770.917588,99.7020671 Z M757.387767,112.407209 C754.861995,110.828468 751.569437,110.648976 748.060153,111.233265 C747.701353,111.293052 747.37838,111.018925 747.37838,110.655874 L747.374645,98.6866942 C747.374645,98.3764788 747.594298,98.116457 747.900519,98.0633604 C751.559843,97.4471801 754.930236,97.6894159 757.38401,99.544564 C757.698167,99.7809404 757.866558,100.120631 757.866558,100.514231 L757.870808,112.138117 C757.87063,112.388877 757.600783,112.539203 757.387767,112.407209 Z M769.170788,110.655874 C769.170788,111.018931 768.848124,111.292999 768.487667,111.233265 C764.978383,110.648976 761.687173,110.828521 759.161371,112.407209 C758.949987,112.539203 758.677469,112.388877 758.677469,112.138425 L758.682783,100.514516 C758.682783,100.120922 758.849855,99.7812253 759.164298,99.5448252 C761.619188,97.6896771 764.988203,97.4474413 768.647789,98.0636215 C768.955101,98.1167479 769.174724,98.3767696 769.174724,98.6869554 L769.170788,110.655874 Z" id="Shape"></path>
        </g>
    </g>
</svg>