<?xml version="1.0" encoding="UTF-8"?>
<svg width="28px" height="28px" viewBox="0 0 28 28" version="1.1" xmlns="http://www.w3.org/2000/svg" xmlns:xlink="http://www.w3.org/1999/xlink">
    <!-- Generator: Sketch 41.2 (35397) - http://www.bohemiancoding.com/sketch -->
    <title>kecheng</title>
    <desc>Created with Sketch.</desc>
    <defs></defs>
    <g id="Page-1" stroke="none" stroke-width="1" fill="none" fill-rule="evenodd">
        <g id="我的-收支明细-copy-2" transform="translate(-508.000000, -686.000000)">
            <g id="kecheng" transform="translate(508.000000, 686.000000)">
                <ellipse id="Oval-3-Copy-8" fill="#66B8E0" cx="14" cy="14" rx="14" ry="14"></ellipse>
                <path d="M16.0362022,10.0707309 C16.8532967,10.0707309 17.5166461,10.6517953 17.5166461,11.3682839 C17.5166461,12.0863472 16.8532967,12.6674116 16.0362022,12.6674116 C15.2191077,12.6674116 14.5557582,12.0863472 14.5557582,11.3682839 C14.5557582,10.6517953 15.2191077,10.0707309 16.0362022,10.0707309 L16.0362022,10.0707309 Z M19.79,14.8609691 L19.79,9.50383876 C19.79,8.67397172 18.941811,8 17.9018725,8 L9.8794901,8 C8.84300659,8 8,8.67082231 8,9.49753996 L8,13.7397825 C8,18.6481232 10.4564659,21.1597702 16.4767077,22.4069328 L16.6822769,22.4494497 L17.7688571,19.994492 L17.5546505,19.9330786 C13.940778,18.8748801 12.4482417,17.3521449 12.6002593,14.8609691 L19.79,14.8609691 Z" id="Fill-11" fill="#FFFFFF"></path>
            </g>
        </g>
    </g>
</svg>