<?xml version="1.0" encoding="UTF-8"?>
<svg width="20px" height="11px" viewBox="0 0 20 11" version="1.1" xmlns="http://www.w3.org/2000/svg" xmlns:xlink="http://www.w3.org/1999/xlink">
    <!-- Generator: Sketch 41.2 (35397) - http://www.bohemiancoding.com/sketch -->
    <title>Group 21</title>
    <desc>Created with Sketch.</desc>
    <defs></defs>
    <g id="Page-1" stroke="none" stroke-width="1" fill="none" fill-rule="evenodd">
        <g id="我的-会员到期-会员功能-copy" transform="translate(-511.000000, -1095.000000)" fill="#E46773">
            <g id="Group-21" transform="translate(511.000000, 1095.000000)">
                <path d="M0.00244636719,0.00307383119 L2.23063164,0.00307383119 C3.65744167,0.00307383119 4.47058575,0.381396909 5.08420785,0.80998086 C6.03526843,1.4677886 7.06320983,2.8146887 7.06320983,5.21739548 C7.06320983,8.30851688 5.69412619,10.7678464 1.67469208,10.7678464 L0.00244636719,10.7678464 L0.00244636719,0.00307383119 Z M1.39394993,9.56333398 L2.10341008,9.56333398 C4.46591765,9.56333398 5.65176281,7.95666879 5.65176281,5.21737364 C5.65176281,2.98278617 4.70070223,1.20765189 2.06194528,1.20765189 L1.39392802,1.20765189 L1.39392802,9.56333398 L1.39394993,9.56333398 Z M8.71367117,0.00307383119 L10.1164176,0.00307383119 L10.1164176,10.7678464 L8.71367117,10.7678464 L8.71367117,0.00307383119 Z M14.6334293,6.24263899 L11.4271612,0.00307383119 L12.9611617,0.00307383119 L15.3236692,4.77357365 L17.7016275,0.00307383119 L19.1897143,0.00307383119 L16.0249329,6.24263899 L16.0249329,10.7678246 L14.6334512,10.7678246 L14.6334512,6.24263899 L14.6334293,6.24263899 Z" id="Shape"></path>
            </g>
        </g>
    </g>
</svg>