<?xml version="1.0" encoding="UTF-8"?>
<svg width="28px" height="28px" viewBox="0 0 28 28" version="1.1" xmlns="http://www.w3.org/2000/svg" xmlns:xlink="http://www.w3.org/1999/xlink">
    <!-- Generator: Sketch 41.2 (35397) - http://www.bohemiancoding.com/sketch -->
    <title>shouji</title>
    <desc>Created with Sketch.</desc>
    <defs></defs>
    <g id="Page-1" stroke="none" stroke-width="1" fill="none" fill-rule="evenodd">
        <g id="我的-收支明细-copy-2" transform="translate(-508.000000, -304.000000)">
            <g id="shouji" transform="translate(508.000000, 304.000000)">
                <circle id="Oval" fill="#66B8E0" cx="14" cy="14" r="14"></circle>
                <g id="手机" transform="translate(8.400000, 5.600000)" fill="#FFFFFF">
                    <path d="M10.0611021,1.86316351 L1.1178981,1.86316351 L1.1178981,13.4147964 L10.0611021,13.4147964 L10.0611021,1.86316351 Z M6.52109142,0.931581753 C6.52109142,0.829110632 6.4372462,0.745265406 6.33477508,0.745265406 L4.47161157,0.745265406 C4.36914045,0.745265406 4.28529523,0.829110632 4.28529523,0.931581753 L4.28529523,1.1178981 C4.28529523,1.22036922 4.36914045,1.30421445 4.47161157,1.30421445 L6.33477508,1.30421445 C6.4372462,1.30421445 6.52109142,1.22036922 6.52109142,1.1178981 L6.52109142,0.931581753 Z M5.58950967,15.6505926 C5.99941331,15.6505926 6.33477508,15.3152309 6.33477508,14.9053272 C6.33477508,14.4954236 5.99941331,14.1600618 5.58950967,14.1600618 C5.17960603,14.1600618 4.84424427,14.4954236 4.84424427,14.9053272 C4.84424427,15.3152309 5.17960603,15.6505926 5.58950967,15.6505926 Z M10.0611021,16.7684907 L1.1178981,16.7684907 C0.503052223,16.7684907 0,16.2654385 0,15.6505926 L0,1.1178981 C0,0.503052223 0.503052241,0 1.1178981,0 L10.0611021,0 C10.675948,0 11.1790002,0.503052241 11.1790002,1.1178981 L11.1790002,15.6505926 C11.1790002,16.2654385 10.675948,16.7684907 10.0611021,16.7684907 Z" id="Shape"></path>
                </g>
            </g>
        </g>
    </g>
</svg>