<?xml version="1.0" encoding="UTF-8"?>
<svg width="17px" height="14px" viewBox="0 0 17 14" version="1.1" xmlns="http://www.w3.org/2000/svg" xmlns:xlink="http://www.w3.org/1999/xlink">
    <!-- Generator: Sketch 41.2 (35397) - http://www.bohemiancoding.com/sketch -->
    <title>iconfont-vip (1) copy 6</title>
    <desc>Created with Sketch.</desc>
    <defs></defs>
    <g id="Page-1" stroke="none" stroke-width="1" fill="none" fill-rule="evenodd">
        <g id="我的-是会员-copy" transform="translate(-168.000000, -681.000000)" stroke="#4A4A4A" stroke-width="0.8">
            <path d="M180.505032,694.086532 L172.834968,694.086532 L170.167079,687.359974 C169.51399,687.299947 169,686.730516 169,686.028788 C169,685.287091 169.572222,684.685929 170.27828,684.685929 C170.98438,684.685929 171.556624,685.287091 171.556624,686.028788 C171.556624,686.313777 171.470923,686.576875 171.326884,686.794168 C171.778278,687.543218 172.567276,688.043308 173.474065,688.043308 C174.664141,688.043308 175.655219,687.185222 175.940389,686.028788 L176.030732,686.028788 L176.030732,684.499546 C175.650149,684.266978 175.391613,683.83882 175.391613,683.342922 C175.391613,682.601141 175.963943,682 176.67,682 C177.376058,682 177.948344,682.601141 177.948344,683.342922 C177.948344,683.83882 177.689659,684.266978 177.309076,684.499546 L177.309076,686.028788 L177.399526,686.028788 C177.684738,687.18518 178.676009,688.043308 179.865743,688.043308 C180.772638,688.043308 181.561615,687.543197 182.013074,686.794168 C181.868884,686.576875 181.783333,686.313777 181.783333,686.028788 C181.783333,685.287091 182.355577,684.685845 183.061613,684.685845 C183.767778,684.685845 184.34,685.287091 184.34,686.028788 C184.34,686.730516 183.825946,687.299757 183.172836,687.359974 L180.505032,694.086532" id="iconfont-vip-(1)-copy-6"></path>
        </g>
    </g>
</svg>