<?xml version="1.0" encoding="UTF-8"?>
<svg width="115px" height="115px" viewBox="0 0 115 115" version="1.1" xmlns="http://www.w3.org/2000/svg" xmlns:xlink="http://www.w3.org/1999/xlink">
    <!-- Generator: Sketch 41.2 (35397) - http://www.bohemiancoding.com/sketch -->
    <title>Group 2</title>
    <desc>Created with Sketch.</desc>
    <defs></defs>
    <g id="Page-1" stroke="none" stroke-width="1" fill="none" fill-rule="evenodd">
        <g id="我的-收支明细-copy-2" transform="translate(-520.000000, -96.000000)">
            <g id="Group-2" transform="translate(520.000000, 96.000000)">
                <circle id="Oval-2" fill="#FEC62E" opacity="0.117810236" cx="57.5" cy="57.5" r="57.5"></circle>
                <g id="Group-30-Copy" transform="translate(9.274194, 9.274194)">
                    <g id="Group-27" transform="translate(0.363427, 0.202562)">
                        <g id="Group-9-Copy-4">
                            <path d="M94.6975303,47.4900564 C94.6975303,73.4117414 73.4987524,94.4254435 47.3487652,94.4254435 C21.1987779,94.4254435 0,73.4117414 0,47.4900564 C0,21.5683714 21.1987779,0.554669292 47.3487652,0.554669292 C73.4987524,0.554669292 94.6975303,21.5683714 94.6975303,47.4900564" id="Fill-45" fill="#F0D75A"></path>
                            <path d="M87.0622964,47.5579894 C87.0622964,69.2622268 69.3119849,86.8575693 47.4165899,86.8575693 C25.521195,86.8575693 7.77158997,69.2622268 7.77158997,47.5579894 C7.77158997,25.853752 25.521195,8.25840945 47.4165899,8.25840945 C69.3119849,8.25840945 87.0622964,25.853752 87.0622964,47.5579894" id="Fill-52" fill="#CFA02C"></path>
                            <path d="M85.688138,47.9270686 C85.688138,68.6753419 68.7206376,85.4947076 47.7896263,85.4947076 C26.8593214,85.4947076 9.89111451,68.6753419 9.89111451,47.9270686 C9.89111451,27.1794956 26.8593214,10.3594295 47.7896263,10.3594295 C68.7206376,10.3594295 85.688138,27.1794956 85.688138,47.9270686" id="Fill-53" fill="#E8B432"></path>
                            <g id="Group-28" transform="translate(2.473385, 4.052656)">
                                <g id="金币" transform="translate(0.000000, 0.338617)">
                                    <g id="Group-23">
                                        <path d="M11.6689784,76.2931094 C10.5523459,75.1893931 9.49284989,74.0305259 8.4919013,72.8213945 L14.1456032,67.637907 C15.132444,68.8589062 16.1919399,70.0212641 17.3163318,71.1159049 L11.6689784,76.2931094 M75.3339645,17.9336719 C74.3160865,16.7392009 73.224848,15.6054657 72.0715351,14.5401456 L77.7259424,9.3559599 C78.8672636,10.4352423 79.952859,11.5710718 80.9806124,12.7578636 L75.3339645,17.9336719" id="Fill-49" fill="#F4E27D"></path>
                                        <path d="M25.5122597,85.8425944 C21.9316994,84.2529916 18.5874448,82.2361437 15.5458026,79.8562772 L21.2700435,74.6092614 C24.4358344,76.9353732 27.9649012,78.8042212 31.7577839,80.1180695 L25.5122597,85.8425944 M83.0981936,33.0554932 C82.0633863,29.19842 80.4494537,25.5759127 78.3537396,22.2829146 L84.0779805,17.0352007 C86.2392959,20.2116139 88.0154682,23.665178 89.3437178,27.3302701 L83.0981936,33.0554932" id="Fill-50" fill="#F4E27D"></path>
                                        <path d="M5.60262333,69.4858115 C3.28118442,66.103455 1.39708739,62.4034572 0.0272197602,58.4667991 L6.31718353,52.7010855 C7.35763397,56.8485736 9.06608886,60.7356657 11.3226319,64.2429844 L5.60262333,69.4858115 M68.4578215,11.8684679 C65.0867621,9.36712971 61.2988171,7.38518747 57.216019,6.04411278 L63.5031612,0.28049351 C67.3538859,1.93083217 70.9379732,4.07264224 74.1764193,6.62703697 L68.4578215,11.8684679" id="Fill-51" fill="#F4E27D"></path>
                                        <path d="M12.6191389,62.9081927 C10.3802307,59.3617797 8.72679621,55.4188386 7.78651117,51.2085203 L55.7283512,7.2616215 C59.8802775,8.50914908 63.7281807,10.4429215 67.1408581,12.9302974 L12.6191389,62.9081927" id="Fill-54" fill="#F0BD3F"></path>
                                        <path d="M18.0069087,69.8551132 C16.8789899,68.7618686 15.8237263,67.5981145 14.8404125,66.3729266 L70.1867327,15.6389751 C71.3449833,16.7015028 72.4355164,17.8338417 73.4519836,19.0304071 L18.0069087,69.8551132" id="Fill-55" fill="#F0BD3F"></path>
                                    </g>
                                    <path d="M33.2419247,78.6129383 C29.3869677,77.3828635 25.8035858,75.5579967 22.5997039,73.2465452 L77.067108,23.3182159 C79.1451873,26.6475158 80.7062157,30.3237778 81.6507331,34.2380963 L33.2419247,78.6129383" id="Fill-56" fill="#F0BD3F"></path>
                                </g>
                            </g>
                            <g id="Group-22" transform="translate(27.299476, 27.834314)">
                                <path d="M24.8750898,7.42133767 C27.4043068,7.42133767 29.4576246,9.28686762 29.4576246,11.5871823 C29.4576246,13.8925527 27.4043068,15.7580826 24.8750898,15.7580826 C22.3458728,15.7580826 20.292555,13.8925527 20.292555,11.5871823 C20.292555,9.28686762 22.3458728,7.42133767 24.8750898,7.42133767 L24.8750898,7.42133767 Z M36.4945159,22.8005846 L36.4945159,5.60130845 C36.4945159,2.93698789 33.8690496,0.773175376 30.6500462,0.773175376 L5.81773382,0.773175376 C2.60942473,0.773175376 -7.10542736e-15,2.92687662 -7.10542736e-15,5.5810859 L-7.10542736e-15,19.2009712 C-7.10542736e-15,34.9593909 7.60369254,43.0231315 26.2386212,47.0271958 L26.8749358,47.163698 L30.2383132,39.2819603 L29.5752626,39.0847905 C18.3889583,35.6874026 13.7689932,30.7986019 14.2395452,22.8005846 L36.4945159,22.8005846 Z" id="Fill-11" fill="#CFA02C"></path>
                                <path d="M27.2150449,6.64816229 C29.7442619,6.64816229 31.7975797,8.51369224 31.7975797,10.814007 C31.7975797,13.1193773 29.7442619,14.9849073 27.2150449,14.9849073 C24.6858279,14.9849073 22.6325101,13.1193773 22.6325101,10.814007 C22.6325101,8.51369224 24.6858279,6.64816229 27.2150449,6.64816229 L27.2150449,6.64816229 Z M38.834471,22.0274092 L38.834471,4.82813307 C38.834471,2.16381252 36.2090047,0 32.9900013,0 L8.15768891,0 C4.94937982,0 2.33995509,2.15370124 2.33995509,4.80791052 L2.33995509,18.4277959 C2.33995509,34.1862155 9.94364763,42.2499561 28.5785763,46.2540204 L29.2148909,46.3905226 L32.5782683,38.5087849 L31.9152177,38.3116151 C20.7289134,34.9142272 16.1089483,30.0254265 16.5795003,22.0274092 L38.834471,22.0274092 Z" id="Fill-11" fill="#F0D75A"></path>
                            </g>
                        </g>
                    </g>
                    <path d="M72.0805504,12.7656546 C72.0805504,12.7656546 71.7398559,15.2884777 70.536046,16.6105112 C69.3322362,17.9325446 66.6650854,18.8727245 66.6650854,18.8727245 C66.6650854,18.8727245 69.8028654,19.6733227 70.536046,21.0926534 C71.2692266,22.511984 71.7398559,25.704669 71.7398559,25.704669 C71.7398559,25.704669 72.3101293,22.4454004 73.2592883,21.0926534 C74.2084473,19.7399064 76.5939279,19.2351618 76.5939279,19.2351618 C76.5939279,19.2351618 74.1094938,18.2599942 73.2592883,17.1209438 C72.4090828,15.9818934 72.0805504,12.7656546 72.0805504,12.7656546 Z" id="Path-13" fill="#FFFFFF"></path>
                    <path d="M32.2363107,70.9203036 C32.2363107,70.9203036 31.9929575,72.7223201 31.1330933,73.6666297 C30.2732291,74.6109393 28.3681214,75.2824963 28.3681214,75.2824963 C28.3681214,75.2824963 30.6093929,75.8543522 31.1330933,76.8681598 C31.6567938,77.8819675 31.9929575,80.1624567 31.9929575,80.1624567 C31.9929575,80.1624567 32.4002957,77.8344077 33.0782664,76.8681598 C33.7562371,75.901912 35.4601518,75.5413802 35.4601518,75.5413802 C35.4601518,75.5413802 33.685556,74.8448319 33.0782664,74.0312244 C32.4709768,73.217617 32.2363107,70.9203036 32.2363107,70.9203036 Z" id="Path-13-Copy" fill="#FFFFFF"></path>
                </g>
            </g>
        </g>
    </g>
</svg>