<?xml version="1.0" encoding="UTF-8"?>
<svg width="16px" height="20px" viewBox="0 0 16 20" version="1.1" xmlns="http://www.w3.org/2000/svg" xmlns:xlink="http://www.w3.org/1999/xlink">
    <!-- Generator: Sketch 41.2 (35397) - http://www.bohemiancoding.com/sketch -->
    <title>deng</title>
    <desc>Created with Sketch.</desc>
    <defs></defs>
    <g id="Page-1" stroke="none" stroke-width="1" fill="none" fill-rule="evenodd">
        <g id="我的-会员到期-会员功能-copy" transform="translate(-512.000000, -643.000000)" fill="#E46773">
            <g id="deng" transform="translate(512.000000, 643.000000)">
                <path d="M14.5509625,5.25596974 C14.1914257,4.40617521 13.6768338,3.64310513 13.0214523,2.98790051 C12.3660708,2.33269588 11.6027738,1.81822184 10.7527499,1.4588031 C9.87251637,1.08659067 8.93771665,0.89787329 7.9743017,0.89787329 C7.01090773,0.89787329 6.07608704,1.08661164 5.19585349,1.45882409 C4.34585058,1.81824283 3.58255353,2.33271687 2.92717205,2.9879215 C2.27179057,3.64312612 1.75717766,4.40621717 1.39766191,5.25599073 C1.02534901,6.13598673 0.836559693,7.07055517 0.836559693,8.03368917 C0.836559693,9.31941288 1.18256502,10.5799477 1.83717027,11.6789884 C2.45092956,12.7094676 3.39628167,13.5725382 4.43352145,14.1818113 L4.43352147,18.9601909 C4.43352147,19.4198618 4.80627494,19.7925147 5.26606992,19.7925147 L10.6876943,19.7925147 C11.1474893,19.7925147 11.5202427,19.4198618 11.5202427,18.9601909 L11.5202427,14.1662911 C12.5474546,13.5591572 13.4992262,12.704455 14.1077408,11.6851546 C14.7647586,10.5845828 15.1120647,9.32192966 15.1120647,8.03366819 C15.1120437,7.07053418 14.9232754,6.13598673 14.5509625,5.25596974 Z M10.9598328,13.5213424 C10.797477,13.5792496 10.6810649,13.7338854 10.6810649,13.9160801 L10.6810649,16.249502 L8.38863537,16.249502 L8.38863537,10.5346455 L11.1006433,10.5346455 C11.3323765,10.5346455 11.5202218,10.3468509 11.5202218,10.1151803 L11.5202218,10.1151803 C11.5202218,9.88350965 11.3323765,9.69571508 11.1006433,9.69571508 L4.85307891,9.69571508 C4.62134576,9.69571508 4.4335005,9.88350965 4.4335005,10.1151803 L4.4335005,10.1151803 C4.4335005,10.3468509 4.62134576,10.5346455 4.85307891,10.5346455 L7.54945758,10.5346455 L7.54945758,16.249502 L5.27265732,16.249502 L5.27265732,13.9160801 C5.27265732,13.7340322 5.1564341,13.5795222 4.99428802,13.5214892 C3.03588482,12.3999442 1.67569554,10.2873078 1.67569554,8.03368915 C1.67569554,4.56158707 4.50124142,1.73680366 7.97428071,1.73680366 C11.447341,1.73680366 14.2728659,4.56158707 14.2728659,8.03368915 C14.2728869,10.3022617 12.9387115,12.4049778 10.9598328,13.5213424 Z" id="Shape"></path>
            </g>
        </g>
    </g>
</svg>