<?xml version="1.0" encoding="UTF-8"?>
<svg width="28px" height="28px" viewBox="0 0 28 28" version="1.1" xmlns="http://www.w3.org/2000/svg" xmlns:xlink="http://www.w3.org/1999/xlink">
    <!-- Generator: Sketch 41.2 (35397) - http://www.bohemiancoding.com/sketch -->
    <title>zuoye</title>
    <desc>Created with Sketch.</desc>
    <defs></defs>
    <g id="Page-1" stroke="none" stroke-width="1" fill="none" fill-rule="evenodd">
        <g id="我的-收支明细-copy-2" transform="translate(-508.000000, -813.000000)">
            <g id="zuoye" transform="translate(508.000000, 813.000000)">
                <ellipse id="Oval-3-Copy-4" fill="#66B8E0" cx="14" cy="14" rx="14" ry="14"></ellipse>
                <g id="学习" transform="translate(6.000000, 6.000000)" stroke="#FFFFFF" stroke-width="0.2" fill="#FFFFFF">
                    <path d="M13.5665299,11.4235053 C13.3129881,11.4235053 13.1064743,11.6199258 13.1064743,11.8610758 L13.1064743,11.8630205 L13.1064743,12.9793113 L13.1064743,13.4382741 C13.1064743,14.1228287 12.517603,14.6829188 11.7978715,14.6829188 L2.22871403,14.6829188 C1.50898253,14.6829188 0.920111298,14.1228287 0.920111298,13.4382741 L0.920111298,2.11978563 C0.920111298,1.43523101 1.50898253,0.875140858 2.22871403,0.875140858 L11.7978715,0.875140858 C12.517603,0.875140858 13.1064743,1.43523101 13.1064743,2.11978563 L13.1064743,2.5787484 L13.1064743,3.69503918 L13.1064743,3.69698394 C13.1064743,3.93813386 13.3129881,4.13455437 13.5665299,4.13455437 C13.8200717,4.13455437 14.0265856,3.93813386 14.0265856,3.69698394 L14.0265856,3.69503918 L14.0265856,2.5787484 L14.0265856,1.94475746 C14.0265856,0.875140858 13.1064743,0 11.9818938,0 L2.04469177,0 C0.920111298,0 0,0.875140858 0,1.94475746 L0,13.6133022 C0,14.6829188 0.920111298,15.5580597 2.04469177,15.5580597 L11.9818938,15.5580597 C13.1064743,15.5580597 14.0265856,14.6829188 14.0265856,13.6133022 L14.0265856,12.9793113 L14.0265856,11.8630205 L14.0265856,11.8610758 C14.0265856,11.6218706 13.818027,11.4235053 13.5665299,11.4235053 Z M15.8177356,4.28362926 C15.6378027,4.10369639 15.3454118,4.10369639 15.1654789,4.28362926 L7.98861076,11.4604974 L5.02380769,8.49569432 C4.84387481,8.31576144 4.55148389,8.31576144 4.37155101,8.49569432 C4.19161813,8.67562719 4.19161813,8.96801812 4.37155101,9.14795099 L7.98656607,12.762966 L7.99065545,12.7588767 L7.99474483,12.762966 L15.8197802,4.93793063 C15.9976684,4.75595306 15.9976684,4.46356214 15.8177356,4.28362926 Z" id="Shape"></path>
                </g>
            </g>
        </g>
    </g>
</svg>