<?xml version="1.0" encoding="UTF-8"?>
<svg width="22px" height="21px" viewBox="0 0 22 21" version="1.1" xmlns="http://www.w3.org/2000/svg" xmlns:xlink="http://www.w3.org/1999/xlink">
    <!-- Generator: Sketch 41.2 (35397) - http://www.bohemiancoding.com/sketch -->
    <title>kouyu</title>
    <desc>Created with Sketch.</desc>
    <defs>
        <rect id="path-1" x="0" y="0" width="659.001513" height="930" rx="4"></rect>
    </defs>
    <g id="Page-1" stroke="none" stroke-width="1" fill="none" fill-rule="evenodd">
        <g id="我的-会员到期-会员功能-copy" transform="translate(-509.000000, -477.000000)">
            <rect id="Rectangle-7" fill="#EDF4F8" x="0" y="60" width="1280" height="1307"></rect>
            <g id="Group-6" transform="translate(480.000000, 247.000000)">
                <mask id="mask-2" fill="white">
                    <use xlink:href="#path-1"></use>
                </mask>
                <use id="Rectangle-32" fill="#FFFFFF" xlink:href="#path-1"></use>
            </g>
            <g id="kouyu" transform="translate(510.000000, 477.000000)">
                <g id="Page-1" transform="translate(5.000000, 4.000000)">
                    <g id="Group-11">
                        <polygon id="Path-9" fill="#E46773" points="7.47009277 6.98974609 2.62137022 6.98974609 2.5 8.14478726 3.11319987 9.0714223 4.46980794 9.61047363 5.59061686 9.58638016 6.6212972 9.28842419 7.43204753 8.42941151"></polygon>
                        <path d="M2.60551147,5.0058931 C2.60551147,5.6726069 2.60353899,6.33934483 2.60702523,7.00601034 C2.60780505,7.15766897 2.61791972,7.31075172 2.63982339,7.46057586 C2.83525917,8.79677931 4.11493807,9.73016897 5.37230046,9.45697586 C6.49319495,9.21344828 7.25867661,8.22572414 7.25890596,7.02182069 C7.25920413,5.67975172 7.26080963,4.3377069 7.25681881,2.99568621 C7.25629128,2.81875517 7.23963991,2.6391931 7.2077133,2.46547241 C6.97945642,1.22384138 5.79583257,0.3479 4.61310321,0.539434483 C3.43181881,0.730703448 2.60574083,1.74553448 2.6055344,3.00575172 C2.60541972,3.67248966 2.60551147,4.33920345 2.60551147,5.0058931 M5.14525917,0 C5.32165826,0.034637931 5.50094725,0.0576655172 5.67395183,0.105796552 C6.79915826,0.418841379 7.63525917,1.46857586 7.73649771,2.68824138 C7.74408945,2.7797 7.7498922,2.87168966 7.74996101,2.96343793 C7.7507867,4.32822069 7.75833257,5.6931 7.74798853,7.05781034 C7.74028211,8.07092759 7.33775917,8.88816552 6.55418119,9.47512759 C4.86282798,10.7420793 2.47080963,9.68143448 2.15115367,7.52953793 C2.12640596,7.36284138 2.11587844,7.19221034 2.1155344,7.02338966 C2.11273624,5.67581724 2.11308028,4.32826897 2.11420413,2.98069655 C2.11541972,1.51323103 3.09541972,0.290258621 4.46950229,0.0392965517 C4.55241514,0.024137931 4.63599312,0.0130344828 4.71922706,2.4137931e-05 C4.86124541,0 5.00324083,0 5.14525917,0" id="Fill-1" fill="#E46773"></path>
                        <path d="M2.47443578,13.9850828 C2.46576606,13.9787828 2.45764679,13.9713724 2.4483578,13.9663759 C2.33000917,13.9026517 2.27427523,13.7923414 2.2999633,13.6717483 C2.32661468,13.5465207 2.42480275,13.4680483 2.55902294,13.4679517 C3.2552844,13.4675414 3.95156881,13.4677586 4.64783028,13.4677586 L4.74792202,13.4677586 L4.74792202,11.9667172 C4.60679817,11.9507621 4.46590367,11.9387897 4.32611009,11.9184655 C3.18890826,11.7532172 2.2156055,11.2393207 1.41333486,10.3771138 C0.625444954,9.53037931 0.16666055,8.51190345 0.0207201835,7.33725517 C0.00977981651,7.24907931 -0.000334862385,7.15991379 9.17431204e-06,7.07125517 C0.000605504587,6.92488276 0.110444954,6.8129069 0.244344037,6.81194138 C0.375949541,6.81102414 0.481316514,6.91686897 0.491385321,7.05933103 C0.559229358,8.0172931 0.87443578,8.8765069 1.44088073,9.62777586 C2.17422936,10.6004621 3.12565138,11.2005793 4.29283028,11.3914138 C6.74535321,11.7924172 8.89645413,10.0979586 9.40283028,7.76447241 C9.45301376,7.5332069 9.47477982,7.29472414 9.50292202,7.05867931 C9.52019266,6.9139 9.62507798,6.80626897 9.75987156,6.81211034 C9.89652294,6.81802414 10.0074404,6.93668621 9.99413761,7.0887069 C9.97436697,7.31420345 9.95606422,7.54254828 9.90636239,7.76196207 C9.44507798,9.79913103 8.26349541,11.1366621 6.36510092,11.7668793 C6.03383945,11.8768276 5.69074312,11.9319828 5.34347248,11.9536345 C5.31372477,11.9554931 5.28411468,11.9598379 5.24920642,11.9636034 L5.24920642,13.4677586 L5.33994037,13.4677586 L7.39599541,13.4677586 C7.5518211,13.4677828 7.65101835,13.5392552 7.67925229,13.6717483 C7.70590367,13.7969517 7.64975688,13.9001655 7.51576606,13.9730621 C7.51131651,13.9755 7.50838073,13.9810034 7.50475688,13.9850828 L2.47443578,13.9850828 Z" id="Fill-3" fill="#E46773"></path>
                        <path d="M2.30021159,6.73076923 L7.58697723,6.73076923" id="Path-2" stroke="#E46773" stroke-width="0.5"></path>
                    </g>
                </g>
                <ellipse id="Oval" stroke="#E46773" stroke-width="0.6" cx="10" cy="10.5549836" rx="9.94897959" ry="9.80105624"></ellipse>
            </g>
        </g>
    </g>
</svg>