<?xml version="1.0" encoding="UTF-8"?>
<svg width="16px" height="16px" viewBox="0 0 16 16" version="1.1" xmlns="http://www.w3.org/2000/svg" xmlns:xlink="http://www.w3.org/1999/xlink">
    <!-- Generator: Sketch 41.2 (35397) - http://www.bohemiancoding.com/sketch -->
    <title>Shape</title>
    <desc>Created with Sketch.</desc>
    <defs></defs>
    <g id="Page-1" stroke="none" stroke-width="1" fill="none" fill-rule="evenodd">
        <g id="我的-会员到期--copy" transform="translate(-170.000000, -760.000000)" stroke="#4A4A4A" stroke-width="0.7">
            <g id="Group-4" transform="translate(140.000000, 738.000000)">
                <g id="【图标】设置-设置" transform="translate(30.000000, 22.000000)">
                    <path d="M7.97881955,5.51478448 C6.65492269,5.51478448 5.54006218,6.62964499 5.54006218,7.95354185 C5.54006218,9.27743872 6.65492269,10.3922992 7.97881955,10.3922992 C9.30271641,10.3922992 10.4175769,9.27743872 10.4175769,7.95354185 C10.4175769,6.62964499 9.30271641,5.51478448 7.97881955,5.51478448 Z M7.97881955,9.55615384 C7.07299538,9.55615384 6.37620756,8.85936602 6.37620756,7.95354185 C6.37620756,7.04771769 7.07299538,6.35092986 7.97881955,6.35092986 C8.88464372,6.35092986 9.58143154,7.04771769 9.58143154,7.95354185 C9.58143154,8.85936602 8.88464372,9.55615384 7.97881955,9.55615384 Z M15.3647705,8.51097211 C15.3647705,9.06840237 14.9466978,9.48647506 14.3892675,9.48647506 L13.7621585,9.48647506 C13.6228009,9.48647506 13.4834433,9.62583263 13.4834433,9.69551141 L13.4834433,9.69551141 L13.0653707,10.6013356 C12.9956919,10.6710144 13.0653707,10.8800507 13.1350494,10.9497295 L13.5531221,11.437481 C13.7621585,11.6465173 13.8318373,11.8555537 13.8318373,12.1342688 C13.8318373,12.4129839 13.7621585,12.6220203 13.5531221,12.8310566 L12.8563343,13.5278444 C12.5079404,13.8762383 11.8808314,13.8762383 11.5324374,13.5278444 L11.044686,13.040093 C10.9750072,12.9704142 10.7659708,12.9007354 10.6962921,12.9704142 L10.6266133,12.9704142 L9.72078911,13.3188081 C9.58143154,13.3188081 9.51175276,13.5278444 9.51175276,13.5975232 L9.51175276,14.2246322 C9.51175276,14.7820625 9.09368007,15.2001352 8.53624981,15.2001352 L7.49106808,15.2001352 C6.93363782,15.2001352 6.51556513,14.7820625 6.51556513,14.2246322 L6.51556513,13.5975232 C6.51556513,13.4581656 6.37620756,13.3188081 6.30652878,13.3188081 L6.30652878,13.3188081 L5.40070461,12.9007354 C5.33102583,12.8310566 5.12198948,12.9007354 5.0523107,12.9704142 L4.49488044,13.5278444 C4.2858441,13.7368808 4.07680775,13.8065596 3.79809262,13.8065596 C3.51937749,13.8065596 3.31034115,13.7368808 3.1013048,13.5278444 L2.40451698,12.8310566 C2.05612307,12.4826627 2.05612307,11.8555537 2.40451698,11.5071597 L2.89226845,11.0194083 C2.96194724,10.9497295 3.03162602,10.7406931 2.96194724,10.6710144 L2.96194724,10.6013356 L2.54387454,9.69551141 C2.54387454,9.55615384 2.3348382,9.48647506 2.26515942,9.48647506 L1.63805038,9.48647506 C1.08062012,9.48647506 0.662547425,9.06840237 0.662547425,8.51097211 L0.662547425,7.46579038 C0.662547425,6.90836012 1.08062012,6.49028743 1.63805038,6.49028743 L2.26515942,6.49028743 C2.40451698,6.49028743 2.54387454,6.35092986 2.54387454,6.28125108 L2.54387454,6.2115723 L2.96194724,5.30574813 C3.03162602,5.23606935 2.96194724,5.027033 2.89226845,4.95735422 L2.40451698,4.46960275 C2.19548063,4.2605664 2.12580185,4.05153005 2.12580185,3.77281492 C2.12580185,3.4940998 2.19548063,3.28506345 2.40451698,3.0760271 L3.1013048,2.37923928 C3.44969871,2.03084537 4.07680775,2.03084537 4.42520166,2.37923928 L4.91295314,2.86699076 C4.98263192,2.93666954 5.19166827,3.00634832 5.26134705,2.93666954 L5.33102583,2.93666954 L6.23685,2.58827563 C6.37620756,2.58827563 6.44588634,2.37923928 6.44588634,2.3095605 L6.44588634,1.68245146 C6.44588634,1.1250212 6.86395904,0.706948509 7.4213893,0.706948509 L8.46657103,0.706948509 C9.02400128,0.706948509 9.44207398,1.1250212 9.44207398,1.68245146 L9.44207398,2.3095605 C9.44207398,2.44891806 9.58143154,2.58827563 9.65111032,2.58827563 L9.72078911,2.58827563 L10.6266133,3.00634832 C10.6962921,3.0760271 10.9053284,3.00634832 10.9750072,2.93666954 L11.4627587,2.37923928 C11.8111526,2.03084537 12.4382616,2.03084537 12.7866555,2.37923928 L13.5531221,3.0760271 C13.7621585,3.28506345 13.8318373,3.4940998 13.8318373,3.77281492 C13.8318373,4.05153005 13.7621585,4.2605664 13.5531221,4.46960275 L13.0653707,4.95735422 C12.9956919,5.027033 12.9260131,5.23606935 12.9956919,5.30574813 L12.9956919,5.37542691 L13.3440858,6.28125108 C13.3440858,6.42060865 13.5531221,6.49028743 13.6228009,6.49028743 L14.2499099,6.49028743 C14.8073402,6.49028743 15.2254129,6.90836012 15.2254129,7.46579038 L15.2254129,8.51097211 L15.3647705,8.51097211 Z" id="Shape"></path>
                </g>
            </g>
        </g>
    </g>
</svg>