<?xml version="1.0" encoding="UTF-8"?>
<svg width="16px" height="15px" viewBox="0 0 16 15" version="1.1" xmlns="http://www.w3.org/2000/svg" xmlns:xlink="http://www.w3.org/1999/xlink">
    <!-- Generator: Sketch 41.2 (35397) - http://www.bohemiancoding.com/sketch -->
    <title>v</title>
    <desc>Created with Sketch.</desc>
    <defs></defs>
    <g id="Page-1" stroke="none" stroke-width="1" fill="none" fill-rule="evenodd">
        <g id="我的-是会员-copy" transform="translate(-179.000000, -385.000000)" fill="#FFFFFF">
            <g id="v" transform="translate(179.000000, 385.000000)">
                <path d="M10.0340995,13.3508994 C9.97129753,13.4970106 9.8770946,13.6552978 9.75149068,13.8257609 C9.62588677,13.996224 9.46495676,14.1545112 9.26870065,14.3006224 C9.07244454,14.4467337 8.84478745,14.5725517 8.58572938,14.6780765 C8.32667131,14.7836012 8.03228715,14.8363636 7.70257688,14.8363636 C7.37286661,14.8363636 7.08240756,14.7795426 6.83119974,14.6659005 C6.57999192,14.5522585 6.36411019,14.4142645 6.18355457,14.2519187 C6.00299895,14.0895729 5.85776943,13.9231684 5.747866,13.7527053 C5.63796258,13.5822422 5.55946014,13.4401896 5.51235867,13.3265475 C5.49665818,13.2778438 5.44170647,13.1236153 5.34750354,12.8638619 C5.2533006,12.6041086 5.13554693,12.2712997 4.99424253,11.8654352 C4.85293813,11.4595706 4.69593324,11.0131196 4.52322787,10.5260822 C4.35052249,10.0390447 4.16996686,9.53577267 3.981561,9.01626605 C3.5576478,7.814907 3.07878288,6.46743671 2.54496626,4.97385518 C2.37226088,4.48681772 2.21133087,4.11342234 2.06217622,3.85366903 C1.91302158,3.59391572 1.75209157,3.41533532 1.57938619,3.31792783 C1.40668081,3.22052034 1.21434982,3.18805118 1.00239322,3.22052034 C0.790436619,3.2529895 0.527453429,3.31792783 0.21344365,3.41533532 C0.134941205,3.02570536 0.131016083,2.66042727 0.201668283,2.31950105 C0.272320484,1.97857483 0.409699762,1.67011778 0.613806118,1.39412989 C0.817912475,1.11814199 1.07697054,0.882740558 1.39098032,0.687925576 C1.7049901,0.493110594 2.0582511,0.346999357 2.45076333,0.249591866 C3.23578777,0.0385423027 3.89128319,0.0710114664 4.41724957,0.346999357 C4.94321595,0.622987248 5.3239528,1.07755554 5.55946014,1.71070423 C5.62226209,1.90551921 5.75571625,2.27891459 5.9598226,2.83089038 C6.16392896,3.38286616 6.39943629,4.03630808 6.66634461,4.79121613 C6.93325292,5.54612419 7.22371196,6.35785328 7.53772174,7.22640341 C7.85173152,8.09495353 8.15789106,8.94321043 8.45620035,9.77117411 L11.7768538,1.58894487 C11.9495591,1.21554949 12.2243177,0.955796176 12.6011294,0.809684939 C12.9779412,0.663573703 13.3626031,0.574283503 13.7551154,0.541814339 C14.2104295,0.493110594 14.6971447,0.501227885 15.2152608,0.566166212 C14.2732315,2.90394599 13.4254051,4.99820705 12.6717816,6.84894938 C12.3577718,7.64444389 12.0437621,8.42370382 11.7297523,9.18672916 C11.4157425,9.94975451 11.1370588,10.6356656 10.8937013,11.2444624 C10.6503437,11.8532592 10.4501624,12.348414 10.2931576,12.7299266 C10.1361527,13.1114393 10.0498,13.3184302 10.0340995,13.3508994 L10.0340995,13.3508994 Z" id="Shape"></path>
            </g>
        </g>
    </g>
</svg>