<?xml version="1.0" encoding="UTF-8"?>
<svg width="28px" height="29px" viewBox="0 0 28 29" version="1.1" xmlns="http://www.w3.org/2000/svg" xmlns:xlink="http://www.w3.org/1999/xlink">
    <!-- Generator: Sketch 41.2 (35397) - http://www.bohemiancoding.com/sketch -->
    <title>meiti</title>
    <desc>Created with Sketch.</desc>
    <defs></defs>
    <g id="Page-1" stroke="none" stroke-width="1" fill="none" fill-rule="evenodd">
        <g id="我的-收支明细-copy-2" transform="translate(-508.000000, -368.000000)">
            <g id="meiti" transform="translate(508.000000, 368.500000)">
                <circle id="Oval-3" fill="#66B8E0" cx="14" cy="14" r="14"></circle>
                <g id="日历" transform="translate(7.000000, 7.000000)" fill="#FFFFFF">
                    <path d="M14.8606811,14.8606811 L0,14.8606811 L0,2.7120743 L14.8606811,2.7120743 L14.8606811,14.8606811 Z M0.371517028,14.4891641 L14.4891641,14.4891641 L14.4891641,3.08359133 L0.371517028,3.08359133 L0.371517028,14.4891641 Z M0.185758514,0.185758514 L14.6749226,0.185758514 L14.6749226,2.89783282 L0.185758514,2.89783282 L0.185758514,0.185758514 L0.185758514,0.185758514 Z M14.8606811,3.08359133 L0,3.08359133 L0,0 L14.8606811,0 L14.8606811,3.08359133 Z M0.371517028,2.7120743 L14.4891641,2.7120743 L14.4891641,0.371517028 L0.371517028,0.371517028 L0.371517028,2.7120743 Z M5.01547988,5.3869969 L5.75851393,5.3869969 L5.75851393,6.13003096 L5.01547988,6.13003096 L5.01547988,5.3869969 Z M7.24458204,5.3869969 L7.9876161,5.3869969 L7.9876161,6.13003096 L7.24458204,6.13003096 L7.24458204,5.3869969 Z M9.47368421,5.3869969 L10.2167183,5.3869969 L10.2167183,6.13003096 L9.47368421,6.13003096 L9.47368421,5.3869969 Z M11.7027864,5.3869969 L12.4458204,5.3869969 L12.4458204,6.13003096 L11.7027864,6.13003096 L11.7027864,5.3869969 Z M5.01547988,8.35913313 L5.75851393,8.35913313 L5.75851393,9.10216718 L5.01547988,9.10216718 L5.01547988,8.35913313 Z M7.24458204,8.35913313 L7.9876161,8.35913313 L7.9876161,9.10216718 L7.24458204,9.10216718 L7.24458204,8.35913313 Z M2.78637771,8.35913313 L3.52941176,8.35913313 L3.52941176,9.10216718 L2.78637771,9.10216718 L2.78637771,8.35913313 Z M11.7027864,8.35913313 L12.4458204,8.35913313 L12.4458204,9.10216718 L11.7027864,9.10216718 L11.7027864,8.35913313 Z M5.01547988,11.3312693 L5.75851393,11.3312693 L5.75851393,12.0743034 L5.01547988,12.0743034 L5.01547988,11.3312693 Z M7.24458204,11.3312693 L7.9876161,11.3312693 L7.9876161,12.0743034 L7.24458204,12.0743034 L7.24458204,11.3312693 Z M2.78637771,11.3312693 L3.52941176,11.3312693 L3.52941176,12.0743034 L2.78637771,12.0743034 L2.78637771,11.3312693 Z M9.47368421,11.3312693 L10.2167183,11.3312693 L10.2167183,12.0743034 L9.47368421,12.0743034 L9.47368421,11.3312693 Z M8.73065015,8.73065015 C8.73065015,9.34619972 9.22965167,9.84520124 9.84520124,9.84520124 C10.4607508,9.84520124 10.9597523,9.34619972 10.9597523,8.73065015 C10.9597523,8.3324594 10.7473201,7.96451596 10.4024768,7.76542057 C10.0576335,7.56632519 9.632769,7.56632519 9.28792569,7.76542057 C8.94308238,7.96451596 8.73065014,8.3324594 8.73065015,8.73065015 L8.73065015,8.73065015 Z" id="Shape"></path>
                </g>
            </g>
        </g>
    </g>
</svg>