<?xml version="1.0" encoding="UTF-8"?>
<svg width="28px" height="29px" viewBox="0 0 28 29" version="1.1" xmlns="http://www.w3.org/2000/svg" xmlns:xlink="http://www.w3.org/1999/xlink">
    <!-- Generator: Sketch 41.2 (35397) - http://www.bohemiancoding.com/sketch -->
    <title>Group 17</title>
    <desc>Created with Sketch.</desc>
    <defs></defs>
    <g id="Page-1" stroke="none" stroke-width="1" fill="none" fill-rule="evenodd">
        <g id="Artboard-2" transform="translate(-101.000000, -1569.000000)">
            <g id="Group-17" transform="translate(101.000000, 1569.000000)">
                <g id="Group-6-Copy-5" fill="#66B8E0">
                    <ellipse id="Oval-3-Copy-4" cx="14" cy="14.5" rx="14" ry="14"></ellipse>
                </g>
                <g id="Group" transform="translate(7.000000, 8.000000)" fill="#FFFFFF">
                    <polygon id="Shape" points="11.6612824 11.5663888 11.6612824 7.86310731 1.75001749 7.86310731 1.75001749 11.5663888 2.7465285 11.5663888 2.7465285 8.73844144 10.6647714 8.73844144 10.6647714 11.5663888"></polygon>
                    <path d="M1.58840706,3.23067096 L11.8497908,3.23067096 L11.8497908,4.99477585 L12.8193791,4.99477585 L12.8193791,2.38228427 L9.53359735,2.38228427 C10.1665035,1.96040459 10.7724869,1.51150323 11.3515724,1.03565443 L10.5974399,0.362339501 C10.0857106,0.811265605 9.47972719,1.26459635 8.77946483,1.72245543 L9.39890961,2.382309 L7.21735441,2.382309 L7.21735441,0.362339501 L6.19392068,0.362339501 L6.19392068,2.382309 L4.01909618,2.382309 L4.68568041,1.77632559 C4.15596146,1.3095335 3.57690074,0.842716657 2.94852296,0.375825599 L2.23479924,1.00875647 C2.77788055,1.45312948 3.29631572,1.91098856 3.79015423,2.38233376 L0.618818692,2.38233376 L0.618818692,4.98136401 L1.58840703,4.98136401 L1.58840706,3.23067096 Z" id="Shape"></path>
                    <path d="M6.2343295,9.07509891 C6.2343295,9.91002424 6.04579637,10.5339974 5.66873011,10.9469441 C4.92355534,11.8177251 3.15051745,12.3922822 0.349517502,12.6706402 C0.43926809,12.8412083 0.578434686,13.1823694 0.766992552,13.6940986 C3.76545863,13.2901097 5.6462368,12.625703 6.40937653,11.7010518 C6.97495116,11.0546596 7.25776323,10.1793502 7.25776323,9.07509891 L6.2343295,9.07509891 Z" id="Shape"></path>
                    <path d="M7.02882131,11.7684081 C8.71653799,12.2890703 10.4896996,12.9174728 12.3480587,13.6536899 L12.8867354,12.6437175 C11.4412982,12.140946 9.6368093,11.5709172 7.47321908,10.9334827 L7.02882131,11.7684081 Z" id="Shape"></path>
                    <path d="M10.6782327,7.23020117 L10.6782327,4.11946645 L2.73306716,4.11946645 L2.73306716,7.2302012 L3.7026555,7.2302012 L3.7026555,6.89354373 L9.70866914,6.89354373 L9.70866914,7.2302012 L10.6782327,7.23020117 Z M3.70263074,6.07207971 L3.70263074,4.9409057 L9.70864438,4.9409057 L9.70864438,6.07207971 L3.70263074,6.07207971 Z" id="Shape"></path>
                </g>
            </g>
        </g>
    </g>
</svg>