<?xml version="1.0" encoding="UTF-8" standalone="no"?>
<svg width="17px" height="18px" viewBox="0 0 17 18" version="1.1" xmlns="http://www.w3.org/2000/svg" xmlns:xlink="http://www.w3.org/1999/xlink">
    <!-- Generator: Sketch 42 (36781) - http://www.bohemiancoding.com/sketch -->
    <title>绑定渠道</title>
    <desc>Created with Sketch.</desc>
    <defs></defs>
    <g id="Page-1" stroke="none" stroke-width="1" fill="none" fill-rule="evenodd">
        <g id="匿名－绑定手机" transform="translate(-169.000000, -839.000000)" stroke="#4A4A4A" stroke-width="0.1" fill="#4A4A4A" fill-rule="nonzero">
            <g id="Group-11" transform="translate(140.000000, 818.000000)">
                <g id="绑定渠道" transform="translate(30.000000, 22.000000)">
                    <path d="M9.16494448,10.6489608 C8.88235768,10.6489608 8.59643095,10.6185203 8.313826,10.5561327 C7.29523927,10.3325936 6.4359525,9.72432766 5.95730838,8.88881971 C5.6472398,8.34815101 5.29594854,7.73469368 5.45005708,6.96231759 C5.49089857,6.75585932 5.69180239,6.6214273 5.8971534,6.66375723 C6.10324864,6.70459872 6.23693644,6.90512137 6.19571376,7.11085355 C6.09731299,7.60400092 6.33831408,8.02434152 6.61681673,8.51006482 C6.98963599,9.1606425 7.66771361,9.63522061 8.47722824,9.81347102 C9.30048374,9.99616862 10.1530907,9.8454 10.7587427,9.41612871 C11.0097636,9.2378783 11.2087978,9.07226152 11.3855598,8.89551771 C11.6908,8.5902775 11.9941887,8.28429306 12.2975774,7.9775644 C12.9418565,7.32624248 13.5861173,6.67490242 14.2474772,6.04214976 C14.9916454,5.32992866 15.3362387,4.3547791 15.1932753,3.36626985 C15.0514192,2.3859289 14.4424272,1.55116516 13.5226224,1.07658707 C12.5311363,0.566358882 11.152727,0.711936106 10.3833096,1.40856484 C9.87531409,1.86753242 9.3788268,2.3644009 8.89869424,2.84417041 C8.62946714,3.11301632 8.3602582,3.38260646 8.08731,3.64700518 C7.96068323,3.77029203 7.83739638,3.89802604 7.71449073,4.02577822 C7.36245525,4.39042918 6.99816731,4.76771379 6.53696708,5.05959429 C6.3594609,5.1702475 6.12477662,5.11900504 6.01263496,4.941517 C5.90011212,4.76401082 5.95322421,4.52858231 6.13071225,4.41644067 C6.51431367,4.17433233 6.83142514,3.84531329 7.16712403,3.49774315 C7.29598347,3.36405534 7.42484289,3.23038569 7.55776834,3.10188928 C7.82810269,2.838979 8.0943529,2.57310998 8.36098428,2.30647858 C8.84781483,1.82002922 9.35098198,1.31648089 9.87308142,0.84413545 C10.8786715,-0.0641611175 12.5972269,-0.255027016 13.8709187,0.400760248 C15.012048,0.988968443 15.7684687,2.03019046 15.9459567,3.25784931 C16.1245702,4.49218803 15.6971504,5.70721325 14.7732614,6.591731 C14.11673,7.22003647 13.4772793,7.86616697 12.8382098,8.51229749 C12.5337138,8.81977038 12.2292178,9.12798748 11.9232334,9.43322769 C11.7156497,9.64043017 11.4857938,9.83204028 11.1991229,10.0355398 C10.6347117,10.4365488 9.91207145,10.6489608 9.16494448,10.6489608 Z M3.79982496,15.988087 C2.88633699,15.988087 1.96763945,15.6739343 1.25763285,15.0389489 C0.505677499,14.3653367 0.0533716364,13.3746129 0.0166142971,12.3207391 C-0.0186545987,11.2988124 0.330022812,10.3570985 0.998806723,9.6693641 C1.93607353,8.70535973 2.95057611,7.69383404 4.28814395,6.38893939 C4.44448516,6.23595624 4.62939729,6.10152422 4.78945962,5.99012679 C5.59675972,5.42940037 6.64876387,5.24151138 7.67847764,5.47024186 C8.69185481,5.69750207 9.54890893,6.30723826 10.0301669,7.14202015 C10.3409797,7.68120041 10.692634,8.29168083 10.5377812,9.06926648 C10.4969397,9.27498052 10.2949286,9.40941256 10.0906849,9.36782684 C9.88458966,9.32698535 9.75090185,9.12646271 9.79212454,8.92073052 C9.89090648,8.4238802 9.65026843,8.00575409 9.37140275,7.52226349 C8.99596963,6.87019734 8.31829133,6.39338657 7.5120985,6.21217742 C6.68920603,6.02724715 5.85629378,6.17429467 5.22352298,6.61471113 C5.08130384,6.71349307 4.93647085,6.81895487 4.819882,6.93332921 C3.48677949,8.2330143 2.4767241,9.24009281 1.54392264,10.1996318 C1.02107897,10.7373237 0.748511947,11.4814919 0.776737969,12.2939834 C0.806071237,13.1428692 1.16627502,13.9360472 1.76486604,14.4715245 C2.950558,15.5320782 4.85923507,15.4793473 5.93463686,14.3541733 C6.44003667,13.8261201 6.95990345,13.3107005 7.47978838,12.7967693 C7.77462764,12.5048888 8.06946687,12.2130265 8.36134739,11.9181872 C8.72340264,11.5535362 9.04721213,11.2267499 9.45085311,10.9720079 C9.62872232,10.8613547 9.8637878,10.9125971 9.97554826,11.0908294 C10.0876899,11.2683356 10.034596,11.5030198 9.85708979,11.6151615 C9.52621928,11.8238524 9.24622819,12.1060762 8.94990049,12.4046366 C8.60752174,12.749974 8.31119406,13.043343 8.01450333,13.3366938 C7.49982796,13.846922 6.98477141,14.3563878 6.48421811,14.8799757 C5.78054643,15.616012 4.79316259,15.988087 3.79982496,15.988087 Z" id="Shape"></path>
                </g>
            </g>
        </g>
    </g>
</svg>