<?xml version="1.0" encoding="UTF-8"?>
<svg width="18px" height="16px" viewBox="0 0 18 16" version="1.1" xmlns="http://www.w3.org/2000/svg" xmlns:xlink="http://www.w3.org/1999/xlink">
    <!-- Generator: Sketch 41.2 (35397) - http://www.bohemiancoding.com/sketch -->
    <title>Shape</title>
    <desc>Created with Sketch.</desc>
    <defs></defs>
    <g id="Page-1" stroke="none" stroke-width="1" fill="none" fill-rule="evenodd">
        <g id="我的-档案" transform="translate(-758.000000, -94.000000)" fill="#FFFFFF">
            <path d="M774.853984,99.0667088 L774.607646,99.0667088 L774.607646,97.2723697 C774.607646,96.6504824 774.103518,96.1465346 773.481811,96.1465346 L766.444575,96.1465346 L766.444575,95.1258351 C766.444575,94.5041281 765.940356,94 765.318559,94 L759.125835,94 C758.504128,94 758,94.5041281 758,95.1258351 L758,108.531713 C758,109.15351 758.504128,109.657638 759.125835,109.657638 L773.48172,109.657638 C774.103518,109.657638 774.607556,109.153419 774.607556,108.531713 L775.98,100.192724 C775.98,99.5708369 775.475781,99.0667088 774.853984,99.0667088 L774.853984,99.0667088 Z M758.844421,95.688933 C758.844421,95.0671359 759.067046,94.8444214 759.688933,94.8444214 L764.755642,94.8444214 C765.377439,94.8444214 765.600153,95.0670457 765.600153,95.688933 L765.600153,96.9907756 L765.635319,96.9907756 L766.444665,96.9907756 L772.918893,96.9907756 C773.54069,96.9907756 773.763314,97.2134901 773.763314,97.835197 L773.763314,99.0667088 L760.498189,99.0667088 C759.876392,99.0667088 759.372174,99.5709271 759.372174,100.192724 L758.844421,103.616486 L758.844421,95.688933 L758.844421,95.688933 Z M773.763224,107.968705 C773.763224,108.590592 773.54051,108.813216 772.918803,108.813216 L759.688933,108.813216 C759.067046,108.813216 758.844421,108.590592 758.844421,107.968705 L760.216685,100.755642 C760.216685,100.133845 760.4394,99.9112204 761.061107,99.9112204 L774.290976,99.9112204 C774.912774,99.9112204 775.135398,100.133935 775.135398,100.755642 L773.763224,107.968705 L773.763224,107.968705 Z" id="Shape"></path>
        </g>
    </g>
</svg>