<?xml version="1.0" encoding="UTF-8"?>
<svg width="21px" height="17px" viewBox="0 0 21 17" version="1.1" xmlns="http://www.w3.org/2000/svg" xmlns:xlink="http://www.w3.org/1999/xlink">
    <!-- Generator: Sketch 41.2 (35397) - http://www.bohemiancoding.com/sketch -->
    <title>Group 11</title>
    <desc>Created with Sketch.</desc>
    <defs></defs>
    <g id="Page-1" stroke="none" stroke-width="1" fill="none" fill-rule="evenodd">
        <g id="我的-会员到期-会员功能-copy" transform="translate(-510.000000, -535.000000)" fill="#E46773">
            <g id="Group-11" transform="translate(510.000000, 535.000000)">
                <path d="M18.164502,1.6945176 C16.9283123,1.67399792 15.7671954,1.81432688 14.6762304,2.10503946 C13.5249045,2.41196258 12.4468344,2.88773703 11.4365191,3.51881978 L11.4365191,14.2484836 C12.3587406,13.7374153 13.318713,13.3110933 14.3359174,13.0142249 C15.5288299,12.666288 16.7953768,12.4972315 18.164502,12.578669 L18.164502,11.5934678 C18.610674,11.6104992 19.0617919,11.5545061 19.4649894,11.3967098 L19.4649894,13.3000383 L19.4643837,13.3000383 C19.4642828,13.3256623 19.4628697,13.3515427 19.4598415,13.3775771 C19.4177503,13.7396982 19.0947987,13.9986309 18.7385626,13.9559243 C17.2714516,13.7776339 15.9362668,13.921246 14.6914721,14.2843931 C13.444482,14.6483609 12.2803369,15.2340951 11.1607055,15.9390488 L11.1557595,15.9425371 L11.1507126,15.9458203 L11.1498799,15.9464615 L11.1457414,15.9493086 L11.1367832,15.9552593 L11.1355719,15.9561058 L11.1251753,15.9626721 L11.1234593,15.963698 L11.1199265,15.9659552 L11.1099336,15.9719315 L11.1095299,15.9721111 L11.0962313,15.979729 L11.093405,15.9811654 L11.0880553,15.9840381 L11.0827056,15.9871161 L11.082428,15.9871161 L11.0772802,15.9897837 L11.0718295,15.9926564 L11.0682967,15.994298 L11.066177,15.995324 L11.0606254,15.9979915 L11.0551747,16.0006591 L11.0539634,16.0010695 L11.0495222,16.0031215 L11.0438696,16.0055838 L11.0394283,16.0076358 L11.0382171,16.0080462 L11.0325645,16.0105085 L11.0267858,16.0127657 L11.0246661,16.0135865 L11.0210323,16.0150228 L11.0152788,16.01728 L11.0099291,16.0193063 L11.0095254,16.0195115 L11.0037719,16.0215635 L10.9948893,16.0246414 L10.9919874,16.0256674 L10.9801776,16.0295661 L10.9796729,16.0297457 L10.9743232,16.0314129 L10.9682669,16.033234 L10.9643303,16.0344652 L10.9623116,16.0348756 L10.9563562,16.0365172 L10.9502999,16.0381588 L10.9488868,16.0385692 L10.9442437,16.0398004 L10.9380864,16.0412368 L10.9332414,16.0424679 L10.9321311,16.0426731 L10.9259738,16.0441095 L10.9198419,16.0455459 L10.9173941,16.0459563 L10.9136846,16.0467771 L10.9074265,16.0480083 L10.9014711,16.0492138 L10.9012692,16.0492138 L10.8950111,16.0502398 L10.8888791,16.0512657 L10.8854472,16.0516761 L10.88252,16.0523174 L10.8762618,16.0531382 L10.8700289,16.053959 L10.8691961,16.0541641 L10.8636698,16.0547797 L10.8573107,16.0556005 L10.8528694,16.0560109 L10.8509768,16.0562161 L10.8381576,16.0574473 L10.8364417,16.0574473 L10.8317985,16.0578577 L10.8253385,16.0582681 L10.8199131,16.0586785 L10.8189037,16.0586785 L10.8125446,16.0588837 L10.8059836,16.0592941 L10.8032583,16.0592941 L10.7995236,16.0592941 L10.7865278,16.0594736 L10.7735067,16.0592941 L10.769772,16.0592941 L10.7669458,16.0592941 L10.7603595,16.0588837 L10.7538995,16.0586785 L10.7528901,16.0586785 L10.7474647,16.0582681 L10.7410047,16.0578577 L10.7364877,16.0574473 L10.7346708,16.0574473 L10.7219273,16.0562162 L10.7200347,16.056011 L10.7154925,16.0556006 L10.7091334,16.0547798 L10.703708,16.0541642 L10.7029005,16.053959 L10.6965414,16.0531382 L10.6903842,16.0523174 L10.6874569,16.0516762 L10.6839998,16.0512658 L10.6777669,16.0502398 L10.6715087,16.0492138 L10.6714078,16.0492138 L10.6653515,16.0480083 L10.6591943,16.0467771 L10.6554848,16.0459563 L10.653037,16.0455459 L10.646905,16.0441096 L10.6407478,16.0426732 L10.6396375,16.042468 L10.6346915,16.0412368 L10.6285343,16.0398004 L10.6239921,16.0385692 L10.622478,16.0381588 L10.6165227,16.0365173 L10.6104664,16.0348757 L10.6084476,16.0344653 L10.604511,16.0332341 L10.5985557,16.031413 L10.593206,16.0297457 L10.5927013,16.0295662 L10.5807653,16.0256674 L10.5779643,16.0246415 L10.5690817,16.0215635 L10.5632273,16.0195116 L10.5628236,16.0193064 L10.5574738,16.0172801 L10.5517204,16.0150229 L10.5480866,16.0135865 L10.5459669,16.0127657 L10.5401882,16.0105086 L10.5346366,16.0080462 L10.5333244,16.0076358 L10.5289083,16.0055839 L10.5233567,16.0031215 L10.5188145,16.0010695 L10.5177294,16.0006591 L10.5121779,15.9979916 L10.5065253,15.995324 L10.5046075,15.994298 L10.5010747,15.9926565 L10.495624,15.9897837 L10.4904762,15.9871162 L10.4901986,15.9871162 L10.4847479,15.9840382 L10.4792973,15.9811654 L10.4765719,15.9797291 L10.4633743,15.9721111 L10.4628696,15.9719316 L10.4528767,15.9659552 L10.4493439,15.9636981 L10.4477289,15.9626721 L10.4373322,15.9561058 L10.43602,15.9552594 L10.4271375,15.9493087 L10.422999,15.9464616 L10.4221915,15.9458203 L10.4171194,15.9425372 L10.4120725,15.9390488 C9.29254203,15.2340952 8.12842215,14.6483609 6.88140683,14.2843931 C5.63653644,13.9212461 4.30132637,13.7776339 2.8343163,13.9559243 C2.47805504,13.9986053 2.15500244,13.7396982 2.11293647,13.3775771 C2.10990832,13.3515171 2.10849519,13.3256623 2.10839426,13.3000384 L2.10788957,13.3000384 L2.10788957,11.4884328 C2.5233006,11.5998546 2.97371192,11.6189123 3.40827596,11.5731791 L3.40827596,12.578669 C4.77727508,12.4972316 6.04387242,12.6662881 7.23686058,13.0142249 C8.25416588,13.3110934 9.21401214,13.7374411 10.1362589,14.2484837 L10.1362589,3.51884544 C9.12591828,2.88776267 8.04787343,2.41198825 6.89654749,2.10506513 C5.80558255,1.81435257 4.64456653,1.67399795 3.40827588,1.69454327 L3.40827588,5.41704411 C2.98481505,5.35753704 2.53569068,5.33088709 2.10788949,5.36761733 L2.10788949,1.05953611 C2.10788949,0.694542298 2.39904564,0.398494615 2.75813316,0.398494615 L2.76641007,0.3986998 C5.6313128,0.238466743 8.33198912,0.85292856 10.7865025,2.37854115 C13.2407131,0.852954227 15.9418941,0.238466743 18.8063678,0.3986998 L18.8148467,0.398494615 C19.1739342,0.398494615 19.4650903,0.694542298 19.4650903,1.05953611 L19.4650903,5.4012183 C19.0475848,5.33517059 18.5983847,5.33924886 18.164603,5.38316097 L18.164603,1.6945176 L18.164502,1.6945176 Z M17.1577952,6.42807439 C17.1265297,6.71655545 17.1035914,7.00419008 17.0888545,7.29141428 L17.6481781,7.49371268 L17.0769438,7.57576576 C17.06685,7.88371486 17.0660425,8.19084319 17.0737138,8.49735591 L17.5313927,8.68488015 L17.0819907,8.74869636 C17.0952136,9.07388199 17.1181266,9.39845204 17.150023,9.72240649 L17.5467605,9.81164144 L17.1666778,9.88487104 C17.1916096,10.1175129 17.221563,10.3499752 17.2556044,10.581822 C17.570481,10.6726985 18.8653158,10.9933955 19.5671388,10.356362 C20.3700515,9.62781077 20.7714321,8.14162162 20.3413093,6.88825391 C19.9795974,5.83413226 17.8311537,6.26455819 17.1577952,6.42807439 L17.1577952,6.42807439 Z M4.13500544,6.42807439 C3.46164692,6.26455819 1.31330424,5.83413226 0.951491394,6.88825388 C0.521469571,8.14162159 0.922749245,9.62783638 1.72558619,10.356362 C2.42751019,10.9933955 3.72231976,10.6727242 4.03712065,10.581822 C4.07121252,10.3500009 4.1010902,10.1175386 4.12622381,9.88487102 L3.74606544,9.81164141 L4.14277767,9.72240646 C4.1745732,9.39845202 4.19746093,9.07388196 4.21081001,8.74869633 L3.76140806,8.68488012 L4.21898599,8.49735588 C4.22675822,8.19084316 4.22595074,7.88371486 4.21585691,7.57576574 L3.64452165,7.49371265 L4.20394619,7.29141426 C4.18920924,7.00416441 4.16629628,6.71652981 4.13500544,6.42807439 Z" id="Shape"></path>
            </g>
        </g>
    </g>
</svg>