<?xml version="1.0" encoding="UTF-8"?>
<svg width="28px" height="28px" viewBox="0 0 28 28" version="1.1" xmlns="http://www.w3.org/2000/svg" xmlns:xlink="http://www.w3.org/1999/xlink">
    <!-- Generator: Sketch 41.2 (35397) - http://www.bohemiancoding.com/sketch -->
    <title>youxiang</title>
    <desc>Created with Sketch.</desc>
    <defs></defs>
    <g id="Page-1" stroke="none" stroke-width="1" fill="none" fill-rule="evenodd">
        <g id="我的-收支明细-copy-2" transform="translate(-508.000000, -623.000000)">
            <g id="youxiang" transform="translate(508.000000, 623.000000)">
                <ellipse id="Oval-3-Copy-3" fill="#66B8E0" cx="14" cy="14" rx="14" ry="14"></ellipse>
                <g id="邮箱" transform="translate(6.000000, 8.000000)" stroke="#FFFFFF" stroke-width="0.4" fill="#FFFFFF">
                    <path d="M14.2546397,0.0155143054 L1.59864934,0.0155143054 C0.724930076,0.0155143054 0.0166329055,0.723811453 0.0166329055,1.59750722 L0.0166329055,10.0348341 C0.0166329055,10.9085769 0.724930053,11.6168741 1.59864934,11.6168741 L14.2546397,11.6168741 C15.1283589,11.6168741 15.8366326,10.9085769 15.8366326,10.0348341 L15.8366326,1.59753074 C15.8366561,0.723811476 15.1283589,0.0155143054 14.2546397,0.0155143054 Z M15.3093173,9.55144806 C15.3093173,10.4251908 14.6010201,11.133488 13.7273244,11.133488 L2.12598815,11.133488 C1.25226889,11.133488 0.543995236,10.4251908 0.543995236,9.55144806 L0.543995236,2.08089331 C0.543995236,1.20719754 1.25226889,0.498900394 2.12598815,0.498900394 L13.7273244,0.498900394 C14.6010202,0.498900394 15.3093173,1.20719754 15.3093173,2.08089331 L15.3093173,9.55144806 Z M14.0830595,8.12573415 L14.4262434,7.72536469 L10.9560927,4.75093972 L13.7273244,1.9797315 L13.3451236,1.59753074 L7.65829777,7.28430956 L2.31242294,1.93843473 L1.93955333,2.31128084 L4.64530252,5.01705355 L1.59862582,8.06370674 L1.98778381,8.45286471 L5.03446049,5.40621153 L7.66718234,8.03895687 L8.04049853,7.66651032 L8.04049853,7.66651032 L10.5821418,5.12491403 L14.0830595,8.12573415 Z" id="Shape"></path>
                </g>
            </g>
        </g>
    </g>
</svg>