<?xml version="1.0" encoding="UTF-8" standalone="no"?>
<svg width="18px" height="14px" viewBox="0 0 18 14" version="1.1" xmlns="http://www.w3.org/2000/svg" xmlns:xlink="http://www.w3.org/1999/xlink">
    <!-- Generator: Sketch 42 (36781) - http://www.bohemiancoding.com/sketch -->
    <title>邮箱</title>
    <desc>Created with Sketch.</desc>
    <defs></defs>
    <g id="Page-1" stroke="none" stroke-width="1" fill="none" fill-rule="evenodd">
        <g id="匿名－绑定手机-copy-3" transform="translate(-922.000000, -98.000000)" fill-rule="nonzero" fill="#0E8ABE">
            <g id="邮箱" transform="translate(922.000000, 98.000000)">
                <path d="M16.3977017,0 L1.56861139,0 C0.70388554,0 0,0.70388552 0,1.5674963 L0,11.8846529 C0,12.7504732 0.70388552,13.4543588 1.56861139,13.4543588 L16.3977017,13.4543588 C17.2624482,13.4543588 17.9663131,12.7504732 17.9663131,11.8846529 L17.9663131,1.5674963 C17.9663131,0.70388552 17.2624482,0 16.3977017,0 Z M8.99968661,7.84084742 L1.90350783,1.04648432 L15.9967263,1.0464843 L8.99968661,7.84084742 Z M16.3977017,12.4078951 L1.56861139,12.4078951 C1.27999086,12.4078951 1.04646366,12.1732528 1.04646366,11.8846529 L1.04646366,1.72503268 L8.59871121,8.95782973 C8.7044582,9.05915771 8.83886695,9.10875822 8.97325505,9.10875822 C9.05915771,9.10875822 9.14066197,9.08232663 9.21778852,9.04265861 C9.30042852,9.0184159 9.37972328,8.98207246 9.44468717,8.91818235 L16.9198288,1.6600275 L16.9198288,11.8846323 C16.9198288,12.1732322 16.6863223,12.4078951 16.3977017,12.4078951 Z" id="Shape"></path>
            </g>
        </g>
    </g>
</svg>