<?xml version="1.0" encoding="UTF-8"?>
<svg width="18px" height="18px" viewBox="0 0 18 18" version="1.1" xmlns="http://www.w3.org/2000/svg" xmlns:xlink="http://www.w3.org/1999/xlink">
    <!-- Generator: Sketch 41.2 (35397) - http://www.bohemiancoding.com/sketch -->
    <title>Group 14</title>
    <desc>Created with Sketch.</desc>
    <defs></defs>
    <g id="Page-1" stroke="none" stroke-width="1" fill="none" fill-rule="evenodd">
        <g id="我的-会员到期-会员功能-copy" transform="translate(-511.000000, -702.000000)" fill="#E46773">
            <g id="Group-14" transform="translate(511.000000, 702.000000)">
                <path d="M16.2244728,6.07138788 C16.2244728,2.722101 13.1209569,0.00697556411 9.2925685,0.00697556411 L9.2925685,0.00697556411 C5.46419993,0.00697556411 2.36068401,2.722101 2.36068401,6.07138788 L2.36068401,6.5313611 L3.06350011,6.5313611 L3.06350011,6.07138788 C3.06350011,3.06171664 5.85235207,0.621875057 9.2925685,0.621875057 L9.2925685,0.621875057 C12.7327849,0.621875057 15.5216171,3.06171664 15.5216171,6.07138788 L15.5216171,6.5313611 L16.2244728,6.5313611 L16.2244728,6.07138788 Z" id="Shape"></path>
                <path d="M12.5060298,15.9437155 C15.663114,15.8068844 15.4652399,13.1807714 15.4652399,13.1807714 L15.8880096,12.7308246 L16.2244728,13.1807714 C16.1663152,16.5055358 12.5538812,16.6274755 12.5538812,16.6274755 L12.054755,16.330517 L12.5060298,15.9437155 Z" id="Shape"></path>
                <path d="M4.92378975,12.2359465 C4.92378975,12.7577597 4.41374415,13.1807714 3.78457449,13.1807714 L1.93379974,13.1807714 C1.30463008,13.1807714 0.794564704,12.7577597 0.794564704,12.2359465 L0.794564685,7.02627875 C0.794564685,6.50446555 1.30463006,6.08145394 1.93379972,6.08145394 L3.78457447,6.08145394 C4.41374413,6.08145394 4.92378973,6.50446555 4.92378973,7.02627875 L4.92378975,12.2359465 Z" id="Shape"></path>
                <path d="M17.8334981,12.2359465 C17.8334981,12.7577597 17.3234525,13.1807714 16.6942828,13.1807714 L14.8435081,13.1807714 C14.2143384,13.1807714 13.7042532,12.7577597 13.7042532,12.2359465 L13.7042532,7.02627875 C13.7042532,6.50446555 14.2143186,6.08145394 14.8435081,6.08145394 L16.6942828,6.08145394 C17.3234525,6.08145394 17.8334981,6.50446555 17.8334981,7.02627875 L17.8334981,12.2359465 Z" id="Shape"></path>
                <path d="M12.6184678,16.330517 C12.6184678,16.7999234 12.1578956,17.1804163 11.5896925,17.1804163 L10.4904556,17.1804163 C9.92225247,17.1804163 9.46168035,16.7999234 9.46168035,16.330517 L9.46168035,16.330517 C9.46168035,15.8611106 9.92225247,15.4806177 10.4904556,15.4806177 L11.5896925,15.4806177 C11.9892981,15.4806177 12.3356124,15.6687876 12.5060298,15.9437353 C12.5779355,16.0597223 12.6184678,16.1911941 12.6184678,16.330517 L12.6184678,16.330517 Z" id="Shape"></path>
            </g>
        </g>
    </g>
</svg>
