<?xml version="1.0" encoding="UTF-8"?>
<svg width="28px" height="29px" viewBox="0 0 28 29" version="1.1" xmlns="http://www.w3.org/2000/svg" xmlns:xlink="http://www.w3.org/1999/xlink">
    <!-- Generator: Sketch 41.2 (35397) - http://www.bohemiancoding.com/sketch -->
    <title>fenxiang</title>
    <desc>Created with Sketch.</desc>
    <defs></defs>
    <g id="Page-1" stroke="none" stroke-width="1" fill="none" fill-rule="evenodd">
        <g id="我的-收支明细-copy-2" transform="translate(-508.000000, -496.000000)">
            <g id="fenxiang" transform="translate(508.000000, 496.500000)">
                <ellipse id="Oval-3-Copy-9" fill="#66B8E0" cx="14" cy="14" rx="14" ry="14"></ellipse>
                <g id="分享" transform="translate(6.000000, 6.000000)" fill="#FFFFFF">
                    <path d="M1.17544364,14.185196 C0.527309779,14.185196 -1.65440724e-07,13.6682807 -1.65440724e-07,13.0329417 L-1.65440724e-07,3.8605008 C-1.65440724e-07,3.22516185 0.527309779,2.70824658 1.17544364,2.70824658 L4.09382966,2.70824658 L4.09382966,3.59000859 L1.17544364,3.59000859 C1.01119136,3.59000859 0.877494044,3.71135866 0.877494044,3.8605008 L0.877494044,13.0329417 C0.877494044,13.1820839 1.01112243,13.3034339 1.17544364,13.3034339 L13.0348336,13.3034339 C13.1995684,13.3034339 13.333662,13.1820839 13.333662,13.0329417 L13.333662,9.74230815 L14.2111563,9.74230815 L14.2111563,13.0329417 C14.2111563,13.6682807 13.6834499,14.185196 13.0348336,14.185196 L1.17544364,14.185196 L1.17544364,14.185196 Z M6.16998116,11.0042761 C6.16534536,10.9790468 5.75012195,8.41182101 7.42494022,6.00159878 C8.59903981,4.31166749 10.5155921,3.15278125 13.124844,2.55396162 L9.94407827,0.824671197 L10.3884952,-1.80085408e-07 L14.9930736,2.50289692 L12.2966203,6.78575087 L11.5079991,6.28426409 L13.2717249,3.48206108 C10.931884,4.02953897 9.22528716,5.05394964 8.19632792,6.52966552 C7.46545613,7.57727955 7.20662654,8.70903171 7.11823603,9.47398042 C7.02331403,10.2953964 7.09641845,10.8873243 7.10510413,10.9521205 L7.12381969,11.1024228 L6.19031668,11.1143881 L6.16998116,11.0042761 L6.16998116,11.0042761 Z" id="Shape"></path>
                </g>
            </g>
        </g>
    </g>
</svg>