<?xml version="1.0" encoding="UTF-8"?>
<svg width="125px" height="125px" viewBox="0 0 125 125" version="1.1" xmlns="http://www.w3.org/2000/svg" xmlns:xlink="http://www.w3.org/1999/xlink">
    <!-- Generator: Sketch 41.2 (35397) - http://www.bohemiancoding.com/sketch -->
    <title>Group 4</title>
    <desc>Created with Sketch.</desc>
    <defs></defs>
    <g id="Page-1" stroke="none" stroke-width="1" fill="none" fill-rule="evenodd">
        <g id="我的-会员到期-" transform="translate(-510.000000, -91.000000)">
            <g id="Group-4" transform="translate(510.000000, 91.000000)">
                <ellipse id="Oval-10" fill="#DCDBDB" opacity="0.227072011" cx="62.1838438" cy="62.5" rx="62" ry="62.5"></ellipse>
                <ellipse id="Oval-10" fill="#DCDBDB" cx="62.1838438" cy="62.5" rx="52" ry="52.4193548"></ellipse>
                <path d="M78.2501318,86.4073565 L46.7498682,86.4073565 L35.7930867,58.5155572 C33.1109121,58.2666512 31,55.9054952 31,52.9957676 C31,49.9203064 33.3500657,47.4275771 36.2497804,47.4275771 C39.1496707,47.4275771 41.4998243,49.9203064 41.4998243,52.9957676 C41.4998243,54.1774813 41.1478592,55.2684217 40.5563012,56.1694282 C42.4101365,59.2753801 45.6504824,61.3490143 49.3745827,61.3490143 C54.2621183,61.3490143 58.332385,57.7909428 59.503552,52.9957676 L59.8745827,52.9957676 L59.8745827,46.6547367 C58.3115623,45.6903898 57.2497804,43.9150234 57.2497804,41.8587751 C57.2497804,38.7829645 59.6002853,36.2903226 62.5,36.2903226 C65.3997147,36.2903226 67.7500439,38.7829645 67.7500439,41.8587751 C67.7500439,43.9150234 66.687647,45.6903898 65.1246266,46.6547367 L65.1246266,52.9957676 L65.4960965,52.9957676 C66.6674393,57.7907681 70.7384967,61.3490143 75.6246266,61.3490143 C79.3491662,61.3490143 82.5894242,59.2752927 84.4435231,56.1694282 C83.8513501,55.2684217 83.5,54.1774813 83.5,52.9957676 C83.5,49.9203064 85.8501535,47.4272277 88.7497804,47.4272277 C91.6499343,47.4272277 94,49.9203064 94,52.9957676 C94,55.9054952 91.8888243,58.2658649 89.2065618,58.5155572 L78.2501318,86.4073565" id="iconfont-vip-(1)-copy" fill="#FFFFFF"></path>
            </g>
        </g>
    </g>
</svg>