<?xml version="1.0" encoding="UTF-8"?>
<svg width="20px" height="16px" viewBox="0 0 20 16" version="1.1" xmlns="http://www.w3.org/2000/svg" xmlns:xlink="http://www.w3.org/1999/xlink">
    <!-- Generator: Sketch 41.2 (35397) - http://www.bohemiancoding.com/sketch -->
    <title>Group 9</title>
    <desc>Created with Sketch.</desc>
    <defs></defs>
    <g id="Page-1" stroke="none" stroke-width="1" fill="none" fill-rule="evenodd">
        <g id="我的-会员到期-会员功能-copy" transform="translate(-510.000000, -421.000000)" fill="#E46773">
            <g id="Group-9" transform="translate(510.000000, 421.000000)">
                <path d="M17.774016,7.43845492 C17.774016,3.64354981 14.3454923,0.567180497 10.1161856,0.567180497 L10.1161856,0.567180497 C5.88690085,0.567180497 2.45837707,3.64354981 2.45837707,7.43845492 L2.45837707,7.95962697 L3.23479381,7.95962697 L3.23479381,7.43845492 C3.23479381,4.02835087 6.31570124,1.26389156 10.1161856,1.26389156 L10.1161856,1.26389156 C13.91667,1.26389156 16.9975556,4.02835087 16.9975556,7.43845492 L16.9975556,7.95962697 L17.7740161,7.95962697 L17.774016,7.43845492 Z" id="Shape"></path>
                <path d="M5.28989757,14.4232 C5.28989757,15.0144398 4.72643874,15.4937325 4.03138088,15.4937325 L1.98678842,15.4937325 C1.29173056,15.4937325 0.728249881,15.0144398 0.728249881,14.4232 L0.728249859,8.52039276 C0.728249859,7.92915301 1.29173054,7.44986025 1.9867884,7.44986025 L4.03138086,7.44986025 C4.72643872,7.44986025 5.28989755,7.92915301 5.28989755,8.52039276 L5.28989757,14.4232 Z" id="Shape"></path>
                <path d="M19.5515425,14.4232 C19.5515425,15.0144398 18.9880836,15.4937325 18.2930258,15.4937325 L16.2484333,15.4937325 C15.5533755,15.4937325 14.9898729,15.0144398 14.9898729,14.4232 L14.9898729,8.52039276 C14.9898729,7.92915301 15.5533536,7.44986025 16.2484333,7.44986025 L18.2930258,7.44986025 C18.9880836,7.44986025 19.5515425,7.92915301 19.5515425,8.52039276 L19.5515425,14.4232 Z" id="Shape"></path>
            </g>
        </g>
    </g>
</svg>