<?xml version="1.0" encoding="UTF-8"?>
<svg width="23px" height="23px" viewBox="0 0 23 23" version="1.1" xmlns="http://www.w3.org/2000/svg" xmlns:xlink="http://www.w3.org/1999/xlink">
    <!-- Generator: Sketch 41.2 (35397) - http://www.bohemiancoding.com/sketch -->
    <title>time</title>
    <desc>Created with Sketch.</desc>
    <defs>
        <rect id="path-1" x="0" y="0" width="659.001513" height="930" rx="4"></rect>
    </defs>
    <g id="Page-1" stroke="none" stroke-width="1" fill="none" fill-rule="evenodd">
        <g id="我的-会员到期-会员功能-copy" transform="translate(-510.000000, -363.000000)">
            <rect id="Rectangle-7" fill="#EDF4F8" x="0" y="60" width="1280" height="1307"></rect>
            <g id="Group-6" transform="translate(480.000000, 247.000000)">
                <mask id="mask-2" fill="white">
                    <use xlink:href="#path-1"></use>
                </mask>
                <use id="Rectangle-32" fill="#FFFFFF" xlink:href="#path-1"></use>
            </g>
            <g id="time" transform="translate(511.000000, 364.000000)">
                <path d="M10.5,0 C16.2989941,0 21,4.70100586 21,10.5 C21,16.2989941 16.2989941,21 10.5,21 C4.70100586,21 0,16.2989941 0,10.5 C0,4.70100586 4.70100586,0 10.5,0" id="Fill-1" stroke="#E46773" stroke-width="0.6"></path>
                <path d="M14.0539793,8.07205957 C14.3649598,7.7610791 14.3649598,7.25699707 14.0539793,6.94605762 C13.7429988,6.63511816 13.2389168,6.63511816 12.9279773,6.94605762 L9.90902227,9.96505371 L11.0350242,11.0910146 L14.0539793,8.07205957 Z" id="Fill-5" fill="#E46773"></path>
                <path d="M10.017201,10.2790529 L5.53854082,14.7577131 C5.34420879,14.9520451 5.34420879,15.2671682 5.53854082,15.4615412 C5.63570684,15.5586662 5.76306035,15.6072697 5.89041387,15.6072697 C6.01772637,15.6072697 6.1451209,15.5586662 6.24228691,15.4615412 L10.7209471,10.98284 L10.017201,10.2790529 Z" id="Fill-7" fill="#E46773"></path>
                <path d="M7.01638711,5.89040156 C6.70540664,5.57942109 6.20132461,5.57942109 5.89038516,5.89040156 C5.5794457,6.20138203 5.5794457,6.70546406 5.89038516,7.01640352 L9.96500039,11.0909777 L11.0910023,9.9650168 L7.01638711,5.89040156 Z" id="Fill-9" fill="#E46773"></path>
                <path d="M10.5,11.7440736 C9.81401367,11.7440736 9.25591406,11.185974 9.25591406,10.4999877 C9.25591406,9.81400137 9.81401367,9.25594277 10.5,9.25594277 C11.1859863,9.25594277 11.7440859,9.81400137 11.7440859,10.4999877 C11.7440859,11.185974 11.1859863,11.7440736 10.5,11.7440736" id="Fill-11" fill="#E46773"></path>
                <path d="M3.56082298,10.9976303 L2.81437962,10.9976303 C2.53953392,10.9976303 2.31673704,10.7747924 2.31673704,10.4999877 C2.31673704,10.225224 2.53953392,10.0023861 2.81437962,10.0023861 L3.56082298,10.0023861 C3.83566868,10.0023861 4.05846556,10.225224 4.05846556,10.4999877 C4.05846556,10.7747924 3.83566868,10.9976303 3.56082298,10.9976303" id="Fill-13" fill="#E46773"></path>
                <path d="M10.5,4.05844915 C10.2251543,4.05844915 10.0023574,3.83561126 10.0023574,3.56080658 L10.0023574,2.81436322 C10.0023574,2.53959954 10.2251543,2.31676165 10.5,2.31676165 C10.7748457,2.31676165 10.9976426,2.53959954 10.9976426,2.81436322 L10.9976426,3.56080658 C10.9976426,3.83561126 10.7748457,4.05844915 10.5,4.05844915" id="Fill-15" fill="#E46773"></path>
                <path d="M18.1856245,10.9976303 L17.4391811,10.9976303 C17.1643354,10.9976303 16.9415385,10.7747924 16.9415385,10.4999877 C16.9415385,10.225224 17.1643354,10.0023861 17.4391811,10.0023861 L18.1856245,10.0023861 C18.4604702,10.0023861 18.6832671,10.225224 18.6832671,10.4999877 C18.6832671,10.7747924 18.4604702,10.9976303 18.1856245,10.9976303" id="Fill-17" fill="#E46773"></path>
                <path d="M10.5,18.6832548 C10.2251543,18.6832548 10.0023574,18.4604169 10.0023574,18.1856122 L10.0023574,17.4391688 C10.0023574,17.1644051 10.2251543,16.9415673 10.5,16.9415673 C10.7748457,16.9415673 10.9976426,17.1644051 10.9976426,17.4391688 L10.9976426,18.1856122 C10.9976426,18.4604169 10.7748457,18.6832548 10.5,18.6832548" id="Fill-19" fill="#E46773"></path>
            </g>
        </g>
    </g>
</svg>