<?xml version="1.0" encoding="UTF-8"?>
<svg width="9px" height="10px" viewBox="0 0 9 10" version="1.1" xmlns="http://www.w3.org/2000/svg" xmlns:xlink="http://www.w3.org/1999/xlink">
    <!-- Generator: Sketch 41.2 (35397) - http://www.bohemiancoding.com/sketch -->
    <title>Group 18</title>
    <desc>Created with Sketch.</desc>
    <defs></defs>
    <g id="Page-1" stroke="none" stroke-width="1" fill="none" fill-rule="evenodd">
        <g id="我的-语伴评价" transform="translate(-1180.000000, -115.000000)" fill="#4A4A4A">
            <g id="Group-17" transform="translate(1157.000000, 52.000000)">
                <g id="Group-9" transform="translate(23.000000, 61.000000)">
                    <g id="Group-18" transform="translate(0.000000, 2.000000)">
                        <path d="M4.49720106,3.66224559 C4.60766815,3.66224559 4.70071542,3.62441936 4.77639287,3.54874191 C4.85207032,3.47302697 4.88989655,3.3819916 4.88989655,3.27564828 L4.88989656,0.395668917 C4.88989656,0.289288111 4.85207033,0.197240544 4.77639288,0.119513699 C4.70070293,0.0417868535 4.60765566,0.00294843419 4.49720107,0.00294843419 C4.39082027,0.00294843419 4.2997849,0.0417993582 4.22410744,0.119513699 C4.14843,0.197240544 4.11060377,0.289300604 4.11060377,0.395668917 L4.11060377,3.27564828 C4.11060377,3.38197909 4.14843,3.47302696 4.22410744,3.54874191 C4.29978489,3.62441936 4.39083276,3.66224559 4.49720106,3.66224559 Z" id="Shape"></path>
                        <path d="M8.86763632,3.84264183 C8.78049978,3.49087165 8.65313773,3.15748348 8.48563764,2.84250234 C8.31813755,2.52758367 8.11710995,2.23443352 7.88257983,1.96305189 C7.64803722,1.69167025 7.3799546,1.44873013 7.07844444,1.23430653 C6.44348363,1.25637495 6.35722184,1.62339059 6.4174039,1.91826523 C7.44853416,2.55876188 8.13521705,3.70135892 8.13521705,5.00452062 C8.13521705,7.00976063 6.50965141,8.63532625 4.50441142,8.63532625 C2.49917142,8.63532625 0.873605784,7.00976063 0.873605784,5.00452063 C0.873605784,3.75321848 1.50662966,2.64980976 2.46988015,1.99692929 C2.51257992,1.69604394 2.41470909,1.30613512 1.82153584,1.30467307 C1.54006971,1.51910917 1.28543308,1.7603248 1.05763846,2.02840742 C0.829793845,2.29640257 0.638850737,2.58454171 0.484659183,2.89277487 C0.330555102,3.20105801 0.211603042,3.52599869 0.127815509,3.86774686 C0.0440404681,4.20949503 0.00222793351,4.5579787 0.00222793351,4.91308538 C0.00222793351,5.53634967 0.119455498,6.12097547 0.354048106,6.66713773 C0.588528244,7.21318753 0.910169902,7.68899575 1.31894809,8.09437496 C1.7277138,8.49985415 2.20513404,8.82144582 2.7512963,9.05932493 C3.29745856,9.29722904 3.87874785,9.4162061 4.49526416,9.4162061 C5.11836599,9.4162061 5.70310426,9.29724155 6.24915405,9.05932493 C6.79532881,8.82145832 7.27106206,8.49986663 7.67655374,8.09437496 C8.08193295,7.68904574 8.4035746,7.21323751 8.64145373,6.66713773 C8.87938283,6.12097547 8.9982849,5.53634967 8.9982849,4.91313536 C8.99828488,4.55124319 8.95469787,4.194462 8.86763632,3.84264183 Z" id="Shape"></path>
                    </g>
                </g>
            </g>
        </g>
    </g>
</svg>