<?xml version="1.0" encoding="UTF-8"?>
<svg width="20px" height="16px" viewBox="0 0 20 16" version="1.1" xmlns="http://www.w3.org/2000/svg" xmlns:xlink="http://www.w3.org/1999/xlink">
    <!-- Generator: Sketch 41.2 (35397) - http://www.bohemiancoding.com/sketch -->
    <title>Group 8</title>
    <desc>Created with Sketch.</desc>
    <defs></defs>
    <g id="Page-1" stroke="none" stroke-width="1" fill="none" fill-rule="evenodd">
        <g id="我的-会员到期-会员功能-copy" transform="translate(-510.000000, -756.000000)">
            <g id="Group-8" transform="translate(511.000000, 757.000000)">
                <path d="M13.8611461,14.3750433 L4.49996235,14.3750433 L1.36945335,6.37485273 C0.603117757,6.30345916 0,5.62620999 0,4.79161428 C0,3.90948133 0.671447339,3.19449305 1.49993724,3.19449305 C2.32847735,3.19449305 2.99994979,3.90948133 2.99994979,4.79161428 C2.99994979,5.13056464 2.89938833,5.44347851 2.73037177,5.70191375 C3.26003899,6.59279235 4.18585211,7.18757178 5.24988076,7.18757178 C6.64631952,7.18757178 7.80925286,6.16701197 8.14387201,4.79161428 L8.24988076,4.79161428 L8.24988076,2.97281962 C7.80330352,2.69621649 7.49993724,2.18698907 7.49993724,1.59719641 C7.49993724,0.71496322 8.1715101,0 9,0 C9.8284899,0 10.5000126,0.71496322 10.5000126,1.59719641 C10.5000126,2.18698907 10.1964706,2.69621649 9.74989331,2.97281962 L9.74989331,4.79161428 L9.85602758,4.79161428 C10.1906969,6.16696185 11.3538562,7.18757178 12.7498933,7.18757178 C13.8140475,7.18757178 14.7398355,6.59276729 15.269578,5.70191375 C15.1003857,5.44347851 15,5.13056464 15,4.79161428 C15,3.90948133 15.6714724,3.19439282 16.4999372,3.19439282 C17.3285527,3.19439282 18,3.90948133 18,4.79161428 C18,5.62620999 17.3968069,6.30323362 16.6304462,6.37485273 L13.4960531,14.6147793" id="iconfont-vip-(1)-copy" stroke="#E46773" stroke-width="0.8"></path>
                <polygon id="Path-5" fill="#E46773" points="3.75959285 12.200614 14.3716947 12.1619229 13.4213068 14.417981 4.51007686 14.4130678"></polygon>
            </g>
        </g>
    </g>
</svg>