<?xml version="1.0" encoding="UTF-8"?>
<svg width="18px" height="13px" viewBox="0 0 18 13" version="1.1" xmlns="http://www.w3.org/2000/svg" xmlns:xlink="http://www.w3.org/1999/xlink">
    <!-- Generator: Sketch 41.2 (35397) - http://www.bohemiancoding.com/sketch -->
    <title>钱包</title>
    <desc>Created with Sketch.</desc>
    <defs></defs>
    <g id="Page-1" stroke="none" stroke-width="1" fill="none" fill-rule="evenodd">
        <g id="我的-是会员-copy" transform="translate(-168.000000, -634.000000)" stroke="#4A4A4A" stroke-width="0.1" fill="#4A4A4A">
            <g id="钱包" transform="translate(169.000000, 634.330739)">
                <path d="M14.1094363,0 L1.87913485,0 C0.842983074,0 0,0.842983089 0,1.87913485 L0,9.8415707 C0,10.8777225 0.842983089,11.7207056 1.87913485,11.7207056 L14.1094363,11.7207056 C15.1455881,11.7207056 15.9885712,10.8777225 15.9885712,9.8415707 L15.9885712,1.87913485 C15.9885712,0.842983089 15.1455881,0 14.1094363,0 Z M14.1094363,11.1474102 L1.87913485,11.1474102 C1.15909178,11.1474102 0.573295379,10.5616138 0.573295379,9.84157072 L0.573295379,1.87913487 C0.573295379,1.15909179 1.15909179,0.573295395 1.87913485,0.573295395 L14.1094363,0.573295395 C14.8294794,0.573295395 15.4152758,1.15909181 15.4152758,1.87913487 L15.4152758,3.94116688 L9.56431868,3.94116688 C8.5281669,3.94116688 7.68518383,4.78414997 7.68518383,5.82030173 L7.68518383,6.21030185 C7.68518383,7.24645363 8.52816692,8.0894367 9.56431868,8.0894367 L15.4152758,8.0894367 L15.4152758,9.8415707 C15.4152758,10.5616138 14.8294794,11.1474102 14.1094363,11.1474102 Z M15.4094951,4.51446226 L15.4094951,7.51614132 L9.56431867,7.51614132 C8.84427559,7.51614132 8.25847919,6.93034491 8.25847919,6.21030185 L8.25847919,5.82030173 C8.25847919,5.10025866 8.84427561,4.51446226 9.56431867,4.51446226 L15.4094951,4.51446226 Z M13.2096492,6.87323832 C13.6779678,6.87323832 14.0576168,6.49360531 14.0576168,6.02528668 C14.0576168,5.55696804 13.6779678,5.17731912 13.2096492,5.17731912 C12.7413465,5.17731912 12.3616976,5.55696806 12.3616976,6.02528668 C12.3616976,6.49358939 12.9961445,6.87323832 13.2096492,6.87323832 Z" id="Shape"></path>
            </g>
        </g>
    </g>
</svg>