<?xml version="1.0" encoding="UTF-8"?>
<svg width="15px" height="14px" viewBox="0 0 15 14" version="1.1" xmlns="http://www.w3.org/2000/svg" xmlns:xlink="http://www.w3.org/1999/xlink">
    <!-- Generator: Sketch 41.2 (35397) - http://www.bohemiancoding.com/sketch -->
    <title>档案</title>
    <desc>Created with Sketch.</desc>
    <defs></defs>
    <g id="Page-1" stroke="none" stroke-width="1" fill="none" fill-rule="evenodd">
        <g id="我的-是会员-copy" transform="translate(-169.000000, -551.000000)" fill="#4A4A4A">
            <g id="档案" transform="translate(169.000000, 551.000000)">
                <path d="M14.0514975,4.23334638 L13.8461965,4.23334638 L13.8461965,2.73792564 C13.8461965,2.21963836 13.4260509,1.79964305 12.9079139,1.79964305 L7.043009,1.79964305 L7.043009,0.948981605 C7.043009,0.430844618 6.62278826,0.0106990215 6.10457613,0.0106990215 L0.94349589,0.0106990215 C0.425358904,0.0106990215 0.00521330724,0.430844618 0.00521330724,0.948981605 L0.00521330724,12.1215781 C0.00521330724,12.6397902 0.425358904,13.0599358 0.94349589,13.0599358 L12.9078387,13.0599358 C13.4260509,13.0599358 13.8461213,12.6397151 13.8461213,12.1215781 L14.9899303,5.17177926 C14.9899303,4.65349198 14.5697096,4.23334638 14.0514975,4.23334638 L14.0514975,4.23334638 Z M0.708962818,1.41827319 C0.708962818,0.900061057 0.894500196,0.714448532 1.41278748,0.714448532 L5.63543483,0.714448532 C6.15364697,0.714448532 6.33925949,0.89998591 6.33925949,1.41827319 L6.33925949,2.50324227 L6.36856673,2.50324227 L7.04308415,2.50324227 L12.4387726,2.50324227 C12.9569847,2.50324227 13.1425221,2.68885479 13.1425221,3.20699178 L13.1425221,4.23334638 L2.08722975,4.23334638 C1.56901761,4.23334638 1.14879687,4.65356712 1.14879687,5.17177926 L0.708962818,8.0251773 L0.708962818,1.41827319 L0.708962818,1.41827319 Z M13.142447,11.6523616 C13.142447,12.1706489 12.9568344,12.3561863 12.4386975,12.3561863 L1.41278748,12.3561863 C0.894500196,12.3561863 0.708962818,12.1706489 0.708962818,11.6523616 L1.85262153,5.64092055 C1.85262153,5.12270841 2.03823405,4.93717104 2.55637104,4.93717104 L13.582281,4.93717104 C14.1004932,4.93717104 14.2860305,5.12278356 14.2860305,5.64092055 L13.142447,11.6523616 L13.142447,11.6523616 Z" id="Shape"></path>
            </g>
        </g>
    </g>
</svg>