<?xml version="1.0" encoding="UTF-8"?>
<svg width="17px" height="24px" viewBox="0 0 17 24" version="1.1" xmlns="http://www.w3.org/2000/svg" xmlns:xlink="http://www.w3.org/1999/xlink">
    <!-- Generator: Sketch 41.2 (35397) - http://www.bohemiancoding.com/sketch -->
    <title>手机绑定</title>
    <desc>Created with Sketch.</desc>
    <defs></defs>
    <g id="Page-1" stroke="none" stroke-width="1" fill="none" fill-rule="evenodd">
        <g id="绑定手机" transform="translate(-550.000000, -196.000000)" fill="#3C9BBE">
            <g id="手机绑定" transform="translate(550.000000, 196.000000)">
                <g id="Group">
                    <path d="M15.2983905,0.0050295858 L1.70160947,0.0050295858 C0.774556213,0.0050295858 0.00201183432,0.777573964 0.00201183432,1.7303787 L0.00201183432,21.4817633 C0.00201183432,22.434568 0.774556213,23.2071124 1.70160947,23.2071124 L15.2983905,23.2071124 C16.2254438,23.2071124 16.9979882,22.434568 16.9979882,21.4817633 L16.9979882,1.7303787 C16.9979882,0.777573964 16.2254438,0.0050295858 15.2983905,0.0050295858 L15.2983905,0.0050295858 Z M8.93777515,22.3315621 C8.24248521,22.3315621 7.65020118,21.7650296 7.65020118,21.0439882 C7.65020118,20.3229467 8.21673373,19.7564142 8.93777515,19.7564142 C9.65881657,19.7564142 10.2253491,20.3229467 10.2253491,21.0439882 C10.1995976,21.7392781 9.63306509,22.3315621 8.93777515,22.3315621 L8.93777515,22.3315621 Z M15.2983905,16.305716 C15.2983905,17.2585207 14.5258462,18.0310651 13.5987929,18.0310651 L3.4012071,18.0310651 C2.47415385,18.0310651 1.70160947,17.2585207 1.70160947,16.305716 L1.70160947,3.42997633 C1.70160947,2.4771716 2.47415385,1.70462722 3.4012071,1.70462722 L13.5987929,1.70462722 C14.5258462,1.70462722 15.2983905,2.4771716 15.2983905,3.42997633 L15.2983905,16.305716 L15.2983905,16.305716 Z" id="Shape"></path>
                    <path d="M8.03647337,7.11243787 C8.34549112,7.26694675 8.73176331,7.13818935 8.91202367,6.8291716 L9.34979882,6.03087574 C9.65881657,5.43859172 10.328355,5.43859172 10.8433846,5.67035503 C11.1266509,5.79911243 11.3069112,6.03087574 11.4099172,6.31414201 C11.5129231,6.59740828 11.4614201,6.90642604 11.3326627,7.16394083 L9.96783432,9.71333728 C9.34979882,10.8721538 8.78326627,10.6146391 8.55150296,10.4858817 C8.24248521,10.3313728 7.85621302,10.4601302 7.67595266,10.7691479 C7.52144379,11.0781657 7.6244497,11.4644379 7.95921893,11.6189467 C8.5,11.8764615 9.04078107,11.9279645 9.53005917,11.7734556 C10.1480947,11.5674438 10.6888757,11.0781657 11.1008994,10.2798698 L12.4657278,7.73047337 C12.7747456,7.16394083 12.8262485,6.49440237 12.6459882,5.90211834 C12.4399763,5.28408284 12.0279527,4.79480473 11.4356686,4.51153846 C10.1738462,3.89350296 8.80901775,4.27977515 8.21673373,5.41284024 L7.77895858,6.21113609 C7.6244497,6.5716568 7.72745562,6.95792899 8.03647337,7.11243787 Z" id="Shape"></path>
                    <path d="M5.56433136,15.5846746 C6.15661538,15.8679408 6.82615385,15.8936923 7.44418935,15.713432 C8.03647337,15.5074201 8.57725444,15.0953964 8.88627219,14.5031124 L9.22104142,13.8593254 C9.3755503,13.5503077 9.27254438,13.1640355 8.93777515,13.0095266 C8.6287574,12.8550178 8.24248521,12.9837751 8.06222485,13.2927929 L7.72745562,13.9623314 C7.41843787,14.5288639 6.72314793,14.7606272 6.15661538,14.4773609 C5.87334911,14.3486036 5.66733728,14.1168402 5.59008284,13.833574 C5.48707692,13.5503077 5.5128284,13.2412899 5.66733728,12.9837751 L6.92915976,10.5888876 C7.18667456,10.0996095 7.72745562,9.32706509 8.42274556,9.66183432 C8.73176331,9.8163432 9.1180355,9.6875858 9.29829586,9.37856805 C9.45280473,9.0695503 9.32404734,8.68327811 9.01502959,8.52876923 C7.83046154,7.96223669 6.56863905,8.52876923 5.79609467,10.022355 L4.53427219,12.3657396 C4.22525444,12.9322722 4.17375148,13.6018107 4.35401183,14.1940947 C4.56002367,14.8121302 4.97204734,15.3014083 5.56433136,15.5846746 Z" id="Shape"></path>
                </g>
            </g>
        </g>
    </g>
</svg>