<?xml version="1.0" encoding="UTF-8" standalone="no"?>
<svg width="19px" height="20px" viewBox="0 0 19 20" version="1.1" xmlns="http://www.w3.org/2000/svg" xmlns:xlink="http://www.w3.org/1999/xlink">
    <!-- Generator: Sketch 49.3 (51167) - http://www.bohemiancoding.com/sketch -->
    <title>Group 18</title>
    <desc>Created with Sketch.</desc>
    <defs></defs>
    <g id="Page-1" stroke="none" stroke-width="1" fill="none" fill-rule="evenodd">
        <g id="课程-2-copy" transform="translate(-390.000000, -451.000000)" stroke="#333333" stroke-width="1.22727273">
            <g id="Group" transform="translate(370.000000, 344.000000)">
                <g id="Group-7" transform="translate(21.000000, 17.000000)">
                    <g id="测评定级组">
                        <g id="Group-4" transform="translate(0.000000, 89.000000)">
                            <g id="Group-18" transform="translate(0.000000, 2.000000)">
                                <path d="M9.71428571,10.1010298 L9.71428571,17.1818182 C9.71428571,17.6336875 9.35184956,18 8.9047619,18 L6.47619048,18 C6.02910282,18 5.66666667,17.6336875 5.66666667,17.1818182 L5.66666667,9.89988015 M5.66666667,3.41375178 L5.66666667,0.818181818 C5.66666667,0.366312477 6.02910282,0 6.47619048,0 L8.9047619,0 C9.35184956,0 9.71428571,0.366312477 9.71428571,0.818181818 L9.71428571,3.33804599" id="Rectangle-18"></path>
                                <path d="M0.818181818,3.27272727 L13.2321561,3.27272727 C13.4420604,3.27272727 13.6439358,3.35340063 13.7960304,3.49806241 L16.3766924,5.95260787 C16.7041126,6.26402708 16.7170839,6.78190873 16.4056647,7.10932891 C16.3962506,7.11922669 16.3865902,7.12888715 16.3766924,7.13830122 L13.7960304,9.59284668 C13.6439358,9.73750846 13.4420604,9.81818182 13.2321561,9.81818182 L0.818181818,9.81818182 C0.366312477,9.81818182 5.67700934e-16,9.45186934 1.11022302e-16,9 L0,4.09090909 C-5.53380342e-17,3.63903975 0.366312477,3.27272727 0.818181818,3.27272727 Z" id="Rectangle-17" stroke-linejoin="round"></path>
                            </g>
                        </g>
                    </g>
                </g>
            </g>
        </g>
    </g>
</svg>