<?xml version="1.0" encoding="UTF-8"?>
<svg width="46px" height="46px" viewBox="0 0 46 46" version="1.1" xmlns="http://www.w3.org/2000/svg" xmlns:xlink="http://www.w3.org/1999/xlink">
    <!-- Generator: Sketch 52.4 (67378) - http://www.bohemiancoding.com/sketch -->
    <title>问题反馈</title>
    <desc>Created with Sketch.</desc>
    <g id="页面-1" stroke="none" stroke-width="1" fill="none" fill-rule="evenodd">
        <g id="世语图默认-未登录-未选择语种" transform="translate(-1609.000000, -1661.000000)">
            <g id="问题反馈" transform="translate(1609.000000, 1661.000000)">
                <rect id="矩形-copy-9" fill="#FFFFFF" fill-rule="nonzero" x="0" y="0" width="46" height="46" rx="3"></rect>
                <path d="M22.8160637,32.047619 C24.032173,32.047619 25.1999947,31.8600967 26.2862991,31.5151924 C26.2862991,31.5151924 27.8989826,32.0101283 31.1243497,33 C30.5560964,30.4864428 30.2719698,29.2296642 30.2719698,29.2296642 C32.1537028,27.5084924 33.3160637,25.1392729 33.3160637,22.5238095 C33.3160637,17.2639548 28.6150536,13 22.8160637,13 C17.0170738,13 12.3160637,17.2639548 12.3160637,22.5238095 C12.3160637,27.7836643 17.0170738,32.047619 22.8160637,32.047619 Z" id="椭圆形" fill="#C8D4DB" fill-rule="nonzero"></path>
                <path d="M22.7086093,16 C23.9933839,16 25.0264862,16.3397402 25.807947,17.0192308 C26.602653,17.6859008 27,18.6025583 27,19.7692308 C27,20.7051329 26.7483469,21.4871763 26.2450331,22.1153846 C26.0728468,22.3205138 25.516561,22.8205088 24.5761589,23.6153846 C24.2052962,23.9102579 23.9271532,24.2435879 23.7417219,24.6153846 C23.6498965,24.7764837 23.597134,25.1238789 23.5834344,25.65757 L23.5834424,25.6575702 C23.5688114,26.2275504 23.1025466,26.682 22.5323787,26.682 L22.5323787,26.682 C21.9465009,26.682 21.4715531,26.2070522 21.4715531,25.6211745 C21.4715531,25.6110713 21.4716975,25.6009686 21.4719861,25.5908696 C21.4947219,24.7946969 21.5691873,24.283638 21.6953642,24.0576923 C21.9470211,23.5448692 22.695358,22.7500054 23.9403974,21.6730769 L24.2781457,21.3076923 C24.6490085,20.8461515 24.8344371,20.3782075 24.8344371,19.9038462 C24.8344371,19.2499967 24.642386,18.724361 24.2582781,18.3269231 C23.8609252,17.9423058 23.2980169,17.75 22.5695364,17.75 C21.6688697,17.75 21.0198695,18.0256383 20.6225166,18.5769231 C20.3903257,18.7600518 20.2335126,19.0999134 20.1520773,19.5965078 L20.1520545,19.5965041 C20.0629732,20.1397246 19.5935226,20.5384615 19.0430464,20.5384615 L19.0430464,20.5384615 C18.5110506,20.5384615 18.0797827,20.1071937 18.0797827,19.5751979 C18.0797827,19.5175614 18.0849557,19.4600413 18.0952394,19.4033296 C18.2618996,18.4841605 18.6473765,17.7599746 19.2516556,17.2307692 C20.5033113,16.1346154 21.2384032,16 22.7086093,16 Z M22.3904852,27.205711 C22.7945689,27.205711 23.1190554,27.3315838 23.3639546,27.5833333 C23.6210987,27.8224954 23.7496689,28.1434712 23.7496689,28.5462704 C23.7496689,28.9238947 23.6149763,29.2511641 23.3455872,29.5280886 C23.0761981,29.7798381 22.757834,29.905711 22.3904852,29.905711 C22.0108915,29.905711 21.6925273,29.7735444 21.4353832,29.5092075 C21.178239,29.2448705 21.0496689,28.9238947 21.0496689,28.5462704 C21.0496689,28.1434712 21.178239,27.8224954 21.4353832,27.5833333 C21.6802823,27.3315838 21.9986465,27.205711 22.3904852,27.205711 Z" id="？" fill="#FFFFFF"></path>
            </g>
        </g>
    </g>
</svg>