<?xml version="1.0" encoding="UTF-8"?>
<svg width="46px" height="46px" viewBox="0 0 46 46" version="1.1" xmlns="http://www.w3.org/2000/svg" xmlns:xlink="http://www.w3.org/1999/xlink">
    <!-- Generator: Sketch 52.4 (67378) - http://www.bohemiancoding.com/sketch -->
    <title>微信 copy</title>
    <desc>Created with Sketch.</desc>
    <g id="页面-1" stroke="none" stroke-width="1" fill="none" fill-rule="evenodd">
        <g id="世语图默认-未登录-未选择语种" transform="translate(-1691.000000, -1520.000000)" fill-rule="nonzero">
            <g id="微信-copy" transform="translate(1691.000000, 1520.000000)">
                <rect id="矩形-copy-6" fill="#FFFFFF" x="0" y="0" width="46" height="46" rx="3"></rect>
                <path d="M25.2949858,23.5090771 C24.8702159,23.5090771 24.4451903,23.8960404 24.4451903,24.3734658 C24.4451903,24.7603538 24.8702159,25.149502 25.2949858,25.149502 C25.9331121,25.149502 26.3884565,24.7603538 26.3884565,24.3734658 C26.3885076,23.8960404 25.9331121,23.5090771 25.2949858,23.5090771 M22.5024099,19.4820773 C23.1704204,19.4820773 23.5952926,19.0647507 23.5952926,18.4380952 C23.5952926,17.7818298 23.1704715,17.3948665 22.5024099,17.3948665 C21.8651527,17.3948665 21.2577031,17.7818298 21.2577031,18.4380952 C21.2576776,19.0647256 21.8651527,19.4820773 22.5024099,19.4820773 M19.3149227,28.1610999 C18.1915678,28.1610999 17.3718866,27.9822349 16.3093738,27.6836995 L13.243443,29.2043035 L14.1243242,26.6404458 C11.9685708,25.149502 10.6938776,23.2693598 10.6938776,20.9732722 C10.6938776,16.9174662 14.5792851,13.8154814 19.3149227,13.8154814 C23.5044385,13.8154814 27.2383031,16.261251 27.9666445,19.7208152 C27.6633542,19.6609423 27.3902806,19.6315333 27.1472956,19.6315333 C23.0184941,19.6315333 19.8313903,22.6741225 19.8313903,26.3417346 C19.8313903,26.968591 19.922449,27.5341933 20.0740174,28.1315151 C19.8313903,28.1610999 19.5579076,28.1610999 19.3149227,28.1610999 M31.9742475,31.0844206 L32.5809046,33.2317051 L30.2738129,31.9487842 C29.393443,32.1274232 28.5435708,32.3967756 27.6633542,32.3967756 C23.5952926,32.3967756 20.3772309,29.6520688 20.3772309,26.2515738 C20.3772309,22.8530377 23.5952415,20.1089337 27.6633542,20.1089337 C31.5185963,20.1089337 34.9795918,22.8530377 34.9795918,26.2515738 C34.9795918,28.1610999 33.6743497,29.8603428 31.9742475,31.0844206 M16.4920791,17.3948665 C15.8545918,17.3948665 15.1866324,17.7818298 15.1866324,18.4380952 C15.1866324,19.0647256 15.8546174,19.4820773 16.4920791,19.4820773 C17.0989407,19.4820773 17.5849362,19.0647507 17.5849362,18.4380952 C17.5849362,17.7818298 17.0987618,17.3948665 16.4920791,17.3948665 M30.0614279,23.5090771 C29.6058535,23.5090771 29.2115557,23.8960404 29.2115557,24.3734658 C29.2115557,24.7603538 29.6058535,25.149502 30.0614279,25.149502 C30.6687753,25.149502 31.1243497,24.7603538 31.1243497,24.3734658 C31.1243497,23.8960404 30.6687753,23.5090771 30.0614279,23.5090771" id="形状" fill="#78BD2C"></path>
            </g>
        </g>
    </g>
</svg>