<?xml version="1.0" encoding="UTF-8"?>
<svg width="14px" height="12px" viewBox="0 0 14 12" version="1.1" xmlns="http://www.w3.org/2000/svg" xmlns:xlink="http://www.w3.org/1999/xlink">
    <!-- Generator: Sketch 52.4 (67378) - http://www.bohemiancoding.com/sketch -->
    <title>官邮</title>
    <desc>Created with Sketch.</desc>
    <g id="页面-1" stroke="none" stroke-width="1" fill="none" fill-rule="evenodd">
        <g id="电台付费" transform="translate(-1298.000000, -667.000000)" fill="#90A2AE" fill-rule="nonzero">
            <g id="分组-8" transform="translate(1280.000000, 601.000000)">
                <g id="官邮" transform="translate(18.000000, 66.000000)">
                    <path d="M13.9778705,2.02273097 L13.9710031,2.01545537 C13.7946236,0.873070039 12.8274391,1.6122224e-08 11.6611869,1.6122224e-08 L2.33882885,0 C1.04696594,0 0,1.06987724 0,2.39128051 L0,9.10871949 C0,10.4298938 1.0475333,11.5 2.33882885,11.5 L11.6611869,11.5 C12.9530498,11.5 14,10.4301228 14,9.10871949 L14,2.39136113 C14,2.26764289 13.9908328,2.14615177 13.9730774,2.02749865 L13.9778705,2.02273097 Z M11.6393794,1.30957302 C11.9702171,1.30957302 12.2709971,1.4369539 12.5,1.64491044 C12.4664193,1.67605858 12.4327581,1.70727281 12.3962341,1.74084622 C11.8493407,2.24411756 11.3080266,2.71185069 10.787199,3.13086568 C10.3740652,3.46326725 9.9804245,3.75902622 9.61729104,4.00996058 C8.68018157,4.65765481 7.55922985,5.03143245 7.12798598,5.03532597 C6.92223869,5.03532597 5.89794265,4.97390481 4.45302973,3.99225886 C4.10141329,3.75336781 3.72137678,3.47575762 3.32342509,3.1670799 C2.7826108,2.74755223 2.21839627,2.2790275 1.64636909,1.77456794 C1.59474352,1.72901702 1.54610926,1.6859078 1.5,1.64491044 C1.72197453,1.46333389 2.00334154,1.35408486 2.31034525,1.35408486 L11.6393794,1.30957302 Z M2.54513403,10.1729575 C1.82866318,10.1729575 1.24860647,9.5803497 1.24860647,8.85023221 L1.24860647,3.06608329 C1.7236741,3.47539754 2.192375,3.86004801 2.64603683,4.21198326 C3.06840247,4.53961587 3.47444342,4.83616806 3.85283756,5.09328851 C5.20407725,6.01125248 6.35064325,6.43879763 7.12840356,6.43879763 L7.14744547,6.43873164 C7.91410996,6.43160452 9.01465497,6.02169646 10.2778023,5.14868931 C10.6705912,4.87718139 11.0938888,4.55931562 11.5359393,4.20370127 C11.9322345,3.88481174 12.339418,3.5393286 12.7513935,3.17297363 L12.7513935,8.85023221 C12.7514739,9.58073018 12.1719969,10.1729736 11.4550279,10.1729736 L2.54513403,10.1729575 Z" id="形状"></path>
                </g>
            </g>
        </g>
    </g>
</svg>