<?xml version="1.0" encoding="UTF-8"?>
<svg width="46px" height="46px" viewBox="0 0 46 46" version="1.1" xmlns="http://www.w3.org/2000/svg" xmlns:xlink="http://www.w3.org/1999/xlink">
    <!-- Generator: Sketch 52.4 (67378) - http://www.bohemiancoding.com/sketch -->
    <title>微博 copy</title>
    <desc>Created with Sketch.</desc>
    <g id="页面-1" stroke="none" stroke-width="1" fill="none" fill-rule="evenodd">
        <g id="世语图默认-未登录-未选择语种" transform="translate(-1691.000000, -1567.000000)">
            <g id="微博-copy" transform="translate(1691.000000, 1567.000000)">
                <rect id="矩形-copy-7" fill="#FFFFFF" fill-rule="nonzero" x="0" y="0" width="46" height="46" rx="3"></rect>
                <path d="M33.8300857,16.1370147 C32.2280121,14.3602351 29.8249018,13.7021686 27.6888037,14.1628151 C27.1547791,14.2944284 26.8877669,14.755075 26.9545199,15.2815282 C27.0880261,15.8079815 27.5552975,16.0712081 28.089322,16.0054014 C29.6246425,15.6763681 31.3602222,16.1370147 32.4950244,17.3873411 C33.6298265,18.6376676 33.9635918,20.3486405 33.4295673,21.8621935 C33.3628142,22.1254201 33.3628142,22.3228401 33.4963203,22.5860667 C33.6298265,22.7834867 33.8300857,22.9809066 34.0303449,23.0467133 C34.4976163,23.1783266 35.0316409,22.9151 35.2319001,22.4544534 C35.8326776,20.2828339 35.4321593,17.9137944 33.8300857,16.1370147 Z" id="路径" fill="#E6122B"></path>
                <path d="M30.9597039,21.9280002 C31.3602222,22.0596135 31.8274937,21.8621935 31.9609999,21.4015469 C32.2947652,20.3486405 32.094506,19.2299274 31.2934692,18.3744409 C30.4924324,17.5189544 29.3576303,17.1899212 28.2895812,17.3873411 C27.8223098,17.4531478 27.5552975,17.9137944 27.6888037,18.3086343 C27.7555567,18.7692808 28.2228282,19.0325074 28.6233466,18.9008941 C29.1573711,18.7692808 29.6913956,18.9667008 30.091914,19.3615407 C30.4924324,19.7563806 30.5591855,20.3486405 30.4256793,20.8750937 C30.2921732,21.3357403 30.5591855,21.7963869 30.9597039,21.9280002 Z M29.3576303,23.4415532 C29.023865,23.3099399 28.7568527,23.2441332 28.9571119,22.8492933 C29.3576303,21.8621936 29.3576303,21.006707 28.9571119,20.4144472 C28.1560751,19.2957341 25.953224,19.3615407 23.4833605,20.4144472 C23.4833605,20.4144472 22.6823237,20.7434804 22.8825829,20.1512206 C23.2831013,18.9008941 23.2163483,17.9137944 22.6155707,17.3215345 C21.2805094,16.0054014 17.6758438,17.3873411 14.6052028,20.4144472 C12.3355986,22.71768 11.0005373,25.0867195 11.0005373,27.1925324 C11.0005373,31.2067382 16.2072764,33.6415844 21.2805094,33.6415844 C27.9558159,33.6415844 32.3615182,29.8247986 32.3615182,26.7976925 C32.3615182,24.9551062 30.7594447,23.9021998 29.3576303,23.4415532 Z M21.2805094,32.1938381 C17.2085724,32.588678 13.737413,30.7460917 13.4704007,28.1796322 C13.2033885,25.5473661 16.2740295,23.1125199 20.3459665,22.71768 C24.4179035,22.3228401 27.8890629,24.1654264 28.1560751,26.7318858 C28.4230874,29.3641519 25.3524464,31.7989981 21.2805094,32.1938381 Z" id="形状" fill="#E6122B" fill-rule="nonzero"></path>
                <path d="M21.6810278,23.6918796 C19.7451889,23.1654264 17.5423377,24.1525262 16.7413009,25.7976925 C15.8735111,27.5086655 16.7413009,29.4170584 18.6771398,30.0093183 C20.6797318,30.6673848 23.0828421,29.680285 23.8838789,27.8376987 C24.6849157,26.0609191 23.6836197,24.2183328 21.6810278,23.6918796 Z M20.2124603,28.1009253 C19.8119419,28.6931852 19.0109052,29.0222185 18.3433745,28.6931852 C17.7425969,28.4299586 17.5423377,27.7060854 17.9428561,27.1138256 C18.3433745,26.5215657 19.1444113,26.2583391 19.7451889,26.5215657 C20.4127195,26.7189857 20.6129787,27.4428588 20.2124603,28.1009253 Z" id="形状" fill="#E6122B" fill-rule="nonzero"></path>
            </g>
        </g>
    </g>
</svg>