<svg height="23" viewBox="0 0 25 23" width="25" xmlns="http://www.w3.org/2000/svg" xmlns:xlink="http://www.w3.org/1999/xlink"><linearGradient id="a" x1="50%" x2="50%" y1="0%" y2="100%"><stop offset="0" stop-color="#ffe053"/><stop offset="1" stop-color="#ffbe29"/></linearGradient><linearGradient id="b" x1="50%" x2="50%" y1="0%" y2="103.615663%"><stop offset="0" stop-color="#ffd745"/><stop offset="1" stop-color="#ff9f22"/></linearGradient><path d="m20.5392733 8.7432876-2.0392733 8.0194618h-14l-1.79836624-8.0906687c-.203471.06813371-.41635279.1114998-.63862237.1114998-1.13948821 0-2.06301139-.91676606-2.06301139-2.05031708 0-1.13047782.92350017-2.04724389 2.06301139-2.04724389 1.14264049 0 2.0630114.91676607 2.0630114 2.04726666 0 .34378727-.09392385.66280693-.24417441.94772559l3.78166602 1.39372481 3.1774885-5.09177137c-.81393-.27255761-1.40559043-1.03136183-1.40559043-1.93264814 0-1.13047782.92350013-2.05031708 2.06301143-2.05031708 1.1394882 0 2.0661406.91676607 2.0661406 2.05031708 0 .90128631-.5916604 1.66009053-1.4087197 1.93264814l3.1774885 5.09177137 3.7440919-1.46185852c-.1283457-.26946166-.2066003-.56369094-.2066003-.87959188 0-1.13047783.9266295-2.05031708 2.0661637-2.05031708 1.1394882 0 2.0630114.91676606 2.0630114 2.05031708 0 1.13357377-.9235002 2.05033984-2.0630114 2.05033984-.1378716-.00009105-.2693695-.01559358-.3977153-.04033843zm-3.8317627 12.2567124h-10.41502117c-.46517946 0-.87009112-.3179777-.98038019-.7698939l-.31210924-1.2788866h13l-.3121092 1.2788866c-.1102891.4519162-.5152008.7698939-.9803802.7698939z" fill="url(#a)" fill-rule="evenodd" stroke="url(#b)" stroke-width="1.326316" transform="translate(1 1)"/></svg>