<?xml version="1.0" encoding="UTF-8"?>
<svg width="14px" height="14px" viewBox="0 0 14 14" version="1.1" xmlns="http://www.w3.org/2000/svg" xmlns:xlink="http://www.w3.org/1999/xlink">
    <!-- Generator: Sketch 52.4 (67378) - http://www.bohemiancoding.com/sketch -->
    <title>金币</title>
    <desc>Created with Sketch.</desc>
    <g id="世界语言地图" stroke="none" stroke-width="1" fill="none" fill-rule="evenodd">
        <g id="动态详情" transform="translate(-494.000000, -613.000000)" stroke="#90A2AE">
            <g id="1" transform="translate(370.000000, 463.000000)">
                <g id="动态" transform="translate(49.000000, 29.000000)">
                    <g id="操作-控件" transform="translate(0.000000, 119.000000)">
                        <g id="金币" transform="translate(75.000000, 2.000000)">
                            <path d="M7.01054455,5.38797433 C10.3439775,5.38797433 13.0462588,4.34863536 13.0462588,3.06654576 C13.0462588,1.78445616 10.3439775,0.745117188 7.01054455,0.745117188 C3.6771116,0.745117188 0.974830264,1.78445616 0.974830264,3.06654576 C0.974830264,4.34863536 3.6771116,5.38797433 7.01054455,5.38797433 Z" id="Oval-11"></path>
                            <path d="M0.974830264,10.9594029 C1.26628132,12.1370044 3.87244941,13.2808315 7.01054455,13.2808315 C10.1380614,13.2808315 12.7404411,12.1313038 13.0462588,10.9594029" id="Oval-11-Copy-3" stroke-linecap="round"></path>
                            <path d="M0.974830264,7.24511719 C1.26628132,8.42271873 3.87244941,9.56654576 7.01054455,9.56654576 C10.1380614,9.56654576 12.7404411,8.41701809 13.0462588,7.24511719" id="Oval-11-Copy-4" stroke-linecap="round"></path>
                        </g>
                    </g>
                </g>
            </g>
        </g>
    </g>
</svg>