<?xml version="1.0" standalone="no"?><!DOCTYPE svg PUBLIC "-//W3C//DTD SVG 1.1//EN" "http://www.w3.org/Graphics/SVG/1.1/DTD/svg11.dtd"><svg t="1546854898420" class="icon" style="" viewBox="0 0 1024 1024" version="1.1" xmlns="http://www.w3.org/2000/svg" p-id="1550" xmlns:xlink="http://www.w3.org/1999/xlink" width="200" height="200"><defs><style type="text/css"></style></defs><path d="M563.2 908.8c-212.48 0-384-171.52-384-384s171.52-384 384-384c57.6 0 112.64 12.8 162.56 35.84C860.16 239.36 947.2 375.04 947.2 524.8c0 151.04-88.32 286.72-224 349.44C673.28 897.28 619.52 908.8 563.2 908.8z m0-51.2c48.64 0 96-10.24 139.52-30.72C819.2 773.12 896 656.64 896 524.8c0-130.56-75.52-247.04-192-300.8-43.52-21.76-90.88-32-140.8-32-184.32 0-332.8 148.48-332.8 332.8s148.48 332.8 332.8 332.8z" fill="#0093CB" p-id="1551"></path><path d="M473.6 883.2C275.2 883.2 115.2 723.2 115.2 524.8s160-358.4 358.4-358.4 358.4 160 358.4 358.4-160 358.4-358.4 358.4z m0-115.2c134.4 0 243.2-108.8 243.2-243.2s-108.8-243.2-243.2-243.2-243.2 108.8-243.2 243.2 108.8 243.2 243.2 243.2z" fill="#E6F7FF" p-id="1552"></path><path d="M473.6 908.8C261.12 908.8 89.6 737.28 89.6 524.8s171.52-384 384-384 384 171.52 384 384-171.52 384-384 384z m0-51.2c184.32 0 332.8-148.48 332.8-332.8S657.92 192 473.6 192 140.8 340.48 140.8 524.8s148.48 332.8 332.8 332.8z" fill="#0093CB" p-id="1553"></path><path d="M460.8 576v-38.4h-89.6c-7.68 0-12.8-5.12-12.8-12.8s5.12-12.8 12.8-12.8h89.6v-11.52c-2.56 0-6.4-1.28-7.68-3.84l-72.96-72.96c-5.12-5.12-5.12-12.8 0-17.92 5.12-5.12 12.8-5.12 17.92 0l69.12 69.12c2.56-1.28 3.84-1.28 6.4-1.28 3.84 0 7.68 1.28 8.96 3.84l71.68-71.68c5.12-5.12 12.8-5.12 17.92 0 5.12 5.12 5.12 12.8 0 17.92L499.2 496.64c-3.84 3.84-10.24 5.12-14.08 2.56v12.8h89.6c7.68 0 12.8 5.12 12.8 12.8s-5.12 12.8-12.8 12.8h-89.6v38.4h89.6c7.68 0 12.8 5.12 12.8 12.8s-5.12 12.8-12.8 12.8h-89.6v64c0 7.68-5.12 12.8-12.8 12.8s-12.8-5.12-12.8-12.8v-64h-89.6c-7.68 0-12.8-5.12-12.8-12.8s5.12-12.8 12.8-12.8H460.8z" fill="#0093CB" p-id="1554"></path></svg>