<?xml version="1.0" encoding="UTF-8"?>
<svg width="34px" height="21px" viewBox="0 0 34 21" version="1.1" xmlns="http://www.w3.org/2000/svg" xmlns:xlink="http://www.w3.org/1999/xlink">
    <!-- Generator: Sketch 52.4 (67378) - http://www.bohemiancoding.com/sketch -->
    <title>进入语伴社区</title>
    <desc>Created with Sketch.</desc>
    <g id="世界语言地图" stroke="none" stroke-width="1" fill="none" fill-rule="evenodd">
        <g id="世界地图语言-默认-copy" transform="translate(-729.000000, -2192.000000)" fill-rule="nonzero">
            <g id="分组-29" transform="translate(370.000000, 1426.000000)">
                <g id="进入语伴社区" transform="translate(361.000000, 768.000000)">
                    <g id="分组-6" transform="translate(18.000000, 6.000000)">
                        <path d="M3.574214,10.9215826 C3.51074255,10.9461485 3.4306005,10.9785122 3.33157758,11.0195016 C3.21958029,11.0658617 2.50699436,11.3671888 2.281817,11.4603752 C2.15807401,11.5114441 2.15807401,11.5114441 2.03321428,11.5622934 C1.31134863,11.8551195 0.798167682,12.0343695 0.437770586,12.099339 C0.00357796909,12.1776117 -0.301660965,12.1489848 -0.514792765,11.7653833 C-0.728485047,11.3807731 -0.58664056,11.0895405 -0.262171312,10.7214802 C-0.222798433,10.6768178 0.0720312377,10.0956989 0.313739568,9.55030809 C0.449000272,9.24510574 0.562143305,8.96773486 0.633886956,8.76353994 C0.644399037,8.73362073 0.653858357,8.70571475 0.662212199,8.68008781 C0.444211791,8.36297523 0.252523391,7.99174597 0.0785490175,7.57115142 C-0.0470328484,7.26754897 0.00853138897,7.14846452 0.191631548,6.88711476 C0.234824848,6.82546239 0.273065924,6.77650618 0.383074186,6.63902831 C0.613632948,6.35089789 0.737523682,6.18691453 0.884140163,5.96308553 C1.12947077,5.58855667 1.31287894,5.21503844 1.42375832,4.83283085 C1.52894745,4.47023787 1.64037792,3.92457976 1.76172568,3.20739693 C1.80352769,2.96034096 1.84514567,2.70157298 1.89297838,2.39427721 C1.91598523,2.24647236 1.99032823,1.76258571 2.00391145,1.67522154 C2.04251972,1.42690198 2.06899696,1.26489649 2.09152993,1.14285423 C2.10572279,1.06598343 2.11834825,1.00510896 2.13094743,0.955217485 C2.1426972,0.909973691 2.1426972,0.909973691 2.16323183,0.849624393 C2.18073625,0.774135934 2.18073625,0.774135934 2.41229482,0.536027217 C3.56159819,-0.198925417 4.94165202,-0.6 6.38716735,-0.6 C10.1259114,-0.6 13.1864275,2.08066312 13.1864275,5.42984494 C13.1864275,8.77902677 10.1259114,11.4596899 6.38716735,11.4596899 C5.40412977,11.4596899 4.44964443,11.2744744 3.574214,10.9215826 Z" id="椭圆形" stroke="#2A9FE4" stroke-width="1.2" fill="#FFFFFF"></path>
                        <path d="M7.44958528,9 C9.65915385,9 11.5617633,7.57142857 11.4326284,5 C4.05198687,5 11.4306371,5 3.43884066,5 C3.43884066,7 5.24001671,9 7.44958528,9 Z" id="椭圆形" fill="#2A9FE4"></path>
                    </g>
                    <g id="分组-6">
                        <path d="M5.50105954,16.2184784 C5.39221686,16.2582497 5.24540469,16.3155819 5.05315198,16.3931733 C4.87998635,16.4630614 3.78371028,16.9150478 3.43815071,17.0544776 C3.30578267,17.1078868 3.17929446,17.1584613 3.05687792,17.2068783 C1.95858337,17.6412653 1.17664728,17.9075613 0.639561706,18.0019622 C0.0457858475,18.1063273 -0.359197536,18.0692953 -0.636716168,17.5822955 C-0.923916226,17.0783064 -0.725627061,16.6813607 -0.26722773,16.174377 C-0.191308608,16.0904115 0.263771944,15.2158574 0.643814654,14.379767 C0.85331299,13.9188726 1.02871359,13.4996268 1.1405126,13.1893823 C1.16564382,13.1196427 1.18706079,13.0567289 1.20449877,13.0018673 C0.126287949,11.5729854 -0.460912061,9.89768048 -0.460912061,8.14476742 C-0.460912061,3.20374946 4.16883182,-0.75 9.82641131,-0.75 C15.4839908,-0.75 20.1137347,3.20374946 20.1137347,8.14476742 C20.1137347,13.0857854 15.4839908,17.0395348 9.82641131,17.0395348 C8.31282301,17.0395348 6.84430799,16.7567566 5.50105954,16.2184784 Z" id="椭圆形" stroke="#2A9FE4" stroke-width="1.5" fill="#FFFFFF"></path>
                        <path d="M11.2933158,14.5 C14.8969727,14.5 18,12 17.7893898,7.5 C5.75206255,7.5 18.1480534,7.5 4.75206255,7.5 C4.75206255,11 7.68965888,14.5 11.2933158,14.5 Z" id="椭圆形" fill="#2A9FE4"></path>
                    </g>
                </g>
            </g>
        </g>
    </g>
</svg>