<?xml version="1.0" encoding="UTF-8"?>
<svg width="36px" height="36px" viewBox="0 0 36 36" version="1.1" xmlns="http://www.w3.org/2000/svg" xmlns:xlink="http://www.w3.org/1999/xlink">
    <!-- Generator: Sketch 52.4 (67378) - http://www.bohemiancoding.com/sketch -->
    <title>语伴icon</title>
    <desc>Created with Sketch.</desc>
    <defs>
        <polygon id="path-1" points="5.02693362e-06 0.11607619 12.5938429 0.11607619 12.5938429 12.2907086 5.02693362e-06 12.2907086"></polygon>
    </defs>
    <g id="世界语言地图" stroke="none" stroke-width="1" fill="none" fill-rule="evenodd">
        <g id="世界地图语言-默认-copy" transform="translate(-1250.000000, -1463.000000)">
            <g id="分组-29" transform="translate(370.000000, 1426.000000)">
                <g id="语伴icon" transform="translate(880.000000, 37.000000)">
                    <circle id="椭圆形" fill="#F8F3ED" fill-rule="nonzero" cx="18" cy="18" r="18"></circle>
                    <g id="分组" transform="translate(5.000000, 9.000000)">
                        <path d="M23.6286143,13.7124952 L22.3178841,11.4077333 C22.3178841,11.4077333 21.4924873,8.75369524 20.2543921,7.00773333 C19.0162968,5.26177143 16.2648365,4.70297143 14.8893127,4.70297143 C13.5135825,4.70297143 12.4170429,4.77274286 12.4170429,4.77274286 C12.4170429,4.77274286 10.6286143,3.79510476 8.49640794,4.77274286 C6.36399524,5.75059048 4.91955079,7.00773333 4.78212222,8.75369524 C4.6444873,10.4998667 4.50685238,11.7570095 4.50685238,11.7570095 C4.50685238,11.7570095 3.40639206,12.1060762 2.99369365,13.0141524 C2.58099524,13.922019 2.58099524,14.5505905 3.26875714,15.1093905 L3.9567254,15.667981 C3.9567254,15.667981 4.71320159,16.4365143 5.40116984,16.9951048 C6.08893175,17.5536952 7.32702698,17.4839238 7.32702698,17.4839238 C7.32702698,17.4839238 7.4646619,18.5317524 8.01478889,19.0903429 C8.56512222,19.6489333 9.94085238,19.1601143 9.94085238,19.1601143 C9.94085238,19.1601143 9.39051905,20.3474857 10.4909794,20.7665333 C11.591646,21.185581 13.1048048,20.4870286 13.1048048,20.4870286 C13.1048048,20.4870286 13.5172968,21.6046286 14.9619476,21.0458286 C16.4063921,20.4870286 16.4063921,19.2998667 16.4063921,19.2998667 C16.4063921,19.2998667 17.3007095,19.4394095 17.8508365,18.7410667 C18.4009635,18.0427238 18.9512968,17.4141524 18.9512968,17.4141524 C18.9512968,17.4141524 19.7764873,17.9727429 20.2581063,17.1346476 C20.7397254,16.2965524 21.2898524,15.2489333 21.2898524,15.2489333 C21.2898524,15.2489333 21.4964079,15.6681905 22.390519,15.0394095 C23.2846302,14.4108381 23.6286143,13.7124952 23.6286143,13.7124952" id="Fill-5" fill="#F0D8C4"></path>
                        <g transform="translate(0.000000, 0.093448)">
                            <mask id="mask-2" fill="white">
                                <use xlink:href="#path-1"></use>
                            </mask>
                            <g id="Clip-10"></g>
                            <path d="M3.56668413,12.2907086 L0.622287302,9.86337524 C-0.779855556,8.70701333 0.37322381,5.74225143 2.23696984,3.41108952 C4.10092222,1.08013714 6.72176349,-0.674834286 8.1241127,0.481318095 C8.19468413,0.53935619 11.0786206,2.88623238 12.5938429,4.11907048 L11.8196206,5.10006095 C11.6407159,4.9544419 7.43490635,1.53249905 7.34390635,1.45748952 C6.94441429,1.12832762 5.1198746,1.79985143 3.19814444,4.20329905 C1.27620794,6.60737524 1.00403333,8.55846095 1.4027,8.88720381 L4.34709683,11.3147467 L3.56668413,12.2907086 Z" id="Fill-9" fill="#AD856A" mask="url(#mask-2)"></path>
                        </g>
                        <path d="M14.5981127,21.7643276 C14.1301127,21.7643276 13.6594302,21.6076038 13.2686048,21.2857752 L12.7896683,20.8906133 C12.5243032,20.6718705 12.4838587,20.2758705 12.6994937,20.0064229 C12.9149222,19.7369752 13.3047159,19.6959086 13.5702873,19.914861 L14.0490175,20.3098133 C14.4233349,20.6180229 14.975319,20.5597752 15.2790651,20.1799086 C15.5830175,19.7998324 15.5258587,19.2395657 15.1517476,18.9311467 C14.8861762,18.7124038 14.8457317,18.3164038 15.0613667,18.0469562 C15.2767952,17.7777181 15.6670016,17.7364419 15.931954,17.9551848 L15.9321603,17.9551848 L15.9323667,17.9553943 L16.4546365,18.3857562 C16.6360175,18.5355657 16.8642397,18.6042895 17.0959698,18.5797752 C17.328319,18.5554705 17.5373508,18.4404419 17.6844778,18.25648 C17.8316048,18.0725181 17.8994937,17.8412038 17.8753508,17.60528 C17.8512079,17.3699848 17.7385413,17.1583657 17.5581921,17.0091848 L17.5567476,17.0079276 C17.2913825,16.7889752 17.2509381,16.3933943 17.4663667,16.1239467 C17.6817952,15.8542895 18.0717952,15.8132229 18.336954,16.0319657 C18.3379857,16.0325943 18.3386048,16.0332229 18.3394302,16.0338514 L18.8596365,16.4629562 C19.233954,16.7711657 19.7859381,16.7133371 20.0898905,16.3330514 C20.2372238,16.14888 20.3049063,15.9177752 20.2809698,15.682061 C20.256827,15.4461371 20.1437476,15.2338895 19.9623667,15.084499 L19.9621603,15.084499 C19.6967952,14.8655467 19.6563508,14.4697562 19.8717794,14.200099 C20.0874143,13.930861 20.4774143,13.8897943 20.742573,14.1083276 C20.7433984,14.1091657 20.7442238,14.1097943 20.7450492,14.1104229 L21.2656683,14.5395276 C21.4466365,14.6889181 21.6746524,14.758061 21.9065889,14.7331276 C22.1389381,14.7086133 22.3477635,14.5937943 22.4948905,14.4098324 C22.7988429,14.0297562 22.7416841,13.4694895 22.3673667,13.160861 L17.1915095,8.89390857 C16.9261444,8.67495619 16.8857,8.27916571 17.1011286,8.0097181 C17.3167635,7.74027048 17.7065571,7.69920381 17.9721286,7.91794667 L23.1479857,12.184899 C24.0520016,12.9305943 24.1902556,14.2841181 23.4560651,15.2022514 C23.1007317,15.646861 22.5957952,15.9242705 22.0345254,15.9835657 C21.8591286,16.0022133 21.6849698,15.9984419 21.5151444,15.9739276 C21.4771762,16.3931848 21.3182873,16.791699 21.0508587,17.12568 C20.5661444,17.7316229 19.8203984,17.9991848 19.1095254,17.896099 C19.0719698,18.3157752 18.913081,18.714499 18.6456524,19.0491086 C18.2899063,19.4937181 17.7849698,19.7711276 17.2239063,19.8302133 C17.0480968,19.848861 16.8735254,19.845299 16.7028746,19.8203657 C16.6659381,20.2287276 16.513446,20.6305943 16.2402397,20.9721181 C15.8234143,21.4936229 15.2132397,21.7643276 14.5981127,21.7643276" id="Fill-11" fill="#AD856A"></path>
                        <path d="M4.79662857,12.5684952 C4.61689841,12.5684952 4.45181905,12.4484381 4.4000254,12.2642667 C3.82534286,10.220781 4.26899365,8.0168 5.58632698,6.36910476 C7.3246127,4.19529524 10.2271206,3.39302857 12.8089619,4.37380952 C13.022327,4.45468571 13.1306603,4.69626667 13.0508032,4.91291429 C12.970946,5.12977143 12.7336444,5.24019048 12.5196603,5.15868571 C10.2702476,4.30445714 7.7414381,5.00342857 6.22724762,6.89752381 C5.07932698,8.33297143 4.69304127,10.2534667 5.19364444,12.034419 C5.2563746,12.2569333 5.12926349,12.4888762 4.91012063,12.5523619 C4.87235873,12.5632571 4.83418413,12.5684952 4.79662857,12.5684952" id="Fill-13" fill="#AD856A"></path>
                        <path d="M6.54878095,17.9869695 C6.47511429,17.9869695 6.40103492,17.9829886 6.32654286,17.9752362 C5.76527302,17.9161505 5.26033651,17.6385314 4.90459048,17.1935029 C4.63736825,16.8597314 4.47847937,16.4614267 4.44071746,16.042379 C4.27068571,16.0666838 4.09673333,16.0706648 3.92133651,16.0520171 C3.35986032,15.9929314 2.85492381,15.7153124 2.49938413,15.2704933 C2.14384444,14.8260933 1.98000317,14.2670838 2.0384,13.6969695 C2.09659048,13.1272743 2.37000317,12.6145695 2.80787619,12.2533505 C3.07324127,12.0348171 3.46303492,12.0756743 3.67866984,12.3451219 C3.89409841,12.6145695 3.85365397,13.0105695 3.58828889,13.2293124 C3.40690794,13.3787029 3.29403492,13.5909505 3.26968571,13.8268743 C3.24574921,14.0627981 3.31343175,14.2941124 3.46076508,14.4782838 C3.60789206,14.6622457 3.81671746,14.7770648 4.04886032,14.801579 C4.28203492,14.8258838 4.50901905,14.75716 4.69019365,14.6077695 L5.21308254,14.1765695 C5.47844762,13.9576171 5.86844762,13.9991029 6.08387619,14.2685505 C6.29951111,14.5382076 6.25886032,14.9339981 5.99349524,15.152741 C5.81211429,15.302341 5.69882857,15.5145886 5.67489206,15.7503029 C5.65074921,15.9860171 5.71843175,16.2171219 5.86555873,16.4010838 C6.01309841,16.5854648 6.22213016,16.7002838 6.45447937,16.7247981 C6.68641587,16.7493124 6.91443175,16.6805886 7.0958127,16.5311981 L7.61849524,16.1004171 C7.88386032,15.8814648 8.27365397,15.9225314 8.48908254,16.1921886 C8.70471746,16.4616362 8.66406667,16.8574267 8.39870159,17.076379 L7.8762254,17.5069505 C7.49633651,17.8203981 7.0316381,17.9869695 6.54878095,17.9869695" id="Fill-15" fill="#AD856A"></path>
                        <path d="M11.3594,21.8338895 C11.2857333,21.8338895 11.2114476,21.8299086 11.1371619,21.8221562 C10.5758921,21.7630705 10.0707492,21.4852419 9.71520952,21.0404229 C8.9812254,20.12208 9.11968571,18.7685562 10.0237016,18.0234895 C10.2890667,17.8047467 10.6788603,17.8458133 10.8944952,18.115261 C11.1099238,18.3849181 11.0694794,18.7807086 10.8039079,18.9994514 C10.4297968,19.3078705 10.3726381,19.8681371 10.6765905,20.2482133 C10.8237175,20.4323848 11.0327492,20.5472038 11.2650984,20.5717181 C11.4966222,20.5962324 11.7250508,20.5275086 11.9066381,20.3779086 C12.1717968,20.1589562 12.5620032,20.2002324 12.7774317,20.4698895 C12.9928603,20.7393371 12.9524159,21.1351276 12.6868444,21.3538705 C12.3067492,21.6673181 11.8422571,21.8338895 11.3594,21.8338895" id="Fill-17" fill="#AD856A"></path>
                        <path d="M22.0999381,12.5612457 C22.0916841,12.5612457 22.0834302,12.5610362 22.0749698,12.5606171 C21.8473667,12.5467886 21.6740333,12.3483695 21.687446,12.1172648 C21.7984619,10.227779 21.0910968,8.44640762 19.6421127,6.96591238 C18.3883349,5.6857219 16.5553349,5.03263619 14.481319,5.12168381 C14.2545413,5.13383619 14.0609857,4.95238857 14.0512873,4.72107429 C14.0413825,4.48996952 14.2180175,4.29427429 14.4456206,4.28442667 C16.755081,4.18343619 18.8078429,4.92556952 20.2275254,6.37505524 C21.8467476,8.02966476 22.6366524,10.0325029 22.5116048,12.1671314 C22.4983984,12.3896457 22.3166048,12.5612457 22.0999381,12.5612457" id="Fill-19" fill="#AD856A"></path>
                        <path d="M10.1569619,13.1754857 C10.0620413,13.1754857 9.96608889,13.1692 9.86951746,13.156419 C9.00326349,13.0407619 8.37431111,12.4168 8.22842222,11.527581 C7.96615238,9.92891429 8.31116825,7.69832381 9.01399365,6.4495619 C9.59754921,5.41304762 10.7537238,4.6560381 12.5483429,4.13537143 C13.0231524,3.99750476 13.377454,3.92647619 13.824819,3.88310476 C15.2587397,2.72422857 17.7565968,0.704628571 17.8321206,0.642609524 C19.2340571,-0.512914286 21.8546921,1.24184762 23.7184381,3.5728 C25.5823905,5.9039619 26.7356762,8.86893333 25.3335333,10.0250857 L22.3581841,12.477981 C22.0924063,12.6965143 21.702819,12.6554476 21.4873905,12.3862095 C21.2717556,12.1167619 21.3124063,11.7207619 21.5777714,11.502019 L24.5529143,9.04933333 C24.9517873,8.72038095 24.6794063,6.76908571 22.7572635,4.36521905 C20.8355333,1.9615619 19.0114063,1.29045714 18.6119143,1.61899048 C18.5196762,1.69504762 14.6155492,4.85089524 14.4494381,4.9852 C14.3522476,5.06377143 14.2340095,5.11091429 14.1102,5.12034286 C13.6535492,5.15512381 13.3454698,5.21148571 12.8886127,5.34411429 C11.4402476,5.76420952 10.4982635,6.34605714 10.0888667,7.07331429 C9.52821587,8.06980952 9.23540635,10.0150286 9.44959683,11.3209905 C9.50654921,11.6679619 9.7019619,11.8661714 10.0306762,11.9099619 C10.3595968,11.9533333 10.6567397,11.8089714 10.729581,11.6465905 C11.098327,10.823581 11.5591048,8.9592381 11.5636444,8.94059048 C11.6350413,8.65081905 11.8966921,8.45470476 12.190327,8.4647619 C12.2049778,8.4656 13.6506603,8.52510476 14.8668825,8.38765714 C16.1974222,8.2376381 17.2601206,7.86091429 17.2708508,7.85714286 C17.5925492,7.74127619 17.9466444,7.91287619 18.0605492,8.24015238 C18.174454,8.56721905 18.0062794,8.92613333 17.6841683,9.042 C17.6358825,9.05939048 16.4830095,9.47026667 15.0036921,9.63704762 C14.1399143,9.73468571 13.1987556,9.74055238 12.6393429,9.7336381 C12.467454,10.3821143 12.1476127,11.5175238 11.8566603,12.1668381 C11.579946,12.7853524 10.9051841,13.1754857 10.1569619,13.1754857" id="Fill-21" fill="#AD856A"></path>
                        <path d="M8.46244286,17.0158686 C8.44283968,17.03724 8.42158571,17.0575638 8.3984746,17.076421 C8.21750635,17.2256019 8.10442698,17.4378495 8.08028413,17.6735638 C8.05614127,17.9094876 8.12403016,18.1408019 8.27115714,18.3249733 C8.41828413,18.5087257 8.62731587,18.6235448 8.85966508,18.6482686 C9.09304603,18.6723638 9.31982381,18.6038495 9.50099841,18.4542495 L9.99376032,18.0481924 C10.1346968,17.8709352 10.2044429,17.6500971 10.1914429,17.4212971 C10.1774111,17.1772019 10.0707286,16.9534305 9.89079206,16.79084 C9.72055397,16.63684 9.48655397,16.5658114 9.23109365,16.5892781 C8.97026825,16.6140019 8.72574444,16.7365733 8.55983968,16.9259829 C8.52991905,16.9599257 8.49731587,16.9898876 8.46244286,17.0158686 M8.95396667,19.9102305 C8.8803,19.9102305 8.80622063,19.9062495 8.73193492,19.8984971 C8.17066508,19.8394114 7.66572857,19.5620019 7.30998254,19.1173924 C6.95423651,18.6723638 6.79060159,18.1137733 6.84879206,17.5438686 C6.90698254,16.9737543 7.18039524,16.461259 7.6184746,16.1002495 C7.62652222,16.0935448 7.63477619,16.087259 7.64303016,16.0811829 C8.01487143,15.6615067 8.55137937,15.3908019 9.11677619,15.3375829 C9.71828413,15.2822686 10.2845063,15.4639257 10.713919,15.8517543 C11.1406492,16.2374876 11.3942524,16.76884 11.4274746,17.3479638 C11.4606968,17.9272971 11.2698238,18.48484 10.8901413,18.9181352 C10.8670302,18.9443257 10.8420619,18.968421 10.8152365,18.990421 L10.2814111,19.4302114 C9.90152222,19.743659 9.43703016,19.9102305 8.95396667,19.9102305" id="Fill-23" fill="#AD856A"></path>
                        <path d="M8.16773492,17.0272248 C8.02122698,17.0272248 7.8741,16.9748438 7.75606825,16.8679867 C7.50081429,16.6370914 7.47832222,16.2398343 7.70571905,15.9804438 C7.86275079,15.801301 7.94178254,15.5708248 7.92816349,15.331339 C7.9143381,15.0916438 7.8095127,14.8718533 7.63287778,14.7121962 C7.45624286,14.552539 7.22822698,14.4708248 6.99298889,14.4863295 C6.7569254,14.5001581 6.54025873,14.6065962 6.38302063,14.7859486 C6.15583016,15.045339 5.76459206,15.0681771 5.50913175,14.8374914 C5.25367143,14.6068057 5.23097302,14.209339 5.45836984,13.9501581 C6.23671905,13.0621962 7.58190952,12.9827867 8.45600476,13.7731105 C8.87963968,14.155701 9.13117937,14.6832819 9.16419524,15.2582152 C9.19700476,15.8331486 9.00736984,16.3867105 8.63016349,16.8168629 C8.50779841,16.9561962 8.33817937,17.0272248 8.16773492,17.0272248" id="Fill-25" fill="#AD856A"></path>
                        <path d="M12.7082222,21.127061 C12.5617143,21.127061 12.4145873,21.07468 12.2965556,20.9678229 C12.0415079,20.7369276 12.0188095,20.3396705 12.2462063,20.08028 C12.4032381,19.9013467 12.4822698,19.6708705 12.4684444,19.4311752 C12.454619,19.19148 12.3497937,18.97148 12.1731587,18.8118229 C11.8085397,18.4824514 11.2478889,18.5155562 10.9235079,18.8857848 C10.6961111,19.1451752 10.3044603,19.1682229 10.0494127,18.9375371 C9.79395238,18.7066419 9.77125397,18.3093848 9.99844444,18.0499943 C10.3754444,17.6198419 10.8948254,17.3646419 11.461254,17.3311181 C12.0289206,17.2969657 12.5726508,17.4899371 12.9962857,17.8727371 C13.4199206,18.2557467 13.6714603,18.7831181 13.7044762,19.3580514 C13.7374921,19.9331943 13.5478571,20.4865467 13.1706508,20.916699 C13.0482857,21.0560324 12.8786667,21.127061 12.7082222,21.127061" id="Fill-27" fill="#AD856A"></path>
                        <path d="M5.54262222,15.2833162 C5.39611429,15.2833162 5.24919365,15.2309352 5.1311619,15.1240781 C4.87590794,14.8933924 4.85320952,14.4959257 5.08060635,14.2367448 C5.23743175,14.0576019 5.31646349,13.8271257 5.3026381,13.58764 C5.2888127,13.3477352 5.1839873,13.1279448 5.00714603,12.9682876 C4.64273333,12.6389162 4.08228889,12.672021 3.75749524,13.04204 C3.53009841,13.30164 3.13886032,13.3242686 2.88360635,13.0935829 C2.62814603,12.8628971 2.60544762,12.4654305 2.83284444,12.2062495 C3.6114,11.3182876 4.95597143,11.2386686 5.83027302,12.0292019 C6.25390794,12.4117924 6.50565397,12.9391638 6.53866984,13.5143067 C6.57168571,14.08924 6.38225714,14.6428019 6.00505079,15.0727448 C5.88289206,15.2122876 5.71306667,15.2833162 5.54262222,15.2833162" id="Fill-29" fill="#AD856A"></path>
                    </g>
                </g>
            </g>
        </g>
    </g>
</svg>