<?xml version="1.0" encoding="UTF-8"?>
<svg width="16px" height="14px" viewBox="0 0 16 14" version="1.1" xmlns="http://www.w3.org/2000/svg" xmlns:xlink="http://www.w3.org/1999/xlink">
    <!-- Generator: Sketch 52.4 (67378) - http://www.bohemiancoding.com/sketch -->
    <title>话题参与人</title>
    <desc>Created with Sketch.</desc>
    <g id="世界语言地图" stroke="none" stroke-width="1" fill="none" fill-rule="evenodd">
        <g id="动态详情" transform="translate(-912.000000, -405.000000)" fill-rule="nonzero" stroke="#C8D4DB">
            <g id="话题参与人" transform="translate(912.000000, 405.000000)">
                <path d="M5.5,6.5 C6.88071187,6.5 8,5.38071187 8,4 C8,2.61928813 6.88071187,1.5 5.5,1.5 C4.11928813,1.5 3,2.61928813 3,4 C3,5.38071187 4.11928813,6.5 5.5,6.5 Z" id="椭圆形"></path>
                <path d="M11.5,6.5 C12.6045695,6.5 13.5,5.6045695 13.5,4.5 C13.5,3.3954305 12.6045695,2.5 11.5,2.5 C10.3954305,2.5 9.5,3.3954305 9.5,4.5 C9.5,5.6045695 10.3954305,6.5 11.5,6.5 Z" id="椭圆形-copy-5"></path>
                <path d="M10,11.0921631 C10,11.0921631 10,11.0921631 10,11.0921631 C10,8.60688171 7.98528137,6.59216309 5.5,6.59216309 C3.01471863,6.59216309 1,8.60688171 1,11.0921631 C1,11.0921631 1,11.0921631 1,11.0921631 L1,11.0921631 C1,11.9205902 1.67157288,12.5921631 2.5,12.5921631 L8.5,12.5921631 C9.32842712,12.5921631 10,11.9205902 10,11.0921631 Z" id="椭圆形-copy-4"></path>
                <path d="M11.5910645,12.0305176 L13.8410645,12.0305176 C14.5314204,12.0305176 15.0910645,11.4708735 15.0910645,10.7805176 C15.0910645,8.70944977 13.3002035,7.03051758 11.0910645,7.03051758 C10.7147652,7.03051758 10.3506022,7.07923158 10.0053593,7.17029981" id="路径" stroke-linecap="round"></path>
            </g>
        </g>
    </g>
</svg>