<?xml version="1.0" standalone="no"?><!DOCTYPE svg PUBLIC "-//W3C//DTD SVG 1.1//EN" "http://www.w3.org/Graphics/SVG/1.1/DTD/svg11.dtd"><svg t="1547114134980" class="icon" style="" viewBox="0 0 1024 1024" version="1.1" xmlns="http://www.w3.org/2000/svg" p-id="2015" xmlns:xlink="http://www.w3.org/1999/xlink" width="200" height="200"><defs><style type="text/css"></style></defs><path d="M518.826667 653.653333l49.493333 134.826667h-100.693333l51.2-134.826667m0-56.32c-6.826667 0-15.36 5.12-17.066667 13.653334l-69.973333 186.026666c-3.413333 11.946667 5.12 22.186667 17.066666 22.186667h138.24c11.946667 0 20.48-10.24 17.066667-22.186667l-69.973333-186.026666c0-8.533333-6.826667-13.653333-15.36-13.653334z" fill="#333333" p-id="2016"></path><path d="M518.826667 527.36m-102.4 0a102.4 102.4 0 1 0 204.8 0 102.4 102.4 0 1 0-204.8 0Z" fill="#FCBE00" p-id="2017"></path><path d="M518.826667 438.613333c47.786667 0 87.04 39.253333 87.04 87.04S566.613333 614.4 518.826667 614.4s-87.04-39.253333-87.04-87.04 39.253333-88.746667 87.04-88.746667m0-30.72c-64.853333 0-119.466667 52.906667-119.466667 119.466667 0 64.853333 52.906667 119.466667 119.466667 119.466667 64.853333 0 119.466667-52.906667 119.466666-119.466667s-54.613333-119.466667-119.466666-119.466667zM348.16 307.2c-5.12 0-10.24 1.706667-13.653333 5.12l-1.706667 1.706667-1.706667 1.706666-6.826666 6.826667c-112.64 112.64-112.64 296.96 0 409.6l1.706666 1.706667c1.706667 1.706667 3.413333 5.12 6.826667 6.826666l1.706667 1.706667c3.413333 1.706667 6.826667 3.413333 10.24 3.413333 11.946667 0 22.186667-10.24 22.186666-22.186666 0-6.826667-3.413333-13.653333-8.533333-17.066667l-6.826667-6.826667c-46.08-46.08-69.973333-105.813333-69.973333-170.666666s25.6-124.586667 69.973333-170.666667l6.826667-6.826667c6.826667-3.413333 11.946667-11.946667 11.946667-20.48 0-13.653333-10.24-23.893333-22.186667-23.893333zM692.906667 308.906667c-11.946667 0-22.186667 10.24-22.186667 22.186666 0 8.533333 5.12 15.36 11.946667 18.773334 32.426667 32.426667 59.733333 73.386667 69.973333 119.466666 18.773333 83.626667-5.12 167.253333-64.853333 226.986667l-6.826667 6.826667c-5.12 3.413333-10.24 10.24-10.24 18.773333 0 11.946667 10.24 22.186667 22.186667 22.186667 3.413333 0 8.533333-1.706667 11.946666-3.413334 3.413333-1.706667 5.12-3.413333 6.826667-6.826666l1.706667-1.706667c61.44-61.44 92.16-145.066667 83.626666-232.106667-6.826667-69.973333-40.96-134.826667-90.453333-184.32 0 0 0-1.706667-1.706667-1.706666l-1.706666-1.706667c-1.706667-1.706667-5.12-3.413333-10.24-3.413333z" fill="#333333" p-id="2018"></path><path d="M245.76 232.106667c-6.826667 0-11.946667 3.413333-17.066667 8.533333l-6.826666 8.533333c-153.6 153.6-153.6 402.773333 0 556.373334l5.12 5.12c3.413333 6.826667 10.24 10.24 17.066666 10.24 11.946667 0 20.48-8.533333 20.48-20.48 0-6.826667-3.413333-11.946667-8.533333-15.36l-6.826667-6.826667c-134.826667-134.826667-134.826667-363.52 0-498.346667l6.826667-6.826666c5.12-3.413333 8.533333-10.24 8.533333-17.066667 3.413333-13.653333-6.826667-23.893333-18.773333-23.893333zM797.013333 235.52c-11.946667 0-20.48 8.533333-20.48 20.48 0 6.826667 3.413333 11.946667 8.533334 15.36l5.12 5.12c134.826667 134.826667 134.826667 363.52 0 498.346667l-6.826667 6.826666c-3.413333 3.413333-6.826667 8.533333-6.826667 15.36 0 11.946667 8.533333 20.48 20.48 20.48 6.826667 0 13.653333-3.413333 17.066667-10.24l5.12-5.12c153.6-153.6 153.6-402.773333 0-556.373333l-5.12-5.12-1.706667-1.706667-1.706666-1.706666c-3.413333 0-8.533333-1.706667-13.653334-1.706667z" fill="#333333" p-id="2019"></path></svg>