<?xml version="1.0" standalone="no"?><!DOCTYPE svg PUBLIC "-//W3C//DTD SVG 1.1//EN" "http://www.w3.org/Graphics/SVG/1.1/DTD/svg11.dtd"><svg t="1547036068427" class="icon" style="" viewBox="0 0 1024 1024" version="1.1" xmlns="http://www.w3.org/2000/svg" p-id="4049" xmlns:xlink="http://www.w3.org/1999/xlink" width="200" height="200"><defs><style type="text/css"></style></defs><path d="M512 512m-512 0a512 512 0 1 0 1024 0 512 512 0 1 0-1024 0Z" fill="#9AD066" p-id="4050"></path><path d="M530.432 335.530667v-1.706667a25.6 25.6 0 0 0-18.773333-6.826667 26.965333 26.965333 0 0 0-18.090667 8.874667L307.2 546.133333a26.282667 26.282667 0 0 0-4.437333 27.989334 25.941333 25.941333 0 0 0 23.893333 15.36h119.125333v154.282666a25.941333 25.941333 0 0 0 25.941334 25.941334h81.92a26.282667 26.282667 0 0 0 18.432-7.509334 27.306667 27.306667 0 0 0 7.850666-18.432v-156.330666h122.88a26.282667 26.282667 0 0 0 19.114667-44.032z m190.122667-79.530667H303.445333a26.282667 26.282667 0 0 0 0 51.2h417.109334a26.282667 26.282667 0 0 0 0-52.224z" fill="#FFFFFF" p-id="4051"></path></svg>