<?xml version="1.0" encoding="UTF-8"?>
<svg width="14px" height="14px" viewBox="0 0 14 14" version="1.1" xmlns="http://www.w3.org/2000/svg" xmlns:xlink="http://www.w3.org/1999/xlink">
    <!-- Generator: Sketch 52.4 (67378) - http://www.bohemiancoding.com/sketch -->
    <title>分享</title>
    <desc>Created with Sketch.</desc>
    <g id="世界语言地图" stroke="none" stroke-width="1" fill="none" fill-rule="evenodd">
        <g id="动态详情" transform="translate(-575.000000, -613.000000)" stroke="#90A2AE">
            <g id="1" transform="translate(370.000000, 463.000000)">
                <g id="动态" transform="translate(49.000000, 29.000000)">
                    <g id="操作-控件" transform="translate(0.000000, 119.000000)">
                        <g id="分享" transform="translate(156.000000, 2.000000)">
                            <path d="M0.515991211,9.23081981 C0.515991211,13.343657 1.59932454,14.1444465 1.59932454,13.0525295 C1.59932454,12.506571 1.75268661,7.97444902 7.01597881,7.97444902 L7.01597881,9.41286196 C7.01597881,9.87141226 7.24166732,10.3301025 7.60273917,10.5339058 C7.73814731,10.6358214 7.91880722,10.6867652 8.09934314,10.6867652 C8.32500685,10.6867652 8.55069535,10.5848776 8.73123128,10.4320181 L13.0645398,6.61025247 C13.3354553,6.35547743 13.5159912,5.99881475 13.5159912,5.59106831 C13.5159912,5.18346183 13.3354553,4.82679915 13.0645398,4.57202411 L8.73123128,0.750258445 C8.59582314,0.546455202 8.37015943,0.495483398 8.14447092,0.495483398 C7.963935,0.495483398 7.82852685,0.546455202 7.64789175,0.648342828 C7.2867951,0.852174062 7.01597881,1.43921116 7.01597881,1.89778945 L7.01597881,2.83266016 C3.40483877,2.83266016 0.515991211,5.11798263 0.515991211,9.23081981 Z" id="Fill-1"></path>
                        </g>
                    </g>
                </g>
            </g>
        </g>
    </g>
</svg>