<?xml version="1.0" standalone="no"?><!DOCTYPE svg PUBLIC "-//W3C//DTD SVG 1.1//EN" "http://www.w3.org/Graphics/SVG/1.1/DTD/svg11.dtd"><svg t="1546948046680" class="icon" style="" viewBox="0 0 1024 1024" version="1.1" xmlns="http://www.w3.org/2000/svg" p-id="7908" xmlns:xlink="http://www.w3.org/1999/xlink" width="200" height="200"><defs><style type="text/css"></style></defs><path d="M512 0C228.072727 0 0 228.072727 0 512s228.072727 512 512 512 512-228.072727 512-512S795.927273 0 512 0z m-107.054545 332.8c0-62.836364 48.872727-111.709091 107.054545-111.709091 60.509091 0 107.054545 51.2 107.054545 111.709091V488.727273c0 62.836364-48.872727 111.709091-107.054545 111.709091-60.509091 0-107.054545-51.2-107.054545-111.709091v-155.927273z m286.254545 162.909091c0 88.436364-72.145455 165.236364-158.254545 176.872727v102.4h58.181818c13.963636 0 27.927273 2.327273 27.927272 13.963637 0 13.963636-16.290909 13.963636-27.927272 13.963636h-158.254546c-13.963636 0-27.927273-2.327273-27.927272-13.963636 0-13.963636 16.290909-13.963636 27.927272-13.963637h58.181818v-102.4c-88.436364-9.309091-158.254545-86.109091-158.254545-176.872727V465.454545c0-11.636364 9.309091-23.272727 23.272727-23.272727 11.636364 0 23.272727 9.309091 23.272728 23.272727v30.254546c0 72.145455 60.509091 130.327273 134.981818 130.327273s134.981818-58.181818 134.981818-130.327273V465.454545c0-11.636364 9.309091-23.272727 23.272727-23.272727s23.272727 9.309091 23.272727 23.272727l-4.654545 30.254546z" fill="#0184E6" p-id="7909"></path></svg>