<?xml version="1.0" standalone="no"?><!DOCTYPE svg PUBLIC "-//W3C//DTD SVG 1.1//EN" "http://www.w3.org/Graphics/SVG/1.1/DTD/svg11.dtd"><svg t="1546947949388" class="icon" style="" viewBox="0 0 1024 1024" version="1.1" xmlns="http://www.w3.org/2000/svg" p-id="5815" xmlns:xlink="http://www.w3.org/1999/xlink" width="200" height="200"><defs><style type="text/css"></style></defs><path d="M661.098049 67.278396l-54.164811 31.358575c128.285078 94.075724 210.957684 245.167038 210.957684 413.363029s-82.672606 319.287305-210.957684 413.363029l54.164811 31.358575c131.135857-105.478842 213.808463-265.122494 213.808463-444.721604s-82.672606-339.242762-213.808463-444.721604zM381.721657 249.728285c74.120267 62.717149 122.583519 156.792873 122.583519 262.271715S455.841924 711.554566 381.721657 774.271715l51.314031 31.358575c79.821826-74.120267 128.285078-176.74833 128.285078-293.63029s-48.463252-219.510022-128.285078-293.63029l-51.314031 31.358575zM142.256178 406.521158c28.507795 25.657016 48.463252 62.717149 48.463252 105.478842s-19.955457 79.821826-48.463252 105.478842l51.314031 31.358574c34.209354-37.060134 54.164811-85.523385 54.164811-136.837416s-19.955457-99.777283-54.164811-136.837416l-51.314031 31.358574z" fill="#FF962F" p-id="5816"></path></svg>