<?xml version="1.0" encoding="UTF-8"?>
<svg width="28px" height="28px" viewBox="0 0 28 28" version="1.1" xmlns="http://www.w3.org/2000/svg" xmlns:xlink="http://www.w3.org/1999/xlink">
    <!-- Generator: Sketch 52.4 (67378) - http://www.bohemiancoding.com/sketch -->
    <title>qq 悬停点击</title>
    <desc>Created with Sketch.</desc>
    <g id="杂项" stroke="none" stroke-width="1" fill="none" fill-rule="evenodd">
        <g id="画板" transform="translate(-538.000000, -279.000000)">
            <g id="qq-悬停点击" transform="translate(539.000000, 280.000000)">
                <rect id="矩形-copy" stroke="#2A9FE4" fill-rule="nonzero" x="0" y="0" width="26" height="26" rx="13"></rect>
                <path d="M7.41199592,14.0831914 C6.93874985,15.3157913 6.86104139,16.4916538 7.24220825,16.7103807 C7.50407512,16.8628317 7.91588436,16.5171446 8.30062489,15.8841523 C8.45421696,16.5737175 8.82990925,17.1968424 9.36816581,17.6989275 C8.80284054,17.929413 8.43437165,18.3063468 8.43437165,18.7322886 C8.43437165,19.4334481 9.43317632,20 10.6651064,20 C11.7759876,20 12.6971599,19.5389468 12.8669476,18.9335009 C12.9554434,18.9314936 13.0439683,18.9314936 13.1324641,18.9335009 C13.3023278,19.5389468 14.2253249,20 15.3362062,20 C16.5679842,20 17.5669409,19.4315568 17.5669409,18.7322886 C17.5669409,18.3063468 17.198472,17.929413 16.6330707,17.6988453 C17.1714033,17.1988981 17.5488444,16.5737175 17.7006117,15.8841523 C18.0853522,16.5170623 18.4953366,16.8608582 18.7572795,16.7104629 C19.1383703,16.4917361 19.0624867,15.3138179 18.5874158,14.0831914 C18.2154492,13.1142971 17.7095839,12.4012969 17.3248433,12.2430077 C17.3303179,12.1824878 17.3338916,12.1180209 17.3338916,12.057501 C17.3338916,11.6843496 17.2400636,11.336689 17.0791721,11.0553865 C17.0828218,11.033925 17.0828218,11.01049 17.0828218,10.9889462 C17.0828218,10.8170894 17.04488,10.6549355 16.9816943,10.5162166 C16.8841405,7.99839068 15.4012167,6 13.0006183,6 C10.6000198,6 9.11534718,7.99839068 9.01954223,10.5162988 C8.95327166,10.663601 8.91869834,10.8252172 8.91841478,10.9890284 C8.91841478,11.0104077 8.92023963,11.033925 8.92023963,11.0553865 C8.76132506,11.336689 8.66734497,11.6824584 8.66734497,12.057501 C8.66734497,12.1199944 8.66916982,12.1805143 8.67456836,12.2430899 C8.29165268,12.4012969 7.78403849,13.1142971 7.41199592,14.0831914 Z" id="路径" fill="#2A9FE4"></path>
            </g>
        </g>
    </g>
</svg>