<?xml version="1.0" encoding="UTF-8"?>
<svg width="28px" height="28px" viewBox="0 0 28 28" version="1.1" xmlns="http://www.w3.org/2000/svg" xmlns:xlink="http://www.w3.org/1999/xlink">
    <!-- Generator: Sketch 52.4 (67378) - http://www.bohemiancoding.com/sketch -->
    <title>微博 悬停点击</title>
    <desc>Created with Sketch.</desc>
    <g id="杂项" stroke="none" stroke-width="1" fill="none" fill-rule="evenodd">
        <g id="画板" transform="translate(-501.000000, -279.000000)">
            <g id="微博-悬停点击" transform="translate(502.000000, 280.000000)">
                <rect id="矩形" stroke="#E41D4A" fill-rule="nonzero" x="0" y="0" width="26" height="26" rx="13"></rect>
                <g id="微博" transform="translate(5.000000, 7.000000)" fill="#E41D4A">
                    <path d="M13.9666406,1.30522191 C12.9865486,0.220020354 11.5164105,-0.181906155 10.2096211,0.0994423974 C9.88292371,0.179827696 9.71957502,0.461176248 9.7604122,0.782717459 C9.84208653,1.10425865 10.1279467,1.26502927 10.4546441,1.22483661 C11.393899,1.02387335 12.4556654,1.30522191 13.1498973,2.06888227 C13.8441291,2.83254263 14.048315,3.87755152 13.7216176,4.80198246 C13.6807805,4.96275305 13.6807805,5.08333101 13.7624548,5.24410161 C13.8441291,5.36467956 13.9666406,5.4852575 14.0891522,5.52545016 C14.3750123,5.60583546 14.7017097,5.44506486 14.8242212,5.16371631 C15.1917557,3.83735886 14.9467327,2.39042346 13.9666406,1.30522191 Z" id="路径"></path>
                    <path d="M12.2106424,4.84217512 C12.4556654,4.92256041 12.7415256,4.80198246 12.8231999,4.52063391 C13.0273858,3.8775515 12.9048742,3.19427646 12.4148282,2.67177201 C11.9247822,2.14926756 11.2305503,1.94830431 10.5771556,2.06888227 C10.2912954,2.10907492 10.1279467,2.39042346 10.2096211,2.63157935 C10.2504582,2.91292791 10.5363184,3.0736985 10.7813414,2.9933132 C11.1080388,2.91292791 11.4347361,3.03350586 11.6797592,3.27466176 C11.9247822,3.51581765 11.9656193,3.8775515 11.883945,4.19909271 C11.8022707,4.48044126 11.9656193,4.76178982 12.2106424,4.84217512 Z M11.2305503,5.76660607 C11.0263644,5.68622077 10.8630158,5.64602812 10.9855273,5.40487222 C11.2305503,4.80198248 11.2305503,4.27947801 10.9855273,3.91774416 C10.4954812,3.23446912 9.14785466,3.27466176 7.63687938,3.91774416 C7.63687938,3.91774416 7.14683334,4.11870741 7.26934486,3.75697356 C7.51436787,2.9933132 7.47353071,2.39042346 7.10599619,2.02868961 C6.2892528,1.22483661 4.08404565,2.06888227 2.20553585,3.91774416 C0.817072082,5.32448692 0.000328694848,6.77142233 0.000328694848,8.05758711 C0.000328694848,10.5093388 3.18562791,11.9964668 6.2892528,11.9964668 C10.3729698,11.9964668 13.0682229,9.66529313 13.0682229,7.81643122 C13.0682229,6.69103701 12.0881309,6.04795462 11.2305503,5.76660607 Z M6.2892528,11.1122285 C3.79818546,11.3533844 1.67465265,10.2279902 1.51130397,8.66047688 C1.3479553,7.05277088 3.22646508,5.56564282 5.71753242,5.32448692 C8.20859976,5.08333103 10.3321326,6.20872522 10.4954812,7.77623856 C10.6588299,9.38394456 8.78032014,10.8710726 6.2892528,11.1122285 Z" id="形状" fill-rule="nonzero"></path>
                    <path d="M6.53427581,6.53026641 C5.3499979,6.20872522 4.00237131,6.81161497 3.51232527,7.81643122 C2.98144207,8.86144011 3.51232527,10.027027 4.69660318,10.3887608 C5.92171827,10.7906873 7.39185637,10.1877976 7.88190239,9.06240337 C8.37194843,7.97720182 7.75939088,6.85180761 6.53427581,6.53026641 Z M5.63585809,9.22317397 C5.39083507,9.58490782 4.90078903,9.78587107 4.49241733,9.58490782 C4.12488281,9.42413722 4.00237129,8.98201807 4.24739432,8.62028422 C4.49241733,8.25855037 4.98246337,8.09777977 5.3499979,8.25855037 C5.7583696,8.37912833 5.8808811,8.82124747 5.63585809,9.22317397 Z" id="形状" fill-rule="nonzero"></path>
                </g>
            </g>
        </g>
    </g>
</svg>