<?xml version="1.0" encoding="UTF-8"?>
<svg width="28px" height="28px" viewBox="0 0 28 28" version="1.1" xmlns="http://www.w3.org/2000/svg" xmlns:xlink="http://www.w3.org/1999/xlink">
    <!-- Generator: Sketch 52.4 (67378) - http://www.bohemiancoding.com/sketch -->
    <title>微信</title>
    <desc>Created with Sketch.</desc>
    <g id="杂项" stroke="none" stroke-width="1" fill="none" fill-rule="evenodd">
        <g id="画板" transform="translate(-427.000000, -237.000000)" fill-rule="nonzero">
            <g id="微信" transform="translate(428.000000, 238.000000)">
                <rect id="矩形-copy-6" stroke="#90A2AE" x="0" y="0" width="26" height="26" rx="13"></rect>
                <path d="M14.0183316,12.9910284 C13.7559737,12.9910284 13.4934579,13.2301872 13.4934579,13.5252551 C13.4934579,13.7643673 13.7559737,14.0048764 14.0183316,14.0048764 C14.4124684,14.0048764 14.6937105,13.7643673 14.6937105,13.5252551 C14.6937421,13.2301872 14.4124684,12.9910284 14.0183316,12.9910284 M12.2935053,10.5021821 C12.7061,10.5021821 12.9685211,10.2442576 12.9685211,9.85695955 C12.9685211,9.45136138 12.7061316,9.21220266 12.2935053,9.21220266 C11.8999053,9.21220266 11.5247158,9.45136138 11.5247158,9.85695955 C11.5247,10.2442421 11.8999053,10.5021821 12.2935053,10.5021821 M10.3247632,15.8661639 C9.63092632,15.8661639 9.12465263,15.7556182 8.46839474,15.5711115 L6.57473158,16.5109053 L7.11880526,14.9263391 C5.78731053,14.0048764 5,12.8428736 5,11.4238 C5,8.91715021 7.39981053,7 10.3247632,7 C12.9124053,7 15.2186158,8.51158309 15.6684737,10.6497316 C15.4811474,10.6127278 15.3124842,10.5945519 15.1624053,10.5945519 C12.6122632,10.5945519 10.6437579,12.4749932 10.6437579,14.7417237 C10.6437579,15.1291459 10.7,15.4787107 10.7936158,15.8478793 C10.6437579,15.8661639 10.4748421,15.8661639 10.3247632,15.8661639 M18.1437579,17.6728926 L18.5184579,19 L17.0934895,18.2071038 C16.5497316,18.3175098 16.0248105,18.4839803 15.4811474,18.4839803 C12.9685211,18.4839803 10.9808947,16.7876421 10.9808947,14.6860007 C10.9808947,12.58557 12.9684895,10.8896043 15.4811474,10.8896043 C17.8623263,10.8896043 20,12.58557 20,14.6860007 C20,15.8661639 19.1938211,16.9163638 18.1437579,17.6728926 M8.58124211,9.21220266 C8.1875,9.21220266 7.77493684,9.45136138 7.77493684,9.85695955 C7.77493684,10.2442421 8.18751579,10.5021821 8.58124211,10.5021821 C8.95606842,10.5021821 9.25624211,10.2442576 9.25624211,9.85695955 C9.25624211,9.45136138 8.95595789,9.21220266 8.58124211,9.21220266 M16.9623105,12.9910284 C16.6809263,12.9910284 16.4373895,13.2301872 16.4373895,13.5252551 C16.4373895,13.7643673 16.6809263,14.0048764 16.9623105,14.0048764 C17.3374368,14.0048764 17.6188211,13.7643673 17.6188211,13.5252551 C17.6188211,13.2301872 17.3374368,12.9910284 16.9623105,12.9910284" id="形状" fill="#90A2AE"></path>
            </g>
        </g>
    </g>
</svg>