<?xml version="1.0" encoding="UTF-8"?>
<svg width="56px" height="56px" viewBox="0 0 56 56" version="1.1" xmlns="http://www.w3.org/2000/svg" xmlns:xlink="http://www.w3.org/1999/xlink">
    <!-- Generator: Sketch 52.4 (67378) - http://www.bohemiancoding.com/sketch -->
    <title>听说@0.5x</title>
    <desc>Created with Sketch.</desc>
    <g id="杂项" stroke="none" stroke-width="1" fill="none" fill-rule="evenodd">
        <g id="听说">
            <rect id="Mask" fill="#FFF5E3" x="0" y="0" width="56" height="56" rx="28"></rect>
            <g transform="translate(13.000000, 15.000000)">
                <path d="M3.32972301,15.0144653 L3.32972301,12.1145241 L3.32972301,10.9987127 C3.32972301,4.92429141 8.39833343,1.11585309e-15 14.6507812,0 C20.9032291,-1.11585309e-15 25.9718395,4.92429141 25.9718395,10.9987127 L25.9718395,12.1145241 L25.9718395,15.2945557" id="Rectangle-8" stroke="#F5A623" stroke-width="1.78125" stroke-linecap="round"></path>
                <g id="左" transform="translate(0.000000, 14.398315)" fill="#FAD291">
                    <path d="M3.26187134,-4.10782519e-14 L4.39644886,-4.10782519e-14 C4.91068559,-4.11727157e-14 5.32755682,0.416871231 5.32755682,0.931107955 L5.32755682,8.40113314 C5.32755682,8.91536986 4.91068559,9.33224109 4.39644886,9.33224109 L3.26187134,9.33224109 L3.26187134,-4.10782519e-14 Z" id="Rectangle-7"></path>
                    <path d="M3.32972301,-5.32907052e-14 L3.32722097,9.33224109 L3.32722097,9.33224109 C1.48964757,9.33224109 4.87437399e-14,7.84259352 -4.4408921e-16,6.00502012 L0,3.32972301 C-2.25207065e-16,1.49076777 1.49076777,-5.29528946e-14 3.32972301,-5.32907052e-14 Z" id="Rectangle-7"></path>
                </g>
                <g id="Group-5" transform="translate(23.156250, 14.250000)" fill="#FAD291">
                    <path d="M2.81558949,0.414950284 L1.48434433,0.414950284 C1.11619759,0.414950284 0.817755682,0.713392188 0.817755682,1.08153893 L0.817755682,9.08060272 C0.817755682,9.44874947 1.11619759,9.74719137 1.48434433,9.74719137 L2.81558949,9.74719137 L2.81558949,0.414950284 Z" id="Rectangle-7-Copy"></path>
                    <path d="M6.14030843,0.414950284 L6.13780451,9.74719137 L6.13780451,9.74719137 C4.29884927,9.74719137 2.8080815,8.2564236 2.8080815,6.41746836 L2.8080815,3.74717721 C2.8080815,1.9068391 4.29997031,0.414950284 6.14030843,0.414950284 Z" id="Rectangle-7-Copy" transform="translate(4.474195, 5.081071) scale(-1, 1) translate(-4.474195, -5.081071) "></path>
                </g>
                <g id="mac" transform="translate(7.013672, 7.651278)">
                    <path d="M7.65127841,4.46324574 L7.65127841,4.46324574 C8.03863281,4.46324574 8.3526456,4.77725852 8.3526456,5.16461293 L8.3526456,16.5140092 C8.3526456,16.9013636 8.03863281,17.2153764 7.65127841,17.2153764 L7.65127841,17.2153764 C7.26392401,17.2153764 6.94991122,16.9013636 6.94991122,16.5140092 L6.94991122,5.16461293 C6.94991122,4.77725852 7.26392401,4.46324574 7.65127841,4.46324574 Z" id="Rectangle-9" fill="#C37E00"></path>
                    <circle id="Oval-8" stroke="#F5A623" stroke-width="1.5" fill="#FFFFFF" cx="7.65127841" cy="7.65127841" r="6.90127841"></circle>
                    <path d="M6.52909091,15.3143759 C7.07307607,14.9152246 8.20513521,14.8973609 8.77346591,15.3143759 C8.77346591,16.4671493 9.33455966,17.4277939 10.4567472,18.1963095 L4.84580966,18.1963095 C5.96799716,17.4277939 6.52909091,16.4671493 6.52909091,15.3143759 Z" id="Rectangle-35" fill="#FAD291"></path>
                    <path d="M11.8594528,15.0082769 L3.44307528,15.0297943" id="Oval-8" stroke="#F5A623" stroke-width="3.35697115" stroke-linecap="round" transform="translate(7.651264, 15.019036) rotate(-180.000000) translate(-7.651264, -15.019036) "></path>
                </g>
            </g>
        </g>
    </g>
</svg>