<?xml version="1.0" encoding="UTF-8"?>
<svg width="56px" height="56px" viewBox="0 0 56 56" version="1.1" xmlns="http://www.w3.org/2000/svg" xmlns:xlink="http://www.w3.org/1999/xlink">
    <!-- Generator: Sketch 52.4 (67378) - http://www.bohemiancoding.com/sketch -->
    <title>核心1</title>
    <desc>Created with Sketch.</desc>
    <g id="杂项" stroke="none" stroke-width="1" fill="none" fill-rule="evenodd">
        <g id="核心1">
            <circle id="Oval-13" fill="#DBF2FF" cx="28" cy="28" r="28"></circle>
            <g transform="translate(18.000000, 14.000000)">
                <path d="M1.78125,0 L19.21875,0 C20.2025072,-1.80713268e-16 21,0.797492789 21,1.78125 L21,26.21875 C21,27.2025072 20.2025072,28 19.21875,28 L1.78125,28 C0.797492789,28 1.20475512e-16,27.2025072 0,26.21875 L0,1.78125 C-1.20475512e-16,0.797492789 0.797492789,1.80713268e-16 1.78125,0 Z" id="Rectangle-3" fill="#2A9FE4"></path>
                <path d="M3.00079346,4.26405458 L18.0007935,4.26405458 C18.5530782,4.26405458 19.0007935,4.71176983 19.0007935,5.26405458 L19.0007935,24.7359454 C19.0007935,25.2882302 18.5530782,25.7359454 18.0007935,25.7359454 L3.00079346,25.7359454 C2.44850871,25.7359454 2.00079346,25.2882302 2.00079346,24.7359454 L2.00079346,5.26405458 C2.00079346,4.71176983 2.44850871,4.26405458 3.00079346,4.26405458 Z" id="Rectangle-3" fill="#FFFFFF"></path>
                <path d="M7,1 L13.90625,1 C14.4585347,1 14.90625,1.44771525 14.90625,2 L14.90625,2 C14.90625,2.55228475 14.4585347,3 13.90625,3 L7,3 C6.44771525,3 6,2.55228475 6,2 L6,2 C6,1.44771525 6.44771525,1 7,1 Z" id="Rectangle-4-Copy" fill="#07669D"></path>
                <g id="Group-23" opacity="0.6" transform="translate(3.000000, 6.000000)" fill="#E9F9FF">
                    <rect id="Rectangle-20" x="0" y="0" width="15" height="2" rx="1"></rect>
                    <rect id="Rectangle-20" x="0" y="4" width="4" height="2" rx="1"></rect>
                    <rect id="Rectangle-20-Copy" x="11" y="4" width="4" height="2" rx="1"></rect>
                    <rect id="Rectangle-20-Copy-2" x="11" y="8" width="4" height="2" rx="1"></rect>
                    <rect id="Rectangle-20" x="0" y="8" width="4" height="2" rx="1"></rect>
                    <rect id="Rectangle-20" x="0" y="12" width="4" height="2" rx="1"></rect>
                    <rect id="Rectangle-20-Copy-3" x="11" y="12" width="4" height="2" rx="1"></rect>
                    <rect id="Rectangle-20" x="0" y="16" width="15" height="2" rx="1"></rect>
                </g>
                <text id="I" font-family="Arial-Black, Arial Black" font-size="14" font-weight="700" line-spacing="14" fill="#C7EAFF">
                    <tspan x="7" y="22">I</tspan>
                </text>
            </g>
        </g>
    </g>
</svg>