<?xml version="1.0" encoding="UTF-8"?>
<svg width="56px" height="56px" viewBox="0 0 56 56" version="1.1" xmlns="http://www.w3.org/2000/svg" xmlns:xlink="http://www.w3.org/1999/xlink">
    <!-- Generator: Sketch 52.4 (67378) - http://www.bohemiancoding.com/sketch -->
    <title>阅读@0.5x</title>
    <desc>Created with Sketch.</desc>
    <g id="杂项" stroke="none" stroke-width="1" fill="none" fill-rule="evenodd">
        <g id="阅读">
            <path d="M28,0 L28,0 C43.463973,-2.84068575e-15 56,12.536027 56,28 L56,28 C56,43.463973 43.463973,56 28,56 L28,56 C12.536027,56 1.8937905e-15,43.463973 0,28 L0,28 C-1.8937905e-15,12.536027 12.536027,2.84068575e-15 28,0 Z" id="Mask" fill="#FFF5E3"></path>
            <g transform="translate(13.000000, 16.000000)">
                <path d="M1.88434066,1.29576595 L14.9837536,1.29576595 L14.9837536,24.2290483 L12.2594347,24.2290483 L10.8972753,23.5920127 L1.88434066,23.5920127 C0.84364805,23.5920127 1.27839906e-14,22.7483646 1.26565425e-14,21.707672 L0,3.18010661 C-1.27448087e-16,2.139414 0.84364805,1.29576595 1.88434066,1.29576595 Z" id="Rectangle-7" fill="#D78A0B"></path>
                <path d="M16.8680942,1.29576595 L29.9675071,1.29576595 L29.9675071,24.2290483 L27.2431883,24.2290483 L25.8810289,23.5920127 L16.8680942,23.5920127 C15.8274016,23.5920127 14.9837536,22.7483646 14.9837536,21.707672 L14.9837536,3.18010661 C14.9837536,2.139414 15.8274016,1.29576595 16.8680942,1.29576595 Z" id="Rectangle-7-Copy-3" fill="#D78A0B" transform="translate(22.475630, 12.762407) scale(-1, 1) translate(-22.475630, -12.762407) "></path>
                <path d="M1.4576977,1.84411895 L2.38377897,0.621257649 L27.5837281,0.621257649 L28.5098094,1.84411895 C28.5717995,1.92597494 28.6053477,2.02584322 28.6053477,2.12852319 L28.6053477,21.7344382 C28.6053477,21.9946114 28.3944357,22.2055234 28.1342625,22.2055234 L19.0702318,22.2055234 L17.7080724,22.8800317 L12.2594347,22.8800317 L10.8972753,22.2055234 L1.83324458,22.2055234 C1.57307143,22.2055234 1.36215941,21.9946114 1.36215941,21.7344382 L1.36215941,2.12852319 C1.36215941,2.02584322 1.39570759,1.92597494 1.4576977,1.84411895 Z" id="Rectangle-7-Copy-2" fill="#D78A0B"></path>
                <path d="M2.85486414,0.621257649 L27.112643,0.621257649 C27.3728161,0.621257649 27.5837281,0.832169661 27.5837281,1.09234281 L27.5837281,21.0599299 C27.5837281,21.3201031 27.3728161,21.5310151 27.112643,21.5310151 L19.0702318,21.5310151 C17.4810458,21.5310151 16.1188864,21.9806873 14.9837536,22.8800317 C13.8486207,21.9806873 12.4864613,21.5310151 10.8972753,21.5310151 L2.85486414,21.5310151 C2.59469099,21.5310151 2.38377897,21.3201031 2.38377897,21.0599299 L2.38377897,1.09234281 C2.38377897,0.832169661 2.59469099,0.621257649 2.85486414,0.621257649 Z" id="Rectangle-7-Copy-2" fill="#FAD291"></path>
                <path d="M14.9837536,0.621257649 L27.112643,0.621257649 C27.3728161,0.621257649 27.5837281,0.832169661 27.5837281,1.09234281 L27.5837281,21.0599299 C27.5837281,21.3201031 27.3728161,21.5310151 27.112643,21.5310151 L19.0702318,21.5310151 C17.4810458,21.5310151 16.1188864,21.9806873 14.9837536,22.8800317 C14.9837536,17.9336375 14.9837536,10.5140461 14.9837536,0.621257649 Z" id="Rectangle-7-Copy-2" fill="#F8C26A"></path>
                <g id="Group-26" transform="translate(4.000000, 4.000000)" fill="#FFFFFF">
                    <rect id="Rectangle-19" x="0" y="0" width="9" height="1" rx="0.5"></rect>
                    <rect id="Rectangle-19-Copy-4" x="13" y="0" width="9" height="1" rx="0.5"></rect>
                    <rect id="Rectangle-19-Copy-5" x="13" y="4" width="6" height="1" rx="0.5"></rect>
                    <rect id="Rectangle-19-Copy" x="0" y="4" width="9" height="1" rx="0.5"></rect>
                    <rect id="Rectangle-19-Copy-2" x="0" y="8" width="9" height="1" rx="0.5"></rect>
                    <path d="M0.5,12 L8.7878418,12 C9.06398417,12 9.2878418,12.2238576 9.2878418,12.5 L9.2878418,12.5 C9.2878418,12.7761424 9.06398417,13 8.7878418,13 L0.5,13 C0.223857625,13 3.38176876e-17,12.7761424 0,12.5 L0,12.5 C-3.38176876e-17,12.2238576 0.223857625,12 0.5,12 Z" id="Rectangle-19-Copy-3"></path>
                </g>
            </g>
        </g>
    </g>
</svg>