<?xml version="1.0" encoding="UTF-8"?>
<svg width="26px" height="26px" viewBox="0 0 26 26" version="1.1" xmlns="http://www.w3.org/2000/svg" xmlns:xlink="http://www.w3.org/1999/xlink">
    <!-- Generator: Sketch 52.4 (67378) - http://www.bohemiancoding.com/sketch -->
    <title>会员</title>
    <desc>Created with Sketch.</desc>
    <defs>
        <linearGradient x1="50%" y1="0%" x2="50%" y2="100%" id="linearGradient-1">
            <stop stop-color="#FFE053" offset="0%"></stop>
            <stop stop-color="#FFBE29" offset="100%"></stop>
        </linearGradient>
        <linearGradient x1="50%" y1="0%" x2="50%" y2="103.615663%" id="linearGradient-2">
            <stop stop-color="#FFD745" offset="0%"></stop>
            <stop stop-color="#FF9F22" offset="100%"></stop>
        </linearGradient>
    </defs>
    <g id="课程_学习" stroke="none" stroke-width="1" fill="none" fill-rule="evenodd">
        <g id="1200" transform="translate(-1383.000000, -18.000000)" fill="url(#linearGradient-1)" stroke="url(#linearGradient-2)" stroke-width="1.32631579">
            <g id="导航">
                <g id="会员" transform="translate(1383.000000, 18.000000)">
                    <path d="M22.4322852,11.7432876 L20.3043478,19.7627494 L5.69565217,19.7627494 L3.8190961,11.6720807 C3.60677853,11.7402144 3.38464101,11.7835805 3.15270754,11.7835805 C1.96367636,11.7835805 1,10.8668144 1,9.73326342 C1,8.6027856 1.96365235,7.68601953 3.15270754,7.68601953 C4.34502805,7.68601953 5.30541508,8.6027856 5.30541508,9.73328619 C5.30541508,10.0770735 5.20740759,10.3960931 5.0506244,10.6810118 L8.99671067,12.0747366 L12.3123509,6.98296522 C11.4630326,6.71040761 10.8456478,5.95160339 10.8456478,5.05031708 C10.8456478,3.91983926 11.8093001,3 12.9983553,3 C14.1873865,3 15.1543282,3.91676607 15.1543282,5.05031708 C15.1543282,5.95160339 14.5369434,6.71040761 13.6843598,6.98296522 L17,12.0747366 L20.9068785,10.6128781 C20.7729525,10.3434164 20.6912956,10.0491871 20.6912956,9.73328619 C20.6912956,8.60280836 21.6582133,7.68296911 22.8472925,7.68296911 C24.0363236,7.68296911 25,8.59973517 25,9.73328619 C25,10.86686 24.0363476,11.783626 22.8472925,11.783626 C22.7034265,11.783535 22.5662112,11.7680325 22.4322852,11.7432876 Z M18.4764973,24 L7.52350266,24 C7.06208193,24 6.6594318,23.6870371 6.54556144,23.2398876 L6.2173913,21.9512195 L19.7826087,21.9512195 L19.4544386,23.2398876 C19.3405682,23.6870371 18.9379181,24 18.4764973,24 Z" id="Combined-Shape"></path>
                </g>
            </g>
        </g>
    </g>
</svg>