<?xml version="1.0" encoding="UTF-8"?>
<svg width="56px" height="56px" viewBox="0 0 56 56" version="1.1" xmlns="http://www.w3.org/2000/svg" xmlns:xlink="http://www.w3.org/1999/xlink">
    <!-- Generator: Sketch 52.4 (67378) - http://www.bohemiancoding.com/sketch -->
    <title>写作@0.5x</title>
    <desc>Created with Sketch.</desc>
    <g id="杂项" stroke="none" stroke-width="1" fill="none" fill-rule="evenodd">
        <g id="写作">
            <rect id="Mask" fill="#FFF5E3" x="0" y="0" width="56" height="56" rx="28"></rect>
            <g id="pen" transform="translate(37.316229, 17.550426)">
                <polygon id="Rectangle-10-Copy" fill="#F8C26A" points="1.53025568 10.5205078 1.53025568 11.1581143 0 11.1581143 0 10.5205078"></polygon>
                <path d="M1.27521307,22.882069 L1.27521307,23.4001598 C1.27521307,23.6818721 1.04684013,23.910245 0.765127841,23.910245 L0.765127841,23.910245 C0.483415549,23.910245 0.255042614,23.6818721 0.255042614,23.4001598 L0.255042614,22.882069 L1.27521307,22.882069 Z" id="Rectangle-10-Copy-3" fill="#F5A623"></path>
                <path d="M1.53025568,22.3162287 L1.53025568,22.5538352 C1.53025568,22.7747491 1.35116958,22.9538352 1.13025568,22.9538352 L0.4,22.9538352 C0.1790861,22.9538352 2.705415e-17,22.7747491 0,22.5538352 L0,22.3162287 L1.53025568,22.3162287 Z" id="Rectangle-10-Copy" fill="#F8C26A"></path>
                <path d="M0.958374829,0.724676205 L1.53025568,2.8692294 L1.53025568,10.5205078 L0,10.5205078 L0,2.8692294 L0.571880853,0.724676205 C0.600341483,0.61794884 0.709933007,0.554501116 0.816660371,0.582961747 C0.885866179,0.601416629 0.939919947,0.655470397 0.958374829,0.724676205 Z" id="Rectangle-10-Copy" fill="#F5A623"></path>
                <polygon id="Rectangle-10-Copy-2" fill="#F5A623" points="1.53025568 10.8393111 1.53025568 20.0846058 1.7852983 20.0846058 1.7852983 15.6213601 2.29538352 14.6649503 2.29538352 20.7222124 1.7852983 21.3598189 1.53025568 21.3598189 1.53025568 22.3162287 6.67910171e-13 22.3162287 6.67910171e-13 10.8393111"></polygon>
            </g>
            <g id="Group" transform="translate(15.000000, 15.000000)">
                <path d="M2.80546875,0 L3.18803267,0 L3.18803267,26.7794744 L2.80546875,26.7794744 C1.25605114,26.7794744 6.33838141e-16,25.5234233 4.4408921e-16,23.9740057 L4.4408921e-16,2.80546875 C2.54340279e-16,1.25605114 1.25605114,1.61689103e-15 2.80546875,1.33226763e-15 Z" id="Rectangle" fill="#F5A623"></path>
                <path d="M3.8256392,0 L15.0900213,0 C17.672384,-4.74372328e-16 19.7658026,2.09341857 19.7658026,4.67578125 L19.7658026,22.1036932 C19.7658026,24.6860559 17.672384,26.7794744 15.0900213,26.7794744 L3.8256392,26.7794744 L3.8256392,0 Z" id="Rectangle-Copy" fill="#F5A623"></path>
                <rect id="Rectangle-11" fill="#FFFFFF" x="3.8256392" y="10.2017045" width="15.9401634" height="5.73845881" rx="2.80546875"></rect>
            </g>
        </g>
    </g>
</svg>