<?xml version="1.0" encoding="UTF-8"?>
<svg width="18px" height="18px" viewBox="0 0 18 18" version="1.1" xmlns="http://www.w3.org/2000/svg" xmlns:xlink="http://www.w3.org/1999/xlink">
    <!-- Generator: Sketch 52.4 (67378) - http://www.bohemiancoding.com/sketch -->
    <title>会员-小</title>
    <desc>Created with Sketch.</desc>
    <defs>
        <linearGradient x1="50%" y1="0%" x2="50%" y2="100%" id="linearGradient-1">
            <stop stop-color="#FFE053" offset="0%"></stop>
            <stop stop-color="#FFBE29" offset="100%"></stop>
        </linearGradient>
        <linearGradient x1="50%" y1="0%" x2="50%" y2="103.615663%" id="linearGradient-2">
            <stop stop-color="#FFD745" offset="0%"></stop>
            <stop stop-color="#FF9F22" offset="100%"></stop>
        </linearGradient>
    </defs>
    <g id="课程_学习" stroke="none" stroke-width="1" fill="none" fill-rule="evenodd">
        <g id="1200" transform="translate(-390.000000, -210.000000)" fill="url(#linearGradient-1)" stroke="url(#linearGradient-2)">
            <g id="会员" transform="translate(390.000000, 210.000000)">
                <path d="M15.3052225,8.08801903 L13.8865976,13.5870786 L4.14746718,13.5870786 L2.8964298,8.03919145 C2.75488475,8.08591171 2.60679307,8.11564846 2.45217076,8.11564846 C1.65948331,8.11564846 1.0170324,7.48700887 1.0170324,6.70971674 C1.0170324,5.93453195 1.6594673,5.30589236 2.45217076,5.30589236 C3.2470511,5.30589236 3.88730912,5.93453195 3.88730912,6.70973235 C3.88730912,6.9454722 3.82197079,7.16422854 3.71744867,7.35960133 L6.34817285,8.31529835 L8.55859965,4.82379797 C7.99238747,4.63690132 7.5807976,4.11657843 7.5807976,3.49855354 C7.5807976,2.72336874 8.2232325,2.09262182 9.01593596,2.09262182 C9.80862341,2.09262182 10.4532512,2.72126141 10.4532512,3.49855354 C10.4532512,4.11657843 10.0416613,4.63690132 9.47327226,4.82379797 L11.6836991,8.31529835 L14.2882847,7.31288107 C14.1990007,7.12810736 14.1445628,6.92635014 14.1445628,6.70973235 C14.1445628,5.93454756 14.7891746,5.30380064 15.581894,5.30380064 C16.3745815,5.30380064 17.0170324,5.93244023 17.0170324,6.70973235 C17.0170324,7.48704009 16.3745975,8.11567968 15.581894,8.11567968 C15.4859834,8.11561724 15.3945065,8.10498693 15.3052225,8.08801903 Z M12.4011733,16.4926218 L5.63289152,16.4926218 C5.16896776,16.4926218 4.76480878,16.1763235 4.65331479,15.7259966 L4.49529327,15.0877438 L13.5387715,15.0877438 L13.38075,15.7259966 C13.269256,16.1763235 12.865097,16.4926218 12.4011733,16.4926218 Z" id="Combined-Shape"></path>
            </g>
        </g>
    </g>
</svg>