<?xml version="1.0" encoding="UTF-8"?>
<svg width="56px" height="56px" viewBox="0 0 56 56" version="1.1" xmlns="http://www.w3.org/2000/svg" xmlns:xlink="http://www.w3.org/1999/xlink">
    <!-- Generator: Sketch 52.4 (67378) - http://www.bohemiancoding.com/sketch -->
    <title>Group 28@0.5x</title>
    <desc>Created with Sketch.</desc>
    <g id="杂项" stroke="none" stroke-width="1" fill="none" fill-rule="evenodd">
        <g id="Group-28">
            <rect id="Mask" fill="#FFF5E3" x="0" y="0" width="56" height="56" rx="28"></rect>
            <g id="语法" transform="translate(16.000000, 13.000000)">
                <rect id="Mask" fill="#FFFFFF" x="7.125" y="0" width="10.6875" height="15.9011262" rx="5.34375"></rect>
                <polygon id="Rectangle-17-Copy" fill="#F5A623" points="9.796875 15.140625 15.140625 15.140625 15.140625 20.0332792 9.796875 20.0332792"></polygon>
                <path d="M11.8989524,18.7204748 C11.8989524,17.7011719 11.8989524,16.6818689 11.8989524,15.6625659 C11.6379523,14.3449501 10.6875,14.4394024 10.6875,12.6046571 C10.6875,11.1776329 10.6875,9.36891234 10.6875,7.17849533 C10.6875,6.16519347 11.5010786,5.34375 12.5046786,5.34375 C13.5082787,5.34375 14.3218572,6.16519347 14.3218572,7.17849533 C14.3218572,9.54198149 14.3218572,11.3507021 14.3218572,12.6046571 C14.3218572,14.4855896 13.39272,14.2486844 13.1104048,15.6625659 C13.1104048,16.2741477 13.1104048,17.2934507 13.1104048,18.7204748" id="Rectangle-17-Copy-6" stroke="#F5A623" stroke-width="0.57"></path>
                <rect id="Rectangle-17-Copy-2" fill="#FAD291" x="8.015625" y="18.703125" width="8.90625" height="1.83474533" rx="0.917372666"></rect>
                <path d="M9.12890625,20.484375 L15.8085938,20.484375 C15.8085938,20.9685439 15.8085938,21.7839863 15.8085938,22.9307021 C15.8085938,24.0774179 16.1796875,25.0967209 16.921875,25.988611 L8.015625,25.988611 C8.7578125,25.0967209 9.12890625,24.0774179 9.12890625,22.9307021 C9.12890625,21.7839863 9.12890625,20.9685439 9.12890625,20.484375 Z" id="Rectangle-17-Copy-3" fill="#F5A623"></path>
                <path d="M5.67628856,25.828125 L18.9788428,25.828125 C19.6543774,25.828125 20.2020064,26.375754 20.2020064,27.0512886 L4.453125,27.0512886 L4.453125,27.0512886 C4.453125,26.375754 5.00075398,25.828125 5.67628856,25.828125 Z" id="Rectangle-17-Copy-4" fill="#FAD291"></path>
                <rect id="Rectangle-17-Copy-5" fill="#F5A623" x="0" y="27" width="24.2290483" height="2.44632711"></rect>
            </g>
        </g>
    </g>
</svg>