<?xml version="1.0" encoding="UTF-8"?>
<svg width="56px" height="56px" viewBox="0 0 56 56" version="1.1" xmlns="http://www.w3.org/2000/svg" xmlns:xlink="http://www.w3.org/1999/xlink">
    <!-- Generator: Sketch 52.4 (67378) - http://www.bohemiancoding.com/sketch -->
    <title>听力@0.5x</title>
    <desc>Created with Sketch.</desc>
    <g id="杂项" stroke="none" stroke-width="1" fill="none" fill-rule="evenodd">
        <g id="听力">
            <rect id="Mask" fill="#FFF5E3" x="0" y="0" width="56" height="56" rx="28"></rect>
            <g transform="translate(17.000000, 13.000000)">
                <path d="M8.76601207,0.654035278 L13.779755,0.654035278 C16.3269036,0.654035278 18.3917756,2.71890723 18.3917756,5.26605587 L18.3917756,7.95798532 C18.3917756,10.505134 16.3269036,12.5700059 13.779755,12.5700059 L8.76601207,12.5700059 C6.21886343,12.5700059 4.15399148,10.505134 4.15399148,7.95798532 L4.15399148,5.26605587 C4.15399148,2.71890723 6.21886343,0.654035278 8.76601207,0.654035278 Z" id="Rectangle-6-Copy-2" stroke="#FAD291" stroke-width="2"></path>
                <rect id="Rectangle-6" fill="#FAD291" x="0" y="4.63544034" width="22.545767" height="24.8339571" rx="1.840625"></rect>
                <path d="M19.8848224,25.7189631 L19.9018253,25.7189631 C20.629582,25.7189631 21.2195455,26.3089265 21.2195455,27.0366832 L21.2195455,27.0366832 C21.2195455,27.76444 20.629582,28.3544034 19.9018253,28.3544034 L19.8848224,28.3544034 C19.1570657,28.3544034 18.5671023,27.76444 18.5671023,27.0366832 L18.5671023,27.0366832 C18.5671023,26.3089265 19.1570657,25.7189631 19.8848224,25.7189631 Z" id="Rectangle-6-Copy-3" fill="#FFFFFF"></path>
                <path d="M2.64394176,25.7189631 L2.6609446,25.7189631 C3.38870136,25.7189631 3.97866477,26.3089265 3.97866477,27.0366832 L3.97866477,27.0366832 C3.97866477,27.76444 3.38870136,28.3544034 2.6609446,28.3544034 L2.64394176,28.3544034 C1.91618501,28.3544034 1.32622159,27.76444 1.32622159,27.0366832 L1.32622159,27.0366832 C1.32622159,26.3089265 1.91618501,25.7189631 2.64394176,25.7189631 Z" id="Rectangle-6-Copy-4" fill="#FFFFFF"></path>
                <path d="M11.5,11 L11.5,11 C15.6421356,11 19,14.3578644 19,18.5 L19,18.5 C19,22.6421356 15.6421356,26 11.5,26 L11.5,26 C7.35786438,26 4,22.6421356 4,18.5 L4,18.5 C4,14.3578644 7.35786438,11 11.5,11 Z" id="Rectangle-6" fill="#F5A623"></path>
                <rect id="Rectangle-6-Copy" fill="#FFFFFF" x="1.98933239" y="6.6120206" width="18.5671023" height="1.97658026" rx="0.9203125"></rect>
            </g>
        </g>
    </g>
</svg>