<?xml version="1.0" encoding="UTF-8"?>
<svg width="32px" height="42px" viewBox="0 0 32 42" version="1.1" xmlns="http://www.w3.org/2000/svg" xmlns:xlink="http://www.w3.org/1999/xlink">
    <!-- Generator: Sketch 52.4 (67378) - http://www.bohemiancoding.com/sketch -->
    <title>学习指南</title>
    <desc>Created with Sketch.</desc>
    <g id="课程_学习" stroke="none" stroke-width="1" fill="none" fill-rule="evenodd">
        <g id="1200" transform="translate(-489.000000, -533.000000)">
            <g id="Group-4" transform="translate(477.000000, 533.000000)">
                <g id="学习指南" transform="translate(13.000000, 3.000000)">
                    <path d="M27,30 L27,5 C27,3.8954305 26.1045695,3 25,3 L5,3 L5,2 C5,0.8954305 5.8954305,2.02906125e-16 7,0 L28,0 C29.1045695,-2.02906125e-16 30,0.8954305 30,2 L30,28 C30,29.1045695 29.1045695,30 28,30 L27,30 Z" id="合并形状" fill="#C8EAFD"></path>
                    <path d="M2,5 L23,5 C24.1045695,5 25,5.8954305 25,7 L25,34 C25,35.1045695 24.1045695,36 23,36 L2,36 C0.8954305,36 2.09738034e-15,35.1045695 0,34 L0,7 C-1.3527075e-16,5.8954305 0.8954305,5 2,5 Z" id="矩形" fill="#C8EAFD"></path>
                    <rect id="矩形" fill="#87CDF5" x="3" y="13" width="14" height="3" rx="1.5"></rect>
                    <rect id="矩形" fill="#87CDF5" x="3" y="19" width="14" height="3" rx="1.5"></rect>
                </g>
            </g>
        </g>
    </g>
</svg>