<?xml version="1.0" encoding="UTF-8"?>
<svg width="22px" height="22px" viewBox="0 0 22 22" version="1.1" xmlns="http://www.w3.org/2000/svg" xmlns:xlink="http://www.w3.org/1999/xlink">
    <!-- Generator: Sketch 52.4 (67378) - http://www.bohemiancoding.com/sketch -->
    <title>微信支付</title>
    <desc>Created with Sketch.</desc>
    <g id="页面-1" stroke="none" stroke-width="1" fill="none" fill-rule="evenodd">
        <g id="提示弹框-copy-3" transform="translate(-195.000000, -309.000000)" fill-rule="nonzero">
            <g id="分组-3" transform="translate(159.000000, 273.000000)">
                <g id="微信支付" transform="translate(37.000000, 37.000000)">
                    <rect id="矩形" stroke="#FFFFFF" stroke-width="1.42857143" fill="#61B005" x="0" y="0" width="20" height="20" rx="3.80952381"></rect>
                    <path d="M11.6195537,9.99102844 C11.3397053,9.99102844 11.0596884,10.2301872 11.0596884,10.5252551 C11.0596884,10.7643673 11.3397053,11.0048764 11.6195537,11.0048764 C12.0399663,11.0048764 12.3399579,10.7643673 12.3399579,10.5252551 C12.3399916,10.2301872 12.0399663,9.99102844 11.6195537,9.99102844 M9.77973895,7.5021821 C10.21984,7.5021821 10.4997558,7.24425761 10.4997558,6.85695955 C10.4997558,6.45136138 10.2198737,6.21220266 9.77973895,6.21220266 C9.35989895,6.21220266 8.95969684,6.45136138 8.95969684,6.85695955 C8.95968,7.24424209 9.35989895,7.5021821 9.77973895,7.5021821 M7.67974737,12.8661639 C6.93965474,12.8661639 6.39962947,12.7556182 5.69962105,12.5711115 L3.67971368,13.5109053 L4.26005895,11.9263391 C2.83979789,11.0048764 2,9.84287359 2,8.42379998 C2,5.91715021 4.55979789,4 7.67974737,4 C10.4398989,4 12.8998568,5.51158309 13.3797053,7.6497316 C13.1798905,7.61272781 12.9999832,7.59455187 12.8398989,7.59455187 C10.1197474,7.59455187 8.02000842,9.47499321 8.02000842,11.7417237 C8.02000842,12.1291459 8.08,12.4787107 8.17985684,12.8478793 C8.02000842,12.8661639 7.83983158,12.8661639 7.67974737,12.8661639 M16.0200084,14.6728926 L16.4196884,16 L14.8997221,15.2071038 C14.3197137,15.3175098 13.7597979,15.4839803 13.1798905,15.4839803 C10.4997558,15.4839803 8.37962105,13.7876421 8.37962105,11.6860007 C8.37962105,9.58556997 10.4997221,7.88960433 13.1798905,7.88960433 C15.7198147,7.88960433 18,9.58556997 18,11.6860007 C18,12.8661639 17.1400758,13.9163638 16.0200084,14.6728926 M5.81999158,6.21220266 C5.4,6.21220266 4.95993263,6.45136138 4.95993263,6.85695955 C4.95993263,7.24424209 5.40001684,7.5021821 5.81999158,7.5021821 C6.21980632,7.5021821 6.53999158,7.24425761 6.53999158,6.85695955 C6.53999158,6.45136138 6.21968842,6.21220266 5.81999158,6.21220266 M14.7597979,9.99102844 C14.4596547,9.99102844 14.1998821,10.2301872 14.1998821,10.5252551 C14.1998821,10.7643673 14.4596547,11.0048764 14.7597979,11.0048764 C15.1599326,11.0048764 15.4600758,10.7643673 15.4600758,10.5252551 C15.4600758,10.2301872 15.1599326,9.99102844 14.7597979,9.99102844" id="形状" fill="#FFFFFF"></path>
                </g>
            </g>
        </g>
    </g>
</svg>