<?xml version="1.0" encoding="UTF-8"?>
<svg width="90px" height="90px" viewBox="0 0 90 90" version="1.1" xmlns="http://www.w3.org/2000/svg" xmlns:xlink="http://www.w3.org/1999/xlink">
    <!-- Generator: Sketch 52.4 (67378) - http://www.bohemiancoding.com/sketch -->
    <title>支付宝</title>
    <desc>Created with Sketch.</desc>
    <g id="页面-1" stroke="none" stroke-width="1" fill="none" fill-rule="evenodd">
        <g id="提示弹框-copy-3" transform="translate(-312.000000, -275.000000)">
            <g id="支付宝" transform="translate(312.000000, 275.000000)">
                <rect id="矩形-copy-2" stroke-opacity="0.5" stroke="#28A2E9" fill-rule="nonzero" x="0.5" y="0.5" width="89" height="89" rx="6"></rect>
                <rect id="矩形-copy-2" fill="#28A2E9" fill-rule="nonzero" x="29" y="15" width="32" height="32" rx="5"></rect>
                <text font-family="MFLangQian_Noncommercial-Regular, MF LangQian (Noncommercial)" font-size="14" font-weight="normal" letter-spacing="1.10000002" fill="#012134">
                    <tspan x="23" y="68">支付</tspan>
                    <tspan x="53.2" y="68">宝</tspan>
                </text>
                <text id="ALIPAY" font-family="DINAlternate-Bold, DIN Alternate" font-size="12" font-weight="bold" letter-spacing="1.62" fill="#012134">
                    <tspan x="23" y="82">ALIPA</tspan>
                    <tspan x="61.7269531" y="82">Y</tspan>
                </text>
                <path d="M50.9154066,33.7500553 C52.8627736,30.3124654 53.5582899,27.0124599 53.5582899,27.0124599 L53.2105877,27.0124599 L50.2200583,27.0124599 L47.0904312,27.0124599 L47.0904312,24.6750747 L54.7406059,24.6750747 L54.7406059,23.6437175 L47.0904312,23.6437175 L47.0904312,20 L43.612934,20 L43.612934,23.6437175 L36.6580517,23.6437175 L36.6580517,24.6750747 L43.612934,24.6750747 L43.612934,27.0812797 L37.6317352,27.0812797 L37.6317352,28.1124986 L49.6636117,28.1124986 C49.6636117,28.3187645 49.6636117,28.3187645 49.4549233,28.4561275 C49.4549233,29.693806 48.5509425,31.4125318 47.8553983,32.787601 C38.9532049,29.3499557 36.3798284,31.4126148 35.6843681,31.7562438 C29.7728161,35.8813406 35.336694,41.037601 36.2408427,40.9001549 C42.5001809,42.2750581 46.5338727,39.6624765 49.3158816,36.4313185 C49.5245421,36.6376121 49.6636117,36.6376121 49.8722442,36.6376121 C51.8195553,37.6688309 61,42 61,42 L61,36.8439057 C59.6090235,36.7062382 54.5319734,34.9874848 50.9154066,33.7500553 Z M46.394887,35.331169 C42.0133811,40.8312797 36.7972053,39.1125539 35.9627034,38.7688143 C33.8762107,38.2187258 33.1806944,34.4375346 35.7540429,33.268759 C40.1355488,31.8937728 43.9607481,33.4749419 46.7425891,34.8500111 C46.5339007,35.1249308 46.394887,35.331169 46.394887,35.331169 Z" id="形状" fill="#FFFFFF" fill-rule="nonzero"></path>
            </g>
        </g>
    </g>
</svg>