<?xml version="1.0" encoding="UTF-8"?>
<svg width="126px" height="126px" viewBox="0 0 126 126" version="1.1" xmlns="http://www.w3.org/2000/svg" xmlns:xlink="http://www.w3.org/1999/xlink">
    <!-- Generator: Sketch 52.4 (67378) - http://www.bohemiancoding.com/sketch -->
    <title>支付宝</title>
    <desc>Created with Sketch.</desc>
    <g id="个人学习中心" stroke="none" stroke-width="1" fill="none" fill-rule="evenodd">
        <g id="移动APP产品介绍及下载页-Copy-3" transform="translate(-996.000000, -477.000000)">
            <g id="支付宝" transform="translate(996.000000, 477.000000)">
                <rect id="矩形-copy-2" stroke-opacity="0.5" stroke="#28A2E9" stroke-width="1.40000044" fill-rule="nonzero" x="0.700000219" y="0.700000219" width="124.6" height="124.6" rx="2.8"></rect>
                <rect id="矩形-copy-2" fill="#28A2E9" fill-rule="nonzero" x="40.6" y="21" width="44.8" height="44.8" rx="7"></rect>
                <text font-family="MFLangQian_Noncommercial-Regular, MF LangQian (Noncommercial)" font-size="19.6" font-weight="normal" letter-spacing="1.5400001" fill="#012134">
                    <tspan x="32.2" y="95.4">支付</tspan>
                    <tspan x="74.4800002" y="95.4">宝</tspan>
                </text>
                <text id="ALIPAY" font-family="DINAlternate-Bold, DIN Alternate" font-size="16.8" font-weight="bold" letter-spacing="2.26800006" fill="#012134">
                    <tspan x="32.2" y="115.4">ALIPA</tspan>
                    <tspan x="86.4177347" y="115.4">Y</tspan>
                </text>
                <path d="M71.2815692,47.2500774 C74.0078831,42.4374515 74.9816058,37.8174438 74.9816058,37.8174438 L74.4948228,37.8174438 L70.3080816,37.8174438 L65.9266037,37.8174438 L65.9266037,34.5451046 L76.6368482,34.5451046 L76.6368482,33.1012045 L65.9266037,33.1012045 L65.9266037,28 L61.0581076,28 L61.0581076,33.1012045 L51.3212723,33.1012045 L51.3212723,34.5451046 L61.0581076,34.5451046 L61.0581076,37.9137916 L52.6844293,37.9137916 L52.6844293,39.3574981 L69.5290564,39.3574981 C69.5290564,39.6462703 69.5290564,39.6462703 69.2368926,39.8385786 C69.2368926,41.5713284 67.9713195,43.9775445 66.9975576,45.9026414 C54.5344868,41.089938 50.9317597,43.9776607 49.9581154,44.4587413 C41.6819425,50.2338769 49.4713716,57.4526413 50.7371798,57.2602169 C59.5002532,59.1850813 65.1474217,55.5274671 69.0422342,51.0038459 C69.3343589,51.2926569 69.5290564,51.2926569 69.8211419,51.2926569 C72.5473774,52.7363633 85.4,58.8 85.4,58.8 L85.4,51.5814679 C83.4526329,51.3887335 76.3447628,48.9824787 71.2815692,47.2500774 Z M64.9528418,49.4636367 C58.8187335,57.1637916 51.5160874,54.7575755 50.3477847,54.27634 C47.4266949,53.5062161 46.4529722,48.2125484 50.0556601,46.5762626 C56.1897684,44.6512819 61.5450474,46.8649186 65.4396248,48.7900155 C65.1474609,49.1749031 64.9528418,49.4636367 64.9528418,49.4636367 Z" id="形状" fill="#FFFFFF" fill-rule="nonzero"></path>
            </g>
        </g>
    </g>
</svg>