<?xml version="1.0" encoding="UTF-8"?>
<svg width="98px" height="98px" viewBox="0 0 98 98" version="1.1" xmlns="http://www.w3.org/2000/svg" xmlns:xlink="http://www.w3.org/1999/xlink">
    <!-- Generator: Sketch 52.4 (67378) - http://www.bohemiancoding.com/sketch -->
    <title>支付宝</title>
    <desc>Created with Sketch.</desc>
    <g id="页面-1" stroke="none" stroke-width="1" fill="none" fill-rule="evenodd">
        <g id="电台付费" transform="translate(-371.000000, -596.000000)">
            <g id="提示弹框-copy" transform="translate(68.000000, 313.000000)">
                <g id="支付宝" transform="translate(303.000000, 283.000000)">
                    <rect id="矩形-copy-2" stroke="#28A2E9" fill="#40B2F5" fill-rule="nonzero" x="0.5" y="0.5" width="97" height="97" rx="5"></rect>
                    <rect id="矩形-copy-2" fill="#FFFFFF" fill-rule="nonzero" x="33" y="17" width="32" height="32" rx="6.58823529"></rect>
                    <text font-family="MFLangQian_Noncommercial-Regular, MF LangQian (Noncommercial)" font-size="14" font-weight="normal" letter-spacing="1.10000002" fill="#012134">
                        <tspan x="27" y="70">支付</tspan>
                        <tspan x="57.2" y="70">宝</tspan>
                    </text>
                    <text id="ALIPAY" font-family="DINAlternate-Bold, DIN Alternate" font-size="12" font-weight="bold" letter-spacing="1.62" fill="#1B5A82">
                        <tspan x="27" y="84">ALIPA</tspan>
                        <tspan x="65.7269531" y="84">Y</tspan>
                    </text>
                    <path d="M54.9154066,35.7500553 C56.8627736,32.3124654 57.5582899,29.0124599 57.5582899,29.0124599 L57.2105877,29.0124599 L54.2200583,29.0124599 L51.0904312,29.0124599 L51.0904312,26.6750747 L58.7406059,26.6750747 L58.7406059,25.6437175 L51.0904312,25.6437175 L51.0904312,22 L47.612934,22 L47.612934,25.6437175 L40.6580517,25.6437175 L40.6580517,26.6750747 L47.612934,26.6750747 L47.612934,29.0812797 L41.6317352,29.0812797 L41.6317352,30.1124986 L53.6636117,30.1124986 C53.6636117,30.3187645 53.6636117,30.3187645 53.4549233,30.4561275 C53.4549233,31.693806 52.5509425,33.4125318 51.8553983,34.787601 C42.9532049,31.3499557 40.3798284,33.4126148 39.6843681,33.7562438 C33.7728161,37.8813406 39.336694,43.037601 40.2408427,42.9001549 C46.5001809,44.2750581 50.5338727,41.6624765 53.3158816,38.4313185 C53.5245421,38.6376121 53.6636117,38.6376121 53.8722442,38.6376121 C55.8195553,39.6688309 65,44 65,44 L65,38.8439057 C63.6090235,38.7062382 58.5319734,36.9874848 54.9154066,35.7500553 Z M50.394887,37.331169 C46.0133811,42.8312797 40.7972053,41.1125539 39.9627034,40.7688143 C37.8762107,40.2187258 37.1806944,36.4375346 39.7540429,35.268759 C44.1355488,33.8937728 47.9607481,35.4749419 50.7425891,36.8500111 C50.5339007,37.1249308 50.394887,37.331169 50.394887,37.331169 Z" id="形状" fill="#2A9FE4" fill-rule="nonzero"></path>
                </g>
            </g>
        </g>
    </g>
</svg>