<?xml version="1.0" encoding="UTF-8"?>
<svg width="42px" height="42px" viewBox="0 0 42 42" version="1.1" xmlns="http://www.w3.org/2000/svg" xmlns:xlink="http://www.w3.org/1999/xlink">
    <!-- Generator: Sketch 54.1 (76490) - https://sketchapp.com -->
    <title>4@1x</title>
    <desc>Created with Sketch.</desc>
    <defs>
        <rect id="path-1" x="0" y="0" width="34" height="34" rx="17"></rect>
        <filter x="-20.6%" y="-14.7%" width="141.2%" height="141.2%" filterUnits="objectBoundingBox" id="filter-3">
            <feOffset dx="0" dy="2" in="SourceAlpha" result="shadowOffsetOuter1"></feOffset>
            <feGaussianBlur stdDeviation="2" in="shadowOffsetOuter1" result="shadowBlurOuter1"></feGaussianBlur>
            <feColorMatrix values="0 0 0 0 0.580392157   0 0 0 0 0.31372549   0 0 0 0 0  0 0 0 0.2 0" type="matrix" in="shadowBlurOuter1"></feColorMatrix>
        </filter>
    </defs>
    <g id="个人学习中心" stroke="none" stroke-width="1" fill="none" fill-rule="evenodd">
        <g id="会员详情介绍页" transform="translate(-536.000000, -922.000000)">
            <g id="4" transform="translate(540.000000, 924.000000)">
                <mask id="mask-2" fill="white">
                    <use xlink:href="#path-1"></use>
                </mask>
                <g id="Mask">
                    <use fill="black" fill-opacity="1" filter="url(#filter-3)" xlink:href="#path-1"></use>
                    <use fill="#FFFFFF" fill-rule="evenodd" xlink:href="#path-1"></use>
                </g>
                <g id="Group-2" mask="url(#mask-2)">
                    <g transform="translate(6.800000, 9.633333)">
                        <path d="M17.3923063,0.31875 L12.8153874,0.31875 C11.8747948,0.31875 11.0071365,0.751664419 10.4524835,1.47144565 L10.1999924,1.79910697 L9.94751086,1.47143834 C9.39290037,0.751669149 8.52522819,0.31875 7.58461263,0.31875 L3.00769368,0.31875 C2.46093034,0.31875 2.01875,0.749803128 2.01875,1.27500291 L2.01875,13.0687493 C2.01875,13.5939909 2.46066632,14.0250022 3.00769368,14.0250022 L7.94200854,14.0250022 L8.03434379,14.1129699 C8.61868676,14.6696732 9.39437035,14.98125 10.2,14.98125 C11.0056296,14.98125 11.7813132,14.6696732 12.3656562,14.1129699 L12.4579915,14.0250022 L17.3923063,14.0250022 C17.9391857,14.0250022 18.38125,13.5941313 18.38125,13.0687493 L18.38125,1.27500291 C18.38125,0.749747879 17.9393558,0.31875 17.3923063,0.31875 Z" id="Shape" stroke="#636363" stroke-width="0.6375" fill="#FFFFFF" fill-rule="nonzero"></path>
                        <rect id="Rectangle-8" stroke="#636363" stroke-width="0.566666667" fill="#D8D8D8" fill-rule="evenodd" x="10.143693" y="1.41666667" width="1" height="7.93333333" rx="0.5"></rect>
                        <path d="M19.7597934,7.73030854 L19.7597934,7.71135813 C19.7545603,7.71135813 19.7503181,7.71560032 19.7503181,7.72083333 C19.7503181,7.72606635 19.7545603,7.73030854 19.7597934,7.73030854 Z M19.7597934,6.45530854 L19.7597934,6.43635813 C19.7545603,6.43635813 19.7503181,6.44060032 19.7503181,6.44583333 C19.7503181,6.45106635 19.7545603,6.45530854 19.7597934,6.45530854 Z M20.8751557,5.80833333 C20.9827582,5.99618798 21.0442686,6.2138274 21.0442686,6.44583333 C21.0442686,6.67783927 20.9827582,6.89547868 20.8751557,7.08333333 C20.9827582,7.27118798 21.0442686,7.4888274 21.0442686,7.72083333 C21.0442686,7.95283927 20.9827582,8.17047868 20.8751557,8.35833333 C20.9827582,8.54618798 21.0442686,8.7638274 21.0442686,8.99583333 C21.0442686,9.7052294 20.4691894,10.2803085 19.7597934,10.2803085 L18.0019444,10.2803085 C17.0116135,10.2803085 16.180101,9.53472145 16.0725076,8.55025263 L15.7979582,6.03815346 C15.6814981,4.97255496 16.4509268,4.01430711 17.5165253,3.89784698 C17.5865546,3.89019342 17.6569487,3.88635813 17.727395,3.88635813 L19.7117983,3.88635813 L19.7597934,3.88635813 C20.4691894,3.88635813 21.0442686,4.46143727 21.0442686,5.17083333 C21.0442686,5.40283927 20.9827582,5.62047868 20.8751557,5.80833333 Z" id="Combined-Shape" stroke="#FFFFFF" stroke-width="1.29395041" fill="#FEC62E" fill-rule="evenodd" transform="translate(18.415313, 7.083333) scale(-1, 1) translate(-18.415313, -7.083333) "></path>
                        <path d="M3.32916667,7.73030854 L3.32916667,7.71135813 C3.32393365,7.71135813 3.31969146,7.71560032 3.31969146,7.72083333 C3.31969146,7.72606635 3.32393365,7.73030854 3.32916667,7.73030854 Z M3.32916667,6.45530854 L3.32916667,6.43635813 C3.32393365,6.43635813 3.31969146,6.44060032 3.31969146,6.44583333 C3.31969146,6.45106635 3.32393365,6.45530854 3.32916667,6.45530854 Z M4.44452906,8.35833333 C4.55213152,8.54618798 4.61364187,8.7638274 4.61364187,8.99583333 C4.61364187,9.7052294 4.03856273,10.2803085 3.32916667,10.2803085 L1.57131767,10.2803085 C0.580986818,10.2803085 -0.250525695,9.53472145 -0.358119093,8.55025263 L-0.632668456,6.03815346 C-0.749128583,4.97255496 0.0203000934,4.01430711 1.08589859,3.89784698 C1.15592792,3.89019342 1.22632199,3.88635813 1.29676831,3.88635813 L3.28117158,3.88635813 L3.32916667,3.88635813 C4.03856273,3.88635813 4.61364187,4.46143727 4.61364187,5.17083333 C4.61364187,5.40283927 4.55213152,5.62047868 4.44452906,5.80833333 C4.55213152,5.99618798 4.61364187,6.2138274 4.61364187,6.44583333 C4.61364187,6.67783927 4.55213152,6.89547868 4.44452906,7.08333333 C4.55213152,7.27118798 4.61364187,7.4888274 4.61364187,7.72083333 C4.61364187,7.95283927 4.55213152,8.17047868 4.44452906,8.35833333 Z" id="Combined-Shape" stroke="#FFFFFF" stroke-width="1.29395041" fill="#FEC62E" fill-rule="evenodd"></path>
                    </g>
                </g>
            </g>
        </g>
    </g>
</svg>