<?xml version="1.0" encoding="UTF-8"?>
<svg width="42px" height="42px" viewBox="0 0 42 42" version="1.1" xmlns="http://www.w3.org/2000/svg" xmlns:xlink="http://www.w3.org/1999/xlink">
    <!-- Generator: Sketch 54.1 (76490) - https://sketchapp.com -->
    <title>1@1x</title>
    <desc>Created with Sketch.</desc>
    <defs>
        <rect id="path-1" x="0" y="0" width="34" height="34" rx="17"></rect>
        <filter x="-20.6%" y="-14.7%" width="141.2%" height="141.2%" filterUnits="objectBoundingBox" id="filter-2">
            <feOffset dx="0" dy="2" in="SourceAlpha" result="shadowOffsetOuter1"></feOffset>
            <feGaussianBlur stdDeviation="2" in="shadowOffsetOuter1" result="shadowBlurOuter1"></feGaussianBlur>
            <feColorMatrix values="0 0 0 0 0.580392157   0 0 0 0 0.31372549   0 0 0 0 0  0 0 0 0.2 0" type="matrix" in="shadowBlurOuter1"></feColorMatrix>
        </filter>
        <rect id="path-3" x="0.466666667" y="0.2" width="20" height="20" rx="10"></rect>
    </defs>
    <g id="个人学习中心" stroke="none" stroke-width="1" fill="none" fill-rule="evenodd">
        <g id="会员详情介绍页" transform="translate(-536.000000, -626.000000)">
            <g id="1" transform="translate(540.000000, 628.000000)">
                <g id="Mask">
                    <use fill="black" fill-opacity="1" filter="url(#filter-2)" xlink:href="#path-1"></use>
                    <use fill="#FFFFFF" fill-rule="evenodd" xlink:href="#path-1"></use>
                </g>
                <g id="Page-1" transform="translate(6.533333, 6.800000)">
                    <g id="Group-12">
                        <mask id="mask-4" fill="white">
                            <use xlink:href="#path-3"></use>
                        </mask>
                        <rect stroke="#636363" stroke-width="0.7" x="0.116666667" y="-0.15" width="20.7" height="20.7" rx="10.35"></rect>
                        <path d="M13.2968597,2.22497726 C13.6443055,2.67616782 13.5053365,2.6493788 13.6443055,2.67616782 C14.4014869,2.8227355 14.8662477,2.17180788 15.3692543,2.28173365 C15.569857,2.32559498 15.6921402,2.74500196 15.8658866,3.19619251 C16.0396329,3.64738307 16.5923683,3.53595893 16.5973365,3.72902145 C16.6052106,4.03664105 16.818515,4.50195259 16.4710224,4.95332477 C16.1235298,5.40451532 14.9657054,5.2638957 14.6815807,5.46308791 C14.3043258,5.72770887 11.2781779,4.26275849 13.2970472,6.28587386 C13.500134,6.48933415 14.388832,6.27452258 14.7071248,6.51925611 C16.0893617,7.58173563 16.076285,6.43630098 16.4235902,8.54196284 C16.7708953,10.6476247 16.2249091,11.0735246 16.0760976,11.2492878 C15.2275669,12.2522412 14.8774027,12.2158263 14.7451362,11.9288206 C14.5723273,11.5540923 16.0760976,10.6476247 14.8601078,9.89553449 L13.644118,9.1434443 C13.644118,9.1434443 12.8013523,8.5620773 13.0386072,8.2064645 C13.1724204,8.00577392 13.7151726,7.59367717 12.3254365,6.39039642 C10.9357004,5.18707026 10.3148163,6.75304701 9.62006543,5.24900283 C8.92531456,3.74500405 9.18005186,3.38607667 9.18005186,2.33322304 C9.18005186,1.28041481 9.15450782,1.25140095 9.15450782,1.25140095 C9.15450782,1.25140095 11.0777627,0.28540729 13.4705591,0.871451012 C13.7984602,0.951772647 12.9495546,1.77378671 13.2968597,2.22497726 Z" id="Fill-8" fill="#FEC62E" mask="url(#mask-4)" transform="translate(12.901873, 6.393656) rotate(10.000000) translate(-12.901873, -6.393656) "></path>
                        <path d="M-1.20278708,8.9655695 C-1.20278708,8.9655695 -0.725290557,7.68649539 -0.0509702107,7.65931558 C0.623385785,7.63217031 0.70748421,8.04028185 0.70748421,8.25796205 C0.70748421,8.47567679 0.876001909,8.88392647 1.10070406,8.99271477 C1.32544186,9.10164121 3.09525202,9.31935596 3.62896864,9.42814426 C4.16264961,9.53689802 4.80880644,9.72746749 4.94930321,10.0812539 C5.08976433,10.4350404 4.86502653,10.8976152 4.75258634,11.1697586 C4.64014614,11.4419366 4.52788419,11.4419366 4.83686301,11.795723 C5.14584183,12.1495095 5.56726086,12.1495095 5.79199865,12.4216874 C6.0167008,12.6938654 6.10097748,12.9660088 6.10097748,12.9660088 L6.1852185,13.1837236 C6.1852185,13.1837236 3.23557054,13.020472 1.29727833,11.7141145 C-0.641049532,10.4077225 -1.20278708,8.9655695 -1.20278708,8.9655695" id="Fill-12" fill="#FEC62E" mask="url(#mask-4)" transform="translate(2.491216, 10.420875) rotate(58.000000) translate(-2.491216, -10.420875) "></path>
                        <path d="M12.6331462,13.6009036 C12.3098742,13.7855916 12.3098742,14.2473116 12.5869062,14.4782396 C12.8640742,14.7090316 13.4181382,15.0323036 13.6028262,14.4782396 C13.7875142,13.9240396 12.9564182,13.4162156 12.6331462,13.6009036" id="Path" fill="#FEC62E" mask="url(#mask-4)" transform="translate(13.006935, 14.173207) rotate(120.000000) translate(-13.006935, -14.173207) "></path>
                    </g>
                </g>
            </g>
        </g>
    </g>
</svg>