<?xml version="1.0" encoding="UTF-8"?>
<svg width="42px" height="42px" viewBox="0 0 42 42" version="1.1" xmlns="http://www.w3.org/2000/svg" xmlns:xlink="http://www.w3.org/1999/xlink">
    <!-- Generator: Sketch 54.1 (76490) - https://sketchapp.com -->
    <title>5@1x</title>
    <desc>Created with Sketch.</desc>
    <defs>
        <rect id="path-1" x="0" y="0" width="34" height="34" rx="17"></rect>
        <filter x="-20.6%" y="-14.7%" width="141.2%" height="141.2%" filterUnits="objectBoundingBox" id="filter-3">
            <feOffset dx="0" dy="2" in="SourceAlpha" result="shadowOffsetOuter1"></feOffset>
            <feGaussianBlur stdDeviation="2" in="shadowOffsetOuter1" result="shadowBlurOuter1"></feGaussianBlur>
            <feColorMatrix values="0 0 0 0 0.580392157   0 0 0 0 0.31372549   0 0 0 0 0  0 0 0 0.2 0" type="matrix" in="shadowBlurOuter1"></feColorMatrix>
        </filter>
    </defs>
    <g id="个人学习中心" stroke="none" stroke-width="1" fill="none" fill-rule="evenodd">
        <g id="会员详情介绍页" transform="translate(-536.000000, -971.000000)">
            <g id="5" transform="translate(540.000000, 973.000000)">
                <mask id="mask-2" fill="white">
                    <use xlink:href="#path-1"></use>
                </mask>
                <g id="Mask">
                    <use fill="black" fill-opacity="1" filter="url(#filter-3)" xlink:href="#path-1"></use>
                    <use fill="#FFFFFF" fill-rule="evenodd" xlink:href="#path-1"></use>
                </g>
                <g id="Page-1" mask="url(#mask-2)">
                    <g transform="translate(7.000000, 9.000000)" id="合伙专享">
                        <g>
                            <path d="M15.3367105,5.41069376 C15.3367105,5.7052386 15.4103144,5.99598029 15.5499429,6.25565359 L15.6964481,6.5281159 L12.3197008,8.77770058 L10.4153968,3.7827285 L10.6461628,3.63320484 C11.1533985,3.30454412 11.460363,2.74337 11.460363,2.13481381 C11.460363,1.14935934 10.6553361,0.346715906 9.66595872,0.346715906 C8.67662103,0.346715906 7.87159212,1.14937603 7.87159212,2.13481381 C7.87159212,2.73524324 8.1733454,3.29308035 8.67182526,3.62354942 L8.89855931,3.7738636 L6.99086149,8.77769754 L3.58472463,6.50856245 L3.72632527,6.23761832 C3.8597216,5.98237262 3.93001263,5.69784262 3.93001263,5.41069376 C3.93001263,4.42523028 3.12499559,3.62257709 2.13562721,3.62257709 C1.14627315,3.62257709 0.341222982,4.42525354 0.341222982,5.41069376 C0.341222982,6.39610866 1.1462666,7.19875415 2.13562721,7.19875415 C2.18177709,7.19875415 2.22786526,7.19700258 2.27379707,7.19350657 L2.53980619,7.17325983 L2.62275025,7.42681665 L4.33897977,12.6732646 C4.34609414,12.6950329 4.36679955,12.7100181 4.3904293,12.7100177 L14.920133,12.7100177 C14.9437456,12.7100177 14.9644463,12.6950361 14.9715923,12.6731771 L16.7681512,7.18116213 L17.0291056,7.19581864 C17.0640752,7.19778271 17.0980276,7.19877291 17.1311335,7.19877291 C18.1205109,7.19877291 18.9255378,6.39612948 18.9255378,5.41072342 C18.9255062,4.42524592 18.1204587,3.62257709 17.1310771,3.62257709 C16.141732,3.62257709 15.3367105,4.42524454 15.3367105,5.41069376 Z" id="Path" stroke="#636363" stroke-width="0.68" fill="#FFFFFF" fill-rule="nonzero"></path>
                            <path d="M3.36617266,10.4846918 C3.36617266,10.4846918 4.6372082,9.5364922 6.22604967,9.5364922 C7.81492878,9.5364922 8.57724154,10.1690442 9.72131276,10.1690442 C10.8653652,10.1690442 11.9619659,9.22018805 13.8522253,9.22018805 C15.7424848,9.22018805 16.0764152,9.85274007 16.0764152,9.85274007 L14.8053985,12.6979954 L4.31938346,12.6979954 L3.36617266,10.4846918 Z" id="Shape" fill="#FEC62E" fill-rule="nonzero"></path>
                            <path d="M15.8345473,15.9750223 L3.4641405,15.9750223 C3.42976597,15.9750223 3.40429648,16.0000474 3.40429648,16.0278652 C3.40429648,16.0557394 3.42974688,16.0807457 3.4641405,16.0807457 L15.8345473,16.0807457 C15.8689308,16.0807457 15.8943913,16.0557303 15.8943913,16.0278652 C15.8943913,16.0000474 15.8689218,15.9750223 15.8345473,15.9750223 Z M15.3367105,5.41069376 C15.3367105,5.7052386 15.4103144,5.99598029 15.5499429,6.25565359 L15.6964481,6.5281159 L12.3197008,8.77770058 L10.4153968,3.7827285 L10.6461628,3.63320484 C11.1533985,3.30454412 11.460363,2.74337 11.460363,2.13481381 C11.460363,1.14935934 10.6553361,0.346715906 9.66595872,0.346715906 C8.67662103,0.346715906 7.87159212,1.14937603 7.87159212,2.13481381 C7.87159212,2.73524324 8.1733454,3.29308035 8.67182526,3.62354942 L8.89855931,3.7738636 L6.99086149,8.77769754 L3.58472463,6.50856245 L3.72632527,6.23761832 C3.8597216,5.98237262 3.93001263,5.69784262 3.93001263,5.41069376 C3.93001263,4.42523028 3.12499559,3.62257709 2.13562721,3.62257709 C1.14627315,3.62257709 0.341222982,4.42525354 0.341222982,5.41069376 C0.341222982,6.39610866 1.1462666,7.19875415 2.13562721,7.19875415 C2.18177709,7.19875415 2.22786526,7.19700258 2.27379707,7.19350657 L2.53980619,7.17325983 L2.62275025,7.42681665 L4.33897977,12.6732646 C4.34609414,12.6950329 4.36679955,12.7100181 4.3904293,12.7100177 L14.920133,12.7100177 C14.9437456,12.7100177 14.9644463,12.6950361 14.9715923,12.6731771 L16.7681512,7.18116213 L17.0291056,7.19581864 C17.0640752,7.19778271 17.0980276,7.19877291 17.1311335,7.19877291 C18.1205109,7.19877291 18.9255378,6.39612948 18.9255378,5.41072342 C18.9255062,4.42524592 18.1204587,3.62257709 17.1310771,3.62257709 C16.141732,3.62257709 15.3367105,4.42524454 15.3367105,5.41069376 Z" id="Shape" stroke="#636363" stroke-width="0.68" fill-rule="nonzero"></path>
                        </g>
                    </g>
                </g>
            </g>
        </g>
    </g>
</svg>