<?xml version="1.0" standalone="no"?><!DOCTYPE svg PUBLIC "-//W3C//DTD SVG 1.1//EN" "http://www.w3.org/Graphics/SVG/1.1/DTD/svg11.dtd"><svg t="1548043064521" class="icon" style="" viewBox="0 0 1024 1024" version="1.1" xmlns="http://www.w3.org/2000/svg" p-id="2912" xmlns:xlink="http://www.w3.org/1999/xlink" width="200" height="200"><defs><style type="text/css"></style></defs><path d="M511.7 948.5c-59 0-116.2-11.6-170.1-34.4-52-22-98.7-53.5-138.9-93.6-40.1-40.1-71.6-86.8-93.6-138.9-22.8-53.9-34.4-111.1-34.4-170.1s11.6-116.2 34.4-170.1c22-52 53.5-98.7 93.6-138.9 40.1-40.1 86.8-71.6 138.9-93.6 53.9-22.8 111.1-34.4 170.1-34.4s116.2 11.6 170.1 34.4c52 22 98.7 53.5 138.9 93.6 40.1 40.1 71.6 86.8 93.6 138.9 22.8 53.9 34.4 111.1 34.4 170.1s-11.6 116.2-34.4 170.1c-22 52-53.5 98.7-93.6 138.9-40.1 40.1-86.8 71.6-138.9 93.6-53.9 22.8-111 34.4-170.1 34.4z m0-851.9C283 96.6 96.9 282.7 96.9 511.4S283 926.2 511.7 926.2s414.8-186.1 414.8-414.8S740.4 96.6 511.7 96.6z" fill="#E76D6C" p-id="2913"></path><path d="M511.7 1022.7c-69 0-136-13.6-199-40.1-60.9-25.8-115.5-62.6-162.6-109.5-46.9-46.9-83.8-101.6-109.5-162.6-26.7-63-40.1-130-40.1-199s13.6-136 40.1-199c25.8-60.9 62.6-115.5 109.5-162.6C197.1 103 251.8 66 312.7 40.4c63-26.7 130-40.1 199-40.1s136 13.6 199 40.1c60.9 25.8 115.5 62.6 162.6 109.5 47 46.9 83.8 101.6 109.5 162.6 26.7 63 40.1 130 40.1 199s-13.6 136-40.1 199C957 771.4 920.2 826 873.3 873s-101.6 83.8-162.6 109.5c-63 26.7-129.9 40.2-199 40.2z m0-1000.2c-269.6 0-489 219.4-489 489s219.4 489 489 489 489-219.4 489-489-219.4-489-489-489z" fill="#E76D6C" p-id="2914"></path><path d="M854.6 509.9c0 7.4 6 13.3 13.3 13.3 7.4 0 13.3-6 13.3-13.3 0-7.4-6-13.3-13.3-13.3-7.3-0.1-13.3 5.9-13.3 13.3zM806.6 332.3c0 7.4 6 13.3 13.3 13.3 7.4 0 13.3-6 13.3-13.3 0-7.4-6-13.3-13.3-13.3s-13.3 6-13.3 13.3zM462 555.7c-3.7 0-7.3-1.8-9.4-5.2-3.3-5.2-1.8-12 3.4-15.3l276.3-175c5.2-3.3 12-1.8 15.3 3.4 3.3 5.2 1.8 12-3.4 15.3L468 553.9c-1.9 1.2-4 1.8-6 1.8z" fill="#E76D6C" p-id="2915"></path><path d="M543.6 543.9c-2.2 0-4.4-0.7-6.5-2L317.7 386.8c-5-3.6-6.2-10.4-2.7-15.5 3.6-5 10.5-6.2 15.5-2.7l219.6 155c5 3.6 6.2 10.4 2.7 15.5-2.3 3.1-5.7 4.8-9.2 4.8z" fill="#E76D6C" p-id="2916"></path><path d="M539.1 875.8c-5.8 0-10.7-4.6-11.1-10.5l-25.8-395.5c-0.4-6.1 4.2-11.5 10.3-11.8 6.1-0.4 11.5 4.2 11.8 10.3l25.8 395.5c0.4 6.1-4.2 11.5-10.3 11.8-0.2 0.2-0.5 0.2-0.7 0.2z" fill="#E76D6C" p-id="2917"></path><path d="M492.6 511.3c0 10.6 8.6 19.1 19.1 19.1 10.6 0 19.1-8.6 19.1-19.1 0-6.8-3.6-13.1-9.6-16.6-5.9-3.4-13.2-3.4-19.1 0-5.9 3.5-9.5 9.8-9.5 16.6zM676.3 202.6c0 7.4 6 13.3 13.3 13.3 7.4 0 13.3-6 13.3-13.3 0-7.4-6-13.3-13.3-13.3-7.4-0.1-13.3 5.9-13.3 13.3zM498.5 155.3c0 7.4 6 13.3 13.3 13.3 7.4 0 13.3-6 13.3-13.3 0-7.4-6-13.3-13.3-13.3s-13.3 6-13.3 13.3zM320.9 203.4c0 7.4 6 13.3 13.3 13.3 7.4 0 13.3-6 13.3-13.3 0-7.4-6-13.3-13.3-13.3-7.3-0.1-13.3 5.9-13.3 13.3zM191.2 333.7c0 7.4 6 13.3 13.3 13.3 7.4 0 13.3-6 13.3-13.3 0-7.4-6-13.3-13.3-13.3-7.3-0.1-13.3 5.9-13.3 13.3zM143.9 511.4c0 7.4 6 13.3 13.3 13.3 7.4 0 13.3-6 13.3-13.3 0-7.4-6-13.3-13.3-13.3-7.3 0-13.3 6-13.3 13.3zM192 689c0 7.4 6 13.3 13.3 13.3 7.4 0 13.3-6 13.3-13.3 0-7.4-6-13.3-13.3-13.3-7.4 0-13.3 5.9-13.3 13.3zM322.3 818.8c0 7.4 6 13.3 13.3 13.3 7.4 0 13.3-6 13.3-13.3 0-7.4-6-13.3-13.3-13.3-7.4-0.1-13.3 5.9-13.3 13.3zM500 865.9c0 7.4 6 13.3 13.3 13.3 7.4 0 13.3-6 13.3-13.3 0-7.4-6-13.3-13.3-13.3-7.3 0-13.3 5.9-13.3 13.3zM677.6 818c0 7.4 6 13.3 13.3 13.3 7.4 0 13.3-6 13.3-13.3 0-7.4-6-13.3-13.3-13.3-7.3-0.1-13.3 5.9-13.3 13.3zM807.4 687.6c0 7.4 6 13.3 13.3 13.3 7.4 0 13.3-6 13.3-13.3 0-7.4-6-13.3-13.3-13.3-7.4-0.1-13.3 5.9-13.3 13.3z" fill="#E76D6C" p-id="2918"></path></svg>