<?xml version="1.0" encoding="UTF-8"?>
<svg width="42px" height="42px" viewBox="0 0 42 42" version="1.1" xmlns="http://www.w3.org/2000/svg" xmlns:xlink="http://www.w3.org/1999/xlink">
    <!-- Generator: Sketch 54.1 (76490) - https://sketchapp.com -->
    <title>3@1x</title>
    <desc>Created with Sketch.</desc>
    <defs>
        <rect id="path-1" x="0" y="0" width="34" height="34" rx="17"></rect>
        <filter x="-20.6%" y="-14.7%" width="141.2%" height="141.2%" filterUnits="objectBoundingBox" id="filter-3">
            <feOffset dx="0" dy="2" in="SourceAlpha" result="shadowOffsetOuter1"></feOffset>
            <feGaussianBlur stdDeviation="2" in="shadowOffsetOuter1" result="shadowBlurOuter1"></feGaussianBlur>
            <feColorMatrix values="0 0 0 0 0.580392157   0 0 0 0 0.31372549   0 0 0 0 0  0 0 0 0.2 0" type="matrix" in="shadowBlurOuter1"></feColorMatrix>
        </filter>
        <path d="M0.543495596,6.48382345 C0.543495596,7.34737655 0.540813028,8.21096092 0.545554312,9.07445149 C0.546614862,9.27088552 0.560370826,9.46916414 0.590159817,9.66322207 C0.855952477,11.3939237 2.59631578,12.6028855 4.30632862,12.2490354 C5.83074514,11.9336092 6.87180018,10.6542713 6.87211211,9.09492966 C6.87251761,7.3566308 6.8747011,5.61836322 6.86927358,3.8801269 C6.86855615,3.65095908 6.84591028,3.41838345 6.80249009,3.19337379 C6.49206073,1.58516598 4.88233229,0.450613333 3.27382037,0.698696092 C1.66727358,0.946434943 0.543807523,2.26088276 0.543526789,3.89316414 C0.543370826,4.75674851 0.543495596,5.62030161 0.543495596,6.48382345" id="path-4"></path>
    </defs>
    <g id="个人学习中心" stroke="none" stroke-width="1" fill="none" fill-rule="evenodd">
        <g id="会员详情介绍页" transform="translate(-536.000000, -725.000000)">
            <g id="3" transform="translate(540.000000, 726.857143)">
                <g id="雅思单词-copy-2">
                    <mask id="mask-2" fill="white">
                        <use xlink:href="#path-1"></use>
                    </mask>
                    <g id="Mask">
                        <use fill="black" fill-opacity="1" filter="url(#filter-3)" xlink:href="#path-1"></use>
                        <use fill="#FFFFFF" fill-rule="evenodd" xlink:href="#path-1"></use>
                    </g>
                </g>
                <g id="Page-1" transform="translate(10.200000, 7.933333)">
                    <g id="Group-11">
                        <path d="M6.99755248,0 C7.23745523,0.0448643678 7.48128826,0.0746905747 7.7165745,0.137031724 C9.24685523,0.54249931 10.3839525,1.9021554 10.5216369,3.48191264 C10.5319617,3.60037333 10.5398534,3.71952184 10.539947,3.8383577 C10.5410699,5.60607632 10.5513323,7.37392 10.5372644,9.14154483 C10.5267837,10.4537729 9.97935248,11.5122906 8.91368642,12.2725462 C6.61344606,13.9135503 3.3603011,12.5397628 2.92556899,9.75254437 C2.89191211,9.53663264 2.87759468,9.31562483 2.87712679,9.09696184 C2.87332128,7.35153471 2.87378917,5.60613885 2.87531761,3.86071172 C2.87697083,1.95999448 4.20977083,0.375954023 6.07852312,0.0508983908 C6.19128459,0.0312643678 6.30495064,0.0168827586 6.41814881,3.12643678e-05 C6.61129376,0 6.80440752,0 6.99755248,0" id="Path" fill="#636363"></path>
                        <g id="Path-9" transform="translate(3.000000, 0.000000)">
                            <mask id="mask-5" fill="white">
                                <use xlink:href="#path-4"></use>
                            </mask>
                            <use id="Mask" fill="#FFFFFF" xlink:href="#path-4"></use>
                            <polygon fill="#FEC62E" mask="url(#mask-5)" points="6.8 8.56666667 0.205737325 8.56666667 0.0406738281 10.06272 1.23395182 11.7496517 3.0789388 12.4478516 4.60323893 12.4166448 6.00496419 12.0307209 7.10758464 10.9180949"></polygon>
                        </g>
                        <path d="M3.36523266,18.114012 C3.35344183,18.105852 3.34239963,18.0962538 3.32976661,18.0897821 C3.16881248,18.0072441 3.09301431,17.864366 3.12795009,17.7081692 C3.16419596,17.5459697 3.29773174,17.4443292 3.48027119,17.4442041 C4.42718679,17.4436726 5.37413358,17.443954 6.32104917,17.443954 L6.45717394,17.443954 L6.45717394,15.499748 C6.2652455,15.4790823 6.07362899,15.4635752 5.88350972,15.4372506 C4.33691523,15.2232147 3.01322349,14.5575963 1.92213541,13.4408331 C0.850605138,12.3441103 0.226658349,11.0249416 0.0281794495,9.50349241 C0.0133005505,9.38928368 -0.000455412844,9.2737931 1.24770645e-05,9.15895908 C0.000823486239,8.96937195 0.150205138,8.82433655 0.33230789,8.82308598 C0.511291376,8.82189793 0.654590459,8.95899218 0.668284037,9.14351448 C0.760551927,10.3843034 1.18923266,11.4971899 1.9595978,12.4702621 C2.95695193,13.7301223 4.25088587,14.507417 5.83824917,14.7545931 C9.17368037,15.273988 12.0991776,13.0792607 12.7878492,10.0568405 C12.8560987,9.75729655 12.8857006,9.4484046 12.9239739,9.14267034 C12.947462,8.95514667 13.0901061,8.81573885 13.2734253,8.82330483 C13.4592712,8.8309646 13.6101189,8.98466023 13.5920272,9.18156322 C13.5651391,9.47363494 13.5402473,9.76939586 13.4726528,10.053589 C12.8453061,12.6922078 11.2383538,14.424629 8.65653725,15.2409103 C8.20602165,15.3833195 7.73941064,15.4547586 7.26712257,15.4828028 C7.22666569,15.4852101 7.18639596,15.4908377 7.13892073,15.4957149 L7.13892073,17.443954 L7.2623189,17.443954 L10.0585538,17.443954 C10.2704767,17.4439853 10.405385,17.5365591 10.4437831,17.7081692 C10.480029,17.8703375 10.4036694,18.0040239 10.2214418,18.0984423 C10.2153905,18.1016 10.2113978,18.1087283 10.2064694,18.114012 L3.36523266,18.114012 Z" id="Fill-3" fill="#636363"></path>
                        <path d="M3,8.56666667 L10.1900013,8.56666667" id="Path-2" stroke="#636363" stroke-width="0.7"></path>
                    </g>
                </g>
            </g>
        </g>
    </g>
</svg>