<?xml version="1.0" encoding="UTF-8"?>
<svg width="42px" height="42px" viewBox="0 0 42 42" version="1.1" xmlns="http://www.w3.org/2000/svg" xmlns:xlink="http://www.w3.org/1999/xlink">
    <!-- Generator: Sketch 54.1 (76490) - https://sketchapp.com -->
    <title>6@1x</title>
    <desc>Created with Sketch.</desc>
    <defs>
        <rect id="path-1" x="0" y="0" width="34" height="34" rx="17"></rect>
        <filter x="-20.6%" y="-14.7%" width="141.2%" height="141.2%" filterUnits="objectBoundingBox" id="filter-3">
            <feOffset dx="0" dy="2" in="SourceAlpha" result="shadowOffsetOuter1"></feOffset>
            <feGaussianBlur stdDeviation="2" in="shadowOffsetOuter1" result="shadowBlurOuter1"></feGaussianBlur>
            <feColorMatrix values="0 0 0 0 0.580392157   0 0 0 0 0.31372549   0 0 0 0 0  0 0 0 0.2 0" type="matrix" in="shadowBlurOuter1"></feColorMatrix>
        </filter>
    </defs>
    <g id="个人学习中心" stroke="none" stroke-width="1" fill="none" fill-rule="evenodd">
        <g id="会员详情介绍页" transform="translate(-536.000000, -774.000000)">
            <g id="6" transform="translate(540.000000, 776.000000)">
                <mask id="mask-2" fill="white">
                    <use xlink:href="#path-1"></use>
                </mask>
                <g id="Mask">
                    <use fill="black" fill-opacity="1" filter="url(#filter-3)" xlink:href="#path-1"></use>
                    <use fill="#FFFFFF" fill-rule="evenodd" xlink:href="#path-1"></use>
                </g>
                <path d="M21.0236654,22.3833333 L10.614209,22.3833333 C8.50767953,22.3833333 6.8,20.6756538 6.8,18.5691243 C6.8,16.7654181 8.05199596,15.2541312 9.73435474,14.8568967 C9.66807265,14.5193782 9.63333333,14.1705494 9.63333333,13.8136068 C9.63333333,10.8404739 12.0435338,8.43027344 15.0166667,8.43027344 C17.8222739,8.43027344 20.1265999,10.5765133 20.3773738,13.3167219 C20.3849115,13.3166851 20.3924536,13.3166667 20.4,13.3166667 L22.1,13.3166667 C24.6036909,13.3166667 26.6333333,15.3463091 26.6333333,17.85 C26.6333333,20.3536909 24.6036909,22.3833333 22.1,22.3833333 L21.0236654,22.3833333 Z" id="Combined-Shape" fill="#FFFFFF" mask="url(#mask-2)"></path>
                <path d="M7.47976481,20.3041383 C7.47976481,20.3041383 9.57599177,19.3589342 11.9451605,19.3589342 C14.3143854,19.3589342 15.4510926,19.9603916 17.1570512,19.9603916 C18.8629817,19.9603916 20.4981556,19.0581787 23.3167777,19.0581787 C26.1353997,19.0581787 26.055011,19.6861674 26.055011,19.6861674 C25.6664373,20.4281232 25.2728419,20.9505997 24.8742249,21.253597 C24.5107226,21.5299028 23.8137682,21.8675371 22.7833618,22.2664998 L10.2503581,22.2664998 C9.19708536,21.9061342 8.59851154,21.619439 8.45463659,21.406414 C8.28265355,21.1517715 7.95769629,20.7843463 7.47976481,20.3041383 Z" id="Path" fill="#FEC62E" mask="url(#mask-2)"></path>
                <path d="M21.0236654,22.0433333 L22.1,22.0433333 C24.4159141,22.0433333 26.2933333,20.1659141 26.2933333,17.85 C26.2933333,15.5340859 24.4159141,13.6566667 22.1,13.6566667 L20.4,13.6566667 C20.3895133,13.6566752 20.3895133,13.6566752 20.3790353,13.6567179 L20.0672076,13.6582417 L20.0387887,13.347708 C19.8023993,10.7646784 17.6286672,8.77027344 15.0166667,8.77027344 C12.2313106,8.77027344 9.97333333,11.0282507 9.97333333,13.8136068 C9.97333333,14.1448283 10.0052166,14.4717658 10.0679824,14.7913787 L10.1310595,15.1125769 L9.81248628,15.1877976 C8.25759728,15.5549343 7.14,16.9494151 7.14,18.5691243 C7.14,20.487877 8.69545634,22.0433333 10.614209,22.0433333 L21.0236654,22.0433333 Z" id="Combined-Shape" stroke="#636363" stroke-width="0.68" mask="url(#mask-2)"></path>
                <polyline id="Path-2" stroke="#636363" stroke-width="0.68" stroke-linecap="round" stroke-linejoin="round" mask="url(#mask-2)" points="15.8696411 11.9 15.8696411 18.289388 13.0333333 15.9263631"></polyline>
                <polyline id="Path-2" stroke="#636363" stroke-width="0.68" stroke-linecap="round" stroke-linejoin="round" mask="url(#mask-2)" transform="translate(17.284821, 15.094694) scale(-1, 1) translate(-17.284821, -15.094694) " points="18.7029744 11.9 18.7029744 18.289388 15.8666667 15.9263631"></polyline>
            </g>
        </g>
    </g>
</svg>