<?xml version="1.0" encoding="UTF-8"?>
<svg width="42px" height="42px" viewBox="0 0 42 42" version="1.1" xmlns="http://www.w3.org/2000/svg" xmlns:xlink="http://www.w3.org/1999/xlink">
    <!-- Generator: Sketch 54.1 (76490) - https://sketchapp.com -->
    <title>2@1x</title>
    <desc>Created with Sketch.</desc>
    <defs>
        <rect id="path-1" x="0" y="0" width="34" height="34" rx="17"></rect>
        <filter x="-20.6%" y="-14.7%" width="141.2%" height="141.2%" filterUnits="objectBoundingBox" id="filter-3">
            <feOffset dx="0" dy="2" in="SourceAlpha" result="shadowOffsetOuter1"></feOffset>
            <feGaussianBlur stdDeviation="2" in="shadowOffsetOuter1" result="shadowBlurOuter1"></feGaussianBlur>
            <feColorMatrix values="0 0 0 0 0.580392157   0 0 0 0 0.31372549   0 0 0 0 0  0 0 0 0.2 0" type="matrix" in="shadowBlurOuter1"></feColorMatrix>
        </filter>
    </defs>
    <g id="个人学习中心" stroke="none" stroke-width="1" fill="none" fill-rule="evenodd">
        <g id="会员详情介绍页" transform="translate(-536.000000, -675.000000)">
            <g id="2" transform="translate(540.000000, 677.428571)">
                <g id="作业优先">
                    <g id="雅思单词-copy-3">
                        <mask id="mask-2" fill="white">
                            <use xlink:href="#path-1"></use>
                        </mask>
                        <g id="Mask">
                            <use fill="black" fill-opacity="1" filter="url(#filter-3)" xlink:href="#path-1"></use>
                            <use fill="#FFFFFF" fill-rule="evenodd" xlink:href="#path-1"></use>
                        </g>
                    </g>
                </g>
                <g id="Page-1" transform="translate(6.800000, 6.800000)">
                    <path d="M10.2,0 C15.8333086,0 20.4,4.56669141 20.4,10.2 C20.4,15.8333086 15.8333086,20.4 10.2,20.4 C4.56669141,20.4 0,15.8333086 0,10.2 C0,4.56669141 4.56669141,0 10.2,0" id="Fill-1" fill="#636363"></path>
                    <path d="M10.2,0.708333333 C15.4421044,0.708333333 19.6916667,4.95789564 19.6916667,10.2 C19.6916667,15.4421044 15.4421044,19.6916667 10.2,19.6916667 C4.95789564,19.6916667 0.708333333,15.4421044 0.708333333,10.2 C0.708333333,4.95789564 4.95789564,0.708333333 10.2,0.708333333" id="Fill-3" fill="#FFFFFF"></path>
                    <path d="M13.652437,7.8414293 C13.9545323,7.53933398 13.9545323,7.0496543 13.652437,6.74759883 C13.3503417,6.44554336 12.860662,6.44554336 12.5586066,6.74759883 L9.62590734,9.68033789 L10.7197378,10.7741285 L13.652437,7.8414293 Z" id="Fill-5" fill="#FEC62E"></path>
                    <path d="M9.73099523,9.9853657 L5.3802968,14.3360641 C5.19151711,14.5248438 5.19151711,14.8309634 5.3802968,15.0197829 C5.47468664,15.1141329 5.59840148,15.1613477 5.72211633,15.1613477 C5.84579133,15.1613477 5.96954602,15.1141329 6.06393586,15.0197829 L10.4146343,10.6690446 L9.73099523,9.9853657 Z" id="Fill-7" fill="#524E4D"></path>
                    <path d="M6.81591891,5.72210437 C6.51382359,5.42000906 6.02414391,5.42000906 5.72208844,5.72210437 C5.42003297,6.02419969 5.42003297,6.51387937 5.72208844,6.81593484 L9.68028609,10.7740927 L10.7741166,9.68030203 L6.81591891,5.72210437 Z" id="Fill-9" fill="#FEC62E"></path>
                    <path d="M10.2,11.4085287 C9.53361328,11.4085287 8.99145937,10.8663748 8.99145937,10.199988 C8.99145937,9.53360133 9.53361328,8.99148727 10.2,8.99148727 C10.8663867,8.99148727 11.4085406,9.53360133 11.4085406,10.199988 C11.4085406,10.8663748 10.8663867,11.4085287 10.2,11.4085287" id="Fill-11" fill="#524E4D"></path>
                    <path d="M3.45908518,10.6834123 L2.73396878,10.6834123 C2.46697581,10.6834123 2.25054456,10.4669412 2.25054456,10.199988 C2.25054456,9.93307477 2.46697581,9.71660367 2.73396878,9.71660367 L3.45908518,9.71660367 C3.72607815,9.71660367 3.9425094,9.93307477 3.9425094,10.199988 C3.9425094,10.4669412 3.72607815,10.6834123 3.45908518,10.6834123" id="Fill-13" fill="#7A7674"></path>
                    <path d="M10.2,3.94249346 C9.93300703,3.94249346 9.71657578,3.72602237 9.71657578,3.45906924 L9.71657578,2.73395284 C9.71657578,2.46703956 9.93300703,2.25056846 10.2,2.25056846 C10.466993,2.25056846 10.6834242,2.46703956 10.6834242,2.73395284 L10.6834242,3.45906924 C10.6834242,3.72602237 10.466993,3.94249346 10.2,3.94249346" id="Fill-15" fill="#7A7674"></path>
                    <path d="M17.6660352,10.6834123 L16.9409188,10.6834123 C16.6739258,10.6834123 16.4574946,10.4669412 16.4574946,10.199988 C16.4574946,9.93307477 16.6739258,9.71660367 16.9409188,9.71660367 L17.6660352,9.71660367 C17.9330282,9.71660367 18.1494594,9.93307477 18.1494594,10.199988 C18.1494594,10.4669412 17.9330282,10.6834123 17.6660352,10.6834123" id="Fill-17" fill="#7A7674"></path>
                    <path d="M10.2,18.1494475 C9.93300703,18.1494475 9.71657578,17.9329764 9.71657578,17.6660233 L9.71657578,16.9409068 C9.71657578,16.6739936 9.93300703,16.4575225 10.2,16.4575225 C10.466993,16.4575225 10.6834242,16.6739936 10.6834242,16.9409068 L10.6834242,17.6660233 C10.6834242,17.9329764 10.466993,18.1494475 10.2,18.1494475" id="Fill-19" fill="#7A7674"></path>
                </g>
            </g>
        </g>
    </g>
</svg>