<?xml version="1.0" encoding="UTF-8"?>
<svg width="18px" height="12px" viewBox="0 0 18 12" version="1.1" xmlns="http://www.w3.org/2000/svg" xmlns:xlink="http://www.w3.org/1999/xlink">
    <!-- Generator: Sketch 52.4 (67378) - http://www.bohemiancoding.com/sketch -->
    <title>学习进度</title>
    <desc>Created with Sketch.</desc>
    <g id="个人学习中心" stroke="none" stroke-width="1" fill="none" fill-rule="evenodd">
        <g id="会员详情介绍页" transform="translate(-657.000000, -2773.000000)">
            <g id="语伴" transform="translate(482.000000, 2730.000000)">
                <g id="母语）学习语言" transform="translate(73.451613, 42.666667)">
                    <g id="Group-2-Copy" transform="translate(44.709677, 0.000000)">
                        <g id="学习进度" transform="translate(57.225806, 0.000000)">
                            <path d="M17.0322581,1.90393136 L17.0322581,10.6666667 C17.0322581,11.2557704 16.5546951,11.7333333 15.9655914,11.7333333 L1.6554793,11.7333333 C1.06637556,11.7333333 0.588812631,11.2557704 0.588812631,10.6666667 C0.588812631,10.2954171 0.781842038,9.95087204 1.0984485,9.75699944 L15.4085606,0.994264126 C15.9109559,0.686624512 16.567619,0.84450522 16.8752586,1.34690056 C16.9779249,1.51456126 17.0322581,1.7073341 17.0322581,1.90393136 Z" id="Mask" fill="#F2F2F2"></path>
                            <path d="M9.1497152,4.8 L9.1497152,11.7333333 L1.64298777,11.7333333 C1.05388404,11.7333333 0.576321105,11.2557704 0.576321105,10.6666667 C0.576321105,10.2960737 0.768673562,9.95203976 1.08438503,9.75796388 L9.1497152,4.8 Z" id="Rectangle-10" fill="#A8E769"></path>
                        </g>
                    </g>
                </g>
            </g>
        </g>
    </g>
</svg>