<?xml version="1.0" encoding="UTF-8"?>
<svg width="20px" height="18px" viewBox="0 0 20 18" version="1.1" xmlns="http://www.w3.org/2000/svg" xmlns:xlink="http://www.w3.org/1999/xlink">
    <!-- Generator: Sketch 52.4 (67378) - http://www.bohemiancoding.com/sketch -->
    <title>问题</title>
    <desc>Created with Sketch.</desc>
    <g id="个人学习中心" stroke="none" stroke-width="1" fill="none" fill-rule="evenodd">
        <g id="会员详情介绍页" transform="translate(-540.000000, -2167.000000)" fill-rule="nonzero">
            <g id="问题" transform="translate(540.000000, 2167.000000)">
                <path d="M10.4665995,0 C5.21076104,0 0.952380952,3.57884131 0.952380952,7.99596977 C0.952380952,9.81224114 1.67236991,11.4881413 2.88630888,12.8320207 C3.2753589,13.2627147 1.44556847,16 0.915772751,17 C0.385977029,18 9.21330331,16 10.4761905,16 C15.7416199,16 20,12.4211587 20,7.99596977 C20,3.57078086 15.722438,0 10.4665995,0 Z" id="路径" fill="#91D249"></path>
                <path d="M9.39617515,10.1203691 C9.34904702,9.79384869 9.31370093,9.3985872 9.31370093,9.20095645 C9.31370093,8.9603625 9.24584774,8.05947799 10.5721261,7.30933062 C11.2083559,6.87110592 11.8496484,6.55097847 11.9882223,6.18410956 C12.1267962,5.81724065 11.893966,5.35145322 11.5522871,5.15382248 C11.2106081,4.94759909 10.9164691,4.89821591 10.2444815,5.0588885 C9.57249391,5.21956108 9.18088886,5.61999777 8.70960756,5.80903587 C8.30901846,5.97229605 7.81738281,5.80903587 7.81738281,5.43396219 C7.81738281,5.0588885 7.84868751,4.68381481 8.16172573,4.30874112 C8.47476394,3.93366744 9.44330328,3.55859375 10.2444815,3.55859375 C11.175262,3.55859375 11.9175301,3.73044657 12.4830676,4.07415222 C13.0486052,4.41785786 13.5316685,4.76539589 13.5316685,5.84982641 C13.5316685,6.93425693 12.6833622,7.22464899 11.9882223,7.71442954 C11.4580308,8.07532046 11.1045699,8.36747026 10.9160573,8.57369365 C10.7393268,8.77991704 10.6450706,9.00332571 10.6450706,9.24391966 C10.6450706,9.3985872 10.6686347,9.70792228 10.7275448,10.0086647 C10.798237,10.2922219 10.4801221,10.5585938 10.067751,10.5585938 C9.72607206,10.5585938 9.43152125,10.3695556 9.39617515,10.1203691 Z" id="路径" fill="#FFFFFF"></path>
                <path d="M9.16073754,11.9977883 C9.16073754,11.7244964 9.25365275,11.4884716 9.43948318,11.2897138 C9.62531361,11.090956 9.85760165,10.9915771 10.1131185,10.9915771 C10.3802497,10.9915771 10.6009234,11.090956 10.7867538,11.2897138 C10.9725842,11.4884716 11.0654994,11.7244964 11.0654994,11.9977883 C11.0654994,12.2586579 10.9725842,12.4946827 10.7867538,12.6934405 C10.6009234,12.8921983 10.3802497,12.9915771 10.1363473,12.9915771 C9.83437284,12.9915771 9.60208481,12.8921983 9.41625438,12.6934405 C9.25365275,12.4946827 9.16073754,12.2586579 9.16073754,11.9977883 Z" id="路径" fill="#FFFFFF"></path>
            </g>
        </g>
    </g>
</svg>