<?xml version="1.0" encoding="UTF-8"?>
<svg width="30px" height="30px" viewBox="0 0 30 30" version="1.1" xmlns="http://www.w3.org/2000/svg" xmlns:xlink="http://www.w3.org/1999/xlink">
    <!-- Generator: Sketch 52.4 (67378) - http://www.bohemiancoding.com/sketch -->
    <title>分组 7</title>
    <desc>Created with Sketch.</desc>
    <g id="个人学习中心" stroke="none" stroke-width="1" fill="none" fill-rule="evenodd">
        <g id="会员详情介绍页" transform="translate(-485.000000, -2062.000000)" fill-rule="nonzero">
            <g id="心" transform="translate(485.000000, 2062.000000)">
                <path d="M14.823532,28.9999968 L2.82353197,17.7631604 C1.05882371,15.9210545 0,13.342118 0,10.7631523 C-1.10206089e-16,5.42103917 4.05881441,1.18421091 9.17647424,1.18421091 C11.8235351,1.18421091 13.7647114,2.65789495 15,3.94736808 C16.7647083,2.10526222 18.8823712,1 21,1 C25.9411856,1 30,5.23682826 30,10.5789414 C30,13.3420986 28.9411763,15.7368404 26.8235258,17.7631636 L14.8235258,29 L14.823532,28.9999968 Z M9.17648044,3.02632001 C5.11766604,3.02632001 1.76471756,6.52632406 1.76471756,10.7631523 C1.76471756,12.7894691 2.64707014,14.9999806 4.05883922,16.2894796 L14.8235506,26.4210635 L25.7647362,16.2894796 C27.3529733,14.8157956 28.2353259,12.7894756 28.2353259,10.5789382 C28.2353259,6.34210991 25.0588516,2.84210586 21.0000372,2.84210586 C19.0588578,2.84210586 17.117666,3.94736808 15.7059032,5.78947394 L15.0000186,6.71052525 L14.2941341,5.78947394 C12.8823681,4.13157899 10.9411856,3.02631677 9.17647424,3.02631677 L9.17648044,3.02632001 Z" id="形状" fill="#F57223"></path>
                <path d="M24.9203627,13.4243585 C25.5934665,12.6378321 26,11.6163916 26,10.5 C26,8.01471863 23.9852814,6 21.5,6" id="路径" stroke="#FF89EF" stroke-width="1.5" stroke-linecap="round"></path>
            </g>
        </g>
    </g>
</svg>